<!-- Generator: Adobe Illustrator 24.2.3, SVG Export Plug-In  -->
<svg version="1.1" xmlns="http://www.w3.org/2000/svg" xmlns:xlink="http://www.w3.org/1999/xlink" x="0px" y="0px" width="146.4px"
	 height="148.4px" viewBox="0 0 146.4 148.4" style="overflow:visible;enable-background:new 0 0 146.4 148.4;"
	 xml:space="preserve">
<style type="text/css">
	.st0{clip-path:url(#SVGID_2_);fill:#FFFFFF;}
	.st1{clip-path:url(#SVGID_2_);fill:#D6DBF5;}
	.st2{clip-path:url(#SVGID_2_);}
	.st3{fill:#B3B3B3;}
	.st4{fill:#B3B3B3;stroke:#FFFFFF;stroke-width:0.2777;stroke-linecap:round;stroke-linejoin:round;}
	.st5{fill:#B3B3B3;stroke:#FFFFFF;stroke-width:0.3996;stroke-linejoin:round;stroke-miterlimit:10;}
	.st6{fill:none;stroke:#FFFFFF;stroke-miterlimit:10;}
	.st7{clip-path:url(#SVGID_4_);fill:#FFFFFF;}
	.st8{clip-path:url(#SVGID_4_);fill:#D6DBF5;}
	.st9{clip-path:url(#SVGID_4_);}
</style>
<defs>
</defs>
<g>
	<defs>
		
			<ellipse id="SVGID_1_" transform="matrix(0.7071 -0.7071 0.7071 0.7071 -31.0958 75.5803)" cx="75.7" cy="75.3" rx="70.2" ry="70.2"/>
	</defs>
	<clipPath id="SVGID_2_">
		<use xlink:href="#SVGID_1_"  style="overflow:visible;"/>
	</clipPath>
	
		<ellipse transform="matrix(0.7071 -0.7071 0.7071 0.7071 -31.0958 75.5803)" class="st0" cx="75.7" cy="75.3" rx="70.2" ry="70.2"/>
	<path class="st1" d="M52.4,65.7c0,0,4,3.6,6.6,7.4c2.6,3.8,4.1,7.4,4.6,9.1c0.5,1.7,0.3,4.5-0.7,6.7c-1,2.2-4.2,8.9-5,11.1
		c-0.7,2.3-1.7,6.5,0.5,9.3c2.2,2.8,5.9,3.8,8.4,3.6c2.5-0.2,5.3-2.1,7.1-4.4c1.8-2.3,7.1-9.3,8.3-10.8c1.3-1.7,3.6-4.5,4.3-5.3
		c1-1.2,1.7-3.3,1.7-7.3c0-4,0.7-11.6,1.6-14.5c0.9-2.9,2-7.4,4.8-10.6c2.6-2.9,5.6-5.5,7.7-7.9c2.7-3.1,4.5-7,3.5-11.9
		c-0.5-2.4-3.1-5.7-5-7.5c-1.9-1.8-4.1-4-10.7-3.8S45.2,55.9,52.4,65.7z"/>
	<g class="st2">
		<g>
			<path class="st3" d="M45.8,122.6c-0.3,0-0.4-0.3-0.2-0.5C45.8,122.2,45.8,122.4,45.8,122.6"/>
			<path class="st3" d="M36.3,121.5c-0.1,0.1-0.1,0.1-0.2,0.2c0-0.2,0-0.4,0-0.5C36.3,121.3,36.2,121.4,36.3,121.5"/>
			<path class="st3" d="M32.5,113c-0.4,0.1-0.6-0.5-0.3-0.7c0.1-0.1,0.4,0,0.4,0.1C32.8,112.6,32.6,112.8,32.5,113"/>
			<path class="st3" d="M30.8,108.6c0.2,0.2,0.3,0.5,0,0.7c0-0.1,0-0.1,0-0.2c-0.2,0.3-0.7,0.1-0.7-0.3
				C30.1,108.8,30.7,108.6,30.8,108.6"/>
			<path class="st3" d="M33.2,108.6c0.7-0.1,0.8,0.3,1,0.9c1-0.9,0.5,1.5,0.5,1.8c0,0.2,0.7,0.7,0.7,0.2c0-0.4,0.9-0.7,1.2-0.8
				c0,0.5,0.6,0.6,0.9,0.4c0.1-0.1,0.6-1,0.6-1.2c0-0.5,0.7-0.5,0.9-0.1c0.3,0.4,0.6,0.9,1,1.3c0.7,0.7,1.6,1.2,2,2.1
				c0.6,1.1,1,1.8,1,3.1c0,0.5,0.1,1.1,0,1.6c-0.1,0.6-0.3,1,0.1,1.5c0.2,0.3,0,0.5,0,0.8c0,0.2,0.2,0.4,0.2,0.6c0,0.7,0,1,0.3,1.6
				c0.2,0.4,0.8,0.6,1.1,1.1c0.2,0.4,0.4,0.9,0.5,1.3c0.3,0.6,1.5,2.6,0.7,2.9c-0.4-0.3-0.3-0.7-0.7-1c0,0.2,0,0.4,0,0.6
				c0,0.3-0.4-0.1-0.5-0.1c-0.5,0-0.7,0.5-1.2,0.7c-0.2-0.7-0.3-0.8-0.8-1.2c-0.5-0.3-1.3-0.6-1.7-1c-0.9-0.9-2.3-1.3-3-2.4
				c-0.3-0.4-1-0.6-1.4-1c-0.2-0.2-0.4-0.3-0.3-0.6c0.1-0.3,0-0.6,0-0.9c-0.2-0.6-0.8-1-1.1-1.6c-0.2-0.3-0.7-1-1-1.2
				c0.6-0.4,0-0.6-0.2-1.1c-0.2-0.5,0-1.1-0.2-1.6c-0.5-1.2-0.9-2.2-1-3.5c0-0.5,0-1-0.2-1.5c-0.2-0.5-0.6-0.9-0.8-1.4
				c-0.1-0.2,0-1.1,0.3-1.1c0.3,0,0.2,0.3,0.3,0.5C32.5,108.4,33,108.5,33.2,108.6"/>
		</g>
		<path class="st4" d="M81.1,114.4c0.8-0.2,0.9,1.6,1.2,2C81.1,116.6,81.1,115.3,81.1,114.4 M81.1,114.4c-0.2,0.3-1,0.4-0.8,0.9
			c0.2,0.5,0.4,1,0.1,1.5c0.1,0,0.1,0,0.2,0c-0.1,0.2-0.3,0.9-0.6,0.9c-0.5,0-0.4-0.5-0.7-0.8c-0.1-0.1-0.3,0-0.4-0.1
			c-0.1-0.1,0-0.3-0.1-0.4c-0.3-0.3-0.5-0.5-0.8-0.8c0.7,0,1.3-0.3,1.8-0.8c0.1-0.1,0.5-0.5,0.7-0.6C80.8,114.1,81.5,114,81.1,114.4
			"/>
		<g>
			<path class="st5" d="M81.6,41c0,0.2,0,0.4,0.2,0.5c0.1-0.1,0.1-0.2,0.2-0.3C81.8,41.1,81.7,41.2,81.6,41z"/>
			<path class="st5" d="M88.2,20.2c0.2,0.3,1.1,0.9,1.4,0.5C89.6,20.2,88.6,20.2,88.2,20.2z"/>
			<path class="st5" d="M86.3,37.6c0-0.1,0-0.5-0.1-0.5c-0.1,0-0.4-0.3-0.4-0.1c0,0.2,0.2,0.3,0.2,0.5C86,37.8,86.1,37.8,86.3,37.6z
				"/>
			<path class="st5" d="M15.9,29.7c0,0-0.1,0.1-0.1,0.1C16,29.8,16,29.8,15.9,29.7z"/>
			<path class="st5" d="M88.4,27.9c-0.1-0.2-0.2-0.4-0.3-0.5C87.7,27.7,88,28,88.4,27.9z"/>
			<path class="st5" d="M66.8,51.5c-0.3-0.3-0.4-0.1-0.5,0.2c0.3,0.1,0.1,0.2,0.3,0.3C66.5,51.8,66.5,51.6,66.8,51.5z"/>
			<path class="st5" d="M54.7,60.8c0.1,0.8,0.1,2.3,0.9,2.8c0.4,0.3,0.9,0.7,1.4,0.7c0.4,0,0.5,0.1,0.8,0.2c0.2,0.1,0.3,0.2,0.6,0.2
				c0.5,0,0.3-0.7,0.7-0.7c0.2,0,0.5,0.1,0.7-0.1c0.2-0.2,0.1-0.2-0.1-0.3c0.4-0.4,1-0.6,1.2-1c0.3-0.5,0.1-1,0.2-1.5
				c0.1-0.3,0.2-0.5,0.3-0.9c0.2-0.5,0.3-0.4,0.5-0.7c0.3-0.5,0.1-1.2-0.3-1.5c-0.4,0.1-0.6-0.2-0.8-0.5c-0.2-0.2-0.2,0.5-0.2,0.6
				c-0.3-0.2-0.8-0.6-0.7,0c-0.1-0.5-0.6-0.4-0.9-0.2c-0.4,0.2-0.7,0.2-1.1,0.1c-0.5-0.1-0.5,0.3-0.9,0.3c-0.4,0-0.6,0.1-0.8,0.5
				c0.1,0,0.2,0,0.3,0C56,59.2,54.6,60.3,54.7,60.8z"/>
			<path class="st5" d="M66.1,51.5c-0.4,0.1-0.5,0.4,0,0.3C66.1,51.8,66.1,51.6,66.1,51.5z"/>
			<path class="st5" d="M16.2,29.4c0.8,0.1,1.5,2.9,1.5,3.3c0,0.4,0.2,0.7,0.2,1c0,0.4,0,0.7,0.1,1c0.2,0.4-0.3,0.3-0.3,0.6
				c0,0.1,0.4,0.6,0.5,0.7c-0.2,0.2-0.3,0.2-0.6,0.3c-0.2,0.1,0,0.3-0.1,0.5c-0.1,0.1-0.2,0.5-0.4,0.4c-0.2-0.1-0.4-0.2-0.4,0.1
				c0,0.3,0.1,1.1-0.4,1.1c-0.4,0-0.5,0.5-0.4,0.9c0,0.2,0.2,0.5,0.1,0.6c-0.1,0.1-0.4,0.2-0.4,0.3c0,0.5-0.1,0.9,0.2,1.3
				c0,0,0.3,0.2,0.3,0.3c0.1,0.2,0.2,0.3,0.2,0.6c0,0.4-0.4,0.8,0,1.1c0.4-0.3,1.3-0.9,1.8-0.9c0.4,0,0.7,0,1.1,0
				c0.3,0,0.1,0.2,0.4,0.1c0.2-0.1,0.3-0.1,0.4-0.1c-0.2,0.3-0.5,0.7-0.3,1c0.2,0.4,0.7,0.3,0.7,0.9c0,0.4,0.2,0.6,0.3,0.9
				c0.1,0.1-0.1,0.5,0.1,0.5c0.2,0.1,0.5,0.1,0.7,0.2c0.3,0.1,0.9,0.3,1.2,0.3c0.6,0,0,0.7-0.1,0.9c-0.2,0.7,0.1,1.6-0.3,2.3
				c-0.2,0.5,1.9,0.5,2.2,0.6c0.5,0.2,0.5,0.2,0.5,0.8c0,0.2,0,0.3,0.1,0.5c0.1,0.2,0.3,0,0.4,0.1c0.1,0.2,0.2,0.8,0.3,0.9
				c0.3,0.2,0.7-0.3,1.1-0.1c0.5,0.3,1.4-0.6,1.8-1.1c0.3,0.3,0.7,2.2,0.9,2.2c0.5,0,0.9-0.4,1.4,0.1c0.3,0.3,0.2,0,0.3-0.2
				c0.2-0.2-0.3-0.3-0.3-0.5c0-0.3-0.2-0.6-0.2-0.8c0-0.2,0.1-0.6,0-0.8C30.7,51,30,50.7,30,50.3c0-0.3-0.2-0.3-0.2-0.6
				c0-0.1,0.2-0.5,0.3-0.6c0.1-0.1,0-0.4,0.1-0.4c0.2,0,0.3,0.4,0.4,0.5c0.3-0.5,0.7-0.4,1,0c0.4-0.3,0.2-0.7,0.6-1.1
				c0.2-0.2,0-0.3,0.3-0.3c0.1,0,0.4,0.2,0.5,0.3c0.2,0.1,0.5,0.1,0.6,0.3c0.1,0.2,0.2,0.4,0.5,0.4c0.4,0,0.6-0.5,0.7-0.8
				c0.5-0.9,0.4,0.2,0.8,0.3c0.5,0.1,0.1-1,0.7-0.5c0.3,0.2,0.5,0.4,0.8,0.6c0.2,0.2,0.2-0.1,0.2-0.1c0.3-0.3,0.1-0.7,0.7-0.9
				c0,1.1,0.9,0,1.3,0c0.7,0,0.1-1.2,0.7-1.2c0.7,0,0.8-1.2,1.6-0.4c0.1,0.1,0.3,0.1,0.4,0.2c0.1,0.1-0.1,0.3,0.1,0.4
				c0.2,0.2,0.7,0.3,0.9,0.4c0.2,0.1,0.2,0.2,0.4,0.2c0.2,0,0.2-0.2,0.3-0.2c0.5,0,0.4,0.2,0.8,0.3c0.2,0.1,0.7,0,0.8-0.1
				c0.2-0.2,0.7,0.3,0.9,0.4c0.3,0.2-0.2,0.7-0.4,0.8c-0.2,0.2-0.1,0.6,0,0.8c0.1,0.2,0.3,0.3,0.4,0.5c0.2,0.3,0.1,0.6,0.1,0.9
				c0.2-0.3,1.2,0.2,1.3,0.4c0.1,0.3,0.2,0.4,0.6,0.4c0.4,0,0.4,0.2,0.6,0.5c0.2-0.2,0.7,0.1,1.1-0.1c0.3-0.2,0.6,0.3,0.9,0.4
				c0.2,0.1,0.9-0.1,1-0.2c0.1-0.3,0.4-0.8,0.5-0.1c0.6-0.4,0-0.6,0-1.1c0-0.2,0.3-0.1,0.4,0c0.1,0.1,0,0.2,0.1,0.4
				c0.5,0.8,1.3,0.2,1.9,0.9c-0.2,0.1-0.2,0.4,0,0.5c-0.1,0,0.7-0.2,0.7-0.2c0.6-0.2,0.8-0.2,0.3-0.9c0.4-0.1,0.5,0.4,0.7,0.7
				c0.2-0.4,0.5,0,0.8,0.1c0.4,0.2-0.2,0.5-0.3,0.6c-0.1,0.3-0.3,1.4-0.1,1.6c0.2,0.2,0.6,0.5,0.6,0.7c0,0.2,0,0.7,0.3,0.8
				c0.9,0.5-0.3,0.1,0.3,0.6c0.4,0.4,1.4,0.3,1.7-0.2c0.5-0.8-0.5-0.6-0.7-1.2c-0.1-0.2,0.3-0.5,0.1-0.5c-0.3-0.1-0.8-0.1-0.8-0.5
				c0-0.6,0.8-0.7,0.7-1.4c0.4,1,0.7,0,1.1-0.2c0.3-0.2,0.5,0,0.7-0.4c0.1-0.2,0.5-0.1,0.6-0.1c0.3,0,1.4-0.1,1.4-0.4
				c0-0.6,0.9-0.2,0.7-0.9c0.2,0.2,0.8,0.3,1.1,0.5c0.3,0.2,0.3-0.6,0.1-0.8c0.5-0.1,0.2,0.3,0.5,0.5c0.5,0.4,0.4-0.1,0.7-0.3
				c0.5-0.3,0.6,0.3,0.9,0c0.2-0.2-0.1-0.7,0.2-1c0.2,0.2,0.4,0.4,0.7,0.3c0.2,0,0.3-0.3,0.4-0.3c0.3,0,0.7-0.4,0.3-0.8
				c-0.2-0.2-0.2-0.6-0.3-0.9c-0.1-0.3-0.3-0.4-0.5-0.6c-0.1-0.1-0.5-0.4-0.3-0.6c0.3-0.1,0.4-0.2,0.1-0.5c0.2-0.1,0.4-0.2,0.5-0.3
				c-0.1,0.5,0.3,0.8,0.5,1.3c0.1,0.2,0.4,0.2,0.5,0.4c0.2,0.3,0.3,0.4,0.6,0.5c0.4,0.2,0.4,0,0.9,0c0.2,0,0.3-0.2,0.6-0.2
				c0.2,0,0.2,0.3,0.5,0.3c-0.3-0.5,0.2-1.1,0.4-0.8c0.4,0.7,0.5,0.1,0.9,0.1c0.1,0,0.3-0.4,0.5-0.5c0.2-0.1,0.5,0.2,0.7,0.3
				c0.6,0.3,0.3-0.4,0.8-0.5c0.2,0,0.5,0.3,0.7,0.3c0.2,0,0.5-0.2,0.7-0.3c0.4-0.3,0.4-0.2,0.9-0.3c0.9-0.2,0-0.5,0.4-0.9
				c0.2-0.2,0.4,0.1,0.4-0.3c0-0.2-0.1-0.3-0.3-0.3c0.7,0.1,0.7-0.5,0.9-1c0.2,0.1,0.6,0.3,0.8,0.1c0.1-0.1,0.6-0.5,0.6,0
				c0,0.3,0.5-0.3,0.3-0.5c-0.3-0.3,0.2-0.6,0.4-0.3c0.3-0.6,0.6-0.9,1.1-1.4c0.5-0.5-0.7-0.7-0.9-1c0.2,0,0.5,0,0.7,0
				c-0.4-0.4,0-0.5,0.3-0.5c0.2,0,0.3,0.2,0.5,0.2c0.1,0,0.2-0.2,0.3-0.2c0.3,0,0.6,0.3,0.7-0.1c0.1-0.2,0.2-0.4,0.1-0.5
				c0,0-0.2-0.2-0.3-0.1c0.1-0.5,1.1-0.4,0.8-0.9c-0.5-1.1,0.6-0.4,0.9-0.8c-0.2-0.3-0.5-0.2-0.5-0.6c0-0.2,0-0.3,0.3-0.2
				c0.3,0.1,0.5-0.1,0.7,0c0.2,0.2,0.4,0.3,0.6,0.3c-0.8-0.7-0.2-1.4-0.6-2.1c-0.2-0.5-0.5-0.1-0.9,0c-0.2,0.1-0.6-0.5-0.8-0.6
				c0.4,0,0.7,0.3,1.1,0.1c0.4-0.2,0.2-0.3,0.4-0.6c0.1-0.1,0.4-0.1,0.5-0.3c0.1-0.2-0.5-0.8-0.7-1c-0.1-0.1-0.3,0.1-0.3,0
				c0-0.1,0-0.1,0-0.2c-0.1-0.1-0.2-0.4-0.3-0.5c0.3,0.2,0.7,0.3,0.7-0.2c0,0.2,0.8,1.2,0.9,0.9c0.2-0.4,0.1-1,0.2-1.4
				c0.1-0.6,0.5-0.8,0.8-1.4c0.1-0.2,0.3-0.4,0.1-0.6c-0.4-0.4-0.2-0.2-0.1-0.6c0.1-0.4,0.6-0.9,0.1-1.1c-0.3-0.1,0-0.2,0.2-0.2
				c0.3,0,0.3-0.1,0.4-0.4c0.1-0.4,0.1-1.2,0.6-0.4c0.3,0.5,0.6-0.6,1.1-0.2c-0.2-0.5-0.5-0.9-0.8-1.3c-0.1-0.1,0.3-0.3,0.3-0.5
				c0-0.3-0.1-0.4-0.3-0.6c0.1,0,0.2,0,0.3,0c-0.1-0.4-0.6-0.8-1-0.7c0.4-0.5,0.1-0.5,0.8-0.5c0.3,0,0.4,0.5,0.8,0.5
				c-0.1-0.7-0.1-1.2-0.5-1.8c-0.2-0.3-1,0.4-1.2,0.5c0.2-0.3,0.5-0.3,0.7-0.7c0.2-0.3,0.4-0.6,0.7-0.9c-1.4,0.1-2-1.5-3.3-1.5
				c-0.3,0-1.3,1.1-1.7,0.6c-0.4-0.5-0.3-0.7-0.9-0.5c-0.2,0.1-0.4,0-0.6,0c0.3-0.4,0.7-0.6,1.3-0.5c0.6,0.1,0.9,0.1,0.9-0.6
				c0-0.2,0.5-0.4,0.7-0.5c0.2-0.1,0.2-0.4,0.4-0.5c0.4-0.2,0.9,0,1.3-0.3c-0.7-1.3-2.1-2.2-3.4-2.9c-0.4-0.2-0.7-0.4-1.1-0.5
				c-0.3-0.1-0.3-0.5-0.6-0.7c-0.4-0.3-0.8-0.1-1.1,0.1c-0.4,0.2-0.5,0.2-0.9,0c0.1-0.1,0.1-0.1,0.2-0.2c0.2,0.3,0.5-0.1,0.8-0.3
				c0.3-0.2,0.3-0.2,0.7-0.1c0.6,0.2,0.9,0.7,1.4,0.9c0.5,0.2,1-0.1,1.4,0.1c0.6,0.3,1,0.4,1.6,0.4c-0.4-0.3-0.5-0.8-0.9-1.1
				c-0.4-0.2-1-0.4-1.3-0.8c-0.3-0.5-0.3-0.7-0.8-0.9c-0.5-0.2-1-0.4-1.4-0.7c-0.4-0.3-0.4-0.9-0.5-1.4c-0.1-0.4-0.7-0.6-1-0.9
				c-0.3-0.5-0.6-0.9-1.1-1.4c-0.2-0.2-0.6-0.7-0.7-0.9c-0.5-0.9-1.1-1.9-2.3-2.2c-0.5-0.1-1.1-0.2-1.5-0.5
				c-0.2-0.2-0.5-0.3-0.7-0.6c-0.2-0.2-0.4,0-0.6-0.1c-0.6-0.3-0.3-0.9,0-1.3C73.3,1.3,73,1,73.1,0.8c0-0.1,0.3-0.4,0.3-0.5
				c0,0,0,0,0-0.1C50.1,0.9,29.5,12.2,16.2,29.4z"/>
			<path class="st5" d="M89.9,21.2c0-0.1,0-0.1,0-0.2c-0.1-0.2-0.1-0.2-0.3-0.2C89.7,21,89.8,21.1,89.9,21.2z"/>
			<path class="st5" d="M59.1,53.9c-0.2,0-0.3,0.1-0.3,0.3c0.3,0,0.6,0,0.9,0.2c0-0.1,0-0.4,0-0.5C59.4,54.1,59.2,54.1,59.1,53.9z"
				/>
			<path class="st5" d="M89.4,21.9c0-0.2-0.1-0.4-0.2-0.5c-0.1,0.1-0.3,0.1-0.3,0.2C89,21.7,89.2,21.8,89.4,21.9z"/>
			<path class="st5" d="M68.3,47.6c0-0.1,0-0.1,0-0.2c-0.2-0.2-0.4-0.3-0.7-0.3C67.8,47.3,68,47.5,68.3,47.6z"/>
			<path class="st5" d="M83.8,14c0,0.6,2.1,1.5,2.4,1.1c-0.3-0.4-0.9-0.4-1.3-0.8C84.8,14.2,83.8,13.6,83.8,14z"/>
		</g>
		<path class="st4" d="M70.8,49.8c-0.2,0-0.3-0.1-0.3-0.3C70.8,49.4,70.9,49.6,70.8,49.8 M70,49.8c-0.3,0-0.4-0.1-0.5-0.2
			c0.2-0.2,0.4-0.3,0.7-0.3C70,49.5,69.9,49.6,70,49.8 M71,49c-0.2,0.1-0.2,0.3-0.2,0.5c-0.4-0.3-1.4-0.3-1-0.9
			c0.1-0.1,0.3-0.2,0.6-0.2C70.8,48.5,70.8,48.7,71,49"/>
		<path class="st4" d="M11.1,107.2c0,0.1-0.1,0.2-0.2,0.3c-0.1-0.2-0.2-0.5-0.2-0.7c0-0.1-0.3-0.4-0.3-0.3c-0.2-0.6,0-0.7,0.5-0.9
			C10.9,106.3,11.3,106.6,11.1,107.2 M10.6,105.2C9.9,106.2,10,104.5,10.6,105.2 M9.5,103.3c-0.3,0.1-0.5-0.1-0.5-0.4
			C9,102.6,9.5,103.1,9.5,103.3 M9.7,102.6c-0.1,0.1-0.1,0.1-0.2,0.2c0-0.3-0.3-0.7,0-0.9C9.7,102.1,9.8,102.4,9.7,102.6 M8.3,102
			c0.1,0.1,0.1,0.1,0.2,0.2c-0.2-0.1-0.3-0.3-0.3-0.5C8.2,101.7,8.3,101.8,8.3,102 M7,98.6C6.2,98.4,7.6,98.1,7,98.6 M5.8,93.3
			c-0.2,0.3-0.5,0-0.5-0.3c0-0.4-0.2-0.3,0-0.7c0.2-0.4,0.3-0.2,0.5,0.1C6,92.8,5.9,92.9,5.8,93.3 M6.1,90.2c-0.1,0-0.2,0-0.3,0
			C6,90.1,6,89.9,6,89.7C6.1,89.8,6.2,90,6.1,90.2 M7,87.8C7,88,7.1,88.2,7.1,88.3C6.9,88.2,6.6,87.9,7,87.8 M5.8,84.8
			c-0.1,0.1-0.1,0.1-0.2,0.2c0-0.2,0-0.5,0-0.7C5.8,84.4,5.8,84.5,5.8,84.8 M6.1,89.7c-0.6,0-0.4-1-0.6-1.3
			c-0.1-0.1,0.3-0.4,0.3-0.7c0-0.3-0.1-0.6,0.3-0.6c0.1,0-0.2-1.3-0.3-1.5c0-0.1,0.2-0.1,0.1-0.3c-0.1-0.2-0.1-0.3-0.1-0.5
			c0-0.2,0.3-0.6,0.3-0.8c-0.1,0-0.1,0-0.2,0c0.1-0.3,0.2-0.6,0.2-0.9c0-0.3-0.4-0.7,0.1-0.9c0.4-0.2,0.4-0.1,0.4,0.3
			c0,0.1-0.2,0.2-0.1,0.3c0.1,0.1,0.3,0.2,0.3,0.4c0,0.6-0.7,0.7-0.4,1.4c0.2,0.3,0.7,1.9-0.1,1.6c0.1,0.3,0.2,0.6,0.1,0.9
			c-0.1,0.2-0.3,0.7-0.3,0.9c0,0.2,0.2,0,0.2,0.2c0,0.2,0,0.3,0,0.5C6.3,89.1,6.2,89.4,6.1,89.7"/>
		<path class="st3" d="M100.5,42c-0.3,0-0.7,0.1-0.9-0.2c0.1,0,0.2,0,0.3,0c-0.1-0.1-0.1-0.1-0.2-0.2
			C100.1,41.4,100.6,41.6,100.5,42 M101.5,41.2c0.1,0.6-0.2,0.8-0.6,0.4c-0.2-0.2,0.3-0.2,0.3-0.2c0.1-0.1,0.1,0.1,0.2-0.1
			c0-0.1,0.1-0.3,0.1-0.4C101.5,40.9,101.5,41,101.5,41.2 M105.1,40.3c-0.4,0.4-0.8,0-0.7-0.5C104.6,40.2,104.8,40,105.1,40.3
			 M112.2,33.1c-0.2,0-0.6,0.4-0.7,0.5c-0.2,0.2-0.6,0.4-0.2,0.7c-0.7,0,0.2,0.9-0.4,0.9c-0.2,0-0.3-0.2-0.2-0.4
			c0.2-0.3,0.1-0.4,0-0.8c0.9-0.1,0.2-0.9,0.3-1c0.3-0.2,0.5,0.3,0.7,0.2c0.1-0.1,0.2-0.7,0.2-0.9C112.2,32.5,112.3,32.8,112.2,33.1
			 M113.4,29.2c-0.4,0-0.7-0.6-0.3-0.9C113.2,28.7,113.3,28.9,113.4,29.2 M113.9,27.7c0.1,0.1,0.1,0.1,0.2,0.2
			c-0.3-0.1-0.5-0.3-0.7-0.5C113.6,27.4,113.8,27.5,113.9,27.7 M114.3,27.4c0,0.1-0.1,0.2-0.2,0.3c-0.2-0.2-0.4-0.4-0.7-0.5
			c0.2-0.2,0.5-0.3,0.7-0.5c0.1,0,0.2-0.1,0.3-0.2c0.1,0,0-0.3,0.2-0.3c0.1,0,0.2,0.2,0.2,0.3c0,0.2-0.1,0-0.2,0.2
			C114.4,26.9,114.4,27.1,114.3,27.4"/>
		<path class="st4" d="M41.2,92.8c-0.2,0-0.3-0.1-0.3-0.3C41,92.5,41.1,92.6,41.2,92.8 M40.2,90.5c-0.3,0-0.4-0.1-0.2-0.3
			C40.1,90.3,40.2,90.4,40.2,90.5 M53.5,77.9c0.1,0.8-0.5,1.4-0.3,2.2c0.1,0.6,0.7,1.5,1.1,2.1c0.4,0.7-0.5,1.6-0.1,2.4
			c0.4,0.8,0.6,1.7-0.1,2.3c-0.2-1-1.2,0.7-1.6,0.7c-0.4,0-0.5,0.3-1,0.3c-0.5,0-0.6,0.7-0.3,1c-0.9,0-1.9-0.4-1.9,0.8
			c0,0.5,0.2,1,0.6,1.3c0.6,0.5,0.5,0.7,0.8,1.4c-0.4,0.1-0.8-0.5-1-0.2c-0.3-0.7-1.6-0.8-1.9,0c-0.2-0.2-0.4-0.1-0.6-0.2
			c-0.6-0.3-0.2,0.2-0.3,0.4c-0.1,0.4-0.3,1-0.8,1c-0.3,0-0.7-0.1-0.8,0.1c-0.2,0.2-0.1,0.4-0.4,0.1c-0.3-0.2-0.5-0.4-0.8-0.4
			c-0.3,0-0.7,0-0.9-0.3c-0.2,0.7-1.4,0.6-1-0.2c0.1-0.1,0.3-0.1,0.3-0.3c0-0.2,0-0.3,0-0.5c-0.2-0.6-0.3-0.5-0.7-1
			c-0.2,0.4-0.3,0.7-0.7,0.9c-0.7,0.2-0.7-0.4-0.7-0.9c0-0.2,0.1-1,0-1.1c-0.1-0.1-0.4-0.3-0.5-0.5c-0.1-0.2,0-0.4-0.2-0.7
			c-0.1,0.2-0.2,0.1,0,0.3c-0.5-0.4-1.5-2.2-0.9-2.7c-0.4-0.1-0.4-0.4-0.7-0.6c-0.5-0.3-0.2-0.5-0.3-1c-0.1-0.4-0.2-0.6-0.4-1
			c-0.2-0.3-0.2-0.6-0.3-1C37,82.4,36.8,82,37.2,82c0.6,0,0.2-0.1,0.5-0.4c0.5-0.5,0.8-1.3,1.2-1.9c0.1-0.2,0.5-0.5,0.7-0.5
			c0.4,0,0.7-0.3,1-0.3c0.7,0,1.1,0.5,1.9,0.3c0.3-0.1,0.7-0.1,1-0.1c0.3,0,1-0.2,1.2-0.1c0.2,0.1,0.3,0.2,0.5,0.3
			c0.2,0.1,0.1,0.3,0.3,0.4c0.1,0-0.1,0.2,0.2,0.2c0,0,0.3-0.4,0.3-0.5c-0.1,0.4,0.3,0.8,0.7,0.9c0.3,0,0.4-0.2,0.7-0.1
			c0.3,0.1,0.4,0.3,0.7,0.4c0.4,0.3,0.9,0.6,1.1,0.1c0.1-0.3-0.5-1-0.6-1.3c0.2,0,0.4-0.1,0.6-0.1c0.2-0.1-0.1-0.4,0.2-0.4
			c0.2,0,0.4,0.2,0.5,0.1c0.2-0.2,0.3-0.3,0.5-0.5c0,0.5,1,0.4,1,1c0.1-0.1,0.2-0.1,0.3-0.2c0.1-0.1,0.1-0.2,0.2-0.2
			c0.1-0.1,0.5-0.2,0.6-0.3c0.2-0.2,0.2-0.4,0.5-0.4c0.4,0,0.3-0.3,0.6-0.5C53.5,77.8,53.5,77.9,53.5,77.9"/>
		<path class="st4" d="M37.3,65c-0.2,0.5-0.6,0.6-1.1,0.8c-0.2,0.1,0,0.4-0.2,0.4c-0.4,0-0.1-0.5-0.3-0.5c-0.4,0-1-0.5-1.3-0.7
			c-0.2-0.2-0.1-0.5-0.4-0.3c-0.3,0.2-0.3,0.4-0.6,0.6c-0.3-0.4-0.4,0.4-0.6,0.6c-0.3,0.3-0.6,0.4-0.9,0.7c-0.3,0.3-0.5,0.7-0.8,0.8
			c-0.5,0.1-0.7-0.3-0.6-0.7c0.1-0.7,0.6-1.6,0.2-2.3c-0.1-0.1-0.3-0.4-0.3-0.5c0-0.2,0.1-0.3,0.2-0.4c0.1-0.5,0.2-1,0.3-1.5
			c0.1-0.3-0.2-0.9-0.3-1.2c-0.2-0.4,0-0.8-0.4-1.2c-0.6-0.6-1.4,0.5-2,0.1c-0.3-0.1-0.7-0.6-0.6-1c0.1-0.2,0.3-1.1,0.2-1.2
			c-0.2-0.2-0.3-0.6-0.6-0.8c-0.5-0.4-0.5,0.1-0.9,0.3c0-0.5-0.1-1.1,0.1-1.6c0.3-0.8,0.9-0.3,1.3-0.8c-0.3,0.1-0.5-0.1-0.5-0.4
			c0-0.1,0.1-0.3,0.3-0.3c0.2,0,0.1-0.3,0.1-0.4c0.2-0.4,0.2-0.5,0.6-0.6c0.3-0.2,0.6-0.4,0.8-0.8c0.3,0.2,0.2,0.7,0.3,1
			c0.3,0.5,0.4,0.2,0.9,0.2c0.2,0,0.9,0.4,0.9,0.3c0-0.3,0.2-0.2-0.1-0.5c-0.1-0.1-0.1-0.5-0.2-0.7c-0.2-0.5,0-0.9-0.3-1.3
			c-0.2-0.4-0.7-0.6-0.7-1.1c0-0.2-0.2-0.2-0.2-0.4c0-0.1,0.2-0.5,0.3-0.6c0.1-0.1,0-0.4,0.1-0.4c0.2,0,0.3,0.4,0.4,0.5
			c0.3-0.4,0.6-0.4,0.9-0.1c0.1,0.1,0.2,0.4,0.3,0.5c0.2,0.1,0.4,0.2,0.5,0.4c0.2,0.2,0.3,0.5,0.5,0.6c0.1,0.1,0.4,0.2,0.5,0.3
			c0.2,0.3,0.2,0.7,0.5,1c0.2-0.2,0.3-0.4,0.3-0.7c0.1,0.3,0.3,0.3,0.4,0.4c0.2,0.2,0.1,0.4,0.1,0.6c0,0.5-0.2,1,0,1.4
			c0.4,0.9,1.7,1.5,2.6,1.7c0.2,0,0.4,0.3,0.6-0.1c0.1-0.3,0.2-0.4,0.5-0.5c0.6-0.4,0.8-0.1,1.4,0.3c0.2,0.1,1.1,0.6,1,0.9
			c0,0.2-0.4,0.2-0.5,0.3c-0.3,0.4,0.1,0.2,0.3,0.3c0.2,0.1,0.5,0.2,0.5,0.4c0,0.4,0.3,0.2,0.5,0.3c0.2,0.1,0.3,0.2,0.5,0.4
			c0.2,0.3-0.1,0.4-0.1,0.7c0,0.4-0.3,0.9-0.7,1.1c-0.5,0.3-0.9-0.3-1.5-0.2c-0.8,0.2,0.2,0.3,0,0.8c-0.3,0.6-0.7,0.5,0,0.9
			c0.9,0.5,1.8,1.2,2.7,1.6c0.4,0.2,1.2,0.3,1.2,0.7c0,0.6,0.2,0.8,0.6,1.3c0.2,0.2,0.2,0.3,0.5,0.3c0.3,0,0.2,0.1,0.4,0.3
			c0.4,0.4,0.5,0.8,0.8,1.3c0.6,0.8,1.5,1.4,2.2,2.1c0.2,0.2,0.9,0.8,0.9,0.9c0,0.5,0.2,1,0.6,1.4c0.1,0.1,0.1,0.4,0.3,0.4
			c0.3,0,0.2-0.3,0.3-0.3c-0.2,0,0.9,1,1,1.1c0.2,0.2,0.3,0.4,0.6,0.5c0.2,0.1,0.5,0.1,0.6,0.3c0.2,0.5-0.7,0.4-0.7,0.9
			c-0.1,0.9,1.9,1.3,1.9,2.1c0,0.6-0.7,0.6-0.4,1.2c0.1,0.3,0.3,1.3-0.2,1.3c-0.1,0-0.4,0-0.4,0c-0.2,0.1-0.1,0.5-0.4,0.5
			c-0.2,0-0.4,0-0.4,0.3c0,0.1-0.4,0.2-0.5,0.3c0-0.6-1-0.5-1-1c-0.2,0.2-0.3,0.3-0.5,0.5c-0.1,0.1-0.3-0.1-0.5-0.1
			c-0.2,0,0,0.3-0.2,0.4c-0.2,0.1-0.4,0.1-0.6,0.1c0.2,0.5,0.8,1,0.6,1.4c-0.3,0.5-1.2-0.4-1.4-0.5c-0.7-0.3-1.1,0-1.6-0.5
			c-0.4-0.3,0.4-0.8,0.7-1c0.2-0.2,0.1-1.3,0.1-1.6c0-0.5-0.5-1.1-0.3-1.5c0.1-0.2,0.7-1.2,0.3-1.4c-0.3-0.2-0.5,0-0.7-0.4
			c-0.1-0.2-0.4-0.4,0-0.6c-0.3-0.2-1.4-0.2-1.4-0.8c0-0.5-0.8-0.8-1-1.3c-0.3-0.6-0.3-1.2-0.3-1.8c0-0.8-0.1-1-0.4-1.7
			c-0.2-0.4-0.8-0.8-1.2-1.1c-0.6-0.4-0.9-1-1.3-1.6c-0.4-0.6-0.7-0.4-1.3-0.7c-0.4-0.2-1.2-0.4-1.5,0c0.2,0.2,0.3,0.3-0.1,0.3
			C37.4,64.5,37.4,64.9,37.3,65"/>
		<path class="st4" d="M68.5,49.8c0.1-0.1-0.1-0.2,0.2-0.2C68.6,49.7,68.5,49.8,68.5,49.8"/>
		<path class="st4" d="M24.5,95.7c-0.1,0.1-0.1,0.1-0.2,0.2C24.2,95.1,25.4,95,24.5,95.7 M24.3,91.7c0.1,0.1,0.5,0.7,0.3,0.9
			c-0.1,0.1-0.5-0.5-0.7-0.5C24,91.9,24.2,91.7,24.3,91.7 M25.4,91.7c-0.1,0-0.1,0-0.2,0c0-0.1,0.1-0.3,0.2-0.3
			C25.4,91.5,25.4,91.6,25.4,91.7 M24.2,89.9c0-0.4,0.2-0.8,0.2-1.2C24.3,89,24.5,89.6,24.2,89.9 M25.2,88.8c0,0.3,0,0.6,0,0.9
			c-0.3-0.1-0.5-0.3-0.5-0.7C24.7,88.7,24.9,88.5,25.2,88.8 M23.7,89c0,0.1,0,0.1,0,0.2c-0.2-0.2-0.3-0.4-0.3-0.7
			C23.5,88.6,23.7,88.8,23.7,89 M25,88.3c-0.3,0-0.2-0.4-0.2-0.7c0.1,0.2,0.3,0.3,0.5,0.3C25.3,88.1,25.2,88.2,25,88.3 M23.7,87.3
			C23,87.3,23.9,86.2,23.7,87.3 M23.3,86.5c0,0.2,0,0.3-0.2,0.3C22.9,86.6,23.1,86.5,23.3,86.5 M24.5,85.6c0.1,0.2,0.4,1-0.3,1
			C24.2,86.6,23.9,84.9,24.5,85.6 M24,83.7c0,0.2,0,0.5,0,0.7c-0.2-0.3-0.1-0.7-0.3-1C23.8,83.4,23.9,83.5,24,83.7 M11.4,73.7
			c-0.1,0-0.1,0-0.2,0c0.1-0.2,0.1-0.3,0.2-0.5C11.4,73.3,11.4,73.5,11.4,73.7 M10.2,73.2c0,0.1-0.1,0.2-0.2,0.3
			c-0.1-0.5,0.1-1.1,0.5-1.4C10.9,72.5,10.5,72.9,10.2,73.2 M20.3,72c-0.3,0-0.8-0.7-0.3-0.9C20.4,71,20.3,71.7,20.3,72 M6.5,63
			c-0.3,0-0.6-0.5-0.9-0.7C6.4,62,6.5,62.2,6.5,63 M6,59.7c0.3,0.2,0.5,0.5,0.7,0.2c0.2,0.3,0.3,0.8-0.2,0.7
			C6.2,60.5,5.7,59.9,6,59.7 M5.1,58.4c0.1,0.2,0.1,0.3,0.2,0.5c-0.4-0.1-0.3-0.4-0.5-0.7C4.9,58.2,5,58.3,5.1,58.4 M3.6,58.4
			c0,0.1,0,0.2,0,0.3c-0.3-0.3-0.3-0.7-0.5-1C3.3,57.9,3.4,58.1,3.6,58.4 M13.1,26.7c0.2,0.2,0.3,0,0.5,0.2c0.2,0.1,0.4,0.5,0.6,0.5
			c0.4,0,0.7,1,0.8,1.3c0.1,0.2,0.6,1.5,0.9,1.2c0.2-0.2,0-0.6,0.3-0.4c0.3,0.2,0.4,0.3,0.6,0.6c0.6,0.8,0.6,2.2,0.9,3.2
			c0.1,0.3,0.1,0.5,0.1,0.8c0,0.1,0.2,0.8,0.2,0.9c-0.1,0.3-0.3,0.2-0.3,0.5c0,0.1,0.4,0.6,0.5,0.7c-0.2,0.1-0.2,0.1-0.4,0.2
			c-0.4,0.2-0.1,0.2-0.3,0.5c-0.1,0.2-0.2,0.4-0.3,0.5c-0.1,0.1-0.5-0.4-0.5,0.1c0,0.5,0.1,0.8-0.3,1.1c-0.1,0.1-0.3-0.1-0.4,0.1
			c-0.1,0.3-0.2,0.5-0.1,0.8c0,0.1,0.2,0.5,0.2,0.5c-0.1,0.2-0.4,0.2-0.5,0.3c-0.2,0.3,0,1.1,0.2,1.4c0.1,0.1,0.3,0,0.3,0.3
			c0,0.2,0.2,0.3,0.2,0.5c0,0.4-0.4,1,0,1.3c0.4-0.3,1.3-0.9,1.8-0.9c0.3,0,0.7,0,1,0c0.2,0,0.2,0.2,0.3,0.1
			c0.2-0.1,0.4-0.1,0.6-0.1c-0.2,0.4-0.3,0.5-0.3,0.9c0,0.4,0.7,0.4,0.7,0.8c0,0.2-0.1,0.4,0,0.6c0.1,0.2,0.3,0.2,0.3,0.4
			c0,0.7,0,0.6,0.7,0.8c0.4,0.1,0.8,0.1,1.1,0.3c0.5,0.2,0.5,0.2,0.2,0.6c-0.4,0.7,0,1.7-0.3,2.4c-0.4,0.8,1.4,0.6,1.8,0.7
			c0.2,0,0.4,0.1,0.6,0.2c0.2,0.2,0.1,0,0.2,0.3c0.1,0.4-0.1,0.9,0.4,0.9c0.2,0,0.4,0.6,0.4,0.8c0,0.2,0.8-0.1,1-0.1
			c0.6,0,0.5,0.2,0.9-0.3c0.3-0.3,0.7-0.5,0.9-0.8c0.2,0.2,0.4,0.7,0.3,0.9c-0.3,0.5-0.6,0.5-1,0.8c-0.1,0.1-0.2,0.4-0.3,0.6
			c-0.1,0.1,0,0.2,0,0.3c0,0.2-0.1,0-0.2,0.1c-0.1,0.3-0.3,0.8,0.3,0.7c-0.3,0.4-0.9,0.1-1.2,0.5c-0.3,0.4-0.2,1.1-0.2,1.5
			c-0.5-0.2-0.7-0.5-1.1-0.1c-0.3,0.3-0.7-0.1-1.1-0.1c0.3,0.5,0.3,1-0.3,1c-0.4,0-0.3-0.3-0.7,0c-0.2,0.2-0.2,0.2-0.2,0.6
			c0,0.7-0.4,0.5-0.8,0.6c-0.4,0.2-1,0.4-1.5,0.3c-0.2-0.1-0.4-0.5-0.7-0.3c0,0,0,0.4,0,0.4c0,0.2-0.3,0.1-0.3,0.3
			c-0.2,0.3-0.2,0.6-0.2,1c0,0.2,0.2,0.7,0.1,0.8c-0.4,0.7-0.2,1,0,1.8c0.1,0.4-0.9,0.6-1.2,0.6c0.4,0,0.3,0.7,0.9,0.7
			c0.1,0,0.6,1.1,0.6,1.3c0,0.6,0,0.7,0.4,1.1c0.4,0.4,0.7,0.9,1.1,1.3c0.4,0.4,0.7,0.8,1.2,1.2c0.4,0.3,0.3,1.1,0.6,1.5
			c0.3,0.3,0.4,1.3,0.8,1c0.6-0.4,0.7,0.4,0.3,0.7c-0.7,0.5-0.6,0.6-0.6,1.4c0,0.4,0.4,1.2,0.2,1.6c0,0-0.5,0.2-0.6,0.3
			c-0.1,0.1-0.3,0-0.5,0.1c-0.2,0.2,0.1,1.4,0.3,1.6c0.2,0.4,0.7,0.7,1,1.1c0.3,0.5,0.6,0.6,1,1c0.9,0.9,1.4,1.6,1.6,2.8
			c0,0.3,0.2,0.6,0.2,0.9c0,0.3-0.3,0.5-0.2,0.9c0,0.1,0.3,0.1,0.3,0.2c0,0.1,0,0.3,0,0.4c0.1,0.4,0.3,0.6,0.6,0.9
			c0.2,0.2,0.3,0.3,0.3,0.7c0,0.4,0.2,0.6,0.3,0.9c0.1,0.3,0.2,0.7,0.3,1c0.1,0.2,0.1,0.3,0.2,0.5c0,0.3,0.1,0,0,0.3
			c-0.1,0.3-0.2,0.3-0.3,0.5c-0.2,0.3-0.3,0.6-0.4,0.8c-0.3,0.8-0.6,1.3-1.2,1.9c-0.6,0.6-0.3,0.8-0.3,1.5c0,0.7-0.4,0.9-0.7,1.5
			c-0.3-0.4-0.2-1.2-0.3-1.7c-0.1-0.5-0.1-0.5,0-0.9c0.1-0.3,0.3-0.7,0.5-0.9c0.3-0.5,0-1.2,0-1.7c0-0.2-0.1-0.6,0-0.8
			c0.1-0.3,0.6-0.4,0.2-0.7c-0.1,0.1-0.3,0.2-0.3,0.3c-0.5-0.3-0.2-0.5-0.2-0.9c0-0.2,0.1-0.9-0.1-0.9c-0.2,0-0.2-0.2-0.3-0.3
			c0.1-0.1,0.1-0.1,0.2-0.2c0-0.1-0.2-0.2-0.2-0.3c0-0.3,0.2-0.3,0.1-0.6c-0.1-0.2,0-0.4-0.1-0.6c-0.1-0.5-0.3-0.8-0.3-1.3
			c0-0.4-0.3-0.7-0.5-1.1c-0.4-0.7-1-1.4-1-2.2c-0.1,0.4-0.1,0.8-0.2,1.2c-0.3-0.3-0.1-0.7-0.3-1.1c-0.2-0.3,0-0.7-0.2-1.1
			c-0.2-0.3-0.3-0.7-0.4-1c-0.1-0.3-0.3-1,0.3-0.5c-0.2-0.3-0.5-0.2-0.7-0.3c-0.2-0.2-0.2-0.7-0.3-1c-0.1-0.6-0.2-1.3-0.3-1.9
			c-0.1-0.4-0.2-0.9-0.3-1.3c-0.1-0.3-0.5-0.3-0.5-0.6c0-0.6-0.4-1.5,0.2-2c-0.3,0.3-0.8,0.2-1.1,0.2c-0.1,0-0.5-1-0.6-1.2
			c-0.3-0.4-0.3-0.8-0.6-1.2c-0.2-0.3-0.6-0.5-0.9-0.9c0,0.1,0.2,0.4,0.1,0.4c-0.2,0.3,0,0.4,0.1,0.8c0.2,0.3-0.1,1.1-0.3,1.4
			c-0.1,0.3-0.8,1.1-1.1,0.8c-0.2-0.2-0.4-0.1-0.4-0.5c0-0.2-0.1-0.4-0.3-0.4c0.1,0.3,0.5,1,0.5,1.3c0,0.4-0.9,0-0.9,0.5
			c0,0.2-0.5,0.3-0.7,0.4c-0.3,0.1-0.1,0.3-0.2,0.5c-0.3,0.5-0.6,0.9-1,1.3c-0.5-0.5-0.1-0.8-0.2-1.4c0,0.4-0.4,0.7-0.5,1
			c-0.2-0.2-0.5-0.2-0.7,0c-0.3-0.5-0.3-0.8-0.3-1.4c-0.3,0.2,0,0.3-0.2,0.5c-0.1,0.2-0.4,0.4-0.5,0.5c0-0.2,0-0.4-0.1-0.6
			c-0.1-0.2,0.1-0.3,0-0.5c-0.1-0.4,0.3-0.8-0.1-1.1c0,0.7-0.1,0.6-0.5,1.1c-0.2,0.3-0.9,1.2-0.9,0.3c0-0.4-0.2-1.4,0.1-1.7
			c0.2-0.2,0.1-0.7,0.1-0.9c0-0.3,0.2-0.5,0.2-0.8c0-0.6,0.2-1.1,0.2-1.6c0-0.6-0.2-0.9-0.4-1.5c-0.2-0.6-0.3-1.2-0.7-1.7
			c-0.4-0.6-0.5-1.1-0.8-1.6c0.1,0,0.1,0,0.2,0c-0.6-0.6-0.9-0.9-0.9-1.8c0-0.7-0.2,0.1-0.3,0.2c-0.2,0.2,0.1,0.7,0.1,0.9
			C6.7,61.9,6,61.5,5.8,61c-0.1-0.1-0.5-0.8-0.2-0.8c0.3,0,0.7,0.4,0.9,0.6C6.7,61.1,7,60.6,7,60.3c0-0.4-0.2-0.4-0.5-0.6
			c-0.3-0.2-1.2-0.9-0.7-1.4c-0.4,0.1-1.6-1.1-1.9-0.5c0.1-0.1,0.3,1.1,0,0.6c-0.3-0.5-0.7-0.7-0.1-1.1c-0.5,0.1-0.3-0.5-0.3-0.9
			c0,0.3-0.2,0.7-0.3,1c-0.1-0.1-0.3-0.2-0.3-0.3C3.1,56.9,2.5,56,2.2,56c0.2,0.3,0.2,0.7,0.2,1c-0.3-0.4-0.5-0.7-0.8-1
			c-0.2-0.2-0.4-0.4-0.5-0.6C0.8,55.1,1,55,0.8,54.8c-0.3-0.6-1.2-1.6-0.3-2.2c0.1,0.1,0.8,0.7,0.9,0.7c0.3,0-0.1-0.8-0.2-0.9
			c-0.2-0.5-0.2-1-0.2-1.5c0-0.2,0.2-0.6,0.3-0.8c0.3,0.3,0.7,0.9,0.9,0.3c0-0.1,0.1-0.2,0.1-0.3c0-0.2,0.1,0,0.2-0.1
			c0.1-0.1,0.2,0.1,0.2-0.1c0-0.1,0-0.2,0-0.3c0-0.3-0.1-0.5-0.3-0.8c-0.1-0.2,0-0.4-0.1-0.6c-0.2-0.3,0-1,0-1.4
			c0.6,0.7,0.5-1.2,0.5-1.5c0-0.8-0.7-1.4-0.7-2.2c0-0.2,0.5,0.2,0.7,0.3c0.2,0,0.2-0.2,0.3-0.2c0.2,0,0.3,0.1,0.5,0.2
			c0.1,0,1,0.3,1,0.3C5,43.5,5,43,5.1,42.7c0.2-0.7,0.3-1.4,0.5-2c0.1-0.4,0.2-0.7,0.4-1.1C6.1,39,6,39,5.8,38.8
			c-0.3-0.3-0.4-0.2-0.3-0.7c0-0.5,0.4-0.5,0.6-0.8c0.2-0.4,0.4-0.5,0.5-0.9c0-0.2,0-0.4,0-0.5c0.1-0.2,0.3-0.3,0.3-0.5
			c-0.4-0.1-0.8-1.7-0.5-2c0.3-0.3,0.7-0.2,1-0.5c0.4-0.3,0.6-0.7,0.9-1c0.1-0.1,0.3-0.3,0.3-0.3c0.1-0.1,0.3-0.3,0.4-0.4
			c0.5-0.2,0.7-0.3,1.3-0.4c0.4-0.1,0.7-0.1,0.9,0.3c0.3,0.4,0.6,0.6,1.1,0.5c-0.3-0.3-0.5-0.6-0.7-0.8c-0.2-0.2-0.2-0.6-0.4-0.8
			c-0.3-0.3,0.1-0.6,0.3-0.7c0.2-0.1,0.1-0.3,0.3-0.4c0,0,0.5-0.2,0.5-0.2c0.2-0.2-0.1-0.5-0.2-0.7c-0.2-0.5-0.2-0.3,0-0.8
			c0.1-0.2,0.1-0.8,0.3-0.9C12.6,26,13.1,26.5,13.1,26.7"/>
		<path class="st4" d="M69.5,123.8c-0.2,0-0.5-1.1-0.3-1.3C69.5,122.2,69.5,123.6,69.5,123.8 M90.6,117.1c-0.3,0-0.7,0.1-0.7-0.3
			C89.9,116.5,90.5,117,90.6,117.1 M86.7,107.7c-0.1,0.1-0.1,0.2-0.2,0.3c0.9,0,0.4-1.1,1-1.4c0.5-0.2,0.6,1,1,1.3
			c0.5,0.5,1.1,0.3,1.1,1.2c0,0.2-0.2,0.3-0.2,0.4c0,0.1,0.2,0.3,0.2,0.4c0,0.4-0.3,0.5-0.5,0.8c0.5-0.2,1.4-0.2,1.7-0.7
			c0.6,0.5,0.2,0.8-0.3,1c0,0.1,0.1,0.3,0.2,0.3c0.4-0.4,1.2-0.7,1.7-0.3c0.2,0.1,0.3,0.7,0.4,0.7c0.4,0.1,0.7,0.3,1.1,0.6
			c0.6,0.3,1.2-0.2,1.2,0.7c0,0.6-1.1,0.9-1.6,1.1c-0.5,0.1-1.5-0.3-1.7,0.1c-0.3,0.5-0.3,0.5,0.1,0.9c0.3,0.3,0.6,0.5,0.9,0.7
			c1.1,0.9-2.6,1.3-2.6,0.6c-0.2,0.1-0.3,0.7-0.4,0.7c-0.4,0-0.6-0.1-0.9-0.4c-0.4-0.3-1.5-0.3-2-0.3c-0.1,0-0.1,0.2-0.3,0.2
			c-0.2,0-0.3-0.2-0.3-0.2c-0.2,0-0.3,0.2-0.4,0.2c-0.2,0-0.2-0.2-0.3-0.2c-0.4,0-0.6,0-0.9,0.3c-0.1,0.1-0.6-0.5-0.6-0.2
			c0,0.2-0.4,0.4-0.5,0.6c-0.2,0.2-0.3,0.6-0.3,0.9c-0.1,0.6,0.2,1.4,0,2c-0.2,0.4,0.1,1.4-0.5,1.6c-0.3,0.1-0.5-0.4-0.7,0.1
			c-0.1,0.3-0.5,0.5-0.1,0.8c-0.5,0.4,0.2,0.5,0.2,0.8c0,0.5-0.4,0.5-0.7,0.8c-0.3,0.3-0.7,0.4-0.5,0.9c0.1,0.4,0.5,0.4,0,0.9
			c-0.2,0.2-0.3,0.2-0.3,0.5c0,0.3-0.2,0.4-0.3,0.7c-0.1,0.1,0,0.4-0.1,0.4c-0.2,0-0.4-0.2-0.7-0.2c-0.5,0-0.9,0.2-1.4,0.2
			c-0.3,0-0.7,0.6-0.9,0.9c-0.3-0.5-0.6-0.2-1-0.4c-0.3-0.1-0.8-0.5-1.2-0.4c0.1-0.1,0.1-0.1,0.2-0.2c-0.2-0.5-1.2-0.5-1.8-0.3
			c-0.9,0.3-0.9,0.6-1.2,1.4c-0.2,0.5-0.5,0.1-0.7,0.4c-0.3,0.5-0.2,0.2-0.7,0.2c-0.3,0-0.4,0.3-0.8,0.1c-0.4-0.1-0.7-0.2-1.1-0.1
			c-0.4,0-0.5,0-0.8,0.2c-0.2,0.1-0.8,0.5-1,0.5c-0.6,0-1.1-1.1-1.6-1.3c-0.4-0.2-0.1-0.5-0.5-0.7c-0.2-0.1-0.5-0.4-0.6-0.6
			c-0.1-0.3-0.4-0.7-0.5-0.9c-0.1-0.4-0.1-0.4,0.2-0.9c0.2,0.6,0.5,0.9,1.1,1.1c0.3,0.1,0.6,0,0.9,0.2c0.1,0.1,0.4-0.2,0.6-0.1
			c0.5,0.1,0.8,0.7,1.4,0.7c0.6,0,0.8,0.6,1.3,0.5c-0.4-0.1-0.7-0.4-0.6-0.8c0.1-0.2,0.3-0.3,0.4-0.4c0.1-0.2,0-0.5,0-0.7
			c0.1-0.3,0.5-0.6,0.3-0.9c-0.1-0.1-0.3-0.4-0.3-0.6c0-0.2,0.2-0.3,0.2-0.5c0.5,0.7,0.7,0.1,0.7-0.4c0-0.5,0.4-1.1,0.9-1.1
			c1.3-0.2,2.4-0.5,3.6-0.9c0.3-0.1,0.4-0.3,0.7-0.4c0.2-0.1,0.2-0.5,0.4-0.7c0.4-0.4,0.6-0.9,1-1.3c0.4-0.5,2.3-2.3,1.4-3
			c0.2-0.3,0.6,0,0.9,0.2c0.3,0.3,0.2,0.9,0.6,0.9c0.4,0,0.4,0.9,0.7,0.9c0.5,0,0.6-0.5,0.8-0.9c-0.1,0-0.1,0-0.2,0
			c0.3-0.4,0.1-0.9-0.1-1.3c-0.2-0.7,0.4-0.7,0.8-1.1c0,0.9,0,2.2,1.2,2c-0.4-0.6-0.3-1.6-0.9-2c0.3-0.1,0.8,0,1-0.2
			c0.1-0.1,0.6-0.7,0.5-0.9c-0.1-0.4-0.7-0.2-0.7-0.8c0-0.3,0.5-0.6,0.7-0.8c0,0.3,0.2,0.2,0.4,0.2c0.4,0,0.5-0.3,0.6-0.6
			c0.1-0.2,0.3-0.4,0.4-0.7c0.1-0.3,0-0.7,0.1-0.9c0.2-0.5,1.2-0.9,1.2-1.5c0-0.5,0.4-1.4,0.9-1.8C86.8,106.8,86.7,107.4,86.7,107.7
			 M87.5,105.9c0,0.1-0.1,0.2-0.2,0.3c0-0.5-0.1-0.7,0.4-1C88,105.2,88.3,106.1,87.5,105.9"/>
		<path class="st3" d="M98.3,113c-0.1,0.4-0.3,0.4-0.5,0.2c0,0.2-0.3,0.5-0.5,0.5c-0.2,0.1-0.1,0.3-0.3,0.1c-0.1-0.1-0.2-0.2,0-0.3
			C97.4,113.2,97.9,112.7,98.3,113 M101,110c0.3,0.5,0.8,0.2,1,0.5c-0.2,0.1-0.3,0.2-0.5,0.3c-0.1-0.7-1,0.2-1.4-0.3
			C100.4,110.2,100.6,109.9,101,110 M104.1,108.8c-0.6,0.2-0.6-0.6-1-0.7c0.5-0.6,0.9-0.5,1.5-0.2
			C104.9,108,104.3,108.5,104.1,108.8 M116.1,106.7c-0.1,0.1-0.1,0.1-0.2,0.2c-0.1-0.4-0.2-0.6-0.2-1
			C116.1,106.1,116.1,106.4,116.1,106.7 M106.6,105c0,0.3-0.3,0.4-0.5,0.2C106.2,105,106.4,105,106.6,105 M87.2,103.3
			c-0.4,0.5-0.3-0.4-0.3-0.6c0-0.1,0.3-0.2,0.3-0.1C87.3,102.7,87.2,103.2,87.2,103.3 M88,102.1c-0.2,0-0.5-0.2-0.3-0.5
			C87.9,101.4,88.1,102,88,102.1 M112.2,98.6c0,0.1,0,0.1,0,0.2C111.2,98.3,112.3,97.9,112.2,98.6 M108.7,98.2
			c0.2,0.6-0.4,0.5-0.7,0.2C108.3,98.4,108.3,97.7,108.7,98.2 M116,96.8c0,0.1,0,0.1,0,0.2c-0.2-0.2-0.2-0.4-0.2-0.7
			C116,96.5,116,96.6,116,96.8 M116.1,97.9c0.2,0.3,0.4,0.4,0.7,0.2c0,0.2-0.1,0.5,0,0.7c0.1,0.2,0.2,0.3,0.3,0.5
			c0.1,0.2,0.2,0.4,0.1,0.6c-0.1,0.1-0.5,0.5-0.5,0.6c0,0.2,0.1,0.3,0.3,0.3c0.3,0,0.4,0.1,0.4,0.4c0.1,0.4,0.5,0.8,0.5,1.2
			c0,0.5-0.1,1,0.2,1.5c0,0.1,0.3,0,0.3,0.2c0,0.3,0,0.5,0.1,0.8c0.1,0.6,0.1,0.7-0.2,1.2c-0.2,0.4-0.4,1.2-0.9,1
			c0.2,0.7,0.2,1.3,0,2c-0.6-0.8-0.2-2.1-0.9-2.8c-0.4-0.4-0.2-1.2-0.8-0.8c-0.2,0.1,0,0.4-0.1,0.6c-0.1,0.2-0.2,0.3-0.3,0.5
			c-0.2,0.4-0.6,1.1-0.4,1.4c0.1,0.2,0.3,0,0.5,0.3c0.1,0.2,0.3,0.4,0.4,0.6c0.5,1.2,0.1,2.1-0.8,2.9c-0.2-0.2-0.4-1.7-0.4-1.7
			c-0.4,0-0.3,0.3-0.6,0.5c-0.1,0.1,0.1,0.1-0.2,0.2c-0.2,0-0.3-0.1-0.5-0.2c-0.7-0.4-1.4-0.8-2.2-1.2c-0.6-0.3-0.4-1.4-0.7-1.9
			c-0.3-0.6-0.4-1.2,0.2-1.8c0.1-0.1,0.3-0.5,0.3-0.8c0,0.1-0.5-0.7-0.6-0.7c-0.3-0.2-0.7-0.3-1.1-0.4c-0.2-0.1-0.3-0.4-0.6-0.4
			c-0.4,0-0.2,0.2-0.3,0.5c-0.1,0.3-0.1,0.7-0.2,1c-0.2-0.1-0.9-0.3-0.9-0.4c0-0.3,0-0.4-0.2-0.6c-0.1,0.2-0.5,0.9-0.8,0.7
			c-0.3-0.1,0.1-0.9-0.5-1c-0.7-0.2-1,1.3-1.2,1.8c-0.1,0.4-0.2,1-0.5,1.3c-0.1,0.1,0,0.3-0.3,0.2c-0.2-0.1-0.3-0.4-0.3-0.6
			c-0.1-0.4,0.2-0.7,0.3-1.1c0.1-0.5,0.2-1,0.2-1.5c0-0.8,1-1.3,1.7-1.4c0.4-0.1,0.8,0.1,1-0.3c0.2-0.4-0.1-0.6,0.2-0.9
			c0.3-0.3,0.7-0.3,1-0.5c0.2-0.1,0-0.3,0.3-0.3c0,0,0.4,0.3,0.5,0.3c0.6,0.3,0.5,0.2,0.7,0.9c0.1,0.5,0.3,0.8-0.2,1.2
			c0.3,0,0.3-0.3,0.6-0.3c0.3,0,0.6-0.1,0.8-0.3c0.3-0.3,0.2-1.3,0.7-1.4c0.3,0,0.5,0.4,0.8,0.3c0.3-0.2,0.3-0.3,0.3-0.7
			c0-0.4,0-0.6,0.3-0.9c0.3-0.3,0.4,0.3,0.7,0.3c0.6,0,0.2-0.3,0.4-0.5c0.1-0.1,0.6,0,0.8,0c0.6,0,0.2-1.2,0-1.6
			c-0.2-0.5-0.4-1.6,0.3-0.8C115.2,97.1,115.9,97.2,116.1,97.9 M116.1,96.2c0,0.1,0,0.1,0,0.2c-0.3-0.4-0.1-0.8,0-1.2
			c0.1,0.3,0.1,0.7,0.3,1C116.4,96.2,116.3,96.2,116.1,96.2 M113.6,95.5c0,0.1,0,0.1,0,0.2c-0.2-0.2-0.6-0.5-0.5-0.9
			C113.5,94.9,113.5,95.2,113.6,95.5 M111.4,96.2c0,0.2-0.4,0.2-0.6,0.5c-0.2,0.2-0.7,0.2-0.9,0.2c-0.7,0-1.3-0.6-0.9-1.2
			c0.2-0.3,0.6-0.3,0.7-0.6c0.1-0.3,0.5-0.4,0.8-0.3c0,0,0.1,0.1,0.2,0.2c0.2,0.1,0.3,0.2,0.4,0.3C111.2,95.3,111.3,96,111.4,96.2
			 M115,95.7c0,0.1,0,0.1,0,0.2c-0.4-0.3-1.1-1.4-0.5-1.9c0.5-0.5,0.1,0.4,0.2,0.6C114.8,94.9,115,95.2,115,95.7 M95.7,93.6
			c-0.7,0.2-0.4-1.2,0.3-0.3C95.9,93.4,95.8,93.5,95.7,93.6 M110.2,93.1c-0.1,0-0.1,0-0.2,0C110.1,92.6,110.6,92.8,110.2,93.1
			 M104.7,93.6c-0.7,0.3-0.6-0.5-0.2-0.9c0.1-0.1-0.1-0.2,0.1-0.2c0.1,0,0.3,0.1,0.3,0.3C104.9,93.1,105,93.4,104.7,93.6
			 M106.8,98.9c-0.5,0.1-0.6-0.1-0.8-0.5c-0.2-0.6-0.3-0.6-0.9-0.9c-0.4-0.2-1.4-1.5-0.7-2c0.3-0.2,0.6,0.1,0.9-0.3
			c0.3-0.3,0.3-0.8,0.1-1.2c-0.1-0.1-0.2-0.5-0.2-0.6c0-0.2,0.3-0.2,0.3-0.4c0-0.2,0.2-0.4,0.1-0.5c-0.2-0.4,0-0.2,0-0.5
			c0-0.2,0.8-0.3,1-0.2c0.5,0.1,0.8,0.1,0.9,0.6c0.1,0.8-0.5,1.7-0.7,2.5c-0.1,0.5-0.7,1.4-0.3,2C107.1,97.5,107.8,98.4,106.8,98.9
			 M107.5,97.4c-0.1,0.1-0.1,0.1-0.2,0.2c0-1-0.1-2.1,0.5-2.9c0.3-0.4,1.2-2.8,0.9-3.1c0.3-0.2,0.1-0.7,0.3-1c0,0.6,0.2,1,0.2,1.6
			c0,0.6,0.4,1.4-0.1,1.9c-0.1,0.1-0.1,0.2-0.2,0.3c-0.1,0.2-0.3,0-0.4,0.1c-0.1,0.1-0.3,0.8-0.3,0.9
			C108.1,96.1,107.8,96.8,107.5,97.4 M108.1,90.5c0.1,0.2,0.1,0.3,0.2,0.5C107.8,91.2,107.8,90.6,108.1,90.5 M87.9,101.3
			c-0.1,0.1-0.2,0.1-0.3,0.2c-0.2-1.1,1-2,1.6-2.8c0.4-0.5,0.7-0.4,1.2-0.8c0.4-0.4,0.8-1.1,1.2-1.7c0.2-0.2,0.9-1.1,0.9-1.3
			c0-0.6,0.9-0.9,1.2-1.3c0.4-0.5,0-1.1,0-1.6c0-0.5,0.5-1,0.5-1.6c0.5,0.3,0.1,0.3,0.2,0.7c0,0.1,0.2,0.2,0.2,0.3
			c0,0.1,0,0.3,0,0.4c0.1,0.2,0.7,1.6,0.6,1.7c-0.5,0.5-1,0.6-1.3,1.2c-0.3,0.6-1,0.5-1.5,1c-0.1,0.1,0.1,0.4,0,0.7
			c-0.2,0.4-0.4,0.7-0.6,1.1c-0.1,0.3-0.3,0.7-0.5,0.9c-0.3,0.2-0.6,0.2-0.8,0.5c-0.4,0.6-0.6,1-1.3,1.3c-0.1,0.1-0.3,0.1-0.4,0.2
			c-0.1,0.1,0.1,0.3,0,0.3C88.3,101,88.1,101,87.9,101.3 M95.2,89.7c0,0.2,0,0.3,0,0.5C95,90,94.9,90,94.7,89.9
			C94.9,89.8,95,89.8,95.2,89.7 M110.7,90.4c0.4,0.4,1-0.7,1.3,0.1c0.1,0.3,0.3,0.4,0.4,0.6c0.1,0.2,0,0.7,0,0.9
			c0,0.2-0.1,0.5,0.1,0.7c0.2,0.2,0.4,0.2,0.6,0.5c0.1,0.2,0,0.4,0.2,0.6c0.2,0.2,0.3,0.4,0.2,0.7c-0.1-0.1-0.2-0.1-0.3-0.2
			c0.2,0.8-0.5-0.2-0.7-0.3c0.1,0.4,0.4,1,0.3,1.4c-0.1-0.2-0.9-0.5-0.9-0.6c0-0.2,0.1-0.5,0-0.6c-0.1-0.1-0.4-0.2-0.3-0.4
			c0.1-0.3,0.2-0.8,0.2-1.1c0-0.2-0.4-0.9-0.6-0.9c-0.4,0-0.4,0.6-0.7,0c-0.2-0.5-0.3-0.9-0.4-1.4c0-0.1-0.4-0.7-0.1-0.7
			C110.2,89.7,110.7,90.1,110.7,90.4 M110.7,89.9c-0.5,0.1-0.6-0.4-0.9-0.7C110.3,88.8,111.1,89.4,110.7,89.9 M111.6,89.4
			c-0.1,0.5-0.3-0.2-0.5-0.3C111.4,89,111.2,89.4,111.6,89.4 M103.7,89.4c0.5,0.2,0.6,0,1.1,0c0.3,0,0.5,0.4,0.4,0.7
			c0.5-0.4,1.1-0.4,0.7,0.4c-0.1,0.3,0,0.5-0.2,0.8c-0.2,0.2-0.7,0.2-0.7,0.6c0,1.3-2.6,0.8-2.6,2c-0.4-0.3,0.2-0.7-0.1-0.9
			c-0.2-0.2-0.1-0.8,0-1c0.3-0.5,0-1.7,0-2.3c0-0.4,0.1-0.4-0.2-0.5c-0.3-0.1-0.9-0.5-0.3-0.7c0.2,0,0.8,0.3,0.9,0.3
			C103.2,88.7,103.5,89.2,103.7,89.4 M95.7,89c-0.3,0.4-0.5-0.7-0.7-1C95.6,87.9,95.8,88.6,95.7,89 M95.7,87.3
			c0.2,0,0.3,0.1,0.3-0.2c0.1,0.1,0.5,0.4,0.5,0.6c0,0.1-0.6,0.1-0.8,0.2c-0.3,0.1-1.3-0.8-0.8-1.1c-0.1,0-0.1,0-0.2,0
			c0.1-0.1,0.1,0,0.2-0.2C95.1,87,95.5,87,95.7,87.3 M104.1,86.8c-0.2,0-1-0.7-0.8-0.7C103.8,86.1,104.2,86.2,104.1,86.8
			 M112.4,85.9c0.4,0.2,0.2,0.5,0.3,0.7c0.2,0.2,0.6,0.4,0.9,0.5c-0.4,0.3-0.2,2,0.1,2.3c0.3,0.3,0.4,0.7,0.4,1
			c0,0.3,0.3,0.6,0.5,0.9c-0.3-0.3-0.7-0.1-1-0.2c-0.2,0-0.3-0.2-0.4-0.2c-0.4,0-0.2-0.1-0.4-0.3c-0.4-0.3-0.5-0.4-0.8-0.8
			c-0.3-0.4,0-0.5,0-0.9c0-0.3-1.1-1.1-1.4-1.3c-0.7-0.3-0.9-1.1-1.1-1.9c0.6,0.1,1.1,0.2,1.6,0.2C111.4,85.9,112,85.6,112.4,85.9
			 M107.5,86.8c0.7,0.5,1.4,1.1,1.4,2c-0.1-0.3-0.5-0.7-0.8-0.7c-0.6,0-0.3-0.2-0.7-0.6c-0.1-0.1-0.6-0.7-0.8-0.4
			c-0.3,0.5-0.4,0.7-0.8,1c0-0.7,0.5-1.7,0-2.4c0.3,0.3,0.7,0,1,0.3C107,86.4,107.1,86.6,107.5,86.8 M102.9,85.9
			c-0.1,0.1-0.1,0.1-0.2,0.2c-0.1-0.1-0.1-0.2-0.2-0.3c0.1-0.1,0.1-0.1,0.2-0.2C102.7,85.8,102.8,85.8,102.9,85.9 M102.2,86.6
			c-0.1,0.3-0.1,0.6-0.2,0.9c-0.5-0.6-0.2-1-0.2-1.6c0-0.4,0.2-0.5,0.3-0.2C102.3,85.8,102.2,86.4,102.2,86.6 M107.6,86.3
			c-0.1,0.5-0.6-0.6-0.7-0.9C107.4,85.5,107.5,85.9,107.6,86.3 M105.8,84.8c0.2,0.2,0.3,0.3,0.5,0.5c-0.3-0.2-0.5-0.4-0.8-0.6
			c-0.1-0.1-0.7-0.5-0.7-0.6c-0.1-0.3,0.1-0.5,0.3-0.2C105.3,84.2,105.5,84.5,105.8,84.8 M97.1,82.4c0.3,0,0.6,0,0.9,0
			c0.2,0,0.2,0.2,0.3,0.3c0.2,0.2,0.3-0.1,0.4-0.1c0.5,0.1,0.3,0.6,0.6,0.7c0.3,0.2,0.6,0.3,0.6,0.7c0,0.2-0.1,0.6,0,0.8
			c0.2,0.4,0.4,0.7,0.1,1.1c-0.2,0.2,0,0.5-0.1,0.8c0,0-0.5,0.5-0.5,0.5c-0.4,0.1-1.2-0.9-1.2-1.3c0-0.4-0.4-0.5-0.5-0.8
			c-0.2-0.3,0-0.7-0.2-0.9c-0.2-0.3-0.4-0.6-0.7-0.8c-0.2-0.1-0.5-0.7-0.5-0.7c-0.3,0-0.6-0.3-0.3-0.5C96.3,82,96.8,82.4,97.1,82.4
			 M101,82.2c0.7-0.1,1.1,0.6,0.6,1.1c-0.2,0.2-0.5-0.2-0.7-0.3c-0.2-0.2-0.1-0.7-0.1-0.9C100.9,82.1,100.9,82.1,101,82.2
			 M95.5,81.3c0,0.1,0,0.2,0,0.3C95.3,81.5,95,81.3,95,81C95.2,81.1,95.4,81.2,95.5,81.3 M109,81.9c-0.1,0.4-0.6,0.3-1,0
			c-0.2-0.1,0-0.5,0.1-0.6c0.1-0.2-0.2-0.5-0.1-0.8C108.2,79.5,109.6,81.5,109,81.9 M101.7,80.3c-0.3-0.2-0.9-0.3-0.9-0.7
			C101.1,79.9,101.4,80.1,101.7,80.3 M100.7,76.7c0.1,0,0.1,0,0.2,0c-0.6,0-0.2,0.6,0,0.8c0.3,0.4-0.1,0.4-0.3,0.2
			c-0.1-0.1,0-0.3,0-0.3c-0.1-0.2-0.3-0.3-0.3-0.5c0-0.2-0.3-0.2,0-0.3C100.3,76.5,100.6,76.6,100.7,76.7 M95.5,63.1
			c0.8,0.5,1.6,1.1,2.6,1.2c0.3,0,0.2,0.2,0.6,0c0.1-0.1,0.2-0.5,0.2-0.6c0.2-0.5,0.7,0.4,0.7,0.6c0,0.5-0.4,0.7-0.3,1.2
			c0.1,0.5,0,1.1,0.3,1.5c0.1,0.2,0.2,0.4,0.3,0.5c0.1,0.2,0.4,0.2,0.5,0.4c0.1,0.1,0.2,0.5,0.2,0.6c0,0.1,0.3,0.1,0.3,0.3
			c0,0.4,0.1,0.9,0,1.2c-0.2,0.5-0.5,1-0.5,1.5c0,0.2-0.1,0.5-0.2,0.7c0,0.2-0.4,0-0.6,0.1c-0.3,0.2-1,0.4-1,0.9
			c0,0.4,0.2,0.8,0.2,1.1c0,0.2-0.3,0.2-0.3,0.4c0,0.3-0.2,0.4-0.2,0.5c0,0.5,0.9,2.2,1.4,2.3c-0.6,0.3-0.1,0.7,0.1,1.2
			c0.2,0.6,0.4,1,0.9,1.4c0.1,0.1,0.4,0.4,0.6,0.4c0.3,0.1,0.4,0,0.5-0.2c0.1-0.1,0.3,0,0-0.3c-0.3-0.3-0.1-0.2,0.1-0.4
			c0.8-0.8,2-0.5,2.5,0.5c0.2,0.5,0.1,1.1,0.7,1.1c0.6,0,0-1,0.3-1.2c0.3,0.4,0.7,0.5,1.2,0.7c0.6,0.2,1,0.7,0.1,0.7
			c-0.8,0-0.1,0.7,0.2,1c0.3,0.3,0.7,0.8,0.4,1.2c0.2,0,0.5-0.1,0.7,0c0.3,0.1,0.2,0.3,0.6,0.3c0.3,0,0,1.5-0.1,1.7
			c-0.7-0.3-0.7-0.7-0.5-1.4c-0.4-0.1-0.5,0.3-0.9,0c-0.3-0.1-0.9-0.2-1.1-0.4c-0.2-0.2-0.3-0.8-0.5-1.1c-0.3-0.4-0.5-0.6-1.1-0.8
			c-0.2-0.1-1.7-1.7-1.7-1.4c0,0.8,0.6,1.3,0.9,2c0.2,0.6-0.2,0.7-0.5,0.3c-0.2-0.2-0.3-0.6-0.5-0.9c-0.6-0.6-1.3-1.5-2.2-1.5
			c-0.4,0-0.6,0.2-0.9,0.5c-0.2,0.3,0.1,0.3-0.3,0.5c-0.2,0.1-0.4,0.1-0.6,0c-0.3,0-0.7-0.2-0.9-0.4c-0.3-0.5-0.6-0.7-1-0.1
			c-0.1-0.5-0.2-0.9-0.2-1.5c0-0.4,0.4-0.7,0.7-1c0.8-0.8-1.1-1.2-1.2-1.7c0,0.4,0.3,1.2,0.2,1.5c-0.2,0.5-0.7,0.1-0.7-0.4
			c0-0.1-0.4-0.3-0.4-0.5c-0.1-0.4-0.2-0.1-0.4-0.3c-0.6-0.4-0.3-0.7-0.6-1.3c-0.2-0.5-0.4-0.7-0.5-1.2c-0.1-0.6-0.1-1.2-0.6-1.7
			c-0.5-0.5-0.4-0.7-0.4-1.4c0-0.4,0.9,0.5,1,0.6c0.3,0.3,1,0.6,1-0.1c0-0.5-0.3-0.9-0.5-1.4c-0.2-0.5,0-1.1,0.1-1.5
			c0.1-0.2-0.2-0.4-0.2-0.7c0-0.3,0.1-0.7,0-1c-0.1-0.4-0.5-0.8-0.5-1.2c0-0.6,0-1.2,0.2-1.8c0.1-0.4,0.1-1.2,0.4-1.3
			C94.6,63.3,95.1,63.1,95.5,63.1 M97.9,62.1c0,0.1-0.1,0.2-0.2,0.3c0-0.3-0.1-1,0.3-0.5C98,62,98,62,97.9,62.1 M95.7,61.4
			c0,0.1,0,0.2,0,0.3c-0.2-0.2-0.5-0.5-0.2-0.7C95.5,61.3,95.6,61.3,95.7,61.4 M96.4,60.4c0.1,0.6-0.6,0.3-0.5-0.2
			C96.1,60.3,96.2,60.3,96.4,60.4 M97.1,56.7c-0.2,0-0.3-0.2-0.1-0.4C97.2,56,97.2,56.5,97.1,56.7 M96.6,55.1
			c-0.1,0.5-0.5,0.3-0.2-0.2C96.4,55,96.5,55.1,96.6,55.1"/>
		<path class="st4" d="M134.7,121.4c-0.1,0-0.1,0-0.2,0C134.6,121.4,134.7,121.4,134.7,121.4 M144.9,105.2c-0.3,0-0.2-0.3-0.2-0.6
			c0-0.3,0.2-0.3,0.3-0.6C145.1,104.4,144.9,104.8,144.9,105.2"/>
		<path class="st4" d="M45.1,127.7c-0.3,0.2-1.2,0.6-0.9-0.1C44.3,127.2,45.1,127.4,45.1,127.7"/>
		<path class="st5" d="M30.1,108.4c-0.3-0.3-0.1-0.5,0-0.9C30.2,107.9,30.4,108.2,30.1,108.4 M28.1,104.3c0,0.2,0,0.3,0,0.5
			c-0.1-0.2-0.2-0.4-0.2-0.7C28,104.2,28,104.3,28.1,104.3 M26.4,103.2c-0.1-0.2-0.1-0.5-0.2-0.7C26.4,102.6,26.4,102.9,26.4,103.2
			 M25.7,103.2c0.1,0.3-0.3,0.6-0.3,0.4c0-0.4,0-0.9,0-1.3c0.1,0.2,0.3,0.2,0.5,0.2C25.8,102.7,25.7,102.9,25.7,103.2 M25.2,98.9
			C24.8,98.8,25.3,98.2,25.2,98.9 M30.8,96.8c0.1,0.3,0,0.6-0.3,0.7C30.4,97,30.7,97.1,30.8,96.8 M30.8,96.5c-0.2,0-0.2-0.1-0.3-0.3
			C30.7,96.2,30.8,96.3,30.8,96.5 M38.5,89.2c0,0.1,0,0.2,0,0.3c-0.2-0.1-0.2-0.4,0-0.5C38.5,89.1,38.5,89.1,38.5,89.2 M37.8,88
			c-0.4,0.1-0.5-0.3-0.5-0.6C37.3,87.1,37.8,87.9,37.8,88 M25.9,56.7c0.3,0.1,0.6,0.1,0.5,0.5c0.4-0.3,0.2-0.6,0.8-0.4
			c0.2,0.1,0.6,0.6,0.6,0.7c0.1,0.3,0,0.7-0.1,1.1c-0.1,0.4,0.1,0.9,0.4,1.1c0.8,0.6,1.2-0.6,2-0.2c0.5,0.2,0.2,0.7,0.4,1.1
			c0.2,0.4,0.5,0.9,0.4,1.3c-0.1,0.4-0.3,0.9-0.3,1.4c0,0.2-0.2,0.2-0.2,0.4s0.1,0.2,0.2,0.4c0.4,0.8,0.1,1.4-0.1,2.3
			c-0.1,0.4-0.1,0.9,0.5,0.9c0.4,0,0.5-0.4,0.8-0.7c0.3-0.3,0.6-0.4,0.9-0.7c0.2-0.2,0.4-1,0.7-0.7c0.3-0.2,0.3-0.5,0.6-0.6
			c0.3-0.2,0.4,0.3,0.6,0.4c0.3,0.2,0.6,0.4,0.9,0.5c0.1,0.1,0.3,0,0.3,0.1c0,0.2,0,0.4,0.2,0.4c0.3,0.1,0.1-0.3,0.3-0.4
			c0.2-0.1,0.7-0.2,0.8-0.4c0.2-0.2,0.4-0.6,0.4-0.9c0-0.2,0.6,0,0.2-0.4c0.3-0.3,1-0.2,1.4-0.1c0.5,0.2,1.1,0.1,1.4,0.6
			c0.3,0.5,0.6,1.3,1.2,1.6c0.4,0.3,1.1,0.7,1.3,1.2c0.3,0.6,0.4,0.8,0.4,1.5c0,0.6,0,1.3,0.3,1.8c0.3,0.6,0.8,0.8,1.1,1.4
			c0.4,0.6,0.8,0.5,1.4,0.9c-0.3,0.2-0.1,0.3,0,0.5c0.2,0.4,0.2,0.1,0.5,0.3c0.3,0.2,0.3,0.1,0.3,0.4c0,0.3,0,0.6-0.1,0.8
			c-0.2,0.5-0.3,0.7,0,1.2c0.2,0.4,0.2,1.1,0.1,1.6c0,0.6-0.2,0.7-0.6,1.1c-0.1,0.1-0.3,0.1-0.4,0.3c-0.2,0.4-0.2,0.2-0.4,0
			c-0.4-0.4-0.6-0.6-1.2-0.5c-0.6,0.1-1.1,0-1.7,0.1c-0.5,0.2-0.8,0.1-1.3-0.1c-0.2-0.1-0.4-0.2-0.7-0.2c-0.3,0-0.5,0.3-0.8,0.3
			c-1.1,0-1.4,1.6-1.9,2.3C37.5,81.9,37.7,82,37,82c-0.1,0,0,1.2,0.1,1.4c0.2,0.5,0.6,0.7,0.7,1.4c0,0.2-0.1,0.6,0.1,0.7
			c0.3,0.2,0.4,0.3,0.6,0.6c0,0.1,0.3,0.2,0.3,0.2c-0.7,0.5,0.4,2.3,0.9,2.7c-0.1,0-0.7-0.6-0.7-0.8c0-0.6-0.3-0.7-0.7-1.1
			c0,0.9-1-0.4-1.2-0.7c0,0.1,0,0.1,0,0.2c-0.4-0.4-1.2-1.4-1.9-1.4c-0.3,0-0.6,0.4-1,0.3c-0.3,0-0.6-0.1-0.9-0.1
			c-0.2,0-0.4,0.2-0.5,0.1c-0.6-0.1-0.3-1.7-0.3-2.2c0-0.2,0.1-0.8-0.1-0.9c-0.3-0.3-0.8-0.1-1.1-0.4c-0.6,0.8-2.2-0.1-1.7,1.5
			c0.2,0.6,0.1,0.9,0,1.5c0,0.3-0.2,0.1-0.1,0.5c0.1,0.3,0.2,0.7,0.3,1c0.1,0.5,0,0.9-0.3,1.2c-0.3,0.5-0.2,0.9-0.4,1.4
			c-0.3,0.6-0.3,0.8-0.3,1.5c0,0.2-0.2,0.4-0.2,0.6c0,0.2,0.1,0.6,0,0.8c-0.5,0.9-0.8,1.7-0.8,2.7c0,0.5-0.1,1.1,0,1.5
			c0.1,0.5,0.5,0.9,0.5,1.4c0,0.5,0.5,0.6,0.8,0.4c0.7-0.3,0.9-0.5,1.3,0.3c0.5,1,0,2,1,2.8c0-0.2,0.1-0.2,0.2-0.3
			c0.8,1.4,0.7,3.3,1.5,4.8c-0.3-0.1-0.5-0.1-0.5-0.4c0-0.2,0-0.8-0.3-0.8c-0.7,0,0.4-0.8-0.4-0.9c-0.7,0,0,1.1,0.2,1.4
			c0.2,0.3,0.3,0.5,0.4,0.8c0.2,0.4,0.5,0,0.6,0.1c0.5,0.3,0.9,0.8,1.4,1.1c0.4,0.3,1-0.2,1.5,0c0.5,0.2,0.8,0.9,1.1,1.3
			c0.3,0.5,0.8,0.8,1.2,1.1c-0.3,0.2-0.4,1.1-0.6,1.4c-0.2,0.5-1.1,0.3-1.1-0.3c-0.5,0.2-0.8,0.4-1.2,0.7c-0.1,0.1,0,0.4-0.3,0.3
			c0.1,0-0.3-0.4-0.3-0.4c0-0.3,0.5-2.7-0.5-1.8c-0.1-0.2-0.3-0.9-0.6-0.9c-0.4,0-0.7-0.1-1.1-0.3c-0.4-0.2-0.1-0.6-0.6-0.6
			c-0.1,0,0,0.7-0.3,0.9c-0.2-0.2-1.4-1.3-1.4-1.6c0-0.3,0.1-1-0.3-1c-0.5,0-0.4-0.5-0.3-0.9c-0.5,0.6-0.9-0.2-1-0.6
			c-0.1-0.2-0.3-0.4-0.3-0.7c-0.1-0.2-0.5,0.1-0.5-0.3c0-0.6-0.6-0.5-0.9-1c-0.1-0.2-0.8-1.3-1-0.9c-0.4,0.7-0.6,0.3-0.9-0.3
			c-0.2-0.4-0.2-1.2-0.1-1.6c0.1-0.6,0.2-1.2,0.3-1.8c0.1-0.5,0.3-0.9,0.4-1.4c0.2-1,0.6-2.2,0.6-3.2c0-0.5-0.3-0.7,0.2-1.1
			c0.4-0.4,0.9-0.8,1-1.3c0.2-0.5,0.3-1.1,0.6-1.5c0.1-0.2,0.2-0.2,0.3-0.4c0.2-0.4,0.1-0.2,0-0.6c-0.2-0.5-0.3-1.1-0.6-1.6
			c-0.2-0.5-0.1-1-0.5-1.4c-0.5-0.5-0.4-0.7-0.6-1.3c-0.1-0.3-0.3,0-0.3-0.5c0-0.3,0.2-0.4,0.1-0.7c-0.2-1.1-0.3-2-1.1-2.8
			c-0.4-0.4-0.9-0.7-1.3-1.1c-0.4-0.4-0.6-0.9-1-1.3c-0.4-0.4-0.5-0.7-0.6-1.3c-0.2-0.9,0.1-0.5,0.6-1c0.1-0.1,0.5-0.2,0.5-0.3
			c0-0.3,0-0.5,0-0.8c-0.1-0.5-0.4-1.2-0.2-1.7c0.3-0.6,0.8-0.3,0.8-1.1c0-0.4-0.3-0.1-0.5,0c-0.4,0.2-0.4-0.2-0.5-0.5
			c-0.1-0.5-0.5-0.8-0.7-1.4c-0.2-0.7-0.8-0.8-1-1.3c-0.4-0.8-1.7-1.4-1.9-2.3c-0.2-0.6,0-1.2-0.5-1.7c-0.2-0.2-0.2-0.1-0.4-0.2
			c-0.3-0.2-0.3-0.6-0.6-0.6c0.4,0.1,1.1-0.1,1.2-0.5c0.2-0.7-0.6-1-0.1-1.7c0.2-0.3,0-0.4,0-0.8c0-0.4,0-0.7,0.1-1
			c0.1-0.4,0.4-0.1,0.4-0.7c0-0.3,0.5,0.2,0.6,0.2c0.3,0.2,1.1,0,1.4-0.2c0.4-0.2,1,0,1-0.5c0-0.6,0-1.2,0.8-0.8
			c0.7,0.3,0.7-0.6,0.4-1c0.4-0.1,0.6,0.2,0.9,0.2C25.4,56.8,25.6,56.2,25.9,56.7"/>
		<path class="st3" d="M82.6,41.2C83.2,41.7,81.7,41.6,82.6,41.2 M92.3,48.3c0,0.2,0,0.4-0.1,0.6c-0.1,0.3,0.1,0.3,0.1,0.6
			c0,0.4,0,0.9,0,1.4c-0.5-0.1-0.7-0.8-0.9-1.2c0-0.1-0.2-0.5-0.2-0.5c-0.2-0.2-0.6-0.3-0.8-0.5c-0.3-0.3-0.7-0.8-0.8-1.2
			c-0.2-0.4-0.7-1-0.7-1.4c0-0.2,0.2-0.5,0.2-0.8c0-0.2-0.2-0.5-0.3-0.7c-0.1-0.3,0.3-1.2,0.4-1.6c0.2-0.6,0.3-1.2,0.5-1.8
			c0.2-0.4,0.7-1,0.7-1.4c0-0.7,0.5-0.8,1-1c0.5-0.2,0.5-1,1.1-0.3c0.2,0.2,1.1,0.6,0.9,1c-0.3,0.5,0,1,0,1.5c0,1.1-0.2,2.2-0.2,3.3
			c0,1-0.1,2.3-0.5,3.2C92.7,47.9,92.5,48.1,92.3,48.3"/>
		<path class="st5" d="M52.6,100.3c-0.1,0-0.1,0-0.2,0c0.1-0.1,0.2-0.2,0.3-0.3c-0.2,0.2-0.2,0.1,0,0.3
			C52.7,100.3,52.7,100.3,52.6,100.3 M43.8,94c0,0.5,0,0.9,0,1.4c-0.2-0.4-0.3-0.8-0.6-1.1C42.9,94,43.5,93.6,43.8,94 M54,94
			c-0.1,0.1-0.2,0.1-0.3,0.2C53.6,93.9,53.9,93.6,54,94 M49.7,68c0.7,0.6,1.2,1.4,2,1.8c0.6,0.3,1.5,1.2,1.8,1.7
			c0.3,0.6,0.4,0,0.8,0.1c0.2,0.1,0.5,1,0.8,1c0.2,0,1.2,1.6,1.4,1.9c0.2,0.2,0.8,0.6,0.9,0.7c0.2,0.5,0.3,1,0.5,1.5
			c0.2,0.4,0.5,0.7,0.7,1c0.1,0.2-0.1,0.4,0,0.6c0.1,0.2,0.2,0.4,0.3,0.6c0.3,0.7,0.7,1.5,0.7,2.4c0-0.1-0.1-0.2-0.2-0.3
			c0.1,0.7,0.2,1.7,0.5,2.3c0.2,0.3,0.3,0.7,0.5,1c0.2,0.4-0.1,0.9,0.2,1.3c-0.2-0.2-0.3-0.3-0.5-0.5c-0.6,0.4-0.1,0.8,0.2,1.4
			c-0.1-0.1-0.2-0.1-0.3-0.2c0.1,0.6,0.3,1.3,0.3,1.9c-0.1-0.2-0.1-0.2-0.2-0.3c0,0.1-0.2,0.3-0.2,0.4c0,0.2,0.2,0.3,0.2,0.5
			c0,0.2,0,0.4-0.1,0.5c-0.1,0.1-0.4,0-0.4,0.2c0,0.6,0.2,0.9-0.4,0.9c-0.2,0-0.3,0.3-0.4,0.5c-0.1,0.2-0.5,0.1-0.6,0.3
			c-0.2,0.3-0.5,0.8-0.9,0.8c-0.6,0-0.5,0.9-0.8,0.9c-0.8,0-1.6,0.8-2.3,1.2c0-0.5-0.9-0.5-0.9-1c0,0.2,0.1,0.9-0.2,1
			c-0.5,0.1-0.5-0.8-1-0.3c0.3,0,0.5,0.3,0.5,0.6c0,0.2-0.8,0.1-1,0.1c0.3,0.1,0.9,0.2,1.1,0.4c0.2,0.2-0.3,0.7-0.3,1
			c0,0.5-1.8-1.2-1.9-1.3c0.2,0.7,2,1.7,1.5,2.4c-0.6,0.7-2-1.2-2.4-1.5c0.4,0.6,1,1.2,1.3,1.8c0,0-0.1,0.6-0.2,0.6
			c-0.4,0.2-0.9,0.4-1.3,0.7c-0.3,0.1-0.6,0.2-0.8,0.5c-0.2,0.3-0.2,0.7-0.4,1c-0.4,0.5-1.3,0.7-1.9,0.7c0.2-0.2,0.3-0.3,0.5-0.5
			c-0.8-0.2-0.5-3.1-0.4-3.8c0.1-0.7,1.1-0.3,0.6-1c-0.2-0.3-0.4-0.2-0.7-0.3c-0.3-0.2-0.4-0.6-0.7-0.2c-0.3-0.3-0.5-0.7-0.9-1
			c0.3-0.1,0.3-0.3,0.8-0.3c0.6,0,0.5,0,0.8-0.4c0.2-0.2,0.2-0.2,0.3-0.4c0-0.1-0.2-0.5-0.2-0.5c0.1-0.2,0.9,0,1,0.2
			c0.3-0.8,1.6-0.7,1.9,0c0.2-0.3,0.6,0.2,1,0.2c-0.2-0.6-0.1-0.9-0.6-1.2c-0.5-0.4-0.7-0.7-0.8-1.3c-0.2-1.3,1-0.9,1.9-0.9
			c-0.4-0.3-0.2-0.8,0.2-1c0.1-0.1,0.4,0.1,0.5,0c0.2-0.1,0.2-0.3,0.4-0.3c0.5,0,0.7-0.2,1-0.7c0.2-0.3,0.7-0.6,0.8,0
			c1.1-0.9,0-1.9,0-2.9c0-0.5,0.4-1,0.3-1.5c0-0.5-0.5-1-0.7-1.4c-0.2-0.4-0.5-0.7-0.5-1.2c0-0.2-0.1-0.5,0-0.8
			c0.1-0.3,0.3-0.5,0.3-0.8c0-0.4,0-1-0.2-1.4c-0.3-0.6,0.5-0.6,0.4-1.3c-0.2-0.9-1.9-1.2-1.9-2.1c0-0.5,0.9-0.2,0.7-0.8
			c-0.1-0.2-0.4-0.2-0.6-0.3c-0.2-0.1-0.4-0.4-0.6-0.6c-0.1-0.1-1.1-1-0.9-1c-0.2,0-0.1,0.3-0.3,0.3c-0.2,0-0.3-0.4-0.4-0.5
			C49.3,70.4,49,70,49,69.5c0-0.3-0.3-0.2-0.4-0.3c-0.2-0.3-0.4-0.5-0.6-0.7L49.7,68z"/>
		<path class="st5" d="M48.5,55.3c-0.2,0-0.6-0.2-0.4-0.4C48.4,54.6,48.6,55,48.5,55.3"/>
		<path class="st5" d="M47.9,54.9c0,0.1,0,0.1,0,0.2c0-0.2-0.1-0.3-0.3-0.3C47.7,54.5,47.9,54.7,47.9,54.9"/>
		<path class="st5" d="M49.9,54.6c-0.1,0-0.2,0-0.3,0c0.2-0.2,0.3-0.3,0.5-0.5C50.1,54.3,50,54.5,49.9,54.6"/>
		<path class="st5" d="M50.1,53.4c-0.4,0.7-0.5,0.6-0.5-0.2C49.7,53.4,49.9,53.4,50.1,53.4"/>
		<path class="st5" d="M43.1,46.9c0.4,0.5,0.9-0.3,1.5,0.3c0.1,0.1,0.6,0.1,0.7,0.1c0.3,0,0.1-0.2,0.4,0c0.2,0.1,0.4,0.2,0.5,0.3
			c0.3,0.2-0.7,1-0.4,1.5c0.1,0.3,0.3,0.3,0.5,0.6c0.2,0.3,0.2,0.6,0.2,1c0.2-0.3,1.2,0.2,1.3,0.4c0.2,0.3,0.1,0.3,0.6,0.4
			c0.4,0.1,0.4,0.1,0.7,0.5c0.2-0.2,0.7,0.1,1.1-0.1c0.3-0.2,0.6,0.4,0.9,0.5c-0.5-0.1-0.6,0.1-0.9,0.4c-0.4,0.4-0.8,0.2-0.8,0.9
			c0,0.4-0.1,0.8-0.6,0.8c-0.3,0-0.2-0.2-0.3-0.2c-0.2,0-0.3,0.2-0.5,0.2c-0.2,0-0.8-0.3-0.8-0.1c0,0.5,0.6,0.6,0.2,1.1
			c-0.4,0.6-0.2,0.6-0.2,1.3c0,0.3-0.7,0.8-0.9,1.1c-0.3,0.3-0.6,0.1-0.7,0.6c-0.1,0.5-0.3,1-0.3,1.6c0,0.3,0.1,0.9,0,1.2
			c-0.1,0.2-0.3,0.2-0.3,0.4c0,0.3,0.2,0.5,0.4,0.8c0.5,0.7,0.9,1.6,1.7,2c0.5,0.2,0.6,0.5,0.9,0.9c0.3,0.4,0.3,0.7,0.5,1.2
			c-0.2-0.1-0.3-0.1-0.5-0.2c0.8,0,1.1,1.2,1.7,1.7l-1.7,0.4c-0.7-0.7-1.6-1.3-2.2-2.1c-0.3-0.4-0.4-0.8-0.7-1.2
			c-0.2-0.2-0.1-0.3-0.4-0.3c-0.4,0-0.4-0.2-0.6-0.5c-0.3-0.5-0.5-0.5-0.5-1.1c0-0.4-0.9-0.6-1.3-0.7c-0.9-0.4-1.7-1.1-2.7-1.6
			c-0.7-0.4-0.2-0.4,0-0.9c0.2-0.4-0.8-0.8,0.1-0.8c0.5,0,1,0.4,1.5,0.2c0.6-0.3,0.6-0.7,0.7-1.2c0.1-0.2,0.3-0.3,0.1-0.6
			c-0.1-0.2-0.2-0.3-0.5-0.4c-0.2-0.1-0.5,0.1-0.5-0.3c0-0.2-0.4-0.4-0.6-0.4c-1,0,0.2-0.5,0.3-0.7c0-0.3-0.8-0.7-1.1-0.9
			c-0.7-0.5-1.3-0.6-1.8,0.3c-0.2,0.5-0.6,0-0.9-0.1c-0.5-0.2-0.8-0.1-1.1-0.5c-0.3-0.3-0.6-0.6-0.9-0.9c-0.1-0.1-0.2-0.2-0.2-0.3
			c-0.2-0.4,0-0.2,0-0.5c0-0.3,0-0.7,0-1c0-0.5-0.4-0.3-0.5-0.8c-0.1,0.3-0.2,0.5-0.3,0.7c-0.1-0.1-0.3-0.4-0.3-0.6
			c0-0.4-0.2-0.3-0.5-0.6c-0.3-0.2-0.4-0.5-0.6-0.8c-0.2-0.3-0.5-0.3-0.7-0.6c-0.1-0.2,0.6-1.1,0.6-1.4c0-0.2,1.3,0.3,1.4,0.5
			c0.4,0.9,0.7,0.2,1.1-0.2c0.1-0.1,0.3-0.7,0.5-0.5c0.2,0.2,0.3,0.7,0.6,0.6c0,0,0.2-0.8,0.4-0.7c0.3,0.3,0.6,0.5,1,0.8
			c0.3,0.2,0.1-0.2,0.2-0.3c0.2-0.3,0.3-0.5,0.7-0.7c0,1,0.9,0.2,1.2,0c0.3-0.1,0.4,0,0.5-0.3c0.1-0.2-0.2-0.9,0.3-0.9
			c0.5,0,0.9-1.1,1.4-0.5c0.1,0.1,0.2,0.2,0.4,0.3c0.2,0.1,0,0.3,0.1,0.4C42.3,46.7,42.7,46.7,43.1,46.9"/>
	</g>
	<g class="st2">
		<path class="st4" d="M45.8,129.7c0.1-0.1,0.1-0.1,0.2-0.2c0-0.2-0.1-0.2-0.3-0.3C45.4,129.4,45.6,129.6,45.8,129.7z"/>
		<path class="st4" d="M44.6,129.7c0-0.3-0.1-0.4-0.3-0.2c0.1,0.1,0.2,0.3,0.3,0.3C44.6,129.8,44.6,129.8,44.6,129.7z"/>
		<path class="st4" d="M45.3,128.4c-0.4,0.3-0.4,0.4-0.1,0.6c0.4,0.2,0.5-0.2,0.4-0.6C45.5,128.6,45.5,128.5,45.3,128.4z"/>
		<path class="st4" d="M47.7,133.6c0.4,0.3,0.5,0.5,0.8,0.2c-0.2-0.2-0.3-0.3-0.5-0.5c-0.1,0.1-0.1,0.1-0.2,0.2
			c-0.3-0.2-0.5-0.8-0.9-0.9c-0.1,0.3-0.2,0.6-0.3,0.9c0.2,0,0.3,0.1,0.5,0.2C47.5,133.7,47.4,133.4,47.7,133.6z"/>
		<path class="st4" d="M43.4,130.2c0.2-0.1,0-0.7-0.3-0.7C43,129.6,43.1,130.2,43.4,130.2z"/>
		<path class="st4" d="M43.4,133.8c-0.3,0.5,0.6,0.3,0.9,0.2c0.1,0,0.1,0,0.2,0C44.3,133.8,43.7,133.4,43.4,133.8z"/>
		<path class="st4" d="M46.4,134.2c-0.1-0.1-0.3-0.2-0.3,0c0,0.4,0.2,0.6,0.3,0.9c0-0.1,0.1-0.2,0.2-0.3c0.1,0.1,0.1,0.1,0.2,0.2
			c0.2-0.5,0.6-0.6,0-1C46.7,134.1,46.5,134.4,46.4,134.2z"/>
		<path class="st4" d="M49.7,139.5c-0.2,0.5-1.3,0.5-0.5,0.9c0.5,0.3,1.1-0.2,1.5,0.2c0.4,0.2,0.2,0.4,0.3,0.7
			c0,0.1,0.1,0.3,0.1,0.4c0,0.1,0.2,0,0.2,0.1c0.1,0.2-0.2,1.5,0.2,1.5c0.5,0,1.1,0.3,1.5,0.5c0.3,0.2,0.3,0.3,0.6,0.3
			c0.2,0-0.1-0.5-0.1-0.6c0-0.4,0.4-1.1,0.7-1.3c-1-0.3-1.5-0.3-1.9-1.4c-0.2-0.7-0.1-1.5-0.5-2c0-0.6-0.3-0.5-0.8-0.5
			c-0.5,0-0.2,0.5-0.4,0.8c0-0.3-0.2-0.6-0.3-0.8C49.7,138.7,49.9,139,49.7,139.5z"/>
		<path class="st4" d="M52.6,120.9c-0.4-0.5-0.5,0.3,0,0.3C52.6,121.1,52.6,121,52.6,120.9z"/>
		<path class="st4" d="M54.5,144c0.1-0.1,0.1-0.2,0.2-0.3C54.2,143.2,53.9,144.1,54.5,144z"/>
		<path class="st4" d="M46.8,131.9c0.2,0.3,0.4,0.5,0.7,0.7c0-0.1,0-0.1,0-0.2C47.3,132.2,47.1,131.9,46.8,131.9z"/>
		<path class="st4" d="M46,128.7c0,0.3,0.2,0.2,0.4,0.2c0.5,0,0.1,0.1,0.3,0.3c0.1,0.1,0.2-0.1,0.2,0.1c0,0,0,0.3,0,0.3
			c0.3,0.1,0.4-0.1,0.5-0.3c0.2-0.5-0.2-0.7-0.2-1C47,128.4,46,128.1,46,128.7z"/>
		<path class="st4" d="M56.4,143.7c0.1-0.1,0.1-0.1,0.2-0.2C56.4,143.2,56.3,143.4,56.4,143.7z"/>
		<path class="st4" d="M50.9,122.1c0.6-0.5-0.3-0.7-0.3-0.6c0,0.1,0.2,0.1,0.2,0.3C50.7,122,50.7,122,50.9,122.1z"/>
		<path class="st4" d="M51.8,144.7c0.1-0.5-1.1-2.6-1.5-2.8c-0.6-0.3-1-0.5-1.7-0.5c-0.4,0-0.8,0.6-1,0.8c-0.6,0.6-0.4-0.3-0.2-0.6
			c0.2-0.4,0.7-0.6,0.5-1.1c-0.3-0.6-1-0.4-1-1.2c0-0.5-0.1-0.9-0.2-1.4c0-0.4,0.1-1.6-0.6-1.2c-0.3,0.2-1-0.2-1.3-0.4
			c-0.5-0.2-1.1-0.5-1.2-1c-0.1-0.4,0.2-1-0.3-1.1c0.3-0.3-0.2-0.6,0-0.7c0.2-0.2,0.8-0.4,1-0.6c0.5-0.6-0.1-1.2-0.6-1.6
			c-0.1-0.1-0.6-0.5-0.7-0.4c-0.2,0.2-0.6,0.3-0.9,0.5c-0.3,0.2-0.5,0.5-0.8,0.5c-0.3,0-0.6,0.1-0.9,0.2c0.5-0.2,1.4-0.4,1.7-0.9
			c0.3-0.7-0.7-1-1.2-1c-0.3-0.1-0.6,0-0.8-0.2c-0.2-0.2-0.4-0.4-0.6-0.6c-0.1-0.1,0-0.5-0.1-0.6c-0.1-0.3-0.2-0.6-0.4-0.8
			c-0.4-0.4-1-1.1-1.6-1.1c-0.5,0-0.5,0.1-0.8-0.3c-0.2-0.3-0.2-0.6-0.3-0.9c-0.3-0.4-0.9-1.3-1.4-1.1c-0.6,0.3,0.2,0.8,0.1,1.2
			c-0.3-0.1-0.4-0.3-0.6-0.5c-0.2-0.3-0.2,0-0.5-0.2c-0.3-0.2-0.6-0.6-0.8-0.9c-0.2-0.4-0.6-0.7-0.8-1.1c-0.2-0.4-0.4-0.8-0.7-1.1
			c-0.4-0.4-0.6-0.8-1.1-1.1c-0.4-0.3-0.8-0.6-1.2-0.9c-0.4-0.3-0.8-0.5-1.2-0.7c-0.2-0.1-0.3-0.2-0.5-0.2c-0.4-0.2,0-0.2-0.3-0.5
			c-0.2-0.2-0.8-0.5-1.2-0.6c-0.6-0.2,0-0.7-0.2-1c-0.2-0.5-0.7-0.7-1-1.1c-0.2-0.3-0.2-0.7-0.5-1c-0.1-0.1-0.8-1.1-1-1.1
			c-0.2,0-0.3-0.1-0.4-0.2c-0.2,0-0.5,0-0.8,0c-0.4,0-0.8-0.2-1.2-0.2c-0.4,0-0.8,0.2-1.3,0.2c-0.2-0.1-1.1-0.1-1.2-0.2
			c-0.3-0.3-0.7-0.5-1-0.9c-0.5-0.5-1.7-0.7-2,0.1c0.2,0.1,0.2,0.4,0.1,0.6c-0.2,0.3-0.1,0.4,0.1,0.7c0.2,0.4,0.5,1.2,0.8,1.5
			c0.8,0.8,1.5,1.7,2.5,2.5c0.4,0.3,0.6,1,1.1,1.2c0.2,0.1,0.6,0.1,0.9,0.1c0.3,0,0.2,0.3,0.4,0.4c0.5,0.3,0.6,1,1,1.4
			c0.4,0.4,0.6,0.8,1,1.1c0.5,0.4,0.7,0.8,0.7,1.5c0,0.5,0.2,1.1,0.8,1.1c0.4,0,1.1,0.7,1.4,0.9c0.6,0.3,0.7,0.5,1.1,0.9
			c0.8,0.8,0.6,2,1,2.9c0.3,0.9,0.5,2.4,1.3,2.9c0.5,0.3,1,0.3,1.4,0.9c0.1,0.2,0.2,0.6,0.3,0.9c0.1,0.4,0.2,0.2,0.4,0.5
			c0.7,0.8,1.2,1.6,1.5,2.7c0.1,0.3,0.2,0.5,0.3,0.8c5.4,3.6,11.2,6.6,17.5,8.7c0-0.2,0-0.4,0.1-0.6
			C51.3,145.4,51.7,145.1,51.8,144.7z"/>
		<path class="st4" d="M25,129.9c0-0.2,0.2-0.9,0.1-0.9c-0.6-0.6-1-0.9-1.4-1.6c-0.5-0.7-0.7,0.1-1.4,0c0.3,0.3,0.6,0.7,0.8,1
			c0.2,0.2,0.1,0.7,0.4,0.9c0.2,0.2,0.6,0.1,0.7,0.5c0,0.1,0,0.3,0.1,0.4c0.1,0.1,0.3,0.3,0.4,0.4C25,130.5,25,130.3,25,129.9z"/>
		<path class="st4" d="M18.9,123.2c0.3,0.1,0.8,0.3,0.9,0.5c0.1,0.2,0.2,0.3,0.5,0.3c0.1-0.6-0.8-1.1-1.2-1.4
			c-0.5-0.4-0.8-1-1.4-0.3c0.3,0.2,0.3,0.5,0.6,0.6C18.5,123,18.7,123.1,18.9,123.2z"/>
		<path class="st4" d="M23.2,125c0-0.4-0.3-0.6-0.7-0.5c0.4,0.1,0.5,0.4,0.7,0.7C23.2,125.1,23.2,125,23.2,125z"/>
		<path class="st4" d="M115,139.1c-0.3,0-0.3,0.3-0.8,0c-0.6-0.1-1.7-0.5-2,0.3c-0.4,1.1,0.7,0.9,1.3,0.6c0.1-0.1,0.4-0.1,0.7-0.1
			c0.3-0.2,0.6-0.4,0.9-0.6C115.1,139.2,115,139.1,115,139.1z"/>
		<path class="st4" d="M104.8,143c-0.3-0.2-0.3-0.8-0.5-1.1c-0.2-0.4-0.4-0.8-0.9-1.1c-0.4-0.2-0.5-0.4-0.9-0.8
			c-0.2-0.2-0.3-0.3-0.1-0.5c0.2-0.2,0.3,0.1,0.5,0.1c0.5,0,0.6,0,0.9-0.5c0.3-0.4,0.8-0.4,1.2-0.6c0.5-0.2,0.7-0.4,1.1-0.8
			c0.4-0.5,1-1.9,1.8-1.9c0.6,0,0.6,0.5,1,0.5c0.4,0,0.4-0.6,0.4-0.9c0-1.2-1.5-0.4-2-0.4c0.8,0.7-1.5,0.3-1.7,0.3
			c-0.5,0.2-1.3,1.2-2,0.6c-0.6-0.6-1.2,0.3-1.5,0.9c-0.2,0.4-0.2,0.7-0.6,1c-0.3,0.2-0.6,0-0.9,0c-0.4,0-0.4,0-0.6-0.4
			c-0.1-0.3-0.2-0.5-0.3-0.8c-0.2-0.4-0.8-0.5-0.9-0.7c-0.5-0.9-0.9-2.1-0.6-3.1c0.3-0.8,0.8-2.2,1.8-2.1c0.5,0,0.9,0.4,1.4,0.3
			c0.5-0.1,1.1-0.2,1.7-0.2c0.6,0,1,0.2,1.6,0c0.4-0.1,1,0,1.5,0c0.5,0,1.3-0.1,1.9,0c0.4,0.1,0.6,0.6,1,0.7
			c0.9,0.3,2.2-0.2,3.1-0.3c0.6-0.1,0.7-0.6,1-1c0.3-0.4,0.7-0.7,1-1.2c0.5-0.4,0.6-1.9,1.2-1.9c-0.2-0.2-0.5-0.9-0.9-0.9
			c-0.3,0-0.6,0.7-0.7,0.9c-0.1,0.3-0.7,0-0.7,0.5c0,0.4-0.4,0.5-0.6,0.7c-0.3,0.3-0.9,0.9-1.4,1.1c-0.5,0.1-1.2-0.2-1.7-0.2
			c-0.5-0.1-1-0.1-1.5-0.1c-0.2,0-0.2,0.3-0.5,0.3c-0.2,0-0.4-0.2-0.6-0.3c-0.6-0.4-1-0.3-1.7-0.3c-0.5,0-1-0.2-1.5-0.2
			c-0.1,0-0.3,0-0.4,0c-0.2,0,0-0.1-0.1-0.2c-0.1-0.1-0.3-0.5-0.3-0.5c-0.1-0.1-1.1-0.2-1.3-0.2c-0.6,0-0.7,0.4-0.9,0.9
			c-0.1,0.2-0.6,1-0.8,0.9c-0.1-0.1-0.6-0.6-0.6-0.6c-0.3,0-0.2,0.3-0.3,0.5c-0.1,0.1-0.1,0.2-0.2,0.3c0,0.1-0.3-0.1-0.3,0
			c-0.1,0.1-0.1,0.5-0.2,0.7c-0.2,0.4-0.7,0.8-0.7,1.3c0,0.2,0.2,0.6,0.2,0.8c-0.1,0.2-0.5,0.3-0.5,0.3c-0.4,0.8,0.9,2.5,0.3,3.1
			c-0.1-0.4-0.1-0.7-0.5-0.5c-0.2,0.1-0.5,0.5-0.5,0.7c-0.5,1.1-0.8,2-0.6,3.1c0.1,0.5-0.5,0.9-0.6,1.4c-0.2,0.5-0.2,0.9-0.5,1.4
			c-0.2,0.3-0.9,0.5-0.9,0.8c0,0.5,0.3,0.8,0.1,1.4c-0.1,0.4,0,1.2,0.3,1.5c0.3,0.3,1-0.2,1.4-0.1c0.5,0.2,0.2,0.5,0.3,1
			c0.1,0.3,0.2,0.6,0.3,0.9c0.9-0.3,1.8-0.5,2.7-0.8c0.1-0.7,0.2-1.3-0.1-2c-0.3-0.6-0.4-1,0.2-1.4c0.4-0.3,0.7-0.7,1.3-0.7
			c0.8,0,0.9,0,0.9,0.9c0,0.6,0,0.9-0.3,1.4c-0.3,0.5-0.6,0.8-0.2,1.3c0,0,0,0,0,0c1.6-0.6,3.1-1.2,4.6-1.8c0-0.1-0.1-0.2-0.1-0.2
			C105.4,143.5,105.3,143.4,104.8,143z"/>
		<path class="st4" d="M40.2,129c-0.1,0.6,0.1,0.5,0.6,0.6c0.4,0.1,0.9,0.6,1.3,0.2c-0.2-0.5-0.7-0.7-1.1-0.9
			C40.5,128.8,40.3,128.3,40.2,129z"/>
		<path class="st4" d="M38.7,126.7c-0.1,0.5,0.4,0.7,0.8,0.7c0.3,0,0.9,0.7,0.8,0C40.2,127,39,126.8,38.7,126.7z"/>
		<path class="st4" d="M42.4,129.6c-0.2-0.4-0.3-0.7-0.7-0.9c-0.6-0.3-0.6-0.4-0.8,0.3C41.5,128.8,41.9,129.4,42.4,129.6z"/>
		<path class="st4" d="M42.9,130.7c0-0.2-0.2-1-0.4-0.6C42.3,130.6,42.3,130.9,42.9,130.7z"/>
		<path class="st4" d="M16.2,111c0-0.3-0.5-0.5-0.5-0.2C15.7,111.2,16.1,111.3,16.2,111z"/>
		<path class="st4" d="M43.3,128.9c0-0.2,0-0.3-0.2-0.3C42.8,128.7,43.2,129.3,43.3,128.9z"/>
		<path class="st4" d="M37.6,125c-0.2-0.2-0.9-0.1-1,0.2c-0.2,0.2,0.1,0.9,0.3,1.1C37.4,126.8,38,125.4,37.6,125z"/>
		<path class="st4" d="M39.5,127.5c-0.5,0.2,0.1,1.5,0.3,1.7c0.1-0.1,0.1-0.1,0.2-0.2C40,128.8,40.1,127.3,39.5,127.5z"/>
		<path class="st4" d="M103.5,134.7c0.2,0.2,0.4-0.4,0.7,0c0-0.1,0-0.2,0-0.3C104.1,134.3,103.2,134.4,103.5,134.7z"/>
		<path class="st4" d="M121.9,134c0.1-0.1,0.1-0.1,0.2-0.2c-0.5-0.5-1.1,0.9-0.3,0.8c0.1,0,0.1-0.1,0.2-0.1
			C122.1,134.3,122.2,134.2,121.9,134z"/>
		<path class="st4" d="M120.2,118.7c0-0.2,0-0.2-0.2-0.3C120,118.6,120.1,118.6,120.2,118.7z"/>
		<path class="st4" d="M119.9,118.5c0-0.1,0-0.1,0-0.2c0-0.3-0.1-0.5-0.3-0.7C119.7,117.9,119.7,118.2,119.9,118.5z"/>
		<path class="st4" d="M115.6,122.9c-0.1-0.3,0.3-0.5,0-0.7C115.4,122.4,115.5,122.6,115.6,122.9z"/>
		<path class="st4" d="M120.1,117.6c0.2-0.5,0.5-1.4,0.1-1.8c-0.4-0.4-0.7,1-0.1,0.9c-0.1,0.2-0.3,0.5-0.3,0.8
			C119.7,117.9,120,117.9,120.1,117.6z"/>
		<path class="st4" d="M116.5,119.8c-0.2-0.2-0.3-0.5-0.5-0.8c-0.2-0.3-0.5-0.2-0.3,0C115.9,119.2,116.1,120.5,116.5,119.8z"/>
		<path class="st4" d="M122.6,132.8C122.8,131.8,122.1,132.7,122.6,132.8L122.6,132.8z"/>
		<path class="st4" d="M126.4,128.8c0.5-0.3,0.3-0.7,0.3-1.2c0-0.5,0.2-0.8-0.4-0.8c-0.5,0-1.9,1-1.3,1.5c-0.2,0.2-0.4,0-0.5,0.2
			c-0.1,0.1-0.2,0.4-0.3,0.6c-0.1,0.3-0.3,0.8-0.7,0.4c-0.7-0.5,0-0.8,0.5-1.2c0.4-0.3,0.6-0.8,0.6-1.3c0-0.5-0.5-1-0.5-1.4
			c0-0.5,0.6-0.7,0.5-1.2c-0.5,0.2-1.1,0.9-1.4,1.4c-0.3,0.5-0.1,1.1-0.4,1.6c-0.4,0.7-0.4,1.1,0,1.8c0.1,0.2,0.5,0.3,0.3,0.6
			c-0.2,0.2-0.1,0.5-0.1,0.7c0,0.5,0.2,0.6,0.3,0.9c0.1,0.3,0,0.4,0,0.8c0,0.2,0.2,0.7,0.1,0.9c-0.1,0.2-0.1,0.3,0,0.4
			c0.2-0.2,0.5-0.4,0.7-0.6c-0.1-0.3,0-0.6,0.1-0.9c0-0.1-0.2-0.2-0.2-0.3c0.1-0.1,0.1-0.1,0.2-0.2c0-0.2-0.1-0.3,0.1-0.4
			c0.2-0.2,0.7,0.3,1,0.3c0.2,0,0.4,0,0.6,0.1c0.2-0.2,0.4-0.3,0.6-0.5c-0.2-0.1-0.5-0.2-0.7-0.4
			C124.7,129.6,125.7,129.3,126.4,128.8z"/>
		<path class="st4" d="M122.8,133.9C122.8,133.9,122.8,133.9,122.8,133.9c0.1-0.1,0-0.1,0-0.1C122.8,133.8,122.8,133.9,122.8,133.9z
			"/>
		<path class="st4" d="M125.9,125.1c0.6-0.1,0.6-0.9,0.6-1.4c0-0.3-0.3-1-0.7-0.6c-0.3,0.3-0.9,0.7-0.8,1.2
			C125.1,124.8,125.2,125.3,125.9,125.1z"/>
		<path class="st4" d="M122.5,129.9c-0.2,0.2-0.3,0.5,0,0.5C122.7,130.3,122.7,130,122.5,129.9z"/>
		<path class="st4" d="M122.3,129.7C122.1,129.1,122.1,130.3,122.3,129.7L122.3,129.7z"/>
		<path class="st4" d="M122.2,134.4c0.1-0.1,0.2-0.2,0.3-0.3c-0.1-0.1-0.2-0.2-0.4-0.2C122.3,134.1,122.2,134.2,122.2,134.4z"/>
		<path class="st4" d="M90.1,120.5C90.4,119.3,89,120.2,90.1,120.5L90.1,120.5z"/>
		<path class="st4" d="M57.7,144.2c0.6,0.1,0.1,0.6,0.7,0.5c0.4,0,0.6-0.5,0.5-0.9c0.4-0.6,0.3-0.7-0.2-1.2c-0.4-0.4-1-0.5-1.5-0.4
			c-0.2,0.1-0.4,1-0.4,1.3c0,0.4,0.2,0.8,0,1.1C57.2,144.7,57.7,144.6,57.7,144.2z"/>
		<path class="st4" d="M90.5,117.7c0.3-0.1,0.3-0.3,0.1-0.6c-0.3,0-0.7-0.1-0.9,0.2C90,117.6,90.1,117.8,90.5,117.7z"/>
		<path class="st4" d="M86,145.7c0-0.1,0-0.2,0-0.3c-0.3,0.2-0.4,0.6-0.2,0.8C85.9,146.1,85.9,145.9,86,145.7z"/>
		<path class="st4" d="M109.8,139.1c0-0.2-0.1-0.8-0.3-0.7C109.3,138.6,109.5,139.2,109.8,139.1z"/>
		<path class="st4" d="M61.5,129.8c0,0.4,0,0.8,0,1.2c0,0.6,0.1,0.4,0.5,0.8c0.2,0.2,0.5,0.6,0.5,0.8c0,0-0.2,0.5-0.2,0.6
			c0,0.2-0.2,0.2-0.2,0.3c0,0.8,0.1,1.1,0.9,1.6c-0.5,0-0.6,0.9-0.1,0.9c0.5,0,1,0.1,1.4,0.5c0.3,0.3,0.7,1.1,0.7,1.4
			c0.1,0.5-0.2,1-0.2,1.4c0,0.2-0.1,0.4,0.1,0.5c0.1,0.1,0.3,0.1,0.3,0.2c0,0.3,0,0.5,0.1,0.8c0.1,0.6,0.2,1.2,0.2,1.8
			c0,0.5-0.2,1.2,0.4,1.3c0,0,0.7-0.3,0.8-0.3c0.2,0,0.3,0.4,0.4,0.5c0.2-0.2,0.4-0.4,0.7-0.5c-0.2,0.2-0.2,0.7,0.1,0.7
			c0.4,0,0.6-0.1,0.9-0.3c0.4-0.2,0.5-0.3,0.9-0.1c0.3,0.1,0.6,0,0.8-0.3c0.5,0.5,0.3,1.3,0.3,2c0,0.3-0.1,0.6,0.2,0.6
			c0.1,0,0.7-0.6,0.8-0.6c0.5-0.4,1.4,0,2-0.2c0.8-0.3,0.9-0.9,1.1-1.6c0.3,0.4,0.6,0.8,0.8,1.2c0.2-0.2,0.5,0.1,0.9-0.3
			c0.3,0.2,0.1,0.4,0.2,0.7c0.1,0.4-0.1,0.2,0.3,0.4c0.4,0.2,0.9-0.3,1.3-0.6c0,0.4,0.7,0.1,0.9-0.2c-0.3,0.4-0.2,0.6,0.2,0.9
			c0.1-0.1,0.3-0.2,0.3-0.3c0,0.4,0.2,0.8,0.2,1.2c0,0.4-0.2,1.3,0.1,1.6c0.4,0.4,1.8-0.8,2.3-1c0.6-0.3,1.2-0.5,1.8-0.8
			c0.6-0.2,0.4-0.4,0.6-0.9c0.2-0.4,0.6-0.7,0.7-1c0.1-0.3,0.2-0.1-0.1-0.5c-0.1-0.1-0.1-0.3-0.1-0.4c0.6,0.8,0.7-1,0.9-1.4
			c-0.1,0.1-0.2,0.1-0.3,0.2c0-0.3,0.2-0.3,0.4-0.3c0.5,0,0.3,0,0.4-0.3c0-0.1,0.1-0.8,0-0.9c0,0-0.6-0.1-0.7-0.2
			c0.3-0.2,0.6-1,0.3-1.4c-0.1-0.2-0.5,0.2-0.5-0.2c0-0.2,0.6-0.2,0.7-0.3c0.2-0.2,0.2-0.4,0.3-0.7c0.1-0.2,0.5-0.3,0.5-0.4
			c0-0.2,0.2-0.4,0.2-0.6c0,0,0.4,0.1,0.4,0.1c0.2,0.1,0.6-0.5,0.7-0.7c0.3-0.6,1.1-0.8,1.6-1.1c-0.3-0.2-0.1-0.5-0.2-0.9
			c-0.1-0.3-0.3-0.6-0.3-0.9c0-0.7,0.3-1.4,0.3-2c0-0.5,0.4-1.4,0.7-1.8c0.2-0.3,1.2-0.7,0.5-1.2c0.8,0.3,1.1,1.2,2.1,1
			c0.4-0.1,1-0.2,1.3-0.5c0.3-0.3-0.2-0.4-0.4-0.6c-0.6-0.7-1.3-1.2-2-1.8c-0.6-0.5-0.9-1.2-1.5-1.6c0.2,0,0.9-0.7,0.9-0.8
			c0-0.4-0.1-0.6-0.4-0.9c-0.1-0.2-0.2-0.3-0.4-0.5c-0.1-0.1-0.1-0.5-0.1-0.5c-0.2-0.2-0.8-0.1-0.3-0.5c-0.2,0-0.4-0.1-0.5-0.2
			c0.1,0,0.2,0,0.3,0c-0.2-0.2,0-0.4-0.2-0.5c-0.1-0.1-0.3,0-0.3,0c-0.1-0.1-0.7-0.4-0.7-0.5c-0.1-0.5,0.4-0.5-0.1-0.9
			c-0.2-0.2-0.4-0.6-0.8-0.6c0.2,0,1.4,0.1,1.4-0.1c0-0.5,0.7,0.4,1-0.1c-0.2-0.1-0.2-0.2-0.2-0.4c0-0.2-0.3-0.2-0.4-0.3
			c-0.3-0.3-0.3-0.6-0.6-0.8c0.1-0.1,0.2-0.2,0.3-0.3c-0.4,0.1-0.7-0.3-1-0.5c-0.2-0.1-0.5,0-0.7-0.1c-0.4-0.1-0.7-0.1-1.1-0.1
			c-0.3,0-0.3,0.4-0.6,0c-0.4,0.3-0.7,0-1.1,0c-0.3,0-0.4,0.3-0.6,0.3c-0.2,0-0.2-0.3-0.4-0.3c-0.1,0-0.6,0.7-0.7,0.9
			c-0.2,0.4-0.2,0.7-0.2,1.2c0,0.4,0.1,0.8,0,1.2c0,0.3-0.2,0.4-0.2,0.8c0,0.1,0,0.3,0,0.4c-0.2,0.8-0.7,0.1-0.9,0.4
			c-0.2,0.2-0.6,0.7-0.3,0.9c-0.5,0.4,0.2,0.5,0.2,0.8c0,0.5-0.4,0.5-0.7,0.8c-0.3,0.3-0.7,0.4-0.5,0.9c0.1,0.4,0.5,0.4,0,0.9
			c-0.3,0.3-0.3,0.3-0.3,0.7c0,0.1-0.2,0.4-0.3,0.5c-0.1,0.3,0.1,0.3-0.2,0.4c0,0-0.5-0.2-0.6-0.2c-0.5,0-0.9,0.2-1.4,0.2
			c-0.3,0-0.7,0.6-0.9,0.9c-0.3-0.5-0.6-0.2-1-0.4c-0.3-0.1-0.8-0.5-1.2-0.4c0.1-0.1,0.1-0.1,0.2-0.2c-0.3-0.6-1.4-0.5-2-0.3
			c-0.8,0.3-0.8,0.8-1.1,1.5c-0.1,0.2-0.3,0.1-0.5,0.1c-0.2,0-0.2,0.2-0.3,0.3c-0.2,0.4-0.4,0-0.7,0c-0.3,0-0.4,0.2-0.9,0.1
			c-0.3-0.1-0.7-0.1-1-0.1c-0.4,0-1.7,0.8-1.9,0.6c-0.4-0.4-1.2-0.8-1.6-1.3c-0.2-0.2-0.2-0.2-0.2-0.4c0-0.2-0.2-0.1-0.3-0.3
			c-0.2-0.3-0.5-0.4-0.6-0.8c-0.1-0.2-0.4-0.7-0.4-0.9c0-0.1-0.2-0.2-0.1-0.3c0.1-0.2,0.2-0.3,0.3-0.5c-1.1,0.7-1.8,1.8-2,3.1
			c0.2-0.1,0.3-0.2,0.5-0.2C61.4,128.5,61.5,128.9,61.5,129.8z M87.3,137.1c-0.1-0.1-0.2-0.2-0.1-0.4
			C87.3,136.8,87.3,137,87.3,137.1z"/>
		<path class="st4" d="M58.2,118.1c0.1,0.2,0.7,0.2,0.7,0.4c0,0.1-0.4,0.2-0.5,0.3c0.3,0.4,0.4,0.3,0.9,0.2c0.1-0.3,0.3-0.9,0.2-1.2
			c-0.2-0.4-0.6-0.4-0.5-0.9C58.6,117.3,57.8,117.5,58.2,118.1z"/>
		<path class="st4" d="M84.8,147.9c0.1,0,0.6-0.6,0.7-0.7c0-0.5,0-1.1,0-1.6c0-0.1,0.1-0.7,0-0.8c-0.2-0.1-0.5,0.3-0.5,0.4
			c-0.1,0.3-0.3,0.7-0.3,1c0,0.3,0.2,0.5,0.1,0.8C84.7,147.3,84.5,147.9,84.8,147.9z"/>
		<path class="st4" d="M108.7,138.8c0.1-0.1,0-0.6,0.2-0.7c0.3-0.1,0.2,0.3,0.3,0.3c0.3,0,0.7-0.7,0.4-0.9c-0.4-0.4-0.7,0.1-0.9,0.4
			c-0.3-0.3,0.1-0.5,0-0.9c-0.5,0-1,0.1-1.3,0.5c-0.3,0.3,0.1,0.9,0.1,1.2c0.3-0.3,0.9-0.8,0.9-1.2c0.1,0.2,0.2,0.6,0.1,0.8
			C108.4,138.5,108.4,139,108.7,138.8z"/>
		<path class="st4" d="M108.1,139.8c0.1-0.1,0.1-0.1,0.2-0.2C108.2,139.3,108.1,139.5,108.1,139.8z"/>
		<path class="st4" d="M63.2,136.6c0,0.1-0.1,0.9,0,0.9c0.2,0.1,0.7-0.3,0.9-0.3C64.7,136.6,63.5,136,63.2,136.6z"/>
		<path class="st4" d="M110.7,140.1c-0.1-0.1-0.2-0.2-0.3-0.3C110.3,140,110.5,140.1,110.7,140.1z"/>
		<path class="st4" d="M60.8,121.9c0.1,0.2,0.2,0.1,0.3,0c0-0.1,0-0.2,0-0.3C61,121.6,60.9,121.8,60.8,121.9z"/>
		<path class="st4" d="M61,138.6c-0.2,0.3,0.3,0.3,0.5,0.2C61.5,138.5,61.2,138.3,61,138.6z"/>
	</g>
</g>
<ellipse transform="matrix(0.7071 -0.7071 0.7071 0.7071 -31.0958 75.5803)" class="st6" cx="75.7" cy="75.3" rx="70.2" ry="70.2"/>
</svg>
