<!-- Generator: Adobe Illustrator 24.2.3, SVG Export Plug-In  -->
<svg version="1.1" xmlns="http://www.w3.org/2000/svg" xmlns:xlink="http://www.w3.org/1999/xlink" x="0px" y="0px" width="60.4px"
	 height="23.8px" viewBox="0 0 60.4 23.8" style="overflow:visible;enable-background:new 0 0 60.4 23.8;" xml:space="preserve">
<style type="text/css">
	.st0{fill:#141F52;stroke:#FFFFFF;stroke-width:0.3996;stroke-linejoin:round;stroke-miterlimit:10;}
</style>
<defs>
</defs>
<path class="st0" d="M1.1,7.5c-0.3,0-0.6,0-0.9,0C0.3,7,0.6,7.3,0.9,7C1,7.2,1.1,7.4,1.1,7.5 M27.8,0.7c-0.1,0.5,0.5,0.8,0.9,0.9
	c0.2,0.1,0.6,0.3,0.7,0.3c0.3-0.1,0.7-0.3,1-0.3c0,0,0.6,0.3,0.5,0.2c0.2,0.3,0.3,0.6,0.5,0.9c0.3,0.6,0.8,0.5,1.2,0.4
	c0.5-0.2,0.8-0.2,1.4,0.2c0.3,0.2,0,0.3,0.5,0.4c0.3,0,0.6,0.1,0.9,0.1c0.6,0.1,0.9,0.3,1.5,0.5c0.5,0.2,1.3,0.4,1.8,0.3
	c1-0.3,2.3-0.7,3.3-0.4c0.3,0.1,0.5,0.1,0.8,0.2c0.3,0.2,0.3-0.1,0.7,0C44,4.6,44.5,4.3,45,4c0.4-0.2,0.7-0.5,1.1-0.7
	C46.5,3.1,46.8,3,47,2.8c0.3-0.1,0.2-0.4,0.5-0.4c0.1,0,0.5,0.2,0.7,0.2c0.3,0,0.3-0.2,0.6-0.2c0.4,0,1.1,0.3,1.4,0.2
	c0.3-0.1,0-0.3,0.3-0.5c0.3-0.2,0.5,0.1,0.6,0.3c0.3,0.4,1.3,0.5,1.3,1c0,0.5,1,0.1,1,0.5c0,0.6,1,0.6,1,1.2c0,0.2,0,0.5,0,0.8
	c0,0.2-0.2,0.3-0.2,0.4c0,0.2,0.2,0.2,0.2,0.3c0,0.7,0.5,1.1,1.1,1.3c0.6,0.2,1,0,1.6,0.3c0.5,0.2,1.1,1,1.4,1.1
	c-0.5,0.1-0.5-0.4-0.9-0.2c-0.2,0.1-0.1,0.8-0.3,1.1c-0.2,0.3-0.5,0.2-0.9,0.2c-0.3,0,0.2,0.7,0.3,0.8c0.1,0.1,0.3,0,0.3,0.2
	c0,0.1,0,0.3,0,0.4c0.1,0.2-0.1,0.3,0.1,0.4c0.2,0.1,0.4,0.2,0.4,0.4c0,0.9,0.1,1.5,0.9,1.8c-0.1,0.2-0.2,0.4-0.2,0.6
	c0,0.2-0.3,0.3-0.3,0.5c0,0.1-0.1,0.5,0,0.6c0,0,0.6,0.1,0.7,0.2c0.3,0.2,0.3,0.3,0.5,0.5c0,0.1,0.2,0.6,0.2,0.6
	c0,0.3,0,0.3,0.2,0.4c0.2,0.2,0.5,0.3,0.7,0.5c-0.2,0.1-0.2,0.3,0,0.5c-0.5-0.2-0.4-0.2-0.8,0.2c-0.3,0.2-0.6,0.7-0.9,0.3
	c-0.2-0.2,0-1-0.4-1c-0.2,0-0.2-0.2-0.4-0.2c-0.3,0.1-0.2,0.3-0.6,0.3c-0.4,0-0.7,0-1.1-0.2c-0.2-0.1-1-0.4-1.1-0.3
	c-0.2,0.1-1.1,0-1.1,0.1c-0.2,0.5-0.5,0.7-1,0.9c-0.1-0.4-0.5-1.1-0.8-0.4c-0.2,0.4-1.3,0.3-1.7,0.4C50,18.8,49.7,19,49.5,19
	c-0.2,0-0.4-0.2-0.7-0.2c-0.6,0-1.1-0.1-1.6,0.2c-1.8,0.9-4.2,2.2-6.1,0.9c-0.2-0.1-1.1-0.5-1.2-0.4c-0.5,0.4-1,0.5-1.6,0.7
	c-0.5,0.2-0.8,0.3-1.4,0.3c-0.2,0-0.5,0-0.6-0.3c-0.2-0.3-0.4-0.3-0.7-0.3c-0.3,0-0.4-0.1-0.4,0.3c0,0.2,0,0.5,0,0.8
	c0.1,0.4,0.6,1,0.1,1c-0.3,0-0.4,0.1-0.4,0.4c0,0.6-0.1,0.2-0.3,0.6c-0.1,0.1-0.2-0.1-0.2,0.1c0,0,0,0.4,0,0.4
	c-0.2,0.1-0.6-0.2-0.7-0.3c-0.1,0-0.1,0-0.2,0c0.4-0.4-0.2-1-0.4-1.4c-0.2-0.4,0.5-0.9,0.8-1.2c0.3-0.3,0-1.1-0.4-1.2
	c-0.1,0-1.2,0.7-1.2,0.8c0,1-2.3-0.1-2.8-0.3c-0.8-0.4-1.7,1.6-2.3,1.9c-0.5,0.3-0.9,0.4-1.5,0.5c-0.4,0.1-1.3,0-1.6,0.2
	c-1.1,0.6-1.9-0.8-2.5-1.5c-0.4-0.4-0.8-0.3-1.3-0.5c-0.4-0.2-1.2-0.8-1.6-0.8c-0.6,0-1.1,0-1.7-0.1c-0.5-0.1-0.3,1-0.3,1.3
	c0,0.2-0.2,0.3-0.2,0.6c0,0.2,0,0.5-0.3,0.4c-0.1,0-0.4-0.3-0.5-0.3c-0.2,0.1-0.4,0.3-0.6,0.3c-0.5,0.1-0.9,0.4-1.3,0.1
	c-0.4-0.2-1.1-0.4-1.3-0.8c-0.1-0.3-0.3-1-0.6-1.1c-0.3-0.2-0.1,0-0.4,0c-0.2,0-0.5,0.1-0.6,0C10.4,20,9.8,19.5,9.4,20
	c-0.3,0.4-1.1,0.6-0.6,0.2c-0.6,0-1.5,0.4-2,0c0.3-0.3,1-0.2,1.4-0.3c0.4-0.1,0.6-0.4,1-0.7c-0.8,0-1.6,0-2.4,0
	c-0.3,0-0.7,0.4-0.7-0.1c0-0.5,0.4-0.3,0.9-0.4c-0.1-0.2-0.2-0.4-0.3-0.5c-0.2-0.2-0.4-0.1-0.5-0.2c-0.3-0.3-0.2-0.9-0.6-1.1
	c-0.6-0.3,0.3-0.3,0.3-0.7c0-0.6-0.3-0.6-0.7-0.8c-0.4-0.2-0.6-0.4-0.9-0.6c-0.5-0.2-0.6,0.1-1-0.1c-0.1,0-0.4-0.3-0.4-0.4
	c0-0.2,0.3-0.3,0.3-0.3c0.1-0.4-0.4-0.7,0-1c0.3,0.4,0.5,0.2,0.5,0.8c0,0.4,0.4,0.7,0.3,0.1c0.3,0.4,1.1,0.1,1.4-0.2
	C5,13.8,4.6,14,4.4,13.6c-0.1-0.2-0.5-0.7-0.4-0.8c0.2-0.2,0.8-0.4,0.6-0.8c0,0-0.9-0.1-0.6-0.4c0.3-0.3-0.2-0.5-0.4-0.7
	c-0.3-0.3,0.2-0.5,0.3-0.7C4.5,9.2,3,9.7,2.5,9.9c-1,0.3-0.8-0.6-0.8-1.3c0-0.2,0-0.3,0-0.5C1.7,7.9,2,8,2.1,7.8
	c0.3-0.4,0.6-0.7,0.9-1c0.3-0.3,0.6-0.3,1.1-0.3C4.2,6.5,5,6.1,5,6.4c0,0.1,0.5,0.4,0.7,0.4c0.3-0.1,0.8-0.1,1-0.3
	C6.5,6.4,6.3,6.3,6.2,6.2c0.2,0,0.4-0.2,0.6-0.1c0.4,0.2,0,0.4,0.1,0.5c0.4,0.3,0.9,0,1.4,0c0.5,0,1.1,0,1.6,0
	c0.3,0,0.5-0.1,0.2-0.3C9.9,6,9.6,6.2,9.4,6c0.8-0.6,2-0.7,3-0.7c0.2,0-0.2-0.2-0.2-0.2c-0.3,0-0.7-0.1-1-0.1C10.9,5,10,4.5,9.9,4.3
	c0,0.1,0.2-0.7,0.2-0.7c0.2-0.2,0.4-0.2,0.7-0.2c0.6,0,1.3,0.2,1.8,0.3C13,3.9,13.5,3.6,14,3.7C14.6,3.8,15.2,4,15.9,4
	c0.7,0,0.9-0.1,1.2-0.8c0.1-0.4,1.2-0.7,1.6-0.9c0.4-0.2,0.6-0.6,1-0.8c0.6-0.3,1.1-0.2,1.7-0.4c0.4-0.1,0.8-0.5,1.3-0.5
	c0.8,0.1,1.5,0.1,2.3,0.2c0.5,0,1.1,0,1.6,0c0.6,0,0.8-0.4,1.5-0.2C27.7,0.5,27.9,0.6,27.8,0.7 M4.5,0.6C4.6,0.6,4.8,0.9,5,0.9
	c0.2,0,0.2-0.2,0.4-0.2c0.5,0,0.6-0.2,1.1,0C6,1.2,7.1,2.2,7.5,2.5C8.2,2.9,9.1,3,9.8,3.4c0.2,0.1,0,0.8-0.1,0.9
	c-0.2,0.2-1-0.1-1.2-0.1C8.2,4.1,7.7,3.9,7.4,4C6.9,4,6.7,4.3,6.2,4.3c-0.4,0-0.9-0.2-1,0.3C5.1,4.8,5,5.4,4.8,5.5
	C3.9,5.9,3.3,6.2,2.6,6.8C2.4,7.1,2.2,7.4,2,7.6C1.6,8.1,1.9,7.2,1.9,7.1c0-1,1.2-0.7,1.4-1.4c-0.5,0-1.1,0-1.6,0
	c-0.9,0-0.4-0.3-0.2-0.8c0.1-0.2,0.4-0.4,0.5-0.6c0-0.2-0.2-0.4-0.2-0.6c0-0.6,0.7-0.6,0.7-1C2.4,2,2,1.9,1.5,1.6
	C1.2,1.5,2.1,1.1,2.1,0.8c0-0.1,1-0.2,1.2-0.3C3.6,0.4,4.3-0.2,4.5,0.6"/>
</svg>
