<!-- Generator: Adobe Illustrator 24.2.3, SVG Export Plug-In  -->
<svg version="1.1" xmlns="http://www.w3.org/2000/svg" xmlns:xlink="http://www.w3.org/1999/xlink" x="0px" y="0px" width="15.5px"
	 height="20.4px" viewBox="0 0 15.5 20.4" style="overflow:visible;enable-background:new 0 0 15.5 20.4;" xml:space="preserve">
<style type="text/css">
	.st0{fill:none;stroke:#141F52;stroke-width:0.75;stroke-linecap:round;stroke-linejoin:round;}
</style>
<defs>
</defs>
<g>
	<path class="st0" d="M0.4,0.4c0.1,0,0.2,0.2,0.4,0c0.3-0.3,0.4,0.7,0.5,0.9c0.3,0.4,0.5,0.9,0.8,1.4c0.5,0.6,0.4,1,1.2,1.2
		C4,4.1,5.9,4.8,4.8,5.5c-0.3,0.2-0.2,0.4,0,0.6C5,6.4,5,6.8,5.1,7.1c0.2,0.6,0.6,1.2,1.2,1.5c0.4,0.2,0.3,0.3,0.4,0.6
		c0.1,0.1-0.1,0.3,0.1,0.3c0.1,0,0.2,0.2,0.3,0.3c0.1,0.1,0.2,0.6,0.3,0.8c0.1,0.2,0.2,0.1,0.2,0.4c0,0.2,0,0.4,0.2,0.6
		c-0.6-0.2-0.4,0.8-1.2,0.3c-0.4-0.2-0.6-0.9-1.2-0.7c-0.4,0.1-0.4,0.3-0.1,0.6c0.2,0.2,0.1,0.6,0.3,0.8C5.5,12.7,6,13,6.2,13.2
		c0.2,0.2,0.3,0.4,0.5,0.6c-0.3,0.3-0.1,0.4,0,0.6c0.2,0.3,0.2,0.5,0.3,0.8c0.1,0.3,0.2,0.4,0.2,0.8c0,0.1,0.3,0.2,0.5,0.3
		c0.1,0,0.2-0.1,0.2-0.2c-0.1-0.2,0-0.4,0.2-0.5c0.5,0.5,1.1,1.1,1.5,1.5c0.4,0.4,0.6,0.2,1.1,0.2c0.4,0,0.8,0.5,1.1,0.6
		c0.4,0.3,0.6,0,0.6,0.6c0,0.4,0.5,0.3,0.9,0.4c0.4,0.2,1.5,0.7,2,1.1"/>
</g>
</svg>
