<!-- Generator: Adobe Illustrator 24.2.3, SVG Export Plug-In  -->
<svg version="1.1" xmlns="http://www.w3.org/2000/svg" xmlns:xlink="http://www.w3.org/1999/xlink" x="0px" y="0px" width="150.8px"
	 height="150.7px" viewBox="0 0 150.8 150.7" style="overflow:visible;enable-background:new 0 0 150.8 150.7;"
	 xml:space="preserve">
<style type="text/css">
	.st0{clip-path:url(#SVGID_2_);fill:#FFFFFF;}
	.st1{clip-path:url(#SVGID_2_);}
	.st2{fill:#B3B3B3;stroke:#FFFFFF;stroke-width:0.3996;stroke-linejoin:round;stroke-miterlimit:10;}
	.st3{fill:#B3B3B3;stroke:#FFFFFF;stroke-width:0.2777;stroke-linecap:round;stroke-linejoin:round;}
	.st4{fill:#B3B3B3;}
	.st5{fill:#141F52;stroke:#FFFFFF;stroke-width:0.2777;stroke-linecap:round;stroke-linejoin:round;}
	.st6{fill:none;stroke:#FFFFFF;stroke-miterlimit:10;}
	.st7{clip-path:url(#SVGID_4_);fill:#FFFFFF;}
	.st8{clip-path:url(#SVGID_4_);}
</style>
<defs>
</defs>
<g>
	<defs>
		
			<ellipse id="SVGID_1_" transform="matrix(0.7071 -0.7071 0.7071 0.7071 -31.2114 75.4148)" cx="75.4" cy="75.4" rx="70.2" ry="70.2"/>
	</defs>
	<clipPath id="SVGID_2_">
		<use xlink:href="#SVGID_1_"  style="overflow:visible;"/>
	</clipPath>
	
		<ellipse transform="matrix(0.7071 -0.7071 0.7071 0.7071 -31.2114 75.4148)" class="st0" cx="75.4" cy="75.4" rx="70.2" ry="70.2"/>
	<g class="st1">
		<path class="st2" d="M110.5,74.3c0,0.1,0,0.1,0,0.2C110.3,74.2,110.3,73.9,110.5,74.3 M108.8,72.2c0.2,0,0.2,0,0.3,0.2
			c-0.1,0-0.2,0.1-0.3,0.2c0.5,0.3,1.2,0.3,1.6,0.8c0.3,0.3-0.3,0.4-0.4,0.6c-0.1,0.3,0.2,0.5,0.4,0.7c0.3,0.5,0.4,0.5,0.9,0.6
			c0.2,0.1,0.9,0.5,0.9,0.7c0,0.1-0.3,0.5-0.3,0.5c-0.4,0.2-0.6,0-0.9,0.2c0.2,0.1,0.4,0.2,0.6,0.3c0.3,0.1,0.3,0.3,0.5,0.5
			c0.2,0.1,1,0.8,1.2,0.8c0.4-0.2,1.3,0.2,0.7,0.5c-0.4,0.2,0.6,0.7,0.8,0.9c-0.3,0-0.7-0.1-0.7,0.2c0-0.1,0.3,0.3,0.3,0.3
			c0.1,0.2,0.2,0.4,0.2,0.7c-0.4-0.1-0.5-0.2-0.9,0c-0.3,0.1-0.4-0.1-0.4-0.4c0-0.3-0.4-0.4-0.5-0.6c0-0.1,0.2-0.3,0.2-0.3
			c-0.1-0.1-0.3-0.2-0.4-0.2c-0.5-0.3-0.3-0.9-0.8-1c-0.3,0-0.4,0.3-0.7,0.3c-0.2,0-0.5-0.4-0.7-0.5c-0.4,0.5-0.2,0-0.3-0.2
			c-0.4-0.4-0.3-0.2-0.9-0.2c-0.6,0-1.1-0.7-1.7-1c-0.6-0.3-1.1-0.1-1.7-0.3c-0.4-0.1-0.5-0.2-0.6-0.5c-0.1-0.2-0.2-0.7-0.4-0.9
			c-0.3-0.3,0.3-1.1,0-1.5c-0.2-0.3-1.5-1.2-0.6-1.2c0.3,0,0.6,0,0.9-0.1c0.2-0.1,0.3,0,0.5,0c0.2,0,0.2-0.2,0.3-0.2
			c0.3,0,0.6,0.2,0.9,0.2c0.1,0,0.2-0.2,0.4-0.2c0.2,0,0.4,0,0.6,0c-0.1-0.1-0.1-0.1-0.2-0.2c0.2,0,0.4,0,0.6,0
			C108.5,71.9,108.6,72.2,108.8,72.2 M108.5,72.7c0.1,0.1,0.1,0.1,0.2,0.2C108.7,72.6,108.6,72.4,108.5,72.7"/>
		<path class="st3" d="M16.2,43.7c0,0.4,0.4-0.1,0.7,0c0.5,0.2,0.7,0.3,1.2,0.3c0.5,0,0.7,0.6,1.3,0.5c0.3,0,0.7-0.3,1.1-0.1
			c0.4,0.2,0.8,0.2,0.9,0.6c0.1,0.5-0.3,0.6,0,1.2c0.1,0.3,0.8,0.8,0.9,1c0,0.3-0.7,0.6-0.2,1c-0.2,0-1,0.2-1.1,0.1
			c-0.3-0.6-0.5-0.1-0.8,0.1c0.2,0.1,0.6,0.1,0.7,0.3c0.1,0.2,0.1,0.6-0.1,0.6c-0.5,0-0.5,0.6-0.4,1c0,0,0.3,0.1,0.2,0.3
			c-0.1,0.3-0.2,0.1-0.4,0.2c-0.5,0.2-1,0.6-0.9,1.1c-0.2-0.1-0.6-0.2-0.8-0.1c-0.3,0.1-0.4,0.3-0.7,0.3c-0.3,0-0.5,0-0.8,0
			c-0.1,0-0.3,0-0.4,0c-0.4,0-0.1,0.1-0.2,0.2c-0.2,0.1-0.3,0.1-0.5,0.2c-0.2,0.1-0.3,0.3-0.5,0.3c-0.5,0.2-0.9,0-1.5,0
			c-0.1,0-0.4-0.1-0.6-0.2c-0.2,0-0.4,0-0.6,0c-0.5,0-1.1-0.2-1.6-0.3c-0.5-0.1-1-0.2-1.5-0.2c-0.6,0-0.9-0.2-1.3-0.7
			C8.2,51.3,8,51.3,8,51c0-0.2,0.3-0.4,0-0.5c-0.4-0.2-1.1,0.8-1.4,0.4c-0.1-0.1-1.2,0-1.4,0.2c-0.2,0.2-0.4,0.1-0.4,0.5
			c0,0.2-0.4,0.1-0.6,0.1C4,51.7,3,51.3,3,51.3c0-0.6-0.9,0.1-1.1,0.1c-0.6,0-0.6-0.7-1-0.7c-0.5,0-0.6-0.3-0.6-0.7
			c0-0.3,0.5-1-0.2-1c0.4,0.1,0.6-0.2,1-0.2c0.3,0.1,0.7,0.7,0.8,0.7c0.5,0,0.1,0.3,0.5,0.3c0.2,0,0.4-0.8,0.4-1
			c0.2,0.3,0.5,0.1,0.9,0.2C4,49,4.1,49,4.3,49.2c0.3,0.3,0.1,0.2,0.6,0.1c0.4-0.1,0.5-0.1,0.9-0.3C6.5,48.7,7.3,49,8,48.6
			c0.2-0.1-0.1-0.3,0.4-0.3c0.1,0,0.2,0.2,0.3,0.3c0.2,0.2,0.3-0.1,0.5-0.1c0.5,0,0.2,0.4,0.4,0.5c0.1,0.1,0.3-0.1,0.4,0.1
			c0.2,0.2,0.2,0,0.3-0.1c0.1-0.1,0-0.7-0.1-0.7c-0.5,0,0-0.3-0.2-0.6c-0.1-0.2-0.6-0.5-0.6-0.8c0-0.4,0.5-0.6,0.8-0.7
			c0.7-0.2,1-0.3,1-1.2c0.2,0.1,0.5,0.2,0.7,0.3c0.1-0.3,0.2-0.1,0.3-0.3c0.1-0.2,0-0.5,0-0.7c0.1,0.3,0.1,0,0.3,0.2
			c0.2,0.1,0.3,0.5,0.4,0.5c0.3,0,0.4,0.1,0.7,0.1c0.2,0.1,0.3-0.4,0.5-0.3c0.7,0.3,0.5-0.1,0.8-0.5c0.4-0.4,0.4-0.3,0.4-0.9
			C15.8,43.7,16,43.7,16.2,43.7"/>
		<path class="st2" d="M110,78.2c0.1-0.1,0.2,0,0.3-0.2c0.4,0.5,0.6,0.6,1.1,0.2c0.4-0.3,0.6,0.3,0.6,0.6c0,0.6,1,0.2,0.7,0.9
			c0,0,0.5,1,0.6,1.1c-0.6-0.2-1.4-0.2-1.9-0.5c-0.5-0.3-1-0.7-1.4-1.1c-0.2-0.2-0.4-0.4-0.6-0.6c0,0-0.7-0.8-0.7-0.7
			C108.8,77.6,110.2,77.3,110,78.2 M108.6,72.7c0,0.1,0,0.1,0,0.2C108.4,72.7,108.5,72.4,108.6,72.7 M112.7,69.8c0,0.1,0,0.1,0,0.2
			c0.4-0.5,1.2,0.4,1.5,0.7c0.5,0.4,1,1.1,1.6,1.3c0.3,0.1,0.7,0.1,1,0.2c0.3,0.1,0.5-0.7,0.6-0.9c0.1-0.2,0.6-0.3,0.8-0.5
			c0.2-0.2,0.4-0.7,0.4-0.9c1.5,0.6,2.2,2.4,3.2,3.4c0.5,0.5,1.1,1,1.7,1.2c0.5,0.1,0.6,0.1,1,0.3c0.4,0.3,0.6,0.4,0.9,0.9
			c-0.5-0.1-1.5-0.4-2-0.1c-0.4,0.2-0.6,0.2-0.6,0.7c0,0.4,0,0.8,0,1.1c-0.1,0.4-0.1,0.7-0.1,1.1c0,0.2,0.2,0.3,0.3,0.4
			c0.2,0.2-0.1,0.2-0.1,0.2c0,0.2-0.2,0.2-0.2,0.4c0,0.1,0.1,0.5,0,0.6c-0.2,0.3-0.3,0-0.7-0.2c0,0.4-0.2,0.7-0.2,1.1
			c0,0.5,0.2,1,0.3,1.5c-0.2,0-0.6,0.3-0.8,0.1c-0.3-0.3-0.6-0.4-0.9-0.7c-0.2-0.2-1.4-0.8-1.4-1c0-0.5,1.3-0.3,0.8-0.9
			c-0.3-0.3-0.6-0.1-0.6-0.5c0-0.4,0.3-0.3,0.5-0.6c-0.4-0.4-1.1-1.4-1.9-1c-0.3,0.1-0.6,0.6-0.9,0.7c-0.4,0.2-0.6,0.5-0.9,0.8
			c-0.3,0.3-0.4,0.4-0.7,0.7c-0.1,0.1-0.8,0.9-0.8,0.6c0-0.2,0-0.4-0.2-0.6c0,0-0.3-0.5-0.3-0.3c0-0.3,0.4-0.2,0.7-0.2
			c-0.2-0.3-0.9-0.5-0.9-0.9c0-0.2,0.6-0.1,0.3-0.4c-0.1-0.1-0.5-0.3-0.7-0.2c-0.4,0.2-0.8-0.4-1.2-0.6c-0.2-0.1-0.3-0.4-0.5-0.5
			c-0.3-0.1-0.5-0.2-0.8-0.3c0.2-0.2,0.4-0.2,0.8-0.2c0.4,0,0.1-0.2,0.3-0.4c0.2-0.2-0.6-0.6-0.7-0.7c-0.4-0.3-0.7-0.1-1-0.5
			c-0.2-0.2-0.5-0.4-0.5-0.7c0-0.3,0.6-0.3,0.5-0.7c-0.1-0.4-1.4-0.7-1.7-0.9c0.1,0,0.2-0.1,0.3-0.2c-0.4-0.3-1-0.2-0.4-0.8
			c0.5-0.5,0.7-0.4,1.3-0.1c0.5,0.2,0.6,0.4,1.1,0.7c0.4,0.2,0.9,0,1.4,0.3c0.4,0.2,0.9,0.2,0.9-0.4c0-0.7-0.6-0.5-1-0.9
			c-0.2-0.1-0.3-0.5-0.4-0.5c-0.2,0-0.3-0.2-0.3-0.4c0-0.1,0.3-0.2,0.4-0.3C112.2,69.6,112.5,69.5,112.7,69.8 M110.3,74.3
			c0.1,0.1,0.1,0.1,0.2,0.2C110.5,74.2,110.5,73.9,110.3,74.3"/>
		<path class="st2" d="M40.5,62.4c1.1,0,2.1,0,3.2,0.2c0.6,0.1,0.9,0.2,1.5,0c0.4-0.1,1,0.1,1.4,0.2c1.1,0.4,2.2,0.5,3-0.3
			c0.9-0.9,1.9-0.9,3.1-1.2c0.4-0.1,1,0.3,1.4,0.5c0.2,0.1,0.5,0.1,0.7,0.2c0.1,0,0.1,0.2,0.3,0.1c0.1,0,0.3-0.2,0.4-0.1
			c0,0,0.4,0.6,0.5,0.6c0.1,0.1,0.5,0.2,0.6,0.2c0.2,0,0.5,0,0.7,0c0.5,0,0.4,0,0.4,0.5c0,0.3,0,0.5-0.1,0.8
			c-0.1,0.2-0.4-0.1-0.6-0.1c-0.4,0.1-0.8,0.5-0.9,0.8c-0.1,0.4,0,1.2,0,1.7c0,0.1-0.9,0.9-1,1.1c0.6,0.2,1.7,1.2,1.9,1.9
			c-0.3-0.1-1-0.2-1.3,0.1c-0.3,0.3-0.9-0.5-1.1-0.6c-0.3-0.1-1,0.3-1.3,0.5c-0.2,0.1-0.4,0-0.6,0c-0.3,0.1,0,0.2-0.3,0.4
			c-0.1,0.1-0.5,0.2-0.6,0.3c-0.1,0,0.1,0.2-0.1,0.2c-0.1,0-0.2,0-0.3,0c-0.6,0,0.1,0.7,0.1,1c0,0.5-0.5,0.5-1,0.5
			c-0.6,0-0.9,0.1-1.4,0.3c-0.3,0.1-0.9-0.4-1.4-0.6c-0.2-0.1-0.1,0.2-0.2,0.1c-0.1,0-0.3-0.1-0.4-0.1c-0.2-0.1-0.3-0.5-0.5-0.5
			c-0.1,0-0.2,0.1-0.3,0.1C45.9,71.2,46,71,45.8,71c-0.2,0-0.5-0.1-0.7,0c-0.3,0.1,0,0.3-0.4,0.3c-0.3,0-0.5,0.2-0.9,0.2
			c-0.1,0-0.2,0.2-0.2,0.2c-0.1,0-0.2-0.2-0.3-0.2c-0.2,0-0.4,0.1-0.7,0.2c-0.2,0.1-0.3,0.2-0.6,0.2c-0.4,0-0.3-0.2-0.3-0.6
			c0-0.3,0-0.5,0.1-0.9c0.1-0.3-0.3-0.2-0.3-0.3c0-0.6-0.5-0.8-0.9-1c-0.4-0.2-0.6-0.6-0.9-1c0.2,0,0.3-0.3,0.5-0.5
			c-0.5-0.3-0.1-0.8-0.4-1.1c-0.1-0.1,0.2-0.4,0.3-0.4c0.5,0,0.4-0.1,0.7-0.4c0.2-0.2,0.2-0.4,0.3-0.5c0.3-0.3-0.1-0.3-0.3-0.4
			c-0.4-0.4-0.9-0.6-1.2-1c-0.3-0.4-0.5-0.7-0.5-1.2c0-0.4,0-0.4,0.2-0.7c0.1-0.1,0.3-0.1,0.3-0.2c0-0.1-0.1-0.3,0-0.3
			c0.4-0.3,0.8,0.1,1.3,0.3C41.2,61.7,40.4,62,40.5,62.4"/>
		<path class="st3" d="M134.7,129.4c0,0.1-0.1,0.2-0.2,0.3c-0.2-0.2-0.7-1.5-0.5-1.7C134.3,127.6,134.6,129.2,134.7,129.4"/>
		<path class="st3" d="M22.5,57.2c0.4,0.3,0.6,0.5,1.1,0.5c0.2,0,0.6-0.1,0.6,0.1c0,0.3,0.4-0.1,0.5-0.1c0.2,0,0.4,0.3,0.6,0.3
			c0.2,0,0.3-0.4,0.5-0.3c0.3,0.2,0.3,0,0.7,0c0.2,0,0.3,0.2,0.5,0.2c0.2,0,0.5,0.1,0.7,0.2c0.2,0.1,0.3,0.4,0.4,0.5
			c0.5,0.3,0.7,0,1.3,0c0.6,0,0.4,0.5,0.2,0.9c-0.2,0.5-0.3,0.6-0.3,1.2c0,0.3,2.7,1.3,0.9,1.3c-1.3,0,1.3,1.5,0.2,1.5
			c-0.4,0-0.6,0.2-1,0.2c-0.8,0-0.1,0.2-0.1,0.7c0,0.2-0.4-0.1-0.8,0.1c-0.3,0.2-0.5,0.8-0.3,1.1c-1.4-0.3,0.3,1.7-0.4,1.7
			c-0.6,0-1.8-0.9-2.2-1.3c-0.2-0.2-0.2,0.2-0.4-0.1c0,0,0.2-0.2,0.2-0.3c0-0.2-0.1,0-0.2-0.1c-0.2-0.4-0.8-0.6-1-1
			c-0.1-0.2-0.1-0.4-0.2-0.5c-0.2-0.2-0.2-0.2-0.5-0.3c-0.4-0.2-1-0.6-1.3-0.9c-0.7-0.7-1.5-1.1-1.8-2c-0.3-0.8-1.3-1.2-1.4-2
			c-0.1-0.4-0.1-1.1,0.2-1.2c0.4-0.2,0.7,0.2,1,0.5c0.5,0.5,0.5-0.1,0.9-0.3C21.6,57.4,22.1,57.7,22.5,57.2"/>
		<path class="st2" d="M49.7,18.5c0.3-0.1,0.5-0.2,0.8-0.2c0.4,0,0.3,0.5,0.7,0.5c0.3,0,0.5-0.3,0.8-0.3c0.3,0,0.8,0.3,1,0.5
			c-0.5,0.3,0.2,0.7,0.6,0.6c0.3-0.2,0.7-0.4,1-0.4c0.4,0,1.1-0.1,1.3,0.2c0.3,0.3,0.6,0.4,1,0.6c0.1,0.1,0.3-0.1,0.3,0.1
			c0,0.2,0.3,0.5,0.1,0.7c-0.4,0.4,0.4,0.6,0.4,0.9c0,0.3-0.4,0.9-0.3,1.1c0.1,0.3,0.9,0.7,1.2,0.7c-0.3,0.4-0.1,0.5,0.3,0.7
			c0.4,0.2,0.4,0.6,0.8,0.8c0.4,0.2,0.8,0.5,1.2,0.5c0.2,0,0.1,0.7-0.1,0.9c0.4,0,0.7,0,1.1,0.1c0.4,0.1,0.7,0.3,0.9,0.6
			c0.1,0.1,0.2,0.3,0.2,0.4c0.2,0.1,0.5,0.2,0.6,0.3c0.1,0.1,0.2,0,0.2,0.3c0,0.2-0.2,0-0.3,0.1c-0.2,0.2-0.3,0-0.3,0.4
			c0,0.2-0.4,0.2-0.5,0.3c-0.3,0.1-0.7,0.3-1.1,0.1c-0.4-0.2-0.3-0.3-0.8-0.3c-0.6,0-0.3,0.3-0.8,0.7c0.4,0,0.6,0.5,0.9,0.6
			c0.6,0.3-0.2,0.4,0.1,0.8c0.4,0.4,0.2,0.8,0.5,1.1c0.1,0.1,1,0.7,0.3,0.7c-0.4,0-0.8,0.2-1.2,0.2c-0.2,0-0.3-0.3-0.5-0.1
			c-0.2,0.2-0.3,0.3-0.5,0.5c-0.7,0.7-0.7,1.4-0.1,2.1c-0.6,0.2-0.6,0.1-1.1-0.2c-0.6-0.3-0.9-0.4-1.5-0.2c-0.2,0.1-0.5,0-0.7,0
			c-0.4,0-0.3,0.2-0.6,0c-0.3-0.2-0.5-1-0.9-0.6c-0.1,0.1-0.4,0.3-0.5,0.3c-0.2,0,0.1,0.4-0.3,0.3c-0.2,0-0.3-0.4-0.5-0.5
			c-0.2-0.1-0.5,0.1-0.8,0c-0.4-0.2-0.7,0-1.2,0c-0.1,0-0.1,0.3-0.3,0.3c-0.1,0-0.1-0.4-0.4-0.5c-0.2-0.1-0.5,0.2-0.7,0.2
			c-0.2,0-0.4-0.4-0.5-0.5c-0.3-0.3-1-0.1-1.4-0.2c-1-0.3-2-0.5-3.1-0.5c-0.5,0-1-0.2-1.5-0.2c-0.1,0-0.4,0.1-0.6,0.2
			c-0.2,0-0.5,0-0.8,0c-0.3,0-0.4,0.2-0.7,0.2c-0.1,0-0.1,0.3-0.3,0.5c-0.2,0.2-0.4,0.3-0.6,0.5c-0.1,0.1-0.5-0.1-0.7-0.1
			c-0.3,0-0.5-0.1-0.4,0.3c-0.2-0.3-0.3-0.8,0-1c-0.3-0.2-0.1-0.7-0.3-1c-0.3-0.4-0.7-0.3-1.1-0.5c-0.3-0.2,0.1-0.7,0.3-0.9
			c0.4-0.4,0.8-0.5,1.3-0.7c0.7-0.2-1.5-4.1-1.7-4.6c0.2,0.2,0.5,0.3,0.8,0.1c0.3-0.2,0.5,0.1,0.7,0c0.5-0.3,0.9,0.2,1.5-0.1
			c0.3-0.2,0.4,0,0.6-0.2c0.2-0.3-0.1-0.5,0.4-0.5c0.6,0,1-0.6,1.4-0.3c0.2,0.1-0.2,0.3,0.3,0.3c0.3,0,0.4,0.1,0.4-0.3
			c0-0.7-1,0.2-0.5-0.9c0.2-0.5,0-1,0.3-1.5c0.2-0.3,0.5-0.1,0.7-0.3c0.2-0.2,0.3-0.5,0.3-0.7c0.2,0,0.7,0.2,0.9,0.2
			c0.3-0.1,0.1-0.5,0.5-0.5c-0.3-0.3-0.6,0-0.9-0.2c-0.2-0.2,0-0.6,0-0.9c0-0.4,0.2-0.4,0.6-0.4c0.4,0,0.4-0.6,0.8-0.5
			c0.3,0.1,0.7,0.2,1,0.1c0.1,0,0.3,0.1,0.3-0.1c0-0.4,0.1-0.3,0.2-0.4C48.6,18.3,49.2,17.8,49.7,18.5"/>
		<path class="st3" d="M79.3,93.1c-0.4,0.3-0.8,0.7-1.2,1c-0.5,0.4-0.2,0.5,0,1c-0.3-0.4-0.8,0-0.9,0.2c-0.2-0.2-0.5-0.3-0.7,0
			c-0.1-0.1-0.1-0.5-0.2-0.5c-0.3-0.3-0.1,0-0.4,0c-0.2,0-0.4-0.2-0.5-0.1c-0.1,0-0.5,0.3-0.6,0.3c-0.2,0-0.9-0.3-0.6-0.3
			c0.6,0,0.4-0.3,0.4-0.9c0.4,0.1,0.9,0.1,1.3,0.2c0.5,0.2,0.8,0,1.3-0.1c0.9-0.2,1.5-0.8,2.4-1.1C79.6,92.9,79.5,93,79.3,93.1"/>
		<path class="st3" d="M74.7,95c0.1,0,0.3-0.2,0.4-0.2c0.1,0,0.2-0.1,0.3-0.1c0.2-0.1,0.1,0.1,0.3,0.1c0.2,0,0.5-0.1,0.6-0.1
			c0.1,0.1,0.1,0.4,0.3,0.6c0.2-0.3,0.4-0.2,0.7,0c0.2-0.6,1.5-0.1,0.7,0.2c-0.4,0.2-0.6-0.1-0.9,0.3c-0.3,0.3-0.8,0.5-1.2,0.7
			c-0.1,0.1-0.3,0-0.4,0c-0.1,0.1,0.2,0.3-0.1,0.3c-0.2,0-0.2-0.2-0.3-0.2c-0.2,0-0.1-0.2-0.3-0.1c-0.1,0.1-0.2,0.1-0.3,0.1
			c-1,0-1.4-0.9-1.6-1.7c0.4,0.4,0.6-0.3,1-0.3C74.1,94.6,74.5,94.8,74.7,95"/>
		<path class="st2" d="M14.1,37.1c0.2,0.1,0.6-0.1,0.8-0.2c0.4-0.2,0.1-0.5,0.6-0.5c0.4,0.1,0.4,0.5,0.7,0.7
			c0.1,0.1,0.7,0.1,0.9,0.2c0.7,0.2,0.9,0.6,1.6,0.4c0.3-0.1,0.6,0.1,0.6,0.5c0,0.2-0.4,0.2-0.5,0.3c0.4,0.4,0.8,0.6,1.2,1.1
			c0.1,0.2,1.1-0.3,1.2-0.5c-0.2-0.2-0.4-0.4-0.5-0.7c0.7-0.1,1.2,0.7,1.8,0.7c0.3,0,0.4-0.2,0.7-0.2c0.3,0,0,0.5-0.3,0.5
			c0.4,0.4,0.8,1,1.4,0.3c0,0.2,0.6,0.5,0.9,0.5c0.6,0,0.6,0.4,1.1,0.8c0.2,0.2,0.4,0.3,0.3,0.6c-0.1,0.3-0.1,0-0.3,0.2
			c-0.3,0.1-0.3,0-0.6,0.3c-0.1,0.1-0.3,0.3-0.3,0.3c-0.6,0.3-0.6,0.3-0.6,0.9c0,0.4-0.3,0.2-0.5,0.3c0,0-0.2,0.2-0.3,0.3
			c-0.5,0.4-0.8,0.3-1.4,0.3c-0.4,0-0.3-0.3-0.6,0.1c-0.2,0.2-0.3,0.5-0.4,0.8c-0.1-0.4-0.9-0.7-1.3-0.7c-0.6,0-1,0.4-1.6-0.1
			c-0.5-0.4-1.1-0.3-1.7-0.6c-0.3-0.1-0.4,0.1-0.6,0.1c0,0-0.5-0.3-0.6-0.3c0,0.2,0.1,0.5,0,0.7c-0.1,0.2-0.4,0.1-0.5,0.3
			c-0.1,0.1-0.2,0.5-0.3,0.5c-0.2,0-0.6-0.2-0.7-0.1c-0.3,0.3-1,0.2-1.2-0.2c-0.2-0.3-0.3-0.1-0.6-0.3c0,0,0-0.2-0.1-0.3
			c-0.1-0.1-0.3-0.2-0.4-0.3c-0.3-0.2-0.3-0.3-0.6-0.3c-0.3,0-0.2-0.1-0.3-0.3c-0.3-0.3-0.7-0.5-1-0.8c-0.4-0.4-0.8-0.2-1.1-0.6
			c-0.3-0.3-0.6-1-0.9-1c0.1-0.3,0.5-0.5,0.3-0.8c-0.3-0.3-0.6-0.4-0.8-0.7c-0.1-0.1,0-0.3-0.2-0.3C7.1,39.3,7,39.2,7,39
			c0-0.3,0.6,0.1,0.7,0.3c0.2-0.5,0.4-0.5,0.8-0.7c0.3-0.1,0.6-0.3,0.9,0c0.2-0.2,0.7-0.7,0.9-0.7c0.2,0,0.8-0.2,0.8-0.4
			c0,0,2.1-0.7,2.4-0.8c-0.2-0.1-0.4-0.2-0.5-0.3C13.4,35.8,14.2,36.7,14.1,37.1"/>
		<path class="st2" d="M51.9,108.3c0.7,0,1.6-0.5,2.3-0.3c0.9,0.2,1.7,0.3,2.6,0.5c1,0.2,1.7,0.4,2.5,1c0.1,0.1,0.1,0.2,0.3,0.2
			c0.1,0,0.5-0.2,0.7-0.1c0.4,0.4,0.5,0.5,1.1,0.5c0.9,0.1,1.7,0.2,2.5,0.8c0.7,0.4,1.4-0.3,1.9-0.6c0.3-0.2,0.7-0.5,1-0.7
			c0.4-0.2,0.7-0.1,1-0.3c0.3-0.3,0.2-0.5,0.8-0.7c0.4-0.1,0.8-0.2,1.3-0.4c-0.3,0.3-0.8,0.5-1.2,0.7c0.3,0,1.3-0.1,1.4-0.3
			c0.2-0.2,0-0.5,0.3-0.6c0.1,0,0.6,0.3,0.7,0.3c0.7,0.3,0.9,0.4,1.5,0.1c0.4-0.2,0.8,0.3,1.2,0.6c-0.4,0.1-0.6-0.3-0.9-0.5
			c0.1,0.3-0.1,0.5-0.3,0.7c0.4,0.2,1.2,0.4,1,0.9c0.3-0.1,0.5-0.3,0.7-0.5c-0.1-0.1-0.2-0.3-0.3-0.3c0.5,0,0.7,0.9,1.1,0.9
			c0.5,0,1-0.2,1.5-0.3c0.4-0.1,0.3,0.2,0.6,0.3c0.2,0,0.5-0.2,0.7-0.2c0.5,0,1.2,0,1.7-0.3c0.6-0.5,0.7-0.4,1,0.3
			c0.2,0.5,0.5,1,0.7,1.5c0.2,0.5,0.2,0.9,0.5,1.4c0.3,0.5,0.6,1,0.7,1.6c0.1,0.5,0.3,1,0.6,1.5c0.1,0.1-0.5,1-0.5,1.3
			c0,0.5,0,1.1-0.2,1.6c-0.2,0.6-0.5,1.2-0.5,1.8c0,0.5,0,1-0.3,1.5c-0.2,0.4-0.2,0.4-0.6,0.1c-0.2-0.2-0.5-0.4-0.7-0.5
			c-0.4-0.3-0.7-0.9-1.1-1.1c-0.5-0.4-0.9-0.8-1.3-1.3c-0.3-0.4-0.1-0.9-0.4-1.4c-0.2-0.4-0.7-0.8-1-1.2c-0.6-0.8-0.8-1.7-1.2-2.6
			c-0.1,0.1-0.5,1.1-0.5,1.4c0.1,0.5,0.7,0.8,0.9,1.3c0.2,0.5,0,1,0.4,1.4c0.4,0.4,0.4,0.9,0.8,1.3c0.4,0.4,0.6,0.9,1,1.3
			c0.4,0.5,0.9,0.6,1.2,1.2c0.2,0.5,0.2,1,0.4,1.5c0.2,0.5,0.7,0.8,0.9,1.3c0.2,0.6,0.3,1.2,0.4,1.8c0,0.2,0.3,0.2,0.4,0.4
			c0.2,0.3,0.3,0.7,0.5,1c0.5,1.1,1.3,2,1.8,3.1c0.5,1.1,1.1,2.2,1.7,3.2c0.5,0.9,1.2,1.7,2,2.3c0.1,0.1,0.2,0.2,0.3,0.3
			c-1.1-0.4-1,0.5-0.9,1.4c0.1,0.8,0.4,1.7,0.8,2.4c0.6,0.8,1.6,0.7,2.1,1.5c0.4,0.7,1.7,1,1.9,1.9c-4.3,0-8.5,0-12.8,0
			c-1.1,0-2.2,0-3.2,0c-0.2,0-1.5,0.1-1.5-0.1c0-0.5-0.2-0.9-0.5-0.3c-0.3,0.7-2.3,0.3-3,0.3c-1.1,0-2.2,0-3.3,0
			c-4.4,0-8.8,0-13.2,0c-0.9,0-0.9,0.1-0.9-0.9c0-0.5,0.1-1.3,0-1.8c-0.3-1.1-0.2-2.4-0.2-3.6c0-1.1-0.2-2.3-0.2-3.4
			c0-1.1-0.2-2.3-0.2-3.4c0-2.1-0.3-4.1-0.3-6.2c0-2-0.3-4-0.3-6c0-1-0.3-2-0.5-2.9c-0.2-0.7-0.9-1.9-0.7-2.6
			c0.1-0.2,0.3-0.5,0.5-0.6c0.1-0.2,0-0.5,0.1-0.6c0.2-0.5,0-1-0.1-1.5c-0.3-1-0.3-1.8,0.6-2.5C51.8,107.9,51.9,108.1,51.9,108.3"/>
		<path class="st2" d="M40,5.9c0.3,0.3,1.4,0.2,1.8,0.3c0.3,0,0.6,0.1,0.8,0.1c0.4,0,0.6,0.3,0.9,0.3c0.6,0.1,1.3,0,1.8,0.1
			c0.3,0,0.7,0.2,1,0.1c0.4-0.2,0.5-0.1,0.8,0.2c-0.7-0.1-0.7,0.8-1.1,1.4c-0.2,0.3-0.5,0.4-0.5,0.9c0,0.4,0.4,0.8,0.5,1.2
			c0.1,0.5,0.1,0.4,0.3,0.9c0,0,0.7,1.1,0.7,0.9c0,0.3-0.2,0.2-0.4,0.3c-0.3,0.1-0.2,0.1-0.3,0.3c-0.2,0.4-0.3,0.7-0.7,0.6
			c-0.3-0.1-0.6-0.2-0.9-0.1c-0.3,0-0.8,0.3-1.1,0.1c-0.8-0.4-1.3-1.1-2.1-1.3c-0.3-0.1-0.7-0.3-1-0.3c-0.3-0.1-0.1,0.2-0.3,0.2
			c-0.2,0-0.3-0.3-0.4-0.3c-0.2,0-0.4,0.3-0.5,0.3c-0.1,0-0.3,0-0.4,0c-0.4,0.1-0.7,0.4-1.1,0.3c0.3-0.6,0.3-0.8,0.3-1.4
			c0-0.2-0.3-0.3-0.5-0.3c-0.3,0,0,0.3-0.4,0.3c-0.3,0-1.2-0.3-1.3-0.6c-0.1-0.3-1.2-1-0.3-1.1C35.2,9,35.2,9,35,8.7
			c-0.2-0.3,0.1-0.2,0-0.4c0-0.2-0.2-0.1-0.2-0.3c0-0.1,0-0.2,0-0.3c0-0.4,0.1-0.1,0.3-0.3c0.4-0.2,0.7-0.2,1.2-0.2
			c-0.1-0.1-0.1-0.2-0.2-0.3c0.4,0.1,0.5-0.2,0.9-0.3c0.3-0.1,0.9-0.1,1.2-0.2C38.8,6.3,40.2,6.7,40,5.9"/>
		<path class="st2" d="M92.8,63.6c0.8,0,1.2,0.1,2,0.4c0.7,0.2,1.4,0.2,1.9,0.8c0.3,0.3,1.5,0.1,2,0.1c0.7,0,1.4,0.1,2.1,0.3
			c0.4,0.1,0.3,0.1,0.6,0.4c0.3,0.3,0.6,0.4,1,0.5c0.3,0.1,0.6,0.2,0.9,0.4c0.1,0.1,0.4,0.1,0.5,0.2c0.1,0.1-0.1,0.3,0,0.3
			c0.2,0.3,0.1,0.4,0.7,0.3c0,0,0-0.2,0.3-0.2c0.2,0,0.3-0.1,0.4-0.2c0.9-0.3,1-0.5,1.7,0.2c0.2-0.6,0.2-0.6,0.8-0.4
			c0.3,0.1,0.6,0.4,0.9,0.7c0.2,0.2,0.9,0,1.1,0c0.2,0,0,0.9,0.1,1c0.2,0.5,1.2,0.9,1.8,0.9c0.2,0,0.9,0.3,0.7,0.6
			c-0.2,0.4-0.5,0.4-0.5,0.8c0,0.2,0.3,0.1,0.3,0.2c0.1,0.2,0.2,0.4,0.3,0.5c0.4,0.3,0.9,0.1,1,0.7c0.3,1.2-1.2,0.3-1.6,0.3
			c-0.9,0-1.2-0.5-2-0.8c-0.5-0.2-0.6-0.3-1,0.1c-0.4,0.4-0.5,0.4-1.1,0.4c0.1,0.1,0.1,0.1,0.2,0.2c-0.2,0-0.4,0-0.6,0
			c-0.2,0-0.3,0.2-0.4,0.2c-0.3,0-0.7-0.2-1-0.2c-0.1,0-0.2,0.2-0.4,0.2c-0.3,0-0.4,0.1-0.6,0.2c-0.3,0-0.8-0.1-1,0.2
			c-0.1-0.5-1-0.1-1-0.8c0-0.2-1.5-1.1-1.6-1.1c-0.4,0-0.4,0.5-0.5,0.5c-0.4,0-0.6-0.1-0.9-0.2c-0.1,0-0.3,0-0.4,0
			c-0.3,0-0.4,0.2-0.6,0.2c-0.4,0-0.7-0.2-1-0.2c0.7-0.9,0.7-1.5,0-2.3c-0.5-0.7-0.5-1.8-1.2-2.3c-0.4-0.3-0.8-0.3-1.1-0.6
			c-0.3-0.3-0.6-0.5-1.1-0.6c-1-0.2-1.8-0.7-2.6-1.3C92.2,63.6,92.2,63.4,92.8,63.6"/>
		<path class="st4" d="M46.5,93.3c0.2,0,0.7,0.1,0.7-0.1c0-0.1,0.3-0.2,0.3-0.1c0.1,0.1-0.1,0.4-0.2,0.3c0.3,0.2,0.5,0.1,0.5,0.4
			c0,0.2,0.5,0.1,0.6,0.1c0.3,0,0.5-0.2,0.8-0.2c0.5,0,0.7,0.1,1.1,0.2c0.7,0.2,1.3,0.2,2,0c0,0.3-0.1,1.3,0.4,0.8
			c0.3-0.3,0.5-0.3,0.9-0.3c0.2,0,0.3-0.3,0.6-0.3c-0.3,0.2,0,0.9-0.3,1.1c-0.5,0.3-1-0.1-1.5,0c-0.6,0.1-2.6,0.7-3.1,0.2
			c-0.1-0.1,0-0.4-0.2-0.5c-0.3-0.1-0.5-0.2-0.8-0.3c-0.5-0.1-1.1-0.2-1.6-0.2c-0.3,0-1.1,0.1-1.3-0.2c-0.1-0.2-0.2-1.4,0.3-0.9
			c0.1-0.1,0.2-0.5,0.2-0.5C46.3,92.8,46.3,93.2,46.5,93.3 M56.9,93.6c-0.1,0.1-0.1,0.1-0.2,0.2c0.1-0.6-0.3-1,0.2-1.5
			c0.1,0.5-0.4,0.8,0.2,1.2C57,93.5,56.9,93.6,56.9,93.6 M43.8,90.9c0,0.1,0,0.1,0,0.2c-0.5-0.1-0.3-0.5-0.3-0.9
			C43.6,90.4,44.1,90.6,43.8,90.9 M58.7,91.9c-0.3,0.1-0.2,0-0.3-0.2c0,0-0.2-0.7-0.2-0.7c0.1-0.5,0.6-0.7,1-0.9
			c0.7-0.3,0.6,0.1,0.3,0.6c-0.1,0.1-0.1,0.6-0.2,0.6C59,91.4,58.9,91.6,58.7,91.9 M51.2,90c0,0.1-0.1,0.2-0.2,0.3
			c-0.1-0.1-0.1-0.1-0.2-0.2c0.2-0.1,0.1,0,0.2-0.3C51.1,89.9,51.2,90,51.2,90 M54.3,89.4c-0.2,0.1-0.4,0.2-0.5,0.3
			C53.4,89.4,54.1,89.1,54.3,89.4 M58.6,89.5C58.2,89.2,58.6,89,58.6,89.5 M48.2,88.7c0.1,0.4-0.2,0.4-0.5,0.5
			C47.5,88.7,48,89,48.2,88.7 M50.9,89c0,0.1,0,0.1,0,0.2c-0.2-0.2-0.3-0.3-0.5-0.5C50.6,88.7,50.9,88.8,50.9,89 M55.7,88.8
			c0-0.3,0.9-0.8,1.2-0.5c-0.1,0-0.3,0.1-0.4,0.1c-0.1,0,0,0.2-0.1,0.2C56.1,88.8,55.9,88.7,55.7,88.8 M52.3,88.7
			c-0.1,0-0.2,0-0.3,0c0.3-0.2,0.8-0.6,1-0.5C52.7,88.3,52.4,88.5,52.3,88.7 M48.7,88.2C48.1,87.7,49.1,87.8,48.7,88.2 M55.8,88
			c-0.4,0.1-0.3-0.2-0.5-0.5C55.6,87.6,55.8,87.7,55.8,88 M50.4,87.7c-0.2,0.3-0.6,0.2-0.3-0.2C50.3,87.2,50.4,87.3,50.4,87.7
			 M51.2,88c-0.1,0.2-0.4,0.2-0.5,0c-0.1-0.2,0.1-0.5,0.2-0.7C51.3,86.8,51.5,87.6,51.2,88 M48,87.3c0,0.1,0,0.1,0,0.2
			c-0.3-0.3-0.1-0.5,0.2-0.2C48.1,87.3,48.1,87.3,48,87.3 M47.7,86.6c-0.1,0-0.1,0-0.2,0c0.1-0.1,0.1-0.1,0.2-0.2
			C47.1,86,48.2,86.1,47.7,86.6 M49.2,86c0,0.2,0,0.3,0,0.5c-0.1-0.1-0.1-0.2-0.2-0.3C49.1,86.1,49.1,86,49.2,86 M50.7,86.3
			c-0.5,0.1-0.4-0.6,0.2-0.2C50.8,86.2,50.8,86.2,50.7,86.3 M52.6,86c-0.7-0.1,0.8-0.6,0.9-0.7C53.3,85.7,53,85.8,52.6,86
			 M50.2,85.6c-0.2,0.3-0.9,0.1-0.9-0.3C49.4,85.2,50.1,85.5,50.2,85.6 M47.3,85.8c-0.1,0.1-0.1,0.1-0.2,0.2
			C47,85.2,47.8,85.1,47.3,85.8 M55,84.8c0.3,0.2,0.6,0.1,0.7,0.5c-0.2,0-0.4,0.1-0.6,0.1c-0.3,0.1-0.3-0.1-0.5-0.1
			C53.8,85.3,54.5,84.7,55,84.8 M36.6,84.9c0.1,0.1,0.2,0.2,0.3,0.3c-0.1-0.1-0.1-0.1-0.2-0.2c-0.5,0.8-0.6-0.4-1-0.3
			c0.1-0.1,0.2-0.3,0.3-0.3C36.1,84.7,36.4,84.8,36.6,84.9 M49.4,85.1c-0.1,0.1-0.1,0.1-0.2,0.2c-0.1-0.4-0.4-0.4-0.6-0.6
			c0,0-0.6-0.4-0.2-0.4c0,0,0.8,0.2,0.8,0.2C49.4,84.6,49.1,84.9,49.4,85.1 M44.8,84.4c-0.1,0-0.2,0-0.3,0
			C44.6,84.2,44.7,84.2,44.8,84.4 M35.6,82.7c0.2,0.4,0.8,0.7,0.7,1.2c-0.2-0.1-0.7-0.1-0.9-0.2c0,0-0.1-0.5-0.2-0.5
			c-0.4,0.4-0.4,0-0.2-0.3c0.2-0.2,0.5,0.1,0.3-0.5C35.5,82.5,35.5,82.6,35.6,82.7 M36.1,82.9c-0.3,0-0.3-0.3-0.5-0.5
			C36,82.3,35.9,82.7,36.1,82.9 M52.4,83.4c-0.2,0.3-0.5-0.1-0.7-0.3c0.3,0.1,0.5-0.2,0.3-0.5c-0.1-0.3-0.9-0.4-0.3-0.6
			C52.7,81.7,52.9,83,52.4,83.4 M35.7,81.9c-0.1,0.1-0.2,0-0.3,0.2c0-0.2-0.1-0.9,0.2-1C36,80.8,36,81.7,35.7,81.9 M48,81.2
			c-0.2,0-0.3,0-0.5,0c0.1-0.1,0.1-0.1,0.2-0.2c-0.3,0-0.4-0.2-0.3-0.5C47.6,80.7,47.8,81,48,81.2 M44.1,80.5c0.3,0.8,0.7,0.8,1.5,1
			c0.3,0.1,0.7,0.1,0.9,0.4c0.2,0.3,0,0.6,0.1,0.9c0.1,0.2,0.4,0.7,0.6,0.7c0.2,0,0.8-0.1,0.8,0.3c0,0.8-1.1,0.1-1.4-0.3
			c-0.1-0.2-0.2-0.6-0.4-0.8c-0.2-0.2-0.6,0-0.9-0.1C45,82.6,44.8,82,44.7,82c-0.2,0-0.6-0.5-0.7-0.6c-0.2-0.2-1.6-0.7-1.6-0.5
			c0-0.1,0.7-0.5,0.8-0.6C43.4,80.2,43.9,80.4,44.1,80.5 M45.1,80c-0.1,0.1-0.1,0.1-0.2,0.2c-0.2-0.2-0.3-0.3-0.5-0.5
			C44.7,79.8,44.9,79.9,45.1,80 M45.5,79.8c-0.1,0-0.1,0-0.2,0c0.1-0.1,0.2-0.2,0.3-0.3C45.6,79.7,45.6,79.7,45.5,79.8 M53.1,79.1
			c-0.4,0.4,0.4,0.7,0.7,1c-0.2,0.2-0.1,0.2-0.3,0c0.1,0.1,0,0.2,0.2,0.3c-0.3,0-1.3,0-1.4-0.3c0-0.1,0.5-0.3,0.3-0.5
			C52.4,79.5,52.2,80,52,80c-0.1,0-0.6-0.1-0.6-0.2c0-0.5,0.3-0.3,0.5-0.4C52.3,79.1,52.6,78.8,53.1,79.1 M33.7,78.8
			c0,0.1,0,0.1,0,0.2c-0.6-0.3-0.8-0.6-1.2-1.1c-0.4-0.4,0.4-0.6,0.7-0.3c-0.1,0.1-0.2,0.3-0.3,0.3C33.4,78,33.1,78.8,33.7,78.8
			 M49.9,76.8c-0.2,0.1-0.2,0.7-0.3,0.7c-0.4,0-0.1-0.3-0.4-0.3c0,0-0.4,0.4-0.5,0c-0.2-0.5,0.5-0.4,0.7-0.2
			C49.5,76.7,49.8,76.4,49.9,76.8 M50.4,75c-0.3,0.3-0.5,0.1-0.7-0.2C50,74.6,50.2,74.8,50.4,75 M47.5,74.4c-0.1,0.1-0.6,0.3-0.7,0
			c-0.1-0.2,0.2-0.5,0.2-0.7C47.3,73.8,47.6,74,47.5,74.4 M52.6,71.6c-0.2,0.2-0.5,0.4-0.5,0.6c0,0.3,0.2,0.5,0.2,0.7
			c0,0.2-0.4,0.5-0.5,0.7c-0.2,0.4-0.3,0.4-0.6,0.2c-0.6-0.4-1.2-0.4-1.9-0.6c-0.7-0.3-1.1,0-1.7,0.3c-0.6,0.3-0.7-0.7-1.4,0
			C46,73.7,45.7,74,45.5,74c-0.2,0-0.8-0.4-1-0.2c-0.2,0.2,0.2,0.5,0.3,0.7c0.2,0.2-0.1,0.7,0.3,0.7c0.5,0,1.3,0.3,1.4,0.9
			c-0.4-0.2-1-0.7-1.4-0.7c-0.1,0-0.6-0.1-0.6,0.1c0,0.2,0.4,0.5,0.6,0.6c0.5,0.2,0.6,1.1-0.1,0.6c-0.2-0.2-0.3-0.5-0.5-0.7
			c-0.2-0.1-0.6-0.1-0.8-0.2c0,0.6,0.4,0.9,0.8,1.2c-0.2,0-0.8,0-0.9-0.3c-0.1-0.3-0.2-0.7-0.5-0.9c-0.5-0.2-1.7-0.6-1-1.3
			c-0.8-0.1-0.9,0.5-0.9,1.1c0,0.4-0.2,0.5,0,0.9c0.1,0.3,0.6,0.6,0.8,0.8c0.3,0.3,0,0.6,0.5,0.8c0.3,0.1,0.5,0.4,0.7,0.6
			c0.4,0.4,0.9,1.3-0.1,1.1c0.4-0.5-0.3-1.1-0.6-0.8c-0.3,0.3-0.2,0.2-0.1,0.6c0.1,0.2,0.3,0.5,0.5,0.5c-0.4,0.5-0.8,0.5-1.4,0.5
			c0.2,0.2,0.6,0.3,0.9,0.4c0.4,0.1,0.7,0.5,1,0.5c0.5,0,1.2,1.2,1.7,1.2c1.1,0,0.9,0.8,1.2,1.6c0.4,1.1-0.4,0.7-0.9,0.1
			c-0.2-0.2-0.4-0.5-0.7-0.6c-0.2,0-0.2,0.1-0.3,0.2c-0.2,0-0.5,0-0.7,0c-0.6,0.1-0.4,0.2-0.3,0.5c0,0.1,0.3,0.9,0.4,0.9
			c0.4,0,0.5,0.1,0.8,0.4c0.4,0.4-0.5,0.3-0.7,0.5c-0.3,0.3-0.5-0.3-0.7-0.4C43,86,42.6,86,42.6,85.6c-0.5,0.4,0.6,1.7,0.8,2.2
			c0.1,0.2,0.4,0.8,0.3,1c-0.2,0.6,0.2,0.6,0.4,1.1c-0.2-0.1-0.5-0.1-0.6-0.3c-0.2-0.2-0.5-0.7-0.7-0.8c-1-0.4-0.4,1.2-0.9,1.2
			c-0.3,0-0.3-0.7-0.3-0.9c-0.1-0.3-0.4-0.6-0.7-0.9c-0.1-0.1-0.4-0.5-0.7-0.3c-0.1,0.1,0,0.8-0.2,1c-0.3-0.3-0.9-0.9-1-1.4
			c0-0.3,0.1-0.4,0.2-0.7c0.2-0.2-0.1-0.4-0.2-0.7c-0.3-0.6-0.8-0.6-1-1.1c-0.1-0.2-0.5-0.2-0.5-0.3c0-0.3,0.2-0.4,0.5-0.6
			c0.2-0.1,0.1-0.6,0.2-0.7c0.2-0.1,0.5,0.2,0.8,0.2c0.2,0,0.2-0.6,0.4-0.7c0.3-0.1,0.6,0.1,0.8,0.2c0.5,0.3,1,0.5,1.6,0.7
			c0.3,0.1,0.6,0.4,0.8,0.5c0.4,0.1,0.4-0.1,0.2-0.3c0.3,0,0.9,0.1,0.9-0.3c0-0.4-0.5-0.2-0.8-0.3c-0.3-0.2-0.7-0.3-1-0.4
			c-0.2-0.1-0.4-0.2-0.5-0.3c-0.2-0.1-0.3,0.3-0.4,0.3c-0.4,0.1-0.7-0.3-1-0.3c-0.4,0-0.7,0.3-1.1,0.3c-0.1,0-0.4,0.1-0.5-0.1
			c0,0-0.4-0.5-0.3-0.5c-0.3-0.1-0.1,0.7-0.6,0.5c-0.4-0.2-0.4-0.7-0.6-1.1c-0.1-0.4-0.6-0.5-0.8-0.7c-0.3-0.6,0.2-0.4,0.7-0.3
			c0.5,0.1,0.5-0.3,0.1-0.5c-0.3-0.1-0.7,0.1-1,0c0,0-0.3-0.3-0.3-0.4c-0.2-0.1-0.3-0.3-0.5-0.4c-0.4-0.4-0.6-0.4-0.8-0.9
			c-0.2-0.3-0.4-0.7-0.8-0.9c0.3,0,0.9,0.5,0.9-0.1c0-0.3,0-0.3,0.3-0.3c0.3,0-0.2-0.4-0.3-0.5c0-0.3,0.4-0.4,0.7-0.5
			c0.5-0.3,0.3-0.5,0.5-1c0.1-0.2,0.2-0.4,0.3-0.5c0-0.1,0.3,0.1,0.3,0c0.1-0.1,0-0.3,0-0.3c0.2-0.4,0.1-0.1,0-0.5
			c-0.1-0.3-0.4-0.5,0.1-0.5c0.3,0,0.6,0,0.9,0c0.2,0,0.2-0.3,0.5-0.1c0.5,0.3,0.9-0.5,1.3-0.7c0.2-0.1,0.5-0.1,0.6-0.3
			c0-0.1,0.5,0.1,0.7,0.1c0.6,0,1.1,0.1,1.1-0.6c0-0.1,0.9-0.1,1.1-0.1c0.2,0,0.5-0.3,0.7-0.3c0.3-0.1,0.5,0.2,0.7,0.1
			c0.2-0.2,1-0.1,1.3-0.3c0.4-0.2,0-0.3,0.6-0.3c0.3,0,0.3,0.2,0.7,0c0.3-0.1,0.7,0.6,1.1,0.6c0.1,0,0.1-0.2,0.2-0.1
			c0.1,0,0.3,0.1,0.4,0.1c0.2,0.1,0.5,0.5,0.7,0.5c0.3,0.1,0.6-0.3,0.9-0.3c0.3-0.1,0.6,0,0.8,0c0.7,0,1.3-0.1,0.9-0.9
			c0-0.1-0.4-0.6-0.1-0.6c0.4,0,0.6,0,0.9,0.2C52.4,70.6,53.3,71.6,52.6,71.6"/>
		<path class="st3" d="M25.2,66.4c0.2,0.1,0.3,0.2,0.5,0.3c-0.4-0.1-0.8-0.2-1.2-0.3C24.7,66.4,25,66.4,25.2,66.4 M22.3,65.7
			c0.6,0,1.2-0.1,1.7,0.2C23.3,65.9,22.8,66.1,22.3,65.7 M24,65.5c0.5,0.2,1,0.5,1.5,0.7c0-0.1-0.3-0.4,0-0.3c0.1,0,0.2,0.3,0.3,0.3
			c0.3,0.2,0.6,0.3,0.8,0.5c0.2,0.1,0.7,0.2,0.9,0.3c0.2,0.2,0.2,0.5,0.5,0.7c-0.8-0.4-1.4-0.9-2.2-1.3c-0.7-0.4-1.6-0.7-2.4-0.9
			C23.7,65.5,23.8,65.5,24,65.5 M23.8,65.2c-0.9,0-1.5-0.1-2.4-0.3c0.2,0,0.4,0,0.6,0c0.2,0,0.3,0.2,0.5,0.2
			C22.9,65,23.5,64.9,23.8,65.2 M22.6,64.7c-0.4,0.1-1,0-1-0.4c0-0.3,1.2,0.1,1.4,0.3C22.8,64.5,22.8,64.6,22.6,64.7 M18.2,61.9
			c0.1,0.1,0.1,0.2,0.2,0.3c-0.2,0-0.4-0.2-0.5-0.3C18,61.9,18.1,61.9,18.2,61.9 M17.7,61.6c0.1,0.1,0.1,0.1,0.2,0.2
			c-0.4-0.1-0.5-0.2-0.7-0.5C17.4,61.4,17.5,61.5,17.7,61.6 M17.7,62.3c-0.4,0-1-0.7-1-1C17.1,61.4,17.4,61.9,17.7,62.3 M17.5,60.7
			c-0.5-0.5-0.9-0.9-1.4-1.4c0.5,0.4,1,0.7,1.5,1.2C17.6,60.6,17.6,60.7,17.5,60.7 M16.3,59c0.1,0.1,0.1,0.1,0.2,0.2
			c-0.2,0.1-0.5-0.1-0.7-0.2c0.1-0.1,0.1-0.2,0.2-0.3C16.1,58.8,16.2,58.9,16.3,59 M15.5,59.6c-0.3,0-0.8-1.2-0.5-1.2
			c-0.2-0.2-0.3-0.4-0.3-0.7c0.5-0.1,0.2,0.4,0.6,0.6C15.5,58.5,15.2,59.3,15.5,59.6 M16.3,58.4c-0.3,0-0.9-0.1-1-0.3
			c-0.1-0.1-0.2,0.1-0.2-0.2c0-0.1,0.3-0.4,0.3-0.5C15.8,57.7,16,58.1,16.3,58.4 M21.6,53.1c0.4,0.1,0.4,0.4,0.7,0.7
			c0.3,0.3,0.6,0.3,0.9,0.5c0.3,0.2,0.2,0.5,0.8,0.5c0.3,0,0.4,0.3,0.6,0.3c0.7,0.4,1.2,0.3,2,0.3c0.3,0,0.5-0.1,0.8-0.3
			c0.3-0.3,0.6,0,0.9-0.3c0,0.3,0,0.2-0.2,0.3c0.2,0.3,0.2,0.7,0.3,1c0.1,0.1,0.3,0.2,0.3,0.3c0.1,0.2,0,0.3,0.2,0.5
			c0,0,1,0.3,0.9,0.3c0.3,0-0.1,0.3-0.2,0.3c-0.2,0.1-0.4,0-0.6-0.1c-0.1,0.1-0.1,0.1-0.2,0.2c0.1,0.3,0.3,1-0.1,1
			c-0.6,0-0.6-0.4-1.1-0.7c-0.3-0.2-0.9-0.3-1.2-0.3c-0.1,0-0.2,0.2-0.3,0.2c-0.1,0-0.3-0.2-0.3-0.2c-0.2,0.1-0.3,0.5-0.6,0.3
			c-0.3-0.2-0.4-0.3-0.7-0.2c-0.3,0.2-0.2-0.1-0.3-0.1c-0.7,0-0.9,0-1.4-0.4c-0.3-0.3-0.2,0.1-0.5,0.2c-0.2,0.1-0.6-0.1-0.9,0
			c-0.4,0.2-0.5,1-1.1,0.5c-0.4-0.4-0.5-0.5-1.1-0.5c-0.1,0-0.2,1.3-0.1,1.5c0.2,0.3,0.9,0.7,1.1,0.9c0.3,0.3,0.3,1,0.7,1.4
			c0.3,0.3,0.6,0.6,1,1c0.4,0.4,0.8,0.7,1.3,1.1c0.3,0.2,0.4,0.3,0.8,0.4c0.2,0.1,0,0.4,0.1,0.5c0.2,0.5,0.9,0.7,1.2,1.2
			c0.1,0.1,0.3,0.1,0,0.3c-0.6-0.6-1.4-0.9-2.1-1.6c-0.5-0.5-1.8-0.8-2.4-0.5c-0.4,0.2-0.4-0.3-0.6-0.5c-0.1-0.2-0.1-0.2-0.4-0.3
			c-0.2-0.1-0.4-0.2-0.5-0.3c-0.6-0.4-1.5-1-1.8-1.7c0.3,0,0.7,0,1,0c-0.6-0.8-1.7-0.9-1.9-2c-0.1-0.6,0-0.9-0.5-1.3
			c-0.3-0.2-1-0.9-1.4-0.6c0,0-0.9,2.5-1.2,1.8c-0.2-0.5-1.5-2-0.8-2.5c0,0.3,0.5,0.3,0.8,0.3c0.4,0.1,0.1-0.3,0.4-0.3
			c0,0,0.3,0.2,0.4,0.2c0.2,0,0.3,0,0.5,0c0.4,0,0.3-0.7,0.7-0.7c0,0,0.4,0.4,0.6,0.5c0.4,0.2,0.5,0,0.8,0.2
			c0.2,0.1,0.9,0.2,0.9-0.1c0-0.2-0.4-0.3,0-0.6c-0.5-0.4,0.4-0.7,0.8-0.7c0.4,0-0.1-0.9-0.3-1c0.2-0.4,0.5-0.3,0.9-0.5
			c0.3-0.2,0.7-0.7,1-0.3C19.9,52.1,21.1,52.7,21.6,53.1"/>
		<path class="st2" d="M34.7,45.4c0.2,0,0.6,0.5,0.8,0.6c0.2,0.2,0.9-0.4,1.3-0.3c0.3,0.1,0.1,0.1,0.3,0.3c0.2,0.2,0.2,0.2,0.3,0.3
			c0.2,0.2,0.4,0,0.6,0.3c0.1,0.2,0.4,0.3,0.6,0.1c0,0.4,0.3,0.2,0.3,0.5c0,0.3-0.3,0.5-0.5,0.7c-0.3,0.2-0.4,0.2-0.8,0.2
			c-0.4,0-0.5,0.4-0.7,0.6c-0.2,0.2-0.3,0.8-0.3,0.8c-0.3,0-0.3,0.6-0.4,0.8c-0.1,0.3-0.4,0.3-0.4,0.7c0,0.3-0.3,0.8-0.5,0.9
			c0.1,0.1,0.1,0.1,0.2,0.2c-0.2,0.2-1.1,0.6-0.5,1c-0.5-0.1-0.2,0.2-0.4,0.4c-0.2,0.2-0.7,0.1-1,0.1c-0.1,0-0.2,0.5-0.3,0.5
			c-0.1,0-0.3-0.1-0.4-0.1c-0.2-0.1-0.5,0.1-0.7,0.1c-0.7,0.2-1.3-0.2-1.9-0.2c-0.2,0-0.3-0.1-0.4,0.1c-0.1,0.2-0.2,0.4-0.4,0.4
			c-0.3,0-0.5,0.4-0.8,0c-0.2,0.5-0.6,0.3-1,0.5c-0.4,0.2-0.7,0.5-1.1,0.5c-0.5,0-1,0-1.5-0.1c-0.5-0.2-0.7-0.5-1.2-0.5
			c-0.3,0-0.4-0.2-0.6-0.4c-0.1-0.2-0.4-0.3-0.6-0.4c-0.2-0.1-0.4-0.3-0.5-0.5c-0.2-0.3-0.4-0.4-0.6-0.5c-0.3-0.2-1-0.4-1-0.8
			c0-0.4-0.4-0.9-0.9-0.8c0.1-0.1,0.3-0.3,0.4-0.4c0,0,0.6-0.1,0.6-0.1c0.2-0.2-0.2-0.7-0.2-0.9c-0.1-0.7,0.2-0.3,0.5-0.7
			c0.5-0.5-0.2-0.7-0.7-0.9c0.2-0.1,0.6-0.6,0.7-0.3c0.2,0.4,0.7,0.1,1.1,0.1c-0.5-0.4,0.1-1,0.6-1c0.3,0,0.6,0.3,0.8,0.5
			c0.3,0.3,0.7,0.3,1.1,0.3c0.7,0,1.4,0.1,2.1-0.1c0.6-0.2,0.1-0.3,0.2-0.6c0.2-0.3,0.7-0.4,1-0.4c0.3-0.1,0.7-0.1,1-0.3
			c0.1,0,0-0.3,0.2-0.3c0.2,0,0.3,0.1,0.4,0.1c0.2,0.1,0.5,0.3,0.8,0.2c0.1,0,1-0.4,1-0.5c0.2-0.2,0.1-0.8,0.4-0.9
			c0.4-0.1,0.7-0.2,1.1-0.1c0.3,0.1,0.5,0.2,0.9,0.2C34.1,45.4,34.4,45.1,34.7,45.4"/>
		<path class="st2" d="M148.5,84.2c0-0.3,0-0.4-0.2-0.6c-0.4-0.4-1,0-1.4-0.2c-0.4-0.2-0.9-0.1-1.4-0.1c-0.3,0-0.3,0.4-0.3,0.6
			c0,0.1-0.3,0.1-0.4,0.1c-0.6,0-1.1-0.2-1.7-0.2c-0.4,0-1.1,0.4-1.4,0.7c-0.5,0.4-0.5,0.6-0.6,1.2c-0.2,0.9-1.8,1-2.6,1
			c0.3,0.4,0.7,1,0.7,1.5c0,0.5-0.6,0.5-1,0.2c0.3,0.1,0.5,0,0.7-0.2c-0.5,0-1,0.1-1.5,0.2c-1.2,0.2-2.4,0.6-3.6,0.8
			c-1.2,0.3-2.2,0-3.4-0.3c-0.4-0.1-1-0.6-1.4-0.8c-0.4-0.2-1-0.5-1.3-0.9c-0.4-0.5-0.7-1-1.3-1.1c-0.5-0.1-1.1,0-1.7-0.2
			c-0.9-0.2-1.8-0.9-2.1-1.9c-0.1-0.3,0-1.3-0.3-1.5c-0.2-0.1-0.5,0.2-0.7,0.2c-0.1,0-0.6-0.5-0.7-0.5c-0.4-0.3-0.8-0.6-1.2-0.9
			c-0.1-0.1-0.5-0.3-0.5-0.3c0-0.2,0.3-0.4,0.4-0.4c0.8,0,0.3-0.5-0.2-0.7c-0.5-0.2,0.3-0.8,0.4-0.9c-0.3-0.3-0.7-0.9-1.2-1
			c-0.7-0.2-0.8,0.3-1.3,0.6c-0.5,0.3-0.8,0.6-1.3,1c-0.1,0.1-0.1,0.3-0.3,0.3c-0.2,0-0.2,0-0.3,0.1c-0.1,0.3-0.3,0.4-0.5,0.7
			c-0.3,0.3-0.3,0.3-0.7,0.2c-0.3-0.1-0.4,0.1-0.8,0.1c-0.5,0-1.2-0.2-1.7-0.3c-0.4-0.1-0.8-0.7-1.2-0.9c-0.4-0.2-0.7-0.5-1-0.9
			c-0.4-0.5-1.5-1.8-1.7-0.7c-0.1,0.6,0,0.9-0.6,0.9c-0.1,0-0.6,0-0.6,0c-0.1,0.1,0.2,0.3,0.2,0.4c0,0.2,0.3,0.4,0.4,0.4
			c0.2,0,0,0.2,0.1,0.3c0,0.1-0.1,0.4,0,0.5c0.1,0.1,0.4,0.2,0.5,0.3c0.1,0.2,0,0.5,0,0.7c0,0.2,0.2,0.3,0.2,0.6
			c0,0.4,0.3,0.5,0.7,0.6c-0.2,0.2-0.1,0.5-0.2,0.7c-0.1,0.3-0.3,0.2-0.3,0.6c0,0.6,0.4,0.4,0.9,0.7c0.4,0.3,0.3,0.6,0.5,1.1
			c0.2,0.4-0.1,0.2,0.3,0.4c0.2,0.1,0.4,0.3,0.6,0.5c-0.3,0.2,0.2,1,0.3,1.4c0.1,0.2,0.1,0.3,0.2,0.5c0,0.1,0.1,0,0.2,0
			c0.1,0.1,0.3,0.2,0.3,0.4c0,0.5,0.2,0.7,0.5,0.9c0.4,0.3,0.5,0.5,0.7,1.1c0.2,0.5,0.6,0.5,1,0.7c0.5,0.3,0.5,0.4,1.1,0.4
			c0.4,0,1.3,0,0.8,0.3c-0.4,0.3-0.9,0.3-0.6,0.9c0.2,0.4,0.5,0.5,0.6,0.9c0.1,0.3,0.4,0.2-0.1,0.5c-0.1,0.1-0.4,0.1-0.5,0.3
			c-0.5,0.6-0.7,0.7-0.5,1.4c0.2,0.5-0.5,0-0.5,0.5c0,0.3-0.2,0.3,0,0.6c0.1,0.1,0.4,0.4,0.4,0.6c0,0.3-0.1,0.4-0.2,0.7
			c-0.2,0.4,0,0.1,0.2,0.4c0.3,0.4,0.6,0.8,1,1.1c-0.1-0.1,1.1-0.1,0.4,0.4c0.4,0.1,1,0.7,1,1.1c0,0.2-0.1,0.9,0.3,0.9
			c1.1,0,1.7,0.8,2.6,1.3c0.2,0.1,0.4,0.3,0.6,0.5c0.3,0.3,0.3-0.1,0.6,0c0.4,0.1,0.7,0.9,0.8,1.1c0.2,0.3,0.6,0.8,0.8,1
			c0.5,0.5,0.4,0.6,0.2,1.2c-0.1,0.6-0.1,1,0,1.7c0,0.2-0.1,0.6,0.1,0.6c0.2,0,0.4,0,0.7,0c0.5,0,0.4,0,0.4,0.4
			c0,0.3,0.1,0.5,0.2,0.8c0,0.2-0.1,0.6,0.1,0.8c0.2,0.2,0.4,0.2,0.5,0.3c0.4,0.4,0.6,0.2,0.8,0.8c0.1,0.4,0.2,0.9,0.8,0.6
			c0.4-0.2,0.9,0,0.9-0.5c0-0.4-0.4-1,0.2-1.1c-0.1-0.1-0.1-0.1-0.2-0.2c0.4-0.1,1.2-0.1,0.7,0.3c-0.2,0.1-1,0-0.2,0.4
			c0.5,0.3,1.1,0.5,1.5,0.9c0.2,0.2,1.2-0.5,1.4-0.6c0.1-0.1,1.4,1.9,1.7,2.2c0.3,0.3,0.9,0.7,0.9,1.1c0,0.6,0.4,0.6,0.8,1
			c0.2,0.2-0.2,0.4,0.1,0.6c0.3,0.2,0.4,0.3,0.6,0.6c0.2,0.5,0.3,1,0.6,1.4c0.1,0.1,0.1,0.2,0.2,0.3c7.7-10.3,12.8-22.6,14.4-35.9
			c-0.4-0.1-0.8-0.1-1.1-0.3C148.8,84.2,148.5,84.3,148.5,84.2z"/>
		<path class="st2" d="M104.6,86.6c0.2,0,0.5-0.2,0.7-0.2c0.1,0,0.4,0.2,0.6,0.2c0.4,0,0.8,0.3,1.4,0.3c0.4,0,0.4,0,0.7-0.3
			c0.2-0.2,0.3,0.1,0.5,0.1c0.5,0,0.2,1.1,0.6,1.2c0.1,0,0.8-0.6,0.9-0.8c0.4-0.4,0.8,0.5,0.9,0.7c0.1,0.2,0.1,0.7,0.3,0.7
			c0.1,0,0.4,0.3,0.4,0.4c0,0.4,0.1,0.9,0.6,0.9c0.4,0,0.6,1.1,0.8,1.3c0.1,0.3,0.3,0.1,0.5,0.2c0.2,0.1,0.5,0.3,0.7,0.5
			c0.3,0.3,1,0.2,1.5,0.2c0.2,0,0.5,0.1,0.4,0.3c0,0.1-0.6,0.1-0.7,0.3c-0.2,0.5,0,0.9,0.4,1.2c0.3,0.2,0.1,0.2,0.2,0.5
			c0.1,0.4,0.3,0.2-0.2,0.5c-0.3,0.3-1,0.6-1,1.1c0,0.2,0.2,0.4,0.2,0.7c0,0.3-0.5-0.1-0.5,0.2c0,0.2,0.1,0.4-0.1,0.5
			c-0.2,0.2,0.2,0.4,0.3,0.6c0.1,0.2,0.3,0.3,0.1,0.6c-0.1,0.2-0.4,0.6-0.2,0.6c0.5,0.2,0.7,0.8,1.1,1.1c0.3,0.3,0.3-0.2,0.5,0
			c0.2,0.2,0.3,0.3,0,0.5c0.5,0.2,0.7,0.6,1,1c0.2,0.2-0.1,0.7,0,0.9c0.2,0.3,0.7,0.1,1,0.3c0.5,0.2,0.8,0.5,1.2,0.8
			c0.3,0.2,0.7,0.3,0.9,0.6c0.1,0.1,0.3,0.4,0.5,0.4c0.4-0.1,0.3-0.1,0.6,0c0.6,0.4,0.9,1.4,1.4,1.9c0.5,0.5,0.5,0.5,0.3,1.2
			c-0.1,0.4-0.2,0.8-0.2,1.2c0,0.2,0.1,1.2,0.2,1.2c0.4,0,1.1-0.2,1.1,0.2c0,0.5,0.2,0.9,0.2,1.4c0,0.4,0.5,0.5,0.8,0.8
			c0.1,0.1,0.3,0,0.4,0.1c0.1,0.2,0.1,0.3,0.2,0.5c0.1,0.3,0.2,0.8,0.7,0.7c-0.5,0.3-1.9-0.4-1.9,0c-0.5-0.2-0.7-0.3-1.3-0.3
			c-0.3,0-1.4,0-1.4,0.4c0,0.8-0.7,2.3-1.3,2.9c-0.7,0.7-2.4,0.3-3.4,0.3c-0.9,0-2.3-0.1-3-0.6c-1.8-1.3-3.7-2.6-5.4-3.9
			c-1.8-1.4-3.4-3.2-5.6-4.1c-0.6-0.3-1.2-0.6-1.8-0.9c-0.6-0.3-1.1-0.9-1.7-1c-1.4-0.2-2.7-0.4-4-0.7c0.3-0.3,0.7-0.5,0.3-0.9
			c-0.6,0.5-0.7,0-0.9-0.5c0.1,0,0.1,0,0.2,0c-0.4-1-0.8-1.9-1.2-2.9c-0.2-0.6,0.5-0.6,0.9-1c0.5-0.3,0.9-0.6,1.4-0.9
			c1-0.6,2-1.3,3-1.9c0.4-0.2,1-0.3,1.1-0.9c0.1-0.6,0.5-0.9,0.4-1.5c-0.1-0.4-0.4-1.1-0.2-1.4c0.1-0.4,0.3-1.1,0.3-1.5
			c0-0.4-0.4-1-0.6-1.4c-0.2-0.3,0-1.1,0.1-1.3c0.2-0.5,1-0.3,1.4-0.6c0.4-0.3,0.6-0.8,0.9-1.1c0.4-0.4,0.4-0.7,0.8-1
			c0.3-0.2,0.4-0.2,0.5-0.6C104.1,86.4,104.3,86.4,104.6,86.6"/>
		<path class="st3" d="M84.8,101.8c0.4,0.5,0.3,1.3,0,1.8c-0.2,0.3-0.3,0.2-0.6,0.5c-0.3,0.3,0.2,0.9-0.3,0.9
			c-0.1,0-0.3-0.3-0.3-0.3c-0.1-0.1-0.4-0.1-0.6-0.1c-0.4-0.1-0.4,0.6-0.5,0.7c-0.3,0.6,0,1.3,0,2c0.3-0.3,0.4-0.1,0.6,0.1
			c0.3,0.3-0.1,0.3-0.3,0.4c-0.1,0.1-0.3,0.1-0.3,0.2c-0.1,0.1,0,0.3,0,0.3c0,0.1-0.3,0.6-0.2,0.7c0.2,0.3,1.2-0.3,1.4-0.3
			c0.1,0,0.5-0.3,0.5-0.1c0,0.3,0,0.7-0.2,1c0.6,0-0.5,2.6-0.5,3c0,0.3,0.2,0.6,0.2,0.9c0,0.3-0.2,0.6-0.2,0.9
			c0,0.3-0.2,0.5-0.2,0.8c0,0.4,0.1,0.7-0.2,1c-0.4-0.7-0.5-1.4-0.7-2c-0.1-0.4-0.3-0.7-0.5-1c-0.2-0.4-0.3-0.6-0.5-1
			c-0.2-0.7-0.6-1.3-0.9-2c-0.2-0.5,0.2-0.3,0.2-0.8c0-0.4,0.5-0.7,0.2-0.9c0.7-0.1,0.9-3.3,1-3.9c0.1-0.4,0.2-0.7,0.3-1.1
			c0.2-0.5,0.1-0.5,0.5-0.6c0.3-0.1,0.6,0.1,0.9-0.2c0.1-0.1,0-0.9,0.2-0.3c0.1-0.2,0.4-0.2,0.5-0.3c0.1-0.1,0.1-0.4,0.3-0.5
			c0.1,0.2,0,0.4-0.2,0.5C84.7,101.7,84.7,101.7,84.8,101.8"/>
		<g>
			<path class="st3" d="M13.6,83.7c-0.3-0.2-0.3-0.6-0.8-0.3c-0.2,0.1-0.6,0.4-0.8,0.6c-0.2-0.2-0.4-0.4-0.5-0.7
				c-0.2,0.4-0.9,0.8-0.9,1.4c0,0.7,0.9,0.8,1.4,0.9c1.2,0.3,2,1.4,3.2,1.7c0.7,0.2,1.2-0.1,1.6,0.7c0.2,0.4,0.9,1,1.4,0.7
				c0.2-0.1,0.8,0.3,0.9,0.1c0.1-0.1-0.2-0.3-0.2-0.3c0.1-0.1,0.1-0.2,0.2-0.3c0.1-0.3,0.3-0.4,0.3-0.8c0-0.3-0.5-0.3-0.2-0.6
				c-0.8-0.6-0.2-1.1-0.2-1.8c0-0.7,0.8-1.2,1-1.8c0.1-0.1,0.1-0.2,0.2-0.3c-0.4-0.1-0.8,0.5-1,0.2c-0.5,0.7-1.2,0.1-1.8,0.4
				c-0.3,0.2-0.7,0.2-1,0.3c-0.4,0.2-0.8-0.1-1.2,0.1c-0.4,0.2-0.6,0.2-0.9,0c-0.2-0.1-0.3-0.2-0.5-0.3
				C13.9,83.7,13.7,83.8,13.6,83.7z"/>
			<path class="st3" d="M2.5,61.9c0.5,0.3,0.5,0.7,0.6,1.3c0.1,0.6,0.3,0.5,0.6,1c0.2,0.4,0.2,0.9,0.2,1.3c0,0.3,0.1,0.3,0.4,0.3
				c0.3,0,0.2,0.2,0.3,0.3c0.4,0.3,0.7,0.5,1,0.9c0.2,0.2,0.8,0.8,0.2,0.8c0.2,0.4,0.4,0,0.7,0c0.3,0,0.7,0.3,1,0.5
				c0.3,0.2,0.3,0.6,0.6,0.7c0.3,0.2,0.7,0.3,0.9,0.7c0.4,0.6,1,1.1,1.6,1.7c0.2,0.2,0.6,0.1,0.9,0.3c0.3,0.2,0.5,0.3,0.7,0.6
				c0.4-0.5,1,0.2,1.5,0c0.4-0.2,0.9,0.3,1.1,0.7c0.3,0.7,0.2,0.9,0.9,0.9c0.3,0,0.5,0.1,0.7,0.3c0.2,0.2-0.1,0.4-0.3,0.6
				c0.3-0.1,0.7-0.1,0.9-0.2c0.5-0.3,0.5,0.2,0.8,0.5c0.4,0.4,0,0.5,0.1,0.9c0,0.2,0.8,0.6,1,0.7c0.4,0.2,0.9-0.1,1.2,0.2
				c0.3,0.3,0.4,0.6,0.5,1c0.3,0.8,0.9,1.4,1,2.2c0.1,0.4,0,0.5,0.3,0.8c0.1,0.1,0.1,0.6,0.1,0.7c-0.1,0.1-0.5,0-0.7,0.2
				c-0.1,0.1-0.1,0.4-0.1,0.6c0.2,0.7-0.5,0.9-0.7,1.4c-0.1,0.2,0.1,0.5,0.2,0.7c0.2,0.3,0.3,0.3,0.6,0.3c0.8,0,0.5-0.5,0.9-0.9
				c0.3-0.3,1-0.7,1.1-1.1c0.1-0.3-0.2-0.6-0.2-0.9c0-0.3,0.3-0.5,0.5-0.6c0.3-0.3,1.3-0.1,1.4-0.4c0.1-0.1-0.3-1.5-0.4-1.6
				c-0.4-0.4-0.8-0.6-1.3-0.7c-1.1-0.2-0.2-2.1,0.2-2.7c0.3-0.5,0.6-1,1.2-0.6c0.3,0.2,0.1,0.3,0.4,0.4c0.2,0.1,0.4,0.2,0.6,0.3
				c0.9,0.1,1,0.1,1.5,0.9c0.3,0.5,0.6,0.7,1.1,0.9c0.2-0.3,0.2-0.8,0.3-1.1c0.1-0.4-0.2-0.6-0.4-0.9c-0.4-0.4-0.9-1.1-1.5-1.3
				c-0.8-0.4-1.6-1-2.4-1.2c-0.7-0.2-1.4-0.5-2-0.8c-0.6-0.3-1.2-0.6-1.8-0.9c-0.6-0.3,0.5-0.9,0.6-1.1c0.5-1-2.1-0.5-2.7-0.5
				c-1,0-2.2-1.1-3-1.8c-1-0.8-1.3-1.6-1.7-2.8c-0.2-0.5-0.4-1.2-0.9-1.5c-0.4-0.3-0.9-0.4-1.4-0.7c-0.4-0.3-1-0.5-1.4-0.9
				c-0.6-0.4-0.7-0.7-1.1-1.3c-0.2-0.5-0.3-1.1-0.3-1.6c0-0.2,0.3,0.1,0.4,0c0.1-0.1,0.3-0.4,0.3-0.6c-0.1-0.3-1-1-1-1.1
				c0.2-0.6,0.3-0.7,0.8-1.1c-0.1,0.1-0.1,0.2-0.2,0.3c0.5,0.1,0.5-0.2,0.9-0.4c0.4-0.1,0.7-0.3,1-0.6c0.3-0.3,0.8,0.1,1.2,0
				c0.3-0.2,0.6,0.3,0.8,0.5C13,56,13,56.1,12.9,56.1c0.2-0.1,0.3-0.1,0.5-0.2c-0.2-0.2-0.4-0.5-0.7-0.7c-0.3-0.3-0.3,0.1-0.3-0.4
				c0-0.4-0.3-0.2-0.3-0.3c0-0.2,0.4-0.5,0.5-0.6c-0.1-0.1-0.8-0.1-0.9-0.2c-0.2-0.3,0.3-0.5,0.4-0.6c0.2-0.2,0.7-0.4,0.2-0.5
				c-0.4-0.1-0.7-0.1-1-0.2c-0.6-0.2-1.5,0-2-0.3C9,52.1,9,52.1,8.8,52.1c-0.2,0-0.1-0.2-0.3-0.3C8.3,51.5,8,51.3,8,51
				c0.5-1.2-1.1,0.3-1.4-0.1C6.3,50.7,5.6,51,5.3,51c-0.1,0-0.4,0.2-0.5,0.3c-0.2,0.1,0,0.3-0.1,0.4c-0.2,0.1-0.4,0.1-0.7,0
				c-1.1,3.2-1.9,6.6-2.6,10C1.8,61.7,2.2,61.7,2.5,61.9z M9.3,62.1C9.8,61.6,9.8,62.6,9.3,62.1L9.3,62.1z"/>
			<path class="st3" d="M14.6,74c0.1,0,0.1,0,0.2,0c-0.1-0.1-0.2-0.1-0.3-0.2C14.4,74.1,14.5,74,14.6,74z"/>
		</g>
		<path class="st3" d="M95,104.7c0.1,0.5,0.2,1,0.9,0.5c0.3,0.3,0,0.5-0.2,0.7c-0.2,0.2-0.3,0.6-0.6,0.6c-0.6,0-1.4,0.4-2,0.6
			c-0.7,0.3-1.4,0.3-2,0.6c-0.7,0.3-1.3,0.5-2,0.7c1.2,1.2,2.3,2.5,3.6,3.7c-0.3,0.1-0.8,0.3-1,0.5c-0.1,0.2-0.2,0.9-0.3,1.1
			c-0.2,0.5-1.8,0.6-2.3,0.7c-0.2,0.1-0.4,0.7-0.5,0.9c-0.2,0.4-0.4,0.7-0.8,1c-0.8,0.7-1.3,0.5-2.2,0.3c-0.5-0.1-2-0.1-2-0.6
			c0-0.8,0-1.6,0.3-2.4c0.1-0.4,0-0.8-0.1-1.2c-0.1-0.2,0.1-0.8,0.2-1.1c0.1-0.3,1-2,0.3-2c0.4-0.6,0-1.4,0.3-2
			c0.1-0.2-0.1-1.6-0.1-1.9c-0.1-0.5-0.5-1.8,0.4-1.8c0.4,0,0.5,0,0.7,0.3c0.3,0.4,0.7,0.3,1,0.6c1.3,1.3,2.7,0,3.8-0.8
			c1.2-0.9,2.4-1.6,3.6-2.5c0.4,1.1,0.9,2.1,1.4,3.2C95.1,104.7,95.1,104.7,95,104.7"/>
		<path class="st3" d="M36.6,66.2c-0.2,0.7,0.8,0.2,1,0.5c0.3,0.4-0.2,1.2-0.5,1.4c0.5,0.5-0.2,0.2-0.4,0.4c-0.1,0.1,0,0.2-0.2,0.3
			c-0.2,0.2-0.2-0.2-0.4-0.3c-0.4-0.1-0.8,0.3-1.1,0.5c-0.3,0.2,0.1,0.6-0.2,0.7c-0.5,0.2-0.3-0.3-0.4-0.6c-0.1-0.5-0.2-0.8-0.7-1.1
			c-0.1-0.1-0.3,0-0.4,0c-0.1-0.1-0.2-0.5-0.3-0.6c-0.1-0.3-0.2-0.7-0.4-0.9c0.1,0,0.3,0,0.3,0c0,0,0.3-0.2,0.2-0.2
			c0.2-0.1,0.7-0.1,0.9-0.3c-0.5-0.4,0.3-0.3,0.3-0.8c0-0.1-0.4-0.4-0.1-0.4c0.2,0,0.4-0.2,0.6-0.2c0,0,0,0.2,0,0.3
			c0,0.2,0.1,0,0.2,0.1c0.2,0.1,0.5,0.1,0.6,0.2C35.8,65.6,36.1,66,36.6,66.2"/>
		<path class="st3" d="M125.5,115.4c-0.7,0-0.8-1-0.3-1.4c0.3,0.3,0.5,0.7,0.7,1C125.6,115.1,125.5,115.2,125.5,115.4 M125.2,115.4
			c-0.1,0.4-0.2-0.1-0.3,0c-0.3,0.1-0.4,0.2-0.6,0.5c-0.5,0.5,0.4,0.8,0.6,0.4c0.5,0.4,0.3,1.2,0.7,1.6c0.2,0.2,0.5,0.5,0.6,0.8
			c0.1,0.3,0.2,0.6,0.3,0.9c-0.6,0-1.2,0-1.8,0c-0.9,0-0.9-0.4-1.2-1.1c-0.3-0.6-0.6-0.8-1.3-0.8c-0.7,0-1.3-0.2-2-0.3
			c0.5-0.5,0.8-1,1-1.6c0.2-0.7,0.3-1.5,0.9-1.8c0.4-0.2,1.4-0.2,1.8,0C124.5,114.1,124.9,114.8,125.2,115.4"/>
		<path class="st2" d="M85.8,96.5c0.1,0.1,0.1,0.1,0.2,0.2c-0.2,0.1-0.3,0.3-0.3,0.5c0.6,0,0.8,0.3,1,0.9c0.2,0.5-0.4,0.8-0.7,1.1
			c-0.3,0.3,0.3,0.2,0.3,0.4c0,0.2-0.3,0.2-0.4,0.1c-0.3-0.3-0.8,0.4-0.9,0.6c0.8,0.6-0.4,1.2-0.9,1.7c-0.2-0.5-0.1,0.3-0.4,0.5
			c-0.1,0.1-0.9,0.1-0.9,0c0-0.9,0.6-1.6,0.8-2.5c0.2-0.8,0.3-1.7,0.7-2.5c0,0,0.8-0.7,0.6-0.7c0.2,0,0.5,0,0.7,0
			C85.5,96.7,85.5,96.5,85.8,96.5"/>
		<path class="st3" d="M53.1,142.4c0-1.5-0.2-3-0.2-4.5c0-0.8-0.2-1.5-0.2-2.3c0-0.7,0.1-1.4-0.1-2.1c-0.5-2.3,0-4.7-0.4-7
			c-0.2-1.1,0.1-2.3-0.2-3.4c-0.1-0.6,0-1.2,0-1.8c0-0.5-0.2-1-0.2-1.5c0-1.1,0-2.1-0.3-3.2c-0.2-0.6-0.3-1.2-0.5-1.7
			c-0.1-0.3-0.4-1-0.4-1.3c0-0.6,0.5-0.9,0.5-1.5c0-0.2,0.2-0.4,0.2-0.7c0-0.3-0.1-0.5-0.2-0.8c-0.1-0.5-0.5-1.1-0.3-1.6
			c0.2-0.4,0.5-0.9,0.8-1.1c-0.4-0.4-0.4-0.9-0.9-1.1c-0.6-0.3-1,0-1.6,0c-0.8,0-0.9-0.1-1.5-0.5c-0.8-0.5-2.6,0.1-2.6-1.1
			c0-0.8-0.4-0.9-1.1-1.1c-0.5-0.2-0.9-0.4-1.4-0.7c-0.3-0.2-1.2,0-1.6,0c-0.8-0.1-0.6,0-1.4,0.3c-0.5,0.3-1.1,0.2-1.6,0.5
			c-0.5,0.3-1.1,0.6-1.6,0.9c-0.8,0.5-1.3,1.8-1.2,2.7c0.1,0.3,0.1,0.6,0.2,1c0.1,0.3,0.3,0.3,0.4,0.6c0.3,0.5,0.1,0.9,0,1.4
			c-0.4,1.2-1.2,1.8-2.3,2.3c-1.1,0.5-2.1-0.4-2.9-1.1c-0.8-0.7-1.8-1.3-2.8-1.6c-1.1-0.4-2.2-0.7-3.3-0.7c-1,0-2.1-0.4-2.8-1.1
			c-0.9-0.8-0.6-2-1.2-2.9c-0.6-0.9-2.1-0.3-2.9-1c-0.5-0.5-0.9-0.6-1.6-0.8c-0.4-0.1-0.9,0-1.3-0.2c-1.1-0.4-2.1,0.1-3.2,0.1
			c-1-0.5-1.9-1-2.9-1.4c0,0.5,0,1,0,1.5c0,0.5,0.2,0.8,0.2,1.3c0,0.1-0.9,0.5-1.1,0.6c-0.2,0.2-0.5,0.3-0.8,0.4
			c8.8,19.6,25.7,34.8,46.5,41.2c0-0.1,0-0.1,0-0.2C53.3,145.5,53.1,143.9,53.1,142.4z"/>
		<path class="st3" d="M0.5,50.7c-0.6,0.2-0.3-0.6-0.2-0.9C0.2,50.3,0.5,50.3,0.5,50.7"/>
		<path class="st2" d="M30.3,20.9c0,0.1-0.1,0.2-0.2,0.3c-0.3-0.2,0.2-0.8,0.2-1.2C30.5,20.3,30.4,20.5,30.3,20.9 M40.5,17.5
			c0.4,0.7,0.9,0.5,1.7,0.7c0.7,0.1,1.1,0.6,1.7,1c0.5,0.3,1.3,0.5,1.4,1.1c0,0.3-0.3,0.6,0,0.9c0.2,0.2,0.6-0.1,0.9,0.2
			c-0.4,0-0.3,0.4-0.5,0.5c-0.2,0.1-0.7-0.1-0.9-0.2c-0.1,0.2-0.2,0.7-0.4,0.7c-0.4,0-0.8,0.2-0.8,0.6c0,0.3,0.1,0.7,0,0.9
			c-0.1,0.2-0.5,0.6-0.3,0.9c0.1,0.2,0.8-0.2,0.7,0.3c0,0.2-0.5,0.3-0.7,0.2c0,0,0-0.3,0-0.3c-0.3-0.2-0.1,0-0.4,0
			c-0.4,0-0.5,0.3-0.8,0.3c-0.5,0-0.6,0.1-0.6,0.6c0,0-0.8,0.3-0.9,0.3c-0.4,0-0.6-0.1-0.9-0.2c-0.2,0-0.2,0.3-0.4,0.1
			c-0.2-0.2-0.3-0.1-0.5,0c-0.4,0.2-0.6,0-0.8-0.3c-0.1-0.1-0.2-0.3-0.2-0.4c0-0.2-0.3-0.2-0.4-0.3c-0.3-0.3-0.6-0.1-0.9-0.3
			c-0.2-0.1-0.3-0.7-0.7-0.2c-0.3-0.3-0.4-0.7-0.3-1.1c0.2-0.7,0.2-0.7-0.4-1.1c-0.5-0.4-0.7-0.3-1.3-0.3c-0.5,0-0.9-0.2-1.4-0.3
			c-0.4-0.1-0.7-0.4-1.2-0.4c-0.7,0-0.2-0.5-0.4-0.9c-0.3-0.4-0.5-0.8-0.6-1.3c-0.2-0.8-0.2-0.7,0.5-1.1c0.8-0.4,1.6-1,2.5-0.8
			c0.5,0.1,1,0,1.4,0.1c0.2,0,0.3,0,0.5,0c0.1,0,0.1,0.2,0.3,0.2c0.1,0,0.2-0.2,0.3-0.2c0.9,0,1.8,0.3,2.7,0.3
			c0.4,0,0.9,0.1,1.2-0.2C39.7,17.2,40.4,16.9,40.5,17.5"/>
		<path class="st2" d="M29.4,22.2c0.4-0.1,0.7,0.2,1.1,0.2c0.6,0,0.4-0.8,0.3-1.2c1.2,0,2.1,0.7,3.3,0.7c0.4,0,1.2,0.4,1.3,0.9
			c0.1,0.6-0.5,1.1,0.2,1.7c-3,0-5.9-0.3-8.9-0.3c0.3-0.3,0.6-0.5,0.8-0.9c0.1-0.4-0.1-0.9,0.5-0.9c0.6,0,0.8-0.1,1.3-0.4
			c0.3-0.2,0.6-1,0.9-0.6c-0.5,0.1-0.6,0.7-0.9,1C29.3,22.2,29.4,22.2,29.4,22.2"/>
		<path class="st2" d="M40.2,11.7c0.3-0.3,0.5,0,1,0.2c0.5,0.2,0.9,0.2,1.4,0.5c0.4,0.3,0.7,0.8,1.2,0.9c0.4,0.1,0.9-0.2,1.4-0.2
			c0.3,0,1.1,0.1,1.4,0.2c0.2,0.1,0.4,0.4,0.5,0.5c0.1,0.1,0.6,0.3,0.7,0.3c0.2,0.3-0.2,0.9-0.2,1.2c0.1,0.6,0,0.1,0.3,0.3
			c0.2,0.1,0.3,0.3,0.4,0.4c0.3,0.3,0.5,0.6,0.7,0.9c0.1,0.1,0.7,1.2,0.3,1.2c-0.5,0-0.8,0.3-1.1,0.7c-0.1,0.1-0.2-0.1-0.2,0.1
			c0,0,0,0.4,0,0.4c-0.1,0.1-0.6,0-0.8,0c-0.2,0-0.6-0.2-0.8-0.2c-0.2,0.1-0.3,0.4-0.5,0.5c-0.3,0.2-1,0.1-1.3,0
			c-0.9-0.5-1.6-1.3-2.6-1.5c-0.7-0.1-1.1,0-1.5-0.6c-0.1-0.2-0.2-0.6-0.5-0.3c-0.2,0.2-0.5,0.1-0.7,0.4c-0.4,0.4-2.5-0.1-3.1-0.2
			c-1-0.1-2,0.1-3.2-0.2C32,17,30.9,17.8,30,18.3c-0.1-0.6-0.6-2-0.3-2.6c0.2-0.3,0.6-0.3,0.7-0.8c0.1-0.3,0.2-0.4,0-0.7
			c-0.1-0.1,0.1-0.3,0.2-0.4c0.3-0.5,0.3-0.9,0.9-0.9c0.4,0,0.9-0.1,1.3-0.3c0.6-0.3,0.4-0.1,0.9,0.3c0.3,0.3,0.9,0.4,1.2,0.7
			c0.3,0.3,0.5,0.7,0.8,1c0.2,0.2,0.9,0.6,1.1,0.5c0.7-0.2,1.8-0.5,1.6-1.4c-0.1-0.4-0.1-0.8-0.3-1.2c-0.2-0.2-0.2-0.3-0.2-0.6
			c0-0.2,0.2,0,0.3-0.1c0.3-0.2,0.7-0.3,1.1-0.3C39.7,11.7,39.7,11.1,40.2,11.7"/>
		<path class="st2" d="M52.9,45.8c0.4,0.1,0.6,0.4,0.9,0.6c0.3,0.2,0.9,0,0.8,0.5c0.1-0.1,0.1-0.1,0.2-0.2c0,0.2,0.1,0.2,0.2,0.3
			c0.6-0.7,1.2,0.4,1.7,0.5c0.2,0,0.1-0.2,0.3,0c0.2,0.1,0.2,0.4,0.3,0.6c0.1,0.3,0.1,0.8-0.1,0.9c0.2,0.3,0.9,0.9,1.3,0.9
			c0.2,0,0.3,0.3,0.2,0.4c-0.3,0.3,0.1,0.4,0.3,0.6c0.2,0.3-0.2,0.3,0.3,0.4c0.3,0.1,0.6,0.2,0.8,0.4c0.2,0.3,0.2,0.4,0.2,0.8
			c0,0.2,0.5,0.5,0.7,0.6c-0.2,0.2-0.3,0.2-0.6,0.2c-0.3,0-0.2-0.3-0.4-0.3c-0.2,0-0.3,0.2-0.5,0.2c-0.2,0-0.3-0.2-0.5-0.2
			c-0.3,0-0.7,0.4-0.7,0.3c0-0.1,0.1-0.6-0.1-0.6c-0.2,0-0.5,0.2-0.6,0.3c-0.3,0.4,0.3,0.5,0.3,1c0,0-0.3,0.6-0.3,0.6
			C57.2,54.6,57,54.7,57,55c0,0.3-0.4,0.2-0.5,0.4c-0.2,0.4,0,0.3,0,0.6c0,0.4-0.6,0.2-0.9,0.6c-0.1-0.3-0.3-0.5-0.5-0.7
			c0.6,0,0.1-0.7,0-1c-0.1-0.6-0.1-1.1,0-1.7c0-0.1,0.2-0.2,0.2-0.3c0-0.1-0.2-0.1-0.2-0.2c0-0.4-0.1-0.5-0.3-0.9
			c-0.3-0.6-0.6-0.8-1.1-1.3c-0.3-0.3-0.8-0.8-1.1-1.2c-0.1-0.1-0.3-0.5-0.4-0.5c-0.4-0.1-0.5-0.2-0.6-0.6c-0.4-0.8-1.1-2.1-2.2-2
			c0.3,0,0.5-0.3,0.8-0.3c0.3,0,0.6,0,0.9,0C51.8,45.8,52.3,45.3,52.9,45.8"/>
		<path class="st3" d="M39.7,68.1c0.4,0.5,0.6,0.8,1.1,1.1c0.2,0.1,0.4,0.1,0.5,0.3c0.1,0.1,0.3,0.7,0.3,0.7c0.3,0,0.1,1.2,0.1,1.5
			c0,0.2,0,0.2-0.3,0.2c-0.5,0,0,0.3-0.3,0.5c-0.3,0.3-1.1,0.2-1.4,0.2c-0.1,0-0.2-0.2-0.3-0.2c-0.1,0-0.1,0.2-0.3,0.2
			c-0.3,0-0.4,0.2-0.7,0.4c-0.2,0.2-0.3,0.3-0.6,0.4c-0.3,0.1-0.2,0-0.6,0c-0.1,0-1.4,0.4-1.4,0.1c0-0.2-0.4-0.1-0.6-0.1
			c0,0-0.3-0.4-0.4-0.5c-0.2-0.2-0.6-0.8-0.6-1.2c0-0.3-0.2-0.4-0.2-0.7c0-0.2,0.3-0.3,0.1-0.5c-0.1-0.1,0-0.6,0.1-0.8
			c0.2-0.2,0.3,0.1,0.5-0.2c0.1-0.1-0.1-0.5,0-0.5c0.2-0.1,0.6-0.5,0.8-0.5c0.3,0,0.4,0,0.6,0.3c0.2,0.2,0.3-0.3,0.4-0.4
			c0.3-0.2,0.9,0.1,1.3-0.3c0.1-0.1,0.4-0.1,0.5,0c0.2,0.2,0.6-0.2,0.8-0.3C39.3,68.1,39.5,68.1,39.7,68.1"/>
		<path class="st3" d="M17.7,92.1c-0.3,0.4-0.7,0.2-0.7-0.3C17,91.6,17.5,92.1,17.7,92.1 M16.8,91.4c-0.2,0.2-0.3,0.1-0.5,0
			C16.5,91.2,16.7,91.2,16.8,91.4"/>
		<path class="st3" d="M29.3,63.6c0.6-0.1,0.4,0.3,0.9,0.6c0.5,0.3,0.9,0.7,1.4,0.9c0.5,0.2,1,0.4,1.5,0.7c0.6,0.3-0.2,0.8-0.6,0.7
			c0.4,0.4,0,1-0.5,1c-0.4,0-0.2-0.7-0.5-0.7c-0.2,0-0.6,1.1-0.7,1.3c-0.1,0.1-0.1,0.2-0.2,0.3c-0.2,0.2,0.1,0.1,0.1,0.3
			c0,0.3-0.1,0.5,0.2,0.5c-0.1,0.2-0.2,0.3-0.2,0.5c-0.4-0.4-0.9-0.9-1.3-1.3c-0.2-0.2-0.6-0.4-0.8-0.5c-0.1-0.1,0-0.2,0-0.2
			c-0.1,0-0.3,0.1-0.3,0c-0.7-0.6,0.3-0.4-0.1-1c-0.3-0.4-0.5-1.4,0.3-1.2c-0.4-0.5,0.2-1.2,0.8-1.2c0.1,0,0.4,0.3,0.1-0.3
			C29,63.8,28.8,63.6,29.3,63.6"/>
		<path class="st2" d="M23.7,22.9c0.3,0.1,0.6,0.3,0.9,0.5c-0.3-0.2-0.8-0.3-1.2-0.3c0.3,0.4,0.6,0.9,1.1,1.1c0.7,0.2,1,0.2,1.7,0.1
			c0.5-0.1,0.8-0.2,1.3-0.2c0.6,0,1.2,0,1.8,0.1c1,0.1,2.1-0.1,3.2,0.1c0.6,0.1,1.1,0.2,1.7,0.2c0.4,0,0.7,0,1.1,0
			c0.2,0,0.4-0.2,0.6-0.2c0.2,0,0.4,0,0.4,0.3c0,0.2,0.4,0,0.5,0.1c0.5,0.2,0.9,0.5,1,1c0.3,1,1,2,1.3,3c0.1,0.5,0.4,0.8,0.4,1.3
			c0,0.7-0.5,0.4-1,0.8c-0.4,0.2-0.7,0.7-0.7,1.1c0,0.2,0.4,0.3,0.6,0.3c0.3,0,0.4,0.2,0.7,0.4c0.3,0.3-0.1,0.7,0.3,0.9
			c-0.4,0.4,0,1.2,0.3,1.5c-0.1,0.1-0.1,0.1-0.2,0.2c0.5,0.3,0.8,0.5,1,1.1c0.2,0.5,0.9,0.6,0.2,0.9c0.8,0,0.6,1.4-0.1,1.4
			c-0.4,0-0.8,0.2-1,0.6c-0.2,0.4-0.6,0.5-0.9,0.8c-0.5,0.5-1.3,1.3-1,2c0.1,0.2,0.3,0.4,0.3,0.5c0,0.2-0.2,0.2-0.2,0.4
			c0.1,0.3,1,0.5,0.2,0.5c-0.1,0-0.7-0.2-0.8-0.2c-0.3-0.1-1-0.3-1.3-0.5c-0.3-0.3-0.4-0.5-0.9-0.6c-0.3-0.1-0.8-0.2-1.1-0.2
			c-0.4,0-0.8,0.2-1,0.4c-0.2,0.2-0.6-0.2-0.9-0.3c-0.5-0.1-1.7,0.1-1.5,0.9c-0.2-0.1-0.4-0.2-0.6-0.2c-0.3,0-0.1,0-0.3-0.2
			c0,0-0.2-0.4-0.2-0.4c0-0.2-0.2,0-0.3-0.1c-0.1,0-0.5-0.7-0.6-0.7c-0.5,0-0.6,0.7-0.8,0.7c-0.3,0-0.3,0-0.6-0.2
			c0.1,0.1-0.4-0.3-0.3-0.2c-0.1-0.1,0.1-0.4,0-0.5c-0.1-0.2-0.5-0.3-0.7-0.5c-0.1-0.2-0.1-0.3-0.3-0.4c-0.2-0.2-0.4,0-0.6-0.1
			c-0.3-0.1-0.8-0.3-0.8-0.5c-0.5,0.6-0.9,0.1-1.4-0.3c0.1,0,0.6-0.3,0.3-0.5c-0.1-0.1-0.6,0.2-0.8,0.2c-0.6,0-1.1-0.8-1.8-0.7
			c0.1,0.3,0.3,0.5,0.5,0.7c-0.2,0.1-1.1,0.7-1.2,0.5c-0.4-0.5-0.7-0.8-1.2-1.1c0,0,0.5-0.2,0.5-0.2c0.1-0.2-0.1-0.6-0.3-0.7
			c-0.2-0.1-0.6,0.2-0.8,0.2c-0.2,0-0.5-0.3-0.7-0.3c-0.5-0.2-1.2-0.3-1.5-0.8c-0.1-0.2-0.5-0.3-0.7-0.3c-0.1,0,0.1,0.3-0.1,0.4
			c-0.2,0.1-0.2,0.1-0.4,0.1c0.5-0.7,0.7-2-0.3-2.3c-0.4-0.1-0.1-0.1-0.3-0.4c0-0.1-0.3-0.4-0.3-0.5c0-0.2,0.2-1.1,0.3-1.2
			c-0.2-0.1-0.6-0.9-0.7-1.2c0-0.4,0.3-0.5-0.2-0.9c-0.2-0.2-0.7-0.2-0.9-0.4c-0.7-0.7,0.3-0.8,0.4-1.5c0.1-0.7-0.6-1.3-0.5-1.9
			c0.3,0.1,0.6,0.2,0.9,0.3c-0.1-0.2,0-0.2-0.2-0.3c0.1-0.1,0.1-0.1,0.2-0.2c-0.3-0.4-1.2-0.2-1.2-0.7c0.4,0.5,2.5-0.5,3-0.7
			c1.1-0.3,2.1-0.2,2.9-1c0.4-0.4,0.7-0.5,1.4-0.6c0.3-0.1,0.7-0.5,1.1-0.6C21.5,22.8,22.5,22.6,23.7,22.9"/>
		<path class="st3" d="M80.9,109.1c-0.1,0.1-0.2,0.2-0.3,0.3c-0.4-0.4,0.3-0.9,0.5-1.4C81.4,108.4,80.9,108.7,80.9,109.1
			 M84.3,106.6c0.1,0.3,0.2,0.6,0.2,0.9c0,0.2-0.2,0.5-0.2,0.8c0,0.3-0.9,0.8-1.3,0.8c-0.3,0-0.5,0.1-0.6-0.2c0,0,0.2-0.8,0.2-0.9
			c0.1-0.2,0.7-0.2,0.7-0.4c0-0.4-0.4-0.5-0.7-0.3c0-0.9-0.5-1.9,0.3-2.7c0.3-0.3,0.9,0.5,1.2,0.5C84.4,105,84.3,106.3,84.3,106.6"
			/>
		<path class="st2" d="M51.8,48.3c0.1,0.3,0.2,0.3,0.4,0.4c0.3,0.1,0.1,0.1,0.3,0.3c0.3,0.3,0.6,0.6,0.9,0.9
			c0.6,0.6,1.1,1.1,1.5,1.9c0.1,0.1,0.3,0.4,0.3,0.5c0,0.2,0.2,0.5,0.2,0.6c0,0.4-0.4,0.8-0.3,1.2c0,0.2,0.1,1,0.3,1.1
			c0.2,0.2,0.3,0.8-0.1,0.8c0.3,0.3,0.5,0.9,0.9,1c0.5,0.2,1,0.3,1.5,0.3c-0.1-0.1-0.1-0.1-0.2-0.2c0.9,0.1,2.1-1.1,2.7,0.1
			c0.1,0.2,0.1,1,0,1.3c-0.2,0.6-1,0.4-1.5,0.5c0.1-0.3-0.3-0.5,0-0.7c-0.2-0.2-0.3-0.2-0.5,0c-0.3,0.3,0,0.3,0,0.6
			c0,0.3-0.2,0.5-0.2,0.9c0.1-0.1,0.1-0.1,0.2-0.2c0.1,0.5-0.5,0.8-0.5,1.2c0.1,0.6,0.1,1.2,0.1,1.8c0,0.1-1.1,0.1-1.3,0.1
			c-0.3-0.1-0.5-0.2-0.7-0.4c-0.3-0.3-0.1-0.4-0.7-0.2c-0.1,0-0.4-0.3-0.6-0.3c-0.2-0.1-0.5,0-0.7-0.1c-0.2-0.1-0.6-0.1-0.8-0.3
			c-0.2-0.2-0.6,0.1-0.8,0.1c-0.6,0.1-1.1,0.2-1.7,0.4c-0.5,0.2-0.8,0.7-1.3,1c-1.2,0.6-2,0.1-3.1-0.1c-0.3,0-0.6-0.1-0.9-0.1
			c-0.2,0-0.5,0.2-0.7,0.2c-0.6-0.1-1.2-0.2-1.8-0.3c-0.5-0.1-0.9,0-1.4,0c-0.6,0-1.2,0-0.5-0.6c0.1-0.1,0.5-0.2,0.2-0.3
			c-0.2-0.1-0.5-0.2-0.8-0.3c-0.2-0.1-1-0.7-1-1c0-0.6,1.2-0.2,0.3-0.7c-0.2-0.1-0.6-0.3-0.8-0.2c-0.3,0.2-0.2,0.6-0.7,0.5
			c-0.2,0-0.2-0.5-0.6-0.5c-0.3,0-0.6,0-0.9-0.3c-0.1-0.1-0.7-0.1-0.8-0.3c-0.1-0.2,0.4-0.2,0.5-0.3c-0.2-0.2-0.5-0.2-0.7-0.3
			c0.3,0,0.3-0.2,0.3-0.4c0-0.2-0.5-0.4-0.7-0.4c-0.3-0.1-0.5-0.2-0.8-0.4c-0.1-0.1-0.7-0.4-0.8-0.5c-0.1-0.2,0-0.6,0-0.8
			c0-0.4-0.2-0.1-0.4-0.3C33,55.1,33,55,32.6,54.8c-0.3-0.1-0.5-0.4-0.6-0.7c0.2-0.1,0.4-0.1,0.6-0.2c0.2,0,0.3,0.2,0.5,0.2
			c0.3,0,0.1-0.4,0.3-0.5c0.3-0.1,0.8,0.2,1,0c0.3-0.2,0-0.7,0.5-0.5c-0.5-0.4,0.3-0.8,0.5-1c-0.1-0.1-0.1-0.1-0.2-0.2
			c0.3-0.2,0.5-0.7,0.5-1.1c0-0.2,0.3-0.3,0.4-0.5c0.1-0.2,0.1-0.6,0.2-0.7c0.2-0.2,0.3,0,0.3-0.5c0-0.2,0.3-0.3,0.4-0.5
			c0.2-0.4,0.6-0.4,1.1-0.4c0.2,0,0.8-0.6,0.9-0.7c0.5-0.3,0.7-0.6,1.2-0.3c0.4,0.2,0.8,0,1.2,0.1c0.4,0.1,1,0.3,1.4,0.3
			c0.3,0,0.9-0.4,1.2-0.1c0.3,0.3,0.6,0.9,1.1,0.8c0.4-0.1,1-0.5,1.4-0.7c0.5-0.2,1.1-0.1,1.6-0.3c0.3-0.1,0.6-0.9,0.7-0.9
			c0.6,0,0.7-0.2,1.2-0.2C50.9,46.3,51.3,47.8,51.8,48.3"/>
		<g>
			<path class="st2" d="M113.9,56.5c0-0.2,0-0.5-0.2-0.7c-0.1,0.1-0.1,0.1-0.2,0.2C113.7,56.1,113.9,56.3,113.9,56.5z"/>
			<path class="st2" d="M46.6,6.6c0.2,0,0.4,0.2,0.5,0.3c-0.3,0-0.7,0.2-0.7,0.6c0,0.4-0.5,0.8-0.7,1.1c-0.3,0.5-0.1,0.7,0.2,1.2
				c0.2,0.4,0,0.7,0.2,1c0.1,0.2,0.6,0.9,0.8,1.1c0,0,0.5,0.2,0.2,0.3c-0.2,0-0.6,0.1-0.6,0.2c0,0.2-0.3,0.4-0.3,0.6
				c0,0.3,0.2,0,0.3,0.2c0.3,0.3,0.8,0.6,1,0.9c0.1,0.2,0.2,0,0.2,0.3c0,0.2-0.1,0.3-0.2,0.5c0,0.1-0.1,0.6,0,0.7
				c0.1,0.1,0.4-0.1,0.5,0c0.3,0.2,0.3,0.8,0.6,0.9c0.2,0.1,0.7,0.7,0.8,1c0.1,0.4-0.2,0.8,0.3,1c0.2,0.1,0.9-0.5,1.1-0.1
				c0.4,0.7,0.5,0.2,1,0.1c0.3-0.1,1,0.3,1.2,0.5c-0.3,0.2-0.2,0.3,0,0.5c0.3,0.3,0.4,0.1,0.7,0c0.3-0.1,0.6-0.3,1-0.3
				c0.4-0.1,1,0,1.4,0.3c0.2,0.2,0.6,0.5,0.9,0.5c0.3,0,0.2,0,0.3,0.3c0,0.1,0.1,0.3,0.1,0.4c-0.1,0.1-0.1,0.1-0.2,0.2
				c0.1,0.5,0.4,0.5,0.5,0.9c0.1,0.4-0.5,0.8-0.3,1.1c0.3,0.3,0.7,0.6,1.1,0.6c-0.4,0.5,0,0.6,0.4,0.8c0.3,0.1,0.4,0.6,0.8,0.8
				c0.2,0.1,1.1,0.3,1.2,0.4c0.1,0.2,0,0.7-0.2,0.9c0.5,0,0.8,0,1.3,0.2c0.5,0.1,0.6,0.4,0.8,0.6c0.2,0.2,0.4,0.6,0.9,0.6
				c0.1,0,0.1,0.2,0.1,0.3c0,0-0.4,0-0.4,0c-0.3,0.2-0.1,0.3-0.3,0.5c-0.2,0.1-0.4,0.1-0.6,0.3c-0.2,0.2-0.9,0.1-1.2,0
				c-0.2-0.1,0-0.2-0.3-0.2c-0.2,0-0.3,0-0.5,0c-0.4,0-0.3,0.4-0.6,0.7c0.3,0,0.4,0.3,0.7,0.5c0,0,0.8,0.5,0.4,0.5
				c-0.2,0,0.4,1.2,0.4,1.4c0-0.1,0.5,0.6,0.5,0.6c0.1,0.1,0,0.1,0.2,0.2c0,0,0.2,0,0.3,0c0.7,0.4,1.1,0,1.3-0.7
				c0.1-0.6,1.2,0.3,1.6,0.1c0.6-0.4,1.1-0.3,1.8-0.3c0.6,0,1,0.2,1.4,0.7c0.3,0.4,0.8,1.3,1.3,1.3c-0.2,0.3-0.6,0.1-0.9,0.3
				c0.3,0.3,0.5,1.2,0.9,1.2c-0.4,0.3-0.1,0.3,0.3,0.3c0.3,0,0.5,0.2,0.8,0.2c0.3,0,1.1-0.1,1.3,0c0,0,0.1,0.4,0.1,0.4
				c0.1,0.2,0.1,0,0.2,0.1c0,0,0.2,0,0.3,0c0.2,0,0,0.1,0.1,0.2c0.3,0.3,0.4,0.9,0.7,1.2c-0.4,0.2,0.2,0.9,0.5,1
				c0.5,0.3,0.6-0.2,1.1-0.2c0.4,0,0.7,0.5,1,0.5c0.4,0,0.7,0,0.9,0.3c0.5-0.6,1.2-0.4,1.8-0.7c0.7-0.4,1,0.7,1.4,1.1
				c0.3,0.3,0.7,0.5,1.1,0.6c0.4,0.2,0.2-0.2,0.3-0.4c0.3-0.3,0.5,0.3,0.9,0.3c0.4,0,0.6,0,0.9,0.3c0.2,0.2,0.7,0.2,1,0.2
				c0.2,0,0.2-0.3,0.3-0.1c0.1,0.1,0,0.2,0.2,0.3c0.3,0.2,0.6,0.1,0.9,0.3c0.3,0.2,0.6,0.3,0.9,0.3c0.3,0,0.6-0.1,0.8,0.2
				c-0.2-0.2,0,0.4,0,0.3c0,0.2,0.2,0.3,0.2,0.4c0,0.7-0.3,1.1-1,1.1c0.3,0.3,0.8,0.7,1.2,0.7c-0.2,0.3-0.5,0-0.7,0.2
				c-0.3,0.2-0.1,0.5-0.3,0.7c0.2,0.1,0.6,0.1,0.8,0.3c0.2,0.2,0,0.4,0.3,0.6C88,46,87.9,46,87.9,46.1c0.5,0.2,0.2,0.8,0.2,1.4
				c0,0.5-1.5,0.3-1.8,0.3c-0.2,0-0.8-0.1-0.9,0c-0.1,0.1-0.1,0.4-0.2,0.5c-0.1,0.1-0.3,0.2-0.4,0.2c-0.2,0.1-0.8,0.1-0.8,0.4
				c0,0.3,0.1,0.6-0.2,0.8c0.6,0.3-0.1,0.7,0.3,0.9c0.3,0.1,0.9-0.6,1.4-0.5c-0.2,0.1-0.4,0.2-0.5,0.3c0.5,0,1-0.1,1.3-0.5
				c0.4-0.4,0.7,0.3,0.9,0.5c0.2,0.4-1.8,1-2.2,1.1c0.5,0.7-0.2,0.5-0.7,0.5c-0.4,0-0.8,0.2-1.2,0.2c0.1,0.3,0.3,0.5,0.5,0.8
				c0.1,0.1,0.4,0,0.5,0.1c0.6,0.2,1,0.7,1.4,1.2c-0.3,0-0.5,0-0.8,0c-0.1,0-0.1,0.4-0.3,0.5c0.1-0.3-0.2-0.5-0.4-0.3
				c-0.2,0.2-0.2,0.7-0.4,0.9c-0.1,0.1-0.2,0.3-0.3,0.4c-0.2,0.4,0,0.1,0,0.4c0,0.1,0.3,0.3,0.2,0.5c-0.1,0.2-1,0.3-1.2,0.3
				c-0.3,0.1-0.6-0.1-0.8-0.3c-0.1-0.1-0.7-0.4-0.7,0c0,0.2,0.5,0.3,0.7,0.3c-0.4,0.4-1.4,0.3-0.3,0.7c0.4,0.1,1.1,0.3,1.4,0.6
				c0.3,0.3,0.5,0.9,1,0.9c0.2,0,0.5,0.2,0.7,0.1c0.3-0.2,0.3-0.1,0.6,0.2c0.5,0.4,0.9,0.8,1.5,0.9c0.5,0.1,0.9,0.2,1.3,0.5
				c1,0.7,1.9,1.4,2.8,2.1c0.4,0.3,1,1,1.4,0.5c0.4-0.4,0.8-0.1,1.4-0.1c0.6,0,1.1,0.3,1.7,0.5c0.4,0.1,1,0.1,1.3,0.4
				c0.7,0.7,2.2,0.1,3.1,0.4c0.4,0.1,1.1,0.3,1.5,0.3c0,0,0.3,0.4,0.4,0.5c0.2,0.2,0.5,0.2,0.7,0.3c0.4,0.2,1.2,0.3,1.5,0.6
				c0.3,0.4-0.2,0.8,0.7,0.7c0,0,0-0.2,0.3-0.2c0.1,0,0.2-0.1,0.3-0.1c0.2-0.1,0.4-0.2,0.7-0.3c0.6-0.2,0.7,0,1.1,0.4
				c0.2-0.6,0.3-0.6,0.9-0.3c0.3,0.1,0.5,0.4,0.8,0.6c0.2,0.2,0.8-0.1,1.1,0c0.3,0.1,0.2,0.4,0.2,0.8c0,0.5,0.2,0.5,0.7,0.8
				c0.3,0.2,0.6,0.3,0.9,0.3c0.3,0,0.7,0.2,0.9,0.3c0.1,0.1-0.1,0.2,0.1,0.2c0.1,0,0.2,0,0.3,0c0.1,0.1,0.2,0.2,0.2,0.3
				c0.4-0.5,1.3,0.4,1.6,0.8c0.3,0.3,0.6,0.4,0.8,0.8c0.3,0.4,0.5,0.4,1,0.5c0.4,0.1,0.7,0.2,1,0c0.3-0.3,0.2-0.8,0.6-1
				c0.4-0.2,0.6-0.3,0.8-0.7c0.2-0.5,0.2-0.4-0.2-0.9c-0.9-1.2-2-2.4-3.1-3.4c-0.2-0.2-0.5-0.7-0.8-0.7c-0.2,0,0-0.7-0.1-0.9
				c-0.2-0.7-0.1-1.5-0.1-2.3c-0.3,0.2-0.2,0.8-0.2,1.2c-0.2-0.4-0.4-1.3-0.7-1.6c-0.4-0.4-0.8-0.8-1.3-1.3c-0.5-0.5-1,0.1-1.1-0.7
				c0-0.6,0.6-0.7,0.5-1.2c0.3,0.4,0.4,0,0.5-0.3c0.1-0.3,0.3-0.6,0.3-0.9c0-0.2,0-0.4,0-0.6c0-0.2,0.2-0.3,0.2-0.4
				c0-0.3,0.1-0.6-0.3-0.7c0.1-0.1,0.1-0.1,0.2-0.2c0,0.3,0.2,0.4,0.5,0.5c0-0.2,0-0.3,0-0.5c0.6,0.5,1.6-0.3,2.1-0.7
				c0.3-0.3,0.4,0,0.7,0c0.2,0-0.2-0.6-0.3-0.7c0.4,0.1,0.7-0.1,1-0.3c0.3-0.1,0-0.5,0.5-0.6c-0.6-0.6-1.9-0.5-2.4-1
				c-0.3-0.3-0.2-0.6,0.2-0.7c-0.1,0,0.5,0.2,0.5,0.2c0.2,0,0.2,0.3,0.5,0c-0.4-0.4-0.7-0.8-1.1-1.2c-0.3-0.3-0.4-0.8-0.7-1
				c-0.5-0.4-1-0.6-1.4-1.1c-0.3-0.5-0.8-0.3-1.3-0.4c-0.9-0.1-2.2,0.4-2.2-1c0-1.1-1.9-0.9-1.9-2.2c0-0.6,0.4-1,0.6-1.5
				c0.3-0.5-0.6-0.6-0.8-0.9c-0.2-0.4,0-1.4,0-1.8c0-0.2,0.3-0.4,0.4-0.5c0.3-0.2,0.3-0.2,0.3-0.5c0-0.6-0.1-0.7,0.4-1
				c0.4-0.2,0.9,0.2,1.2,0.5c0.4,0.4,0.8,0.9,1.2,1.2c0.6,0.4,0.8,0.2,1.5,0c0.5-0.2-0.1-0.9-0.3-1.2c-0.3-0.4-0.4-0.9-0.7-1.4
				c0.6,0,0.6,0,1-0.3c0.5-0.4,0.7-0.4,0.7-1.1c0-0.3,0.8-0.3,1.1-0.5c0.2-0.1,0.4-0.2,0.7-0.3c0.3-0.1,0.3-0.2,0.4-0.3
				c0.3-0.3,0.5-0.7,0.9-1c0.2-0.2,0.1-0.3,0.3-0.3c0.2,0,0.4,0.2,0.6,0.2c0.4,0,0.4,0,0.7,0.3c0.1,0.1,0,0.3,0.2,0.4
				c0.3,0.1,0.8,0,1-0.2c0.3-0.3,1-0.9,1.5-0.6c0.3,0.2,0.8,0.8,1.2,0.8c0.9,0,2-0.2,2.8,0.3c0.5,0.4,0.8,0.6,1.4,0.9
				c0.5,0.2,0.9,0.5,1.3,0.8c0.5,0.3,0.5,0.9,0.9,1.2c0.6,0.5,0.3-0.4,0.2-0.7c-0.2-0.4-0.7-0.8,0-0.9c0.5,0,1,0.5,1.4,0.7
				c1,0.5,1.8,1.2,2.8,0.3c0.2-0.2,0.1-0.5,0.4-0.7c0.1-0.1,0.5-0.2,0.6-0.2c0.4,0,0.8-0.2,1.3-0.2c0.4,0,0.5,0,0.8,0.2
				c0.2,0.1,0.4,0.3,0.6,0.3c0.7,0,0.5-0.1,0.8-0.7c0.3,0.1,1,0.4,1,0c0.5,0.2,0.9,0.3,1.4,0.6c0.4,0.2,0.7,0.7,1.1,0.7
				c0,0,0.1,0,0.1,0C127.3,15.2,103.1,0.2,75.4,0.2c-8.6,0-16.8,1.5-24.4,4.1c0,0,0,0,0,0c0.3,0.3,0.5,0.3,0.8,0.4
				C52.3,5,52,5.2,51.6,5.1c-0.7-0.2-1.3-0.3-2-0.4c-0.2,0.1-0.3,0.1-0.5,0.2c-0.2,0.4-0.6,0.6-1.1,0.4c-0.1,0-0.2,0.1-0.4,0.1
				c-0.1,0.2-0.2,0.2-0.4,0.2c-0.2,0.1-0.4,0.1-0.6,0.2C46.8,6.1,46.8,6.4,46.6,6.6z"/>
		</g>
		<g>
			<path class="st2" d="M120.4,58.2c0.1-0.1,0.1-0.2,0.2-0.3C120.5,57.9,120.4,58.1,120.4,58.2z"/>
			<path class="st2" d="M121.1,58.7c-0.4,0.1-0.4-0.3-0.7-0.5C120.4,58.6,120.8,59.1,121.1,58.7z"/>
			<polygon class="st2" points="120.4,58.2 120.4,58.2 120.4,58.2 			"/>
			<path class="st2" d="M127.9,56.7c0-0.6-1-0.2,0,0.2C127.9,56.8,127.9,56.7,127.9,56.7z"/>
			<path class="st2" d="M139,36.6c-0.4-0.3-0.8-0.4-1.2-0.5c0,0.4-0.8,0.1-1,0c-0.2,0.4,0,0.7-0.6,0.7c-0.5,0-0.8-0.5-1.2-0.5
				c-0.7,0-1.9,0-2.5,0.5c-0.3,0.3-0.2,0.7-0.8,1c-0.5,0.3-0.8,0.1-1.4-0.1c-0.8-0.3-1.5-1.2-2.4-1.2c-0.6,0,0,0.6,0.1,0.9
				c0.2,0.4,0.1,1.2-0.3,0.5c-0.4-0.9-1.3-1.7-2.2-2c-0.6-0.2-0.8-0.6-1.4-0.9c-0.5-0.3-0.9-0.3-1.4-0.3c-0.4,0-1,0.1-1.4,0
				c-0.4-0.1-0.7-0.8-1.2-0.9c-1-0.2-1.6,1.5-2.6,0.7c-0.1-0.1-0.1-0.5-0.4-0.5c-0.3,0-0.5,0-0.9-0.1c-0.2-0.1-0.6,0.4-0.8,0.7
				c-0.4,0.6-0.5,0.7-1.1,1c-0.2,0.1-0.5,0.2-0.7,0.3c-0.2,0.1-0.6,0-0.8,0.1c-0.2,0.2-0.2,0.5-0.2,0.8c0,0.2-0.5,0.4-0.6,0.6
				c-0.4,0.3-0.5,0.4-1.1,0.4c0.3,0.5,0.3,0.9,0.7,1.4c0.1,0.2,0.3,0.4,0.4,0.6c0.2,0.4,0,0.2,0,0.5c0,0.2-0.6,0.3-0.8,0.4
				c-0.2,0.1-0.5-0.2-0.7-0.3c-0.4-0.2-0.7-0.7-1-1c-0.2-0.2-1-1.1-1.4-0.9c-0.5,0.3-0.6,0.3-0.6,0.9c0,0.2,0.1,0.6-0.1,0.6
				c-0.2,0.1-0.5,0.3-0.6,0.5c-0.2,0.4,0,1.2,0,1.6c0,0.6,0.8,0.5,0.9,1.1c0,0.4-0.7,0.8-0.7,1.3c0,0.7,0,1.1,0.7,1.5
				c0.4,0.2,1,0.3,1.2,0.8c0.2,0.5-0.1,0.9,0.6,1.2c0.5,0.2,0.8-0.1,1.3,0c0.4,0.1,1.3,0,1.6,0.4c0.3,0.5,0.7,0.7,1.2,1.1
				c0.8,0.6,1.3,1.8,2,2.5c-0.3,0.3-0.3,0-0.5,0c0,0-0.6-0.2-0.5-0.2c-0.4,0.1-0.4,0.4-0.2,0.7c0.3,0.4,1.7,0.6,2.2,0.9
				c0-0.2,0.1-0.2,0.2-0.3c0.1,0.1,0.1,0.1,0.2,0.2c0-0.3,0-0.2-0.2-0.3c0.4-0.3,1.1-0.1,1.6-0.4c0.4-0.2,1-1,1.4-1
				c0.6,0,0.7-0.4,1.3-0.7c0.7-0.3,1.2-0.1,1.9,0.1c0.2,0.1,0.4,0.4,0.6,0.4c0.2,0,0.7-0.1,0.8,0.1c0.5,0.5,0.8,0.1,1.2-0.3
				c0.2-0.2,1.5,0.2,1.7,0.4c0.3,0.2,0.9,0.9,0.4,1.2c0.7,0.6,0.5,1.9,0.3,2.7c0,0.2-0.4,1.1,0,1.2c0.5,0.1,0.8,0.1,1.1,0.5
				c-0.3,0.3-0.8,0.1-1.2,0c-0.2,0-0.9-0.4-1.1-0.3c-0.5,0.1-0.9,0.2-1.4,0.2c-0.5,0-0.9,0.2-1.4,0.2c-0.7,0-0.3,0.4-0.4,0.9
				c-0.1,0.3-0.7,0.4-0.5,0.9c0.1,0.3,0.8,0.6,1,0.7c0.3,0.2,0.7,0.2,0.9,0.5c-0.7,0-1.1,0.3-1.7-0.1c-0.4-0.2-1.7-0.5-2-0.1
				c-0.1,0.1,0,0.7,0.1,0.8c0.3,0.3,0.4,0.2,0.8,0.3c0.8,0.2,1.1,0.7,1.6,1.3c0.4,0.5,1,1,1.4,1.5c0.2,0.3,0.2,1.4,0.6,1.4
				c0.4,0,0.6,0,0.9,0.2c0.3,0.2,0.5,0.5,0.7,0.7c0.1,0.1,0.2,0.3,0.3,0.3c0.2,0.1,0.2-0.2,0.3-0.2c0.3,0,0.5,0,0.7,0.3
				c0.7-0.9,1.4,0.8,1.4,1.4c-0.1,0.9-0.3,1.5,0.2,2.4c0.9-1.2,1.6-1.5,3-1.8c1.2-0.3,1.8-0.1,3,0.5c1,0.5,1.6,1.4,2.4,2.2
				c0.3,0.3,0.8,0.9,1.2,1c0.4,0.2,0.9-0.2,1.4-0.2c-0.5-2.3-1.2-4.5-1.7-6.8c-0.5-2.3-1-4.7-1.9-6.8c0.9,0.1,2.1-0.7,3-0.9
				c1-0.3,2.1-0.5,3.1-0.8c0.5-0.2,1-0.3,1.5-0.1c0.4,0.2,1,0.5,1.4,0.7c0.5,0.4,1.2,0.6,1.8,0.9c-1.7-7.3-4.5-14.2-8.2-20.5
				c-0.1,0-0.2,0-0.3,0C139.8,37.4,139.2,36.7,139,36.6z"/>
			<path class="st2" d="M121.2,57.8c-0.2,0.1-0.2,0.4,0,0.5C121.3,58.2,121.2,58,121.2,57.8z"/>
		</g>
		<g>
			<path class="st3" d="M90.2,130.7c0.2,0.1,0.5,0.5,0.7,0.5c0-0.6-1.2-0.7-1.4-1.2C89.4,130.5,89.9,130.6,90.2,130.7z"/>
			<path class="st3" d="M131.5,125.4c-0.2-0.1-0.4-0.3-0.7-0.5c-0.3-0.3-1.8-1-1.3-1.5c-0.4-0.1-0.7-0.4-1.1-0.5
				c-0.1,0-0.4-0.2-0.4-0.4c-0.1-0.2,0.2-0.3,0.2-0.3c-0.2-0.7-0.9-1.4-1.3-2c-0.1-0.2,0-0.7-0.4-0.7c-0.4,0-0.8,0-1.2,0
				c-0.3,0-1,0.1-1.2-0.1c-0.3-0.3-0.4-0.7-0.6-1.1c-0.4-0.9-1-0.6-1.8-0.8c-0.4-0.1-0.8-0.2-1.2-0.3c-0.4-0.1-0.7,0.1-1.1,0.1
				c-1.6-0.2-3.3-0.2-5-0.5c-0.7-0.5-1.4-1.1-2.1-1.6c-1.8-1.3-3.8-2.5-5.4-4.1c-1.7-1.6-3.7-2.6-5.8-3.7c-0.5-0.3-0.9-0.6-1.5-0.9
				c-0.4-0.2-1-0.2-1.4-0.2c-0.6-0.1-1.2-0.2-1.8-0.3c-0.7-0.1-0.8-0.3-1.2,0.3c-0.1,0.2-1.3,0.4-1.6,0.5c-0.4,0.1-0.9,0.4-1.3,0.5
				c-1.1,0.2-2.1,0.7-3.2,1c1.2,1.2,2.3,2.5,3.6,3.7c-0.4,0.2-0.9,0.3-1,0.8c-0.2,0.5-0.2,1-0.7,1.2c-0.5,0.1-1,0.2-1.5,0.3
				c-0.6,0.1-0.6,0.5-0.9,1c-0.4,0.8-1.2,1.7-2.2,1.5c-1-0.2-1.9-0.3-2.9-0.5c-0.1,0.8-0.3,1.6-0.3,2.5c0,0.5,0,0.9-0.1,1.3
				c-0.1,0.3-0.3,0.7-0.2,1c0.2-0.1,0.4-0.2,0.6-0.2c1.1,0,1.9,0.8,2.3,1.8c0.3,0.7,0.6,0.9,1,1.5c0.4,0.5,0.5,0.9,1,1.3
				c0.2,0.2,0.1,0.5,0.3,0.7c0.1,0.1,0.3,0.3,0.4,0.5c0.3,0.6,0.6,1.2,1,1.8c0.1,0.2,0.5,0.2,0.6,0.4c0.1,0.3,0.2,0.6,0.3,0.9
				c0.1,0.2,0.4,0.3,0.5,0.4c0.2,0.2,0.3,0.5,0.4,0.7c0.3,0.4,0.8,1,0.8,1.4c0,0.3,0.2,0.3,0,0.7c-0.1,0.2,0,0.4,0.2,0.6
				c0.3,0.5,0.6,1,0.9,1.5c0.1,0.2,0.3,0.2,0.5,0.2c0.3,0,0.3,0.2,0.6,0.3c0.1,0.1,0.3-0.1,0.4,0.1c0.1,0.1,0.1,0.2,0.2,0.3
				c0.3,0.1,0.5,0.3,0.8,0.5c0.4,0.3,0.6,0.9,0.9,1.3c0.3,0.5,0.8,0.9,0.9,1.5c0.2,0.5,0.4,0.8,0.7,1.3c-0.1,0-0.1,0-0.2,0
				c0.5,0.4,0.6,1.3,0.7,1.8c0.1,0.3-0.2,0.5-0.2,0.8c0,0.3,0,0.7,0,1c0,0.3,0.4,1.2,0.6,1.5c0.1,0.3-0.1,0.5,0,0.6
				c0,0.1,0.1,0.2,0.1,0.3C111.7,142.6,122.9,135.1,131.5,125.4z"/>
			<path class="st3" d="M89.7,129.6c-0.2,0.1-0.2,0.4,0,0.5C89.8,129.9,89.7,129.7,89.7,129.6z"/>
		</g>
		<g>
			<path class="st3" d="M92.8,148.5c0-0.1-0.1-0.2-0.1-0.3c-0.1-0.3-0.2-1.3,0.3-0.7c0-0.8-1.1-1.6-1.3-2.5
				c-0.1-0.5,0.2-1.1-0.4-1.1c-0.5,0-0.9,0-1.4,0c-1.8,0-3.6,0-5.5,0c-1.8,0-3.6,0-5.4,0c-0.8,0-1.7,0-2.5,0c-0.5,0-1.1,0-1.6,0
				c-0.3,0-1,0.2-0.8-0.3c0.1-0.6-0.3-0.3-0.5,0c-0.2,0.4-0.4,0.3-0.8,0.3c-1,0-1.9,0-2.9,0c-1.9,0-3.7,0-5.6,0c-3.7,0-7.4,0-11.1,0
				c0.1,1.1,0.1,2.3,0.2,3.4c7,2.2,14.4,3.3,22.2,3.3C81.4,150.6,87.2,149.8,92.8,148.5z"/>
		</g>
		<path class="st2" d="M9.7,62.3C9,62.3,9.8,61.6,9.7,62.3"/>
		<path class="st3" d="M30.5,53.9c0.1,0.1,0.3,0.2,0.4,0.1c0.2-0.2,0.5,0,0.7,0.1c0.5,0.1,0.4,0.2,0.8,0.5c0.3,0.3,0.6,0.3,0.8,0.6
			c0.2,0.4,0.6,0.1,0.6,0.5c0,0.2-0.1,0.8,0.1,0.8c0.3,0,0.7,0.6,0.9,0.7c0.2,0.1,0.8,0.2,1,0.3c0.2,0.2,0.3,0.7-0.2,0.7
			c0.2,0.2,0.4,0.2,0.7,0.3c-0.1,0.2-0.6,0.1-0.5,0.3c0,0,0.8,0.3,0.9,0.4c0.3,0.2,0.7,0.1,1,0.3c0.3,0.1,0.4,0.7,0.7,0.2
			c0.2-0.3,0.4-0.5,0.8-0.3c0.2,0.1,1,0.5,0.3,0.5c-1.1,0,0.3,1,0.4,1.2c-0.5,0-0.2,0.4-0.4,0.6c-0.5,0.3-0.4,0.5-0.4,1.1
			c0,0.3,0.3,0.7,0.5,0.9c0.3,0.4,0.6,0.4,0.9,0.8c0.4,0.4,0.6,0.3,0.4,0.8C41,65.3,40.6,66,40.4,66c-0.3,0-0.4-0.1-0.6,0.2
			c-0.2,0.3,0,0.1,0,0.4c0,0.4,0,0.7,0.3,0.9c-0.2,0.1-0.8,1-0.9,0.3c-0.2,0.1-0.5,0.3-0.7,0.3c-0.1,0-0.3-0.2-0.5-0.2
			c-0.5,0-0.7,0.7-1,0c0.3-0.2,0.6-0.6,0.5-1c0-0.4-0.1-0.3-0.5-0.4c-0.7-0.1-0.3-0.3-0.8-0.6c-0.3-0.1-0.5-0.5-0.8-0.7
			c-0.2-0.2-0.6-0.2-0.9-0.3c0,0,0-0.3,0-0.3c-0.2-0.1-0.2,0.2-0.4,0.2c-0.5,0-0.1,0.3-0.1,0.6c0,0.3-0.9,0.1-0.3,0.6
			c-0.3,0.4-1.1-0.4-1.5-0.6c-0.5-0.3-1.1-0.3-1.5-0.7c-0.3-0.3-1.5-0.8-0.9-1.2c0.1-0.1,0.6,0.1,0.7,0c0.3-0.3-0.2-0.7-0.4-0.9
			c-0.1-0.1-0.6-0.4-0.5-0.6c0.1-0.1,0.7,0.1,0.9,0c0.5-0.3-0.7-0.8-1-1c-0.3-0.2-0.3-0.2-0.3-0.6c0-0.4,0.1-0.5,0.3-0.8
			c0.1-0.2,0.4-0.6,0.1-0.9c-0.2-0.2-0.7-0.1-0.9,0.1c0.2-0.3,0.1-0.5,0-1c0.1-0.1,0.1-0.1,0.2-0.2c0.2,0.2,0.9,0.3,0.9-0.2
			c0-0.1-0.7-0.3-1-0.3c-0.4-0.1-0.1-0.6-0.5-0.8c-0.1-0.1-0.3-0.9-0.4-1.1c0.3-0.1,0-0.1,0.2-0.3c0.1-0.2,0.4,0,0.5-0.3
			c0.2,0.3,0.6,0.2,0.9,0c0.1-0.1,0.2-0.4,0.3-0.5C29.9,53.9,30.3,53.9,30.5,53.9"/>
		<path class="st2" d="M28.9,42.2c0.5-0.1,0.3,0.3,0.5,0.5c0.1,0.1,0,0.2,0.3,0.2c0.2,0,0.4,0.1,0.6,0.2c-0.1-0.4,0.4-0.9,0.8-0.9
			c0.4,0,0.8,0.2,1.2,0.2c0.2,0,0.3,0.3,0.5,0.1c0.2-0.2,0.3-0.2,0.5-0.3c0.5-0.3,1,0,1.5,0c0.2,0,0.5,0.1,0.7,0.2
			c0.3,0.1,0.2,0.3,0.4,0.5c0.3,0.2,1.1,0.5,1.4,0.5c0.1,0-0.3,0.9-0.4,1.1c-0.2,0.6-0.6,0.6-0.4,1.3c-0.2,0-0.5,0.1-0.7,0.2
			c-0.4,0.2-0.3,0-0.6,0c-0.3,0-0.5-0.7-0.9-0.7c-0.6,0-0.9,0.3-1.4,0c-0.5-0.2-1.2,0-1.4,0.5c-0.3,0.6-0.6,0.6-1.2,1
			c-0.4,0.3-0.8-0.4-1.2-0.3c-0.2,0-0.2,0.3-0.4,0.4c-0.3,0.1-0.5,0.1-0.8,0.2c-0.3,0-0.5,0.1-0.8,0.2c-0.5,0.2,0,0.4-0.1,0.6
			c-0.3,0.6-2.6,0.4-3.2,0.3c-0.4-0.1-0.8-0.8-1.2-0.8c-0.4,0-0.9-0.3-1.1-0.7c-0.3-0.6-0.3-0.7-0.1-1.3c0.1-0.2,0.4-1.3,0.8-1.1
			c0.4,0.2,1,0.2,1.4,0c0.2-0.1,0.4-0.3,0.5-0.3c0.1-0.1-0.1-0.2,0.1-0.2c0.2,0,0.3,0,0.4-0.2c0.1-0.1,0-0.5,0-0.6
			c0-0.3,0.7-0.2,0.7-0.5c0-0.4,0.9-0.4,1.3-0.4c0.4,0,0.2,0.3,0.5,0.3c0.6,0,0.4-0.2,0.8-0.5C28.3,41.3,28.9,41.8,28.9,42.2"/>
		<path class="st3" d="M20.4,52.1c0,0.3,0.3,0.5,0.5,0.7c-0.5-0.4-1-0.1-0.9,0.5c-0.4-0.3-0.7,0.2-1,0.3c-0.4,0.2-0.7,0.1-0.9,0.5
			c0.2,0.1,0.6,1,0.3,1c-0.3,0-1.2,0.3-0.8,0.7c-0.4,0.3,0.1,0.5,0,0.7c-0.3,0.4-0.9,0-1.1-0.1c-0.1-0.1-0.2,0.2-0.4,0.1
			c-0.1,0-0.4-0.3-0.5-0.3c-0.1-0.1-0.2-0.3-0.3-0.3c-0.2,0-0.3,0.3-0.4,0.4c-0.2,0.4-0.6,0.3-1,0.3c-0.2,0-0.2-0.2-0.4-0.2
			c-0.1,0,0.1,0.3-0.1,0.3c-0.2,0-1-0.1-0.9-0.3c0-0.1,0.7-0.3,0.9-0.3c-0.2-0.2-0.4-0.4-0.6-0.6c-0.3-0.3-0.4,0.1-0.4-0.5
			c0-0.3-0.3-0.2-0.3-0.3c0-0.3,0.3-0.5,0.5-0.7c-0.2-0.1-0.9-0.2-0.9-0.3c0-0.2,0.5-0.8,0.8-0.8c0.1,0,0.1-0.1,0.3-0.2
			c0.2,0,0.4,0,0.6,0c0.4,0,1,0.2,1.4,0.3c0.4,0.1,0.7-0.1,0.9-0.3c0.1-0.1,0.2-0.3,0.4-0.3c0.3,0,0.2-0.2,0.3-0.2c0.5,0,1,0,1.5,0
			c0.1,0,0.4-0.2,0.5-0.3c0.2-0.1,0.6,0.1,0.8,0.1c-0.1-0.5,0.1-0.7,0.6-0.7C20.2,51.4,20.2,51.8,20.4,52.1"/>
		<path class="st5" d="M103,87.5c0,0.5-0.5,0.7-0.7,1.1c-0.3,0.5-0.7,0.8-1.2,1c-0.7,0.2-0.9,0.3-0.9,1c-0.1,0.6,0.2,0.9,0.4,1.4
			c0.1,0.2,0.3,0.5,0.3,0.7c0,0.3-0.2,0.4-0.2,0.7c0,0.7-0.1,1.1,0,1.7c0.2,0.9,0.1,2.1-0.8,2.6c-2.1,1-4,2.5-6,3.7
			c-1,0.7-1.9,1.3-2.9,2c-0.4,0.3-0.8,0.6-1.2,0.9c-0.4,0.3-1.1,0.9-1.5,1c-0.5,0.1-1.2-0.2-1.6-0.5c-0.3-0.2-0.5-0.3-0.9-0.4
			c-0.2-0.1-0.3-0.5-0.5-0.6c-0.2-0.2-0.4,0.1-0.4-0.3c0-0.3,0.5-0.5,0.3-0.8c-0.3-0.3,0-0.9-0.4-1.3c0.1-0.1,0.3-0.6,0.3-0.8
			c0-0.2,0.2,0,0.2-0.2c0-0.1-0.2-0.3-0.3-0.4c0.1-0.3,0.5-0.6,0.9-0.7c0,0,0.5,0.4,0.5,0.1c0-0.2-0.6-0.2-0.3-0.5
			c0.2-0.2,0.9-0.6,0.7-1c-0.2-0.6-0.3-1-1-1c0.1-0.2,0.2-0.4,0.3-0.5c-0.3-0.4-0.7,0-1.1,0c-0.4,0-0.8-0.9-0.8-1.3
			c0-0.4,0.1-1.1,0-1.4c-0.1-0.2-0.4-0.5-0.5-0.7c-0.2-0.3-0.1-0.5,0-0.9c0.2-0.9,0.4-0.1,0.9-0.2c0.4,0,0-0.3,0.2-0.5
			c0.2-0.2,0.5,0,0.5-0.4c0-0.8,0.6-0.4,0.7-0.8c0-0.2-0.3-0.5-0.3-0.7c-0.1-0.2-0.1-0.7,0-0.9c0.1-0.3-0.1-0.3,0.3-0.3
			c0.2,0,0.6-0.1,0.8,0c0.2,0.1,0.2,0.4,0.5,0.5c0.2,0.1,0.7,0,0.9,0c0.5-0.1,0.9-0.3,1.4-0.5c0.3-0.1,0.4,0,0.7-0.3
			c0.4-0.3,0.4-0.2,0.9-0.1c0.4,0.1,0.8,0.3,1.2,0.5c0.5,0.2,1,0.2,1.6,0.2c1.2,0,2.2-0.4,3.3-1c0.5-0.3,0.9-0.6,1.5-0.6
			c0.3,0,0.7,0,0.9,0c0.3,0,0.5,0.2,0.8,0.1c0.6-0.2,1.3-0.2,1.9-0.4c0.3-0.1,0.3-0.4,0.6-0.4C102.9,86.8,102.9,87.2,103,87.5"/>
		<g>
			<path class="st2" d="M149.3,67.2c-0.3-0.1-0.6-0.2-0.9-0.3c-0.2-0.2-0.3-0.3-0.5-0.5c0.1,0.5-0.2,0.5-0.5,0.5
				c-0.3,0.1-0.4-0.3-0.7,0.2c0.3,0,0.7,0.5,1,0.6c0.3,0.2,0.5,0.8,0.1,0.5c-0.4-0.4-1.4-1.1-1.4-0.2c0,0.7-0.6,0.8-1.1,0.8
				c-0.8,0-0.5,0.3-1,0.8c-0.4,0.4,0,1.1,0.2,1.6c0.2,0.4,0.7,0.6,0.1,0.8c-0.4,0.2-1.1-0.1-1.5-0.2c-0.5,0-1.1,0-1.6,0
				c-0.4,0-1.1,0.4-1.4,0.1c-0.3-0.3-0.7-0.6-1.1-0.9c-1.4-1.4-2.8-3.3-5.1-2.7c-1.1,0.3-2.1,0.4-2.9,1.4c-0.3,0.4-0.4,0.4-0.2,0.8
				c0.1,0.2,0.3,0.5,0.4,0.7c0.3,0.3,0.9,0.8,0.9,1.2c0.3-0.3-0.1-0.4-0.2-0.7c-0.1-0.3,0-0.7,0-0.9c0-0.3-0.4-0.3-0.3-0.7
				c0.1-0.4,0.2-0.5,0.5-0.8c0.3-0.3,0.1-0.3,0.6-0.3c0.3,0,0.6,0,0.8-0.1c0.6-0.3,1,0.4,1.3,0.8c0.4,0.5,0.4,1,0.8,1.5
				c0.4,0.5,1.1,0.8,1.6,1.1c0.2,0.1,0.5,0.2,0.6,0.4c0,0,0.2,0.6,0.2,0.7c-0.2,0.5-0.8,0.2-1.2,0.2c0.1,0.2,0.2,0.5,0.3,0.7
				c-0.5,0.1-0.6-0.3-1.2,0c-0.7,0.4-0.6-0.3-1.2-0.5c-0.5-0.2-0.8,0.3-1.4,0c-0.2-0.1-0.8-0.5-0.8-0.9c0,0.9-0.3,1.9-0.1,2.8
				c0.1,0.4,0.4,0.7,0.6,1.1c0.2,0.4,0.6,0.5,0.9,0.9c-0.2-0.3-0.7-0.9-0.1-0.9c0.3,0,0.7,0.2,1,0.2c0.4,0,0.2,0.5,0.3,0.8
				c0.2,0.3,0.5,0.3,0.6,0.8c-0.5,0-0.9,0-1.2-0.3c-0.1,0.5-0.3,0.9,0,1.4c0.7-0.9,1.6,0.3,2,0.7c0.6,0.6,0.9,1.9,0.9,2.6
				c0,1,0.3,2,0.6,3c0.1,0.3,0.2,0.5,0.2,0.8c0,0.2,0.6,0.1,0.8,0.1c0.3,0,1-0.2,1.3-0.3c0.5-0.2,0.6-0.6,0.7-1.1
				c0.1-0.5,0.5-0.6,0.9-0.9c0.5-0.3,0.9-0.5,1.4-0.5c0.5,0,1,0.3,1.4,0.2c0.3-0.1,0.2,0,0.3-0.2c0.1-0.1-0.1-0.5,0.3-0.5
				c0.3,0,0.9-0.1,1.2,0c0.5,0.2,1-0.1,1.4,0.1c0.2,0.1,0.3,0.4,0.3,0.6c0,0.3,0,0.1,0.2,0.3c0.3,0.2,0.9,0.2,1.4,0.3
				c0.4-3,0.6-6.1,0.6-9.1c0-2.6-0.1-5.3-0.4-7.8c0,0-0.1-0.1-0.1-0.1C150,67.4,149.5,67.3,149.3,67.2z"/>
			<path class="st2" d="M134.9,81.4c0-0.1,0-0.1,0-0.2c-0.1-0.4-0.5-0.8-0.2-1.2C134.3,80,134.8,81.1,134.9,81.4z"/>
		</g>
		<path class="st5" d="M51.4,76.2c-0.3,0-0.6,0-0.9,0c0.1-0.5,0.4-0.2,0.7-0.5C51.4,75.9,51.4,76.1,51.4,76.2 M78.2,69.4
			c-0.1,0.5,0.5,0.8,0.9,0.9c0.2,0.1,0.6,0.3,0.7,0.3c0.3-0.1,0.7-0.3,1-0.3c0,0,0.6,0.3,0.5,0.2c0.2,0.3,0.3,0.6,0.5,0.9
			c0.3,0.6,0.8,0.5,1.2,0.4c0.5-0.2,0.8-0.2,1.4,0.2c0.3,0.2,0,0.3,0.5,0.4c0.3,0,0.6,0.1,0.9,0.1c0.6,0.1,0.9,0.3,1.5,0.5
			c0.5,0.2,1.3,0.4,1.8,0.3c1-0.3,2.3-0.7,3.3-0.4c0.3,0.1,0.5,0.1,0.8,0.2c0.3,0.2,0.3-0.1,0.7,0c0.6,0.2,1.1-0.1,1.7-0.4
			c0.4-0.2,0.7-0.5,1.1-0.7c0.3-0.1,0.6-0.3,0.9-0.4c0.3-0.1,0.2-0.4,0.5-0.4c0.1,0,0.5,0.2,0.7,0.2c0.3,0,0.3-0.2,0.6-0.2
			c0.4,0,1.1,0.3,1.4,0.2c0.3-0.1,0-0.3,0.3-0.5c0.3-0.2,0.5,0.1,0.6,0.3c0.3,0.4,1.3,0.5,1.3,1c0,0.5,1,0.1,1,0.5
			c0,0.6,1,0.6,1,1.2c0,0.2,0,0.5,0,0.8c0,0.2-0.2,0.3-0.2,0.4s0.2,0.2,0.2,0.3c0,0.7,0.5,1.1,1.1,1.3c0.6,0.2,1,0,1.6,0.3
			c0.5,0.2,1.1,1,1.4,1.1c-0.5,0.1-0.5-0.4-0.9-0.2c-0.2,0.1-0.1,0.8-0.3,1.1c-0.2,0.3-0.5,0.2-0.9,0.2c-0.3,0,0.2,0.7,0.3,0.8
			c0.1,0.1,0.3,0,0.3,0.2c0,0.1,0,0.3,0,0.4c0.1,0.2-0.1,0.3,0.1,0.4c0.2,0.1,0.4,0.2,0.4,0.4c0,0.9,0.1,1.5,0.9,1.8
			c-0.1,0.2-0.2,0.4-0.2,0.6c0,0.2-0.3,0.3-0.3,0.5c0,0.1-0.1,0.5,0,0.6c0,0,0.6,0.1,0.7,0.2c0.3,0.2,0.3,0.3,0.5,0.5
			c0,0.1,0.2,0.6,0.2,0.6c0,0.3,0,0.3,0.2,0.4c0.2,0.2,0.5,0.3,0.7,0.5c-0.2,0.1-0.2,0.3,0,0.5c-0.5-0.2-0.4-0.2-0.8,0.2
			c-0.3,0.2-0.6,0.7-0.9,0.3c-0.2-0.2,0-1-0.4-1c-0.2,0-0.2-0.2-0.4-0.2c-0.3,0.1-0.2,0.3-0.6,0.3c-0.4,0-0.7,0-1.1-0.2
			c-0.2-0.1-1-0.4-1.1-0.3c-0.2,0.1-1.1,0-1.1,0.1c-0.2,0.5-0.5,0.7-1,0.9c-0.1-0.4-0.5-1.1-0.8-0.4c-0.2,0.4-1.3,0.3-1.7,0.4
			c-0.2,0.1-0.4,0.2-0.7,0.2c-0.2,0-0.4-0.2-0.7-0.2c-0.6,0-1.1-0.1-1.6,0.2c-1.8,0.9-4.2,2.2-6.1,0.9c-0.2-0.1-1.1-0.5-1.2-0.4
			c-0.5,0.4-1,0.5-1.6,0.7c-0.5,0.2-0.8,0.3-1.4,0.3c-0.2,0-0.5,0-0.6-0.3c-0.2-0.3-0.4-0.3-0.7-0.3c-0.3,0-0.4-0.1-0.4,0.3
			c0,0.2,0,0.5,0,0.8c0.1,0.4,0.6,1,0.1,1c-0.3,0-0.4,0.1-0.4,0.4c0,0.6-0.1,0.2-0.3,0.6c-0.1,0.1-0.2-0.1-0.2,0.1c0,0,0,0.4,0,0.4
			c-0.2,0.1-0.6-0.2-0.7-0.3c-0.1,0-0.1,0-0.2,0c0.4-0.4-0.2-1-0.4-1.4c-0.2-0.4,0.5-0.9,0.8-1.2c0.3-0.3,0-1.1-0.4-1.2
			c-0.1,0-1.2,0.7-1.2,0.8c0,1-2.3-0.1-2.8-0.3c-0.8-0.4-1.7,1.6-2.3,1.9c-0.5,0.3-0.9,0.4-1.5,0.5c-0.4,0.1-1.3,0-1.6,0.2
			c-1.1,0.6-1.9-0.8-2.5-1.5c-0.4-0.4-0.8-0.3-1.3-0.5c-0.4-0.2-1.2-0.8-1.6-0.8c-0.6,0-1.1,0-1.7-0.1c-0.5-0.1-0.3,1-0.3,1.3
			c0,0.2-0.2,0.3-0.2,0.6c0,0.2,0,0.5-0.3,0.4c-0.1,0-0.4-0.3-0.5-0.3c-0.2,0.1-0.4,0.3-0.6,0.3c-0.5,0.1-0.9,0.4-1.3,0.1
			c-0.4-0.2-1.1-0.4-1.3-0.8c-0.1-0.3-0.3-1-0.6-1.1c-0.3-0.2-0.1,0-0.4,0c-0.2,0-0.5,0.1-0.6,0c-0.3-0.3-0.9-0.8-1.3-0.3
			c-0.3,0.4-1.1,0.6-0.6,0.2c-0.6,0-1.5,0.4-2,0c0.3-0.3,1-0.2,1.4-0.3c0.4-0.1,0.6-0.4,1-0.7c-0.8,0-1.6,0-2.4,0
			c-0.3,0-0.7,0.4-0.7-0.1c0-0.5,0.4-0.3,0.9-0.4c-0.1-0.2-0.2-0.4-0.3-0.5c-0.2-0.2-0.4-0.1-0.5-0.2c-0.3-0.3-0.2-0.9-0.6-1.1
			c-0.6-0.3,0.3-0.3,0.3-0.7c0-0.6-0.3-0.6-0.7-0.8c-0.4-0.2-0.6-0.4-0.9-0.6c-0.5-0.2-0.6,0.1-1-0.1c-0.1,0-0.4-0.3-0.4-0.4
			c0-0.2,0.3-0.3,0.3-0.3c0.1-0.4-0.4-0.7,0-1c0.3,0.4,0.5,0.2,0.5,0.8c0,0.4,0.4,0.7,0.3,0.1c0.3,0.4,1.1,0.1,1.4-0.2
			c-0.3,0.1-0.7,0.3-0.9-0.1c-0.1-0.2-0.5-0.7-0.4-0.8c0.2-0.2,0.8-0.4,0.6-0.8c0,0-0.9-0.1-0.6-0.4c0.3-0.3-0.2-0.5-0.4-0.7
			c-0.3-0.3,0.2-0.5,0.3-0.7c0.5-0.9-0.9-0.4-1.5-0.2c-1,0.3-0.8-0.6-0.8-1.3c0-0.2,0-0.3,0-0.5c0-0.2,0.3-0.2,0.4-0.3
			c0.3-0.4,0.6-0.7,0.9-1c0.3-0.3,0.6-0.3,1.1-0.3c0.1,0,0.9-0.4,0.9-0.1c0,0.1,0.5,0.4,0.7,0.4c0.3-0.1,0.8-0.1,1-0.3
			c-0.2-0.1-0.3-0.2-0.5-0.3c0.2,0,0.4-0.2,0.6-0.1c0.4,0.2,0,0.4,0.1,0.5c0.4,0.3,0.9,0,1.4,0c0.5,0,1.1,0,1.6,0
			c0.3,0,0.5-0.1,0.2-0.3c-0.2-0.2-0.5,0.1-0.7-0.2c0.8-0.6,2-0.7,3-0.7c0.2,0-0.2-0.2-0.2-0.2c-0.3,0-0.7-0.1-1-0.1
			c-0.2,0-1.2-0.5-1.2-0.7c0,0.1,0.2-0.7,0.2-0.7c0.2-0.2,0.4-0.2,0.7-0.2c0.6,0,1.3,0.2,1.8,0.3c0.4,0.1,0.9-0.2,1.4-0.1
			c0.6,0.1,1.2,0.3,1.9,0.3c0.7,0,0.9-0.1,1.2-0.8c0.1-0.4,1.2-0.7,1.6-0.9c0.4-0.2,0.6-0.6,1-0.8c0.6-0.3,1.1-0.2,1.7-0.4
			c0.4-0.1,0.8-0.5,1.3-0.5c0.8,0.1,1.5,0.1,2.3,0.2c0.5,0,1.1,0,1.6,0c0.6,0,0.8-0.4,1.5-0.2C78.1,69.2,78.2,69.3,78.2,69.4
			 M54.8,69.3c0.2,0.1,0.4,0.3,0.5,0.3c0.2,0,0.2-0.2,0.4-0.2c0.5,0,0.6-0.2,1.1,0c-0.5,0.5,0.6,1.5,1,1.8c0.7,0.5,1.6,0.6,2.3,0.9
			c0.2,0.1,0,0.8-0.1,0.9c-0.2,0.2-1-0.1-1.2-0.1c-0.4-0.1-0.8-0.3-1.2-0.2c-0.4,0.1-0.6,0.3-1.1,0.3c-0.4,0-0.9-0.2-1,0.3
			c-0.1,0.2-0.2,0.9-0.5,1c-0.9,0.3-1.5,0.6-2.1,1.3c-0.3,0.2-0.4,0.6-0.6,0.8c-0.4,0.4-0.1-0.4-0.1-0.5c0-1,1.2-0.7,1.4-1.4
			c-0.5,0-1.1,0-1.6,0c-0.9,0-0.4-0.3-0.2-0.8c0.1-0.2,0.4-0.4,0.5-0.6c0-0.2-0.2-0.4-0.2-0.6c0-0.6,0.7-0.6,0.7-1
			c0-0.7-0.4-0.8-0.9-1.1c-0.3-0.2,0.6-0.5,0.6-0.8c0-0.1,1-0.2,1.2-0.3C54,69.1,54.7,68.5,54.8,69.3"/>
		<path class="st2" d="M66.4,53.8c0.2,0.1,0.3,0.1,0.5,0.2c-0.7,0-1.8,0-2-0.7c0.2,0.1,0.4,0.3,0.6,0.3
			C65.8,53.7,66.1,53.7,66.4,53.8 M66.6,31.6c0.3,0,0.6,0,0.9,0c0.4,0,0.6,0.4,0.9,0.6c0.4,0.4,0.8,1.4,1.4,1.4
			c-0.2,0.3-0.6,0.1-0.9,0.3c0.3,0.3,0.5,1.2,0.9,1.2c-0.5,0.4,0.6,0.4,1,0.5c0.4,0.1,0.9,0,1.3,0c0.1,0,0.1,0.4,0.3,0.5
			c0.1,0.1,0.5-0.1,0.5,0.1c0,0.4,0.4,1,0.7,1.3c-0.4,0.3,0.2,0.7,0.4,0.9c0.5,0.5,0.7-0.1,1.2-0.1c0.4,0,0.6,0.4,0.9,0.5
			c0.4,0.2,0.7-0.1,1,0.3c0.4-0.5,1.2-0.5,1.7-0.7c0.5-0.1,0.4-0.3,0.8,0.1c0.3,0.3,0.4,0.6,0.7,0.9c0.2,0.2,0.6,0.4,0.9,0.6
			c0.1,0.1,0.3,0.2,0.4,0.2c0.2,0,0-0.3,0.1-0.3c0.4-0.2,0.4-0.2,0.8,0.1c0.3,0.2,0.6-0.1,0.9,0.2c0.3,0.3,0.6,0.3,0.9,0.3
			c0.2,0,0.2,0,0.3-0.1c0.3-0.2,0.2,0.2,0.3,0.3c0.2,0.1,0.6,0.1,0.7,0.2c0.3,0.2,0.7,0.5,1.1,0.5c0.2,0,0.6-0.1,0.8,0
			c0.3,0.2-0.1,0.2,0,0.3c0.1,0.2,0.3,0.3,0.3,0.5c0.2,0.7-0.4,1.2-1,1.2c0.3,0.3,0.8,0.7,1.2,0.7c-0.2,0.3-0.5,0-0.7,0.2
			c-0.3,0.2-0.1,0.5-0.3,0.7c0.1,0,0.6,0.1,0.7,0.2c0.2,0.2,0.1,0.5,0.3,0.7C88,46,87.9,46,87.9,46.1c0.5,0.2,0.2,0.8,0.2,1.4
			c0,0.5-1.5,0.3-1.8,0.3c-0.2,0-0.8-0.1-0.9,0c-0.1,0.1-0.1,0.4-0.2,0.5c-0.1,0.1-0.3,0.2-0.4,0.2c-0.2,0.1-0.8,0.1-0.8,0.4
			c0,0.3,0.1,0.6-0.2,0.8c0.7,0.3-0.1,0.5,0.3,0.9c-0.3,0.4-0.8,0-1.2,0c-0.5,0-0.9,0.2-1.2,0.5c-0.3,0.3-0.8,0.1-1.1,0.4
			c-0.5,0.5-0.5,0.3-1.2,0.3c-0.4,0-0.6,0.5-0.9,0.5c-0.4,0-0.8-0.3-1.3,0.1c-0.4,0.4-1.4,1.9-2,1.8c0.5-0.3,1-0.6,0.5-1.2
			c-0.1,0.2-0.2,0.3-0.3,0.5c-0.2,0.3-0.2,0-0.4,0.2c-0.5,0.4-0.2,0.4-0.2,0.9c0,0.7,1.1,1.6,1.5,2.1c0.3,0.4,0.4,0.2,0.8,0.4
			c0.4,0.2,0.6-0.1,0.9-0.2c0.2,0,0.4,0,0.5,0c0.2-0.1,0.3-0.3,0.5-0.3c0.4-0.1,0.8,0.2,1.2,0.3C80.2,57,80.1,58,79.9,58
			c-0.6,0.2-1.1,0.1-1.6,0c-0.4-0.1-0.9-0.4-1.1,0.1c-0.1,0.4-0.3,0.3-0.7,0.4c-0.3,0.1-0.1,0.4-0.7,0.4c-0.4,0-1,0-1.3,0.4
			c-0.3,0.4-0.7,1.1-1.2,1.1c-0.6,0-0.9-0.2-1.4-0.4c-0.3-0.2,0-1,0-1.4c0-0.4-0.2-1-0.7-1.1c-0.1,0-0.3,0.1-0.4,0.1
			c-0.2,0.1-0.1-0.1-0.2-0.1c-0.3-0.1-0.6-0.4-0.9-0.5c-0.2-0.1-1.3-0.1-1.2-0.2c0.5-0.6,0.8-0.9,1.5-1.3c0.2-0.1,0.4,0.1,0.6-0.1
			c0.2-0.1,0.4-0.3,0.6-0.4c0.3-0.2,0.4-0.2,0.2-0.6c-0.2-0.3-0.4-0.1-0.7-0.2c-0.2,0-0.5-0.3-0.7-0.3c-0.2,0-0.5,0.2-0.8,0.2
			c-0.6,0-1.1,0.2-1.7,0c-0.5-0.2-0.9-0.5-1.4-0.5c-0.9,0,0.1-0.4,0.3-0.5c-0.2-0.3-0.5-0.2-0.8-0.2c-0.3,0-0.4-0.2-0.8-0.3
			c0.6,0,1.1,0.1,1.7,0.2c0.7,0.1,0.9,0,1.4-0.5c-0.7,0.4-1.4,0.4-1.9-0.3c-0.3-0.5-0.3-1.4-1-1.7c0.5,0.4,0.7,0.9,0.8,1.5
			c0.2,0.8-0.7,0.6-1.1,0.4c0.1-0.1,0.1-0.3,0.2-0.3c-0.1,0.1-0.6,0.7-0.8,0.7c-0.5-0.2-0.8,0-1.3,0.1c-0.4,0.1,0,0.6-0.2,0.8
			c-0.2,0.2-0.4,0.7-0.6,0.9c-0.6,0.7-1,1.2-2,1.2c-0.6,0-0.3,0.5-0.1,0.8c0.2,0.3,0.6,0.8,0.2,1.1c-0.5-1.4-1.8-0.1-2.7-0.2
			c0.1,0.1,0.1,0.1,0.2,0.2c-0.6,0-1.5-0.2-1.9-0.7c0.3-0.4,0.7-0.3,0.9-0.5c0.1-0.2-0.2-0.3,0-0.6c0.1-0.2,0.4-0.2,0.6-0.4
			c0-0.1,0.1-0.4,0.2-0.5c0-0.1,0.3-0.1,0.3-0.2c0.1-0.1,0-0.3,0-0.3c0.1-0.3,0.1-0.2-0.1-0.6c-0.1-0.1-0.2-0.4-0.1-0.5
			c0.2-0.2,0.8-0.7,0.8-0.2c0,0.8,0.1,0.1,0.6,0.1c0.2,0,0.3,0.2,0.5,0.2c0.2,0,0.3-0.2,0.5-0.2c0.1,0,0.3,0.3,0.4,0.3
			c0.2,0.1,0.5,0,0.7-0.2c-0.2-0.1-0.6-0.3-0.7-0.5C60,52.3,60.2,52,60,51.8c-0.3-0.3-1.1-0.4-1.1-0.9c0-0.2-0.3-0.3-0.3-0.5
			c0-0.3,0.3-0.3,0-0.6c-0.1-0.1-0.5-0.2-0.7-0.3c-0.3-0.2-0.5-0.3-0.7-0.5c0.5-0.4-0.2-1.9-0.4-1.6c-0.5,0.5-1-1.3-1.8-0.4
			c-0.1-0.2-0.2-0.1-0.2-0.3c-0.1,0.1-0.1,0.1-0.2,0.2c0.1-0.5-0.3-0.2-0.6-0.4c-0.4-0.2-0.6-0.4-1-0.6c-0.9-0.4-1.4,0.1-2.3,0.1
			c-0.5,0-0.6,0.1-1,0.3c-0.1,0-0.2,0.2-0.2,0.2c-0.1,0-0.7-0.1-0.8,0c0.1,0-0.2,0.5-0.2,0.5c-0.2,0.3-0.1,0.3-0.4,0.4
			c-0.5,0.1-1,0.1-1.6,0.3c-0.4,0.1-0.8,0.3-1.2,0.5c-0.5,0.3-0.6,0.2-1-0.2c-0.4-0.4-0.5-0.4-1-0.4c-0.2,0-0.3,0.2-0.5,0.2
			c-0.2,0-0.4-0.1-0.6-0.2c-0.4-0.1-0.7-0.2-1.1-0.2c-0.2,0-0.5,0-0.7,0c-0.2,0-0.4-0.3-0.6-0.3c-0.4,0-0.5,0.5-0.9,0.5
			c0,0-0.4-0.6-0.4-0.7c-0.3,0.5-0.5-0.2-0.7-0.3c-0.1-0.1-0.7,0-0.7-0.3c0-0.3-0.2-0.4-0.4-0.4c-0.6,0,0-0.8,0.1-0.9
			c0.2-0.2,0.2-0.5,0.3-0.8c0-0.1,0.3-0.7,0.3-0.7c0.2-0.1,0.7,0.4,0.9,0.2c0.1-0.1-0.5-0.5-0.5-0.7c0,0,0.2-0.2,0.2-0.3
			c0,0-0.2-0.4-0.3-0.4c-0.1-0.3-0.1-0.5,0-0.8c0.4-0.6,0.8-1.2,1.4-1.6c0.3-0.2,0.4-0.5,0.7-0.7c0.1-0.1,0.2-0.3,0.3-0.3
			c0.2-0.1,0.5,0.1,0.7,0c0.4-0.2,0.6-1.3-0.2-1.4c0.7-0.3,0-0.5-0.2-0.9c-0.2-0.6-0.5-0.8-1-1.1c0.1-0.1,0.1-0.1,0.2-0.2
			c-0.2-0.1-0.3-0.4-0.3-0.6c0-0.3,0.1-0.3,0.4-0.3c0.2,0,0.5,0.2,0.6,0.2c0.1,0,0.5-0.5,0.7-0.6c0.2-0.1,0.2-0.5,0.3-0.5
			c0.2,0,0.4-0.2,0.7-0.2c0.2,0,0.5,0,0.7,0c0.3,0,0.5-0.2,0.7-0.2c1.1,0,2.2,0.2,3.3,0.3c0.5,0.1,0.9,0.2,1.3,0.3
			c0.4,0.1,1.1-0.1,1.4,0.2c0.1,0.1,0.4,0.5,0.5,0.5c0.2,0,0.4-0.2,0.7-0.2c0.2,0,0.5,0.5,0.3,0.5c0.3,0,0.3-0.3,0.4-0.3
			c0.5,0,0.8-0.2,1.2,0c0.2,0.1,0.5,0,0.7,0c0.3,0,0.4,0.5,0.6,0.5c0.4,0,0-0.3,0.3-0.3c0.1,0,0.4-0.2,0.5-0.3
			c0.4-0.4,0.6,0.4,0.9,0.6c0.3,0.2,0.2,0,0.6,0c0.2,0,0.5,0,0.7,0c0.7-0.2,1-0.1,1.5,0.2c0.5,0.3,0.5,0.4,1.1,0.2
			c-0.6-0.8-0.6-1.5,0.2-2.2c0.1-0.1,0.3-0.3,0.4-0.4c0.1-0.1,0.4,0.1,0.6,0.1c0.2,0,0.5-0.2,0.8-0.2c0.2,0,0.5,0,0.7,0
			c0.4,0,0.7,0.3,1.1,0.2c0.2-0.1,0.3-0.2,0.4-0.4c0.1-0.5,0.1-0.3,0.4-0.5c0.2-0.2,0.9,0.3,1.3,0.3c0.2-0.1,0.4-0.3,0.6-0.3
			C66.1,31.6,66.3,31.6,66.6,31.6"/>
		<g>
			<path class="st2" d="M145.9,56.7c-0.2-0.1-0.4-0.3-0.6-0.4c-0.3-0.2-0.3,0-0.6,0c-0.5,0.1-0.9,0.2-1.4,0.3
				c-0.5,0.1-1,0.3-1.5,0.4c-0.4,0.1-0.9,0.1-1.4,0.3c-0.5,0.2-1,0.3-1.4,0.5c-0.4,0.2-0.7,0.4-1.2,0.3c0.4,1,0.8,2.2,1,3.2
				c0.4,2,1.1,4,1.6,6.1c0.2,1,0.6,1.9,0.8,2.9c0.1,0.4,0.1,1.4,0.5,1.4c0.5,0,1.1,0,1.6,0.1c0.3,0.1,1.2,0.3,1.5,0
				c0.2-0.2-0.4-1-0.5-1.3c-0.1-0.2-0.3-0.6-0.2-0.9c0-0.2,0.4-0.4,0.4-0.6c0.2-0.6,0.8-0.4,1.4-0.4c0.5,0,0.6-0.7,0.6-1.1
				c0-0.3,0.9,0,1,0.1c0.2,0.1,0.4,0.5,0.6,0.5c0.3,0-0.1-0.4-0.2-0.5c-0.2-0.2-0.8-0.7-1.1-0.7c0.3-0.4,0.4-0.2,0.8-0.2
				c0.3,0,0.5-0.2,0.4-0.5c0.4,0.4,1.1,1,1.8,1c0.2,0,0.3,0.1,0.4,0.2c-0.3-3.3-0.9-6.5-1.7-9.6c-0.1,0-0.1,0-0.2-0.1
				C147.6,57.6,146.7,57,145.9,56.7z"/>
		</g>
		<path class="st3" d="M9.9,69.6"/>
		<g>
			<path class="st2" d="M3.7,24.1C3.6,24,2.8,23.5,2.9,24C2.9,24.2,3.6,24.1,3.7,24.1z"/>
		</g>
		<g>
			<path class="st2" d="M4.9,37.6c0.9,1.2,1.7,1.6,2.5,1.9C7.3,39.5,6.9,39,7,38.9c0.2-0.2,0.6,0.2,0.7,0.3c0.2-0.5,0.4-0.5,0.8-0.7
				c0.3-0.1,0.6-0.3,0.9,0c0.3-0.3,0.7-0.5,1-0.7c0.2-0.1,0.2-0.2,0.4-0.2c0.3,0,0.2-0.3,0.3-0.3c0.4-0.2,0.8-0.1,1.3-0.3
				c0.3-0.2,0.8-0.3,1.1-0.4c-0.2-0.1-0.4-0.2-0.5-0.3c0.2-0.3,0.7-0.2,0.9,0.1c0.1,0.1,0.3,0.6,0.3,0.6c0.6,0.2,1.1-1.1,1-1.5
				c0-0.1-0.4-0.8-0.5-0.9c-0.4-0.3-0.5,0-0.5-0.6c0-0.4-0.5-0.3-0.2-0.8c0.1-0.3-0.1-0.6,0.2-0.8c0,0-0.7-0.8-0.7-0.9
				c0-0.4,0.3-0.9-0.2-1.1c-0.5-0.2-1.1-0.3-1.1-0.9c0-0.2,0.3-0.4,0.4-0.5c0.3-0.2,0.3-0.2,0.3-0.6c0-0.5-0.2-1-0.5-1.4
				c-0.2-0.3,0.1-0.2-0.3-0.4c-0.2-0.1-0.6-0.1-0.8-0.3c-0.2-0.2-0.4-1.2-0.8-1.2c-0.6,0-1.1-0.1-1.6-0.5C8.3,24.3,8,24.2,7.4,24
				c-0.1,0-0.9,0.7-1.1,0.8c-0.4,0.3,0,0.3-0.6,0.3c-0.3,0-0.5,0-0.8,0.2c-0.2,0.1-0.4,0.5-0.7,0.5c0,0-0.1,0-0.1,0
				c0.2,0.3,0.4,0.5,0.8,0.8c0.6,0.6,0.7,1.4,0.6,2.3c0,0.5,0.2,1,0,1.4c-0.4,0.7,0.2,1.5,0.4,2.2c0.1,0.4-0.5,0.8-1,1.2
				c-0.4,0.1-0.8,0.4-0.7,1.7C4.1,35.8,4.4,36.7,4.9,37.6z"/>
		</g>
		<polygon class="st4" points="21.3,44.5 21.7,45.6 25.9,44.1 26.6,42.2 26.2,41.4 23.2,41.7 		"/>
		<path class="st2" d="M31.8,67.4c0.1,0.5,0.7-0.3,0.9-0.1c0.2,0.2,0.3,0.5,0.4,0.7c0.1,0.1,0.5,0.1,0.6,0.2
			c0.4,0.2,0.6,0.7,0.6,1.2c0,0.2,0,0.4-0.1,0.7c-0.1,0.4,0.1,0.4,0.1,0.7c0,0.2-0.2,0.2-0.2,0.4c0,0.1,0.1,0.6,0.2,0.7
			c0.1,0.3,0.3,0.9,0.6,1.1c0,0,0.3,0.5,0.3,0.5c0.2,0.1,0.5-0.1,0.7,0c0.1,0.1-0.1,0.5,0.1,0.6c0.2,0.2,0.4,0.3,0.2,0.5
			c-0.1,0.1,0,0.4-0.2,0.4c-0.4,0-0.3,0.1-0.4,0.3c-0.2,0.3-0.2,0.9-0.4,1.1c-0.3,0.3-0.6,0.1-0.8,0.4c-0.1,0.1-0.2-0.1-0.2,0.1
			c0,0.1,0.2,0.2,0.2,0.3c0,0.1,0.2,0.1,0.2,0.3c0,0.2-0.2,0-0.2,0.1c0,0-0.2,0-0.2,0.3c0,0.3,0,0.3-0.3,0.3c-0.6,0-0.6-0.4-0.8-0.9
			c-0.4-0.9-1.5-1.1-2-1.9c0.7,0.2,0-0.8,0-1.1c0-0.7,0.3-1.3,0.2-2c0-0.3-0.3-0.4-0.1-0.8c0.1-0.3,0.3-0.5,0.3-0.9
			c0-0.3,0-0.8-0.4-0.8c-0.4,0-0.6-0.1-0.3-0.5c-0.4,0,0-0.4-0.3-0.6c-0.1-0.1,0.3-0.7,0.4-0.9c0.1-0.1,0.5-0.8,0.5-0.9
			C31.9,66.8,31.4,67.4,31.8,67.4"/>
	</g>
</g>
<ellipse transform="matrix(0.7071 -0.7071 0.7071 0.7071 -31.2114 75.4148)" class="st6" cx="75.4" cy="75.4" rx="70.2" ry="70.2"/>
</svg>
