<!-- Generator: Adobe Illustrator 24.2.3, SVG Export Plug-In  -->
<svg version="1.1" xmlns="http://www.w3.org/2000/svg" xmlns:xlink="http://www.w3.org/1999/xlink" x="0px" y="0px" width="15.3px"
	 height="11.8px" viewBox="0 0 15.3 11.8" style="overflow:visible;enable-background:new 0 0 15.3 11.8;" xml:space="preserve">
<style type="text/css">
	.st0{fill:#1F2E7A;}
</style>
<defs>
</defs>
<g>
	<path class="st0" d="M13.9,9.7c-0.8-0.2-1.6-0.3-2.4-0.3c-1.2,0-2.9,0.5-3.8,1v-8c0.9-0.6,2.6-1,3.8-1c0.8,0,1.7,0.1,2.4,0.3V9.7z
		 M13.9,0.3C13.1,0.1,12.3,0,11.4,0c-1.4,0-2.8,0.3-3.8,1c-1-0.8-2.5-1-3.8-1C2.5,0,1,0.3,0,1v10.2c0,0.2,0.2,0.3,0.3,0.3
		c0.1,0,0.1,0,0.2,0c0.9-0.5,2.3-0.8,3.3-0.8c1.4,0,2.8,0.3,3.8,1c0.9-0.6,2.6-1,3.8-1c1.1,0,2.3,0.2,3.3,0.7c0.1,0,0.1,0,0.2,0
		c0.2,0,0.3-0.2,0.3-0.3V1C14.8,0.7,14.4,0.5,13.9,0.3"/>
</g>
</svg>
