<!-- Generator: Adobe Illustrator 24.2.3, SVG Export Plug-In  -->
<svg version="1.1" xmlns="http://www.w3.org/2000/svg" xmlns:xlink="http://www.w3.org/1999/xlink" x="0px" y="0px" width="152px"
	 height="151.8px" viewBox="0 0 152 151.8" style="overflow:visible;enable-background:new 0 0 152 151.8;" xml:space="preserve">
<style type="text/css">
	.st0{clip-path:url(#SVGID_2_);fill:#FFFFFF;}
	.st1{clip-path:url(#SVGID_2_);}
	.st2{fill:#B3B3B3;stroke:#FFFFFF;stroke-width:0.2777;stroke-linecap:round;stroke-linejoin:round;}
	.st3{fill:#B3B3B3;stroke:#FFFFFF;stroke-width:0.3996;stroke-linejoin:round;stroke-miterlimit:10;}
	.st4{fill:#B3B3B3;}
	.st5{fill:#141F52;stroke:#FFFFFF;stroke-width:0.2777;stroke-linecap:round;stroke-linejoin:round;}
	.st6{fill:none;stroke:#FFFFFF;stroke-miterlimit:10;}
	.st7{clip-path:url(#SVGID_4_);fill:#FFFFFF;}
	.st8{clip-path:url(#SVGID_4_);}
</style>
<defs>
</defs>
<g>
	<defs>
		
			<ellipse id="SVGID_1_" transform="matrix(0.7071 -0.7071 0.7071 0.7071 -30.8558 76.2734)" cx="76.6" cy="75.4" rx="70.2" ry="70.2"/>
	</defs>
	<clipPath id="SVGID_2_">
		<use xlink:href="#SVGID_1_"  style="overflow:visible;"/>
	</clipPath>
	
		<ellipse transform="matrix(0.7071 -0.7071 0.7071 0.7071 -30.8558 76.2734)" class="st0" cx="76.6" cy="75.4" rx="70.2" ry="70.2"/>
	<g class="st1">
		<path class="st2" d="M150.6,78.2c-0.5-0.2-0.3,0.2-0.6,0.2c-0.3,0-0.2-0.3-0.4-0.3c-0.6,0-0.5-0.9-1.2-0.6c-0.4,0.2-1,0-1.3-0.3
			c-1.4-1.4-0.1,0.9-1,0.9c0.5,0.4,0.1,1.4,0.3,1.5c-0.1,0.1-0.3,0.4-0.3,0.6c0,0.4-0.2,0.3-0.3,0.6c-0.1,0.1-0.2-0.1-0.2,0.2
			c0-0.1,0.2,0.1,0.2,0.1c0.1,0.2,0.3,0.4,0.5,0.6c-0.5,0-0.9-0.1-1,0.4c-0.2,0.6,0.1,0.7,0.2,1.3c0.1,0.4-0.1,0.8,0.4,1.1
			c0.4,0.2,0.8,0,1.1,0.3c-0.3,0.3-1.1,1.4-0.8,1.8c0.5,0.4,0.6,1.3,0.9,1.9c0.3,0.8,0.6,1.3,0.6,2.2c0,0.3,0.1,0.7,0.2,1
			c0.1,0.5,0.1,0.6,0.5,0.6c0.5,0.1,1,0.1,1.5,0.2c1.1-4.8,1.8-9.7,1.9-14.8C151.4,77.8,151,78.4,150.6,78.2z"/>
		<path class="st2" d="M129.7,119.5c0,0.3-0.7,0.2-1,0.2C129,119.3,129.4,119.3,129.7,119.5 M125.5,119.1c-0.1-0.2-0.2-0.2,0-0.3
			C125.7,119,125.6,119,125.5,119.1 M127.7,119.3c-0.2,0-0.2,0-0.3-0.2c0.3-0.1,0.5-0.3,0.7-0.5
			C128.1,118.9,127.9,119.1,127.7,119.3 M131.3,118.6c-0.4,0.1-0.4-0.1-0.2-0.3C131.3,118.4,131.3,118.5,131.3,118.6 M136.4,114
			c0.2,0.2,0.3,0.3,0.3,0c0.9,0.6,0,2,0.7,2.6c-0.5,0-0.9,1.6-1.4,0.3c0.4-0.1,0-0.3-0.3-0.3c-0.4,0-0.3,0.5-0.3,0.8
			c0,0.3,0,0.6,0,0.9c0.1,0.4,0.3,0.6,0,1c0.2,0,0.7,0.1,0.7,0.3c0,0.3,0.4,0.4-0.1,0.4c-0.2,0-0.4,0.2-0.7,0.2
			c-0.4,0-0.5,0-0.8,0.3c0.7,0.2,0,1.5-0.2,2c-0.1,0.4-0.3,0.9-0.3,1.3c0,0.2,0.2,1.3,0.1,1.3c-0.7,0.3-1.6,0-2.3,0
			c-0.9-0.1-1.9-0.5-2.8-0.5c-0.9,0-1.8-0.3-2.7-0.3c-0.2,0-0.3,0-0.5,0c-0.4,0-0.2-0.1-0.4-0.3c-0.3-0.3-0.6-0.7-0.8-1.1
			c-0.1-0.2-0.3-0.2-0.4-0.3c-0.1-0.2-0.2-0.3-0.4-0.5c-0.3-0.3-0.5-0.7-0.8-1c-0.4-0.4-1.3-1.5-0.8-2c0,0.3,0.1,0.4,0.3,0.2
			c0.3,0.3,0.2,0.7,0.5,1c0.4,0.3,0.8,0.2,1.3,0c0.9-0.3,1.4-0.6,2.5-0.5c0.8,0.1,1.8,0.5,2.6,0.3c0.8-0.1,1.6-0.7,2-1.4
			c0.3-0.6,0.7-1.4,1.2-1.9c0.6-0.5,1.4-1.1,1.6-1.9c0.1-0.4,0.6-0.7,0.9-1c0.4-0.3,0.5-0.6,0.6-1.1c0.1-0.3,0.1-0.3,0.3-0.3
			c0.2,0,0.1,0.4,0.1,0.5C136.2,113.4,136.1,113.8,136.4,114 M136.7,115.7C137.1,115.4,136.7,115.2,136.7,115.7"/>
		<path class="st3" d="M94.3,58.1c0,0.1,0,0.1,0,0.2C94.1,58,94.1,57.7,94.3,58.1 M92.6,56c0.2,0,0.2,0,0.3,0.2
			c-0.1,0-0.2,0.1-0.3,0.2c0.5,0.3,1.2,0.3,1.6,0.8c0.3,0.3-0.3,0.4-0.4,0.6c-0.1,0.3,0.2,0.5,0.4,0.7c0.3,0.5,0.4,0.5,0.9,0.6
			c0.2,0.1,0.9,0.5,0.9,0.7c0,0.1-0.3,0.5-0.3,0.5c-0.4,0.2-0.6,0-0.9,0.2c0.2,0.1,0.4,0.2,0.6,0.3c0.3,0.1,0.3,0.3,0.5,0.5
			c0.2,0.1,1,0.8,1.2,0.8c0.4-0.2,1.3,0.2,0.7,0.5c-0.4,0.2,0.6,0.7,0.8,0.9c-0.3,0-0.7-0.1-0.7,0.2c0-0.1,0.3,0.3,0.3,0.3
			c0.1,0.2,0.2,0.4,0.2,0.7c-0.4-0.1-0.5-0.2-0.9,0c-0.3,0.1-0.4-0.1-0.4-0.4c0-0.3-0.4-0.4-0.5-0.6c0-0.1,0.2-0.3,0.2-0.3
			c-0.1-0.1-0.3-0.2-0.4-0.2c-0.5-0.3-0.3-0.9-0.8-1c-0.3,0-0.4,0.3-0.7,0.3c-0.2,0-0.5-0.4-0.7-0.5c-0.4,0.5-0.2,0-0.3-0.2
			c-0.4-0.4-0.3-0.2-0.9-0.2c-0.6,0-1.1-0.7-1.7-1c-0.6-0.3-1.1-0.1-1.7-0.3c-0.4-0.1-0.5-0.2-0.6-0.5c-0.1-0.2-0.2-0.7-0.4-0.9
			c-0.3-0.3,0.3-1.1,0-1.5c-0.2-0.3-1.5-1.2-0.6-1.2c0.3,0,0.6,0,0.9-0.1c0.2-0.1,0.3,0,0.5,0c0.2,0,0.2-0.2,0.3-0.2
			c0.3,0,0.6,0.2,0.9,0.2c0.1,0,0.2-0.2,0.4-0.2c0.2,0,0.4,0,0.6,0c-0.1-0.1-0.1-0.1-0.2-0.2c0.2,0,0.4,0,0.6,0
			C92.3,55.7,92.4,56,92.6,56 M92.3,56.5c0.1,0.1,0.1,0.1,0.2,0.2C92.5,56.4,92.4,56.2,92.3,56.5"/>
		<path class="st3" d="M93.8,62c0.1-0.1,0.2,0,0.3-0.2c0.4,0.5,0.6,0.6,1.1,0.2c0.4-0.3,0.6,0.3,0.6,0.6c0,0.6,1,0.2,0.7,0.9
			c0,0,0.5,1,0.6,1.1c-0.6-0.2-1.4-0.2-1.9-0.5c-0.5-0.3-1-0.7-1.4-1.1c-0.2-0.2-0.4-0.4-0.6-0.6c0,0-0.7-0.8-0.7-0.7
			C92.6,61.4,94,61.1,93.8,62 M92.4,56.5c0,0.1,0,0.1,0,0.2C92.2,56.5,92.3,56.2,92.4,56.5 M96.5,53.6c0,0.1,0,0.1,0,0.2
			c0.4-0.5,1.2,0.4,1.5,0.7c0.5,0.4,1,1.1,1.6,1.3c0.3,0.1,0.7,0.1,1,0.2c0.3,0.1,0.5-0.7,0.6-0.9c0.1-0.2,0.6-0.3,0.8-0.5
			c0.2-0.2,0.4-0.7,0.4-0.9c1.5,0.6,2.2,2.4,3.2,3.4c0.5,0.5,1.1,1,1.7,1.2c0.5,0.1,0.6,0.1,1,0.3c0.4,0.3,0.6,0.4,0.9,0.9
			c-0.5-0.1-1.5-0.4-2-0.1c-0.4,0.2-0.6,0.2-0.6,0.7c0,0.4,0,0.8,0,1.1c-0.1,0.4-0.1,0.7-0.1,1.1c0,0.2,0.2,0.3,0.3,0.4
			c0.2,0.2-0.1,0.2-0.1,0.2c0,0.2-0.2,0.2-0.2,0.4c0,0.1,0.1,0.5,0,0.6c-0.2,0.3-0.3,0-0.7-0.2c0,0.4-0.2,0.7-0.2,1.1
			c0,0.5,0.2,1,0.3,1.5c-0.2,0-0.6,0.3-0.8,0.1c-0.3-0.3-0.6-0.4-0.9-0.7c-0.2-0.2-1.4-0.8-1.4-1c0-0.5,1.3-0.3,0.8-0.9
			c-0.3-0.3-0.6-0.1-0.6-0.5c0-0.4,0.3-0.3,0.5-0.6c-0.4-0.4-1.1-1.4-1.9-1c-0.3,0.1-0.6,0.6-0.9,0.7c-0.4,0.2-0.6,0.5-0.9,0.8
			c-0.3,0.3-0.4,0.4-0.7,0.7c-0.1,0.1-0.8,0.9-0.8,0.6c0-0.2,0-0.4-0.2-0.6c0,0-0.3-0.5-0.3-0.3c0-0.3,0.4-0.2,0.7-0.2
			c-0.2-0.3-0.9-0.5-0.9-0.9c0-0.2,0.6-0.1,0.3-0.4c-0.1-0.1-0.5-0.3-0.7-0.2c-0.4,0.2-0.8-0.4-1.2-0.6c-0.2-0.1-0.3-0.4-0.5-0.5
			c-0.3-0.1-0.5-0.2-0.8-0.3c0.2-0.2,0.4-0.2,0.8-0.2c0.4,0,0.1-0.2,0.3-0.4c0.2-0.2-0.6-0.6-0.7-0.7c-0.4-0.3-0.7-0.1-1-0.5
			c-0.2-0.2-0.5-0.4-0.5-0.7c0-0.3,0.6-0.3,0.5-0.7c-0.1-0.4-1.4-0.7-1.7-0.9c0.1,0,0.2-0.1,0.3-0.2c-0.4-0.3-1-0.2-0.4-0.8
			c0.5-0.5,0.7-0.4,1.3-0.1c0.5,0.2,0.6,0.4,1.1,0.7c0.4,0.2,0.9,0,1.4,0.3c0.4,0.2,0.9,0.2,0.9-0.4c0-0.7-0.6-0.5-1-0.9
			c-0.2-0.1-0.3-0.5-0.4-0.5c-0.2,0-0.3-0.2-0.3-0.4c0-0.1,0.3-0.2,0.4-0.3C96,53.4,96.3,53.3,96.5,53.6 M94.2,58.1
			c0.1,0.1,0.1,0.1,0.2,0.2C94.3,58,94.3,57.7,94.2,58.1"/>
		<path class="st3" d="M24.3,46.2c1.1,0,2.1,0,3.2,0.2c0.6,0.1,0.9,0.2,1.5,0c0.4-0.1,1,0.1,1.4,0.2c1.1,0.4,2.2,0.5,3-0.3
			c0.9-0.9,1.9-0.9,3.1-1.2c0.4-0.1,1,0.3,1.4,0.5c0.2,0.1,0.5,0.1,0.7,0.2c0.1,0,0.1,0.2,0.3,0.1c0.1,0,0.3-0.2,0.4-0.1
			c0,0,0.4,0.6,0.5,0.6c0.1,0.1,0.5,0.2,0.6,0.2c0.2,0,0.5,0,0.7,0c0.5,0,0.4,0,0.4,0.5c0,0.3,0,0.5-0.1,0.8
			c-0.1,0.2-0.4-0.1-0.6-0.1c-0.4,0.1-0.8,0.5-0.9,0.8c-0.1,0.4,0,1.2,0,1.7c0,0.1-0.9,0.9-1,1.1c0.6,0.2,1.7,1.2,1.9,1.9
			c-0.3-0.1-1-0.2-1.3,0.1c-0.3,0.3-0.9-0.5-1.1-0.6c-0.3-0.1-1,0.3-1.3,0.5c-0.2,0.1-0.4,0-0.6,0c-0.3,0.1,0,0.2-0.3,0.4
			c-0.1,0.1-0.5,0.2-0.6,0.3c-0.1,0,0.1,0.2-0.1,0.2c-0.1,0-0.2,0-0.3,0c-0.6,0,0.1,0.7,0.1,1c0,0.5-0.5,0.5-1,0.5
			c-0.6,0-0.9,0.1-1.4,0.3c-0.3,0.1-0.9-0.4-1.4-0.6c-0.2-0.1-0.1,0.2-0.2,0.1c-0.1,0-0.3-0.1-0.4-0.1c-0.2-0.1-0.3-0.5-0.5-0.5
			c-0.1,0-0.2,0.1-0.3,0.1c-0.2,0.1-0.1-0.1-0.3-0.1c-0.2,0-0.5-0.1-0.7,0c-0.3,0.1,0,0.3-0.4,0.3c-0.3,0-0.5,0.2-0.9,0.2
			c-0.1,0-0.2,0.2-0.2,0.2c-0.1,0-0.2-0.2-0.3-0.2c-0.2,0-0.4,0.1-0.7,0.2c-0.2,0.1-0.3,0.2-0.6,0.2c-0.4,0-0.3-0.2-0.3-0.6
			c0-0.3,0-0.5,0.1-0.9c0.1-0.3-0.3-0.2-0.3-0.3c0-0.6-0.5-0.8-0.9-1c-0.4-0.2-0.6-0.6-0.9-1c0.2,0,0.3-0.3,0.5-0.5
			c-0.5-0.3-0.1-0.8-0.4-1.1c-0.1-0.1,0.2-0.4,0.3-0.4c0.5,0,0.4-0.1,0.7-0.4c0.2-0.2,0.2-0.4,0.3-0.5c0.3-0.3-0.1-0.3-0.3-0.4
			c-0.4-0.4-0.9-0.6-1.2-1C23.2,47,23,46.8,23,46.2c0-0.4,0-0.4,0.2-0.7c0.1-0.1,0.3-0.1,0.3-0.2c0-0.1-0.1-0.3,0-0.3
			c0.4-0.3,0.8,0.1,1.3,0.3C25,45.5,24.2,45.8,24.3,46.2"/>
		<path class="st2" d="M118.5,113.2c0,0.1-0.1,0.2-0.2,0.3c-0.2-0.2-0.7-1.5-0.5-1.7C118.2,111.4,118.5,113,118.5,113.2"/>
		<path class="st2" d="M7.8,47.8c0.1,0.1,0.1,0.4,0.2,0.5c0.3,0.4,0.8,0.6,1,1c0.1,0.1,0.2-0.1,0.2,0.1c0,0-0.1,0.3-0.2,0.3
			c0.3,0.3,0.2-0.1,0.4,0.1c0.4,0.4,1.7,1.3,2.2,1.3c0.7,0-1-2,0.4-1.7c-0.2-0.2-0.1-0.9,0.3-1.1c0.4-0.2,0.8,0.1,0.8-0.1
			c-0.1-0.5-0.7-0.7,0.1-0.7c0.4,0,0.6-0.2,1-0.2c1.2,0-1.5-1.5-0.2-1.5c1.7,0-0.9-1-0.9-1.3c0-0.5,0.1-0.7,0.3-1.2
			c0.2-0.4,0.4-0.9-0.2-0.9c-0.5,0-0.8,0.3-1.3,0c-0.1-0.1-0.2-0.4-0.4-0.5c-0.2-0.1-0.5-0.2-0.7-0.2c-0.2,0-0.3-0.2-0.5-0.2
			c-0.3,0-0.3,0.2-0.7,0c0,0,0,0-0.1,0c-0.9,1.9-1.8,3.8-2.6,5.7c0.1,0.1,0.3,0.2,0.4,0.2C7.6,47.6,7.6,47.6,7.8,47.8z"/>
		<path class="st3" d="M31.7,17.4c0.4,0.1,1.1-0.1,1.4,0.2c0.1,0.1,0.4,0.5,0.5,0.5c0.2,0,0.4-0.2,0.7-0.2c0.3,0.1,0.4,0.5,0.4,0.5
			c0.3,0,0.2-0.3,0.3-0.3c0.5,0,0.8-0.2,1.2,0c0.2,0.1,0.5-0.1,0.8,0c0.2,0.1,0.3,0.5,0.5,0.5c0.4,0,0-0.3,0.3-0.3
			c0.1,0,0.4-0.2,0.5-0.3c0.4-0.4,0.6,0.4,0.9,0.6c0.3,0.2,0.2,0,0.6,0c0.2,0,0.5,0,0.7,0c0.7-0.2,1-0.1,1.5,0.2
			c0.5,0.3,0.5,0.4,1.1,0.2c-0.6-0.8-0.6-1.4,0.1-2.1c0.2-0.2,0.3-0.3,0.5-0.5c0.2-0.2,0.3,0.1,0.5,0.1c0.4,0,0.8-0.2,1.2-0.2
			c0.7,0-0.2-0.6-0.3-0.7c-0.3-0.4-0.1-0.8-0.5-1.1c-0.4-0.4,0.5-0.5-0.1-0.8c-0.3-0.2-0.6-0.6-0.9-0.6c0.5-0.4,0.1-0.7,0.8-0.7
			c0.5,0,0.5,0.1,0.8,0.3c0.4,0.2,0.8,0,1.1-0.1c0.2-0.1,0.5-0.1,0.5-0.3c0-0.4,0.1-0.2,0.3-0.4c0.1-0.1,0.3,0.1,0.3-0.1
			c0-0.3,0-0.1-0.2-0.3c-0.1-0.1-0.4-0.2-0.6-0.3c-0.1,0-0.1-0.3-0.2-0.4c-0.2-0.2-0.5-0.5-0.9-0.6c-0.4-0.1-0.7-0.1-1.1-0.1
			c0.2-0.1,0.3-0.9,0.1-0.9c-0.4,0-0.9-0.3-1.2-0.5c-0.3-0.1-0.4-0.4-0.5-0.6c-4.9,2.4-9.4,5.4-13.6,8.8
			C30.2,17,30.9,17.2,31.7,17.4z"/>
		<path class="st2" d="M63.2,76.9c-0.4,0.3-0.8,0.7-1.2,1c-0.5,0.4-0.2,0.5,0,1c-0.3-0.4-0.8,0-0.9,0.2c-0.2-0.2-0.5-0.3-0.7,0
			c-0.1-0.1-0.1-0.5-0.2-0.5c-0.3-0.3-0.1,0-0.4,0c-0.2,0-0.4-0.2-0.5-0.1c-0.1,0-0.5,0.3-0.6,0.3c-0.2,0-0.9-0.3-0.6-0.3
			c0.6,0,0.4-0.3,0.4-0.9c0.4,0.1,0.9,0.1,1.3,0.2c0.5,0.2,0.8,0,1.3-0.1c0.9-0.2,1.5-0.8,2.4-1.1C63.4,76.7,63.3,76.8,63.2,76.9"/>
		<path class="st2" d="M58.6,78.8c0.1,0,0.3-0.2,0.4-0.2c0.1,0,0.2-0.1,0.3-0.1c0.2-0.1,0.1,0.1,0.3,0.1c0.2,0,0.5-0.1,0.6-0.1
			c0.1,0.1,0.1,0.4,0.3,0.6c0.2-0.3,0.4-0.2,0.7,0c0.2-0.6,1.5-0.1,0.7,0.2c-0.4,0.2-0.6-0.1-0.9,0.3c-0.3,0.3-0.8,0.5-1.2,0.7
			c-0.1,0.1-0.3,0-0.4,0c-0.1,0.1,0.2,0.3-0.1,0.3c-0.2,0-0.2-0.2-0.3-0.2c-0.2,0-0.1-0.2-0.3-0.1c-0.1,0.1-0.2,0.1-0.3,0.1
			c-1,0-1.4-0.9-1.6-1.7c0.4,0.4,0.6-0.3,1-0.3C57.9,78.4,58.3,78.6,58.6,78.8"/>
		<path class="st3" d="M35.7,92.1c0.7,0,1.6-0.5,2.3-0.3c0.9,0.2,1.7,0.3,2.6,0.5c1,0.2,1.7,0.4,2.5,1c0.1,0.1,0.1,0.2,0.3,0.2
			c0.1,0,0.5-0.2,0.7-0.1c0.4,0.4,0.5,0.5,1.1,0.5c0.9,0.1,1.7,0.2,2.5,0.8c0.7,0.4,1.4-0.3,1.9-0.6c0.3-0.2,0.7-0.5,1-0.7
			c0.4-0.2,0.7-0.1,1-0.3c0.3-0.3,0.2-0.5,0.8-0.7c0.4-0.1,0.8-0.2,1.3-0.4c-0.3,0.3-0.8,0.5-1.2,0.7c0.3,0,1.3-0.1,1.4-0.3
			c0.2-0.2,0-0.5,0.3-0.6c0.1,0,0.6,0.3,0.7,0.3c0.7,0.3,0.9,0.4,1.5,0.1c0.4-0.2,0.8,0.3,1.2,0.6c-0.4,0.1-0.6-0.3-0.9-0.5
			c0.1,0.3-0.1,0.5-0.3,0.7c0.4,0.2,1.2,0.4,1,0.9c0.3-0.1,0.5-0.3,0.7-0.5c-0.1-0.1-0.2-0.3-0.3-0.3c0.5,0,0.7,0.9,1.1,0.9
			c0.5,0,1-0.2,1.5-0.3c0.4-0.1,0.3,0.2,0.6,0.3c0.2,0,0.5-0.2,0.7-0.2c0.5,0,1.2,0,1.7-0.3c0.6-0.5,0.7-0.4,1,0.3
			c0.2,0.5,0.5,1,0.7,1.5c0.2,0.5,0.2,0.9,0.5,1.4c0.3,0.5,0.6,1,0.7,1.6c0.1,0.5,0.3,1,0.6,1.5c0.1,0.1-0.5,1-0.5,1.3
			c0,0.5,0,1.1-0.2,1.6c-0.2,0.6-0.5,1.2-0.5,1.8c0,0.5,0,1-0.3,1.5c-0.2,0.4-0.2,0.4-0.6,0.1c-0.2-0.2-0.5-0.4-0.7-0.5
			c-0.4-0.3-0.7-0.9-1.1-1.1c-0.5-0.4-0.9-0.8-1.3-1.3c-0.3-0.4-0.1-0.9-0.4-1.4c-0.2-0.4-0.7-0.8-1-1.2c-0.6-0.8-0.8-1.7-1.2-2.6
			c-0.1,0.1-0.5,1.1-0.5,1.4c0.1,0.5,0.7,0.8,0.9,1.3c0.2,0.5,0,1,0.4,1.4c0.4,0.4,0.4,0.9,0.8,1.3c0.4,0.4,0.6,0.9,1,1.3
			c0.4,0.5,0.9,0.6,1.2,1.2c0.2,0.5,0.2,1,0.4,1.5c0.2,0.5,0.7,0.8,0.9,1.3c0.2,0.6,0.3,1.2,0.4,1.8c0,0.2,0.3,0.2,0.4,0.4
			c0.2,0.3,0.3,0.7,0.5,1c0.5,1.1,1.3,2,1.8,3.1c0.5,1.1,1.1,2.2,1.7,3.2c0.5,0.9,1.2,1.7,2,2.3c0.1,0.1,0.2,0.2,0.3,0.3
			c-1.1-0.4-1,0.5-0.9,1.4c0.1,0.8,0.4,1.7,0.8,2.4c0.6,0.8,1.6,0.7,2.1,1.5c0.4,0.7,1.7,1,1.9,1.9c-4.3,0-8.5,0-12.8,0
			c-1.1,0-2.2,0-3.2,0c-0.2,0-1.5,0.1-1.5-0.1c0-0.5-0.2-0.9-0.5-0.3c-0.3,0.7-2.3,0.3-3,0.3c-1.1,0-2.2,0-3.3,0
			c-4.4,0-8.8,0-13.2,0c-0.9,0-0.9,0.1-0.9-0.9c0-0.5,0.1-1.3,0-1.8c-0.3-1.1-0.2-2.4-0.2-3.6c0-1.1-0.2-2.3-0.2-3.4
			c0-1.1-0.2-2.3-0.2-3.4c0-2.1-0.3-4.1-0.3-6.2c0-2-0.3-4-0.3-6c0-1-0.3-2-0.5-2.9c-0.2-0.7-0.9-1.9-0.7-2.6
			c0.1-0.2,0.3-0.5,0.5-0.6c0.1-0.2,0-0.5,0.1-0.6c0.2-0.5,0-1-0.1-1.5c-0.3-1-0.3-1.8,0.6-2.5C35.6,91.7,35.7,91.9,35.7,92.1"/>
		<g>
			<path class="st2" d="M87.2,150.2c-0.1-0.1-0.1-0.2-0.2-0.3c0-0.1,0-0.1,0-0.2C86.7,149.9,86.8,150.1,87.2,150.2z"/>
			<path class="st2" d="M87.8,151.7c0.7,0,0.3-0.2-0.1-0.5c-0.1,0.2-0.1,0.1-0.2,0.3c-0.1-0.1-0.1-0.2-0.2-0.3
				c-0.2-0.3-0.1-0.8-0.7-0.7c0.4,0.3-0.3,0.4,0.3,0.9c-0.1-0.1-0.2-0.1-0.3-0.2C86.8,151.7,87.3,151.7,87.8,151.7z"/>
			<g>
				<path class="st2" d="M84.5,150.2c-0.1-0.1-0.1-0.2-0.1-0.3c-0.1-0.5-0.2-1-0.3-1.4c-0.6-2-1.2-3.8-2.1-5.7
					c-0.7,0.2-0.6,1.5-1.3,1.5c-0.1,0-0.1,0.1-0.3,0.2c-0.1,0-0.3,0-0.4,0c-0.3,0-0.5,0.4-0.8,0.5c-0.5,0.3-0.6,0.2-0.8,0.8
					c-0.1,0.4-0.3,0.6-0.7,0.6c-0.2,0-0.8-0.3-0.8,0.1c0,0.5-0.1,0.7-0.2,1.1c-0.2,0.7,0,1.7-0.2,2.5c0,0.2-0.1,0.4-0.2,0.6
					c0.1,0,0.2,0,0.4,0C79.3,150.6,81.9,150.4,84.5,150.2z"/>
			</g>
		</g>
		<path class="st3" d="M76.6,47.4c0.8,0,1.2,0.1,2,0.4c0.7,0.2,1.4,0.2,1.9,0.8c0.3,0.3,1.5,0.1,2,0.1c0.7,0,1.4,0.1,2.1,0.3
			c0.4,0.1,0.3,0.1,0.6,0.4c0.3,0.3,0.6,0.4,1,0.5c0.3,0.1,0.6,0.2,0.9,0.4c0.1,0.1,0.4,0.1,0.5,0.2c0.1,0.1-0.1,0.3,0,0.3
			c0.2,0.3,0.1,0.4,0.7,0.3c0,0,0-0.2,0.3-0.2c0.2,0,0.3-0.1,0.4-0.2c0.9-0.3,1-0.5,1.7,0.2c0.2-0.6,0.2-0.6,0.8-0.4
			c0.3,0.1,0.6,0.4,0.9,0.7c0.2,0.2,0.9,0,1.1,0c0.2,0,0,0.9,0.1,1c0.2,0.5,1.2,0.9,1.8,0.9c0.2,0,0.9,0.3,0.7,0.6
			c-0.2,0.4-0.5,0.4-0.5,0.8c0,0.2,0.3,0.1,0.3,0.2c0.1,0.2,0.2,0.4,0.3,0.5c0.4,0.3,0.9,0.1,1,0.7c0.3,1.2-1.2,0.3-1.6,0.3
			c-0.9,0-1.2-0.5-2-0.8c-0.5-0.2-0.6-0.3-1,0.1c-0.4,0.4-0.5,0.4-1.1,0.4c0.1,0.1,0.1,0.1,0.2,0.2c-0.2,0-0.4,0-0.6,0
			c-0.2,0-0.3,0.2-0.4,0.2c-0.3,0-0.7-0.2-1-0.2c-0.1,0-0.2,0.2-0.4,0.2c-0.3,0-0.4,0.1-0.6,0.2c-0.3,0-0.8-0.1-1,0.2
			c-0.1-0.5-1-0.1-1-0.8c0-0.2-1.5-1.1-1.6-1.1c-0.4,0-0.4,0.5-0.5,0.5c-0.4,0-0.6-0.1-0.9-0.2c-0.1,0-0.3,0-0.4,0
			c-0.3,0-0.4,0.2-0.6,0.2c-0.4,0-0.7-0.2-1-0.2c0.7-0.9,0.7-1.5,0-2.3c-0.5-0.7-0.5-1.8-1.2-2.3c-0.4-0.3-0.8-0.3-1.1-0.6
			c-0.3-0.3-0.6-0.5-1.1-0.6c-1-0.2-1.8-0.7-2.6-1.3C76,47.4,76,47.2,76.6,47.4"/>
		<path class="st4" d="M30.3,77.1c0.2,0,0.7,0.1,0.7-0.1c0-0.1,0.3-0.2,0.3-0.1c0.1,0.1-0.1,0.4-0.2,0.3c0.3,0.2,0.5,0.1,0.5,0.4
			c0,0.2,0.5,0.1,0.6,0.1c0.3,0,0.5-0.2,0.8-0.2c0.5,0,0.7,0.1,1.1,0.2c0.7,0.2,1.3,0.2,2,0c0,0.3-0.1,1.3,0.4,0.8
			c0.3-0.3,0.5-0.3,0.9-0.3c0.2,0,0.3-0.3,0.6-0.3c-0.3,0.2,0,0.9-0.3,1.1c-0.5,0.3-1-0.1-1.5,0c-0.6,0.1-2.6,0.7-3.1,0.2
			c-0.1-0.1,0-0.4-0.2-0.5c-0.3-0.1-0.5-0.2-0.8-0.3c-0.5-0.1-1.1-0.2-1.6-0.2c-0.3,0-1.1,0.1-1.3-0.2c-0.1-0.2-0.2-1.4,0.3-0.9
			c0.1-0.1,0.2-0.5,0.2-0.5C30.1,76.6,30.1,77,30.3,77.1 M40.7,77.4c-0.1,0.1-0.1,0.1-0.2,0.2c0.1-0.6-0.3-1,0.2-1.5
			c0.1,0.5-0.4,0.8,0.2,1.2C40.8,77.3,40.7,77.4,40.7,77.4 M27.6,74.7c0,0.1,0,0.1,0,0.2c-0.5-0.1-0.3-0.5-0.3-0.9
			C27.4,74.2,27.9,74.5,27.6,74.7 M42.5,75.7c-0.3,0.1-0.2,0-0.3-0.2c0,0-0.2-0.7-0.2-0.7c0.1-0.5,0.6-0.7,1-0.9
			c0.7-0.3,0.6,0.1,0.3,0.6c-0.1,0.1-0.1,0.6-0.2,0.6C42.8,75.2,42.7,75.4,42.5,75.7 M35.1,73.8c0,0.1-0.1,0.2-0.2,0.3
			c-0.1-0.1-0.1-0.1-0.2-0.2c0.2-0.1,0.1,0,0.2-0.3C34.9,73.7,35,73.8,35.1,73.8 M38.1,73.2c-0.2,0.1-0.4,0.2-0.5,0.3
			C37.2,73.2,37.9,72.9,38.1,73.2 M42.4,73.3C42,73,42.4,72.8,42.4,73.3 M32,72.5c0.1,0.4-0.2,0.4-0.5,0.5
			C31.3,72.5,31.8,72.8,32,72.5 M34.7,72.8c0,0.1,0,0.1,0,0.2c-0.2-0.2-0.3-0.3-0.5-0.5C34.4,72.5,34.7,72.6,34.7,72.8 M39.5,72.6
			c0-0.3,0.9-0.8,1.2-0.5c-0.1,0-0.3,0.1-0.4,0.1c-0.1,0,0,0.2-0.1,0.2C39.9,72.6,39.7,72.5,39.5,72.6 M36.1,72.5
			c-0.1,0-0.2,0-0.3,0c0.3-0.2,0.8-0.6,1-0.5C36.5,72.1,36.3,72.3,36.1,72.5 M32.5,72C31.9,71.5,32.9,71.6,32.5,72 M39.6,71.8
			c-0.4,0.1-0.3-0.2-0.5-0.5C39.4,71.4,39.6,71.5,39.6,71.8 M34.2,71.5c-0.2,0.3-0.6,0.2-0.3-0.2C34.1,71,34.3,71.1,34.2,71.5
			 M35.1,71.8c-0.1,0.2-0.4,0.2-0.5,0c-0.1-0.2,0.1-0.5,0.2-0.7C35.1,70.6,35.3,71.4,35.1,71.8 M31.8,71.1c0,0.1,0,0.1,0,0.2
			c-0.3-0.3-0.1-0.5,0.2-0.2C31.9,71.1,31.9,71.1,31.8,71.1 M31.5,70.4c-0.1,0-0.1,0-0.2,0c0.1-0.1,0.1-0.1,0.2-0.2
			C30.9,69.8,32,69.9,31.5,70.4 M33,69.8c0,0.2,0,0.3,0,0.5c-0.1-0.1-0.1-0.2-0.2-0.3C32.9,69.9,33,69.8,33,69.8 M34.5,70.1
			c-0.5,0.1-0.4-0.6,0.2-0.2C34.7,70,34.6,70,34.5,70.1 M36.4,69.8c-0.7-0.1,0.8-0.6,0.9-0.7C37.1,69.5,36.8,69.6,36.4,69.8
			 M34,69.4c-0.2,0.3-0.9,0.1-0.9-0.3C33.2,69,33.9,69.3,34,69.4 M31.1,69.6c-0.1,0.1-0.1,0.1-0.2,0.2C30.8,69,31.6,68.9,31.1,69.6
			 M38.8,68.6c0.3,0.2,0.6,0.1,0.7,0.5c-0.2,0-0.4,0.1-0.6,0.1c-0.3,0.1-0.3-0.1-0.5-0.1C37.6,69.1,38.3,68.5,38.8,68.6 M20.4,68.7
			c0.1,0.1,0.2,0.2,0.3,0.3c-0.1-0.1-0.1-0.1-0.2-0.2c-0.5,0.8-0.6-0.4-1-0.3c0.1-0.1,0.2-0.3,0.3-0.3
			C19.9,68.5,20.2,68.6,20.4,68.7 M33.2,68.9C33.1,69,33.1,69,33,69.1c-0.1-0.4-0.4-0.4-0.6-0.6c0,0-0.6-0.4-0.2-0.4
			c0,0,0.8,0.2,0.8,0.2C33.2,68.4,32.9,68.7,33.2,68.9 M28.6,68.2c-0.1,0-0.2,0-0.3,0C28.4,68,28.5,68,28.6,68.2 M19.4,66.5
			c0.2,0.4,0.8,0.7,0.7,1.2c-0.2-0.1-0.7-0.1-0.9-0.2c0,0-0.1-0.5-0.2-0.5c-0.4,0.4-0.4,0-0.2-0.3c0.2-0.2,0.5,0.1,0.3-0.5
			C19.3,66.3,19.3,66.4,19.4,66.5 M19.9,66.7c-0.3,0-0.3-0.3-0.5-0.5C19.8,66.1,19.8,66.5,19.9,66.7 M36.2,67.2
			c-0.2,0.3-0.5-0.1-0.7-0.3c0.3,0.1,0.5-0.2,0.3-0.5c-0.1-0.3-0.9-0.4-0.3-0.6C36.5,65.5,36.7,66.8,36.2,67.2 M19.6,65.7
			c-0.1,0.1-0.2,0-0.3,0.2c0-0.2-0.1-0.9,0.2-1C19.8,64.6,19.8,65.5,19.6,65.7 M31.8,65c-0.2,0-0.3,0-0.5,0c0.1-0.1,0.1-0.1,0.2-0.2
			c-0.3,0-0.4-0.2-0.3-0.5C31.4,64.5,31.6,64.8,31.8,65 M27.9,64.3c0.3,0.8,0.7,0.8,1.5,1c0.3,0.1,0.7,0.1,0.9,0.4
			c0.2,0.3,0,0.6,0.1,0.9c0.1,0.2,0.4,0.7,0.6,0.7c0.2,0,0.8-0.1,0.8,0.3c0,0.8-1.1,0.1-1.4-0.3c-0.1-0.2-0.2-0.6-0.4-0.8
			c-0.2-0.2-0.6,0-0.9-0.1c-0.3-0.1-0.5-0.7-0.6-0.7c-0.2,0-0.6-0.5-0.7-0.6c-0.2-0.2-1.6-0.7-1.6-0.5c0-0.1,0.7-0.5,0.8-0.6
			C27.2,64,27.7,64.2,27.9,64.3 M28.9,63.8c-0.1,0.1-0.1,0.1-0.2,0.2c-0.2-0.2-0.3-0.3-0.5-0.5C28.5,63.6,28.7,63.7,28.9,63.8
			 M29.3,63.6c-0.1,0-0.1,0-0.2,0c0.1-0.1,0.2-0.2,0.3-0.3C29.5,63.5,29.4,63.5,29.3,63.6 M36.9,62.9c-0.4,0.4,0.4,0.7,0.7,1
			c-0.2,0.2-0.1,0.2-0.3,0c0.1,0.1,0,0.2,0.2,0.3c-0.3,0-1.3,0-1.4-0.3c0-0.1,0.5-0.3,0.3-0.5c-0.2-0.2-0.4,0.4-0.6,0.3
			c-0.1,0-0.6-0.1-0.6-0.2c0-0.5,0.3-0.3,0.5-0.4C36.1,62.9,36.4,62.6,36.9,62.9 M17.5,62.6c0,0.1,0,0.1,0,0.2
			c-0.6-0.3-0.8-0.6-1.2-1.1c-0.4-0.4,0.4-0.6,0.7-0.3c-0.1,0.1-0.2,0.3-0.3,0.3C17.2,61.8,16.9,62.6,17.5,62.6 M33.7,60.6
			c-0.2,0.1-0.2,0.7-0.3,0.7c-0.4,0-0.1-0.3-0.4-0.3c0,0-0.4,0.4-0.5,0c-0.2-0.5,0.5-0.4,0.7-0.2C33.3,60.5,33.6,60.2,33.7,60.6
			 M34.2,58.9c-0.3,0.3-0.5,0.1-0.7-0.2C33.8,58.4,34,58.6,34.2,58.9 M31.3,58.2c-0.1,0.1-0.6,0.3-0.7,0c-0.1-0.2,0.2-0.5,0.2-0.7
			C31.1,57.6,31.4,57.8,31.3,58.2 M36.4,55.4c-0.2,0.2-0.5,0.4-0.5,0.6c0,0.3,0.2,0.5,0.2,0.7c0,0.2-0.4,0.5-0.5,0.7
			c-0.2,0.4-0.3,0.4-0.6,0.2c-0.6-0.4-1.2-0.4-1.9-0.6c-0.7-0.3-1.1,0-1.7,0.3c-0.6,0.3-0.7-0.7-1.4,0c-0.2,0.2-0.4,0.5-0.7,0.5
			c-0.2,0-0.8-0.4-1-0.2c-0.2,0.2,0.2,0.5,0.3,0.7c0.2,0.2-0.1,0.7,0.3,0.7c0.5,0,1.3,0.3,1.4,0.9c-0.4-0.2-1-0.7-1.4-0.7
			c-0.1,0-0.6-0.1-0.6,0.1c0,0.2,0.4,0.5,0.6,0.6c0.5,0.2,0.6,1.1-0.1,0.6c-0.2-0.2-0.3-0.5-0.5-0.7c-0.2-0.1-0.6-0.1-0.8-0.2
			c0,0.6,0.4,0.9,0.8,1.2c-0.2,0-0.8,0-0.9-0.3c-0.1-0.3-0.2-0.7-0.5-0.9c-0.5-0.2-1.7-0.6-1-1.3C25,58.2,25,58.9,25,59.4
			c0,0.4-0.2,0.5,0,0.9c0.1,0.3,0.6,0.6,0.8,0.8c0.3,0.3,0,0.6,0.5,0.8c0.3,0.1,0.5,0.4,0.7,0.6c0.4,0.4,0.9,1.3-0.1,1.1
			c0.4-0.5-0.3-1.1-0.6-0.8c-0.3,0.3-0.2,0.2-0.1,0.6c0.1,0.2,0.3,0.5,0.5,0.5c-0.4,0.5-0.8,0.5-1.4,0.5c0.2,0.2,0.6,0.3,0.9,0.4
			c0.4,0.1,0.7,0.5,1,0.5c0.5,0,1.2,1.2,1.7,1.2c1.1,0,0.9,0.8,1.2,1.6c0.4,1.1-0.4,0.7-0.9,0.1c-0.2-0.2-0.4-0.5-0.7-0.6
			c-0.2,0-0.2,0.1-0.3,0.2c-0.2,0-0.5,0-0.7,0c-0.6,0.1-0.4,0.2-0.3,0.5c0,0.1,0.3,0.9,0.4,0.9c0.4,0,0.5,0.1,0.8,0.4
			c0.4,0.4-0.5,0.3-0.7,0.5c-0.3,0.3-0.5-0.3-0.7-0.4c-0.3-0.1-0.7-0.2-0.8-0.6c-0.5,0.4,0.6,1.7,0.8,2.2c0.1,0.2,0.4,0.8,0.3,1
			c-0.2,0.6,0.2,0.6,0.4,1.1c-0.2-0.1-0.5-0.1-0.6-0.3c-0.2-0.2-0.5-0.7-0.7-0.8c-1-0.4-0.4,1.2-0.9,1.2c-0.3,0-0.3-0.7-0.3-0.9
			c-0.1-0.3-0.4-0.6-0.7-0.9c-0.1-0.1-0.4-0.5-0.7-0.3c-0.1,0.1,0,0.8-0.2,1c-0.3-0.3-0.9-0.9-1-1.4c0-0.3,0.1-0.4,0.2-0.7
			c0.2-0.2-0.1-0.4-0.2-0.7c-0.3-0.6-0.8-0.6-1-1.1c-0.1-0.2-0.5-0.2-0.5-0.3c0-0.3,0.2-0.4,0.5-0.6c0.2-0.1,0.1-0.6,0.2-0.7
			c0.2-0.1,0.5,0.2,0.8,0.2c0.2,0,0.2-0.6,0.4-0.7c0.3-0.1,0.6,0.1,0.8,0.2c0.5,0.3,1,0.5,1.6,0.7c0.3,0.1,0.6,0.4,0.8,0.5
			c0.4,0.1,0.4-0.1,0.2-0.3c0.3,0,0.9,0.1,0.9-0.3c0-0.4-0.5-0.2-0.8-0.3c-0.3-0.2-0.7-0.3-1-0.4c-0.2-0.1-0.4-0.2-0.5-0.3
			c-0.2-0.1-0.3,0.3-0.4,0.3c-0.4,0.1-0.7-0.3-1-0.3c-0.4,0-0.7,0.3-1.1,0.3c-0.1,0-0.4,0.1-0.5-0.1c0,0-0.4-0.5-0.3-0.5
			c-0.3-0.1-0.1,0.7-0.6,0.5c-0.4-0.2-0.4-0.7-0.6-1.1c-0.1-0.4-0.6-0.5-0.8-0.7c-0.3-0.6,0.2-0.4,0.7-0.3c0.5,0.1,0.5-0.3,0.1-0.5
			c-0.3-0.1-0.7,0.1-1,0c0,0-0.3-0.3-0.3-0.4c-0.2-0.1-0.3-0.3-0.5-0.4c-0.4-0.4-0.6-0.4-0.8-0.9c-0.2-0.3-0.4-0.7-0.8-0.9
			c0.3,0,0.9,0.5,0.9-0.1c0-0.3,0-0.3,0.3-0.3c0.3,0-0.2-0.4-0.3-0.5c0-0.3,0.4-0.4,0.7-0.5c0.5-0.3,0.3-0.5,0.5-1
			c0.1-0.2,0.2-0.4,0.3-0.5c0-0.1,0.3,0.1,0.3,0c0.1-0.1,0-0.3,0-0.3c0.2-0.4,0.1-0.1,0-0.5c-0.1-0.3-0.4-0.5,0.1-0.5
			c0.3,0,0.6,0,0.9,0c0.2,0,0.2-0.3,0.5-0.1c0.5,0.3,0.9-0.5,1.3-0.7c0.2-0.1,0.5-0.1,0.6-0.3c0-0.1,0.5,0.1,0.7,0.1
			c0.6,0,1.1,0.1,1.1-0.6c0-0.1,0.9-0.1,1.1-0.1c0.2,0,0.5-0.3,0.7-0.3c0.3-0.1,0.5,0.2,0.7,0.1c0.2-0.2,1-0.1,1.3-0.3
			c0.4-0.2,0-0.3,0.6-0.3c0.3,0,0.3,0.2,0.7,0c0.3-0.1,0.7,0.6,1.1,0.6c0.1,0,0.1-0.2,0.2-0.1c0.1,0,0.3,0.1,0.4,0.1
			c0.2,0.1,0.5,0.5,0.7,0.5c0.3,0.1,0.6-0.3,0.9-0.3c0.3-0.1,0.6,0,0.8,0c0.7,0,1.3-0.1,0.9-0.9c0-0.1-0.4-0.6-0.1-0.6
			c0.4,0,0.6,0,0.9,0.2C36.2,54.4,37.1,55.4,36.4,55.4"/>
		<g>
			<path class="st2" d="M6.6,48.2c0,0.1-0.1,0.2-0.1,0.3c0.1-0.1,0.1-0.2,0.3-0.2C6.7,48.3,6.7,48.2,6.6,48.2z"/>
			<path class="st2" d="M9.5,50.5c-0.2-0.1-0.3-0.2-0.5-0.3c-0.2,0-0.5,0-0.7,0C8.7,50.3,9.1,50.4,9.5,50.5z"/>
			<path class="st2" d="M6.3,48.8C6.3,48.8,6.3,48.8,6.3,48.8C6.3,48.8,6.3,48.9,6.3,48.8C6.7,49,7.1,49,7.6,49
				C7.3,48.7,6.7,48.8,6.3,48.8z"/>
			<path class="st2" d="M11.9,51.5c-0.3-0.2-0.3-0.5-0.5-0.7c-0.2-0.1-0.6-0.2-0.9-0.3c-0.3-0.2-0.6-0.4-0.8-0.5
				c-0.1-0.1-0.2-0.3-0.3-0.3c-0.3-0.1,0,0.3,0,0.3c-0.5-0.2-1-0.5-1.5-0.7c-0.2,0-0.3,0-0.5,0c0.8,0.2,1.7,0.5,2.4,0.9
				C10.5,50.6,11.1,51.1,11.9,51.5z"/>
			<path class="st2" d="M9.8,41.6c0.1,0,0.2-0.2,0.3-0.2c0.3,0,0.9,0.2,1.2,0.3c0.6,0.3,0.5,0.7,1.1,0.7c0.4,0,0.2-0.7,0.1-1
				c0.1-0.1,0.1-0.1,0.2-0.2c0.2,0.1,0.4,0.2,0.6,0.1c0.1,0,0.5-0.3,0.2-0.3c0.1,0-0.9-0.3-0.9-0.3c-0.2-0.2,0-0.3-0.2-0.5
				c-0.1-0.1-0.3-0.2-0.3-0.3c-0.1-0.3-0.2-0.7-0.3-1c0.2-0.1,0.2,0,0.2-0.3c-0.2,0.3-0.6,0.1-0.9,0.3c-0.1,0.1-0.2,0.1-0.3,0.2
				c-0.4,0.8-0.8,1.6-1.2,2.4C9.6,41.5,9.8,41.7,9.8,41.6z"/>
			<path class="st2" d="M7.8,49.7c-0.5-0.2-1.1-0.2-1.7-0.2C6.6,49.9,7.1,49.7,7.8,49.7z"/>
			<path class="st2" d="M6.9,48.1C7.5,48.7,8.4,49,9,49.7c0.3-0.3,0.1-0.2,0-0.3c-0.3-0.5-0.9-0.7-1.2-1.2c-0.1-0.2,0.1-0.5-0.1-0.5
				c-0.3-0.1-0.5-0.2-0.8-0.4c0,0,0,0,0,0c-0.1,0.2-0.2,0.5-0.3,0.7C6.8,48,6.8,48,6.9,48.1z"/>
		</g>
		<path class="st3" d="M12.4,38.2c0.3,0.4,0.5,0,0.8,0c0.2,0,0.3-0.3,0.4-0.4c0.1-0.2,0.2-0.1,0.4-0.1c0.7-0.1,1.2,0.3,1.9,0.2
			c0.2-0.1,0.5-0.2,0.7-0.1c0.1,0.1,0.3,0.2,0.4,0.1c0.1,0,0.2-0.5,0.3-0.5c0.3,0,0.8,0.1,1-0.1c0.2-0.2-0.1-0.6,0.4-0.4
			c-0.5-0.4,0.3-0.8,0.5-1c-0.1-0.1-0.1-0.1-0.2-0.2c0.2-0.2,0.5-0.7,0.5-0.9c0-0.4,0.3-0.4,0.4-0.7c0.1-0.2,0.1-0.8,0.4-0.8
			c0,0,0.2-0.6,0.3-0.8c0.2-0.2,0.3-0.6,0.7-0.6c0.3,0,0.5,0,0.8-0.2c0.2-0.1,0.5-0.4,0.5-0.7c0-0.3-0.4-0.1-0.3-0.5
			c-0.1,0.2-0.4,0.1-0.6-0.1c-0.2-0.4-0.3-0.1-0.6-0.3C21,30,21,30,20.8,29.8c-0.2-0.2,0-0.2-0.3-0.3c-0.4-0.1-1,0.5-1.3,0.3
			c-0.1-0.1-0.6-0.6-0.8-0.6c-0.3-0.4-0.7,0-1,0c-0.1,0-0.1,0-0.2,0c-2.4,3.1-4.6,6.4-6.5,9.9c0.2-0.1,0.4-0.3,0.6-0.4
			C11.8,38.6,12.2,38.7,12.4,38.2z"/>
		<path class="st3" d="M88.4,70.4c0.2,0,0.5-0.2,0.7-0.2c0.1,0,0.4,0.2,0.6,0.2c0.4,0,0.8,0.3,1.4,0.3c0.4,0,0.4,0,0.7-0.3
			c0.2-0.2,0.3,0.1,0.5,0.1c0.5,0,0.2,1.1,0.6,1.2c0.1,0,0.8-0.6,0.9-0.8c0.4-0.4,0.8,0.5,0.9,0.7c0.1,0.2,0.1,0.7,0.3,0.7
			c0.1,0,0.4,0.3,0.4,0.4c0,0.4,0.1,0.9,0.6,0.9c0.4,0,0.6,1.1,0.8,1.3c0.1,0.3,0.3,0.1,0.5,0.2c0.2,0.1,0.5,0.3,0.7,0.5
			c0.3,0.3,1,0.2,1.5,0.2c0.2,0,0.5,0.1,0.4,0.3c0,0.1-0.6,0.1-0.7,0.3c-0.2,0.5,0,0.9,0.4,1.2c0.3,0.2,0.1,0.2,0.2,0.5
			c0.1,0.4,0.3,0.2-0.2,0.5c-0.3,0.3-1,0.6-1,1.1c0,0.2,0.2,0.4,0.2,0.7c0,0.3-0.5-0.1-0.5,0.2c0,0.2,0.1,0.4-0.1,0.5
			c-0.2,0.2,0.2,0.4,0.3,0.6c0.1,0.2,0.3,0.3,0.1,0.6c-0.1,0.2-0.4,0.6-0.2,0.6c0.5,0.2,0.7,0.8,1.1,1.1c0.3,0.3,0.3-0.2,0.5,0
			c0.2,0.2,0.3,0.3,0,0.5c0.5,0.2,0.7,0.6,1,1c0.2,0.2-0.1,0.7,0,0.9c0.2,0.3,0.7,0.1,1,0.3c0.5,0.2,0.8,0.5,1.2,0.8
			c0.3,0.2,0.7,0.3,0.9,0.6c0.1,0.1,0.3,0.4,0.5,0.4c0.4-0.1,0.3-0.1,0.6,0c0.6,0.4,0.9,1.4,1.4,1.9c0.5,0.5,0.5,0.5,0.3,1.2
			c-0.1,0.4-0.2,0.8-0.2,1.2c0,0.2,0.1,1.2,0.2,1.2c0.4,0,1.1-0.2,1.1,0.2c0,0.5,0.2,0.9,0.2,1.4c0,0.4,0.5,0.5,0.8,0.8
			c0.1,0.1,0.3,0,0.4,0.1c0.1,0.2,0.1,0.3,0.2,0.5c0.1,0.3,0.2,0.8,0.7,0.7c-0.5,0.3-1.9-0.4-1.9,0c-0.5-0.2-0.7-0.3-1.3-0.3
			c-0.3,0-1.4,0-1.4,0.4c0,0.8-0.7,2.3-1.3,2.9c-0.7,0.7-2.4,0.3-3.4,0.3c-0.9,0-2.3-0.1-3-0.6c-1.8-1.3-3.7-2.6-5.4-3.9
			c-1.8-1.4-3.4-3.2-5.6-4.1c-0.6-0.3-1.2-0.6-1.8-0.9c-0.6-0.3-1.1-0.9-1.7-1c-1.4-0.2-2.7-0.4-4-0.7c0.3-0.3,0.7-0.5,0.3-0.9
			c-0.6,0.5-0.7,0-0.9-0.5c0.1,0,0.1,0,0.2,0c-0.4-1-0.8-1.9-1.2-2.9c-0.2-0.6,0.5-0.6,0.9-1c0.5-0.3,0.9-0.6,1.4-0.9
			c1-0.6,2-1.3,3-1.9c0.4-0.2,1-0.3,1.1-0.9c0.1-0.6,0.5-0.9,0.4-1.5c-0.1-0.4-0.4-1.1-0.2-1.4c0.1-0.4,0.3-1.1,0.3-1.5
			c0-0.4-0.4-1-0.6-1.4c-0.2-0.3,0-1.1,0.1-1.3c0.2-0.5,1-0.3,1.4-0.6c0.4-0.3,0.6-0.8,0.9-1.1c0.4-0.4,0.4-0.7,0.8-1
			c0.3-0.2,0.4-0.2,0.5-0.6C87.9,70.2,88.1,70.2,88.4,70.4"/>
		<path class="st2" d="M68.6,85.6c0.4,0.5,0.3,1.3,0,1.8c-0.2,0.3-0.3,0.2-0.6,0.5c-0.3,0.3,0.2,0.9-0.3,0.9c-0.1,0-0.3-0.3-0.3-0.3
			c-0.1-0.1-0.4-0.1-0.6-0.1c-0.4-0.1-0.4,0.6-0.5,0.7c-0.3,0.6,0,1.3,0,2c0.3-0.3,0.4-0.1,0.6,0.1c0.3,0.3-0.1,0.3-0.3,0.4
			c-0.1,0.1-0.3,0.1-0.3,0.2c-0.1,0.1,0,0.3,0,0.3c0,0.1-0.3,0.6-0.2,0.7c0.2,0.3,1.2-0.3,1.4-0.3c0.1,0,0.5-0.3,0.5-0.1
			c0,0.3,0,0.7-0.2,1c0.6,0-0.5,2.6-0.5,3c0,0.3,0.2,0.6,0.2,0.9c0,0.3-0.2,0.6-0.2,0.9c0,0.3-0.2,0.5-0.2,0.8c0,0.4,0.1,0.7-0.2,1
			c-0.4-0.7-0.5-1.4-0.7-2c-0.1-0.4-0.3-0.7-0.5-1c-0.2-0.4-0.3-0.6-0.5-1c-0.2-0.7-0.6-1.3-0.9-2c-0.2-0.5,0.2-0.3,0.2-0.8
			c0-0.4,0.5-0.7,0.2-0.9c0.7-0.1,0.9-3.3,1-3.9c0.1-0.4,0.2-0.7,0.3-1.1c0.2-0.5,0.1-0.5,0.5-0.6c0.3-0.1,0.6,0.1,0.9-0.2
			c0.1-0.1,0-0.9,0.2-0.3c0.1-0.2,0.4-0.2,0.5-0.3c0.1-0.1,0.1-0.4,0.3-0.5c0.1,0.2,0,0.4-0.2,0.5C68.5,85.5,68.5,85.5,68.6,85.6"/>
		<g>
			<path class="st2" d="M3.9,60.4c0.3,0.3,0.4,0.6,0.5,1c0.3,0.8,0.9,1.4,1,2.2c0.1,0.4,0,0.5,0.3,0.8c0.1,0.1,0.1,0.6,0.1,0.7
				c-0.1,0.1-0.5,0-0.7,0.2c-0.1,0.1-0.1,0.4-0.1,0.6c0.2,0.7-0.5,0.9-0.7,1.4c-0.1,0.2,0.1,0.5,0.2,0.7c0.2,0.3,0.3,0.3,0.6,0.3
				c0.8,0,0.5-0.5,0.9-0.9c0.3-0.3,1-0.7,1.1-1.1c0.1-0.3-0.2-0.6-0.2-0.9c0-0.3,0.3-0.5,0.5-0.6c0.3-0.3,1.3-0.1,1.4-0.4
				c0.1-0.1-0.3-1.5-0.4-1.6C8,62.3,7.7,62.1,7.1,62c-1.1-0.2-0.2-2.1,0.2-2.7c0.3-0.5,0.6-1,1.2-0.6c0.3,0.2,0.1,0.3,0.4,0.4
				c0.2,0.1,0.4,0.2,0.6,0.3c0.9,0.1,1,0.1,1.5,0.9c0.3,0.5,0.6,0.7,1.1,0.9c0.2-0.3,0.2-0.8,0.3-1.1c0.1-0.4-0.2-0.6-0.4-0.9
				c-0.4-0.4-0.9-1.1-1.5-1.3c-0.8-0.4-1.6-1-2.4-1.2c-0.7-0.2-1.4-0.5-2-0.8c-0.6-0.3-1.2-0.6-1.8-0.9c0,0,0,0,0,0
				c-0.5,1.7-0.9,3.5-1.3,5.3C3.3,60.3,3.7,60.2,3.9,60.4z"/>
			<path class="st2" d="M4.9,53.9c0.1-0.3,0-0.4-0.2-0.5c-0.1,0.3-0.2,0.6-0.3,0.9C4.7,54.1,4.9,54,4.9,53.9z"/>
			<path class="st2" d="M2.1,72.7C2.3,72.6,2.9,73,3,72.8c0.1-0.1-0.2-0.3-0.2-0.3C2.9,72.4,3,72.3,3,72.1c0.1-0.3,0.3-0.4,0.3-0.8
				c0-0.3-0.5-0.3-0.2-0.6C2.4,70.2,3,69.7,3,69c0-0.7,0.8-1.2,1-1.8c0.1-0.1,0.1-0.2,0.2-0.3c-0.4-0.1-0.8,0.5-1,0.2
				c-0.4,0.5-0.8,0.3-1.3,0.3c-0.2,1.8-0.3,3.6-0.4,5.4C1.7,72.8,1.9,72.8,2.1,72.7z"/>
		</g>
		<path class="st2" d="M78.8,88.5c0.1,0.5,0.2,1,0.9,0.5c0.3,0.3,0,0.5-0.2,0.7c-0.2,0.2-0.3,0.6-0.6,0.6c-0.6,0-1.4,0.4-2,0.6
			c-0.7,0.3-1.4,0.3-2,0.6c-0.7,0.3-1.3,0.5-2,0.7c1.2,1.2,2.3,2.5,3.6,3.7c-0.3,0.1-0.8,0.3-1,0.5c-0.1,0.2-0.2,0.9-0.3,1.1
			c-0.2,0.5-1.8,0.6-2.3,0.7c-0.2,0.1-0.4,0.7-0.5,0.9c-0.2,0.4-0.4,0.7-0.8,1c-0.8,0.7-1.3,0.5-2.2,0.3c-0.5-0.1-2-0.1-2-0.6
			c0-0.8,0-1.6,0.3-2.4c0.1-0.4,0-0.8-0.1-1.2c-0.1-0.2,0.1-0.8,0.2-1.1c0.1-0.3,1-2,0.3-2c0.4-0.6,0-1.4,0.3-2
			c0.1-0.2-0.1-1.6-0.1-1.9c-0.1-0.5-0.5-1.8,0.4-1.8c0.4,0,0.5,0,0.7,0.3c0.3,0.4,0.7,0.3,1,0.6c1.3,1.3,2.7,0,3.8-0.8
			c1.2-0.9,2.4-1.6,3.6-2.5c0.4,1.1,0.9,2.1,1.4,3.2C78.9,88.5,78.9,88.5,78.8,88.5"/>
		<path class="st2" d="M20.4,50c-0.2,0.7,0.8,0.2,1,0.5c0.3,0.4-0.2,1.2-0.5,1.4c0.5,0.5-0.2,0.2-0.4,0.4c-0.1,0.1,0,0.2-0.2,0.3
			c-0.2,0.2-0.2-0.2-0.4-0.3c-0.4-0.1-0.8,0.3-1.1,0.5c-0.3,0.2,0.1,0.6-0.2,0.7c-0.5,0.2-0.3-0.3-0.4-0.6c-0.1-0.5-0.2-0.8-0.7-1.1
			c-0.1-0.1-0.3,0-0.4,0c-0.1-0.1-0.2-0.5-0.3-0.6c-0.1-0.3-0.2-0.7-0.4-0.9c0.1,0,0.3,0,0.3,0c0,0,0.3-0.2,0.2-0.2
			c0.2-0.1,0.7-0.1,0.9-0.3c-0.5-0.4,0.3-0.3,0.3-0.8c0-0.1-0.4-0.4-0.1-0.4c0.2,0,0.4-0.2,0.6-0.2c0,0,0,0.2,0,0.3
			c0,0.2,0.1,0,0.2,0.1c0.2,0.1,0.5,0.1,0.6,0.2C19.6,49.4,19.9,49.8,20.4,50"/>
		<path class="st2" d="M109.3,99.2c-0.7,0-0.8-1-0.3-1.4c0.3,0.3,0.5,0.7,0.7,1C109.5,98.9,109.3,99,109.3,99.2 M109,99.2
			c-0.1,0.4-0.2-0.1-0.3,0c-0.3,0.1-0.4,0.2-0.6,0.5c-0.5,0.5,0.4,0.8,0.6,0.4c0.5,0.4,0.3,1.2,0.7,1.6c0.2,0.2,0.5,0.5,0.6,0.8
			c0.1,0.3,0.2,0.6,0.3,0.9c-0.6,0-1.2,0-1.8,0c-0.9,0-0.9-0.4-1.2-1.1c-0.3-0.6-0.6-0.8-1.3-0.8c-0.7,0-1.3-0.2-2-0.3
			c0.5-0.5,0.8-1,1-1.6c0.2-0.7,0.3-1.5,0.9-1.8c0.4-0.2,1.4-0.2,1.8,0C108.4,97.9,108.7,98.6,109,99.2"/>
		<path class="st3" d="M69.6,80.3c0.1,0.1,0.1,0.1,0.2,0.2c-0.2,0.1-0.3,0.3-0.3,0.5c0.6,0,0.8,0.3,1,0.9c0.2,0.5-0.4,0.8-0.7,1.1
			c-0.3,0.3,0.3,0.2,0.3,0.4c0,0.2-0.3,0.2-0.4,0.1c-0.3-0.3-0.8,0.4-0.9,0.6c0.8,0.6-0.4,1.2-0.9,1.7c-0.2-0.5-0.1,0.3-0.4,0.5
			c-0.1,0.1-0.9,0.1-0.9,0c0-0.9,0.6-1.6,0.8-2.5c0.2-0.8,0.3-1.7,0.7-2.5c0,0,0.8-0.7,0.6-0.7c0.2,0,0.5,0,0.7,0
			C69.3,80.5,69.3,80.3,69.6,80.3"/>
		<path class="st2" d="M32.2,136c0.6,0.3,1.2,0.7,1.9,1.1c0-0.4,0-0.9,0-1.3c0-0.6,0-0.6,0.6-0.6c0.9,0,1.7,0,2.6,0
			c-0.1-1.4-0.2-2.8-0.2-4.3c0-1.6-0.2-3.1-0.2-4.7c0-1.5-0.2-3-0.2-4.5c0-0.8-0.2-1.5-0.2-2.3c0-0.7,0.1-1.4-0.1-2.1
			c-0.5-2.3,0-4.7-0.4-7c-0.2-1.1,0.1-2.3-0.2-3.4c-0.1-0.6,0-1.2,0-1.8c0-0.5-0.2-1-0.2-1.5c0-1.1,0-2.1-0.3-3.2
			c-0.2-0.6-0.3-1.2-0.5-1.7c-0.1-0.3-0.4-1-0.4-1.3c0-0.6,0.5-0.9,0.5-1.5c0-0.2,0.2-0.4,0.2-0.7c0-0.3-0.1-0.5-0.2-0.8
			c-0.1-0.5-0.5-1.1-0.3-1.6c0.2-0.4,0.5-0.9,0.8-1.1c-0.4-0.4-0.4-0.9-0.9-1.1c-0.6-0.3-1,0-1.6,0c-0.8,0-0.9-0.1-1.5-0.5
			c-0.8-0.5-2.6,0.1-2.6-1.1c0-0.8-0.4-0.9-1.1-1.1c-0.5-0.2-0.9-0.4-1.4-0.7c-0.3-0.2-1.2,0-1.6,0c-0.8-0.1-0.6,0-1.4,0.3
			c-0.5,0.3-1.1,0.2-1.6,0.5c-0.5,0.3-1.1,0.6-1.6,0.9c-0.8,0.5-1.3,1.8-1.2,2.7c0.1,0.3,0.1,0.6,0.2,1c0.1,0.3,0.3,0.3,0.4,0.6
			c0.3,0.5,0.1,0.9,0,1.4c-0.4,1.2-1.2,1.8-2.3,2.3c-1.1,0.5-2.1-0.4-2.9-1.1c-0.8-0.7-1.8-1.3-2.8-1.6c-1.1-0.4-2.2-0.7-3.3-0.7
			c-1,0-2.1-0.4-2.8-1.1c-0.9-0.8-0.6-2-1.2-2.9c-0.4-0.5-1-0.6-1.6-0.6C6.1,108,16.9,124.8,32.2,136z"/>
		<path class="st3" d="M36.8,29.6c0.4,0.1,0.6,0.4,0.9,0.6c0.3,0.2,0.9,0,0.8,0.5c0.1-0.1,0.1-0.1,0.2-0.2c0,0.2,0.1,0.2,0.2,0.3
			c0.6-0.7,1.2,0.4,1.7,0.5c0.2,0,0.1-0.2,0.3,0c0.2,0.1,0.2,0.4,0.3,0.6c0.1,0.3,0.1,0.8-0.1,0.9c0.2,0.3,0.9,0.9,1.3,0.9
			c0.2,0,0.3,0.3,0.2,0.4c-0.3,0.3,0.1,0.4,0.3,0.6c0.2,0.3-0.2,0.3,0.3,0.4c0.3,0.1,0.6,0.2,0.8,0.4c0.2,0.3,0.2,0.4,0.2,0.8
			c0,0.2,0.5,0.5,0.7,0.6c-0.2,0.2-0.3,0.2-0.6,0.2c-0.3,0-0.2-0.3-0.4-0.3c-0.2,0-0.3,0.2-0.5,0.2c-0.2,0-0.3-0.2-0.5-0.2
			c-0.3,0-0.7,0.4-0.7,0.3c0-0.1,0.1-0.6-0.1-0.6c-0.2,0-0.5,0.2-0.6,0.3c-0.3,0.4,0.3,0.5,0.3,1c0,0-0.3,0.6-0.3,0.6
			c-0.3,0.1-0.4,0.2-0.4,0.5c0,0.3-0.4,0.2-0.5,0.4c-0.2,0.4,0,0.3,0,0.6c0,0.4-0.6,0.2-0.9,0.6c-0.1-0.3-0.3-0.5-0.5-0.7
			c0.6,0,0.1-0.7,0-1c-0.1-0.6-0.1-1.1,0-1.7c0-0.1,0.2-0.2,0.2-0.3c0-0.1-0.2-0.1-0.2-0.2c0-0.4-0.1-0.5-0.3-0.9
			c-0.3-0.6-0.6-0.8-1.1-1.3c-0.3-0.3-0.8-0.8-1.1-1.2c-0.1-0.1-0.3-0.5-0.4-0.5c-0.4-0.1-0.5-0.2-0.6-0.6c-0.4-0.8-1.1-2.1-2.2-2
			c0.3,0,0.5-0.3,0.8-0.3c0.3,0,0.6,0,0.9,0C35.7,29.6,36.1,29.1,36.8,29.6"/>
		<path class="st2" d="M23.5,51.9c0.4,0.5,0.6,0.8,1.1,1.1c0.2,0.1,0.4,0.1,0.5,0.3c0.1,0.1,0.3,0.7,0.3,0.7c0.3,0,0.1,1.2,0.1,1.5
			c0,0.2,0,0.2-0.3,0.2c-0.5,0,0,0.3-0.3,0.5c-0.3,0.3-1.1,0.2-1.4,0.2c-0.1,0-0.2-0.2-0.3-0.2c-0.1,0-0.1,0.2-0.3,0.2
			c-0.3,0-0.4,0.2-0.7,0.4c-0.2,0.2-0.3,0.3-0.6,0.4c-0.3,0.1-0.2,0-0.6,0c-0.1,0-1.4,0.4-1.4,0.1c0-0.2-0.4-0.1-0.6-0.1
			c0,0-0.3-0.4-0.4-0.5c-0.2-0.2-0.6-0.8-0.6-1.2c0-0.3-0.2-0.4-0.2-0.7c0-0.2,0.3-0.3,0.1-0.5c-0.1-0.1,0-0.6,0.1-0.8
			c0.2-0.2,0.3,0.1,0.5-0.2c0.1-0.1-0.1-0.5,0-0.5c0.2-0.1,0.6-0.5,0.8-0.5c0.3,0,0.4,0,0.6,0.3c0.2,0.2,0.3-0.3,0.4-0.4
			c0.3-0.2,0.9,0.1,1.3-0.3c0.1-0.1,0.4-0.1,0.5,0c0.2,0.2,0.6-0.2,0.8-0.3C23.1,51.9,23.3,51.9,23.5,51.9"/>
		<path class="st2" d="M1.5,75.9c-0.3,0.4-0.7,0.2-0.7-0.3C0.8,75.4,1.3,75.9,1.5,75.9 M0.6,75.2c-0.2,0.2-0.3,0.1-0.5,0
			C0.3,75,0.5,75,0.6,75.2"/>
		<path class="st2" d="M13.1,47.4c0.6-0.1,0.4,0.3,0.9,0.6c0.5,0.3,0.9,0.7,1.4,0.9c0.5,0.2,1,0.4,1.5,0.7c0.6,0.3-0.2,0.8-0.6,0.7
			c0.4,0.4,0,1-0.5,1c-0.4,0-0.2-0.7-0.5-0.7c-0.2,0-0.6,1.1-0.7,1.3c-0.1,0.1-0.1,0.2-0.2,0.3c-0.2,0.2,0.1,0.1,0.1,0.3
			c0,0.3-0.1,0.5,0.2,0.5c-0.1,0.2-0.2,0.3-0.2,0.5c-0.4-0.4-0.9-0.9-1.3-1.3c-0.2-0.2-0.6-0.4-0.8-0.5c-0.1-0.1,0-0.2,0-0.2
			c-0.1,0-0.3,0.1-0.3,0c-0.7-0.6,0.3-0.4-0.1-1c-0.3-0.4-0.5-1.4,0.3-1.2c-0.4-0.5,0.2-1.2,0.8-1.2c0.1,0,0.4,0.3,0.1-0.3
			C12.8,47.6,12.6,47.4,13.1,47.4"/>
		<g>
			<path class="st3" d="M133.6,110.2c-0.8,0.3-0.1,0.5,0.4,0.3c0.3-0.2,0.8-0.8,1.2-0.3c0.3-0.3,0.5-0.5,0.7-0.9
				c0.4-0.4-0.1-0.2-0.3-0.2c-0.4,0.1-0.6,0.2-0.9,0.2c-0.2,0,0,0.5-0.1,0.5C134.2,110,133.9,110.1,133.6,110.2z"/>
			<path class="st3" d="M149.2,92.4c-0.4,0-1.2,0-1.3-0.4c-0.1-0.5-0.3-1-0.3-1.5c0-1.1-0.6-2.1-1-3.1c-0.1-0.3-0.7-0.9-0.5-1.3
				c0.2-0.4,0.5-1,0.8-1.3c-0.3-0.3-0.7-0.1-1.1-0.3c-0.5-0.2-0.3-0.6-0.4-1.1c-0.1-0.6-0.4-0.7-0.2-1.3c0.2-0.6,0.5-0.4,1-0.4
				c-0.2-0.2-0.4-0.4-0.5-0.7c0-0.1-0.2,0.1-0.2-0.1c0-0.2,0.1,0,0.2-0.1c0.1-0.1,0.3-0.2,0.3-0.3c0.1-0.1,0-0.3,0-0.3
				c0.1-0.2,0.2-0.4,0.3-0.5c-0.3-0.2,0.1-1.2-0.3-1.5c0.4,0,0.3-0.4,0.3-0.7c0-0.1,0-0.3,0-0.4c0-0.3-0.2-0.2-0.2-0.3
				c0-0.5-0.2-0.7-0.3-1.1c0-0.1-0.2,0-0.2-0.3c0-0.2,0-0.3,0-0.5c0-0.3-0.3-0.9-0.4-1.2c-0.2-0.6-0.3-0.6-1-0.6c-0.5,0-0.9,0-1.4,0
				s-0.6-0.3-1-0.6c-0.3-0.3-0.7-0.8-1.1-1c-0.5-0.2-1.1-0.3-1.5-0.6c-0.5-0.3-0.4-0.8-0.9-1c-0.3-0.1-1.2-0.8-1.6-0.6
				c-0.4,0.2-0.5-0.1-0.8,0.1c-0.2,0.1-0.3,0-0.5,0c-0.4,0-0.8-0.5-1.2-0.7c-0.6-0.3-1.2-0.2-1.7-0.4c-0.1-0.1-0.4,0-0.4-0.1
				c0-0.3,0-0.4-0.2-0.6c-0.4-0.4-1,0-1.4-0.2c-0.4-0.2-0.9-0.1-1.4-0.1c-0.3,0-0.3,0.4-0.3,0.6c0,0.1-0.3,0.1-0.4,0.1
				c-0.6,0-1.1-0.2-1.7-0.2c-0.4,0-1.1,0.4-1.4,0.7c-0.5,0.4-0.5,0.6-0.6,1.2c-0.2,0.9-1.8,1-2.6,1c0.3,0.4,0.7,1,0.7,1.5
				c0,0.5-0.6,0.5-1,0.2c0.3,0.1,0.5,0,0.7-0.2c-0.5,0-1,0.1-1.5,0.2c-1.2,0.2-2.4,0.6-3.6,0.8c-1.2,0.3-2.2,0-3.4-0.3
				c-0.4-0.1-1-0.6-1.4-0.8c-0.4-0.2-1-0.5-1.3-0.9c-0.4-0.5-0.7-1-1.3-1.1c-0.5-0.1-1.1,0-1.7-0.2c-0.9-0.2-1.8-0.9-2.1-1.9
				c-0.1-0.3,0-1.3-0.3-1.5c-0.2-0.1-0.5,0.2-0.7,0.2c-0.1,0-0.6-0.5-0.7-0.5c-0.4-0.3-0.8-0.6-1.2-0.9c-0.1-0.1-0.5-0.3-0.5-0.3
				c0-0.2,0.3-0.4,0.4-0.4c0.8,0,0.3-0.5-0.2-0.7c-0.5-0.2,0.3-0.8,0.4-0.9c-0.3-0.3-0.7-0.9-1.2-1c-0.7-0.2-0.8,0.3-1.3,0.6
				c-0.5,0.3-0.8,0.6-1.3,1c-0.1,0.1-0.1,0.3-0.3,0.3c-0.2,0-0.2,0-0.3,0.1c-0.1,0.3-0.3,0.4-0.5,0.7c-0.3,0.3-0.3,0.3-0.7,0.2
				c-0.3-0.1-0.4,0.1-0.8,0.1c-0.5,0-1.2-0.2-1.7-0.3c-0.4-0.1-0.8-0.7-1.2-0.9c-0.4-0.2-0.7-0.5-1-0.9c-0.4-0.5-1.5-1.8-1.7-0.7
				c-0.1,0.6,0,0.9-0.6,0.9c-0.1,0-0.6,0-0.6,0c-0.1,0.1,0.2,0.3,0.2,0.4c0,0.2,0.3,0.4,0.4,0.4c0.2,0,0,0.2,0.1,0.3
				c0,0.1-0.1,0.4,0,0.5c0.1,0.1,0.4,0.2,0.5,0.3c0.1,0.2,0,0.5,0,0.7c0,0.2,0.2,0.3,0.2,0.6c0,0.4,0.3,0.5,0.7,0.6
				c-0.2,0.2-0.1,0.5-0.2,0.7c-0.1,0.3-0.3,0.2-0.3,0.6c0,0.6,0.4,0.4,0.9,0.7c0.4,0.3,0.3,0.6,0.5,1.1c0.2,0.4-0.1,0.2,0.3,0.4
				c0.2,0.1,0.4,0.3,0.6,0.5c-0.3,0.2,0.2,1,0.3,1.4c0.1,0.2,0.1,0.3,0.2,0.5c0,0.1,0.1,0,0.2,0c0.1,0.1,0.3,0.2,0.3,0.4
				c0,0.5,0.2,0.7,0.5,0.9c0.4,0.3,0.5,0.5,0.7,1.1c0.2,0.5,0.6,0.5,1,0.7c0.5,0.3,0.5,0.4,1.1,0.4c0.4,0,1.3,0,0.8,0.3
				c-0.4,0.3-0.9,0.3-0.6,0.9c0.2,0.4,0.5,0.5,0.6,0.9c0.1,0.3,0.4,0.2-0.1,0.5c-0.1,0.1-0.4,0.1-0.5,0.3c-0.5,0.6-0.7,0.7-0.5,1.4
				c0.2,0.5-0.5,0-0.5,0.5c0,0.3-0.2,0.3,0,0.6c0.1,0.1,0.4,0.4,0.4,0.6c0,0.3-0.1,0.4-0.2,0.7c-0.2,0.4,0,0.1,0.2,0.4
				c0.3,0.4,0.6,0.8,1,1.1c-0.1-0.1,1.1-0.1,0.4,0.4c0.4,0.1,1,0.7,1,1.1c0,0.2-0.1,0.9,0.3,0.9c1.1,0,1.7,0.8,2.6,1.3
				c0.2,0.1,0.4,0.3,0.6,0.5c0.3,0.3,0.3-0.1,0.6,0c0.4,0.1,0.7,0.9,0.8,1.1c0.2,0.3,0.6,0.8,0.8,1c0.5,0.5,0.4,0.6,0.2,1.2
				c-0.1,0.6-0.1,1,0,1.7c0,0.2-0.1,0.6,0.1,0.6c0.2,0,0.4,0,0.7,0c0.5,0,0.4,0,0.4,0.4c0,0.3,0.1,0.5,0.2,0.8
				c0,0.2-0.1,0.6,0.1,0.8c0.2,0.2,0.4,0.2,0.5,0.3c0.4,0.4,0.6,0.2,0.8,0.8c0.1,0.4,0.2,0.9,0.8,0.6c0.4-0.2,0.9,0,0.9-0.5
				c0-0.4-0.4-1,0.2-1.1c-0.1-0.1-0.1-0.1-0.2-0.2c0.4-0.1,1.2-0.1,0.7,0.3c-0.2,0.1-1,0-0.2,0.4c0.5,0.3,1.1,0.5,1.5,0.9
				c0.2,0.2,1.2-0.5,1.4-0.6c0.1-0.1,1.4,1.9,1.7,2.2c0.3,0.3,0.9,0.7,0.9,1.1c0,0.6,0.4,0.6,0.8,1c0.2,0.2-0.2,0.4,0.1,0.6
				c0.3,0.2,0.4,0.3,0.6,0.6c0.2,0.5,0.3,1,0.6,1.4c0.6,0.9,1.2,1.9,2.4,1.9c0.6,0,1,0.5,1.6,0.7c0.5,0.2,0.7,0.6,1,1
				c0.8,0.8,1.9,1,2.7,1.7c0.3,0.3,0.9,0.8,1.4,0.9c0.6,0.1,0.8-0.2,1.4,0c0.5,0.2,1.1,0.7,1.6,0.7c0.7,0,0.8-0.6,1.3-0.9
				c0.3-0.2,0.6,0,0.8-0.2c0.3-0.1,0.3-0.3,0.5-0.5c0.4-0.3,0.9-0.2,1.3-0.6c0.7-0.7,2.3-0.4,2.8,0.4c0.6,1,0.9,1.9,1.3,3
				c0.1,0.2,0,0.6,0.1,0.7c0.3,0.2,0.3,0.4,0.4,0.7c0.1,0.3,1.1,0,1.4,0.3c3.9-6.5,6.8-13.7,8.6-21.3
				C149.6,92.4,149.4,92.4,149.2,92.4z"/>
		</g>
		<path class="st2" d="M64.7,92.9c-0.1,0.1-0.2,0.2-0.3,0.3c-0.4-0.4,0.3-0.9,0.5-1.4C65.2,92.2,64.7,92.5,64.7,92.9 M68.1,90.4
			c0.1,0.3,0.2,0.6,0.2,0.9c0,0.2-0.2,0.5-0.2,0.8c0,0.3-0.9,0.8-1.3,0.8c-0.3,0-0.5,0.1-0.6-0.2c0,0,0.2-0.8,0.2-0.9
			c0.1-0.2,0.7-0.2,0.7-0.4c0-0.4-0.4-0.5-0.7-0.3c0-0.9-0.5-1.9,0.3-2.7c0.3-0.3,0.9,0.5,1.2,0.5C68.2,88.8,68.1,90.1,68.1,90.4"/>
		<path class="st2" d="M120.7,118c-0.9,1.2-1.5-1.9-1.5-2.3c-0.2-0.7,0.1-1.2,0.3-1.9c0.1-0.3,0.1-0.6,0.2-0.9
			c0-0.2,0.5-0.5,0.6-0.7c0.1-0.1,1.1,1,1.2,1.2c0.1,0.1-0.1,0.7-0.1,0.9c0,0.2,0.1,0.6,0.2,0.8C122,116,122.1,118.2,120.7,118"/>
		<path class="st3" d="M35.6,32.1c0.1,0.3,0.2,0.3,0.4,0.4c0.3,0.1,0.1,0.1,0.3,0.3c0.3,0.3,0.6,0.6,0.9,0.9
			c0.6,0.6,1.1,1.1,1.5,1.9c0.1,0.1,0.3,0.4,0.3,0.5c0,0.2,0.2,0.5,0.2,0.6c0,0.4-0.4,0.8-0.3,1.2c0,0.2,0.1,1,0.3,1.1
			c0.2,0.2,0.3,0.8-0.1,0.8c0.3,0.3,0.5,0.9,0.9,1c0.5,0.2,1,0.3,1.5,0.3c-0.1-0.1-0.1-0.1-0.2-0.2c0.9,0.1,2.1-1.1,2.7,0.1
			c0.1,0.2,0.1,1,0,1.3c-0.2,0.6-1,0.4-1.5,0.5c0.1-0.3-0.3-0.5,0-0.7c-0.2-0.2-0.3-0.2-0.5,0c-0.3,0.3,0,0.3,0,0.6
			c0,0.3-0.2,0.5-0.2,0.9c0.1-0.1,0.1-0.1,0.2-0.2c0.1,0.5-0.5,0.8-0.5,1.2c0.1,0.6,0.1,1.2,0.1,1.8c0,0.1-1.1,0.1-1.3,0.1
			c-0.3-0.1-0.5-0.2-0.7-0.4c-0.3-0.3-0.1-0.4-0.7-0.2c-0.1,0-0.4-0.3-0.6-0.3c-0.2-0.1-0.5,0-0.7-0.1c-0.2-0.1-0.6-0.1-0.8-0.3
			c-0.2-0.2-0.6,0.1-0.8,0.1c-0.6,0.1-1.1,0.2-1.7,0.4c-0.5,0.2-0.8,0.7-1.3,1c-1.2,0.6-2,0.1-3.1-0.1c-0.3,0-0.6-0.1-0.9-0.1
			c-0.2,0-0.5,0.2-0.7,0.2c-0.6-0.1-1.2-0.2-1.8-0.3c-0.5-0.1-0.9,0-1.4,0c-0.6,0-1.2,0-0.5-0.6c0.1-0.1,0.5-0.2,0.2-0.3
			c-0.2-0.1-0.5-0.2-0.8-0.3c-0.2-0.1-1-0.7-1-1c0-0.6,1.2-0.2,0.3-0.7c-0.2-0.1-0.6-0.3-0.8-0.2c-0.3,0.2-0.2,0.6-0.7,0.5
			c-0.2,0-0.2-0.5-0.6-0.5c-0.3,0-0.6,0-0.9-0.3c-0.1-0.1-0.7-0.1-0.8-0.3c-0.1-0.2,0.4-0.2,0.5-0.3c-0.2-0.2-0.5-0.2-0.7-0.3
			c0.3,0,0.3-0.2,0.3-0.4c0-0.2-0.5-0.4-0.7-0.4c-0.3-0.1-0.5-0.2-0.8-0.4c-0.1-0.1-0.7-0.4-0.8-0.5c-0.1-0.2,0-0.6,0-0.8
			c0-0.4-0.2-0.1-0.4-0.3c-0.3-0.3-0.3-0.4-0.7-0.6c-0.3-0.1-0.5-0.4-0.6-0.7c0.2-0.1,0.4-0.1,0.6-0.2c0.2,0,0.3,0.2,0.5,0.2
			c0.3,0,0.1-0.4,0.3-0.5c0.3-0.1,0.8,0.2,1,0c0.3-0.2,0-0.7,0.5-0.5c-0.5-0.4,0.3-0.8,0.5-1c-0.1-0.1-0.1-0.1-0.2-0.2
			c0.3-0.2,0.5-0.7,0.5-1.1c0-0.2,0.3-0.3,0.4-0.5c0.1-0.2,0.1-0.6,0.2-0.7c0.2-0.2,0.3,0,0.3-0.5c0-0.2,0.3-0.3,0.4-0.5
			c0.2-0.4,0.6-0.4,1.1-0.4c0.2,0,0.8-0.6,0.9-0.7c0.5-0.3,0.7-0.6,1.2-0.3c0.4,0.2,0.8,0,1.2,0.1c0.4,0.1,1,0.3,1.4,0.3
			c0.3,0,0.9-0.4,1.2-0.1c0.3,0.3,0.6,0.9,1.1,0.8c0.4-0.1,1-0.5,1.4-0.7c0.5-0.2,1.1-0.1,1.6-0.3c0.3-0.1,0.6-0.9,0.7-0.9
			c0.6,0,0.7-0.2,1.2-0.2C34.7,30.1,35.2,31.6,35.6,32.1"/>
		<g>
			<path class="st3" d="M97.7,40.3c0-0.2,0-0.5-0.2-0.7c-0.1,0.1-0.1,0.1-0.2,0.2C97.5,39.9,97.7,40.1,97.7,40.3z"/>
			<path class="st3" d="M43.6,8.9c0.2,0.1,1.1,0.3,1.2,0.4c0.1,0.2,0,0.7-0.2,0.9c0.5,0,0.8,0,1.3,0.2c0.5,0.1,0.6,0.4,0.8,0.6
				c0.2,0.2,0.4,0.6,0.9,0.6c0.1,0,0.1,0.2,0.1,0.3c0,0-0.4,0-0.4,0c-0.3,0.2-0.1,0.3-0.3,0.5c-0.2,0.1-0.4,0.1-0.6,0.3
				c-0.2,0.2-0.9,0.1-1.2,0c-0.2-0.1,0-0.2-0.3-0.2c-0.2,0-0.3,0-0.5,0c-0.4,0-0.3,0.4-0.6,0.7c0.3,0,0.4,0.3,0.7,0.5
				c0,0,0.8,0.5,0.4,0.5c-0.2,0,0.4,1.2,0.4,1.4c0-0.1,0.5,0.6,0.5,0.6c0.1,0.1,0,0.1,0.2,0.2c0,0,0.2,0,0.3,0
				c0.7,0.4,1.1,0,1.3-0.7c0.1-0.6,1.2,0.3,1.6,0.1c0.6-0.4,1.1-0.3,1.8-0.3c0.6,0,1,0.2,1.4,0.7c0.3,0.4,0.8,1.3,1.3,1.3
				c-0.2,0.3-0.6,0.1-0.9,0.3c0.3,0.3,0.5,1.2,0.9,1.2c-0.4,0.3-0.1,0.3,0.3,0.3c0.3,0,0.5,0.2,0.8,0.2c0.3,0,1.1-0.1,1.3,0
				c0,0,0.1,0.4,0.1,0.4c0.1,0.2,0.1,0,0.2,0.1c0,0,0.2,0,0.3,0c0.2,0,0,0.1,0.1,0.2c0.3,0.3,0.4,0.9,0.7,1.2
				c-0.4,0.2,0.2,0.9,0.5,1c0.5,0.3,0.6-0.2,1.1-0.2c0.4,0,0.7,0.5,1,0.5c0.4,0,0.7,0,0.9,0.3c0.5-0.6,1.2-0.4,1.8-0.7
				c0.7-0.4,1,0.7,1.4,1.1c0.3,0.3,0.7,0.5,1.1,0.6c0.4,0.2,0.2-0.2,0.3-0.4c0.3-0.3,0.5,0.3,0.9,0.3c0.4,0,0.6,0,0.9,0.3
				c0.2,0.2,0.7,0.2,1,0.2c0.2,0,0.2-0.3,0.3-0.1c0.1,0.1,0,0.2,0.2,0.3c0.3,0.2,0.6,0.1,0.9,0.3c0.3,0.2,0.6,0.3,0.9,0.3
				c0.3,0,0.6-0.1,0.8,0.2c-0.2-0.2,0,0.4,0,0.3c0,0.2,0.2,0.3,0.2,0.4c0,0.7-0.3,1.1-1,1.1c0.3,0.3,0.8,0.7,1.2,0.7
				c-0.2,0.3-0.5,0-0.7,0.2c-0.3,0.2-0.1,0.5-0.3,0.7c0.2,0.1,0.6,0.1,0.8,0.3c0.2,0.2,0,0.4,0.3,0.6c-0.1,0.1-0.1,0.1-0.2,0.2
				c0.5,0.2,0.2,0.8,0.2,1.4c0,0.5-1.5,0.3-1.8,0.3c-0.2,0-0.8-0.1-0.9,0C69,31.7,69,32,68.9,32.1c-0.1,0.1-0.3,0.2-0.4,0.2
				c-0.2,0.1-0.8,0.1-0.8,0.4c0,0.3,0.1,0.6-0.2,0.8c0.6,0.3-0.1,0.7,0.3,0.9c0.3,0.1,0.9-0.6,1.4-0.5c-0.2,0.1-0.4,0.2-0.5,0.3
				c0.5,0,1-0.1,1.3-0.5c0.4-0.4,0.7,0.3,0.9,0.5c0.2,0.4-1.8,1-2.2,1.1c0.5,0.7-0.2,0.5-0.7,0.5c-0.4,0-0.8,0.2-1.2,0.2
				c0.1,0.3,0.3,0.5,0.5,0.8c0.1,0.1,0.4,0,0.5,0.1c0.6,0.2,1,0.7,1.4,1.2c-0.3,0-0.5,0-0.8,0c-0.1,0-0.1,0.4-0.3,0.5
				c0.1-0.3-0.2-0.5-0.4-0.3c-0.2,0.2-0.2,0.7-0.4,0.9c-0.1,0.1-0.2,0.3-0.3,0.4c-0.2,0.4,0,0.1,0,0.4c0,0.1,0.3,0.3,0.2,0.5
				c-0.1,0.2-1,0.3-1.2,0.3c-0.3,0.1-0.6-0.1-0.8-0.3c-0.1-0.1-0.7-0.4-0.7,0c0,0.2,0.5,0.3,0.7,0.3C65,41.4,64,41.3,65,41.6
				c0.4,0.1,1.1,0.3,1.4,0.6c0.3,0.3,0.5,0.9,1,0.9c0.2,0,0.5,0.2,0.7,0.1c0.3-0.2,0.3-0.1,0.6,0.2c0.5,0.4,0.9,0.8,1.5,0.9
				c0.5,0.1,0.9,0.2,1.3,0.5c1,0.7,1.9,1.4,2.8,2.1c0.4,0.3,1,1,1.4,0.5c0.4-0.4,0.8-0.1,1.4-0.1c0.6,0,1.1,0.3,1.7,0.5
				c0.4,0.1,1,0.1,1.3,0.4c0.7,0.7,2.2,0.1,3.1,0.4c0.4,0.1,1.1,0.3,1.5,0.3c0,0,0.3,0.4,0.4,0.5c0.2,0.2,0.5,0.2,0.7,0.3
				c0.4,0.2,1.2,0.3,1.5,0.6c0.3,0.4-0.2,0.8,0.7,0.7c0,0,0-0.2,0.3-0.2c0.1,0,0.2-0.1,0.3-0.1c0.2-0.1,0.4-0.2,0.7-0.3
				c0.6-0.2,0.7,0,1.1,0.4c0.2-0.6,0.3-0.6,0.9-0.3c0.3,0.1,0.5,0.4,0.8,0.6c0.2,0.2,0.8-0.1,1.1,0c0.3,0.1,0.2,0.4,0.2,0.8
				c0,0.5,0.2,0.5,0.7,0.8c0.3,0.2,0.6,0.3,0.9,0.3c0.3,0,0.7,0.2,0.9,0.3c0.1,0.1-0.1,0.2,0.1,0.2c0.1,0,0.2,0,0.3,0
				c0.1,0.1,0.2,0.2,0.2,0.3c0.4-0.5,1.3,0.4,1.6,0.8c0.3,0.3,0.6,0.4,0.8,0.8c0.3,0.4,0.5,0.4,1,0.5c0.4,0.1,0.7,0.2,1,0
				c0.3-0.3,0.2-0.8,0.6-1c0.4-0.2,0.6-0.3,0.8-0.7c0.2-0.5,0.2-0.4-0.2-0.9c-0.9-1.2-2-2.4-3.1-3.4c-0.2-0.2-0.5-0.7-0.8-0.7
				c-0.2,0,0-0.7-0.1-0.9c-0.2-0.7-0.1-1.5-0.1-2.3c-0.3,0.2-0.2,0.8-0.2,1.2c-0.2-0.4-0.4-1.3-0.7-1.6c-0.4-0.4-0.8-0.8-1.3-1.3
				c-0.5-0.5-1,0.1-1.1-0.7c0-0.6,0.6-0.7,0.5-1.2c0.3,0.4,0.4,0,0.5-0.3c0.1-0.3,0.3-0.6,0.3-0.9c0-0.2,0-0.4,0-0.6
				c0-0.2,0.2-0.3,0.2-0.4c0-0.3,0.1-0.6-0.3-0.7c0.1-0.1,0.1-0.1,0.2-0.2c0,0.3,0.2,0.4,0.5,0.5c0-0.2,0-0.3,0-0.5
				c0.6,0.5,1.6-0.3,2.1-0.7c0.3-0.3,0.4,0,0.7,0c0.2,0-0.2-0.6-0.3-0.7c0.4,0.1,0.7-0.1,1-0.3c0.3-0.1,0-0.5,0.5-0.6
				c-0.6-0.6-1.9-0.5-2.4-1c-0.3-0.3-0.2-0.6,0.2-0.7c-0.1,0,0.5,0.2,0.5,0.2c0.2,0,0.2,0.3,0.5,0c-0.4-0.4-0.7-0.8-1.1-1.2
				c-0.3-0.3-0.4-0.8-0.7-1c-0.5-0.4-1-0.6-1.4-1.1c-0.3-0.5-0.8-0.3-1.3-0.4c-0.9-0.1-2.2,0.4-2.2-1c0-1.1-1.9-0.9-1.9-2.2
				c0-0.6,0.4-1,0.6-1.5c0.3-0.5-0.6-0.6-0.8-0.9c-0.2-0.4,0-1.4,0-1.8c0-0.2,0.3-0.4,0.4-0.5c0.3-0.2,0.3-0.2,0.3-0.5
				c0-0.6-0.1-0.7,0.4-1c0.4-0.2,0.9,0.2,1.2,0.5c0.4,0.4,0.8,0.9,1.2,1.2c0.6,0.4,0.8,0.2,1.5,0c0.5-0.2-0.1-0.9-0.3-1.2
				c-0.3-0.4-0.4-0.9-0.7-1.4c0.6,0,0.6,0,1-0.3c0.5-0.4,0.7-0.4,0.7-1.1c0-0.3,0.8-0.3,1.1-0.5c0.2-0.1,0.4-0.2,0.7-0.3
				c0.3-0.1,0.3-0.2,0.4-0.3c0.3-0.3,0.5-0.7,0.9-1c0.2-0.2,0.1-0.3,0.3-0.3c0.2,0,0.4,0.2,0.6,0.2c0.4,0,0.4,0,0.7,0.3
				c0.1,0.1,0,0.3,0.2,0.4c0.3,0.1,0.8,0,1-0.2c0.3-0.3,1-0.9,1.5-0.6c0.3,0.2,0.8,0.8,1.2,0.8c0.9,0,2-0.2,2.8,0.3
				c0.5,0.4,0.8,0.6,1.4,0.9c0.5,0.2,0.9,0.5,1.3,0.8c0.5,0.3,0.5,0.9,0.9,1.2c0.6,0.5,0.3-0.4,0.2-0.7c-0.2-0.4-0.7-0.8,0-0.9
				c0.5,0,1,0.5,1.4,0.7c1,0.5,1.8,1.2,2.8,0.3c0.2-0.2,0.1-0.5,0.4-0.7c0.1-0.1,0.5-0.2,0.6-0.2c0.4,0,0.8-0.2,1.3-0.2
				c0.4,0,0.5,0,0.8,0.2c0.2,0.1,0.4,0.3,0.6,0.3c0.7,0,0.5-0.1,0.8-0.7c0.3,0.1,1,0.4,1,0c0.5,0.2,0.9,0.3,1.4,0.6
				c0.4,0.2,0.7,0.7,1.1,0.7c0.3,0,0.9,0.2,1.3,0.2c0.1,0,0.6,0,0.7,0.1c0.1,0.1,0,0.3,0.1,0.4c0.4,0.4,0.9-0.5,0.9-0.9
				c0-0.7,0.2-0.3,0.7-0.1c0.4,0.2,0.8,0.3,1.2,0.3C115.4,8.3,96.9,0.2,76.6,0.2c-12.1,0-23.6,2.9-33.7,8
				C43.1,8.4,43.3,8.7,43.6,8.9z"/>
		</g>
		<g>
			<path class="st3" d="M105.1,41.6c-0.2,0.1-0.2,0.4,0,0.5C105.1,42,105.1,41.8,105.1,41.6z"/>
			<path class="st3" d="M104.2,42c0.1-0.1,0.1-0.2,0.2-0.3C104.3,41.7,104.2,41.9,104.2,42z"/>
			<polygon class="st3" points="104.2,42 104.2,42 104.2,42 			"/>
			<path class="st3" d="M104.9,42.5c-0.4,0.1-0.4-0.3-0.7-0.5C104.2,42.4,104.6,42.9,104.9,42.5z"/>
			<path class="st3" d="M127,20.7c-0.1,0.1,0,0.6,0,0.7c-0.2,0.5-0.6,0.7-1,0.5c-0.1,0,0-0.3-0.2-0.3c-0.2-0.1-0.6-0.1-0.8-0.2
				c-0.3-0.1-0.8-0.2-1.2-0.2c-0.2,0-0.8-0.7-1.1-0.8c-0.4-0.3-0.8-0.4-1.2-0.5c0,0.4-0.8,0.1-1,0c-0.2,0.4,0,0.7-0.6,0.7
				c-0.5,0-0.8-0.5-1.2-0.5c-0.7,0-1.9,0-2.5,0.5c-0.3,0.3-0.2,0.7-0.8,1c-0.5,0.3-0.8,0.1-1.4-0.1c-0.8-0.3-1.5-1.2-2.4-1.2
				c-0.6,0,0,0.6,0.1,0.9c0.2,0.4,0.1,1.2-0.3,0.5c-0.4-0.9-1.3-1.7-2.2-2c-0.6-0.2-0.8-0.6-1.4-0.9c-0.5-0.3-0.9-0.3-1.4-0.3
				c-0.4,0-1,0.1-1.4,0c-0.4-0.1-0.7-0.8-1.2-0.9c-1-0.2-1.6,1.5-2.6,0.7c-0.1-0.1-0.1-0.5-0.4-0.5c-0.3,0-0.5,0-0.9-0.1
				c-0.2-0.1-0.6,0.4-0.8,0.7c-0.4,0.6-0.5,0.7-1.1,1c-0.2,0.1-0.5,0.2-0.7,0.3c-0.2,0.1-0.6,0-0.8,0.1c-0.2,0.2-0.2,0.5-0.2,0.8
				c0,0.2-0.5,0.4-0.6,0.6c-0.4,0.3-0.5,0.4-1.1,0.4c0.3,0.5,0.3,0.9,0.7,1.4c0.1,0.2,0.3,0.4,0.4,0.6c0.2,0.4,0,0.2,0,0.5
				c0,0.2-0.6,0.3-0.8,0.4c-0.2,0.1-0.5-0.2-0.7-0.3c-0.4-0.2-0.7-0.7-1-1c-0.2-0.2-1-1.1-1.4-0.9c-0.5,0.3-0.6,0.3-0.6,0.9
				c0,0.2,0.1,0.6-0.1,0.6c-0.2,0.1-0.5,0.3-0.6,0.5c-0.2,0.4,0,1.2,0,1.6c0,0.6,0.8,0.5,0.9,1.1c0,0.4-0.7,0.8-0.7,1.3
				c0,0.7,0,1.1,0.7,1.5c0.4,0.2,1,0.3,1.2,0.8c0.2,0.5-0.1,0.9,0.6,1.2c0.5,0.2,0.8-0.1,1.3,0c0.4,0.1,1.3,0,1.6,0.4
				c0.3,0.5,0.7,0.7,1.2,1.1c0.8,0.6,1.3,1.8,2,2.5c-0.3,0.3-0.3,0-0.5,0c0,0-0.6-0.2-0.5-0.2c-0.4,0.1-0.4,0.4-0.2,0.7
				c0.3,0.4,1.7,0.6,2.2,0.9c0-0.2,0.1-0.2,0.2-0.3c0.1,0.1,0.1,0.1,0.2,0.2c0-0.3,0-0.2-0.2-0.3c0.4-0.3,1.1-0.1,1.6-0.4
				c0.4-0.2,1-1,1.4-1c0.6,0,0.7-0.4,1.3-0.7c0.7-0.3,1.2-0.1,1.9,0.1c0.2,0.1,0.4,0.4,0.6,0.4c0.2,0,0.7-0.1,0.8,0.1
				c0.5,0.5,0.8,0.1,1.2-0.3c0.2-0.2,1.5,0.2,1.7,0.4c0.3,0.2,0.9,0.9,0.4,1.2c0.7,0.6,0.5,1.9,0.3,2.7c0,0.2-0.4,1.1,0,1.2
				c0.5,0.1,0.8,0.1,1.1,0.5c-0.3,0.3-0.8,0.1-1.2,0c-0.2,0-0.9-0.4-1.1-0.3c-0.5,0.1-0.9,0.2-1.4,0.2c-0.5,0-0.9,0.2-1.4,0.2
				c-0.7,0-0.3,0.4-0.4,0.9c-0.1,0.3-0.7,0.4-0.5,0.9c0.1,0.3,0.8,0.6,1,0.7c0.3,0.2,0.7,0.2,0.9,0.5c-0.7,0-1.1,0.3-1.7-0.1
				c-0.4-0.2-1.7-0.5-2-0.1c-0.1,0.1,0,0.7,0.1,0.8c0.3,0.3,0.4,0.2,0.8,0.3c0.8,0.2,1.1,0.7,1.6,1.3c0.4,0.5,1,1,1.4,1.5
				c0.2,0.3,0.2,1.4,0.6,1.4c0.4,0,0.6,0,0.9,0.2c0.3,0.2,0.5,0.5,0.7,0.7c0.1,0.1,0.2,0.3,0.3,0.3c0.2,0.1,0.2-0.2,0.3-0.2
				c0.3,0,0.5,0,0.7,0.3c0.7-0.9,1.4,0.8,1.4,1.4c-0.1,0.9-0.3,1.5,0.2,2.4c0.9-1.2,1.6-1.5,3-1.8c1.2-0.3,1.8-0.1,3,0.5
				c1,0.5,1.6,1.4,2.4,2.2c0.3,0.3,0.8,0.9,1.2,1c0.4,0.2,0.9-0.2,1.4-0.2c-0.5-2.3-1.2-4.5-1.7-6.8c-0.5-2.3-1-4.7-1.9-6.8
				c0.9,0.1,2.1-0.7,3-0.9c1-0.3,2.1-0.5,3.1-0.8c0.5-0.2,1-0.3,1.5-0.1c0.4,0.2,1,0.5,1.4,0.7c0.8,0.5,1.7,0.9,2.6,1.3
				c0.9,0.5,1.8,0.8,2.7,1.4c0.5,0.3,0.9,0.5,1.5,0.7c0.3,0.1,0.6,0.7,0.8,0.9c0.7,0.7,1.6,1.1,2.3,1.8c0.3,0.3,0.7,0.8,1.1,0.7
				c0.5-0.2,1-0.1,1.5-0.3c1-0.3,2.1-0.1,3.1,0c0,0,0.1,0,0.1,0c-4-9.9-10-18.7-17.5-25.9c-0.4,0-0.8-0.1-1.3-0.3
				C127.5,20.9,127.1,20.6,127,20.7z"/>
			<path class="st3" d="M111.7,40.5c0-0.6-1-0.2,0,0.2C111.7,40.6,111.7,40.5,111.7,40.5z"/>
		</g>
		<g>
			<path class="st2" d="M74.1,114.6c0.2,0.1,0.5,0.5,0.7,0.5c0-0.6-1.2-0.7-1.4-1.2C73.2,114.3,73.7,114.4,74.1,114.6z"/>
			<path class="st2" d="M130.4,124.9c-0.8-0.2-1.6-0.2-2.4-0.4c-0.6-0.2-1.3-0.1-2-0.2c-0.4-0.1-0.4-0.3-0.8-0.6
				c-0.2-0.2-0.4-0.6-0.6-0.8c-0.1-0.2-0.3-0.1-0.4-0.3c-0.1-0.1-0.1-0.3-0.3-0.4c-0.2-0.2-0.4-0.5-0.6-0.8
				c-0.3-0.3-0.5-0.5-0.7-0.9c-0.2-0.2-0.5-0.4-0.6-0.6c-0.1-0.2-0.1-0.8-0.2-0.8c-0.3,0-0.4-0.2-0.8-0.2c0.1-0.3,0.6-0.9,0.1-0.9
				c-0.2,0-0.3-0.2-0.5-0.2c-0.2,0-0.3,0.2-0.5,0.2c-0.6,0-0.9-1.2-1.3-1.6c-0.4-0.4-0.5-0.6-0.6-1.2c-0.2-0.5-0.4-0.7-0.8-1
				c-0.4-0.3-0.9-1.5-1.1-2.1c0.7,0.1,0.6-0.4,0.4-0.9c-0.1-0.3-0.2-0.4-0.5-0.6c-0.2-0.1,0-0.4-0.3-0.6c0.1-0.1,0.1-0.1,0.2-0.2
				c0.2,0.1,0.2,0.1,0.3,0.2c-0.3-0.4-0.4-0.6-0.8-0.8c-0.5-0.2-0.7-0.4-1.1-0.8c-0.3-0.3-1.8-1-1.3-1.5c-0.4-0.1-0.7-0.4-1.1-0.5
				c-0.1,0-0.4-0.2-0.4-0.4c-0.1-0.2,0.2-0.3,0.2-0.3c-0.2-0.7-0.9-1.4-1.3-2c-0.1-0.2,0-0.7-0.4-0.7c-0.4,0-0.8,0-1.2,0
				c-0.3,0-1,0.1-1.2-0.1c-0.3-0.3-0.4-0.7-0.6-1.1c-0.4-0.9-1-0.6-1.8-0.8c-0.4-0.1-0.8-0.2-1.2-0.3c-0.4-0.1-0.7,0.1-1.1,0.1
				c-1.6-0.2-3.3-0.2-5-0.5c-0.7-0.5-1.4-1.1-2.1-1.6c-1.8-1.3-3.8-2.5-5.4-4.1C89,93.6,87,92.5,85,91.5c-0.5-0.3-0.9-0.6-1.5-0.9
				c-0.4-0.2-1-0.2-1.4-0.2c-0.6-0.1-1.2-0.2-1.8-0.3c-0.7-0.1-0.8-0.3-1.2,0.3c-0.1,0.2-1.3,0.4-1.6,0.5c-0.4,0.1-0.9,0.4-1.3,0.5
				c-1.1,0.2-2.1,0.7-3.2,1c1.2,1.2,2.3,2.5,3.6,3.7c-0.4,0.2-0.9,0.3-1,0.8c-0.2,0.5-0.2,1-0.7,1.2c-0.5,0.1-1,0.2-1.5,0.3
				c-0.6,0.1-0.6,0.5-0.9,1c-0.4,0.8-1.2,1.7-2.2,1.5c-1-0.2-1.9-0.3-2.9-0.5c-0.1,0.8-0.3,1.6-0.3,2.5c0,0.5,0,0.9-0.1,1.3
				c-0.1,0.3-0.3,0.7-0.2,1c0.2-0.1,0.4-0.2,0.6-0.2c1.1,0,1.9,0.8,2.3,1.8c0.3,0.7,0.6,0.9,1,1.5c0.4,0.5,0.5,0.9,1,1.3
				c0.2,0.2,0.1,0.5,0.3,0.7c0.1,0.1,0.3,0.3,0.4,0.5c0.3,0.6,0.6,1.2,1,1.8c0.1,0.2,0.5,0.2,0.6,0.4c0.1,0.3,0.2,0.6,0.3,0.9
				c0.1,0.2,0.4,0.3,0.5,0.4c0.2,0.2,0.3,0.5,0.4,0.7c0.3,0.4,0.8,1,0.8,1.4c0,0.3,0.2,0.3,0,0.7c-0.1,0.2,0,0.4,0.2,0.6
				c0.3,0.5,0.6,1,0.9,1.5c0.1,0.2,0.3,0.2,0.5,0.2c0.3,0,0.3,0.2,0.6,0.3c0.1,0.1,0.3-0.1,0.4,0.1c0.1,0.1,0.1,0.2,0.2,0.3
				c0.3,0.1,0.5,0.3,0.8,0.5c0.4,0.3,0.6,0.9,0.9,1.3c0.3,0.5,0.8,0.9,0.9,1.5c0.2,0.5,0.4,0.8,0.7,1.3c-0.1,0-0.1,0-0.2,0
				c0.5,0.4,0.6,1.3,0.7,1.8c0.1,0.3-0.2,0.5-0.2,0.8c0,0.3,0,0.7,0,1c0,0.3,0.4,1.2,0.6,1.5c0.1,0.3-0.1,0.5,0,0.6
				c0.2,0.3,0.3,0.6,0.5,0.9c0.4,0.9,1.2,1.9,1.9,2.6c0.5,0.5,0.9,0.3,1.4,0.6c0.5,0.4,1,0.7,1.4,1.3c0.1,0.2,0.6,0.3,0.6,0.4
				c0,0.3,0,0.4,0.1,0.7c0.1,0.2,0.3,0.2,0.4,0.4c0.2,0.3,0.3,0.7,0.5,1c0.2,0.5,0.4,1,0.6,1.5c0.1,0.2,0,0.4,0.2,0.6
				c0.2,0.2,0.4,0.5,0.6,0.7c0.3,0.5,0.6,1.1,0.8,1.7c0.2,0.4,0.8,0.8,1.2,1.1c0.3,0.3,1,0.7,1.1,1.1c0.2,0.6,0.3,0.9,0.7,1.5
				c0.2,0.2,0.2,0.6,0.4,0.8c0.1,0.1,0.4,0.3,0.4,0.5c0,0.2,0.1,0.4,0.2,0.6c0.3-0.1,0.7-0.2,1-0.3c0-0.1,0-0.2,0.1-0.2
				c0.1,0,0.2-0.2,0.3-0.3c0-0.1-0.8-1.7-0.1-1.7c0.1,0-0.1-0.5,0.1-0.7c0.2-0.2,0.4-0.5,0.7-0.5c0.4,0,0.6,0.4,0.8,0.6
				c0.2,0.2,0.5,0,0.8,0.3c0.2-0.3,1-0.3,1.4-0.3c0.5,0,1.1-0.2,1.6-0.2c0.6,0,1,0,1.5,0.3c0.3,0.1,0.5,0.2,0.8,0.3
				c11-4.4,20.7-11.3,28.5-20.1c-0.1,0-0.3-0.1-0.4-0.1C131.9,125.1,131,125,130.4,124.9z"/>
			<path class="st2" d="M92.8,147.6c0.2,0.1,0.5-0.1,0.7,0c0.1,0,0,0.4,0.3,0.3c-0.1-0.4-0.2-0.6-0.5-0.9c0.1,0.3,0,0.3-0.2,0.3
				c-0.3-0.3,0.1-1-0.5-1C93,146.7,92,147.2,92.8,147.6z"/>
			<path class="st2" d="M73.5,113.4c-0.2,0.1-0.2,0.4,0,0.5C73.6,113.7,73.5,113.5,73.5,113.4z"/>
		</g>
		<g>
			<path class="st2" d="M76.5,149.7c0.1-0.7,0.1-1.2,0-1.8c0-0.2,0.2-0.5,0.3-0.7c0.1-0.2,0-0.5,0-0.7c0-0.7,0.7,0,1.2-0.2
				c0.4-0.2,0.3-1.2,0.8-1.2c0.5,0,0.7-0.7,1.2-0.7c0.5,0,0.6,0,0.9-0.3c0.3-0.4,0.4-0.7,0.7-1.2c0.2-0.3,0.5,0,0.2-0.5
				c-0.1-0.2-0.6-0.4-0.8-0.5c-0.2-0.1-0.4-0.2-0.6-0.3c-0.2-0.1-0.2-0.4-0.4-0.5c-0.4-0.4-0.8-0.8-1.3-1c-1-0.5-1.1-2-1.4-3.1
				c-0.1-0.5-0.1-1.1-0.2-1.6c-0.1-0.6-0.2-1.1-0.2-1.7c0-0.6-0.1-1.1-0.3-1.7c-0.1-0.3-0.2-1.3,0.3-0.7c0-0.8-1.1-1.6-1.3-2.5
				c-0.1-0.5,0.2-1.1-0.4-1.1c-0.5,0-0.9,0-1.4,0c-1.8,0-3.6,0-5.5,0c-1.8,0-3.6,0-5.4,0c-0.8,0-1.7,0-2.5,0c-0.5,0-1.1,0-1.6,0
				c-0.3,0-1,0.2-0.8-0.3c0.1-0.6-0.3-0.3-0.5,0c-0.2,0.4-0.4,0.3-0.8,0.3c-1,0-1.9,0-2.9,0c-1.9,0-3.7,0-5.6,0c-3.7,0-7.4,0-11.1,0
				c0.2,2.5,0.1,5,0.3,7.5c-0.8,0-1.6,0-2.4,0c-0.7,0-0.7-0.2-0.8,0.5c0,0.3,0,0.6,0,0.9c0,0.2,0,0.5,0,0.7
				c12,8.3,26.5,13.1,42.2,13.2C76.3,150.3,76.4,150,76.5,149.7z"/>
		</g>
		<path class="st2" d="M14.3,37.7c0.1,0.1,0.3,0.2,0.4,0.1c0.2-0.2,0.5,0,0.7,0.1c0.5,0.1,0.4,0.2,0.8,0.5c0.3,0.3,0.6,0.3,0.8,0.6
			c0.2,0.4,0.6,0.1,0.6,0.5c0,0.2-0.1,0.8,0.1,0.8c0.3,0,0.7,0.6,0.9,0.7c0.2,0.1,0.8,0.2,1,0.3c0.2,0.2,0.3,0.7-0.2,0.7
			c0.2,0.2,0.4,0.2,0.7,0.3c-0.1,0.2-0.6,0.1-0.5,0.3c0,0,0.8,0.3,0.9,0.4c0.3,0.2,0.7,0.1,1,0.3c0.3,0.1,0.4,0.7,0.7,0.2
			c0.2-0.3,0.4-0.5,0.8-0.3c0.2,0.1,1,0.5,0.3,0.5c-1.1,0,0.3,1,0.4,1.2c-0.5,0-0.2,0.4-0.4,0.6C22.9,45.7,23,46,23,46.5
			c0,0.3,0.3,0.7,0.5,0.9c0.3,0.4,0.6,0.4,0.9,0.8c0.4,0.4,0.6,0.3,0.4,0.8c-0.1,0.2-0.4,0.9-0.6,0.9c-0.3,0-0.4-0.1-0.6,0.2
			c-0.2,0.3,0,0.1,0,0.4c0,0.4,0,0.7,0.3,0.9c-0.2,0.1-0.8,1-0.9,0.3C23,51.8,22.6,52,22.5,52c-0.1,0-0.3-0.2-0.5-0.2
			c-0.5,0-0.7,0.7-1,0c0.3-0.2,0.6-0.6,0.5-1c0-0.4-0.1-0.3-0.5-0.4c-0.7-0.1-0.3-0.3-0.8-0.6c-0.3-0.1-0.5-0.5-0.8-0.7
			c-0.2-0.2-0.6-0.2-0.9-0.3c0,0,0-0.3,0-0.3c-0.2-0.1-0.2,0.2-0.4,0.2c-0.5,0-0.1,0.3-0.1,0.6c0,0.3-0.9,0.1-0.3,0.6
			c-0.3,0.4-1.1-0.4-1.5-0.6c-0.5-0.3-1.1-0.3-1.5-0.7c-0.3-0.3-1.5-0.8-0.9-1.2c0.1-0.1,0.6,0.1,0.7,0c0.3-0.3-0.2-0.7-0.4-0.9
			c-0.1-0.1-0.6-0.4-0.5-0.6c0.1-0.1,0.7,0.1,0.9,0c0.5-0.3-0.7-0.8-1-1c-0.3-0.2-0.3-0.2-0.3-0.6c0-0.4,0.1-0.5,0.3-0.8
			c0.1-0.2,0.4-0.6,0.1-0.9c-0.2-0.2-0.7-0.1-0.9,0.1c0.2-0.3,0.1-0.5,0-1c0.1-0.1,0.1-0.1,0.2-0.2c0.2,0.2,0.9,0.3,0.9-0.2
			c0-0.1-0.7-0.3-1-0.3c-0.4-0.1-0.1-0.6-0.5-0.8c-0.1-0.1-0.3-0.9-0.4-1.1c0.3-0.1,0-0.1,0.2-0.3c0.1-0.2,0.4,0,0.5-0.3
			c0.2,0.3,0.6,0.2,0.9,0c0.1-0.1,0.2-0.4,0.3-0.5C13.7,37.7,14.1,37.7,14.3,37.7"/>
		<path class="st5" d="M86.8,71.3c0,0.5-0.5,0.7-0.7,1.1c-0.3,0.5-0.7,0.8-1.2,1c-0.7,0.2-0.9,0.3-0.9,1c-0.1,0.6,0.2,0.9,0.4,1.4
			c0.1,0.2,0.3,0.5,0.3,0.7c0,0.3-0.2,0.4-0.2,0.7c0,0.7-0.1,1.1,0,1.7c0.2,0.9,0.1,2.1-0.8,2.6c-2.1,1-4,2.5-6,3.7
			c-1,0.7-1.9,1.3-2.9,2c-0.4,0.3-0.8,0.6-1.2,0.9c-0.4,0.3-1.1,0.9-1.5,1c-0.5,0.1-1.2-0.2-1.6-0.5c-0.3-0.2-0.5-0.3-0.9-0.4
			c-0.2-0.1-0.3-0.5-0.5-0.6c-0.2-0.2-0.4,0.1-0.4-0.3c0-0.3,0.5-0.5,0.3-0.8c-0.3-0.3,0-0.9-0.4-1.3c0.1-0.1,0.3-0.6,0.3-0.8
			c0-0.2,0.2,0,0.2-0.2c0-0.1-0.2-0.3-0.3-0.4c0.1-0.3,0.5-0.6,0.9-0.7c0,0,0.5,0.4,0.5,0.1c0-0.2-0.6-0.2-0.3-0.5
			c0.2-0.2,0.9-0.6,0.7-1c-0.2-0.6-0.3-1-1-1c0.1-0.2,0.2-0.4,0.3-0.5c-0.3-0.4-0.7,0-1.1,0c-0.4,0-0.8-0.9-0.8-1.3
			c0-0.4,0.1-1.1,0-1.4c-0.1-0.2-0.4-0.5-0.5-0.7c-0.2-0.3-0.1-0.5,0-0.9c0.2-0.9,0.4-0.1,0.9-0.2c0.4,0,0-0.3,0.2-0.5
			c0.2-0.2,0.5,0,0.5-0.4c0-0.8,0.6-0.4,0.7-0.8c0-0.2-0.3-0.5-0.3-0.7c-0.1-0.2-0.1-0.7,0-0.9c0.1-0.3-0.1-0.3,0.3-0.3
			c0.2,0,0.6-0.1,0.8,0c0.2,0.1,0.2,0.4,0.5,0.5c0.2,0.1,0.7,0,0.9,0c0.5-0.1,0.9-0.3,1.4-0.5c0.3-0.1,0.4,0,0.7-0.3
			c0.4-0.3,0.4-0.2,0.9-0.1c0.4,0.1,0.8,0.3,1.2,0.5c0.5,0.2,1,0.2,1.6,0.2c1.2,0,2.2-0.4,3.3-1c0.5-0.3,0.9-0.6,1.5-0.6
			c0.3,0,0.7,0,0.9,0c0.3,0,0.5,0.2,0.8,0.1c0.6-0.2,1.3-0.2,1.9-0.4c0.3-0.1,0.3-0.4,0.6-0.4C86.7,70.6,86.7,71,86.8,71.3"/>
		<g>
			<path class="st3" d="M118.7,65.2c0-0.1,0-0.1,0-0.2c-0.1-0.4-0.5-0.8-0.2-1.2C118.1,63.8,118.6,64.9,118.7,65.2z"/>
			<path class="st3" d="M145.8,59.6c-0.2-0.6-0.5-0.7-0.9-1.1c-0.5-0.5-0.5-0.8-0.8-1.3c-0.2-0.4-0.6-0.9-1.1-1
				c-0.3-0.1-0.6-0.2-0.9-0.3c-0.4-0.1-0.2,0.2-0.4,0.3c-0.3,0.1-0.4-0.1-0.7-0.2c-0.3-0.1-0.5,0-0.8-0.1c-0.3-0.1-0.9,0.3-1.3,0.1
				c-0.4-0.2-1.2-0.6-1.3-0.8c-0.1-0.1,0-0.4,0-0.6c0-0.2-0.3-0.4-0.3-0.6c0.5,0.1,0.3-0.2,0.1-0.4c-0.3-0.3-0.6-0.1-0.6-0.5
				c0-0.6-0.2-0.9-0.9-0.9c-1,0-1.2-0.1-1.9-0.8c-0.1-0.1-0.6-0.2-0.8-0.3c-0.3-0.1-0.6-0.2-0.9-0.3c-0.2-0.2-0.3-0.3-0.5-0.5
				c0.1,0.5-0.2,0.5-0.5,0.5c-0.3,0.1-0.4-0.3-0.7,0.2c0.3,0,0.7,0.5,1,0.6c0.3,0.2,0.5,0.8,0.1,0.5c-0.4-0.4-1.4-1.1-1.4-0.2
				c0,0.7-0.6,0.8-1.1,0.8c-0.8,0-0.5,0.3-1,0.8c-0.4,0.4,0,1.1,0.2,1.6c0.2,0.4,0.7,0.6,0.1,0.8c-0.4,0.2-1.1-0.1-1.5-0.2
				c-0.5,0-1.1,0-1.6,0c-0.4,0-1.1,0.4-1.4,0.1c-0.3-0.3-0.7-0.6-1.1-0.9c-1.4-1.4-2.8-3.3-5.1-2.7c-1.1,0.3-2.1,0.4-2.9,1.4
				c-0.3,0.4-0.4,0.4-0.2,0.8c0.1,0.2,0.3,0.5,0.4,0.7c0.3,0.3,0.9,0.8,0.9,1.2c0.3-0.3-0.1-0.4-0.2-0.7c-0.1-0.3,0-0.7,0-0.9
				c0-0.3-0.4-0.3-0.3-0.7c0.1-0.4,0.2-0.5,0.5-0.8c0.3-0.3,0.1-0.3,0.6-0.3c0.3,0,0.6,0,0.8-0.1c0.6-0.3,1,0.4,1.3,0.8
				c0.4,0.5,0.4,1,0.8,1.5c0.4,0.5,1.1,0.8,1.6,1.1c0.2,0.1,0.5,0.2,0.6,0.4c0,0,0.2,0.6,0.2,0.7c-0.2,0.5-0.8,0.2-1.2,0.2
				c0.1,0.2,0.2,0.5,0.3,0.7c-0.5,0.1-0.6-0.3-1.2,0c-0.7,0.4-0.6-0.3-1.2-0.5c-0.5-0.2-0.8,0.3-1.4,0c-0.2-0.1-0.8-0.5-0.8-0.9
				c0,0.9-0.3,1.9-0.1,2.8c0.1,0.4,0.4,0.7,0.6,1.1c0.2,0.4,0.6,0.5,0.9,0.9c-0.2-0.3-0.7-0.9-0.1-0.9c0.3,0,0.7,0.2,1,0.2
				c0.4,0,0.2,0.5,0.3,0.8c0.2,0.3,0.5,0.3,0.6,0.8c-0.5,0-0.9,0-1.2-0.3c-0.1,0.5-0.3,0.9,0,1.4c0.7-0.9,1.6,0.3,2,0.7
				c0.6,0.6,0.9,1.9,0.9,2.6c0,1,0.3,2,0.6,3c0.1,0.3,0.2,0.5,0.2,0.8c0,0.2,0.6,0.1,0.8,0.1c0.3,0,1-0.2,1.3-0.3
				c0.5-0.2,0.6-0.6,0.7-1.1c0.1-0.5,0.5-0.6,0.9-0.9c0.5-0.3,0.9-0.5,1.4-0.5c0.5,0,1,0.3,1.4,0.2c0.3-0.1,0.2,0,0.3-0.2
				c0.1-0.1-0.1-0.5,0.3-0.5c0.3,0,0.9-0.1,1.2,0c0.5,0.2,1-0.1,1.4,0.1c0.2,0.1,0.3,0.4,0.3,0.6c0,0.3,0,0.1,0.2,0.3
				c0.3,0.3,1.2,0.2,1.6,0.3c0.5,0.1,0.9,0.5,1.2,0.8c0.3,0.3,1-0.2,1.3,0c0.2,0.1,0.4-0.1,0.7,0c0.3,0.1,0.5,0.2,0.8,0.3
				c0.2,0.1,0.6,0.2,0.8,0.3c0.2,0.2,0.1,0.5,0.3,0.6c0.4,0.4,0.8,0.5,1.3,0.7c0.6,0.2,0.9,0.5,1.4,1c0.4,0.3,0.6,0.8,1.1,0.8
				c0.6,0,1.3,0,1.9,0c0.4,0,0.5,1,0.6,1.3c0.1,0.4,0.1,0.9,0.2,1.3c0,0,0.3,0.3,0.4,0.4c0.1,0.2,0.1,0.4,0.1,0.7
				c0-0.1,0.9,0.7,1,0.8c0.2,0.1,0.4,0.2,0.7,0.2c0.2,0,0.6-0.2,0.7-0.2c0.2,0,1,0.6,1.1,0.8c0.2,0.5,0.2,0.1,0.5,0.1
				c0.2,0,0.1-0.2,0.3-0.1c0.1,0.1,0.2,0.1,0.3,0.1c0.2,0,0.7-0.3,1-0.6c0-0.8,0.1-1.5,0.1-2.3c0-4.1-0.3-8-0.9-11.9
				C149.3,62,146.7,61.7,145.8,59.6z"/>
		</g>
		<path class="st3" d="M35.2,60c-0.3,0-0.6,0-0.9,0c0.1-0.5,0.4-0.2,0.7-0.5C35.2,59.7,35.2,59.9,35.2,60 M62,53.2
			c-0.1,0.5,0.5,0.8,0.9,0.9c0.2,0.1,0.6,0.3,0.7,0.3c0.3-0.1,0.7-0.3,1-0.3c0,0,0.6,0.3,0.5,0.2c0.2,0.3,0.3,0.6,0.5,0.9
			c0.3,0.6,0.8,0.5,1.2,0.4c0.5-0.2,0.8-0.2,1.4,0.2c0.3,0.2,0,0.3,0.5,0.4c0.3,0,0.6,0.1,0.9,0.1c0.6,0.1,0.9,0.3,1.5,0.5
			c0.5,0.2,1.3,0.4,1.8,0.3c1-0.3,2.3-0.7,3.3-0.4c0.3,0.1,0.5,0.1,0.8,0.2c0.3,0.2,0.3-0.1,0.7,0c0.6,0.2,1.1-0.1,1.7-0.4
			c0.4-0.2,0.7-0.5,1.1-0.7c0.3-0.1,0.6-0.3,0.9-0.4c0.3-0.1,0.2-0.4,0.5-0.4c0.1,0,0.5,0.2,0.7,0.2c0.3,0,0.3-0.2,0.6-0.2
			c0.4,0,1.1,0.3,1.4,0.2c0.3-0.1,0-0.3,0.3-0.5c0.3-0.2,0.5,0.1,0.6,0.3c0.3,0.4,1.3,0.5,1.3,1c0,0.5,1,0.1,1,0.5
			c0,0.6,1,0.6,1,1.2c0,0.2,0,0.5,0,0.8c0,0.2-0.2,0.3-0.2,0.4s0.2,0.2,0.2,0.3c0,0.7,0.5,1.1,1.1,1.3c0.6,0.2,1,0,1.6,0.3
			c0.5,0.2,1.1,1,1.4,1.1c-0.5,0.1-0.5-0.4-0.9-0.2c-0.2,0.1-0.1,0.8-0.3,1.1c-0.2,0.3-0.5,0.2-0.9,0.2c-0.3,0,0.2,0.7,0.3,0.8
			c0.1,0.1,0.3,0,0.3,0.2c0,0.1,0,0.3,0,0.4c0.1,0.2-0.1,0.3,0.1,0.4c0.2,0.1,0.4,0.2,0.4,0.4c0,0.9,0.1,1.5,0.9,1.8
			c-0.1,0.2-0.2,0.4-0.2,0.6c0,0.2-0.3,0.3-0.3,0.5c0,0.1-0.1,0.5,0,0.6c0,0,0.6,0.1,0.7,0.2c0.3,0.2,0.3,0.3,0.5,0.5
			c0,0.1,0.2,0.6,0.2,0.6c0,0.3,0,0.3,0.2,0.4c0.2,0.2,0.5,0.3,0.7,0.5c-0.2,0.1-0.2,0.3,0,0.5c-0.5-0.2-0.4-0.2-0.8,0.2
			c-0.3,0.2-0.6,0.7-0.9,0.3c-0.2-0.2,0-1-0.4-1c-0.2,0-0.2-0.2-0.4-0.2c-0.3,0.1-0.2,0.3-0.6,0.3c-0.4,0-0.7,0-1.1-0.2
			c-0.2-0.1-1-0.4-1.1-0.3c-0.2,0.1-1.1,0-1.1,0.1c-0.2,0.5-0.5,0.7-1,0.9c-0.1-0.4-0.5-1.1-0.8-0.4c-0.2,0.4-1.3,0.3-1.7,0.4
			c-0.2,0.1-0.4,0.2-0.7,0.2c-0.2,0-0.4-0.2-0.7-0.2c-0.6,0-1.1-0.1-1.6,0.2c-1.8,0.9-4.2,2.2-6.1,0.9C75,72.2,74.2,71.9,74,72
			c-0.5,0.4-1,0.5-1.6,0.7c-0.5,0.2-0.8,0.3-1.4,0.3c-0.2,0-0.5,0-0.6-0.3c-0.2-0.3-0.4-0.3-0.7-0.3c-0.3,0-0.4-0.1-0.4,0.3
			c0,0.2,0,0.5,0,0.8c0.1,0.4,0.6,1,0.1,1c-0.3,0-0.4,0.1-0.4,0.4c0,0.6-0.1,0.2-0.3,0.6c-0.1,0.1-0.2-0.1-0.2,0.1c0,0,0,0.4,0,0.4
			c-0.2,0.1-0.6-0.2-0.7-0.3c-0.1,0-0.1,0-0.2,0c0.4-0.4-0.2-1-0.4-1.4c-0.2-0.4,0.5-0.9,0.8-1.2c0.3-0.3,0-1.1-0.4-1.2
			c-0.1,0-1.2,0.7-1.2,0.8c0,1-2.3-0.1-2.8-0.3c-0.8-0.4-1.7,1.6-2.3,1.9c-0.5,0.3-0.9,0.4-1.5,0.5c-0.4,0.1-1.3,0-1.6,0.2
			c-1.1,0.6-1.9-0.8-2.5-1.5c-0.4-0.4-0.8-0.3-1.3-0.5c-0.4-0.2-1.2-0.8-1.6-0.8c-0.6,0-1.1,0-1.7-0.1c-0.5-0.1-0.3,1-0.3,1.3
			c0,0.2-0.2,0.3-0.2,0.6c0,0.2,0,0.5-0.3,0.4c-0.1,0-0.4-0.3-0.5-0.3c-0.2,0.1-0.4,0.3-0.6,0.3c-0.5,0.1-0.9,0.4-1.3,0.1
			c-0.4-0.2-1.1-0.4-1.3-0.8c-0.1-0.3-0.3-1-0.6-1.1c-0.3-0.2-0.1,0-0.4,0c-0.2,0-0.5,0.1-0.6,0c-0.3-0.3-0.9-0.8-1.3-0.3
			c-0.3,0.4-1.1,0.6-0.6,0.2c-0.6,0-1.5,0.4-2,0c0.3-0.3,1-0.2,1.4-0.3c0.4-0.1,0.6-0.4,1-0.7c-0.8,0-1.6,0-2.4,0
			c-0.3,0-0.7,0.4-0.7-0.1c0-0.5,0.4-0.3,0.9-0.4c-0.1-0.2-0.2-0.4-0.3-0.5c-0.2-0.2-0.4-0.1-0.5-0.2c-0.3-0.3-0.2-0.9-0.6-1.1
			C39.1,69,40,69.1,40,68.6c0-0.6-0.3-0.6-0.7-0.8c-0.4-0.2-0.6-0.4-0.9-0.6c-0.5-0.2-0.6,0.1-1-0.1c-0.1,0-0.4-0.3-0.4-0.4
			c0-0.2,0.3-0.3,0.3-0.3c0.1-0.4-0.4-0.7,0-1c0.3,0.4,0.5,0.2,0.5,0.8c0,0.4,0.4,0.7,0.3,0.1c0.3,0.4,1.1,0.1,1.4-0.2
			c-0.3,0.1-0.7,0.3-0.9-0.1c-0.1-0.2-0.5-0.7-0.4-0.8c0.2-0.2,0.8-0.4,0.6-0.8c0,0-0.9-0.1-0.6-0.4c0.3-0.3-0.2-0.5-0.4-0.7
			c-0.3-0.3,0.2-0.5,0.3-0.7c0.5-0.9-0.9-0.4-1.5-0.2c-1,0.3-0.8-0.6-0.8-1.3c0-0.2,0-0.3,0-0.5c0-0.2,0.3-0.2,0.4-0.3
			c0.3-0.4,0.6-0.7,0.9-1c0.3-0.3,0.6-0.3,1.1-0.3c0.1,0,0.9-0.4,0.9-0.1c0,0.1,0.5,0.4,0.7,0.4c0.3-0.1,0.8-0.1,1-0.3
			c-0.2-0.1-0.3-0.2-0.5-0.3c0.2,0,0.4-0.2,0.6-0.1c0.4,0.2,0,0.4,0.1,0.5c0.4,0.3,0.9,0,1.4,0c0.5,0,1.1,0,1.6,0
			c0.3,0,0.5-0.1,0.2-0.3c-0.2-0.2-0.5,0.1-0.7-0.2c0.8-0.6,2-0.7,3-0.7c0.2,0-0.2-0.2-0.2-0.2c-0.3,0-0.7-0.1-1-0.1
			c-0.2,0-1.2-0.5-1.2-0.7c0,0.1,0.2-0.7,0.2-0.7c0.2-0.2,0.4-0.2,0.7-0.2c0.6,0,1.3,0.2,1.8,0.3c0.4,0.1,0.9-0.2,1.4-0.1
			c0.6,0.1,1.2,0.3,1.9,0.3c0.7,0,0.9-0.1,1.2-0.8c0.1-0.4,1.2-0.7,1.6-0.9c0.4-0.2,0.6-0.6,1-0.8c0.6-0.3,1.1-0.2,1.7-0.4
			c0.4-0.1,0.8-0.5,1.3-0.5c0.8,0.1,1.5,0.1,2.3,0.2c0.5,0,1.1,0,1.6,0c0.6,0,0.8-0.4,1.5-0.2C61.9,53,62,53.1,62,53.2 M38.6,53.1
			c0.2,0.1,0.4,0.3,0.5,0.3c0.2,0,0.2-0.2,0.4-0.2c0.5,0,0.6-0.2,1.1,0c-0.5,0.5,0.6,1.5,1,1.8c0.7,0.5,1.6,0.6,2.3,0.9
			c0.2,0.1,0,0.8-0.1,0.9c-0.2,0.2-1-0.1-1.2-0.1c-0.4-0.1-0.8-0.3-1.2-0.2c-0.4,0.1-0.6,0.3-1.1,0.3c-0.4,0-0.9-0.2-1,0.3
			c-0.1,0.2-0.2,0.9-0.5,1c-0.9,0.3-1.5,0.6-2.1,1.3c-0.3,0.2-0.4,0.6-0.6,0.8c-0.4,0.4-0.1-0.4-0.1-0.5c0-1,1.2-0.7,1.4-1.4
			c-0.5,0-1.1,0-1.6,0c-0.9,0-0.4-0.3-0.2-0.8c0.1-0.2,0.4-0.4,0.5-0.6c0-0.2-0.2-0.4-0.2-0.6c0-0.6,0.7-0.6,0.7-1
			c0-0.7-0.4-0.8-0.9-1.1c-0.3-0.2,0.6-0.5,0.6-0.8c0-0.1,1-0.2,1.2-0.3C37.8,52.9,38.5,52.3,38.6,53.1"/>
		<path class="st3" d="M50.2,37.6c0.2,0.1,0.3,0.1,0.5,0.2c-0.7,0-1.8,0-2-0.7c0.2,0.1,0.4,0.3,0.6,0.3
			C49.6,37.5,49.9,37.5,50.2,37.6 M50.4,15.4c0.3,0,0.6,0,0.9,0c0.4,0,0.6,0.4,0.9,0.6c0.4,0.4,0.8,1.4,1.4,1.4
			c-0.2,0.3-0.6,0.1-0.9,0.3c0.3,0.3,0.5,1.2,0.9,1.2c-0.5,0.4,0.6,0.4,1,0.5c0.4,0.1,0.9,0,1.3,0c0.1,0,0.1,0.4,0.3,0.5
			c0.1,0.1,0.5-0.1,0.5,0.1c0,0.4,0.4,1,0.7,1.3c-0.4,0.3,0.2,0.7,0.4,0.9c0.5,0.5,0.7-0.1,1.2-0.1c0.4,0,0.6,0.4,0.9,0.5
			c0.4,0.2,0.7-0.1,1,0.3c0.4-0.5,1.2-0.5,1.7-0.7c0.5-0.1,0.4-0.3,0.8,0.1c0.3,0.3,0.4,0.6,0.7,0.9c0.2,0.2,0.6,0.4,0.9,0.6
			c0.1,0.1,0.3,0.2,0.4,0.2c0.2,0,0-0.3,0.1-0.3c0.4-0.2,0.4-0.2,0.8,0.1c0.3,0.2,0.6-0.1,0.9,0.2c0.3,0.3,0.6,0.3,0.9,0.3
			c0.2,0,0.2,0,0.3-0.1c0.3-0.2,0.2,0.2,0.3,0.3c0.2,0.1,0.6,0.1,0.7,0.2c0.3,0.2,0.7,0.5,1.1,0.5c0.2,0,0.6-0.1,0.8,0
			c0.3,0.2-0.1,0.2,0,0.3c0.1,0.2,0.3,0.3,0.3,0.5c0.2,0.7-0.4,1.2-1,1.2c0.3,0.3,0.8,0.7,1.2,0.7c-0.2,0.3-0.5,0-0.7,0.2
			c-0.3,0.2-0.1,0.5-0.3,0.7c0.1,0,0.6,0.1,0.7,0.2c0.2,0.2,0.1,0.5,0.3,0.7c-0.1,0.1-0.1,0.1-0.2,0.2c0.5,0.2,0.2,0.8,0.2,1.4
			c0,0.5-1.5,0.3-1.8,0.3c-0.2,0-0.8-0.1-0.9,0C69,31.7,69,32,68.9,32.1c-0.1,0.1-0.3,0.2-0.4,0.2c-0.2,0.1-0.8,0.1-0.8,0.4
			c0,0.3,0.1,0.6-0.2,0.8c0.7,0.3-0.1,0.5,0.3,0.9c-0.3,0.4-0.8,0-1.2,0c-0.5,0-0.9,0.2-1.2,0.5c-0.3,0.3-0.8,0.1-1.1,0.4
			c-0.5,0.5-0.5,0.3-1.2,0.3c-0.4,0-0.6,0.5-0.9,0.5c-0.4,0-0.8-0.3-1.3,0.1c-0.4,0.4-1.4,1.9-2,1.8c0.5-0.3,1-0.6,0.5-1.2
			c-0.1,0.2-0.2,0.3-0.3,0.5c-0.2,0.3-0.2,0-0.4,0.2c-0.5,0.4-0.2,0.4-0.2,0.9c0,0.7,1.1,1.6,1.5,2.1c0.3,0.4,0.4,0.2,0.8,0.4
			c0.4,0.2,0.6-0.1,0.9-0.2c0.2,0,0.4,0,0.5,0c0.2-0.1,0.3-0.3,0.5-0.3c0.4-0.1,0.8,0.2,1.2,0.3c-0.2,0.2-0.3,1.2-0.4,1.2
			c-0.6,0.2-1.1,0.1-1.6,0c-0.4-0.1-0.9-0.4-1.1,0.1c-0.1,0.4-0.3,0.3-0.7,0.4c-0.3,0.1-0.1,0.4-0.7,0.4c-0.4,0-1,0-1.3,0.4
			c-0.3,0.4-0.7,1.1-1.2,1.1c-0.6,0-0.9-0.2-1.4-0.4c-0.3-0.2,0-1,0-1.4c0-0.4-0.2-1-0.7-1.1c-0.1,0-0.3,0.1-0.4,0.1
			c-0.2,0.1-0.1-0.1-0.2-0.1c-0.3-0.1-0.6-0.4-0.9-0.5c-0.2-0.1-1.3-0.1-1.2-0.2c0.5-0.6,0.8-0.9,1.5-1.3c0.2-0.1,0.4,0.1,0.6-0.1
			c0.2-0.1,0.4-0.3,0.6-0.4c0.3-0.2,0.4-0.2,0.2-0.6c-0.2-0.3-0.4-0.1-0.7-0.2c-0.2,0-0.5-0.3-0.7-0.3c-0.2,0-0.5,0.2-0.8,0.2
			c-0.6,0-1.1,0.2-1.7,0c-0.5-0.2-0.9-0.5-1.4-0.5c-0.9,0,0.1-0.4,0.3-0.5c-0.2-0.3-0.5-0.2-0.8-0.2c-0.3,0-0.4-0.2-0.8-0.3
			c0.6,0,1.1,0.1,1.7,0.2c0.7,0.1,0.9,0,1.4-0.5c-0.7,0.4-1.4,0.4-1.9-0.3c-0.3-0.5-0.3-1.4-1-1.7c0.5,0.4,0.7,0.9,0.8,1.5
			c0.2,0.8-0.7,0.6-1.1,0.4c0.1-0.1,0.1-0.3,0.2-0.3c-0.1,0.1-0.6,0.7-0.8,0.7c-0.5-0.2-0.8,0-1.3,0.1c-0.4,0.1,0,0.6-0.2,0.8
			c-0.2,0.2-0.4,0.7-0.6,0.9c-0.6,0.7-1,1.2-2,1.2c-0.6,0-0.3,0.5-0.1,0.8c0.2,0.3,0.6,0.8,0.2,1.1c-0.5-1.4-1.8-0.1-2.7-0.2
			c0.1,0.1,0.1,0.1,0.2,0.2c-0.6,0-1.5-0.2-1.9-0.7c0.3-0.4,0.7-0.3,0.9-0.5c0.1-0.2-0.2-0.3,0-0.6c0.1-0.2,0.4-0.2,0.6-0.4
			c0-0.1,0.1-0.4,0.2-0.5c0-0.1,0.3-0.1,0.3-0.2c0.1-0.1,0-0.3,0-0.3c0.1-0.3,0.1-0.2-0.1-0.6c-0.1-0.1-0.2-0.4-0.1-0.5
			c0.2-0.2,0.8-0.7,0.8-0.2c0,0.8,0.1,0.1,0.6,0.1c0.2,0,0.3,0.2,0.5,0.2c0.2,0,0.3-0.2,0.5-0.2c0.1,0,0.3,0.3,0.4,0.3
			c0.2,0.1,0.5,0,0.7-0.2c-0.2-0.1-0.6-0.3-0.7-0.5c-0.1-0.2,0.1-0.6-0.1-0.8c-0.3-0.3-1.1-0.4-1.1-0.9c0-0.2-0.3-0.3-0.3-0.5
			c0-0.3,0.3-0.3,0-0.6c-0.1-0.1-0.5-0.2-0.7-0.3c-0.3-0.2-0.5-0.3-0.7-0.5c0.5-0.4-0.2-1.9-0.4-1.6c-0.5,0.5-1-1.3-1.8-0.4
			c-0.1-0.2-0.2-0.1-0.2-0.3c-0.1,0.1-0.1,0.1-0.2,0.2c0.1-0.5-0.3-0.2-0.6-0.4c-0.4-0.2-0.6-0.4-1-0.6c-0.9-0.4-1.4,0.1-2.3,0.1
			c-0.5,0-0.6,0.1-1,0.3c-0.1,0-0.2,0.2-0.2,0.2c-0.1,0-0.7-0.1-0.8,0c0.1,0-0.2,0.5-0.2,0.5c-0.2,0.3-0.1,0.3-0.4,0.4
			c-0.5,0.1-1,0.1-1.6,0.3c-0.4,0.1-0.8,0.3-1.2,0.5c-0.5,0.3-0.6,0.2-1-0.2c-0.4-0.4-0.5-0.4-1-0.4c-0.2,0-0.3,0.2-0.5,0.2
			c-0.2,0-0.4-0.1-0.6-0.2c-0.4-0.1-0.7-0.2-1.1-0.2c-0.2,0-0.5,0-0.7,0c-0.2,0-0.4-0.3-0.6-0.3c-0.4,0-0.5,0.5-0.9,0.5
			c0,0-0.4-0.6-0.4-0.7c-0.3,0.5-0.5-0.2-0.7-0.3c-0.1-0.1-0.7,0-0.7-0.3c0-0.3-0.2-0.4-0.4-0.4c-0.6,0,0-0.8,0.1-0.9
			c0.2-0.2,0.2-0.5,0.3-0.8c0-0.1,0.3-0.7,0.3-0.7c0.2-0.1,0.7,0.4,0.9,0.2c0.1-0.1-0.5-0.5-0.5-0.7c0,0,0.2-0.2,0.2-0.3
			c0,0-0.2-0.4-0.3-0.4c-0.1-0.3-0.1-0.5,0-0.8c0.4-0.6,0.8-1.2,1.4-1.6c0.3-0.2,0.4-0.5,0.7-0.7c0.1-0.1,0.2-0.3,0.3-0.3
			c0.2-0.1,0.5,0.1,0.7,0c0.4-0.2,0.6-1.3-0.2-1.4c0.7-0.3,0-0.5-0.2-0.9c-0.2-0.6-0.5-0.8-1-1.1c0.1-0.1,0.1-0.1,0.2-0.2
			c-0.2-0.1-0.3-0.4-0.3-0.6c0-0.3,0.1-0.3,0.4-0.3c0.2,0,0.5,0.2,0.6,0.2c0.1,0,0.5-0.5,0.7-0.6c0.2-0.1,0.2-0.5,0.3-0.5
			c0.2,0,0.4-0.2,0.7-0.2c0.2,0,0.5,0,0.7,0c0.3,0,0.5-0.2,0.7-0.2c1.1,0,2.2,0.2,3.3,0.3c0.5,0.1,0.9,0.2,1.3,0.3
			c0.4,0.1,1.1-0.1,1.4,0.2c0.1,0.1,0.4,0.5,0.5,0.5c0.2,0,0.4-0.2,0.7-0.2c0.2,0,0.5,0.5,0.3,0.5c0.3,0,0.3-0.3,0.4-0.3
			c0.5,0,0.8-0.2,1.2,0c0.2,0.1,0.5,0,0.7,0c0.3,0,0.4,0.5,0.6,0.5c0.4,0,0-0.3,0.3-0.3c0.1,0,0.4-0.2,0.5-0.3
			c0.4-0.4,0.6,0.4,0.9,0.6c0.3,0.2,0.2,0,0.6,0c0.2,0,0.5,0,0.7,0c0.7-0.2,1-0.1,1.5,0.2c0.5,0.3,0.5,0.4,1.1,0.2
			c-0.6-0.8-0.6-1.5,0.2-2.2c0.1-0.1,0.3-0.3,0.4-0.4c0.1-0.1,0.4,0.1,0.6,0.1c0.2,0,0.5-0.2,0.8-0.2c0.2,0,0.5,0,0.7,0
			c0.4,0,0.7,0.3,1.1,0.2c0.2-0.1,0.3-0.2,0.4-0.4c0.1-0.5,0.1-0.3,0.4-0.5c0.2-0.2,0.9,0.3,1.3,0.3c0.2-0.1,0.4-0.3,0.6-0.3
			C49.9,15.4,50.1,15.4,50.4,15.4"/>
		<path class="st3" d="M141.3,47.6c-0.7-0.5-1.3-1.2-2.1-1.7c-0.4-0.3-0.8-0.5-1.1-0.8c-0.2-0.2-0.5-0.8-0.8-0.9
			c-1.8-0.6-3.3-1.9-5.1-2.5c-0.8-0.3-1.7-0.8-2.5-1.2c-0.2-0.1-0.4-0.3-0.6-0.4c-0.3-0.2-0.3,0-0.6,0c-0.5,0.1-0.9,0.2-1.4,0.3
			c-0.5,0.1-1,0.3-1.5,0.4c-0.4,0.1-0.9,0.1-1.4,0.3c-0.5,0.2-1,0.3-1.4,0.5c-0.4,0.2-0.7,0.4-1.2,0.3c0.4,1,0.8,2.2,1,3.2
			c0.4,2,1.1,4,1.6,6.1c0.2,1,0.6,1.9,0.8,2.9c0.1,0.4,0.1,1.4,0.5,1.4c0.5,0,1.1,0,1.6,0.1c0.3,0.1,1.2,0.3,1.5,0
			c0.2-0.2-0.4-1-0.5-1.3c-0.1-0.2-0.3-0.6-0.2-0.9c0-0.2,0.4-0.4,0.4-0.6c0.2-0.6,0.8-0.4,1.4-0.4c0.5,0,0.6-0.7,0.6-1.1
			c0-0.3,0.9,0,1,0.1c0.2,0.1,0.4,0.5,0.6,0.5c0.3,0-0.1-0.4-0.2-0.5c-0.2-0.2-0.8-0.7-1.1-0.7c0.3-0.4,0.4-0.2,0.8-0.2
			c0.3,0,0.5-0.2,0.4-0.5c0.4,0.4,1.1,1,1.8,1c0.4,0,0.5,0.3,0.8,0.5c0.4,0.3,0.6,0.3,1,0.3c0.4,0,0.7,0,1,0.2
			c0.4,0.3,0.2,0.2,0.3,0.7c0,0.1-0.1,0.3,0.1,0.4c0.2,0.1,0.4,0.1,0.5,0.2c0.2,0.2,0.4,0.5-0.1,0.4c0.1,0.3,0.3,0.4,0.3,0.8
			c0,0.4,0,0.4,0.2,0.6c0.5,0.5,1.2,0.7,1.8,0.7c0.2,0,0.3,0,0.5-0.1c0.2-0.1,0.3,0.1,0.4,0.1c0.2,0,0.6,0.2,0.8,0.2
			c0.1,0,0.3,0,0.4,0c0.1,0,0.1-0.3,0.3-0.3c0.3,0,0.6,0.2,0.9,0.3c1.2,0.4,1.2,1.6,2,2.3c0.4,0.4,0.7,0.5,0.9,1.1
			c0.2,0.5,0.3,1,0.8,1.3c0.5,0.3,1,0.6,1.5,0.9c0.5,0.2,0.9,0.6,1.4,0.8c0.6,0.2,1,0.5,1.5,0.9c-0.9-5.6-2.4-11-4.5-16.2
			c-0.6,0-1.2-0.1-1.9-0.1C143.4,47.1,142.4,47.6,141.3,47.6z"/>
		<path class="st3" d="M15.6,51.2c0.1,0.5,0.7-0.3,0.9-0.1c0.2,0.2,0.3,0.5,0.4,0.7c0.1,0.1,0.5,0.1,0.6,0.2
			c0.4,0.2,0.6,0.7,0.6,1.2c0,0.2,0,0.4-0.1,0.7c-0.1,0.4,0.1,0.4,0.1,0.7c0,0.2-0.2,0.2-0.2,0.4c0,0.1,0.1,0.6,0.2,0.7
			c0.1,0.3,0.3,0.9,0.6,1.1c0,0,0.3,0.5,0.3,0.5c0.2,0.1,0.5-0.1,0.7,0c0.1,0.1-0.1,0.5,0.1,0.6c0.2,0.2,0.4,0.3,0.2,0.5
			c-0.1,0.1,0,0.4-0.2,0.4c-0.4,0-0.3,0.1-0.4,0.3c-0.2,0.3-0.2,0.9-0.4,1.1c-0.3,0.3-0.6,0.1-0.8,0.4c-0.1,0.1-0.2-0.1-0.2,0.1
			c0,0.1,0.2,0.2,0.2,0.3c0,0.1,0.2,0.1,0.2,0.3c0,0.2-0.2,0-0.2,0.1c0,0-0.2,0-0.2,0.3c0,0.3,0,0.3-0.3,0.3c-0.6,0-0.6-0.4-0.8-0.9
			c-0.4-0.9-1.5-1.1-2-1.9c0.7,0.2,0-0.8,0-1.1c0-0.7,0.3-1.3,0.2-2c0-0.3-0.3-0.4-0.1-0.8c0.1-0.3,0.3-0.5,0.3-0.9
			c0-0.3,0-0.8-0.4-0.8c-0.4,0-0.6-0.1-0.3-0.5c-0.4,0,0-0.4-0.3-0.6c-0.1-0.1,0.3-0.7,0.4-0.9c0.1-0.1,0.5-0.8,0.5-0.9
			C15.7,50.6,15.3,51.2,15.6,51.2"/>
	</g>
</g>
<ellipse transform="matrix(0.7071 -0.7071 0.7071 0.7071 -30.8558 76.2734)" class="st6" cx="76.6" cy="75.4" rx="70.2" ry="70.2"/>
</svg>
