<!-- Generator: Adobe Illustrator 24.2.3, SVG Export Plug-In  -->
<svg version="1.1" xmlns="http://www.w3.org/2000/svg" xmlns:xlink="http://www.w3.org/1999/xlink" x="0px" y="0px" width="151.5px"
	 height="150.7px" viewBox="0 0 151.5 150.7" style="overflow:visible;enable-background:new 0 0 151.5 150.7;"
	 xml:space="preserve">
<style type="text/css">
	.st0{clip-path:url(#SVGID_2_);}
	.st1{fill:#FFFFFF;}
	.st2{fill:#B3B3B3;stroke:#FFFFFF;stroke-width:0.2777;stroke-linecap:round;stroke-linejoin:round;}
	.st3{fill:#B3B3B3;stroke:#FFFFFF;stroke-width:0.3996;stroke-linejoin:round;stroke-miterlimit:10;}
	.st4{fill:#141F52;stroke:#FFFFFF;stroke-width:0.3996;stroke-linejoin:round;stroke-miterlimit:10;}
	.st5{fill:#B3B3B3;}
	.st6{fill:none;stroke:#FFFFFF;stroke-miterlimit:10;}
	.st7{clip-path:url(#SVGID_4_);}
</style>
<defs>
</defs>
<g>
	<defs>
		
			<ellipse id="SVGID_1_" transform="matrix(0.7071 -0.7071 0.7071 0.7071 -30.9992 75.9271)" cx="76.2" cy="75.4" rx="70.2" ry="70.2"/>
	</defs>
	<clipPath id="SVGID_2_">
		<use xlink:href="#SVGID_1_"  style="overflow:visible;"/>
	</clipPath>
	<g class="st0">
		<rect x="1" y="0.2" class="st1" width="150.4" height="150.4"/>
		<path class="st2" d="M147.7,97c-0.5-0.2-0.7-0.2-0.7,0.4c0,0.8-0.7,0.6-1.3,0.6c-0.4,0-1.1,0.3-1.1,0.8c0,0.9,0.3,2.4-0.6,3
			c-0.3,0.2-0.5,0.3-0.7,0.6c-0.3,0.3,0,0.1-0.4,0.3c-0.4,0.2-1,0.3-1.4,0.4c-0.4,0.1-1.3,0.1-0.7,0.7c0.1,0.1-0.1,1-0.3,1.2
			c-0.3,0.2-0.8,0.8-1.2,0.6c-0.5-0.2-0.3,0.2-0.6,0.2c-0.3,0-0.2-0.3-0.4-0.3c-0.6,0-0.5-0.9-1.2-0.6c-0.4,0.2-1,0-1.3-0.3
			c-1.4-1.4-0.1,0.9-1,0.9c0.5,0.4,0.1,1.4,0.3,1.5c-0.1,0.1-0.3,0.4-0.3,0.6c0,0.4-0.2,0.3-0.3,0.6c-0.1,0.1-0.2-0.1-0.2,0.2
			c0-0.1,0.2,0.1,0.2,0.1c0.1,0.2,0.3,0.4,0.5,0.6c-0.5,0-0.9-0.1-1,0.4c-0.2,0.6,0.1,0.7,0.2,1.3c0.1,0.4-0.1,0.8,0.4,1.1
			c0.4,0.2,0.8,0,1.1,0.3c-0.3,0.3-1.1,1.4-0.8,1.8c0.5,0.4,0.6,1.3,0.9,1.9c0.3,0.8,0.6,1.3,0.6,2.2c0,0.3,0.1,0.7,0.2,1
			c0.1,0.5,0.1,0.6,0.5,0.6c0,0,0.1,0,0.1,0c4.9-6.7,8.7-14.2,11.1-22.4C148,97,147.9,97,147.7,97z"/>
		<path class="st3" d="M83,85.3c0,0.1,0,0.1,0,0.2C82.7,85.2,82.8,84.9,83,85.3 M81.3,83.2c0.2,0,0.2,0,0.3,0.2
			c-0.1,0-0.2,0.1-0.3,0.2c0.5,0.3,1.2,0.3,1.6,0.8c0.3,0.3-0.3,0.4-0.4,0.6c-0.1,0.3,0.2,0.5,0.4,0.7c0.3,0.5,0.4,0.5,0.9,0.6
			c0.2,0.1,0.9,0.5,0.9,0.7c0,0.1-0.3,0.5-0.3,0.5c-0.4,0.2-0.6,0-0.9,0.2c0.2,0.1,0.4,0.2,0.6,0.3c0.3,0.1,0.3,0.3,0.5,0.5
			c0.2,0.1,1,0.8,1.2,0.8c0.4-0.2,1.3,0.2,0.7,0.5c-0.4,0.2,0.6,0.7,0.8,0.9c-0.3,0-0.7-0.1-0.7,0.2c0-0.1,0.3,0.3,0.3,0.3
			c0.1,0.2,0.2,0.4,0.2,0.7c-0.4-0.1-0.5-0.2-0.9,0c-0.3,0.1-0.4-0.1-0.4-0.4c0-0.3-0.4-0.4-0.5-0.6c0-0.1,0.2-0.3,0.2-0.3
			c-0.1-0.1-0.3-0.2-0.4-0.2c-0.5-0.3-0.3-0.9-0.8-1c-0.3,0-0.4,0.3-0.7,0.3c-0.2,0-0.5-0.4-0.7-0.5c-0.4,0.5-0.2,0-0.3-0.2
			c-0.4-0.4-0.3-0.2-0.9-0.2c-0.6,0-1.1-0.7-1.7-1c-0.6-0.3-1.1-0.1-1.7-0.3c-0.4-0.1-0.5-0.2-0.6-0.5c-0.1-0.2-0.2-0.7-0.4-0.9
			c-0.3-0.3,0.3-1.1,0-1.5c-0.2-0.3-1.5-1.2-0.6-1.2c0.3,0,0.6,0,0.9-0.1c0.2-0.1,0.3,0,0.5,0c0.2,0,0.2-0.2,0.3-0.2
			c0.3,0,0.6,0.2,0.9,0.2c0.1,0,0.2-0.2,0.4-0.2c0.2,0,0.4,0,0.6,0c-0.1-0.1-0.1-0.1-0.2-0.2c0.2,0,0.4,0,0.6,0
			C80.9,82.8,81,83.1,81.3,83.2 M80.9,83.7c0.1,0.1,0.1,0.1,0.2,0.2C81.1,83.6,81,83.4,80.9,83.7"/>
		<path class="st3" d="M82.4,89.2c0.1-0.1,0.2,0,0.3-0.2c0.4,0.5,0.6,0.6,1.1,0.2c0.4-0.3,0.6,0.3,0.6,0.6c0,0.6,1,0.2,0.7,0.9
			c0,0,0.5,1,0.6,1.1c-0.6-0.2-1.4-0.2-1.9-0.5c-0.5-0.3-1-0.7-1.4-1.1c-0.2-0.2-0.4-0.4-0.6-0.6c0,0-0.7-0.8-0.7-0.7
			C81.3,88.5,82.7,88.3,82.4,89.2 M81.1,83.7c0,0.1,0,0.1,0,0.2C80.8,83.7,80.9,83.4,81.1,83.7 M85.2,80.8c0,0.1,0,0.1,0,0.2
			c0.4-0.5,1.2,0.4,1.5,0.7c0.5,0.4,1,1.1,1.6,1.3c0.3,0.1,0.7,0.1,1,0.2c0.3,0.1,0.5-0.7,0.6-0.9c0.1-0.2,0.6-0.3,0.8-0.5
			c0.2-0.2,0.4-0.7,0.4-0.9c1.5,0.6,2.2,2.4,3.2,3.4c0.5,0.5,1.1,1,1.7,1.2c0.5,0.1,0.6,0.1,1,0.3c0.4,0.3,0.6,0.4,0.9,0.9
			c-0.5-0.1-1.5-0.4-2-0.1c-0.4,0.2-0.6,0.2-0.6,0.7c0,0.4,0,0.8,0,1.1c-0.1,0.4-0.1,0.7-0.1,1.1c0,0.2,0.2,0.3,0.3,0.4
			c0.2,0.2-0.1,0.2-0.1,0.2c0,0.2-0.2,0.2-0.2,0.4c0,0.1,0.1,0.5,0,0.6c-0.2,0.3-0.3,0-0.7-0.2c0,0.4-0.2,0.7-0.2,1.1
			c0,0.5,0.2,1,0.3,1.5c-0.2,0-0.6,0.3-0.8,0.1c-0.3-0.3-0.6-0.4-0.9-0.7c-0.2-0.2-1.4-0.8-1.4-1c0-0.5,1.3-0.3,0.8-0.9
			c-0.3-0.3-0.6-0.1-0.6-0.5c0-0.4,0.3-0.3,0.5-0.6c-0.4-0.4-1.1-1.4-1.9-1c-0.3,0.1-0.6,0.6-0.9,0.7c-0.4,0.2-0.6,0.5-0.9,0.8
			c-0.3,0.3-0.4,0.4-0.7,0.7C87.8,91.2,87,92,87,91.7c0-0.2,0-0.4-0.2-0.6c0,0-0.3-0.5-0.3-0.3c0-0.3,0.4-0.2,0.7-0.2
			c-0.2-0.3-0.9-0.5-0.9-0.9c0-0.2,0.6-0.1,0.3-0.4c-0.1-0.1-0.5-0.3-0.7-0.2c-0.4,0.2-0.8-0.4-1.2-0.6c-0.2-0.1-0.3-0.4-0.5-0.5
			c-0.3-0.1-0.5-0.2-0.8-0.3c0.2-0.2,0.4-0.2,0.8-0.2c0.4,0,0.1-0.2,0.3-0.4c0.2-0.2-0.6-0.6-0.7-0.7c-0.4-0.3-0.7-0.1-1-0.5
			c-0.2-0.2-0.5-0.4-0.5-0.7c0-0.3,0.6-0.3,0.5-0.7c-0.1-0.4-1.4-0.7-1.7-0.9c0.1,0,0.2-0.1,0.3-0.2c-0.4-0.3-1-0.2-0.4-0.8
			c0.5-0.5,0.7-0.4,1.3-0.1c0.5,0.2,0.6,0.4,1.1,0.7c0.4,0.2,0.9,0,1.4,0.3c0.4,0.2,0.9,0.2,0.9-0.4c0-0.7-0.6-0.5-1-0.9
			c-0.2-0.1-0.3-0.5-0.4-0.5c-0.2,0-0.3-0.2-0.3-0.4c0-0.1,0.3-0.2,0.4-0.3C84.7,80.6,84.9,80.5,85.2,80.8 M82.8,85.3
			c0.1,0.1,0.1,0.1,0.2,0.2C83,85.1,82.9,84.9,82.8,85.3"/>
		<path class="st3" d="M13,73.4c1.1,0,2.1,0,3.2,0.2c0.6,0.1,0.9,0.2,1.5,0c0.4-0.1,1,0.1,1.4,0.2c1.1,0.4,2.2,0.5,3-0.3
			c0.9-0.9,1.9-0.9,3.1-1.2c0.4-0.1,1,0.3,1.4,0.5c0.2,0.1,0.5,0.1,0.7,0.2c0.1,0,0.1,0.2,0.3,0.1c0.1,0,0.3-0.2,0.4-0.1
			c0,0,0.4,0.6,0.5,0.6c0.1,0.1,0.5,0.2,0.6,0.2c0.2,0,0.5,0,0.7,0c0.5,0,0.4,0,0.4,0.5c0,0.3,0,0.5-0.1,0.8
			c-0.1,0.2-0.4-0.1-0.6-0.1c-0.4,0.1-0.8,0.5-0.9,0.8c-0.1,0.4,0,1.2,0,1.7c0,0.1-0.9,0.9-1,1.1c0.6,0.2,1.7,1.2,1.9,1.9
			c-0.3-0.1-1-0.2-1.3,0.1c-0.3,0.3-0.9-0.5-1.1-0.6c-0.3-0.1-1,0.3-1.3,0.5c-0.2,0.1-0.4,0-0.6,0c-0.3,0.1,0,0.2-0.3,0.4
			c-0.1,0.1-0.5,0.2-0.6,0.3c-0.1,0,0.1,0.2-0.1,0.2c-0.1,0-0.2,0-0.3,0c-0.6,0,0.1,0.7,0.1,1c0,0.5-0.5,0.5-1,0.5
			c-0.6,0-0.9,0.1-1.4,0.3c-0.3,0.1-0.9-0.4-1.4-0.6c-0.2-0.1-0.1,0.2-0.2,0.1c-0.1,0-0.3-0.1-0.4-0.1c-0.2-0.1-0.3-0.5-0.5-0.5
			c-0.1,0-0.2,0.1-0.3,0.1c-0.2,0.1-0.1-0.1-0.3-0.1c-0.2,0-0.5-0.1-0.7,0c-0.3,0.1,0,0.3-0.4,0.3c-0.3,0-0.5,0.2-0.9,0.2
			c-0.1,0-0.2,0.2-0.2,0.2c-0.1,0-0.2-0.2-0.3-0.2c-0.2,0-0.4,0.1-0.7,0.2c-0.2,0.1-0.3,0.2-0.6,0.2c-0.4,0-0.3-0.2-0.3-0.6
			c0-0.3,0-0.5,0.1-0.9c0.1-0.3-0.3-0.2-0.3-0.3c0-0.6-0.5-0.8-0.9-1c-0.4-0.2-0.6-0.6-0.9-1c0.2,0,0.3-0.3,0.5-0.5
			c-0.5-0.3-0.1-0.8-0.4-1.1c-0.1-0.1,0.2-0.4,0.3-0.4c0.5,0,0.4-0.1,0.7-0.4c0.2-0.2,0.2-0.4,0.3-0.5c0.3-0.3-0.1-0.3-0.3-0.4
			c-0.4-0.4-0.9-0.6-1.2-1c-0.3-0.4-0.5-0.7-0.5-1.2c0-0.4,0-0.4,0.2-0.7c0.1-0.1,0.3-0.1,0.3-0.2c0-0.1-0.1-0.3,0-0.3
			c0.4-0.3,0.8,0.1,1.3,0.3C13.6,72.6,12.9,73,13,73.4"/>
		<path class="st3" d="M22.2,29.5c0.3-0.1,0.5-0.2,0.8-0.2c0.4,0,0.3,0.5,0.7,0.5c0.3,0,0.5-0.3,0.8-0.3c0.3,0,0.8,0.3,1,0.5
			c-0.5,0.3,0.2,0.7,0.6,0.6c0.3-0.2,0.7-0.4,1-0.4c0.4,0,1.1-0.1,1.3,0.2c0.3,0.3,0.6,0.4,1,0.6c0.1,0.1,0.3-0.1,0.3,0.1
			c0,0.2,0.3,0.5,0.1,0.7c-0.4,0.4,0.4,0.6,0.4,0.9c0,0.3-0.4,0.9-0.3,1.1c0.1,0.3,0.9,0.7,1.2,0.7c-0.3,0.4-0.1,0.5,0.3,0.7
			c0.4,0.2,0.4,0.6,0.8,0.8c0.4,0.2,0.8,0.5,1.2,0.5c0.2,0,0.1,0.7-0.1,0.9c0.4,0,0.7,0,1.1,0.1c0.4,0.1,0.7,0.3,0.9,0.6
			c0.1,0.1,0.2,0.3,0.2,0.4c0.2,0.1,0.5,0.2,0.6,0.3c0.1,0.1,0.2,0,0.2,0.3c0,0.2-0.2,0-0.3,0.1c-0.2,0.2-0.3,0-0.3,0.4
			c0,0.2-0.4,0.2-0.5,0.3c-0.3,0.1-0.7,0.3-1.1,0.1c-0.4-0.2-0.3-0.3-0.8-0.3c-0.6,0-0.3,0.3-0.8,0.7c0.4,0,0.6,0.5,0.9,0.6
			c0.6,0.3-0.2,0.4,0.1,0.8c0.4,0.4,0.2,0.8,0.5,1.1c0.1,0.1,1,0.7,0.3,0.7c-0.4,0-0.8,0.2-1.2,0.2c-0.2,0-0.3-0.3-0.5-0.1
			c-0.2,0.2-0.3,0.3-0.5,0.5c-0.7,0.7-0.7,1.4-0.1,2.1c-0.6,0.2-0.6,0.1-1.1-0.2c-0.6-0.3-0.9-0.4-1.5-0.2c-0.2,0.1-0.5,0-0.7,0
			c-0.4,0-0.3,0.2-0.6,0c-0.3-0.2-0.5-1-0.9-0.6c-0.1,0.1-0.4,0.3-0.5,0.3c-0.2,0,0.1,0.4-0.3,0.3c-0.2,0-0.3-0.4-0.5-0.5
			c-0.2-0.1-0.5,0.1-0.8,0c-0.4-0.2-0.7,0-1.2,0c-0.1,0-0.1,0.3-0.3,0.3c-0.1,0-0.1-0.4-0.4-0.5c-0.2-0.1-0.5,0.2-0.7,0.2
			c-0.2,0-0.4-0.4-0.5-0.5c-0.3-0.3-1-0.1-1.4-0.2c-1-0.3-2-0.5-3.1-0.5c-0.5,0-1-0.2-1.5-0.2c-0.1,0-0.4,0.1-0.6,0.2
			c-0.2,0-0.5,0-0.8,0c-0.3,0-0.4,0.2-0.7,0.2c-0.1,0-0.1,0.3-0.3,0.5c-0.2,0.2-0.4,0.3-0.6,0.5c-0.1,0.1-0.5-0.1-0.7-0.1
			c-0.3,0-0.5-0.1-0.4,0.3c-0.2-0.3-0.3-0.8,0-1c-0.3-0.2-0.1-0.7-0.3-1c-0.3-0.4-0.7-0.3-1.1-0.5c-0.3-0.2,0.1-0.7,0.3-0.9
			c0.4-0.4,0.8-0.5,1.3-0.7c0.7-0.2-1.5-4.1-1.7-4.6c0.2,0.2,0.5,0.3,0.8,0.1c0.3-0.2,0.5,0.1,0.7,0c0.5-0.3,0.9,0.2,1.5-0.1
			c0.3-0.2,0.4,0,0.6-0.2c0.2-0.3-0.1-0.5,0.4-0.5c0.6,0,1-0.6,1.4-0.3c0.2,0.1-0.2,0.3,0.3,0.3c0.3,0,0.4,0.1,0.4-0.3
			c0-0.7-1,0.2-0.5-0.9c0.2-0.5,0-1,0.3-1.5c0.2-0.3,0.5-0.1,0.7-0.3c0.2-0.2,0.3-0.5,0.3-0.7c0.2,0,0.7,0.2,0.9,0.2
			c0.3-0.1,0.1-0.5,0.5-0.5c-0.3-0.3-0.6,0-0.9-0.2c-0.2-0.2,0-0.6,0-0.9c0-0.4,0.2-0.4,0.6-0.4c0.4,0,0.4-0.6,0.8-0.5
			c0.3,0.1,0.7,0.2,1,0.1c0.1,0,0.3,0.1,0.3-0.1c0-0.4,0.1-0.3,0.2-0.4C21,29.3,21.7,28.8,22.2,29.5"/>
		<path class="st2" d="M51.8,104.1c-0.4,0.3-0.8,0.7-1.2,1c-0.5,0.4-0.2,0.5,0,1c-0.3-0.4-0.8,0-0.9,0.2c-0.2-0.2-0.5-0.3-0.7,0
			c-0.1-0.1-0.1-0.5-0.2-0.5c-0.3-0.3-0.1,0-0.4,0c-0.2,0-0.4-0.2-0.5-0.1c-0.1,0-0.5,0.3-0.6,0.3c-0.2,0-0.9-0.3-0.6-0.3
			c0.6,0,0.4-0.3,0.4-0.9c0.4,0.1,0.9,0.1,1.3,0.2c0.5,0.2,0.8,0,1.3-0.1c0.9-0.2,1.5-0.8,2.4-1.1C52,103.9,51.9,104,51.8,104.1"/>
		<path class="st2" d="M47.2,106c0.1,0,0.3-0.2,0.4-0.2c0.1,0,0.2-0.1,0.3-0.1c0.2-0.1,0.1,0.1,0.3,0.1c0.2,0,0.5-0.1,0.6-0.1
			c0.1,0.1,0.1,0.4,0.3,0.6c0.2-0.3,0.4-0.2,0.7,0c0.2-0.6,1.5-0.1,0.7,0.2c-0.4,0.2-0.6-0.1-0.9,0.3c-0.3,0.3-0.8,0.5-1.2,0.7
			c-0.1,0.1-0.3,0-0.4,0c-0.1,0.1,0.2,0.3-0.1,0.3c-0.2,0-0.2-0.2-0.3-0.2c-0.2,0-0.1-0.2-0.3-0.1c-0.1,0.1-0.2,0.1-0.3,0.1
			c-1,0-1.4-0.9-1.6-1.7c0.4,0.4,0.6-0.3,1-0.3C46.6,105.6,47,105.8,47.2,106"/>
		<path class="st3" d="M60.1,147.7c-0.1-0.1-0.2-0.2-0.3-0.3c-0.8-0.6-1.5-1.4-2-2.3c-0.6-1.1-1.1-2.1-1.7-3.2
			c-0.5-1.1-1.3-2-1.8-3.1c-0.2-0.3-0.3-0.7-0.5-1c-0.1-0.2-0.3-0.2-0.4-0.4c-0.1-0.6-0.2-1.2-0.4-1.8c-0.2-0.5-0.6-0.8-0.9-1.3
			c-0.3-0.5-0.2-1-0.4-1.5c-0.3-0.6-0.8-0.7-1.2-1.2c-0.4-0.4-0.6-0.9-1-1.3c-0.3-0.3-0.3-0.9-0.8-1.3c-0.4-0.4-0.3-0.9-0.4-1.4
			c-0.2-0.5-0.8-0.8-0.9-1.3c0-0.2,0.4-1.3,0.5-1.4c0.4,0.9,0.6,1.8,1.2,2.6c0.3,0.4,0.8,0.8,1,1.2c0.3,0.4,0.1,0.9,0.4,1.4
			c0.4,0.6,0.7,0.9,1.3,1.3c0.4,0.3,0.7,0.8,1.1,1.1c0.2,0.2,0.4,0.4,0.7,0.5c0.4,0.2,0.3,0.2,0.6-0.1c0.3-0.5,0.3-0.9,0.3-1.5
			c0-0.7,0.3-1.2,0.5-1.8c0.2-0.5,0.1-1.1,0.2-1.6c0-0.3,0.6-1.2,0.5-1.3c-0.2-0.5-0.4-1-0.6-1.5c-0.1-0.6-0.4-1.1-0.7-1.6
			c-0.3-0.5-0.4-0.8-0.5-1.4c-0.2-0.6-0.5-1-0.7-1.5c-0.3-0.7-0.3-0.8-1-0.3c-0.4,0.3-1.1,0.3-1.7,0.3c-0.2,0-0.5,0.2-0.7,0.2
			c-0.3,0-0.2-0.4-0.6-0.3c-0.5,0.1-1,0.3-1.5,0.3c-0.4,0-0.6-0.8-1.1-0.9c0.1,0.1,0.2,0.2,0.3,0.3c-0.2,0.2-0.4,0.4-0.7,0.5
			c0.1-0.5-0.7-0.7-1-0.9c0.2-0.2,0.4-0.4,0.3-0.7c0.2,0.2,0.5,0.6,0.9,0.5c-0.4-0.3-0.8-0.8-1.2-0.6c-0.7,0.3-0.9,0.2-1.5-0.1
			c-0.1,0-0.6-0.4-0.7-0.3c-0.3,0.1-0.1,0.4-0.3,0.6c-0.2,0.2-1.2,0.3-1.4,0.3c0.4-0.2,0.9-0.3,1.2-0.7c-0.4,0.1-0.9,0.2-1.3,0.4
			c-0.5,0.2-0.4,0.4-0.8,0.7c-0.3,0.2-0.7,0.2-1,0.3c-0.4,0.2-0.7,0.5-1,0.7c-0.5,0.3-1.3,1.1-1.9,0.6c-0.8-0.5-1.6-0.7-2.5-0.8
			c-0.6-0.1-0.7-0.1-1.1-0.5c-0.1-0.1-0.5,0.1-0.7,0.1c-0.1,0-0.2-0.1-0.3-0.2c-0.9-0.6-1.5-0.8-2.5-1c-0.9-0.2-1.7-0.3-2.6-0.5
			c-0.7-0.1-1.6,0.3-2.3,0.3c-0.1-0.2-0.1-0.3-0.2-0.5c-0.9,0.6-0.9,1.5-0.6,2.5c0.2,0.5,0.4,1,0.1,1.5c-0.1,0.2,0,0.5-0.1,0.6
			c-0.1,0.2-0.4,0.4-0.5,0.6c-0.2,0.7,0.5,1.9,0.7,2.6c0.2,1,0.5,1.9,0.5,2.9c0,0.1,0,0.2,0,0.3c9.6,9.1,21.5,15.7,34.8,18.7
			C59.1,147.9,59.3,147.4,60.1,147.7z"/>
		<path class="st4" d="M65.2,74.6c0.8,0,1.2,0.1,2,0.4c0.7,0.2,1.4,0.2,1.9,0.8c0.3,0.3,1.5,0.1,2,0.1c0.7,0,1.4,0.1,2.1,0.3
			c0.4,0.1,0.3,0.1,0.6,0.4c0.3,0.3,0.6,0.4,1,0.5c0.3,0.1,0.6,0.2,0.9,0.4c0.1,0.1,0.4,0.1,0.5,0.2c0.1,0.1-0.1,0.3,0,0.3
			c0.2,0.3,0.1,0.4,0.7,0.3c0,0,0-0.2,0.3-0.2c0.2,0,0.3-0.1,0.4-0.2c0.9-0.3,1-0.5,1.7,0.2c0.2-0.6,0.2-0.6,0.8-0.4
			c0.3,0.1,0.6,0.4,0.9,0.7c0.2,0.2,0.9,0,1.1,0c0.2,0,0,0.9,0.1,1c0.2,0.5,1.2,0.9,1.8,0.9c0.2,0,0.9,0.3,0.7,0.6
			c-0.2,0.4-0.5,0.4-0.5,0.8c0,0.2,0.3,0.1,0.3,0.2c0.1,0.2,0.2,0.4,0.3,0.5c0.4,0.3,0.9,0.1,1,0.7c0.3,1.2-1.2,0.3-1.6,0.3
			c-0.9,0-1.2-0.5-2-0.8c-0.5-0.2-0.6-0.3-1,0.1C80.9,83,80.8,83,80.2,83c0.1,0.1,0.1,0.1,0.2,0.2c-0.2,0-0.4,0-0.6,0
			c-0.2,0-0.3,0.2-0.4,0.2c-0.3,0-0.7-0.2-1-0.2c-0.1,0-0.2,0.2-0.4,0.2c-0.3,0-0.4,0.1-0.6,0.2c-0.3,0-0.8-0.1-1,0.2
			c-0.1-0.5-1-0.1-1-0.8c0-0.2-1.5-1.1-1.6-1.1c-0.4,0-0.4,0.5-0.5,0.5c-0.4,0-0.6-0.1-0.9-0.2c-0.1,0-0.3,0-0.4,0
			c-0.3,0-0.4,0.2-0.6,0.2c-0.4,0-0.7-0.2-1-0.2c0.7-0.9,0.7-1.5,0-2.3c-0.5-0.7-0.5-1.8-1.2-2.3c-0.4-0.3-0.8-0.3-1.1-0.6
			c-0.3-0.3-0.6-0.5-1.1-0.6c-1-0.2-1.8-0.7-2.6-1.3C64.6,74.5,64.7,74.4,65.2,74.6"/>
		<path class="st5" d="M18.9,104.3c0.2,0,0.7,0.1,0.7-0.1c0-0.1,0.3-0.2,0.3-0.1c0.1,0.1-0.1,0.4-0.2,0.3c0.3,0.2,0.5,0.1,0.5,0.4
			c0,0.2,0.5,0.1,0.6,0.1c0.3,0,0.5-0.2,0.8-0.2c0.5,0,0.7,0.1,1.1,0.2c0.7,0.2,1.3,0.2,2,0c0,0.3-0.1,1.3,0.4,0.8
			c0.3-0.3,0.5-0.3,0.9-0.3c0.2,0,0.3-0.3,0.6-0.3c-0.3,0.2,0,0.9-0.3,1.1c-0.5,0.3-1-0.1-1.5,0c-0.6,0.1-2.6,0.7-3.1,0.2
			c-0.1-0.1,0-0.4-0.2-0.5c-0.3-0.1-0.5-0.2-0.8-0.3c-0.5-0.1-1.1-0.2-1.6-0.2c-0.3,0-1.1,0.1-1.3-0.2c-0.1-0.2-0.2-1.4,0.3-0.9
			c0.1-0.1,0.2-0.5,0.2-0.5C18.8,103.8,18.7,104.2,18.9,104.3 M29.3,104.6c-0.1,0.1-0.1,0.1-0.2,0.2c0.1-0.6-0.3-1,0.2-1.5
			c0.1,0.5-0.4,0.8,0.2,1.2C29.4,104.5,29.4,104.5,29.3,104.6 M16.2,101.9c0,0.1,0,0.1,0,0.2c-0.5-0.1-0.3-0.5-0.3-0.9
			C16.1,101.4,16.5,101.6,16.2,101.9 M31.2,102.9c-0.3,0.1-0.2,0-0.3-0.2c0,0-0.2-0.7-0.2-0.7c0.1-0.5,0.6-0.7,1-0.9
			c0.7-0.3,0.6,0.1,0.3,0.6c-0.1,0.1-0.1,0.6-0.2,0.6C31.4,102.4,31.4,102.6,31.2,102.9 M23.7,101c0,0.1-0.1,0.2-0.2,0.3
			c-0.1-0.1-0.1-0.1-0.2-0.2c0.2-0.1,0.1,0,0.2-0.3C23.6,100.9,23.6,101,23.7,101 M26.8,100.3c-0.2,0.1-0.4,0.2-0.5,0.3
			C25.8,100.3,26.5,100.1,26.8,100.3 M31,100.5C30.7,100.2,31.1,100,31,100.5 M20.6,99.7c0.1,0.4-0.2,0.4-0.5,0.5
			C20,99.7,20.4,99.9,20.6,99.7 M23.3,100c0,0.1,0,0.1,0,0.2c-0.2-0.2-0.3-0.3-0.5-0.5C23.1,99.7,23.4,99.7,23.3,100 M28.1,99.8
			c0-0.3,0.9-0.8,1.2-0.5c-0.1,0-0.3,0.1-0.4,0.1c-0.1,0,0,0.2-0.1,0.2C28.6,99.8,28.4,99.6,28.1,99.8 M24.7,99.7
			c-0.1,0-0.2,0-0.3,0c0.3-0.2,0.8-0.6,1-0.5C25.1,99.2,24.9,99.4,24.7,99.7 M21.1,99.1C20.6,98.7,21.6,98.8,21.1,99.1 M28.3,99
			c-0.4,0.1-0.3-0.2-0.5-0.5C28,98.6,28.3,98.7,28.3,99 M22.8,98.6c-0.2,0.3-0.6,0.2-0.3-0.2C22.7,98.1,22.9,98.3,22.8,98.6
			 M23.7,99c-0.1,0.2-0.4,0.2-0.5,0c-0.1-0.2,0.1-0.5,0.2-0.7C23.8,97.8,24,98.6,23.7,99 M20.5,98.3c0,0.1,0,0.1,0,0.2
			c-0.3-0.3-0.1-0.5,0.2-0.2C20.6,98.3,20.5,98.3,20.5,98.3 M20.1,97.6c-0.1,0-0.1,0-0.2,0c0.1-0.1,0.1-0.1,0.2-0.2
			C19.6,97,20.6,97.1,20.1,97.6 M21.6,96.9c0,0.2,0,0.3,0,0.5c-0.1-0.1-0.1-0.2-0.2-0.3C21.5,97,21.6,97,21.6,96.9 M23.2,97.3
			c-0.5,0.1-0.4-0.6,0.2-0.2C23.3,97.2,23.2,97.2,23.2,97.3 M25.1,96.9c-0.7-0.1,0.8-0.6,0.9-0.7C25.7,96.7,25.5,96.8,25.1,96.9
			 M22.7,96.6c-0.2,0.3-0.9,0.1-0.9-0.3C21.8,96.2,22.6,96.4,22.7,96.6 M19.8,96.8c-0.1,0.1-0.1,0.1-0.2,0.2
			C19.5,96.2,20.3,96.1,19.8,96.8 M27.4,95.7c0.3,0.2,0.6,0.1,0.7,0.5c-0.2,0-0.4,0.1-0.6,0.1c-0.3,0.1-0.3-0.1-0.5-0.1
			C26.2,96.3,27,95.7,27.4,95.7 M9,95.9c0.1,0.1,0.2,0.2,0.3,0.3c-0.1-0.1-0.1-0.1-0.2-0.2c-0.5,0.8-0.6-0.4-1-0.3
			c0.1-0.1,0.2-0.3,0.3-0.3C8.6,95.7,8.8,95.8,9,95.9 M21.8,96.1c-0.1,0.1-0.1,0.1-0.2,0.2c-0.1-0.4-0.4-0.4-0.6-0.6
			c0,0-0.6-0.4-0.2-0.4c0,0,0.8,0.2,0.8,0.2C21.8,95.6,21.5,95.9,21.8,96.1 M17.2,95.4c-0.1,0-0.2,0-0.3,0
			C17,95.2,17.2,95.1,17.2,95.4 M8,93.7c0.2,0.4,0.8,0.7,0.7,1.2c-0.2-0.1-0.7-0.1-0.9-0.2c0,0-0.1-0.5-0.2-0.5
			c-0.4,0.4-0.4,0-0.2-0.3C7.7,93.6,8,94,7.9,93.4C7.9,93.5,8,93.6,8,93.7 M8.5,93.9c-0.3,0-0.3-0.3-0.5-0.5
			C8.4,93.2,8.4,93.7,8.5,93.9 M24.9,94.4c-0.2,0.3-0.5-0.1-0.7-0.3c0.3,0.1,0.5-0.2,0.3-0.5c-0.1-0.3-0.9-0.4-0.3-0.6
			C25.1,92.7,25.4,93.9,24.9,94.4 M8.2,92.8c-0.1,0.1-0.2,0-0.3,0.2c0-0.2-0.1-0.9,0.2-1C8.5,91.8,8.4,92.7,8.2,92.8 M20.5,92.2
			c-0.2,0-0.3,0-0.5,0c0.1-0.1,0.1-0.1,0.2-0.2c-0.3,0-0.4-0.2-0.3-0.5C20,91.7,20.2,91.9,20.5,92.2 M16.5,91.5
			c0.3,0.8,0.7,0.8,1.5,1c0.3,0.1,0.7,0.1,0.9,0.4c0.2,0.3,0,0.6,0.1,0.9c0.1,0.2,0.4,0.7,0.6,0.7c0.2,0,0.8-0.1,0.8,0.3
			c0,0.8-1.1,0.1-1.4-0.3c-0.1-0.2-0.2-0.6-0.4-0.8c-0.2-0.2-0.6,0-0.9-0.1c-0.3-0.1-0.5-0.7-0.6-0.7c-0.2,0-0.6-0.5-0.7-0.6
			c-0.2-0.2-1.6-0.7-1.6-0.5c0-0.1,0.7-0.5,0.8-0.6C15.9,91.2,16.3,91.3,16.5,91.5 M17.6,91c-0.1,0.1-0.1,0.1-0.2,0.2
			c-0.2-0.2-0.3-0.3-0.5-0.5C17.1,90.7,17.3,90.9,17.6,91 M17.9,90.8c-0.1,0-0.1,0-0.2,0c0.1-0.1,0.2-0.2,0.3-0.3
			C18.1,90.6,18,90.7,17.9,90.8 M25.6,90.1c-0.4,0.4,0.4,0.7,0.7,1c-0.2,0.2-0.1,0.2-0.3,0c0.1,0.1,0,0.2,0.2,0.3
			c-0.3,0-1.3,0-1.4-0.3c0-0.1,0.5-0.3,0.3-0.5c-0.2-0.2-0.4,0.4-0.6,0.3c-0.1,0-0.6-0.1-0.6-0.2c0-0.5,0.3-0.3,0.5-0.4
			C24.7,90,25.1,89.7,25.6,90.1 M6.1,89.8c0,0.1,0,0.1,0,0.2c-0.6-0.3-0.8-0.6-1.2-1.1c-0.4-0.4,0.4-0.6,0.7-0.3
			c-0.1,0.1-0.2,0.3-0.3,0.3C5.8,89,5.5,89.8,6.1,89.8 M22.3,87.7c-0.2,0.1-0.2,0.7-0.3,0.7c-0.4,0-0.1-0.3-0.4-0.3
			c0,0-0.4,0.4-0.5,0c-0.2-0.5,0.5-0.4,0.7-0.2C22,87.7,22.3,87.4,22.3,87.7 M22.8,86c-0.3,0.3-0.5,0.1-0.7-0.2
			C22.4,85.6,22.7,85.8,22.8,86 M19.9,85.3c-0.1,0.1-0.6,0.3-0.7,0c-0.1-0.2,0.2-0.5,0.2-0.7C19.8,84.8,20,85,19.9,85.3 M25.1,82.6
			c-0.2,0.2-0.5,0.4-0.5,0.6c0,0.3,0.2,0.5,0.2,0.7c0,0.2-0.4,0.5-0.5,0.7c-0.2,0.4-0.3,0.4-0.6,0.2c-0.6-0.4-1.2-0.4-1.9-0.6
			c-0.7-0.3-1.1,0-1.7,0.3c-0.6,0.3-0.7-0.7-1.4,0c-0.2,0.2-0.4,0.5-0.7,0.5c-0.2,0-0.8-0.4-1-0.2c-0.2,0.2,0.2,0.5,0.3,0.7
			c0.2,0.2-0.1,0.7,0.3,0.7c0.5,0,1.3,0.3,1.4,0.9c-0.4-0.2-1-0.7-1.4-0.7c-0.1,0-0.6-0.1-0.6,0.1c0,0.2,0.4,0.5,0.6,0.6
			c0.5,0.2,0.6,1.1-0.1,0.6c-0.2-0.2-0.3-0.5-0.5-0.7c-0.2-0.1-0.6-0.1-0.8-0.2c0,0.6,0.4,0.9,0.8,1.2c-0.2,0-0.8,0-0.9-0.3
			c-0.1-0.3-0.2-0.7-0.5-0.9c-0.5-0.2-1.7-0.6-1-1.3c-0.8-0.1-0.9,0.5-0.9,1.1c0,0.4-0.2,0.5,0,0.9c0.1,0.3,0.6,0.6,0.8,0.8
			c0.3,0.3,0,0.6,0.5,0.8c0.3,0.1,0.5,0.4,0.7,0.6c0.4,0.4,0.9,1.3-0.1,1.1c0.4-0.5-0.3-1.1-0.6-0.8c-0.3,0.3-0.2,0.2-0.1,0.6
			c0.1,0.2,0.3,0.5,0.5,0.5c-0.4,0.5-0.8,0.5-1.4,0.5c0.2,0.2,0.6,0.3,0.9,0.4c0.4,0.1,0.7,0.5,1,0.5c0.5,0,1.2,1.2,1.7,1.2
			c1.1,0,0.9,0.8,1.2,1.6c0.4,1.1-0.4,0.7-0.9,0.1c-0.2-0.2-0.4-0.5-0.7-0.6c-0.2,0-0.2,0.1-0.3,0.2c-0.2,0-0.5,0-0.7,0
			c-0.6,0.1-0.4,0.2-0.3,0.5c0,0.1,0.3,0.9,0.4,0.9c0.4,0,0.5,0.1,0.8,0.4c0.4,0.4-0.5,0.3-0.7,0.5c-0.3,0.3-0.5-0.3-0.7-0.4
			c-0.3-0.1-0.7-0.2-0.8-0.6c-0.5,0.4,0.6,1.7,0.8,2.2c0.1,0.2,0.4,0.8,0.3,1c-0.2,0.6,0.2,0.6,0.4,1.1c-0.2-0.1-0.5-0.1-0.6-0.3
			c-0.2-0.2-0.5-0.7-0.7-0.8c-1-0.4-0.4,1.2-0.9,1.2c-0.3,0-0.3-0.7-0.3-0.9c-0.1-0.3-0.4-0.6-0.7-0.9c-0.1-0.1-0.4-0.5-0.7-0.3
			c-0.1,0.1,0,0.8-0.2,1c-0.3-0.3-0.9-0.9-1-1.4c0-0.3,0.1-0.4,0.2-0.7c0.2-0.2-0.1-0.4-0.2-0.7c-0.3-0.6-0.8-0.6-1-1.1
			c-0.1-0.2-0.5-0.2-0.5-0.3c0-0.3,0.2-0.4,0.5-0.6c0.2-0.1,0.1-0.6,0.2-0.7c0.2-0.1,0.5,0.2,0.8,0.2c0.2,0,0.2-0.6,0.4-0.7
			c0.3-0.1,0.6,0.1,0.8,0.2c0.5,0.3,1,0.5,1.6,0.7c0.3,0.1,0.6,0.4,0.8,0.5c0.4,0.1,0.4-0.1,0.2-0.3c0.3,0,0.9,0.1,0.9-0.3
			c0-0.4-0.5-0.2-0.8-0.3c-0.3-0.2-0.7-0.3-1-0.4c-0.2-0.1-0.4-0.2-0.5-0.3c-0.2-0.1-0.3,0.3-0.4,0.3c-0.4,0.1-0.7-0.3-1-0.3
			c-0.4,0-0.7,0.3-1.1,0.3c-0.1,0-0.4,0.1-0.5-0.1c0,0-0.4-0.5-0.3-0.5c-0.3-0.1-0.1,0.7-0.6,0.5c-0.4-0.2-0.4-0.7-0.6-1.1
			c-0.1-0.4-0.6-0.5-0.8-0.7c-0.3-0.6,0.2-0.4,0.7-0.3c0.5,0.1,0.5-0.3,0.1-0.5c-0.3-0.1-0.7,0.1-1,0c0,0-0.3-0.3-0.3-0.4
			c-0.2-0.1-0.3-0.3-0.5-0.4c-0.4-0.4-0.6-0.4-0.8-0.9c-0.2-0.3-0.4-0.7-0.8-0.9c0.3,0,0.9,0.5,0.9-0.1c0-0.3,0-0.3,0.3-0.3
			c0.3,0-0.2-0.4-0.3-0.5c0-0.3,0.4-0.4,0.7-0.5c0.5-0.3,0.3-0.5,0.5-1c0.1-0.2,0.2-0.4,0.3-0.5c0-0.1,0.3,0.1,0.3,0
			c0.1-0.1,0-0.3,0-0.3c0.2-0.4,0.1-0.1,0-0.5c-0.1-0.3-0.4-0.5,0.1-0.5c0.3,0,0.6,0,0.9,0c0.2,0,0.2-0.3,0.5-0.1
			c0.5,0.3,0.9-0.5,1.3-0.7c0.2-0.1,0.5-0.1,0.6-0.3c0-0.1,0.5,0.1,0.7,0.1c0.6,0,1.1,0.1,1.1-0.6c0-0.1,0.9-0.1,1.1-0.1
			c0.2,0,0.5-0.3,0.7-0.3c0.3-0.1,0.5,0.2,0.7,0.1c0.2-0.2,1-0.1,1.3-0.3c0.4-0.2,0-0.3,0.6-0.3c0.3,0,0.3,0.2,0.7,0
			c0.3-0.1,0.7,0.6,1.1,0.6c0.1,0,0.1-0.2,0.2-0.1c0.1,0,0.3,0.1,0.4,0.1c0.2,0.1,0.5,0.5,0.7,0.5c0.3,0.1,0.6-0.3,0.9-0.3
			c0.3-0.1,0.6,0,0.8,0c0.7,0,1.3-0.1,0.9-0.9c0-0.1-0.4-0.6-0.1-0.6c0.4,0,0.6,0,0.9,0.2C24.8,81.6,25.7,82.6,25.1,82.6"/>
		<path class="st3" d="M1.8,65.4c0.2,0,0.3-0.3,0.4-0.4c0.1-0.2,0.2-0.1,0.4-0.1c0.7-0.1,1.2,0.3,1.9,0.2C4.7,65,5,64.9,5.2,65
			c0.1,0.1,0.3,0.2,0.4,0.1c0.1,0,0.2-0.5,0.3-0.5c0.3,0,0.8,0.1,1-0.1c0.2-0.2-0.1-0.6,0.4-0.4c-0.5-0.4,0.3-0.8,0.5-1
			c-0.1-0.1-0.1-0.1-0.2-0.2c0.2-0.2,0.5-0.7,0.5-0.9c0-0.4,0.3-0.4,0.4-0.7C8.6,61,8.7,60.5,9,60.5c0,0,0.2-0.6,0.3-0.8
			c0.2-0.2,0.3-0.6,0.7-0.6c0.3,0,0.5,0,0.8-0.2c0.2-0.1,0.5-0.4,0.5-0.7c0-0.3-0.4-0.1-0.3-0.5c-0.1,0.2-0.4,0.1-0.6-0.1
			c-0.2-0.4-0.3-0.1-0.6-0.3c-0.2-0.2-0.2-0.2-0.3-0.3c-0.2-0.2,0-0.2-0.3-0.3c-0.4-0.1-1,0.5-1.3,0.3c-0.1-0.1-0.6-0.6-0.8-0.6
			c-0.3-0.4-0.7,0-1,0c-0.4,0-0.5-0.1-0.9-0.2c-0.4-0.1-0.7,0-1.1,0.1c-0.3,0.1-0.2,0.7-0.4,0.9c0,0-0.4,0.2-0.7,0.3
			c-0.6,2.6-1.1,5.2-1.5,7.9C1.7,65.4,1.7,65.4,1.8,65.4z"/>
		<path class="st3" d="M136.5,119.2c-0.1-0.5-0.3-1-0.3-1.5c0-1.1-0.6-2.1-1-3.1c-0.1-0.3-0.7-0.9-0.5-1.3c0.2-0.4,0.5-1,0.8-1.3
			c-0.3-0.3-0.7-0.1-1.1-0.3c-0.5-0.2-0.3-0.6-0.4-1.1c-0.1-0.6-0.4-0.7-0.2-1.3c0.2-0.6,0.5-0.4,1-0.4c-0.2-0.2-0.4-0.4-0.5-0.7
			c0-0.1-0.2,0.1-0.2-0.1c0-0.2,0.1,0,0.2-0.1c0.1-0.1,0.3-0.2,0.3-0.3c0.1-0.1,0-0.3,0-0.3c0.1-0.2,0.2-0.4,0.3-0.5
			c-0.3-0.2,0.1-1.2-0.3-1.5c0.4,0,0.3-0.4,0.3-0.7c0-0.1,0-0.3,0-0.4c0-0.3-0.2-0.2-0.2-0.3c0-0.5-0.2-0.7-0.3-1.1
			c0-0.1-0.2,0-0.2-0.3c0-0.2,0-0.3,0-0.5c0-0.3-0.3-0.9-0.4-1.2c-0.2-0.6-0.3-0.6-1-0.6c-0.5,0-0.9,0-1.4,0s-0.6-0.3-1-0.6
			c-0.3-0.3-0.7-0.8-1.1-1c-0.5-0.2-1.1-0.3-1.5-0.6c-0.5-0.3-0.4-0.8-0.9-1c-0.3-0.1-1.2-0.8-1.6-0.6c-0.4,0.2-0.5-0.1-0.8,0.1
			c-0.2,0.1-0.3,0-0.5,0c-0.4,0-0.8-0.5-1.2-0.7c-0.6-0.3-1.2-0.2-1.7-0.4c-0.1-0.1-0.4,0-0.4-0.1c0-0.3,0-0.4-0.2-0.6
			c-0.4-0.4-1,0-1.4-0.2c-0.4-0.2-0.9-0.1-1.4-0.1c-0.3,0-0.3,0.4-0.3,0.6c0,0.1-0.3,0.1-0.4,0.1c-0.6,0-1.1-0.2-1.7-0.2
			c-0.4,0-1.1,0.4-1.4,0.7c-0.5,0.4-0.5,0.6-0.6,1.2c-0.2,0.9-1.8,1-2.6,1c0.3,0.4,0.7,1,0.7,1.5c0,0.5-0.6,0.5-1,0.2
			c0.3,0.1,0.5,0,0.7-0.2c-0.5,0-1,0.1-1.5,0.2c-1.2,0.2-2.4,0.6-3.6,0.8c-1.2,0.3-2.2,0-3.4-0.3c-0.4-0.1-1-0.6-1.4-0.8
			c-0.4-0.2-1-0.5-1.3-0.9c-0.4-0.5-0.7-1-1.3-1.1c-0.5-0.1-1.1,0-1.7-0.2c-0.9-0.2-1.8-0.9-2.1-1.9c-0.1-0.3,0-1.3-0.3-1.5
			c-0.2-0.1-0.5,0.2-0.7,0.2c-0.1,0-0.6-0.5-0.7-0.5c-0.4-0.3-0.8-0.6-1.2-0.9c-0.1-0.1-0.5-0.3-0.5-0.3c0-0.2,0.3-0.4,0.4-0.4
			c0.8,0,0.3-0.5-0.2-0.7c-0.5-0.2,0.3-0.8,0.4-0.9c-0.3-0.3-0.7-0.9-1.2-1c-0.7-0.2-0.8,0.3-1.3,0.6c-0.5,0.3-0.8,0.6-1.3,1
			c-0.1,0.1-0.1,0.3-0.3,0.3c-0.2,0-0.2,0-0.3,0.1c-0.1,0.3-0.3,0.4-0.5,0.7c-0.3,0.3-0.3,0.3-0.7,0.2c-0.3-0.1-0.4,0.1-0.8,0.1
			c-0.5,0-1.2-0.2-1.7-0.3c-0.4-0.1-0.8-0.7-1.2-0.9c-0.4-0.2-0.7-0.5-1-0.9c-0.4-0.5-1.5-1.8-1.7-0.7c-0.1,0.6,0,0.9-0.6,0.9
			c-0.1,0-0.6,0-0.6,0c-0.1,0.1,0.2,0.3,0.2,0.4c0,0.2,0.3,0.4,0.4,0.4c0.2,0,0,0.2,0.1,0.3c0,0.1-0.1,0.4,0,0.5
			c0.1,0.1,0.4,0.2,0.5,0.3c0.1,0.2,0,0.5,0,0.7c0,0.2,0.2,0.3,0.2,0.6c0,0.4,0.3,0.5,0.7,0.6c-0.2,0.2-0.1,0.5-0.2,0.7
			c-0.1,0.3-0.3,0.2-0.3,0.6c0,0.6,0.4,0.4,0.9,0.7c0.4,0.3,0.3,0.6,0.5,1.1c0.2,0.4-0.1,0.2,0.3,0.4c0.2,0.1,0.4,0.3,0.6,0.5
			c-0.3,0.2,0.2,1,0.3,1.4c0.1,0.2,0.1,0.3,0.2,0.5c0,0.1,0.1,0,0.2,0c0.1,0.1,0.3,0.2,0.3,0.4c0,0.5,0.2,0.7,0.5,0.9
			c0.4,0.3,0.5,0.5,0.7,1.1c0.2,0.5,0.6,0.5,1,0.7c0.5,0.3,0.5,0.4,1.1,0.4c0.4,0,1.3,0,0.8,0.3c-0.4,0.3-0.9,0.3-0.6,0.9
			c0.2,0.4,0.5,0.5,0.6,0.9c0.1,0.3,0.4,0.2-0.1,0.5c-0.1,0.1-0.4,0.1-0.5,0.3c-0.5,0.6-0.7,0.7-0.5,1.4c0.2,0.5-0.5,0-0.5,0.5
			c0,0.3-0.2,0.3,0,0.6c0.1,0.1,0.4,0.4,0.4,0.6c0,0.3-0.1,0.4-0.2,0.7c-0.2,0.4,0,0.1,0.2,0.4c0.3,0.4,0.6,0.8,1,1.1
			c-0.1-0.1,1.1-0.1,0.4,0.4c0.4,0.1,1,0.7,1,1.1c0,0.2-0.1,0.9,0.3,0.9c1.1,0,1.7,0.8,2.6,1.3c0.2,0.1,0.4,0.3,0.6,0.5
			c0.3,0.3,0.3-0.1,0.6,0c0.4,0.1,0.7,0.9,0.8,1.1c0.2,0.3,0.6,0.8,0.8,1c0.5,0.5,0.4,0.6,0.2,1.2c-0.1,0.6-0.1,1,0,1.7
			c0,0.2-0.1,0.6,0.1,0.6c0.2,0,0.4,0,0.7,0c0.5,0,0.4,0,0.4,0.4c0,0.3,0.1,0.5,0.2,0.8c0,0.2-0.1,0.6,0.1,0.8
			c0.2,0.2,0.4,0.2,0.5,0.3c0.4,0.4,0.6,0.2,0.8,0.8c0.1,0.4,0.2,0.9,0.8,0.6c0.4-0.2,0.9,0,0.9-0.5c0-0.4-0.4-1,0.2-1.1
			c-0.1-0.1-0.1-0.1-0.2-0.2c0.4-0.1,1.2-0.1,0.7,0.3c-0.2,0.1-1,0-0.2,0.4c0.5,0.3,1.1,0.5,1.5,0.9c0.2,0.2,1.2-0.5,1.4-0.6
			c0.1-0.1,1.4,1.9,1.7,2.2c0.3,0.3,0.9,0.7,0.9,1.1c0,0.6,0.4,0.6,0.8,1c0.2,0.2-0.2,0.4,0.1,0.6c0.3,0.2,0.4,0.3,0.6,0.6
			c0.2,0.5,0.3,1,0.6,1.4c0.6,0.9,1.2,1.9,2.4,1.9c0.6,0,1,0.5,1.6,0.7c0.5,0.2,0.7,0.6,1,1c0.8,0.8,1.9,1,2.7,1.7
			c0.3,0.3,0.9,0.8,1.4,0.9c0.6,0.1,0.8-0.2,1.4,0c0.1,0,0.1,0.1,0.2,0.1c7.1-4.9,13.3-10.9,18.4-17.9
			C136.8,119.4,136.6,119.4,136.5,119.2z"/>
		<path class="st3" d="M77,97.6c0.2,0,0.5-0.2,0.7-0.2c0.1,0,0.4,0.2,0.6,0.2c0.4,0,0.8,0.3,1.4,0.3c0.4,0,0.4,0,0.7-0.3
			c0.2-0.2,0.3,0.1,0.5,0.1c0.5,0,0.2,1.1,0.6,1.2c0.1,0,0.8-0.6,0.9-0.8c0.4-0.4,0.8,0.5,0.9,0.7c0.1,0.2,0.1,0.7,0.3,0.7
			c0.1,0,0.4,0.3,0.4,0.4c0,0.4,0.1,0.9,0.6,0.9c0.4,0,0.6,1.1,0.8,1.3c0.1,0.3,0.3,0.1,0.5,0.2c0.2,0.1,0.5,0.3,0.7,0.5
			c0.3,0.3,1,0.2,1.5,0.2c0.2,0,0.5,0.1,0.4,0.3c0,0.1-0.6,0.1-0.7,0.3c-0.2,0.5,0,0.9,0.4,1.2c0.3,0.2,0.1,0.2,0.2,0.5
			c0.1,0.4,0.3,0.2-0.2,0.5c-0.3,0.3-1,0.6-1,1.1c0,0.2,0.2,0.4,0.2,0.7c0,0.3-0.5-0.1-0.5,0.2c0,0.2,0.1,0.4-0.1,0.5
			c-0.2,0.2,0.2,0.4,0.3,0.6c0.1,0.2,0.3,0.3,0.1,0.6c-0.1,0.2-0.4,0.6-0.2,0.6c0.5,0.2,0.7,0.8,1.1,1.1c0.3,0.3,0.3-0.2,0.5,0
			c0.2,0.2,0.3,0.3,0,0.5c0.5,0.2,0.7,0.6,1,1c0.2,0.2-0.1,0.7,0,0.9c0.2,0.3,0.7,0.1,1,0.3c0.5,0.2,0.8,0.5,1.2,0.8
			c0.3,0.2,0.7,0.3,0.9,0.6c0.1,0.1,0.3,0.4,0.5,0.4c0.4-0.1,0.3-0.1,0.6,0c0.6,0.4,0.9,1.4,1.4,1.9c0.5,0.5,0.5,0.5,0.3,1.2
			c-0.1,0.4-0.2,0.8-0.2,1.2c0,0.2,0.1,1.2,0.2,1.2c0.4,0,1.1-0.2,1.1,0.2c0,0.5,0.2,0.9,0.2,1.4c0,0.4,0.5,0.5,0.8,0.8
			c0.1,0.1,0.3,0,0.4,0.1c0.1,0.2,0.1,0.3,0.2,0.5c0.1,0.3,0.2,0.8,0.7,0.7c-0.5,0.3-1.9-0.4-1.9,0c-0.5-0.2-0.7-0.3-1.3-0.3
			c-0.3,0-1.4,0-1.4,0.4c0,0.8-0.7,2.3-1.3,2.9c-0.7,0.7-2.4,0.3-3.4,0.3c-0.9,0-2.3-0.1-3-0.6c-1.8-1.3-3.7-2.6-5.4-3.9
			c-1.8-1.4-3.4-3.2-5.6-4.1c-0.6-0.3-1.2-0.6-1.8-0.9c-0.6-0.3-1.1-0.9-1.7-1c-1.4-0.2-2.7-0.4-4-0.7c0.3-0.3,0.7-0.5,0.3-0.9
			c-0.6,0.5-0.7,0-0.9-0.5c0.1,0,0.1,0,0.2,0c-0.4-1-0.8-1.9-1.2-2.9c-0.2-0.6,0.5-0.6,0.9-1c0.5-0.3,0.9-0.6,1.4-0.9
			c1-0.6,2-1.3,3-1.9c0.4-0.2,1-0.3,1.1-0.9c0.1-0.6,0.5-0.9,0.4-1.5c-0.1-0.4-0.4-1.1-0.2-1.4c0.1-0.4,0.3-1.1,0.3-1.5
			c0-0.4-0.4-1-0.6-1.4c-0.2-0.3,0-1.1,0.1-1.3c0.2-0.5,1-0.3,1.4-0.6c0.4-0.3,0.6-0.8,0.9-1.1c0.4-0.4,0.4-0.7,0.8-1
			c0.3-0.2,0.4-0.2,0.5-0.6C76.5,97.4,76.7,97.4,77,97.6"/>
		<path class="st2" d="M57.2,112.8c0.4,0.5,0.3,1.3,0,1.8c-0.2,0.3-0.3,0.2-0.6,0.5c-0.3,0.3,0.2,0.9-0.3,0.9
			c-0.1,0-0.3-0.3-0.3-0.3c-0.1-0.1-0.4-0.1-0.6-0.1c-0.4-0.1-0.4,0.6-0.5,0.7c-0.3,0.6,0,1.3,0,2c0.3-0.3,0.4-0.1,0.6,0.1
			c0.3,0.3-0.1,0.3-0.3,0.4c-0.1,0.1-0.3,0.1-0.3,0.2c-0.1,0.1,0,0.3,0,0.3c0,0.1-0.3,0.6-0.2,0.7c0.2,0.3,1.2-0.3,1.4-0.3
			c0.1,0,0.5-0.3,0.5-0.1c0,0.3,0,0.7-0.2,1c0.6,0-0.5,2.6-0.5,3c0,0.3,0.2,0.6,0.2,0.9c0,0.3-0.2,0.6-0.2,0.9
			c0,0.3-0.2,0.5-0.2,0.8c0,0.4,0.1,0.7-0.2,1c-0.4-0.7-0.5-1.4-0.7-2c-0.1-0.4-0.3-0.7-0.5-1c-0.2-0.4-0.3-0.6-0.5-1
			c-0.2-0.7-0.6-1.3-0.9-2c-0.2-0.5,0.2-0.3,0.2-0.8c0-0.4,0.5-0.7,0.2-0.9c0.7-0.1,0.9-3.3,1-3.9c0.1-0.4,0.2-0.7,0.3-1.1
			c0.2-0.5,0.1-0.5,0.5-0.6c0.3-0.1,0.6,0.1,0.9-0.2c0.1-0.1,0-0.9,0.2-0.3c0.1-0.2,0.4-0.2,0.5-0.3c0.1-0.1,0.1-0.4,0.3-0.5
			c0.1,0.2,0,0.4-0.2,0.5C57.1,112.7,57.2,112.7,57.2,112.8"/>
		<path class="st2" d="M67.5,115.7c0.1,0.5,0.2,1,0.9,0.5c0.3,0.3,0,0.5-0.2,0.7c-0.2,0.2-0.3,0.6-0.6,0.6c-0.6,0-1.4,0.4-2,0.6
			c-0.7,0.3-1.4,0.3-2,0.6c-0.7,0.3-1.3,0.5-2,0.7c1.2,1.2,2.3,2.5,3.6,3.7c-0.3,0.1-0.8,0.3-1,0.5c-0.1,0.2-0.2,0.9-0.3,1.1
			c-0.2,0.5-1.8,0.6-2.3,0.7c-0.2,0.1-0.4,0.7-0.5,0.9c-0.2,0.4-0.4,0.7-0.8,1c-0.8,0.7-1.3,0.5-2.2,0.3c-0.5-0.1-2-0.1-2-0.6
			c0-0.8,0-1.6,0.3-2.4c0.1-0.4,0-0.8-0.1-1.2c-0.1-0.2,0.1-0.8,0.2-1.1c0.1-0.3,1-2,0.3-2c0.4-0.6,0-1.4,0.3-2
			c0.1-0.2-0.1-1.6-0.1-1.9c-0.1-0.5-0.5-1.8,0.4-1.8c0.4,0,0.5,0,0.7,0.3c0.3,0.4,0.7,0.3,1,0.6c1.3,1.3,2.7,0,3.8-0.8
			c1.2-0.9,2.4-1.6,3.6-2.5c0.4,1.1,0.9,2.1,1.4,3.2C67.6,115.7,67.5,115.7,67.5,115.7"/>
		<path class="st2" d="M9,77.2c-0.2,0.7,0.8,0.2,1,0.5c0.3,0.4-0.2,1.2-0.5,1.4c0.5,0.5-0.2,0.2-0.4,0.4c-0.1,0.1,0,0.2-0.2,0.3
			c-0.2,0.2-0.2-0.2-0.4-0.3c-0.4-0.1-0.8,0.3-1.1,0.5c-0.3,0.2,0.1,0.6-0.2,0.7c-0.5,0.2-0.3-0.3-0.4-0.6c-0.1-0.5-0.2-0.8-0.7-1.1
			c-0.1-0.1-0.3,0-0.4,0c-0.1-0.1-0.2-0.5-0.3-0.6c-0.1-0.3-0.2-0.7-0.4-0.9c0.1,0,0.3,0,0.3,0c0,0,0.3-0.2,0.2-0.2
			c0.2-0.1,0.7-0.1,0.9-0.3c-0.5-0.4,0.3-0.3,0.3-0.8c0-0.1-0.4-0.4-0.1-0.4c0.2,0,0.4-0.2,0.6-0.2c0,0,0,0.2,0,0.3
			c0,0.2,0.1,0,0.2,0.1c0.2,0.1,0.5,0.1,0.6,0.2C8.2,76.5,8.6,77,9,77.2"/>
		<path class="st2" d="M97.9,126.4c-0.7,0-0.8-1-0.3-1.4c0.3,0.3,0.5,0.7,0.7,1C98.1,126.1,98,126.2,97.9,126.4 M97.6,126.4
			c-0.1,0.4-0.2-0.1-0.3,0c-0.3,0.1-0.4,0.2-0.6,0.5c-0.5,0.5,0.4,0.8,0.6,0.4c0.5,0.4,0.3,1.2,0.7,1.6c0.2,0.2,0.5,0.5,0.6,0.8
			c0.1,0.3,0.2,0.6,0.3,0.9c-0.6,0-1.2,0-1.8,0c-0.9,0-0.9-0.4-1.2-1.1c-0.3-0.6-0.6-0.8-1.3-0.8c-0.7,0-1.3-0.2-2-0.3
			c0.5-0.5,0.8-1,1-1.6c0.2-0.7,0.3-1.5,0.9-1.8c0.4-0.2,1.4-0.2,1.8,0C97,125.1,97.3,125.8,97.6,126.4"/>
		<path class="st3" d="M58.3,107.5c0.1,0.1,0.1,0.1,0.2,0.2c-0.2,0.1-0.3,0.3-0.3,0.5c0.6,0,0.8,0.3,1,0.9c0.2,0.5-0.4,0.8-0.7,1.1
			c-0.3,0.3,0.3,0.2,0.3,0.4c0,0.2-0.3,0.2-0.4,0.1c-0.3-0.3-0.8,0.4-0.9,0.6c0.8,0.6-0.4,1.2-0.9,1.7c-0.2-0.5-0.1,0.3-0.4,0.5
			c-0.1,0.1-0.9,0.1-0.9,0c0-0.9,0.6-1.6,0.8-2.5c0.2-0.8,0.3-1.7,0.7-2.5c0,0,0.8-0.7,0.6-0.7c0.2,0,0.5,0,0.7,0
			C58,107.7,57.9,107.5,58.3,107.5"/>
		<path class="st2" d="M23.5,125.8c-0.1-0.3-0.4-1-0.4-1.3c0-0.6,0.5-0.9,0.5-1.5c0-0.2,0.2-0.4,0.2-0.7c0-0.3-0.1-0.5-0.2-0.8
			c-0.1-0.5-0.5-1.1-0.3-1.6c0.2-0.4,0.5-0.9,0.8-1.1c-0.4-0.4-0.4-0.9-0.9-1.1c-0.6-0.3-1,0-1.6,0c-0.8,0-0.9-0.1-1.5-0.5
			c-0.8-0.5-2.6,0.1-2.6-1.1c0-0.8-0.4-0.9-1.1-1.1c-0.5-0.2-0.9-0.4-1.4-0.7c-0.3-0.2-1.2,0-1.6,0c-0.8-0.1-0.6,0-1.4,0.3
			c0,0-0.1,0-0.1,0.1c3.5,5.6,7.6,10.8,12.4,15.3c0-0.8-0.1-1.6-0.3-2.4C23.9,126.9,23.8,126.3,23.5,125.8z"/>
		<path class="st3" d="M25.4,56.7c0.4,0.1,0.6,0.4,0.9,0.6c0.3,0.2,0.9,0,0.8,0.5c0.1-0.1,0.1-0.1,0.2-0.2c0,0.2,0.1,0.2,0.2,0.3
			c0.6-0.7,1.2,0.4,1.7,0.5c0.2,0,0.1-0.2,0.3,0c0.2,0.1,0.2,0.4,0.3,0.6c0.1,0.3,0.1,0.8-0.1,0.9c0.2,0.3,0.9,0.9,1.3,0.9
			c0.2,0,0.3,0.3,0.2,0.4c-0.3,0.3,0.1,0.4,0.3,0.6c0.2,0.3-0.2,0.3,0.3,0.4c0.3,0.1,0.6,0.2,0.8,0.4c0.2,0.3,0.2,0.4,0.2,0.8
			c0,0.2,0.5,0.5,0.7,0.6c-0.2,0.2-0.3,0.2-0.6,0.2c-0.3,0-0.2-0.3-0.4-0.3c-0.2,0-0.3,0.2-0.5,0.2c-0.2,0-0.3-0.2-0.5-0.2
			c-0.3,0-0.7,0.4-0.7,0.3c0-0.1,0.1-0.6-0.1-0.6c-0.2,0-0.5,0.2-0.6,0.3c-0.3,0.4,0.3,0.5,0.3,1c0,0-0.3,0.6-0.3,0.6
			c-0.3,0.1-0.4,0.2-0.4,0.5c0,0.3-0.4,0.2-0.5,0.4c-0.2,0.4,0,0.3,0,0.6c0,0.4-0.6,0.2-0.9,0.6c-0.1-0.3-0.3-0.5-0.5-0.7
			c0.6,0,0.1-0.7,0-1c-0.1-0.6-0.1-1.1,0-1.7c0-0.1,0.2-0.2,0.2-0.3c0-0.1-0.2-0.1-0.2-0.2c0-0.4-0.1-0.5-0.3-0.9
			c-0.3-0.6-0.6-0.8-1.1-1.3c-0.3-0.3-0.8-0.8-1.1-1.2c-0.1-0.1-0.3-0.5-0.4-0.5c-0.4-0.1-0.5-0.2-0.6-0.6c-0.4-0.8-1.1-2.1-2.2-2
			c0.3,0,0.5-0.3,0.8-0.3c0.3,0,0.6,0,0.9,0C24.3,56.8,24.7,56.3,25.4,56.7"/>
		<path class="st2" d="M12.1,79c0.4,0.5,0.6,0.8,1.1,1.1c0.2,0.1,0.4,0.1,0.5,0.3c0.1,0.1,0.3,0.7,0.3,0.7c0.3,0,0.1,1.2,0.1,1.5
			c0,0.2,0,0.2-0.3,0.2c-0.5,0,0,0.3-0.3,0.5c-0.3,0.3-1.1,0.2-1.4,0.2c-0.1,0-0.2-0.2-0.3-0.2c-0.1,0-0.1,0.2-0.3,0.2
			c-0.3,0-0.4,0.2-0.7,0.4c-0.2,0.2-0.3,0.3-0.6,0.4c-0.3,0.1-0.2,0-0.6,0c-0.1,0-1.4,0.4-1.4,0.1c0-0.2-0.4-0.1-0.6-0.1
			c0,0-0.3-0.4-0.4-0.5c-0.2-0.2-0.6-0.8-0.6-1.2c0-0.3-0.2-0.4-0.2-0.7c0-0.2,0.3-0.3,0.1-0.5c-0.1-0.1,0-0.6,0.1-0.8
			c0.2-0.2,0.3,0.1,0.5-0.2c0.1-0.1-0.1-0.5,0-0.5c0.2-0.1,0.6-0.5,0.8-0.5c0.3,0,0.4,0,0.6,0.3C9,80,9,79.5,9.2,79.4
			c0.3-0.2,0.9,0.1,1.3-0.3c0.1-0.1,0.4-0.1,0.5,0c0.2,0.2,0.6-0.2,0.8-0.3C11.8,79.1,11.9,79,12.1,79"/>
		<path class="st2" d="M1.7,74.6c0.6-0.1,0.4,0.3,0.9,0.6c0.5,0.3,0.9,0.7,1.4,0.9c0.5,0.2,1,0.4,1.5,0.7c0.6,0.3-0.2,0.8-0.6,0.7
			c0.4,0.4,0,1-0.5,1c-0.4,0-0.2-0.7-0.5-0.7c-0.2,0-0.6,1.1-0.7,1.3c-0.1,0.1-0.1,0.2-0.2,0.3c-0.2,0.2,0.1,0.1,0.1,0.3
			c0,0.3-0.1,0.5,0.2,0.5c-0.1,0.2-0.2,0.3-0.2,0.5c-0.4-0.4-0.9-0.9-1.3-1.3c-0.2-0.2-0.6-0.4-0.8-0.5c-0.1-0.1,0-0.2,0-0.2
			c-0.1,0-0.3,0.1-0.3,0c-0.7-0.6,0.3-0.4-0.1-1c-0.3-0.4-0.5-1.4,0.3-1.2c-0.4-0.5,0.2-1.2,0.8-1.2c0.1,0,0.4,0.3,0.1-0.3
			C1.5,74.8,1.2,74.5,1.7,74.6"/>
		<path class="st3" d="M5.2,53.4c0.3-0.3,0.6-0.4,1-0.4c0.3,0,0.8,0.1,1.1,0.2c0.5,0.1,0.6,0.3,0.9,0.6c0.3,0.3,0.9,0.4,1.3,0.5
			c0.2,0.1,0.7,0.2,0.8,0.2c0.8,0-0.1-0.2-0.2-0.5c-0.1-0.2,0.2-0.3,0.2-0.4c0-0.1-0.2-0.4-0.3-0.5c-0.2-0.7,0.5-1.5,1-2
			c0.3-0.3,0.7-0.5,0.9-0.8c0.2-0.4,0.6-0.6,1-0.6c0.6,0,0.8-1.3,0.1-1.4c0.7-0.3,0-0.5-0.2-0.9c-0.2-0.6-0.5-0.8-1-1.1
			c0.1-0.1,0.1-0.1,0.2-0.2c-0.4-0.3-0.8-1.2-0.3-1.5c-0.3-0.3,0-0.7-0.3-0.9c-0.2-0.2-0.3-0.4-0.7-0.4c-0.2,0-0.6,0-0.6-0.3
			c0-0.4,0.3-0.9,0.7-1.1c0.5-0.3,1-0.1,1-0.8c0-0.6-0.3-0.9-0.4-1.3c-0.1-0.5-0.4-1-0.7-1.5c-2.7,4.7-4.9,9.8-6.6,15.1
			C4.6,53.2,5,53.6,5.2,53.4z"/>
		<path class="st2" d="M53.3,120.1c-0.1,0.1-0.2,0.2-0.3,0.3c-0.4-0.4,0.3-0.9,0.5-1.4C53.9,119.3,53.3,119.7,53.3,120.1
			 M56.7,117.5c0.1,0.3,0.2,0.6,0.2,0.9c0,0.2-0.2,0.5-0.2,0.8c0,0.3-0.9,0.8-1.3,0.8c-0.3,0-0.5,0.1-0.6-0.2c0,0,0.2-0.8,0.2-0.9
			c0.1-0.2,0.7-0.2,0.7-0.4c0-0.4-0.4-0.5-0.7-0.3c0-0.9-0.5-1.9,0.3-2.7c0.3-0.3,0.9,0.5,1.2,0.5C56.8,116,56.7,117.3,56.7,117.5"
			/>
		<path class="st3" d="M24.2,59.3c0.1,0.3,0.2,0.3,0.4,0.4c0.3,0.1,0.1,0.1,0.3,0.3c0.3,0.3,0.6,0.6,0.9,0.9
			c0.6,0.6,1.1,1.1,1.5,1.9c0.1,0.1,0.3,0.4,0.3,0.5c0,0.2,0.2,0.5,0.2,0.6c0,0.4-0.4,0.8-0.3,1.2c0,0.2,0.1,1,0.3,1.1
			c0.2,0.2,0.3,0.8-0.1,0.8c0.3,0.3,0.5,0.9,0.9,1c0.5,0.2,1,0.3,1.5,0.3c-0.1-0.1-0.1-0.1-0.2-0.2c0.9,0.1,2.1-1.1,2.7,0.1
			c0.1,0.2,0.1,1,0,1.3c-0.2,0.6-1,0.4-1.5,0.5c0.1-0.3-0.3-0.5,0-0.7c-0.2-0.2-0.3-0.2-0.5,0c-0.3,0.3,0,0.3,0,0.6
			c0,0.3-0.2,0.5-0.2,0.9c0.1-0.1,0.1-0.1,0.2-0.2c0.1,0.5-0.5,0.8-0.5,1.2c0.1,0.6,0.1,1.2,0.1,1.8c0,0.1-1.1,0.1-1.3,0.1
			c-0.3-0.1-0.5-0.2-0.7-0.4c-0.3-0.3-0.1-0.4-0.7-0.2c-0.1,0-0.4-0.3-0.6-0.3c-0.2-0.1-0.5,0-0.7-0.1c-0.2-0.1-0.6-0.1-0.8-0.3
			c-0.2-0.2-0.6,0.1-0.8,0.1c-0.6,0.1-1.1,0.2-1.7,0.4c-0.5,0.2-0.8,0.7-1.3,1c-1.2,0.6-2,0.1-3.1-0.1c-0.3,0-0.6-0.1-0.9-0.1
			c-0.2,0-0.5,0.2-0.7,0.2c-0.6-0.1-1.2-0.2-1.8-0.3c-0.5-0.1-0.9,0-1.4,0c-0.6,0-1.2,0-0.5-0.6c0.1-0.1,0.5-0.2,0.2-0.3
			c-0.2-0.1-0.5-0.2-0.8-0.3c-0.2-0.1-1-0.7-1-1c0-0.6,1.2-0.2,0.3-0.7c-0.2-0.1-0.6-0.3-0.8-0.2c-0.3,0.2-0.2,0.6-0.7,0.5
			c-0.2,0-0.2-0.5-0.6-0.5c-0.3,0-0.6,0-0.9-0.3C8.8,70,8.3,70,8.2,69.8c-0.1-0.2,0.4-0.2,0.5-0.3c-0.2-0.2-0.5-0.2-0.7-0.3
			c0.3,0,0.3-0.2,0.3-0.4c0-0.2-0.5-0.4-0.7-0.4c-0.3-0.1-0.5-0.2-0.8-0.4c-0.1-0.1-0.7-0.4-0.8-0.5c-0.1-0.2,0-0.6,0-0.8
			c0-0.4-0.2-0.1-0.4-0.3C5.4,66,5.4,66,5,65.8c-0.3-0.1-0.5-0.4-0.6-0.7C4.6,65,4.8,65,5.1,64.9c0.2,0,0.3,0.2,0.5,0.2
			c0.3,0,0.1-0.4,0.3-0.5c0.3-0.1,0.8,0.2,1,0c0.3-0.2,0-0.7,0.5-0.5c-0.5-0.4,0.3-0.8,0.5-1c-0.1-0.1-0.1-0.1-0.2-0.2
			c0.3-0.2,0.5-0.7,0.5-1.1c0-0.2,0.3-0.3,0.4-0.5c0.1-0.2,0.1-0.6,0.2-0.7C9,60.3,9,60.5,9,60c0-0.2,0.3-0.3,0.4-0.5
			c0.2-0.4,0.6-0.4,1.1-0.4c0.2,0,0.8-0.6,0.9-0.7c0.5-0.3,0.7-0.6,1.2-0.3c0.4,0.2,0.8,0,1.2,0.1c0.4,0.1,1,0.3,1.4,0.3
			c0.3,0,0.9-0.4,1.2-0.1c0.3,0.3,0.6,0.9,1.1,0.8c0.4-0.1,1-0.5,1.4-0.7c0.5-0.2,1.1-0.1,1.6-0.3c0.3-0.1,0.6-0.9,0.7-0.9
			c0.6,0,0.7-0.2,1.2-0.2C23.3,57.2,23.8,58.7,24.2,59.3"/>
		<g>
			<path class="st3" d="M86.4,67.5c0-0.2,0-0.5-0.2-0.7c-0.1,0.1-0.1,0.1-0.2,0.2C86.2,67.1,86.3,67.3,86.4,67.5z"/>
			<path class="st3" d="M20.5,26.6c0.3,0.2,0.3,0.8,0.6,0.9c0.2,0.1,0.7,0.7,0.8,1c0.1,0.4-0.2,0.8,0.3,1c0.2,0.1,0.9-0.5,1.1-0.1
				c0.4,0.7,0.5,0.2,1,0.1c0.3-0.1,1,0.3,1.2,0.5c-0.3,0.2-0.2,0.3,0,0.5c0.3,0.3,0.4,0.1,0.7,0c0.3-0.1,0.6-0.3,1-0.3
				c0.4-0.1,1,0,1.4,0.3c0.2,0.2,0.6,0.5,0.9,0.5c0.3,0,0.2,0,0.3,0.3c0,0.1,0.1,0.3,0.1,0.4c-0.1,0.1-0.1,0.1-0.2,0.2
				c0.1,0.5,0.4,0.5,0.5,0.9c0.1,0.4-0.5,0.8-0.3,1.1c0.3,0.3,0.7,0.6,1.1,0.6c-0.4,0.5,0,0.6,0.4,0.8c0.3,0.1,0.4,0.6,0.8,0.8
				c0.2,0.1,1.1,0.3,1.2,0.4c0.1,0.2,0,0.7-0.2,0.9c0.5,0,0.8,0,1.3,0.2c0.5,0.1,0.6,0.4,0.8,0.6c0.2,0.2,0.4,0.6,0.9,0.6
				c0.1,0,0.1,0.2,0.1,0.3c0,0-0.4,0-0.4,0c-0.3,0.2-0.1,0.3-0.3,0.5c-0.2,0.1-0.4,0.1-0.6,0.3c-0.2,0.2-0.9,0.1-1.2,0
				c-0.2-0.1,0-0.2-0.3-0.2c-0.2,0-0.3,0-0.5,0c-0.4,0-0.3,0.4-0.6,0.7c0.3,0,0.4,0.3,0.7,0.5c0,0,0.8,0.5,0.4,0.5
				c-0.2,0,0.4,1.2,0.4,1.4c0-0.1,0.5,0.6,0.5,0.6c0.1,0.1,0,0.1,0.2,0.2c0,0,0.2,0,0.3,0c0.7,0.4,1.1,0,1.3-0.7
				c0.1-0.6,1.2,0.3,1.6,0.1c0.6-0.4,1.1-0.3,1.8-0.3c0.6,0,1,0.2,1.4,0.7c0.3,0.4,0.8,1.3,1.3,1.3c-0.2,0.3-0.6,0.1-0.9,0.3
				c0.3,0.3,0.5,1.2,0.9,1.2c-0.4,0.3-0.1,0.3,0.3,0.3c0.3,0,0.5,0.2,0.8,0.2c0.3,0,1.1-0.1,1.3,0c0,0,0.1,0.4,0.1,0.4
				c0.1,0.2,0.1,0,0.2,0.1c0,0,0.2,0,0.3,0c0.2,0,0,0.1,0.1,0.2c0.3,0.3,0.4,0.9,0.7,1.2c-0.4,0.2,0.2,0.9,0.5,1
				c0.5,0.3,0.6-0.2,1.1-0.2c0.4,0,0.7,0.5,1,0.5c0.4,0,0.7,0,0.9,0.3c0.5-0.6,1.2-0.4,1.8-0.7c0.7-0.4,1,0.7,1.4,1.1
				c0.3,0.3,0.7,0.5,1.1,0.6c0.4,0.2,0.2-0.2,0.3-0.4c0.3-0.3,0.5,0.3,0.9,0.3c0.4,0,0.6,0,0.9,0.3c0.2,0.2,0.7,0.2,1,0.2
				c0.2,0,0.2-0.3,0.3-0.1c0.1,0.1,0,0.2,0.2,0.3c0.3,0.2,0.6,0.1,0.9,0.3c0.3,0.2,0.6,0.3,0.9,0.3c0.3,0,0.6-0.1,0.8,0.2
				c-0.2-0.2,0,0.4,0,0.3c0,0.2,0.2,0.3,0.2,0.4c0,0.7-0.3,1.1-1,1.1c0.3,0.3,0.8,0.7,1.2,0.7c-0.2,0.3-0.5,0-0.7,0.2
				c-0.3,0.2-0.1,0.5-0.3,0.7c0.2,0.1,0.6,0.1,0.8,0.3c0.2,0.2,0,0.4,0.3,0.6c-0.1,0.1-0.1,0.1-0.2,0.2c0.5,0.2,0.2,0.8,0.2,1.4
				c0,0.5-1.5,0.3-1.8,0.3c-0.2,0-0.8-0.1-0.9,0c-0.1,0.1-0.1,0.4-0.2,0.5c-0.1,0.1-0.3,0.2-0.4,0.2c-0.2,0.1-0.8,0.1-0.8,0.4
				c0,0.3,0.1,0.6-0.2,0.8c0.6,0.3-0.1,0.7,0.3,0.9c0.3,0.1,0.9-0.6,1.4-0.5c-0.2,0.1-0.4,0.2-0.5,0.3c0.5,0,1-0.1,1.3-0.5
				c0.4-0.4,0.7,0.3,0.9,0.5c0.2,0.4-1.8,1-2.2,1.1c0.5,0.7-0.2,0.5-0.7,0.5c-0.4,0-0.8,0.2-1.2,0.2c0.1,0.3,0.3,0.5,0.5,0.8
				c0.1,0.1,0.4,0,0.5,0.1c0.6,0.2,1,0.7,1.4,1.2c-0.3,0-0.5,0-0.8,0c-0.1,0-0.1,0.4-0.3,0.5c0.1-0.3-0.2-0.5-0.4-0.3
				c-0.2,0.2-0.2,0.7-0.4,0.9c-0.1,0.1-0.2,0.3-0.3,0.4c-0.2,0.4,0,0.1,0,0.4c0,0.1,0.3,0.3,0.2,0.5c-0.1,0.2-1,0.3-1.2,0.3
				c-0.4,0.1-0.6-0.1-0.8-0.3c-0.1-0.1-0.7-0.4-0.7,0c0,0.2,0.5,0.3,0.7,0.3c-0.4,0.4-1.4,0.3-0.3,0.7c0.4,0.1,1.1,0.3,1.4,0.6
				c0.3,0.3,0.5,0.9,1,0.9c0.2,0,0.5,0.2,0.7,0.1c0.3-0.2,0.3-0.1,0.6,0.2c0.5,0.4,0.9,0.8,1.5,0.9c0.5,0.1,0.9,0.2,1.3,0.5
				c1,0.7,1.9,1.4,2.8,2.1c0.4,0.3,1,1,1.4,0.5c0.4-0.4,0.8-0.1,1.4-0.1c0.6,0,1.1,0.3,1.7,0.5c0.4,0.1,1,0.1,1.3,0.4
				c0.7,0.7,2.2,0.1,3.1,0.4c0.4,0.1,1.1,0.3,1.5,0.3c0,0,0.3,0.4,0.4,0.5c0.2,0.2,0.5,0.2,0.7,0.3c0.4,0.2,1.2,0.3,1.5,0.6
				c0.3,0.4-0.2,0.8,0.7,0.7c0,0,0-0.2,0.3-0.2c0.1,0,0.2-0.1,0.3-0.1c0.2-0.1,0.4-0.2,0.7-0.3c0.6-0.2,0.7,0,1.1,0.4
				c0.2-0.6,0.3-0.6,0.9-0.3c0.3,0.1,0.5,0.4,0.8,0.6c0.2,0.2,0.8-0.1,1.1,0c0.3,0.1,0.2,0.4,0.2,0.8c0,0.5,0.2,0.5,0.7,0.8
				c0.3,0.2,0.6,0.3,0.9,0.3c0.3,0,0.7,0.2,0.9,0.3c0.1,0.1-0.1,0.2,0.1,0.2c0.1,0,0.2,0,0.3,0c0.1,0.1,0.2,0.2,0.2,0.3
				c0.4-0.5,1.3,0.4,1.6,0.8c0.3,0.3,0.6,0.4,0.8,0.8c0.3,0.4,0.5,0.4,1,0.5c0.4,0.1,0.7,0.2,1,0c0.3-0.3,0.2-0.8,0.6-1
				c0.4-0.2,0.6-0.3,0.8-0.7c0.2-0.5,0.2-0.4-0.2-0.9c-0.9-1.2-2-2.4-3.1-3.4c-0.2-0.2-0.5-0.7-0.8-0.7c-0.2,0,0-0.7-0.1-0.9
				c-0.2-0.7-0.1-1.5-0.1-2.3c-0.3,0.2-0.2,0.8-0.2,1.2c-0.2-0.4-0.4-1.3-0.7-1.6c-0.4-0.4-0.8-0.8-1.3-1.3c-0.5-0.5-1,0.1-1.1-0.7
				c0-0.6,0.6-0.7,0.5-1.2c0.3,0.4,0.4,0,0.5-0.3c0.1-0.3,0.3-0.6,0.3-0.9c0-0.2,0-0.4,0-0.6c0-0.2,0.2-0.3,0.2-0.4
				c0-0.3,0.1-0.6-0.3-0.7c0.1-0.1,0.1-0.1,0.2-0.2c0,0.3,0.2,0.4,0.5,0.5c0-0.2,0-0.3,0-0.5c0.6,0.5,1.6-0.3,2.1-0.7
				c0.3-0.3,0.4,0,0.7,0c0.2,0-0.2-0.6-0.3-0.7c0.4,0.1,0.7-0.1,1-0.3c0.3-0.1,0-0.5,0.5-0.6c-0.6-0.6-1.9-0.5-2.4-1
				c-0.3-0.3-0.2-0.6,0.2-0.7c-0.1,0,0.5,0.2,0.5,0.2c0.2,0,0.2,0.3,0.5,0c-0.4-0.4-0.7-0.8-1.1-1.2c-0.3-0.3-0.4-0.8-0.7-1
				c-0.5-0.4-1-0.6-1.4-1.1c-0.3-0.5-0.8-0.3-1.3-0.4c-0.9-0.1-2.2,0.4-2.2-1c0-1.1-1.9-0.9-1.9-2.2c0-0.6,0.4-1,0.6-1.5
				c0.3-0.5-0.6-0.6-0.8-0.9c-0.2-0.4,0-1.4,0-1.8c0-0.2,0.3-0.4,0.4-0.5c0.3-0.2,0.3-0.2,0.3-0.5c0-0.6-0.1-0.7,0.4-1
				c0.4-0.2,0.9,0.2,1.2,0.5c0.4,0.4,0.8,0.9,1.2,1.2c0.6,0.4,0.8,0.2,1.5,0c0.5-0.2-0.1-0.9-0.3-1.2c-0.3-0.4-0.4-0.9-0.7-1.4
				c0.6,0,0.6,0,1-0.3c0.5-0.4,0.7-0.4,0.7-1.1c0-0.3,0.8-0.3,1.1-0.5c0.2-0.1,0.4-0.2,0.7-0.3c0.3-0.1,0.3-0.2,0.4-0.3
				c0.3-0.3,0.5-0.7,0.9-1c0.2-0.2,0.1-0.3,0.3-0.3c0.2,0,0.4,0.2,0.6,0.2c0.4,0,0.4,0,0.7,0.3c0.1,0.1,0,0.3,0.2,0.4
				c0.3,0.1,0.8,0,1-0.2c0.3-0.3,1-0.9,1.5-0.6c0.3,0.2,0.8,0.8,1.2,0.8c0.9,0,2-0.2,2.8,0.3c0.5,0.4,0.8,0.6,1.4,0.9
				c0.5,0.2,0.9,0.5,1.3,0.8c0.5,0.3,0.5,0.9,0.9,1.2c0.6,0.5,0.3-0.4,0.2-0.7c-0.2-0.4-0.7-0.8,0-0.9c0.5,0,1,0.5,1.4,0.7
				c1,0.5,1.8,1.2,2.8,0.3c0.2-0.2,0.1-0.5,0.4-0.7c0.1-0.1,0.5-0.2,0.6-0.2c0.4,0,0.8-0.2,1.3-0.2c0.4,0,0.5,0,0.8,0.2
				c0.2,0.1,0.4,0.3,0.6,0.3c0.7,0,0.5-0.1,0.8-0.7c0.3,0.1,1,0.4,1,0c0.5,0.2,0.9,0.3,1.4,0.6c0.4,0.2,0.7,0.7,1.1,0.7
				c0.3,0,0.9,0.2,1.3,0.2c0.1,0,0.6,0,0.7,0.1c0.1,0.1,0,0.3,0.1,0.4c0.4,0.4,0.9-0.5,0.9-0.9c0-0.7,0.2-0.3,0.7-0.1
				c0.9,0.5,1.7,0.3,2.7,0.1c0.5-0.1,0.8-0.7,0.7-1.2c-0.2-0.6,0.2-0.7-0.4-1.2c-0.4-0.3-1-0.2-1.5-0.3c0,0-0.1-0.1-0.3-0.2
				c-0.3-0.1-0.5-0.2-0.8-0.3c-0.5-0.2-0.8-0.3-1.2-0.7c-0.2-0.2-1.1-0.2-1-0.7c0.1-0.2,0.9-0.5,1.1-0.5c0.6,0,0.7-0.3,1.1-0.7
				c-0.3-0.3-0.7-0.7-1-1c-0.5-0.5,0.2-0.5,0.2-0.9c0-0.8,1.7-0.3,2.1-0.3c0.4,0,0.8,0.1,0.8-0.3c0-0.2-0.8-0.5-1-0.6
				c-0.7-0.3-1.8,0-2-0.9c0.3-0.1,1.3-0.2,0.7-0.5c-0.4-0.2-1,0-1.5-0.1c-0.3-0.1,0.1-0.3,0.1-0.5c0-0.2-0.2-0.3-0.2-0.5
				c0-0.8,0.8-0.5,1.2-0.4c0.3,0.1,0.6,0.1,0.9,0.2c0.2,0,0.3-0.2,0.4-0.2c1,0,2.1-0.2,2.9-0.5c0.4-0.2,0.9-0.3,1.5-0.3
				c0.6,0,0.8-0.3,1.3-0.4c0.5-0.1,0.5,0.1,0.9,0.1c0.2,0,0.4-0.2,0.7-0.2c0.5,0,0.8,0.4,0.8-0.3c0-0.7,1.8-0.8,2.5-0.8
				c1,0,2.1-0.4,3.1-0.6c0.2-0.1,0.7,0,0.8-0.1c0.2-0.3,0.2-0.3,0.6-0.3c0.6,0,0.8-0.3,0.3-0.7c0.3-0.3,0.7,0,1-0.3
				c0.3-0.3,0.7-0.5,1.1-0.4c0.8,0.2,1.7,0.1,2.5,0.5c0.3,0.1,0.5,0.3,0.8,0.3C124.3,13,101.7,0.2,76.2,0.2
				c-22.3,0-42.3,9.7-56,25.1c0,0,0,0.1,0,0.1c0,0.2-0.1,0.3-0.2,0.5c0,0.1-0.1,0.6,0,0.7C20,26.7,20.4,26.5,20.5,26.6z"/>
		</g>
		<g>
			<path class="st3" d="M136.4,32c-0.5-0.1-1,0-1.4-0.2c-0.5-0.1-0.9-0.2-1.3,0.2c-0.4,0.4-0.7,0.1-1.1,0.5c0.8,0.6-0.1,0.7-0.6,0.7
				c-0.2,0-0.1,0.3-0.3,0.3c-0.1,0-0.3,0-0.4,0c-0.2,0-0.5,0.1-0.8,0.2c-0.5,0.2-0.9,0.3-1.4,0.3c-0.6,0-1.1,0.2-1.7,0.2
				c-0.2,0-0.4,0.1-0.7,0.1c-0.2,0.1-0.5-0.1-0.8,0c-0.1,0-0.2,0.3-0.4,0.3c-0.2,0-0.1,0.4-0.1,0.6c0,0-0.8-0.1-1.1,0
				c-0.6,0.2-0.9-0.2-1.5,0.1c-0.5,0.3-0.8,0.3-1.4,0.3c-0.2,0-1.3,0.4-1.3,0.4c0,0.2-1.1,0.2-1.4,0.3c-0.3,0.1-0.5,0.2-0.9,0.2
				c-0.3,0-0.5,0.1-0.7,0.2c-0.5,0-1-0.1-1.4-0.2c-0.4-0.1-0.6-0.1-0.9,0.1c-0.3,0.3,0.1,0.4,0.1,0.6c0,0.5-0.4,0.7,0.3,0.9
				c0.2,0,1.2-0.1,1.2,0.1c0,0.4-0.5,0.3-0.9,0.4c0.3,0.9,1.4,0.5,2.1,0.9c0.3,0.1,1,0.3,1,0.7c0,0.3-0.6,0.2-0.8,0.2
				c-0.5-0.1-0.8-0.2-1.3-0.2c-0.2,0-0.4,0-0.6,0.2c-0.2,0.2,0,0.1-0.2,0.3c-0.3,0.4-0.5,0.5-0.1,1c0.3,0.3,0.6,0.6,0.9,0.9
				c-0.2,0.2-0.3,0.3-0.5,0.5c-0.3,0.2-0.4,0.1-0.7,0.2c-0.2,0.1-1,0.4-1,0.6c0,0.3,0.4,0.3,0.6,0.4c0.3,0.1,0.4,0.2,0.6,0.4
				c0.4,0.3,0.7,0.5,1.2,0.6c0.5,0.2,0.8,0.4,1.2,0.4c0.5,0.1,1,0.1,1.4,0.3c0.5,0.3,0.2,0.7,0.3,1.2c0.1,0.4-0.4,0.9-0.7,1
				c-1,0.3-1.8,0.4-2.7-0.1c-0.1-0.1-0.5-0.4-0.6-0.3c-0.1,0.1,0,0.6,0,0.7c-0.2,0.5-0.6,0.7-1,0.5c-0.1,0,0-0.3-0.2-0.3
				c-0.2-0.1-0.6-0.1-0.8-0.2c-0.3-0.1-0.8-0.2-1.2-0.2c-0.2,0-0.8-0.7-1.1-0.8c-0.4-0.3-0.8-0.4-1.2-0.5c0,0.4-0.8,0.1-1,0
				c-0.2,0.4,0,0.7-0.6,0.7c-0.5,0-0.8-0.5-1.2-0.5c-0.7,0-1.9,0-2.5,0.5c-0.3,0.3-0.2,0.7-0.8,1c-0.5,0.3-0.8,0.1-1.4-0.1
				c-0.8-0.3-1.5-1.2-2.4-1.2c-0.6,0,0,0.6,0.1,0.9c0.2,0.4,0.1,1.2-0.3,0.5c-0.4-0.9-1.3-1.7-2.2-2c-0.6-0.2-0.8-0.6-1.4-0.9
				c-0.5-0.3-0.9-0.3-1.4-0.3c-0.4,0-1,0.1-1.4,0c-0.4-0.1-0.7-0.8-1.2-0.9c-1-0.2-1.6,1.5-2.6,0.7C90,45.4,90,45,89.7,45
				c-0.3,0-0.5,0-0.9-0.1c-0.2-0.1-0.6,0.4-0.8,0.7c-0.4,0.6-0.5,0.7-1.1,1c-0.2,0.1-0.5,0.2-0.7,0.3c-0.2,0.1-0.6,0-0.8,0.1
				c-0.2,0.2-0.2,0.5-0.2,0.8c0,0.2-0.5,0.4-0.6,0.6c-0.4,0.3-0.5,0.4-1.1,0.4c0.3,0.5,0.3,0.9,0.7,1.4c0.1,0.2,0.3,0.4,0.4,0.6
				c0.2,0.4,0,0.2,0,0.5c0,0.2-0.6,0.3-0.8,0.4c-0.2,0.1-0.5-0.2-0.7-0.3c-0.4-0.2-0.7-0.7-1-1c-0.2-0.2-1-1.1-1.4-0.9
				c-0.5,0.3-0.6,0.3-0.6,0.9c0,0.2,0.1,0.6-0.1,0.6c-0.2,0.1-0.5,0.3-0.6,0.5c-0.2,0.4,0,1.2,0,1.6c0,0.6,0.8,0.5,0.9,1.1
				c0,0.4-0.7,0.8-0.7,1.3c0,0.7,0,1.1,0.7,1.5c0.4,0.2,1,0.3,1.2,0.8c0.2,0.5-0.1,0.9,0.6,1.2c0.5,0.2,0.8-0.1,1.3,0
				c0.4,0.1,1.3,0,1.6,0.4c0.3,0.5,0.7,0.7,1.2,1.1c0.8,0.6,1.3,1.8,2,2.5c-0.3,0.3-0.3,0-0.5,0c0,0-0.6-0.2-0.5-0.2
				c-0.4,0.1-0.4,0.4-0.2,0.7c0.3,0.4,1.7,0.6,2.2,0.9c0-0.2,0.1-0.2,0.2-0.3c0.1,0.1,0.1,0.1,0.2,0.2c0-0.3,0-0.2-0.2-0.3
				c0.4-0.3,1.1-0.1,1.6-0.4c0.4-0.2,1-1,1.4-1c0.6,0,0.7-0.4,1.3-0.7c0.7-0.3,1.2-0.1,1.9,0.1c0.2,0.1,0.4,0.4,0.6,0.4
				c0.2,0,0.7-0.1,0.8,0.1c0.5,0.5,0.8,0.1,1.2-0.3c0.2-0.2,1.5,0.2,1.7,0.4c0.3,0.2,0.9,0.9,0.4,1.2c0.7,0.6,0.5,1.9,0.3,2.7
				c0,0.2-0.4,1.1,0,1.2c0.5,0.1,0.8,0.1,1.1,0.5c-0.3,0.3-0.8,0.1-1.2,0c-0.2,0-0.9-0.4-1.1-0.3c-0.5,0.1-0.9,0.2-1.4,0.2
				c-0.5,0-0.9,0.2-1.4,0.2c-0.7,0-0.3,0.4-0.4,0.9c-0.1,0.3-0.7,0.4-0.5,0.9c0.1,0.3,0.8,0.6,1,0.7c0.3,0.2,0.7,0.2,0.9,0.5
				c-0.7,0-1.1,0.3-1.7-0.1c-0.4-0.2-1.7-0.5-2-0.1c-0.1,0.1,0,0.7,0.1,0.8c0.3,0.3,0.4,0.2,0.8,0.3c0.8,0.2,1.1,0.7,1.6,1.3
				c0.4,0.5,1,1,1.4,1.5c0.2,0.3,0.2,1.4,0.6,1.4c0.4,0,0.6,0,0.9,0.2c0.3,0.2,0.5,0.5,0.7,0.7c0.1,0.1,0.2,0.3,0.3,0.3
				c0.2,0.1,0.2-0.2,0.3-0.2c0.3,0,0.5,0,0.7,0.3c0.7-0.9,1.4,0.8,1.4,1.4c-0.1,0.9-0.3,1.5,0.2,2.4c0.9-1.2,1.6-1.5,3-1.8
				c1.2-0.3,1.8-0.1,3,0.5c1,0.5,1.6,1.4,2.4,2.2c0.3,0.3,0.8,0.9,1.2,1c0.4,0.2,0.9-0.2,1.4-0.2c-0.5-2.3-1.2-4.5-1.7-6.8
				c-0.5-2.3-1-4.7-1.9-6.8c0.9,0.1,2.1-0.7,3-0.9c1-0.3,2.1-0.5,3.1-0.8c0.5-0.2,1-0.3,1.5-0.1c0.4,0.2,1,0.5,1.4,0.7
				c0.8,0.5,1.7,0.9,2.6,1.3c0.9,0.5,1.8,0.8,2.7,1.4c0.5,0.3,0.9,0.5,1.5,0.7c0.3,0.1,0.6,0.7,0.8,0.9c0.7,0.7,1.6,1.1,2.3,1.8
				c0.3,0.3,0.7,0.8,1.1,0.7c0.5-0.2,1-0.1,1.5-0.3c1-0.3,2.1-0.1,3.1,0c0.5,0.1,1.1,0,1.6,0c0.2,0,0.6,0.2,0.7,0.1
				c0.1-0.1,0.4-0.3,0.6-0.4c0.6-0.3,0.8,0,1.2,0.4c0.4,0.4,0.9,0.4,1.3,0.8c0.4,0.4,0.7,0.7,1.1,1.1c0.2,0.2,0.4,0.4,0.6,0.6
				c0.1,0.1,0.4-0.3,0.6-0.3c0.5,0,0.7,2.4,0.9,2.9c0,0.2,0,0.7,0.2,0.7c0.3,0,0.6,0,0.9,0c0.2,0,0.6-0.1,0.6,0.1
				c0,0.4,0,0.5,0.2,0.8c0.3,0.4,0.6,1,0.8,1.5c0.2,0.5,0.4,0.9,0.9,0.9c0.5,0.1,1.1-0.2,1.6-0.2c0.5,0,1-0.1,1.5,0
				c0.3,0,0.6,0.3,0.8,0.6c0.3-2.8,0.5-5.6,0.5-8.5c0-15.9-5-30.7-13.4-42.9c0,0-0.1,0-0.1,0C137.4,32.3,136.9,32.1,136.4,32z"/>
			<path class="st3" d="M92.8,69.2C93,69,92.9,69,93,68.8C92.9,68.9,92.9,69,92.8,69.2z"/>
			<polygon class="st3" points="92.8,69.2 92.8,69.2 92.8,69.2 			"/>
			<path class="st3" d="M100.3,67.6c0-0.6-1-0.2,0,0.2C100.3,67.7,100.3,67.7,100.3,67.6z"/>
			<path class="st3" d="M93.5,69.7c-0.4,0.1-0.4-0.3-0.7-0.5C92.8,69.6,93.2,70.1,93.5,69.7z"/>
			<path class="st3" d="M93.7,68.8c-0.2,0.1-0.2,0.4,0,0.5C93.7,69.2,93.7,69,93.7,68.8z"/>
		</g>
		<g>
			<path class="st2" d="M106.2,141.6c-0.4-0.3-0.9-1.5-1.1-2.1c0.7,0.1,0.6-0.4,0.4-0.9c-0.1-0.3-0.2-0.4-0.5-0.6
				c-0.2-0.1,0-0.4-0.3-0.6c0.1-0.1,0.1-0.1,0.2-0.2c0.2,0.1,0.2,0.1,0.3,0.2c-0.3-0.4-0.4-0.6-0.8-0.8c-0.5-0.2-0.7-0.4-1.1-0.8
				c-0.3-0.3-1.8-1-1.3-1.5c-0.4-0.1-0.7-0.4-1.1-0.5c-0.1,0-0.4-0.2-0.4-0.4c-0.1-0.2,0.2-0.3,0.2-0.3c-0.2-0.7-0.9-1.4-1.3-2
				c-0.1-0.2,0-0.7-0.4-0.7c-0.4,0-0.8,0-1.2,0c-0.3,0-1,0.1-1.2-0.1c-0.3-0.3-0.4-0.7-0.6-1.1c-0.4-0.9-1-0.6-1.8-0.8
				c-0.4-0.1-0.8-0.2-1.2-0.3c-0.4-0.1-0.7,0.1-1.1,0.1c-1.6-0.2-3.3-0.2-5-0.5c-0.7-0.5-1.4-1.1-2.1-1.6c-1.8-1.3-3.8-2.5-5.4-4.1
				c-1.7-1.6-3.7-2.6-5.8-3.7c-0.5-0.3-0.9-0.6-1.5-0.9c-0.4-0.2-1-0.2-1.4-0.2c-0.6-0.1-1.2-0.2-1.8-0.3c-0.7-0.1-0.8-0.3-1.2,0.3
				c-0.1,0.2-1.3,0.4-1.6,0.5c-0.4,0.1-0.9,0.4-1.3,0.5c-1.1,0.2-2.1,0.7-3.2,1c1.2,1.2,2.3,2.5,3.6,3.7c-0.4,0.2-0.9,0.3-1,0.8
				c-0.2,0.5-0.2,1-0.7,1.2c-0.5,0.1-1,0.2-1.5,0.3c-0.6,0.1-0.6,0.5-0.9,1c-0.4,0.8-1.2,1.7-2.2,1.5c-1-0.2-1.9-0.3-2.9-0.5
				c-0.1,0.8-0.3,1.6-0.3,2.5c0,0.5,0,0.9-0.1,1.3c-0.1,0.3-0.3,0.7-0.2,1c0.2-0.1,0.4-0.2,0.6-0.2c1.1,0,1.9,0.8,2.3,1.8
				c0.3,0.7,0.6,0.9,1,1.5c0.4,0.5,0.5,0.9,1,1.3c0.2,0.2,0.1,0.5,0.3,0.7c0.1,0.1,0.3,0.3,0.4,0.5c0.3,0.6,0.6,1.2,1,1.8
				c0.1,0.2,0.5,0.2,0.6,0.4c0.1,0.3,0.2,0.6,0.3,0.9c0.1,0.2,0.4,0.3,0.5,0.4c0.2,0.2,0.3,0.5,0.4,0.7c0.3,0.4,0.8,1,0.8,1.4
				c0,0.3,0.2,0.3,0,0.7c-0.1,0.2,0,0.4,0.2,0.6c0.3,0.5,0.6,1,0.9,1.5c0.1,0.2,0.3,0.2,0.5,0.2c0.3,0,0.3,0.2,0.6,0.3
				c0.1,0.1,0.3-0.1,0.4,0.1c0.1,0.1,0.1,0.2,0.2,0.3c0.3,0.1,0.5,0.3,0.8,0.5c0.4,0.3,0.6,0.9,0.9,1.3c0.3,0.5,0.7,0.9,0.9,1.4
				c2.1,0.2,4.2,0.3,6.4,0.3c11.2,0,21.9-2.5,31.4-6.9c-0.4-0.4-0.4-0.6-0.6-1.1C106.8,142,106.6,141.9,106.2,141.6z"/>
			<path class="st2" d="M62.2,140.5c-0.2,0.1-0.2,0.4,0,0.5C62.2,140.9,62.2,140.7,62.2,140.5z"/>
			<path class="st2" d="M62.7,141.7c0.2,0.1,0.5,0.5,0.7,0.5c0-0.6-1.2-0.7-1.4-1.2C61.9,141.5,62.4,141.5,62.7,141.7z"/>
		</g>
		<path class="st2" d="M2.2,68.3c0,0.5-0.6,0.4-0.9,0.2c0,0-0.1,0.1-0.1,0.1c0,0.1,0,0.2,0,0.3c0.1,0.3,0.1,0.6-0.1,0.8c0,0,0,0,0,0
			c0.2-0.2,0.7-0.3,0.9-0.1c0.2,0.2,0,0.6-0.1,0.9c-0.2,0.4-0.3,0.4-0.3,0.8c0,0.4,0,0.4,0.3,0.6c0.3,0.2,1.5,0.7,1,1
			c-0.1,0.1-0.8-0.1-0.9,0c-0.1,0.2,0.3,0.5,0.5,0.6c0.2,0.2,0.6,0.6,0.4,0.9c-0.1,0.1-0.5-0.1-0.7,0c-0.6,0.4,0.6,0.9,0.9,1.2
			c0.4,0.4,1,0.5,1.5,0.7c0.5,0.2,1.2,1,1.5,0.6c-0.6-0.5,0.3-0.3,0.3-0.6c0-0.3-0.4-0.6,0.1-0.6c0.2,0,0.2-0.2,0.4-0.2
			c0,0,0,0.3,0,0.3c0.3,0.2,0.6,0.1,0.9,0.3c0.2,0.2,0.5,0.6,0.8,0.7c0.5,0.2,0.1,0.4,0.8,0.6c0.4,0.1,0.5,0,0.5,0.4
			c0,0.4-0.2,0.8-0.5,1c0.3,0.7,0.6,0,1,0c0.2,0,0.4,0.2,0.5,0.2c0.2,0,0.5-0.3,0.7-0.3c0.1,0.6,0.7-0.2,0.9-0.3
			c-0.4-0.3-0.3-0.5-0.3-0.9c0-0.3-0.2-0.1,0-0.4c0.2-0.2,0.3-0.2,0.6-0.2c0.2,0,0.5-0.7,0.6-0.9c0.2-0.5,0-0.4-0.4-0.8
			c-0.3-0.3-0.6-0.4-0.9-0.8c-0.2-0.3-0.5-0.6-0.5-0.9c0-0.5-0.1-0.8,0.4-1.1c0.2-0.1-0.1-0.6,0.4-0.6c-0.2-0.2-1.6-1.2-0.4-1.2
			c0.6,0-0.1-0.4-0.3-0.5c-0.4-0.2-0.6,0-0.8,0.3c-0.3,0.5-0.4-0.1-0.7-0.2c-0.3-0.2-0.7-0.1-1-0.3c-0.1-0.1-0.9-0.3-0.9-0.4
			c-0.1-0.2,0.4-0.2,0.5-0.3c-0.2-0.2-0.5-0.2-0.7-0.3c0.4,0,0.4-0.5,0.2-0.7c-0.2-0.2-0.8-0.2-1-0.3c-0.3-0.1-0.7-0.7-0.9-0.7
			c-0.2,0-0.1-0.6-0.1-0.8c0-0.4-0.4-0.1-0.6-0.5c-0.2-0.3-0.5-0.3-0.8-0.6c-0.4-0.4-0.3-0.4-0.8-0.5C3.8,65,3.5,64.8,3.3,65
			c-0.1,0.1-0.3,0-0.4-0.1c-0.1,0-0.6-0.1-0.7,0C2.1,65,2,65.3,1.9,65.4c-0.1,0.1-0.2,0.1-0.3,0.1c-0.1,0.8-0.2,1.6-0.3,2.5
			C1.6,68.1,2.2,68.2,2.2,68.3z"/>
		<path class="st3" d="M4,56.7c0.2-0.5,0.9-0.7,1.4-0.5c0.5,0.3,0.9-0.1,1.4,0c0.5,0,0.6,0.7,0.9,0.7c0.3,0,0.2,0.2,0.6,0
			c0.2-0.1,0.4-0.2,0.7-0.2c-0.2-0.7,0.2-0.7,0.4-1.3c0.1-0.2,0.5-1.1,0.4-1.1c-0.3,0-1.2-0.3-1.4-0.5c-0.3-0.2-0.1-0.3-0.4-0.5
			c-0.2-0.1-0.5-0.2-0.7-0.2c-0.6,0-1-0.3-1.5,0c-0.2,0.1-0.3,0.1-0.5,0.3c-0.2,0.2-0.3-0.1-0.5-0.1c-0.1,0-0.3,0-0.4-0.1
			c-0.4,1.4-0.8,2.8-1.2,4.3C3.5,57.3,3.8,57.2,4,56.7z"/>
		<path class="st3" d="M75.5,98.5c0,0.5-0.5,0.7-0.7,1.1c-0.3,0.5-0.7,0.8-1.2,1c-0.7,0.2-0.9,0.3-0.9,1c-0.1,0.6,0.2,0.9,0.4,1.4
			c0.1,0.2,0.3,0.5,0.3,0.7c0,0.3-0.2,0.4-0.2,0.7c0,0.7-0.1,1.1,0,1.7c0.2,0.9,0.1,2.1-0.8,2.6c-2.1,1-4,2.5-6,3.7
			c-1,0.7-1.9,1.3-2.9,2c-0.4,0.3-0.8,0.6-1.2,0.9c-0.4,0.3-1.1,0.9-1.5,1c-0.5,0.1-1.2-0.2-1.6-0.5c-0.3-0.2-0.5-0.3-0.9-0.4
			c-0.2-0.1-0.3-0.5-0.5-0.6c-0.2-0.2-0.4,0.1-0.4-0.3c0-0.3,0.5-0.5,0.3-0.8c-0.3-0.3,0-0.9-0.4-1.3c0.1-0.1,0.3-0.6,0.3-0.8
			c0-0.2,0.2,0,0.2-0.2c0-0.1-0.2-0.3-0.3-0.4c0.1-0.3,0.5-0.6,0.9-0.7c0,0,0.5,0.4,0.5,0.1c0-0.2-0.6-0.2-0.3-0.5
			c0.2-0.2,0.9-0.6,0.7-1c-0.2-0.6-0.3-1-1-1c0.1-0.2,0.2-0.4,0.3-0.5c-0.3-0.4-0.7,0-1.1,0c-0.4,0-0.8-0.9-0.8-1.3
			c0-0.4,0.1-1.1,0-1.4c-0.1-0.2-0.4-0.5-0.5-0.7c-0.2-0.3-0.1-0.5,0-0.9c0.2-0.9,0.4-0.1,0.9-0.2c0.4,0,0-0.3,0.2-0.5
			c0.2-0.2,0.5,0,0.5-0.4c0-0.8,0.6-0.4,0.7-0.8c0-0.2-0.3-0.5-0.3-0.7c-0.1-0.2-0.1-0.7,0-0.9c0.1-0.3-0.1-0.3,0.3-0.3
			c0.2,0,0.6-0.1,0.8,0c0.2,0.1,0.2,0.4,0.5,0.5c0.2,0.1,0.7,0,0.9,0c0.5-0.1,0.9-0.3,1.4-0.5c0.3-0.1,0.4,0,0.7-0.3
			c0.4-0.3,0.4-0.2,0.9-0.1c0.4,0.1,0.8,0.3,1.2,0.5c0.5,0.2,1,0.2,1.6,0.2c1.2,0,2.2-0.4,3.3-1c0.5-0.3,0.9-0.6,1.5-0.6
			c0.3,0,0.7,0,0.9,0c0.3,0,0.5,0.2,0.8,0.1c0.6-0.2,1.3-0.2,1.9-0.4c0.3-0.1,0.3-0.4,0.6-0.4C75.3,97.7,75.4,98.2,75.5,98.5"/>
		<path class="st3" d="M107.3,92.2c0,0.1,0,0.1,0,0.2c-0.1-0.3-0.6-1.3-0.2-1.4C106.8,91.3,107.2,91.8,107.3,92.2 M120.9,77.9
			c0.3,0.1,0.6,0.2,0.9,0.3c0.2,0.1,0.7,0.1,0.8,0.3c0.7,0.7,1,0.8,1.9,0.8c0.7,0,0.9,0.4,0.9,0.9c0,0.4,0.3,0.2,0.6,0.5
			c0.2,0.2,0.4,0.5-0.1,0.4c0.1,0.2,0.3,0.4,0.3,0.6c0,0.2-0.1,0.5,0,0.6c0.1,0.3,1,0.6,1.3,0.8c0.4,0.2,1.1-0.2,1.3-0.1
			c0.3,0.1,0.5,0.1,0.8,0.1c0.2,0,0.3,0.3,0.7,0.2c0.2-0.1,0-0.4,0.4-0.3c0.3,0.1,0.6,0.2,0.9,0.3c0.5,0.2,0.9,0.6,1.1,1
			c0.3,0.6,0.4,0.9,0.8,1.3c0.4,0.4,0.7,0.6,0.9,1.1c0.9,2.1,3.6,2.4,5.2,3.9c0.3,0.3,1,0.5,1.4,0.7c0.2,0.1,0.4-0.1,0.6,0.1
			c0.3,0.2,0.6,0.4,0.8,0.6c0.7,0.7,2.1,1.1,2.9,1.6c0.4,0.2,0.7,0.4,1.1,0.4c0.3,0,0.3-0.2,0.6-0.1c0.3,0.1,0.6,0.2,0.8,0.4
			c0.5,0.2,0.8,0.4,1.4,0.5c0.4,0.1,0,0.7,0.1,1.1c0.1,0.2,0.5,1.5,0.2,1.5c-0.5,0-1.2-0.4-1.6-0.5c-0.5-0.2-0.8-0.5-1,0
			c-0.1,0.2-0.1,0.6-0.1,0.8c-0.1,0.2-0.6,0.1-0.8,0.1c-0.5,0-1.2,0.1-1.4,0.6c-0.2,0.4,0,1.2,0,1.7c0,0.6,0,0.9-0.5,1.4
			c-0.1,0.1-1,0.9-1,0.9c-0.5,0-1,0.2-1.4,0.3c-0.3,0.1-0.5,0.2-0.8,0.2c-0.5,0-0.3,0.1-0.3,0.4c0,0.1,0.2,0.1,0.2,0.3
			c0,0.1-0.2,0.1-0.2,0.3c0,0.2,0.1,0.5-0.1,0.7c-0.2,0.2-0.9,0.8-1.2,0.8c-0.1,0-0.2-0.1-0.3-0.1c-0.2-0.1-0.1,0.1-0.3,0.1
			c-0.3,0-0.2,0.4-0.5-0.1c-0.1-0.2-0.9-0.7-1.1-0.8c-0.1,0-0.5,0.2-0.7,0.2c-0.3,0-0.4,0-0.7-0.2c-0.1-0.1-1-0.9-1-0.8
			c0-0.3,0-0.4-0.1-0.7c-0.1-0.1-0.4-0.4-0.4-0.4c-0.1-0.4-0.1-0.9-0.2-1.3c-0.1-0.3-0.3-1.3-0.6-1.3c-0.6,0-1.3,0-1.9,0
			c-0.5,0-0.8-0.5-1.1-0.8c-0.5-0.5-0.8-0.7-1.4-1c-0.5-0.2-0.9-0.3-1.3-0.7c-0.2-0.2-0.1-0.5-0.3-0.6c-0.1-0.1-0.6-0.2-0.8-0.3
			c-0.3-0.1-0.5-0.3-0.8-0.3c-0.3-0.1-0.5,0.1-0.7,0c-0.3-0.2-1,0.3-1.3,0c-0.4-0.4-0.7-0.7-1.2-0.8c-0.4-0.1-1.3-0.1-1.6-0.3
			c-0.2-0.1-0.2,0-0.2-0.3c0-0.2-0.1-0.5-0.3-0.6c-0.4-0.2-1,0.1-1.4-0.1c-0.3-0.1-0.9,0-1.2,0c-0.4,0-0.1,0.4-0.3,0.5
			c-0.2,0.2,0,0.1-0.3,0.2c-0.5,0.1-1-0.2-1.4-0.2c-0.6,0-1,0.2-1.4,0.5c-0.4,0.3-0.8,0.4-0.9,0.9c-0.1,0.5-0.1,1-0.7,1.1
			c-0.3,0.1-1,0.3-1.3,0.3c-0.2,0-0.8,0.1-0.8-0.1c0-0.3-0.1-0.5-0.2-0.8c-0.4-0.9-0.6-2-0.6-3c0-0.8-0.3-2.1-0.9-2.6
			c-0.4-0.4-1.4-1.6-2-0.7c-0.3-0.4-0.1-0.9,0-1.4c0.3,0.4,0.7,0.3,1.2,0.3c-0.1-0.4-0.5-0.4-0.6-0.8c-0.1-0.2,0.1-0.8-0.3-0.8
			c-0.4,0-0.7-0.2-1-0.2c-0.6,0-0.1,0.6,0.1,0.9c-0.3-0.4-0.6-0.4-0.9-0.9c-0.2-0.4-0.5-0.7-0.6-1.1c-0.2-0.9,0.1-1.9,0.1-2.8
			c0.1,0.4,0.6,0.7,0.8,0.9c0.5,0.3,0.8-0.2,1.4,0c0.6,0.2,0.5,0.9,1.2,0.5c0.6-0.3,0.7,0.1,1.2,0c-0.1-0.2-0.2-0.5-0.3-0.7
			c0.4,0,1,0.3,1.2-0.2c0,0-0.2-0.7-0.2-0.7c-0.2-0.2-0.4-0.3-0.6-0.4c-0.5-0.3-1.2-0.6-1.6-1.1c-0.4-0.4-0.4-1-0.8-1.5
			c-0.3-0.4-0.7-1.2-1.3-0.8c-0.3,0.1-0.5,0.1-0.8,0.1c-0.5,0-0.3,0-0.6,0.3c-0.3,0.3-0.4,0.4-0.5,0.8c-0.1,0.4,0.3,0.3,0.3,0.7
			c0,0.3-0.1,0.7,0,0.9c0.1,0.3,0.5,0.4,0.2,0.7c0-0.5-0.6-0.9-0.9-1.2c-0.2-0.2-0.3-0.4-0.4-0.7c-0.3-0.4-0.1-0.4,0.2-0.8
			c0.7-0.9,1.8-1.1,2.9-1.4c2.3-0.6,3.7,1.3,5.1,2.7c0.4,0.4,0.8,0.6,1.1,0.9c0.3,0.3,1-0.1,1.4-0.1c0.5,0,1.1,0,1.6,0
			c0.4,0,1.1,0.3,1.5,0.2c0.7-0.2,0.1-0.4-0.1-0.8c-0.2-0.5-0.6-1.2-0.2-1.6c0.5-0.5,0.2-0.8,1-0.8c0.6,0,1.1,0,1.1-0.8
			c0-1,1.1-0.2,1.4,0.2c0.3,0.3,0.1-0.3-0.1-0.5c-0.3-0.2-0.7-0.7-1-0.6c0.3-0.5,0.3-0.1,0.7-0.2c0.3-0.1,0.6,0,0.5-0.5
			C120.6,77.5,120.8,77.7,120.9,77.9"/>
		<path class="st2" d="M23.9,87.2c-0.3,0-0.6,0-0.9,0c0.1-0.5,0.4-0.2,0.7-0.5C23.8,86.9,23.9,87,23.9,87.2 M50.6,80.4
			c-0.1,0.5,0.5,0.8,0.9,0.9c0.2,0.1,0.6,0.3,0.7,0.3c0.3-0.1,0.7-0.3,1-0.3c0,0,0.6,0.3,0.5,0.2c0.2,0.3,0.3,0.6,0.5,0.9
			c0.3,0.6,0.8,0.5,1.2,0.4c0.5-0.2,0.8-0.2,1.4,0.2c0.3,0.2,0,0.3,0.5,0.4c0.3,0,0.6,0.1,0.9,0.1c0.6,0.1,0.9,0.3,1.5,0.5
			c0.5,0.2,1.3,0.4,1.8,0.3c1-0.3,2.3-0.7,3.3-0.4c0.3,0.1,0.5,0.1,0.8,0.2c0.3,0.2,0.3-0.1,0.7,0c0.6,0.2,1.1-0.1,1.7-0.4
			c0.4-0.2,0.7-0.5,1.1-0.7c0.3-0.1,0.6-0.3,0.9-0.4c0.3-0.1,0.2-0.4,0.5-0.4c0.1,0,0.5,0.2,0.7,0.2c0.3,0,0.3-0.2,0.6-0.2
			c0.4,0,1.1,0.3,1.4,0.2c0.3-0.1,0-0.3,0.3-0.5c0.3-0.2,0.5,0.1,0.6,0.3c0.3,0.4,1.3,0.5,1.3,1c0,0.5,1,0.1,1,0.5
			c0,0.6,1,0.6,1,1.2c0,0.2,0,0.5,0,0.8c0,0.2-0.2,0.3-0.2,0.4s0.2,0.2,0.2,0.3c0,0.7,0.5,1.1,1.1,1.3c0.6,0.2,1,0,1.6,0.3
			c0.5,0.2,1.1,1,1.4,1.1c-0.5,0.1-0.5-0.4-0.9-0.2c-0.2,0.1-0.1,0.8-0.3,1.1c-0.2,0.3-0.5,0.2-0.9,0.2c-0.3,0,0.2,0.7,0.3,0.8
			c0.1,0.1,0.3,0,0.3,0.2c0,0.1,0,0.3,0,0.4c0.1,0.2-0.1,0.3,0.1,0.4c0.2,0.1,0.4,0.2,0.4,0.4c0,0.9,0.1,1.5,0.9,1.8
			c-0.1,0.2-0.2,0.4-0.2,0.6c0,0.2-0.3,0.3-0.3,0.5c0,0.1-0.1,0.5,0,0.6c0,0,0.6,0.1,0.7,0.2c0.3,0.2,0.3,0.3,0.5,0.5
			c0,0.1,0.2,0.6,0.2,0.6c0,0.3,0,0.3,0.2,0.4c0.2,0.2,0.5,0.3,0.7,0.5c-0.2,0.1-0.2,0.3,0,0.5c-0.5-0.2-0.4-0.2-0.8,0.2
			c-0.3,0.2-0.6,0.7-0.9,0.3c-0.2-0.2,0-1-0.4-1c-0.2,0-0.2-0.2-0.4-0.2c-0.3,0.1-0.2,0.3-0.6,0.3c-0.4,0-0.7,0-1.1-0.2
			c-0.2-0.1-1-0.4-1.1-0.3c-0.2,0.1-1.1,0-1.1,0.1c-0.2,0.5-0.5,0.7-1,0.9c-0.1-0.4-0.5-1.1-0.8-0.4c-0.2,0.4-1.3,0.3-1.7,0.4
			c-0.2,0.1-0.4,0.2-0.7,0.2c-0.2,0-0.4-0.2-0.7-0.2c-0.6,0-1.1-0.1-1.6,0.2c-1.8,0.9-4.2,2.2-6.1,0.9c-0.2-0.1-1.1-0.5-1.2-0.4
			c-0.5,0.4-1,0.5-1.6,0.7c-0.5,0.2-0.8,0.3-1.4,0.3c-0.2,0-0.5,0-0.6-0.3c-0.2-0.3-0.4-0.3-0.7-0.3c-0.3,0-0.4-0.1-0.4,0.3
			c0,0.2,0,0.5,0,0.8c0.1,0.4,0.6,1,0.1,1c-0.3,0-0.4,0.1-0.4,0.4c0,0.6-0.1,0.2-0.3,0.6c-0.1,0.1-0.2-0.1-0.2,0.1c0,0,0,0.4,0,0.4
			c-0.2,0.1-0.6-0.2-0.7-0.3c-0.1,0-0.1,0-0.2,0c0.4-0.4-0.2-1-0.4-1.4c-0.2-0.4,0.5-0.9,0.8-1.2c0.3-0.3,0-1.1-0.4-1.2
			c-0.1,0-1.2,0.7-1.2,0.8c0,1-2.3-0.1-2.8-0.3c-0.8-0.4-1.7,1.6-2.3,1.9c-0.5,0.3-0.9,0.4-1.5,0.5c-0.4,0.1-1.3,0-1.6,0.2
			c-1.1,0.6-1.9-0.8-2.5-1.5c-0.4-0.4-0.8-0.3-1.3-0.5c-0.4-0.2-1.2-0.8-1.6-0.8c-0.6,0-1.1,0-1.7-0.1c-0.5-0.1-0.3,1-0.3,1.3
			c0,0.2-0.2,0.3-0.2,0.6c0,0.2,0,0.5-0.3,0.4c-0.1,0-0.4-0.3-0.5-0.3c-0.2,0.1-0.4,0.3-0.6,0.3c-0.5,0.1-0.9,0.4-1.3,0.1
			c-0.4-0.2-1.1-0.4-1.3-0.8c-0.1-0.3-0.3-1-0.6-1.1c-0.3-0.2-0.1,0-0.4,0c-0.2,0-0.5,0.1-0.6,0c-0.3-0.3-0.9-0.8-1.3-0.3
			c-0.3,0.4-1.1,0.6-0.6,0.2c-0.6,0-1.5,0.4-2,0c0.3-0.3,1-0.2,1.4-0.3c0.4-0.1,0.6-0.4,1-0.7c-0.8,0-1.6,0-2.4,0
			c-0.3,0-0.7,0.4-0.7-0.1c0-0.5,0.4-0.3,0.9-0.4c-0.1-0.2-0.2-0.4-0.3-0.5c-0.2-0.2-0.4-0.1-0.5-0.2c-0.3-0.3-0.2-0.9-0.6-1.1
			c-0.6-0.3,0.3-0.3,0.3-0.7c0-0.6-0.3-0.6-0.7-0.8c-0.4-0.2-0.6-0.4-0.9-0.6c-0.5-0.2-0.6,0.1-1-0.1c-0.1,0-0.4-0.3-0.4-0.4
			c0-0.2,0.3-0.3,0.3-0.3c0.1-0.4-0.4-0.7,0-1c0.3,0.4,0.5,0.2,0.5,0.8c0,0.4,0.4,0.7,0.3,0.1c0.3,0.4,1.1,0.1,1.4-0.2
			c-0.3,0.1-0.7,0.3-0.9-0.1c-0.1-0.2-0.5-0.7-0.4-0.8c0.2-0.2,0.8-0.4,0.6-0.8c0,0-0.9-0.1-0.6-0.4c0.3-0.3-0.2-0.5-0.4-0.7
			c-0.3-0.3,0.2-0.5,0.3-0.7c0.5-0.9-0.9-0.4-1.5-0.2c-1,0.3-0.8-0.6-0.8-1.3c0-0.2,0-0.3,0-0.5c0-0.2,0.3-0.2,0.4-0.3
			c0.3-0.4,0.6-0.7,0.9-1c0.3-0.3,0.6-0.3,1.1-0.3c0.1,0,0.9-0.4,0.9-0.1c0,0.1,0.5,0.4,0.7,0.4c0.3-0.1,0.8-0.1,1-0.3
			c-0.2-0.1-0.3-0.2-0.5-0.3c0.2,0,0.4-0.2,0.6-0.1c0.4,0.2,0,0.4,0.1,0.5c0.4,0.3,0.9,0,1.4,0c0.5,0,1.1,0,1.6,0
			c0.3,0,0.5-0.1,0.2-0.3c-0.2-0.2-0.5,0.1-0.7-0.2c0.8-0.6,2-0.7,3-0.7c0.2,0-0.2-0.2-0.2-0.2c-0.3,0-0.7-0.1-1-0.1
			c-0.2,0-1.2-0.5-1.2-0.7c0,0.1,0.2-0.7,0.2-0.7c0.2-0.2,0.4-0.2,0.7-0.2c0.6,0,1.3,0.2,1.8,0.3c0.4,0.1,0.9-0.2,1.4-0.1
			c0.6,0.1,1.2,0.3,1.9,0.3c0.7,0,0.9-0.1,1.2-0.8c0.1-0.4,1.2-0.7,1.6-0.9c0.4-0.2,0.6-0.6,1-0.8c0.6-0.3,1.1-0.2,1.7-0.4
			c0.4-0.1,0.8-0.5,1.3-0.5c0.8,0.1,1.5,0.1,2.3,0.2c0.5,0,1.1,0,1.6,0c0.6,0,0.8-0.4,1.5-0.2C50.5,80.2,50.7,80.3,50.6,80.4
			 M27.3,80.2c0.2,0.1,0.4,0.3,0.5,0.3c0.2,0,0.2-0.2,0.4-0.2c0.5,0,0.6-0.2,1.1,0c-0.5,0.5,0.6,1.5,1,1.8c0.7,0.5,1.6,0.6,2.3,0.9
			c0.2,0.1,0,0.8-0.1,0.9c-0.2,0.2-1-0.1-1.2-0.1c-0.4-0.1-0.8-0.3-1.2-0.2C29.7,83.7,29.5,84,29,84c-0.4,0-0.9-0.2-1,0.3
			c-0.1,0.2-0.2,0.9-0.5,1c-0.9,0.3-1.5,0.6-2.1,1.3c-0.3,0.2-0.4,0.6-0.6,0.8c-0.4,0.4-0.1-0.4-0.1-0.5c0-1,1.2-0.7,1.4-1.4
			c-0.5,0-1.1,0-1.6,0c-0.9,0-0.4-0.3-0.2-0.8c0.1-0.2,0.4-0.4,0.5-0.6c0-0.2-0.2-0.4-0.2-0.6c0-0.6,0.7-0.6,0.7-1
			c0-0.7-0.4-0.8-0.9-1.1c-0.3-0.2,0.6-0.5,0.6-0.8c0-0.1,1-0.2,1.2-0.3C26.4,80.1,27.1,79.5,27.3,80.2"/>
		<path class="st3" d="M38.8,64.7c0.2,0.1,0.3,0.1,0.5,0.2c-0.7,0-1.8,0-2-0.7c0.2,0.1,0.4,0.3,0.6,0.3
			C38.2,64.6,38.5,64.7,38.8,64.7 M39,42.6c0.3,0,0.6,0,0.9,0c0.4,0,0.6,0.4,0.9,0.6c0.4,0.4,0.8,1.4,1.4,1.4
			c-0.2,0.3-0.6,0.1-0.9,0.3c0.3,0.3,0.5,1.2,0.9,1.2c-0.5,0.4,0.6,0.4,1,0.5c0.4,0.1,0.9,0,1.3,0c0.1,0,0.1,0.4,0.3,0.5
			c0.1,0.1,0.5-0.1,0.5,0.1c0,0.4,0.4,1,0.7,1.3c-0.4,0.3,0.2,0.7,0.4,0.9c0.5,0.5,0.7-0.1,1.2-0.1c0.4,0,0.6,0.4,0.9,0.5
			c0.4,0.2,0.7-0.1,1,0.3c0.4-0.5,1.2-0.5,1.7-0.7c0.5-0.1,0.4-0.3,0.8,0.1c0.3,0.3,0.4,0.6,0.7,0.9c0.2,0.2,0.6,0.4,0.9,0.6
			c0.1,0.1,0.3,0.2,0.4,0.2c0.2,0,0-0.3,0.1-0.3c0.4-0.2,0.4-0.2,0.8,0.1c0.3,0.2,0.6-0.1,0.9,0.2c0.3,0.3,0.6,0.3,0.9,0.3
			c0.2,0,0.2,0,0.3-0.1c0.3-0.2,0.2,0.2,0.3,0.3c0.2,0.1,0.6,0.1,0.7,0.2c0.3,0.2,0.7,0.5,1.1,0.5c0.2,0,0.6-0.1,0.8,0
			c0.3,0.2-0.1,0.2,0,0.3c0.1,0.2,0.3,0.3,0.3,0.5c0.2,0.7-0.4,1.2-1,1.2c0.3,0.3,0.8,0.7,1.2,0.7c-0.2,0.3-0.5,0-0.7,0.2
			c-0.3,0.2-0.1,0.5-0.3,0.7c0.1,0,0.6,0.1,0.7,0.2c0.2,0.2,0.1,0.5,0.3,0.7c-0.1,0.1-0.1,0.1-0.2,0.2c0.5,0.2,0.2,0.8,0.2,1.4
			c0,0.5-1.5,0.3-1.8,0.3c-0.2,0-0.8-0.1-0.9,0c-0.1,0.1-0.1,0.4-0.2,0.5c-0.1,0.1-0.3,0.2-0.4,0.2c-0.2,0.1-0.8,0.1-0.8,0.4
			c0,0.3,0.1,0.6-0.2,0.8c0.7,0.3-0.1,0.5,0.3,0.9c-0.3,0.4-0.8,0-1.2,0c-0.5,0-0.9,0.2-1.2,0.5c-0.3,0.3-0.8,0.1-1.1,0.4
			c-0.5,0.5-0.5,0.3-1.2,0.3c-0.4,0-0.6,0.5-0.9,0.5c-0.4,0-0.8-0.3-1.3,0.1c-0.4,0.4-1.4,1.9-2,1.8c0.5-0.3,1-0.6,0.5-1.2
			c-0.1,0.2-0.2,0.3-0.3,0.5c-0.2,0.3-0.2,0-0.4,0.2c-0.5,0.4-0.2,0.4-0.2,0.9c0,0.7,1.1,1.6,1.5,2.1c0.3,0.4,0.4,0.2,0.8,0.4
			c0.4,0.2,0.6-0.1,0.9-0.2c0.2,0,0.4,0,0.5,0c0.2-0.1,0.3-0.3,0.5-0.3c0.4-0.1,0.8,0.2,1.2,0.3C52.7,68,52.5,69,52.4,69
			c-0.6,0.2-1.1,0.1-1.6,0c-0.4-0.1-0.9-0.4-1.1,0.1c-0.1,0.4-0.3,0.3-0.7,0.4c-0.3,0.1-0.1,0.4-0.7,0.4c-0.4,0-1,0-1.3,0.4
			c-0.3,0.4-0.7,1.1-1.2,1.1c-0.6,0-0.9-0.2-1.4-0.4c-0.3-0.2,0-1,0-1.4c0-0.4-0.2-1-0.7-1.1c-0.1,0-0.3,0.1-0.4,0.1
			c-0.2,0.1-0.1-0.1-0.2-0.1c-0.3-0.1-0.6-0.4-0.9-0.5c-0.2-0.1-1.3-0.1-1.2-0.2c0.5-0.6,0.8-0.9,1.5-1.3c0.2-0.1,0.4,0.1,0.6-0.1
			c0.2-0.1,0.4-0.3,0.6-0.4c0.3-0.2,0.4-0.2,0.2-0.6c-0.2-0.3-0.4-0.1-0.7-0.2c-0.2,0-0.5-0.3-0.7-0.3c-0.2,0-0.5,0.2-0.8,0.2
			c-0.6,0-1.1,0.2-1.7,0c-0.5-0.2-0.9-0.5-1.4-0.5c-0.9,0,0.1-0.4,0.3-0.5c-0.2-0.3-0.5-0.2-0.8-0.2c-0.3,0-0.4-0.2-0.8-0.3
			c0.6,0,1.1,0.1,1.7,0.2c0.7,0.1,0.9,0,1.4-0.5c-0.7,0.4-1.4,0.4-1.9-0.3c-0.3-0.5-0.3-1.4-1-1.7c0.5,0.4,0.7,0.9,0.8,1.5
			c0.2,0.8-0.7,0.6-1.1,0.4c0.1-0.1,0.1-0.3,0.2-0.3c-0.1,0.1-0.6,0.7-0.8,0.7c-0.5-0.2-0.8,0-1.3,0.1c-0.4,0.1,0,0.6-0.2,0.8
			c-0.2,0.2-0.4,0.7-0.6,0.9c-0.6,0.7-1,1.2-2,1.2c-0.6,0-0.3,0.5-0.1,0.8c0.2,0.3,0.6,0.8,0.2,1.1c-0.5-1.4-1.8-0.1-2.7-0.2
			c0.1,0.1,0.1,0.1,0.2,0.2c-0.6,0-1.5-0.2-1.9-0.7c0.3-0.4,0.7-0.3,0.9-0.5c0.1-0.2-0.2-0.3,0-0.6c0.1-0.2,0.4-0.2,0.6-0.4
			c0-0.1,0.1-0.4,0.2-0.5c0-0.1,0.3-0.1,0.3-0.2c0.1-0.1,0-0.3,0-0.3c0.1-0.3,0.1-0.2-0.1-0.6c-0.1-0.1-0.2-0.4-0.1-0.5
			c0.2-0.2,0.8-0.7,0.8-0.2c0,0.8,0.1,0.1,0.6,0.1c0.2,0,0.3,0.2,0.5,0.2c0.2,0,0.3-0.2,0.5-0.2c0.1,0,0.3,0.3,0.4,0.3
			c0.2,0.1,0.5,0,0.7-0.2c-0.2-0.1-0.6-0.3-0.7-0.5c-0.1-0.2,0.1-0.6-0.1-0.8c-0.3-0.3-1.1-0.4-1.1-0.9c0-0.2-0.3-0.3-0.3-0.5
			c0-0.3,0.3-0.3,0-0.6c-0.1-0.1-0.5-0.2-0.7-0.3c-0.3-0.2-0.5-0.3-0.7-0.5c0.5-0.4-0.2-1.9-0.4-1.6c-0.5,0.5-1-1.3-1.8-0.4
			c-0.1-0.2-0.2-0.1-0.2-0.3c-0.1,0.1-0.1,0.1-0.2,0.2c0.1-0.5-0.3-0.2-0.6-0.4c-0.4-0.2-0.6-0.4-1-0.6c-0.9-0.4-1.4,0.1-2.3,0.1
			c-0.5,0-0.6,0.1-1,0.3c-0.1,0-0.2,0.2-0.2,0.2c-0.1,0-0.7-0.1-0.8,0c0.1,0-0.2,0.5-0.2,0.5c-0.2,0.3-0.1,0.3-0.4,0.4
			c-0.5,0.1-1,0.1-1.6,0.3c-0.4,0.1-0.8,0.3-1.2,0.5c-0.5,0.3-0.6,0.2-1-0.2c-0.4-0.4-0.5-0.4-1-0.4c-0.2,0-0.3,0.2-0.5,0.2
			c-0.2,0-0.4-0.1-0.6-0.2c-0.4-0.1-0.7-0.2-1.1-0.2c-0.2,0-0.5,0-0.7,0c-0.2,0-0.4-0.3-0.6-0.3c-0.4,0-0.5,0.5-0.9,0.5
			c0,0-0.4-0.6-0.4-0.7c-0.3,0.5-0.5-0.2-0.7-0.3c-0.1-0.1-0.7,0-0.7-0.3c0-0.3-0.2-0.4-0.4-0.4c-0.6,0,0-0.8,0.1-0.9
			c0.2-0.2,0.2-0.5,0.3-0.8c0-0.1,0.3-0.7,0.3-0.7c0.2-0.1,0.7,0.4,0.9,0.2c0.1-0.1-0.5-0.5-0.5-0.7c0,0,0.2-0.2,0.2-0.3
			c0,0-0.2-0.4-0.3-0.4c-0.1-0.3-0.1-0.5,0-0.8c0.4-0.6,0.8-1.2,1.4-1.6c0.3-0.2,0.4-0.5,0.7-0.7c0.1-0.1,0.2-0.3,0.3-0.3
			c0.2-0.1,0.5,0.1,0.7,0c0.4-0.2,0.6-1.3-0.2-1.4c0.7-0.3,0-0.5-0.2-0.9c-0.2-0.6-0.5-0.8-1-1.1c0.1-0.1,0.1-0.1,0.2-0.2
			c-0.2-0.1-0.3-0.4-0.3-0.6c0-0.3,0.1-0.3,0.4-0.3c0.2,0,0.5,0.2,0.6,0.2c0.1,0,0.5-0.5,0.7-0.6c0.2-0.1,0.2-0.5,0.3-0.5
			c0.2,0,0.4-0.2,0.7-0.2c0.2,0,0.5,0,0.7,0c0.3,0,0.5-0.2,0.7-0.2c1.1,0,2.2,0.2,3.3,0.3c0.5,0.1,0.9,0.2,1.3,0.3
			c0.4,0.1,1.1-0.1,1.4,0.2c0.1,0.1,0.4,0.5,0.5,0.5c0.2,0,0.4-0.2,0.7-0.2c0.2,0,0.5,0.5,0.3,0.5c0.3,0,0.3-0.3,0.4-0.3
			c0.5,0,0.8-0.2,1.2,0c0.2,0.1,0.5,0,0.7,0c0.3,0,0.4,0.5,0.6,0.5c0.4,0,0-0.3,0.3-0.3c0.1,0,0.4-0.2,0.5-0.3
			c0.4-0.4,0.6,0.4,0.9,0.6c0.3,0.2,0.2,0,0.6,0c0.2,0,0.5,0,0.7,0c0.7-0.2,1-0.1,1.5,0.2c0.5,0.3,0.5,0.4,1.1,0.2
			c-0.6-0.8-0.6-1.5,0.2-2.2c0.1-0.1,0.3-0.3,0.4-0.4c0.1-0.1,0.4,0.1,0.6,0.1c0.2,0,0.5-0.2,0.8-0.2c0.2,0,0.5,0,0.7,0
			c0.4,0,0.7,0.3,1.1,0.2c0.2-0.1,0.3-0.2,0.4-0.4c0.1-0.5,0.1-0.3,0.4-0.5c0.2-0.2,0.9,0.3,1.3,0.3c0.2-0.1,0.4-0.3,0.6-0.3
			C38.5,42.6,38.8,42.6,39,42.6"/>
		<path class="st3" d="M150.6,83.6c-0.3-0.3-0.4-0.3-0.9-0.3c-0.4,0-0.9,0-1.3,0c-0.6,0-1.1,0.3-1.7,0c-0.4-0.2-0.6-0.6-0.7-1.2
			c-0.1-0.3-0.4-0.4-0.5-0.7c-0.1-0.3-0.2-0.5-0.4-0.7c-0.1-0.1,0.1-0.6-0.1-0.6c-0.3,0-0.6,0-0.9,0c-0.8,0-0.6-0.3-0.8-0.9
			c-0.2-0.5-0.2-1-0.3-1.5c-0.2-0.5,0.1-1.3-0.7-1c-0.3,0.2-0.2,0.2-0.5-0.1c-0.1-0.1-0.3-0.3-0.4-0.4c-0.4-0.4-0.7-0.9-1.2-1.2
			c-0.4-0.3-0.8-0.3-1.2-0.7c-0.5-0.5-0.7-0.5-1.3-0.1c-0.5,0.4-0.7,0.2-1.3,0.2c-1.1,0-2.1-0.2-3.2-0.2c-1,0-2.1,0.5-3.2,0.5
			c-0.7-0.5-1.3-1.2-2.1-1.7c-0.4-0.3-0.8-0.5-1.1-0.8c-0.2-0.2-0.5-0.8-0.8-0.9c-1.8-0.6-3.3-1.9-5.1-2.5c-0.8-0.3-1.7-0.8-2.5-1.2
			c-0.2-0.1-0.4-0.3-0.6-0.4c-0.3-0.2-0.3,0-0.6,0c-0.5,0.1-0.9,0.2-1.4,0.3c-0.5,0.1-1,0.3-1.4,0.4c-0.4,0.1-0.9,0.1-1.4,0.3
			c-0.5,0.2-1,0.3-1.4,0.5c-0.4,0.2-0.7,0.4-1.2,0.3c0.4,1,0.8,2.2,1,3.2c0.4,2,1.1,4,1.6,6.1c0.2,1,0.6,1.9,0.8,2.9
			c0.1,0.4,0.1,1.4,0.5,1.4c0.5,0,1.1,0,1.6,0.1c0.3,0.1,1.2,0.3,1.5,0c0.2-0.2-0.4-1-0.5-1.3c-0.1-0.2-0.3-0.6-0.2-0.9
			c0-0.2,0.4-0.4,0.4-0.6c0.2-0.6,0.8-0.4,1.4-0.4c0.5,0,0.6-0.7,0.6-1.1c0-0.3,0.9,0,1,0.1c0.2,0.1,0.4,0.5,0.6,0.5
			c0.3,0-0.1-0.4-0.2-0.5c-0.2-0.2-0.8-0.7-1.1-0.7c0.3-0.4,0.4-0.2,0.8-0.2c0.3,0,0.5-0.2,0.4-0.5c0.4,0.4,1.1,1,1.8,1
			c0.4,0,0.5,0.3,0.8,0.5c0.4,0.3,0.6,0.3,1,0.3c0.4,0,0.7,0,1,0.2c0.4,0.3,0.2,0.2,0.3,0.7c0,0.1-0.1,0.3,0.1,0.4
			c0.2,0.1,0.4,0.1,0.5,0.2c0.2,0.2,0.4,0.5-0.1,0.4c0.1,0.3,0.3,0.4,0.3,0.8c0,0.4,0,0.4,0.2,0.6c0.5,0.5,1.2,0.7,1.8,0.7
			c0.2,0,0.3,0,0.5-0.1c0.2-0.1,0.3,0.1,0.4,0.1c0.2,0,0.6,0.2,0.8,0.2c0.1,0,0.3,0,0.4,0c0.1,0,0.1-0.3,0.3-0.3
			c0.3,0,0.6,0.2,0.9,0.3c1.2,0.4,1.2,1.6,2,2.3c0.4,0.4,0.7,0.5,0.9,1.1c0.2,0.5,0.3,1,0.8,1.3c0.5,0.3,1,0.6,1.5,0.9
			c0.5,0.2,0.9,0.6,1.4,0.8c1.1,0.4,1.9,1.2,2.9,1.7c0.2,0.1,0.6,0,0.7,0.1c0.2,0.2,0.5,0.3,0.7,0.5c0.3,0.3,0.7,0.5,1.1,0.7
			c0.8,0.4,2,1.5,3,1.5c0.3,0,0.4-0.2,0.7-0.1c0.2,0.1,0.5,0.2,0.7,0.3c0.4,0.2,0.6,0.3,1,0.5c1-3.6,1.7-7.3,2.1-11.1
			C150.8,83.8,150.6,83.7,150.6,83.6z"/>
		<path class="st3" d="M4.3,78.4C4.3,78.9,5,78,5.2,78.3c0.2,0.2,0.3,0.5,0.4,0.7c0.1,0.1,0.5,0.1,0.6,0.2c0.4,0.2,0.6,0.7,0.6,1.2
			c0,0.2,0,0.4-0.1,0.7c-0.1,0.4,0.1,0.4,0.1,0.7c0,0.2-0.2,0.2-0.2,0.4c0,0.1,0.1,0.6,0.2,0.7c0.1,0.3,0.3,0.9,0.6,1.1
			c0,0,0.3,0.5,0.3,0.5c0.2,0.1,0.5-0.1,0.7,0c0.1,0.1-0.1,0.5,0.1,0.6c0.2,0.2,0.4,0.3,0.2,0.5c-0.1,0.1,0,0.4-0.2,0.4
			c-0.4,0-0.3,0.1-0.4,0.3c-0.2,0.3-0.2,0.9-0.4,1.1c-0.3,0.3-0.6,0.1-0.8,0.4c-0.1,0.1-0.2-0.1-0.2,0.1c0,0.1,0.2,0.2,0.2,0.3
			c0,0.1,0.2,0.1,0.2,0.3c0,0.2-0.2,0-0.2,0.1c0,0-0.2,0-0.2,0.3c0,0.3,0,0.3-0.3,0.3c-0.6,0-0.6-0.4-0.8-0.9
			c-0.4-0.9-1.5-1.1-2-1.9c0.7,0.2,0-0.8,0-1.1c0-0.7,0.3-1.3,0.2-2c0-0.3-0.3-0.4-0.1-0.8c0.1-0.3,0.3-0.5,0.3-0.9
			c0-0.3,0-0.8-0.4-0.8c-0.4,0-0.6-0.1-0.3-0.5c-0.4,0,0-0.4-0.3-0.6c-0.1-0.1,0.3-0.7,0.4-0.9c0.1-0.1,0.5-0.8,0.5-0.9
			C4.3,77.8,3.9,78.3,4.3,78.4"/>
	</g>
</g>
<ellipse transform="matrix(0.7071 -0.7071 0.7071 0.7071 -30.9992 75.9271)" class="st6" cx="76.2" cy="75.4" rx="70.2" ry="70.2"/>
</svg>
