<!-- Generator: Adobe Illustrator 24.2.3, SVG Export Plug-In  -->
<svg version="1.1" xmlns="http://www.w3.org/2000/svg" xmlns:xlink="http://www.w3.org/1999/xlink" x="0px" y="0px" width="15.3px"
	 height="20.5px" viewBox="0 0 15.3 20.5" style="overflow:visible;enable-background:new 0 0 15.3 20.5;" xml:space="preserve">
<style type="text/css">
	.st0{fill:none;stroke:#141F52;stroke-linejoin:round;stroke-miterlimit:10;}
</style>
<defs>
</defs>
<g>
	<path class="st0" d="M0.2,0.5c0.1,0,0.2,0.2,0.4,0C0.9,0.2,1,1.3,1.1,1.5C1.4,2,1.6,2.4,1.9,2.9c0.5,0.6,0.4,1,1.2,1.2
		c0.6,0.2,2.6,0.8,1.4,1.6c-0.3,0.2-0.2,0.4,0,0.6c0.2,0.2,0.2,0.6,0.3,1C5,7.8,5.4,8.4,6,8.7C6.5,8.9,6.3,9,6.5,9.3
		c0.1,0.1-0.1,0.3,0.1,0.3c0.1,0,0.2,0.2,0.3,0.3c0.1,0.1,0.2,0.6,0.3,0.8c0.1,0.2,0.2,0.1,0.2,0.4c0,0.2,0,0.4,0.2,0.6
		c-0.6-0.2-0.4,0.8-1.2,0.3c-0.4-0.2-0.6-0.9-1.2-0.7C4.7,11.5,4.7,11.7,5,12c0.2,0.2,0.1,0.6,0.3,0.8c0.1,0.1,0.6,0.4,0.7,0.5
		c0.2,0.2,0.3,0.4,0.5,0.6c-0.3,0.3-0.1,0.4,0,0.6c0.2,0.3,0.2,0.5,0.3,0.8C6.9,15.6,7,15.7,7,16.1c0,0.1,0.4,0.1,0.5,0.3
		c-0.1-0.1-0.1-0.1-0.2-0.2c0.2-0.2,0.3-0.3,0.3,0c-0.1-0.2,0-0.4,0.2-0.5c0.5,0.5,1.1,1.1,1.5,1.5c0.4,0.4,0.6,0.2,1.1,0.2
		c0.4,0,0.8,0.5,1.1,0.6c0.4,0.3,0.6,0,0.6,0.6c0,0.4,0.5,0.3,0.9,0.4c0.4,0.2,1.5,0.7,2,1.1"/>
</g>
</svg>
