<!-- Generator: Adobe Illustrator 24.2.3, SVG Export Plug-In  -->
<svg version="1.1" xmlns="http://www.w3.org/2000/svg" xmlns:xlink="http://www.w3.org/1999/xlink" x="0px" y="0px" width="52.1px"
	 height="29.2px" viewBox="0 0 52.1 29.2" style="overflow:visible;enable-background:new 0 0 52.1 29.2;" xml:space="preserve">
<style type="text/css">
	.st0{fill:#141F52;stroke:#FFFFFF;stroke-width:0.3996;stroke-linejoin:round;stroke-miterlimit:10;}
</style>
<defs>
</defs>
<path class="st0" d="M30.2,22.3c0.2,0.1,0.3,0.1,0.5,0.2c-0.7,0-1.8,0-2-0.7c0.2,0.1,0.4,0.3,0.6,0.3C29.5,22.2,29.8,22.3,30.2,22.3
	 M30.3,0.2c0.3,0,0.6,0,0.9,0c0.4,0,0.6,0.4,0.9,0.6c0.4,0.4,0.8,1.4,1.4,1.4c-0.2,0.3-0.6,0.1-0.9,0.3c0.3,0.3,0.5,1.2,0.9,1.2
	c-0.5,0.4,0.6,0.4,1,0.5c0.4,0.1,0.9,0,1.3,0c0.1,0,0.1,0.4,0.3,0.5c0.1,0.1,0.5-0.1,0.5,0.1c0,0.4,0.4,1,0.7,1.3
	c-0.4,0.3,0.2,0.7,0.4,0.9C38.2,7.6,38.4,7,38.9,7c0.4,0,0.6,0.4,0.9,0.5c0.4,0.2,0.7-0.1,1,0.3c0.4-0.5,1.2-0.5,1.7-0.7
	C43.1,7,43,6.9,43.4,7.3c0.3,0.3,0.4,0.6,0.7,0.9c0.2,0.2,0.6,0.4,0.9,0.6c0.1,0.1,0.3,0.2,0.4,0.2c0.2,0,0-0.3,0.1-0.3
	c0.4-0.2,0.4-0.2,0.8,0.1c0.3,0.2,0.6-0.1,0.9,0.2c0.3,0.3,0.6,0.3,0.9,0.3c0.2,0,0.2,0,0.3-0.1c0.3-0.2,0.2,0.2,0.3,0.3
	c0.2,0.1,0.6,0.1,0.7,0.2c0.3,0.2,0.7,0.5,1.1,0.5c0.2,0,0.6-0.1,0.8,0c0.3,0.2-0.1,0.2,0,0.3c0.1,0.2,0.3,0.3,0.3,0.5
	c0.2,0.7-0.4,1.2-1,1.2c0.3,0.3,0.8,0.7,1.2,0.7c-0.2,0.3-0.5,0-0.7,0.2c-0.3,0.2-0.1,0.5-0.3,0.7c0.1,0,0.6,0.1,0.7,0.2
	c0.2,0.2,0.1,0.5,0.3,0.7c-0.1,0.1-0.1,0.1-0.2,0.2c0.5,0.2,0.2,0.8,0.2,1.4c0,0.5-1.5,0.3-1.8,0.3c-0.2,0-0.8-0.1-0.9,0
	c-0.1,0.1-0.1,0.4-0.2,0.5c-0.1,0.1-0.3,0.2-0.4,0.2c-0.2,0.1-0.8,0.1-0.8,0.4c0,0.3,0.1,0.6-0.2,0.8c0.7,0.3-0.1,0.5,0.3,0.9
	c-0.3,0.4-0.8,0-1.2,0c-0.5,0-0.9,0.2-1.2,0.5c-0.3,0.3-0.8,0.1-1.1,0.4c-0.5,0.5-0.5,0.3-1.2,0.3c-0.4,0-0.6,0.5-0.9,0.5
	c-0.4,0-0.8-0.3-1.3,0.1c-0.4,0.4-1.4,1.9-2,1.8c0.5-0.3,1-0.6,0.5-1.2c-0.1,0.2-0.2,0.3-0.3,0.5c-0.2,0.3-0.2,0-0.4,0.2
	c-0.5,0.4-0.2,0.4-0.2,0.9c0,0.7,1.1,1.6,1.5,2.1c0.3,0.4,0.4,0.2,0.8,0.4c0.4,0.2,0.6-0.1,0.9-0.2c0.2,0,0.4,0,0.5,0
	c0.2-0.1,0.3-0.3,0.5-0.3c0.4-0.1,0.8,0.2,1.2,0.3c-0.2,0.2-0.3,1.2-0.4,1.2c-0.6,0.2-1.1,0.1-1.6,0c-0.4-0.1-0.9-0.4-1.1,0.1
	c-0.1,0.4-0.3,0.3-0.7,0.4c-0.3,0.1-0.1,0.4-0.7,0.4c-0.4,0-1,0-1.3,0.4C38,28.2,37.6,29,37.1,29c-0.6,0-0.9-0.2-1.4-0.4
	c-0.3-0.2,0-1,0-1.4c0-0.4-0.2-1-0.7-1.1c-0.1,0-0.3,0.1-0.4,0.1c-0.2,0.1-0.1-0.1-0.2-0.1c-0.3-0.1-0.6-0.4-0.9-0.5
	c-0.2-0.1-1.3-0.1-1.2-0.2c0.5-0.6,0.8-0.9,1.5-1.3c0.2-0.1,0.4,0.1,0.6-0.1c0.2-0.1,0.4-0.3,0.6-0.4c0.3-0.2,0.4-0.2,0.2-0.6
	c-0.2-0.3-0.4-0.1-0.7-0.2c-0.2,0-0.5-0.3-0.7-0.3c-0.2,0-0.5,0.2-0.8,0.2c-0.6,0-1.1,0.2-1.7,0c-0.5-0.2-0.9-0.5-1.4-0.5
	c-0.9,0,0.1-0.4,0.3-0.5c-0.2-0.3-0.5-0.2-0.8-0.2c-0.3,0-0.4-0.2-0.8-0.3c0.6,0,1.1,0.1,1.7,0.2c0.7,0.1,0.9,0,1.4-0.5
	c-0.7,0.4-1.4,0.4-1.9-0.3c-0.3-0.5-0.3-1.4-1-1.7c0.5,0.4,0.7,0.9,0.8,1.5c0.2,0.8-0.7,0.6-1.1,0.4c0.1-0.1,0.1-0.3,0.2-0.3
	c-0.1,0.1-0.6,0.7-0.8,0.7c-0.5-0.2-0.8,0-1.3,0.1c-0.4,0.1,0,0.6-0.2,0.8c-0.2,0.2-0.4,0.7-0.6,0.9c-0.6,0.7-1,1.2-2,1.2
	c-0.6,0-0.3,0.5-0.1,0.8c0.2,0.3,0.6,0.8,0.2,1.1c-0.5-1.4-1.8-0.1-2.7-0.2c0.1,0.1,0.1,0.1,0.2,0.2c-0.6,0-1.5-0.2-1.9-0.7
	c0.3-0.4,0.7-0.3,0.9-0.5c0.1-0.2-0.2-0.3,0-0.6c0.1-0.2,0.4-0.2,0.6-0.4c0-0.1,0.1-0.4,0.2-0.5c0-0.1,0.3-0.1,0.3-0.2
	c0.1-0.1,0-0.3,0-0.3c0.1-0.3,0.1-0.2-0.1-0.6c-0.1-0.1-0.2-0.4-0.1-0.5c0.2-0.2,0.8-0.7,0.8-0.2c0,0.8,0.1,0.1,0.6,0.1
	c0.2,0,0.3,0.2,0.5,0.2c0.2,0,0.3-0.2,0.5-0.2c0.1,0,0.3,0.3,0.4,0.3c0.2,0.1,0.5,0,0.7-0.2c-0.2-0.1-0.6-0.3-0.7-0.5
	c-0.1-0.2,0.1-0.6-0.1-0.8c-0.3-0.3-1.1-0.4-1.1-0.9c0-0.2-0.3-0.3-0.3-0.5c0-0.3,0.3-0.3,0-0.6c-0.1-0.1-0.5-0.2-0.7-0.3
	c-0.3-0.2-0.5-0.3-0.7-0.5c0.5-0.4-0.2-1.9-0.4-1.6c-0.5,0.5-1-1.3-1.8-0.4c-0.1-0.2-0.2-0.1-0.2-0.3c-0.1,0.1-0.1,0.1-0.2,0.2
	c0.1-0.5-0.3-0.2-0.6-0.4c-0.4-0.2-0.6-0.4-1-0.6c-0.9-0.4-1.4,0.1-2.3,0.1c-0.5,0-0.6,0.1-1,0.3c-0.1,0-0.2,0.2-0.2,0.2
	c-0.1,0-0.7-0.1-0.8,0c0.1,0-0.2,0.5-0.2,0.5c-0.2,0.3-0.1,0.3-0.4,0.4c-0.5,0.1-1,0.1-1.6,0.3c-0.4,0.1-0.8,0.3-1.2,0.5
	c-0.5,0.3-0.6,0.2-1-0.2c-0.4-0.4-0.5-0.4-1-0.4c-0.2,0-0.3,0.2-0.5,0.2c-0.2,0-0.4-0.1-0.6-0.2c-0.4-0.1-0.7-0.2-1.1-0.2
	c-0.2,0-0.5,0-0.7,0c-0.2,0-0.4-0.3-0.6-0.3c-0.4,0-0.5,0.5-0.9,0.5c0,0-0.4-0.6-0.4-0.7c-0.3,0.5-0.5-0.2-0.7-0.3
	c-0.1-0.1-0.7,0-0.7-0.3c0-0.3-0.2-0.4-0.4-0.4c-0.6,0,0-0.8,0.1-0.9c0.2-0.2,0.2-0.5,0.3-0.8c0-0.1,0.3-0.7,0.3-0.7
	c0.2-0.1,0.7,0.4,0.9,0.2c0.1-0.1-0.5-0.5-0.5-0.7c0,0,0.2-0.2,0.2-0.3c0,0-0.2-0.4-0.3-0.4c-0.1-0.3-0.1-0.5,0-0.8
	c0.4-0.6,0.8-1.2,1.4-1.6C3.3,8,3.3,7.8,3.6,7.5c0.1-0.1,0.2-0.3,0.3-0.3c0.2-0.1,0.5,0.1,0.7,0C5,6.9,5.2,5.9,4.5,5.8
	c0.7-0.3,0-0.5-0.2-0.9c-0.2-0.6-0.5-0.8-1-1.1c0.1-0.1,0.1-0.1,0.2-0.2C3.3,3.5,3.1,3.2,3.1,3c0-0.3,0.1-0.3,0.4-0.3
	c0.2,0,0.5,0.2,0.6,0.2c0.1,0,0.5-0.5,0.7-0.6C5,2.2,4.9,1.9,5.1,1.9c0.2,0,0.4-0.2,0.7-0.2c0.2,0,0.5,0,0.7,0
	c0.3,0,0.5-0.2,0.7-0.2c1.1,0,2.2,0.2,3.3,0.3c0.5,0.1,0.9,0.2,1.3,0.3c0.4,0.1,1.1-0.1,1.4,0.2c0.1,0.1,0.4,0.5,0.5,0.5
	c0.2,0,0.4-0.2,0.7-0.2c0.2,0,0.5,0.5,0.3,0.5c0.3,0,0.3-0.3,0.4-0.3c0.5,0,0.8-0.2,1.2,0c0.2,0.1,0.5,0,0.7,0
	c0.3,0,0.4,0.5,0.6,0.5c0.4,0,0-0.3,0.3-0.3c0.1,0,0.4-0.2,0.5-0.3c0.4-0.4,0.6,0.4,0.9,0.6c0.3,0.2,0.2,0,0.6,0c0.2,0,0.5,0,0.7,0
	c0.7-0.2,1-0.1,1.5,0.2c0.5,0.3,0.5,0.4,1.1,0.2c-0.6-0.8-0.6-1.5,0.2-2.2c0.1-0.1,0.3-0.3,0.4-0.4c0.1-0.1,0.4,0.1,0.6,0.1
	c0.2,0,0.5-0.2,0.8-0.2c0.2,0,0.5,0,0.7,0c0.4,0,0.7,0.3,1.1,0.2c0.2-0.1,0.3-0.2,0.4-0.4c0.1-0.5,0.1-0.3,0.4-0.5
	c0.2-0.2,0.9,0.3,1.3,0.3c0.2-0.1,0.4-0.3,0.6-0.3C29.8,0.2,30.1,0.2,30.3,0.2"/>
</svg>
