<!-- Generator: Adobe Illustrator 24.2.3, SVG Export Plug-In  -->
<svg version="1.1" xmlns="http://www.w3.org/2000/svg" xmlns:xlink="http://www.w3.org/1999/xlink" x="0px" y="0px" width="148.7px"
	 height="155.9px" viewBox="0 0 148.7 155.9" style="overflow:visible;enable-background:new 0 0 148.7 155.9;"
	 xml:space="preserve">
<style type="text/css">
	.st0{clip-path:url(#SVGID_2_);fill:#FFFFFF;}
	.st1{clip-path:url(#SVGID_2_);}
	.st2{fill:#B3B3B3;stroke:#FFFFFF;stroke-width:0.2777;stroke-linecap:round;stroke-linejoin:round;}
	.st3{fill:#B3B3B3;stroke:#FFFFFF;stroke-width:0.3996;stroke-linejoin:round;stroke-miterlimit:10;}
	.st4{fill:#141F52;stroke:#FFFFFF;stroke-width:0.2777;stroke-linecap:round;stroke-linejoin:round;}
	.st5{fill:none;stroke:#FFFFFF;stroke-miterlimit:10;}
	.st6{clip-path:url(#SVGID_4_);fill:#FFFFFF;}
	.st7{clip-path:url(#SVGID_4_);}
</style>
<defs>
</defs>
<g>
	<defs>
		
			<ellipse id="SVGID_1_" transform="matrix(0.7071 -0.7071 0.7071 0.7071 -31.1967 75.3208)" cx="75.3" cy="75.3" rx="70.2" ry="70.2"/>
	</defs>
	<clipPath id="SVGID_2_">
		<use xlink:href="#SVGID_1_"  style="overflow:visible;"/>
	</clipPath>
	
		<ellipse transform="matrix(0.7071 -0.7071 0.7071 0.7071 -31.1967 75.3208)" class="st0" cx="75.3" cy="75.3" rx="70.2" ry="70.2"/>
	<g class="st1">
		<path class="st2" d="M118.2,16c0.1,0.1-0.1,1-0.3,1.2c-0.3,0.2-0.8,0.8-1.2,0.6c-0.5-0.2-0.3,0.2-0.6,0.2c-0.3,0-0.2-0.3-0.4-0.3
			c-0.6,0-0.5-0.9-1.2-0.6c-0.4,0.2-1,0-1.3-0.3c-1.4-1.4-0.1,0.9-1,0.9c0.5,0.4,0.1,1.4,0.3,1.5c-0.1,0.1-0.3,0.4-0.3,0.6
			c0,0.4-0.2,0.3-0.3,0.6c-0.1,0.1-0.2-0.1-0.2,0.2c0-0.1,0.2,0.1,0.2,0.1c0.1,0.2,0.3,0.4,0.5,0.6c-0.5,0-0.9-0.1-1,0.4
			c-0.2,0.6,0.1,0.7,0.2,1.3c0.1,0.4-0.1,0.8,0.4,1.1c0.4,0.2,0.8,0,1.1,0.3c-0.3,0.3-1.1,1.4-0.8,1.8c0.5,0.4,0.6,1.3,0.9,1.9
			c0.3,0.8,0.6,1.3,0.6,2.2c0,0.3,0.1,0.7,0.2,1c0.1,0.5,0.1,0.6,0.5,0.6c0.8,0.2,1.6,0.2,2.3,0.3c0.5,0.1,0.9,1.5,0.9,1.9
			c0,0.4-0.4,0.7-0.7,1c-0.2,0.3-0.4,0.7-0.5,1c-0.3,0.7-0.8,1.3-1.2,1.9c0.8,0.2,1.6,0.5,2.5,0.8c0.8,0.3,2,0.4,2.7,0.8
			c0.8,0.4,2.3-0.1,3.1-0.2c0.8-0.1,1.5,0,2.2,0.3c0-0.6,1.2-0.7,1.6-0.7c0.5,0,1.2,0.1,1.6,0c0.7-0.2,1.3-0.4,2-0.7
			c0.4-0.2,1.5-0.2,1.4-0.8c0-0.1-0.3-0.3-0.3-0.4c-0.1-0.2,0.1-0.3,0.1-0.4c0-0.3-0.1-0.6-0.2-1c-0.2-0.6-0.4-1.2,0.2-1.8
			c0.2-0.2,0.4-0.2,0.5-0.3c0.2-0.3,0.1-0.6,0.3-0.9c0.6-0.5,1.2,0.2,1.8,0.2c0.3,0,0.6,0,0.9-0.3c0.1-0.1,0.5-0.4,0.2-0.4
			c-0.1,0-0.6-0.1-0.6-0.3c0-0.3,0.4-0.1,0.6-0.2c0.1-0.1,0.3-0.1,0.4-0.2c-4.5-6.3-10-11.8-16.2-16.4c-0.4,0.1-0.8,0.2-1.2,0.4
			C118.4,15.4,117.5,15.3,118.2,16z"/>
		<path class="st2" d="M95.8,59c0,0.3-0.7,0.2-1,0.2C95,58.8,95.4,58.8,95.8,59 M91.5,58.6c-0.1-0.2-0.2-0.2,0-0.3
			C91.7,58.4,91.6,58.5,91.5,58.6 M93.7,58.8c-0.2,0-0.2,0-0.3-0.2c0.3-0.1,0.5-0.3,0.7-0.5C94.1,58.4,93.9,58.6,93.7,58.8
			 M97.3,58.1c-0.4,0.1-0.4-0.1-0.2-0.3C97.3,57.9,97.3,58,97.3,58.1 M102.4,53.5c0.2,0.2,0.3,0.3,0.3,0c0.9,0.6,0,2,0.7,2.6
			c-0.5,0-0.9,1.6-1.4,0.3c0.4-0.1,0-0.3-0.3-0.3c-0.4,0-0.3,0.5-0.3,0.8c0,0.3,0,0.6,0,0.9c0.1,0.4,0.3,0.6,0,1
			c0.2,0,0.7,0.1,0.7,0.3c0,0.3,0.4,0.4-0.1,0.4c-0.2,0-0.4,0.2-0.7,0.2c-0.4,0-0.5,0-0.8,0.3c0.7,0.2,0,1.5-0.2,2
			c-0.1,0.4-0.3,0.9-0.3,1.3c0,0.2,0.2,1.3,0.1,1.3c-0.7,0.3-1.6,0-2.3,0c-0.9-0.1-1.9-0.5-2.8-0.5c-0.9,0-1.8-0.3-2.7-0.3
			c-0.2,0-0.3,0-0.5,0c-0.4,0-0.2-0.1-0.4-0.3c-0.3-0.3-0.6-0.7-0.8-1.1c-0.1-0.2-0.3-0.2-0.4-0.3c-0.1-0.2-0.2-0.3-0.4-0.5
			c-0.3-0.3-0.5-0.7-0.8-1c-0.4-0.4-1.3-1.5-0.8-2c0,0.3,0.1,0.4,0.3,0.2c0.3,0.3,0.2,0.7,0.5,1c0.4,0.3,0.8,0.2,1.3,0
			c0.9-0.3,1.4-0.6,2.5-0.5c0.8,0.1,1.8,0.5,2.6,0.3c0.8-0.1,1.6-0.7,2-1.4c0.3-0.6,0.7-1.4,1.2-1.9c0.6-0.5,1.4-1.1,1.6-1.9
			c0.1-0.4,0.6-0.7,0.9-1c0.4-0.3,0.5-0.6,0.6-1.1c0.1-0.3,0.1-0.3,0.3-0.3c0.2,0,0.1,0.4,0.1,0.5C102.3,52.9,102.1,53.3,102.4,53.5
			 M102.7,55.2C103.1,54.9,102.7,54.7,102.7,55.2"/>
		<g>
			<path class="st3" d="M63.3,1.4c0.2-0.1,0.5,0.1,0.7,0.2c0.3,0.3-0.2,0.2-0.3,0.4c0,0.4,0.6,0.6,0.9,0.9c-0.3,0-0.7-0.1-0.7,0.2
				c0-0.1,0.3,0.3,0.3,0.3c0.1,0.2,0.2,0.4,0.2,0.6c0,0.3,0.8-0.5,0.8-0.6C65.6,3.1,65.7,3,66,2.7c0.3-0.3,0.6-0.6,0.9-0.8
				c0.3-0.2,0.6-0.6,0.9-0.7c0.7-0.3,1.4,0.6,1.9,1c-0.2,0.3-0.5,0.2-0.5,0.6c0,0.4,0.3,0.2,0.6,0.5C70.3,3.9,69,3.6,69,4.2
				c0,0.2,1.2,0.8,1.4,1c0.3,0.3,0.6,0.4,0.9,0.7c0.2,0.2,0.5-0.1,0.8-0.1c-0.1-0.5-0.3-1-0.3-1.5c0-0.4,0.2-0.7,0.2-1.1
				c0.4,0.1,0.5,0.5,0.7,0.2c0.1-0.1,0-0.5,0-0.6c0-0.2,0.1-0.2,0.2-0.4c0,0,0.3,0,0.1-0.2c-0.1-0.1-0.3-0.2-0.3-0.4
				c0-0.4,0.1-0.7,0.1-1.1c0-0.1,0-0.3,0-0.4c-3.4,0.1-6.8,0.5-10.1,1C62.9,1.4,63.1,1.5,63.3,1.4z"/>
			<path class="st3" d="M61.4,3.6c0.5,0.3,1.3,0.3,1.9,0.5C63.1,4,62.6,3,62.6,3c0.3-0.6-0.7-0.3-0.7-0.9c0-0.3-0.1-0.9-0.6-0.6
				c-0.4,0.3-0.6,0.3-0.9,0.1c-0.4,0.1-0.7,0.2-1.1,0.2c0.2,0.2,0.4,0.4,0.6,0.6C60.3,2.9,60.9,3.2,61.4,3.6z"/>
		</g>
		<path class="st2" d="M84.5,52.7c0,0.1-0.1,0.2-0.2,0.3c-0.2-0.2-0.7-1.5-0.5-1.7C84.2,50.9,84.5,52.5,84.5,52.7"/>
		<path class="st2" d="M63.6,102.1c0.3,0.3,0.8,0.6,0.9,1.1c0.1,0.5,0.2,1.2-0.3,1.4c-0.4,0.2-0.8,0.6-1.3,0.8
			c-0.5,0.3-0.5,0.9-1.2,0.8c0.1,0.1,0.2,0.3,0.3,0.3c0.4-0.4,1.6-0.7,2-0.3c0.2,0.2-0.6,2-0.9,2c-0.7,0-1.2-0.3-2,0
			c-0.6,0.2-1.6,0.6-1.8-0.2c-0.2-0.8-0.1-1.5-0.1-2.3c0,0,0.5-0.5,0.6-0.7c0.2-0.3,0.5-0.6,0.7-1c0.3-0.7,0.5-1.8,1.3-1.2
			c0.6,0.5,0.4,0,0.7-0.4c0.2-0.3,0.7-0.3,1-0.5C63.6,101.9,63.6,102,63.6,102.1"/>
		<path class="st3" d="M1.7,31.5c0.7,0,1.6-0.5,2.3-0.3c0.9,0.2,1.7,0.3,2.6,0.5c1,0.2,1.7,0.4,2.5,1c0.1,0.1,0.1,0.2,0.3,0.2
			c0.1,0,0.5-0.2,0.7-0.1c0.4,0.4,0.5,0.5,1.1,0.5c0.9,0.1,1.7,0.2,2.5,0.8c0.7,0.4,1.4-0.3,1.9-0.6c0.3-0.2,0.7-0.5,1-0.7
			c0.4-0.2,0.7-0.1,1-0.3c0.3-0.3,0.2-0.5,0.8-0.7c0.4-0.1,0.8-0.2,1.3-0.4c-0.3,0.3-0.8,0.5-1.2,0.7c0.3,0,1.3-0.1,1.4-0.3
			c0.2-0.2,0-0.5,0.3-0.6c0.1,0,0.6,0.3,0.7,0.3c0.7,0.3,0.9,0.4,1.5,0.1c0.4-0.2,0.8,0.3,1.2,0.6c-0.4,0.1-0.6-0.3-0.9-0.5
			c0.1,0.3-0.1,0.5-0.3,0.7c0.4,0.2,1.2,0.4,1,0.9c0.3-0.1,0.5-0.3,0.7-0.5c-0.1-0.1-0.2-0.3-0.3-0.3c0.5,0,0.7,0.9,1.1,0.9
			c0.5,0,1-0.2,1.5-0.3c0.4-0.1,0.3,0.2,0.6,0.3c0.2,0,0.5-0.2,0.7-0.2c0.5,0,1.2,0,1.7-0.3c0.6-0.5,0.7-0.4,1,0.3
			c0.2,0.5,0.5,1,0.7,1.5c0.2,0.5,0.2,0.9,0.5,1.4c0.3,0.5,0.6,1,0.7,1.6c0.1,0.5,0.3,1,0.6,1.5c0.1,0.1-0.5,1-0.5,1.3
			c0,0.5,0,1.1-0.2,1.6c-0.2,0.6-0.5,1.2-0.5,1.8c0,0.5,0,1-0.3,1.5c-0.2,0.4-0.2,0.4-0.6,0.1c-0.2-0.2-0.5-0.4-0.7-0.5
			c-0.4-0.3-0.7-0.9-1.1-1.1c-0.5-0.4-0.9-0.8-1.3-1.3c-0.3-0.4-0.1-0.9-0.4-1.4c-0.2-0.4-0.7-0.8-1-1.2c-0.6-0.8-0.8-1.7-1.2-2.6
			c-0.1,0.1-0.5,1.1-0.5,1.4c0.1,0.5,0.7,0.8,0.9,1.3c0.2,0.5,0,1,0.4,1.4c0.4,0.4,0.4,0.9,0.8,1.3c0.4,0.4,0.6,0.9,1,1.3
			c0.4,0.5,0.9,0.6,1.2,1.2c0.2,0.5,0.2,1,0.4,1.5c0.2,0.5,0.7,0.8,0.9,1.3c0.2,0.6,0.3,1.2,0.4,1.8c0,0.2,0.3,0.2,0.4,0.4
			c0.2,0.3,0.3,0.7,0.5,1c0.5,1.1,1.3,2,1.8,3.1c0.5,1.1,1.1,2.2,1.7,3.2c0.5,0.9,1.2,1.7,2,2.3c0.1,0.1,0.2,0.2,0.3,0.3
			c-1.1-0.4-1,0.5-0.9,1.4c0.1,0.8,0.4,1.7,0.8,2.4c0.6,0.8,1.6,0.7,2.1,1.5c0.4,0.7,1.7,1,1.9,1.9c-4.3,0-8.5,0-12.8,0
			c-1.1,0-2.2,0-3.2,0c-0.2,0-1.5,0.1-1.5-0.1c0-0.5-0.2-0.9-0.5-0.3c-0.3,0.7-2.3,0.3-3,0.3c-1.1,0-2.2,0-3.3,0
			c-4.4,0-8.8,0-13.2,0c-0.9,0-0.9,0.1-0.9-0.9c0-0.5,0.1-1.3,0-1.8c-0.3-1.1-0.2-2.4-0.2-3.6c0-1.1-0.2-2.3-0.2-3.4
			c0-1.1-0.2-2.3-0.2-3.4c0-2.1-0.3-4.1-0.3-6.2c0-2-0.3-4-0.3-6c0-1-0.3-2-0.5-2.9c-0.2-0.7-0.9-1.9-0.7-2.6
			c0.1-0.2,0.3-0.5,0.5-0.6c0.1-0.2,0-0.5,0.1-0.6c0.2-0.5,0-1-0.1-1.5c-0.3-1-0.3-1.8,0.6-2.5C1.6,31.2,1.7,31.4,1.7,31.5"/>
		<g>
			<path class="st2" d="M53.2,89.6c-0.1-0.1-0.1-0.2-0.2-0.3c0-0.1,0-0.1,0-0.2C52.7,89.3,52.8,89.6,53.2,89.6z"/>
			<path class="st2" d="M53.8,91.2c0.7,0,0.3-0.2-0.1-0.5c-0.1,0.2-0.1,0.1-0.2,0.3c-0.1-0.1-0.1-0.2-0.2-0.3
				c-0.2-0.3-0.1-0.8-0.7-0.7c0.4,0.3-0.3,0.4,0.3,0.9c-0.1-0.1-0.2-0.1-0.3-0.2C52.8,91.2,53.3,91.2,53.8,91.2z"/>
			<path class="st2" d="M77,119.4c-1,0-1.7-0.6-2.6-0.9c-2-0.7-3.9-1.5-5.9-2.1c-0.5-0.2-1.1-0.3-1.5-0.5c-0.4-0.2-0.7-0.7-1-1
				c-0.4-0.4-0.8-0.5-1.1-0.9c-0.3-0.4-0.4-0.8-0.7-1.2c-0.5-0.8-1.1-1.4-1.6-2.3c-0.3-0.6-0.3-0.7,0-1.3c0.2-0.3,0.3-0.8,0.6-1
				c-0.4,0.1-0.7-0.2-1.1-0.2c-0.5,0-0.9,0.2-1.4,0.3c-0.2,0.1-1.2,0.3-1.3,0c-0.1-0.6-0.2-1.1-0.2-1.7c0-0.3,0-0.6,0-0.9
				c0,0,0.3-0.3,0.4-0.4c0.2-0.4,0.7-0.8,0.8-1.2c0.1-0.4,0.7-1.2,0.5-1.5c-0.3-0.3-0.5-0.6-0.8-0.9c0.1,0,0.1,0.1,0.2,0.1
				c0.3,0.3,0.5,0.7,0.8,1c0.3-0.4,0.6,0,0.8,0.2c0.4,0.3,0.3-0.3,0.5-0.5c0.2-0.3,0.6-0.3,0.9-0.5c0.3-0.1-0.2-0.7-0.4-0.7
				c0,0.1,0,0.2,0,0.3c-0.7-0.2-0.9-0.9-1.4-1.4c-0.3-0.3-0.4,0-0.6-0.5c-0.1-0.3-0.3-0.6-0.4-0.8c-0.3-0.6-1.2-1.1-1.7-1.5
				c-0.4-0.3-0.6-0.8-1-1.3c-0.4-0.6-0.7-1.2-1.4-1.5c-0.3-0.1-0.7-0.2-1-0.4c-0.2-0.1-0.4-0.4-0.6-0.6c-0.6-0.3-1.1-0.3-1.7-0.8
				c-0.2-0.2-0.2-0.5-0.3-0.7c-0.1-0.2-0.4-0.4-0.5-0.6c-0.1,0.2-0.4,0.6-0.3,0.8c0.1,0.1,0.1,0.4,0.1,0.6c-0.4-0.4-0.5-0.8-0.7-1.3
				c-0.1-0.3-0.3-0.2-0.3-0.4c-0.1-0.3-0.2-0.5-0.3-0.8c-0.2-0.5-0.5-0.5-0.6-1.1c-0.1-0.5-0.2-1-0.3-1.4c-0.6-2-1.2-3.8-2.1-5.7
				c-0.7,0.2-0.6,1.5-1.3,1.5c-0.1,0-0.1,0.1-0.3,0.2c-0.1,0-0.3,0-0.4,0c-0.3,0-0.5,0.4-0.8,0.5c-0.5,0.3-0.6,0.2-0.8,0.8
				c-0.1,0.4-0.3,0.6-0.7,0.6c-0.2,0-0.8-0.3-0.8,0.1c0,0.5-0.1,0.7-0.2,1.1c-0.2,0.7,0,1.7-0.2,2.5c-0.1,0.7-0.5,1.3-0.6,2.1
				c-0.1,0.5-0.2,0.8-0.5,1.2c-0.2,0.3,0.1,0.7,0.1,1.1c0,0.8,0.2,1.6,0.3,2.3c0,0,0.1,0,0.1,0c-0.4,0.1-0.4,1.1-0.3,1.5
				c0.1,0.3-0.1,1.1-0.4,1.4c-0.2,0.2-0.3,1-0.4,1.4c-0.1,0.4,0,1.1-0.2,1.4c-0.2,0.3-0.7,0.1-1.1,0.3c-0.7,0.4-1.2,1.7-1.5,2.4
				c-0.2,0.4-0.6,0.8-0.6,1.3c0,0.5-0.3,1-0.3,1.4c-0.1,0.5,0.1,2.8-0.9,1.8c-0.4-0.4-0.8,0-1.1,0.5c-0.3,0.5-0.1,0.9-0.1,1.4
				c0.1,0.5-0.1,0.8-0.3,1.3c-0.2,0.4-0.2,0.8-0.3,1.2c-0.2,1.1,0.1,2.1,0.1,3.2c0,0.5-0.2,0.9-0.8,1.1c-0.6,0.2-0.9-0.1-1.4-0.1
				c-0.7,0.1-1.8,2-1.1,2.3c1,0.5,2,0.4,2.8,1.2c0.4,0.4,0.4,0.9,0.7,1.4c0.3,0.5,0.7,0.5,1.1,0.9c0.9,0.8,0.9,2,1.4,2.9
				c0.2,0.4,0.3,0.3,0.3,0.8c0,0.3,0.1,0.4,0.2,0.7c0.1,0.3,0.8,0.9,0.8,1c0,0.7,0.2,0.3,0.7,0.3c0.6,0,0.9,0.1,1,0.7
				c0.1,0.6-0.2,0.9,0,1.5c0.1,0.3,0.1,0.5,0.4,0.6c0.2,0.1,0.2,0.5,0.3,0.6c0.2,0.2,1.3,0.1,1.6,0.1c0.4,0,0.8,0.2,1.3,0.2
				c0.5,0,1.1,0.7,1.5,1.1c0.4,0.4,0.9,0.5,1.3,0.9c0.4,0.3,0.7,0.8,1.2,1c0.4,0.1,1.2,0.2,1.6,0.2c1,0,2,0.5,3.1,0.5
				c0.2,0,0.9-1.1,1-1.3c0.2-0.5,0.9-0.7,1.3-0.9c0.5-0.3,1-0.5,1.5-0.7c0.5-0.2,0.8,0.3,1.1,0.7c0.4,0.4,0.6,0.4,1.1,0.4
				c0.4,0,1.2,0,1.6-0.2c0.2-0.1,0.3-0.5,0.6-0.5c0.3-0.1,0.6-0.1,0.9-0.3c0.5-0.2,1.2,0,1.6-0.2c0.4-0.2,0.2-0.4,0.3-0.7
				c0.1-0.2,0.4-0.4,0.5-0.5c0.4-0.4,0.9-0.7,1.5-0.8c0.3-0.1,0.5-0.2,0.8-0.3c0.2,0,0.4,0,0.6-0.1c0.5-0.2,1,0,1.5,0
				c0.4,0,1.5,0.2,1.8,0c0.3-0.2,0.7-0.9,0.9-1.2c2.6-3.7,5.9-6.8,8.8-10.4C79.1,119.4,78,119.4,77,119.4z"/>
		</g>
		<path class="st3" d="M101.9,48.7c-0.2,0.3-0.4,0.6-0.7,0.9c-0.4-0.5-0.9,0.2-1.2,0.3c-0.5,0.3-1.2,0-0.4-0.3
			c0.3-0.1,0.6-0.3,0.9-0.4c0.2-0.1-0.1-0.5,0.1-0.5c0.4,0,0.6-0.1,0.9-0.2C101.8,48.5,102.3,48.4,101.9,48.7 M59.5,2.1
			c0.3,0.3,0.7,0.6,1,0.9c0.3,0.2,0.8,0.8,1.2,0.9c0.5,0.1,1.2,0.3,1.7,0.3c0.3,0,0.4-0.2,0.8-0.1c0.4,0.1,0.4,0.1,0.7-0.2
			c0.2-0.2,0.4-0.4,0.5-0.7c0.1-0.1,0.1-0.1,0.3-0.1c0.2,0,0.1-0.2,0.3-0.3c0.4-0.4,0.7-0.7,1.3-1c0.5-0.2,0.6-0.8,1.3-0.6
			c0.5,0.1,0.9,0.7,1.2,1c-0.1,0.1-0.9,0.7-0.4,0.9c0.5,0.2,1,0.7,0.2,0.7c-0.2,0-0.4,0.3-0.4,0.4c0,0.1,0.4,0.3,0.5,0.3
			c0.4,0.3,0.8,0.6,1.2,0.9C70.8,5.5,71.3,6,71.4,6c0.2,0,0.5-0.3,0.7-0.2C72.4,6,72.3,7,72.4,7.4c0.3,1,1.1,1.7,2.1,1.9
			c0.6,0.1,1.1,0.1,1.7,0.2c0.7,0.1,1,0.7,1.3,1.1c0.3,0.4,0.9,0.6,1.3,0.9c0.4,0.2,1,0.7,1.4,0.8c1.2,0.3,2.2,0.6,3.4,0.3
			c1.2-0.3,2.4-0.7,3.6-0.8c0.5-0.1,1-0.2,1.5-0.2c-0.2,0.2-0.4,0.2-0.7,0.2c0.4,0.3,1,0.3,1-0.2c0-0.5-0.4-1.1-0.7-1.5
			c0.8,0,2.4-0.1,2.6-1C91,8.3,91,8.1,91.5,7.7c0.3-0.3,1-0.7,1.4-0.7c0.6,0,1.1,0.2,1.7,0.2c0.1,0,0.4,0.1,0.4-0.1
			c0-0.2-0.1-0.6,0.3-0.6c0.5,0,1-0.1,1.4,0.1c0.5,0.2,1.1-0.2,1.4,0.2c0.2,0.2,0.2,0.3,0.2,0.6c0,0.2,0.3,0.1,0.4,0.1
			c0.5,0.3,1.1,0.1,1.7,0.4c0.4,0.2,0.8,0.7,1.2,0.7c0.2,0,0.4,0,0.5,0c0.4-0.2,0.5,0.1,0.8-0.1c0.3-0.2,1.3,0.5,1.6,0.6
			c0.5,0.2,0.4,0.7,0.9,1c0.4,0.3,1.1,0.4,1.5,0.6c0.4,0.2,0.8,0.6,1.1,1c0.3,0.3,0.5,0.6,1,0.6c0.5,0,0.9,0,1.4,0
			c0.6,0,0.7,0,1,0.6c0.1,0.3,0.4,0.9,0.4,1.2c0,0.2,0,0.3,0,0.5c0,0.3,0.1,0.2,0.2,0.3c0.2,0.4,0.3,0.6,0.3,1.1
			c0,0.2,0.2,0,0.2,0.3c0,0.1,0,0.3,0,0.4c0,0.3,0.1,0.7-0.3,0.7c0.5,0.4,0.1,1.4,0.3,1.5c-0.1,0.1-0.3,0.3-0.3,0.5
			c0,0.1,0.1,0.3,0,0.3c-0.1,0.1-0.3,0.2-0.3,0.3c-0.1,0.1-0.2-0.1-0.2,0.1c0,0.2,0.1,0,0.2,0.1c0.1,0.3,0.3,0.5,0.5,0.7
			c-0.5,0-0.9-0.1-1,0.4c-0.2,0.6,0.1,0.7,0.2,1.3c0.1,0.4-0.1,0.8,0.4,1.1c0.4,0.2,0.8,0,1.1,0.3c-0.4,0.3-0.6,0.9-0.8,1.3
			c-0.2,0.4,0.4,0.9,0.5,1.3c0.4,1,1,2,1,3.1c0,0.5,0.2,1.1,0.3,1.5c0.1,0.4,0.9,0.4,1.3,0.4c0.4,0,1.2,0,1.5,0.2
			c0.4,0.4,0.6,1,0.7,1.6c0.1,0.6-0.3,0.8-0.6,1.3c-0.3,0.5-0.6,1.2-0.9,1.7c-0.2,0.3-0.9,0.8-0.8,1.2c0.1,0.3,1,1,1.2,1.2
			c0.2,0.2,0.4,0.3,0.5,0.5c0.1,0.2,0.1,0.4,0.2,0.5c0.4,0.4,0.8,0.9,1,1.4c0.5,1.1,1.4,1.4,2.5,1.6c0.3,0.1,0.4,0.6,0.9,0.7
			c0.5,0.2,0.7-0.2,0.7,0.4c0,0.9,0.5,1.7,0.5,2.7c0,0.5-0.1,0.5,0.3,0.7c0.4,0.2,0.8-0.2,1.2,0c0.5,0.3,0.4,0.4,0.3,0.8
			c-0.1,0.5-0.1,0.8,0,1.4c-0.6,0.2-3.2-0.2-2.9,1.2c-0.2-0.2-1.2,0.1-1.2,0.4c0,0.3-0.1,0.5-0.2,0.8c0,0.1,0,0.3,0,0.4
			c0,0.2-0.1,0.2-0.2,0.4c-0.1,0.7,0.4,2.4-0.5,2.6c-0.4,0.1-1.1-0.4-1.5-0.4c-0.3-0.1-0.7-0.2-1-0.2c-0.3-0.1-0.1-0.5-0.3-0.5
			c-0.4,0-0.3,0.3-0.6,0.3c-0.2,0.1-0.7-0.1-0.9-0.1c-0.5-0.1-1.1-0.1-1.6-0.2c-0.6-0.1-0.9,0-1.5,0c-0.6,0-1-0.5-1.6-0.6
			c-0.6-0.1-1,0.1-1.5-0.1c-0.3-0.1-0.5-0.2-0.8-0.3c-0.4-0.2-0.5,0.4-0.7-0.1c-0.2-0.4-1.3,0-1.4-0.3c-0.1-0.3-0.2-0.5-0.4-0.7
			c-0.1-0.1,0-0.5-0.1-0.7c-0.4-1.1-0.7-2-1.3-3c-0.5-0.7-2.1-1.1-2.8-0.4c-0.4,0.4-0.9,0.3-1.3,0.6c-0.2,0.2-0.2,0.4-0.5,0.5
			c-0.3,0.1-0.5,0-0.8,0.2c-0.5,0.3-0.6,0.9-1.3,0.9c-0.5,0-1.1-0.5-1.6-0.7c-0.6-0.2-0.8,0.1-1.4,0c-0.5-0.1-1-0.5-1.4-0.9
			c-0.8-0.7-2-0.9-2.7-1.7c-0.4-0.4-0.5-0.8-1-1c-0.6-0.2-1-0.7-1.6-0.7c-1.2,0-1.9-0.9-2.4-1.9c-0.3-0.5-0.3-1-0.6-1.4
			c-0.1-0.3-0.3-0.4-0.6-0.6c-0.4-0.3,0.1-0.4-0.1-0.6c-0.4-0.4-0.8-0.4-0.8-1c0-0.4-0.6-0.9-0.9-1.1c-0.2-0.2-1.6-2.2-1.7-2.2
			c-0.2,0.1-1.2,0.8-1.4,0.6c-0.4-0.4-1-0.6-1.5-0.9c-0.8-0.4,0.1-0.3,0.2-0.4c0.5-0.4-0.3-0.5-0.7-0.3c0.1,0.1,0.1,0.1,0.2,0.2
			c-0.6,0.1-0.2,0.7-0.2,1.1c0,0.5-0.6,0.4-0.9,0.5c-0.5,0.3-0.7-0.3-0.8-0.6c-0.2-0.6-0.4-0.4-0.8-0.8c-0.2-0.1-0.4-0.2-0.5-0.3
			c-0.2-0.2,0-0.5-0.1-0.8c0-0.3-0.2-0.5-0.2-0.8c0-0.5,0-0.4-0.4-0.4c-0.2,0-0.4,0-0.7,0c-0.2,0-0.1-0.4-0.1-0.6
			c-0.1-0.7-0.1-1,0-1.7c0.1-0.6,0.2-0.8-0.2-1.2c-0.3-0.3-0.7-0.7-0.8-1c-0.1-0.3-0.5-1.1-0.8-1.1c-0.3-0.1-0.4,0.3-0.6,0
			c-0.2-0.2-0.3-0.4-0.6-0.5c-0.9-0.5-1.5-1.3-2.6-1.3c-0.4,0-0.3-0.7-0.3-0.9c0-0.4-0.7-1-1-1.1c0.7-0.5-0.5-0.5-0.4-0.4
			c-0.4-0.4-0.7-0.7-1-1.1c-0.2-0.3-0.4,0-0.2-0.4c0.1-0.2,0.2-0.4,0.2-0.7c0-0.2-0.3-0.5-0.4-0.6c-0.2-0.3,0-0.3,0-0.6
			c0-0.5,0.6,0,0.5-0.5c-0.2-0.7,0.1-0.8,0.5-1.4c0.1-0.1,0.3-0.2,0.5-0.3c0.4-0.2,0.1-0.2,0.1-0.5c-0.1-0.4-0.4-0.5-0.6-0.9
			c-0.3-0.7,0.2-0.6,0.6-0.9c0.4-0.4-0.5-0.3-0.8-0.3c-0.6,0-0.6-0.1-1.1-0.4c-0.4-0.2-0.8-0.3-1-0.7c-0.2-0.6-0.4-0.8-0.7-1.1
			c-0.3-0.2-0.5-0.4-0.5-0.9c0-0.2-0.2-0.3-0.3-0.4c-0.1-0.1-0.1,0.1-0.2,0c-0.1-0.2-0.1-0.3-0.2-0.5c-0.1-0.3-0.6-1.2-0.3-1.4
			c-0.2-0.2-0.4-0.3-0.6-0.5c-0.4-0.2-0.1,0-0.3-0.4c-0.2-0.4-0.1-0.8-0.5-1.1c-0.5-0.3-0.9-0.1-0.9-0.7c0-0.4,0.2-0.3,0.3-0.6
			c0.1-0.2,0-0.4,0.2-0.7C58.3,6,57.9,6,57.9,5.6c0-0.3-0.1-0.4-0.2-0.6c0-0.2,0.1-0.5,0-0.7c-0.1-0.2-0.4-0.2-0.5-0.3
			c-0.1-0.1,0-0.4,0-0.5c0-0.1,0.1-0.3-0.1-0.3c-0.1,0-0.4-0.3-0.4-0.4c0-0.1-0.3-0.3-0.2-0.4c0,0,0.5,0,0.6,0
			c0.6,0,0.5-0.3,0.6-0.9C58,0.3,59.1,1.6,59.5,2.1"/>
		<path class="st3" d="M54.4,9.9c0.2,0,0.5-0.2,0.7-0.2c0.1,0,0.4,0.2,0.6,0.2c0.4,0,0.8,0.3,1.4,0.3c0.4,0,0.4,0,0.7-0.3
			c0.2-0.2,0.3,0.1,0.5,0.1c0.5,0,0.2,1.1,0.6,1.2c0.1,0,0.8-0.6,0.9-0.8c0.4-0.4,0.8,0.5,0.9,0.7c0.1,0.2,0.1,0.7,0.3,0.7
			c0.1,0,0.4,0.3,0.4,0.4c0,0.4,0.1,0.9,0.6,0.9c0.4,0,0.6,1.1,0.8,1.3c0.1,0.3,0.3,0.1,0.5,0.2c0.2,0.1,0.5,0.3,0.7,0.5
			c0.3,0.3,1,0.2,1.5,0.2c0.2,0,0.5,0.1,0.4,0.3c0,0.1-0.6,0.1-0.7,0.3c-0.2,0.5,0,0.9,0.4,1.2c0.3,0.2,0.1,0.2,0.2,0.5
			c0.1,0.4,0.3,0.2-0.2,0.5c-0.3,0.3-1,0.6-1,1.1c0,0.2,0.2,0.4,0.2,0.7c0,0.3-0.5-0.1-0.5,0.2c0,0.2,0.1,0.4-0.1,0.5
			c-0.2,0.2,0.2,0.4,0.3,0.6c0.1,0.2,0.3,0.3,0.1,0.6c-0.1,0.2-0.4,0.6-0.2,0.6c0.5,0.2,0.7,0.8,1.1,1.1c0.3,0.3,0.3-0.2,0.5,0
			c0.2,0.2,0.3,0.3,0,0.5c0.5,0.2,0.7,0.6,1,1c0.2,0.2-0.1,0.7,0,0.9c0.2,0.3,0.7,0.1,1,0.3c0.5,0.2,0.8,0.5,1.2,0.8
			c0.3,0.2,0.7,0.3,0.9,0.6c0.1,0.1,0.3,0.4,0.5,0.4c0.4-0.1,0.3-0.1,0.6,0c0.6,0.4,0.9,1.4,1.4,1.9c0.5,0.5,0.5,0.5,0.3,1.2
			c-0.1,0.4-0.2,0.8-0.2,1.2c0,0.2,0.1,1.2,0.2,1.2c0.4,0,1.1-0.2,1.1,0.2c0,0.5,0.2,0.9,0.2,1.4c0,0.4,0.5,0.5,0.8,0.8
			c0.1,0.1,0.3,0,0.4,0.1c0.1,0.2,0.1,0.3,0.2,0.5c0.1,0.3,0.2,0.8,0.7,0.7c-0.5,0.3-1.9-0.4-1.9,0C73.8,37.1,73.6,37,73,37
			c-0.3,0-1.4,0-1.4,0.4c0,0.8-0.7,2.3-1.3,2.9c-0.7,0.7-2.4,0.3-3.4,0.3c-0.9,0-2.3-0.1-3-0.6c-1.8-1.3-3.7-2.6-5.4-3.9
			c-1.8-1.4-3.4-3.2-5.6-4.1c-0.6-0.3-1.2-0.6-1.8-0.9c-0.6-0.3-1.1-0.9-1.7-1c-1.4-0.2-2.7-0.4-4-0.7c0.3-0.3,0.7-0.5,0.3-0.9
			c-0.6,0.5-0.7,0-0.9-0.5c0.1,0,0.1,0,0.2,0c-0.4-1-0.8-1.9-1.2-2.9c-0.2-0.6,0.5-0.6,0.9-1c0.5-0.3,0.9-0.6,1.4-0.9
			c1-0.6,2-1.3,3-1.9c0.4-0.2,1-0.3,1.1-0.9c0.1-0.6,0.5-0.9,0.4-1.5c-0.1-0.4-0.4-1.1-0.2-1.4c0.1-0.4,0.3-1.1,0.3-1.5
			c0-0.4-0.4-1-0.6-1.4c-0.2-0.3,0-1.1,0.1-1.3c0.2-0.5,1-0.3,1.4-0.6c0.4-0.3,0.6-0.8,0.9-1.1c0.4-0.4,0.4-0.7,0.8-1
			c0.3-0.2,0.4-0.2,0.5-0.6C53.9,9.7,54.1,9.7,54.4,9.9"/>
		<path class="st2" d="M34.6,25.1c0.4,0.5,0.3,1.3,0,1.8c-0.2,0.3-0.3,0.2-0.6,0.5c-0.3,0.3,0.2,0.9-0.3,0.9c-0.1,0-0.3-0.3-0.3-0.3
			c-0.1-0.1-0.4-0.1-0.6-0.1c-0.4-0.1-0.4,0.6-0.5,0.7c-0.3,0.6,0,1.3,0,2c0.3-0.3,0.4-0.1,0.6,0.1c0.3,0.3-0.1,0.3-0.3,0.4
			c-0.1,0.1-0.3,0.1-0.3,0.2c-0.1,0.1,0,0.3,0,0.3c0,0.1-0.3,0.6-0.2,0.7c0.2,0.3,1.2-0.3,1.4-0.3c0.1,0,0.5-0.3,0.5-0.1
			c0,0.3,0,0.7-0.2,1c0.6,0-0.5,2.6-0.5,3c0,0.3,0.2,0.6,0.2,0.9c0,0.3-0.2,0.6-0.2,0.9c0,0.3-0.2,0.5-0.2,0.8c0,0.4,0.1,0.7-0.2,1
			c-0.4-0.7-0.5-1.4-0.7-2c-0.1-0.4-0.3-0.7-0.5-1c-0.2-0.4-0.3-0.6-0.5-1c-0.2-0.7-0.6-1.3-0.9-2c-0.2-0.5,0.2-0.3,0.2-0.8
			c0-0.4,0.5-0.7,0.2-0.9c0.7-0.1,0.9-3.3,1-3.9c0.1-0.4,0.2-0.7,0.3-1.1c0.2-0.5,0.1-0.5,0.5-0.6c0.3-0.1,0.6,0.1,0.9-0.2
			c0.1-0.1,0-0.9,0.2-0.3c0.1-0.2,0.4-0.2,0.5-0.3c0.1-0.1,0.1-0.4,0.3-0.5c0.1,0.2,0,0.4-0.2,0.5C34.5,25,34.6,25,34.6,25.1"/>
		<path class="st2" d="M44.8,28c0.1,0.5,0.2,1,0.9,0.5c0.3,0.3,0,0.5-0.2,0.7c-0.2,0.2-0.3,0.6-0.6,0.6c-0.6,0-1.4,0.4-2,0.6
			c-0.7,0.3-1.4,0.3-2,0.6c-0.7,0.3-1.3,0.5-2,0.7c1.2,1.2,2.3,2.5,3.6,3.7c-0.3,0.1-0.8,0.3-1,0.5c-0.1,0.2-0.2,0.9-0.3,1.1
			c-0.2,0.5-1.8,0.6-2.3,0.7c-0.2,0.1-0.4,0.7-0.5,0.9c-0.2,0.4-0.4,0.7-0.8,1c-0.8,0.7-1.3,0.5-2.2,0.3c-0.5-0.1-2-0.1-2-0.6
			c0-0.8,0-1.6,0.3-2.4c0.1-0.4,0-0.8-0.1-1.2c-0.1-0.2,0.1-0.8,0.2-1.1c0.1-0.3,1-2,0.3-2c0.4-0.6,0-1.4,0.3-2
			c0.1-0.2-0.1-1.6-0.1-1.9c-0.1-0.5-0.5-1.8,0.4-1.8c0.4,0,0.5,0,0.7,0.3c0.3,0.4,0.7,0.3,1,0.6c1.3,1.3,2.7,0,3.8-0.8
			c1.2-0.9,2.4-1.6,3.6-2.5c0.4,1.1,0.9,2.1,1.4,3.2C44.9,28,44.9,28,44.8,28"/>
		<path class="st2" d="M57.4,139.5c0-0.7,0-0.8,0.5-1.3c0.3-0.3,0.6-0.6,0.8-1c0.6-0.9,1.2-1.8,1.6-2.8c-0.7,0-1.7,0.5-2.4,0.2
			c-0.4-0.2-0.8-0.8-1.1-1.1c-0.2-0.2-1.2,0.4-1.4,0.5c-0.5,0.3-1,0.5-1.5,0.8c-0.3,0.2-0.7,0.8-0.9,1.2c-0.4,0.6-0.6,0.4-1.3,0.3
			c-0.5-0.1-1-0.1-1.5-0.2c-1-0.2-2.2-0.2-3-0.9c-0.4-0.4-0.9-0.7-1.4-1c-0.5-0.2-0.7-0.7-1.2-1c-0.9-0.5-2-0.5-3-0.5
			c-0.3,0-0.5,0.1-0.6-0.3c-0.1-0.4-0.3-0.3-0.5-0.6c-0.3-0.5-0.3-1-0.2-1.5c0.1-0.5,0-1-0.5-1.1c-0.2,0-0.5-0.1-0.7-0.1
			c-0.2,0-0.2,0.2-0.5,0.2c0-0.2,0-0.3,0-0.5c-1.2,1.2-2.4,2.6-3.5,4c-0.1,0.2-0.8,0.7-0.8,0.8c0.2,0.4,0.3,0.8,0.5,1.2
			c0.1,0.3,0.3,0.6,0.6,0.7c0.5,0.2,0.4,0.4,0.4,0.9c0,0.4,0,0.9,0.3,1.2c0.2,0.2,0.1,0.9,0.3,1c0.5,0.2,0.4,0.3,0.6,0.7
			c0.1,0.1,0.1,0.4,0.2,0.4c0.1,0,0.2,0.2,0.3,0.3c0,0.1,0,0.1,0,0.2c6.2,3.6,12.9,6.3,20,8.1c0-0.7,0-1.4,0-2.1
			C57.4,144,57.4,141.8,57.4,139.5z"/>
		<path class="st2" d="M75.3,38.7c-0.7,0-0.8-1-0.3-1.4c0.3,0.3,0.5,0.7,0.7,1C75.5,38.3,75.4,38.5,75.3,38.7 M75,38.7
			c-0.1,0.4-0.2-0.1-0.3,0c-0.3,0.1-0.4,0.2-0.6,0.5c-0.5,0.5,0.4,0.8,0.6,0.4c0.5,0.4,0.3,1.2,0.7,1.6c0.2,0.2,0.5,0.5,0.6,0.8
			c0.1,0.3,0.2,0.6,0.3,0.9c-0.6,0-1.2,0-1.8,0c-0.9,0-0.9-0.4-1.2-1.1c-0.3-0.6-0.6-0.8-1.3-0.8c-0.7,0-1.3-0.2-2-0.3
			c0.5-0.5,0.8-1,1-1.6c0.2-0.7,0.3-1.5,0.9-1.8c0.4-0.2,1.4-0.2,1.8,0C74.4,37.4,74.7,38.1,75,38.7"/>
		<path class="st3" d="M35.6,19.8c0.1,0.1,0.1,0.1,0.2,0.2c-0.2,0.1-0.3,0.3-0.3,0.5c0.6,0,0.8,0.3,1,0.9c0.2,0.5-0.4,0.8-0.7,1.1
			c-0.3,0.3,0.3,0.2,0.3,0.4c0,0.2-0.3,0.2-0.4,0.1c-0.3-0.3-0.8,0.4-0.9,0.6c0.8,0.6-0.4,1.2-0.9,1.7c-0.2-0.5-0.1,0.3-0.4,0.5
			c-0.1,0.1-0.9,0.1-0.9,0c0-0.9,0.6-1.6,0.8-2.5c0.2-0.8,0.3-1.7,0.7-2.5c0,0,0.8-0.7,0.6-0.7c0.2,0,0.5,0,0.7,0
			C35.4,20,35.3,19.7,35.6,19.8"/>
		<path class="st2" d="M112.6,73.8c-0.1,0.1-0.2,0.1-0.3,0.2c0-0.7,0.4-1.3,0.7-1.9c0.1,0.4,0.3,0.6,0,0.9
			C112.7,73.2,112.6,73.5,112.6,73.8 M103.4,56.1c0.7,2.1,2.3,3.9,4.5,4.5c0.4,0.1,1.3,0,1.5,0.1c0.2,0.1,0.5,0.5,0.7,0.5
			c0.3,0,0.4-0.2,0.8-0.2c0.5,0.1,0.8,0.8,1.1,1.1c0.2,0.2,0.2,0.4,0.3,0.6c0.1,0.3,0.5,0.5,0.7,0.7c0.3,0.3,0.5,0.9,0.9,1.2
			c0.4,0.3,1.4,0.2,1.4,0.8c0,1-0.4,1.9-0.8,2.8c-0.3,0.6-0.5,1-1,1.4c-0.5,0.4-0.8,1-1,1.5c-0.2,0.5-0.4,1-0.7,1.5
			c-0.1,0.3,0.1,0.3-0.3,0.5c-0.4,0.1-0.4-0.2-0.8-0.1c0.5-0.6-0.2-1-0.5-0.3c-0.3,0.7-0.5,1-0.5,1.8c0,0.3-0.1,0.5-0.2,0.8
			c-0.2,0.5,0,0.6,0.1,1c0.2,0.6,0.2,1.3,0.4,2c-0.3-0.1-0.8,0.2-1.1,0.2c-0.4,0-0.9,0.1-1.2,0.3c-0.3,0.2-0.8,0.2-1,0.5
			c-0.4,0.5-0.4,0.7-0.5,1.4c-0.1,1.1-0.6,1.5-1.7,1.5c-0.9,0-1.6,0.2-2.2,0.9c-0.5,0.7,0.2,1.2-0.3,2c-0.3,0.5-0.5,0.5-1,0.7
			c-0.5,0.2-0.6-0.2-1.1-0.2c-0.5,0-0.8,0-1.3,0.1c-0.4,0.1-0.7,0.4-1.1,0.5c-0.4,0.1-0.6,0.4-1.1,0.4c-0.5,0.1-0.8,0.2-1.2,0.4
			c-0.5-1.5-1.4-2.9-2-4.4c-0.7-1.5-1.5-2.9-2.2-4.4c1.1-0.4,2.1-0.8,3.2-1.2c0.5-0.2,0.9-0.5,1.4-0.6c0.5-0.2,1-0.5,1.5-0.6
			c0.5-0.2,1.1-0.3,1.5-0.5c0.5-0.3,1.1-0.3,1.7-0.6c0.4-0.2,0.5-0.8,0.5-1.3c0-0.5,0.3-1,0.3-1.5c0-0.5,0.2-1.1,0.3-1.5
			c0.2-0.5,0.1-1.1,0.3-1.5c0.2-0.3,0.2-1.1,0.2-1.5c0-0.4,0.3-0.2-0.1-0.6c-0.2-0.2-0.3-0.4-0.4-0.6c-0.6-0.9-1.2-1.8-1.2-2.9
			c0-0.6,1.2-2.6,0.8-3.1c-0.2-0.2,0-0.2-0.3-0.3c0.2-0.3,0.4-0.3,0.8-0.3c0.3,0,0.4-0.2,0.7-0.2c0.5,0,0.1-0.2,0.1-0.4
			c0-0.2-0.5-0.3-0.7-0.3c0.3-0.4,0-0.5,0-0.9c0-0.3,0-0.6,0-0.9c0-0.3-0.1-0.8,0.2-0.9c0.3-0.1,0.8,0.3,0.3,0.3
			C102.5,57.7,102.9,56,103.4,56.1 M102.9,55c-0.1,0.1-0.1,0.1-0.2,0.2C102.7,54.9,102.8,54.7,102.9,55 M102.9,51c0,0.4,0,0.9,0,1.3
			c0,0.5-0.2,0.9-0.2,1.3c0,0.2-0.3,0-0.3-0.1c-0.2-0.2-0.2-0.3-0.2-0.6c0-0.4,0.2-1.1-0.3-0.9c0.1-0.3,0.1-0.5,0.3-0.7
			c0,0.1,0,0.1,0,0.2C102.6,51.4,102.5,50.9,102.9,51"/>
		<path class="st3" d="M135.5,32c0.2,0.2,0.5-0.1,0.4,0.3c0,0.2-0.4,0.4-0.6,0.4c-1.1,0.4-2.2-1-2.6,0.7c-0.1,0.2-0.6,0.4-0.8,0.8
			c-0.2,0.5,0.1,1.1,0.2,1.5c0.1,0.5-0.2,1.2,0.2,1.5c0.5,0.5-0.6,0.7-0.9,0.7c-1.1,0.3-1.9,0.9-3.1,0.9c-0.6,0-2.6-0.2-2.6,0.7
			c-0.8-0.3-1.6-0.4-2.4-0.3c-1,0.1-2.1,0.4-3,0.1c-1.7-0.5-3.4-1-5.1-1.5c0.5,0.5,1.3,1.1,1.7,1.7c0.2,0.3,0.2,0.6,0.5,0.9
			c0.2,0.3,0.5,0.6,0.7,0.9c0.4,0.6,0.9,1.3,1.6,1.5c0.3,0.1,0.7,0.1,1.1,0.2c0.2,0,0.4,0.6,0.7,0.7c0.3,0.1,0.7-0.2,0.7,0.2
			c0,0.5,0.1,0.8,0.3,1.3c0.2,0.6,0,1.5,0.2,2c0.3,0.7,1.3-0.1,1.8,0.4c0.2,0.2-0.1,0.6-0.1,0.9c0,0.2-0.2,0.4-0.2,0.5
			c0.1,0.2,0.1,0.4,0.2,0.6c-0.6,0.2-3.2-0.2-2.9,1.2c-0.3-0.3-0.5,0-0.9,0.2c-0.4,0.2-0.3,0.3-0.4,0.8c-0.2,0.5-0.3,1.1-0.3,1.7
			c0,0.5-0.2,1.5,0.3,1.7c0.4,0.1,1.6,0.3,1.6-0.3c0.4,0.4,0.5,0.2,0.9,0.2c0.4-0.1,0.6-0.2,1-0.2c0.8,0,1.6,0,2.4,0.2
			c-0.3-1.2,1.6-0.1,1.7-0.9c0.3,0.4,0.6,0.4,1,0.5c0.2,0.1,0.8,0.3,0.9,0.3c0.2,0,0.5-0.3,0.8-0.4c0.3-0.1,0.7-0.1,1-0.2
			c0.5-0.1,0.7,0,1.2,0c0.4,0.1,0.4-0.1,0.8-0.3c0.6-0.2,1.4-0.2,1.9,0c-0.2-0.2-0.3-0.3-0.6-0.3c-0.2,0-0.7,0-0.4-0.3
			c0.3-0.3,0.9,0.2,1.1,0.4c0.3,0.3,0.6,0.7,0.8,1.1c0.1,0.3-0.1,1.1,0.2,1.1c0.4,0.1,1.2,0.1,1.4,0.5c0.2,0.4,0.7,1,0.7,1.4
			c0,0.3,0.2,1.1,0.6,1.1c0.2,0,0.2,1.1,0.8,0.5c-0.1,0.5,0.6,0.5,0.7,0c0.3,0.4,0.8,0.2,0.9,0.7c0-1,1.2-0.9,1.9-0.9
			c-0.1-0.4-0.1-0.8-0.2-1.2c0.1-0.1,0.1-0.1,0.2-0.2c0.3,0.4,1.6,0.2,2.1,0.2c0.2,0,1.9,0.8,1.9,0.3c0-0.3,0.7-0.6,0.9-0.7
			c0,0,0,0,0.1,0c-0.4-1.8-0.9-3.7-1.5-5.5c0,0-0.1-0.1-0.1-0.1c-0.2-0.2-0.2-0.4-0.2-0.7c-0.2-0.6-0.4-1.2-0.6-1.9
			c-0.2,0-0.5,0-0.7-0.1c-0.2-0.1-0.4-0.2-0.6-0.4c-0.4-0.3-0.6-0.3-0.5-1c0.1-0.6,0.4-1,0.7-1.5c-2.3-5.6-5.2-10.9-8.8-15.8
			c-0.2,0.1-0.4,0.3-0.7,0.3C135.1,31.5,135.4,31.8,135.5,32z"/>
		<path class="st2" d="M30.7,32.4c-0.1,0.1-0.2,0.2-0.3,0.3c-0.4-0.4,0.3-0.9,0.5-1.4C31.2,31.6,30.7,32,30.7,32.4 M34.1,29.8
			c0.1,0.3,0.2,0.6,0.2,0.9c0,0.2-0.2,0.5-0.2,0.8c0,0.3-0.9,0.8-1.3,0.8c-0.3,0-0.5,0.1-0.6-0.2c0,0,0.2-0.8,0.2-0.9
			c0.1-0.2,0.7-0.2,0.7-0.4c0-0.4-0.4-0.5-0.7-0.3c0-0.9-0.5-1.9,0.3-2.7c0.3-0.3,0.9,0.5,1.2,0.5C34.2,28.3,34.1,29.6,34.1,29.8"/>
		<path class="st2" d="M86.7,57.4c-0.9,1.2-1.5-1.9-1.5-2.3c-0.2-0.7,0.1-1.2,0.3-1.9c0.1-0.3,0.1-0.6,0.2-0.9
			c0-0.2,0.5-0.5,0.6-0.7c0.1-0.1,1.1,1,1.2,1.2c0.1,0.1-0.1,0.7-0.1,0.9c0,0.2,0.1,0.6,0.2,0.8C88,55.5,88.1,57.7,86.7,57.4"/>
		<path class="st2" d="M59.1,86.9c0.2-0.1,0.2-0.1,0.2-0.3c0.3,0.2,0.4,0.5,0.5,0.9c-0.3,0-0.2-0.3-0.3-0.3c-0.2-0.1-0.5,0.1-0.7,0
			c-0.8-0.4,0.2-0.9-0.2-1.2C59.2,85.9,58.8,86.6,59.1,86.9 M40.7,54.5c-0.2,0-0.5-0.4-0.7-0.5c-0.3-0.2-0.8-0.2-0.7-0.7
			C39.6,53.8,40.7,53.9,40.7,54.5 M39.6,53.3c-0.2-0.1-0.2-0.4,0-0.5C39.6,53,39.6,53.2,39.6,53.3 M64.3,40.2c1.7,0.2,3.3,0.2,5,0.5
			c0.4,0.1,0.7-0.2,1.1-0.1c0.4,0.1,0.8,0.2,1.2,0.3c0.8,0.2,1.4-0.1,1.8,0.8c0.2,0.4,0.3,0.7,0.6,1.1c0.2,0.2,0.9,0.1,1.2,0.1
			c0.4,0,0.8,0,1.2,0c0.4,0,0.3,0.5,0.4,0.7c0.4,0.6,1.1,1.3,1.3,2c0,0.1-0.3,0.2-0.2,0.3c0.1,0.1,0.3,0.3,0.4,0.4
			c0.5,0.1,0.7,0.3,1.1,0.5c-0.6,0.4,1,1.2,1.3,1.5c0.4,0.4,0.6,0.5,1.1,0.8c0.4,0.2,0.6,0.5,0.8,0.8c-0.2-0.1-0.2,0-0.3-0.2
			c-0.1,0.1-0.1,0.1-0.2,0.2c0.2,0.2,0.1,0.5,0.3,0.6c0.3,0.1,0.3,0.3,0.5,0.6c0.3,0.5,0.3,1-0.4,0.9c0.2,0.5,0.6,1.7,1.1,2.1
			c0.4,0.3,0.6,0.4,0.8,1c0.2,0.6,0.2,0.7,0.6,1.2c0.4,0.4,0.7,1.6,1.3,1.6c0.2,0,0.3-0.2,0.5-0.2c0.2,0,0.3,0.2,0.5,0.2
			c0.5,0,0,0.5-0.1,0.9c0.4-0.1,0.5,0.2,0.8,0.2c0.1,0,0.1,0.6,0.2,0.8c0.1,0.2,0.4,0.4,0.6,0.6c0.2,0.3,0.4,0.6,0.7,0.9
			c0.2,0.3,0.4,0.5,0.6,0.8c0.1,0.1,0.1,0.3,0.3,0.4c0.1,0.1,0.3,0.1,0.4,0.3c0.1,0.3,0.3,0.6,0.6,0.8c0.3,0.3,0.3,0.5,0.8,0.6
			c0.6,0.1,1.4,0,2,0.2c0.8,0.3,1.6,0.2,2.4,0.4c0.7,0.2,1.5,0.2,2.2,0.2c0.6,0,1.2,0.4,1.8,0c0.1,0.3,0.3,0.4,0.5,0.6
			c0.2,0.2,0.1,0.4,0.3,0.6c0.2,0.3,0.9,1,1,1.3c0,0.1-0.2,0.6-0.2,0.8c0,0.2-0.2,0.4-0.2,0.7c0,0.5-0.3,1-0.3,1.5
			c0,0.5-0.2,1.1-0.3,1.5c-0.2,0.5-0.1,1.1-0.3,1.5c-0.2,0.4,0,1.1-0.2,1.4c-0.3,0.4-1.2,0.3-1.6,0.5c-0.5,0.3-0.9,0.5-1.5,0.6
			c-0.6,0.2-1,0.5-1.6,0.7c-1.1,0.3-2,0.9-3.1,1.1c-0.5,0.1-0.9,0.4-1.3,0.6c-0.6,0.2-1.1,0.2-1.8,0.3c-1.1,0.1-2.2,0.5-3.3,0.6
			c-1.1,0.2-2.1,0.4-3.2,0.4c-1.2,0-2,0.6-2.9,1.2c-0.2,0.1-1.3,0.6-1.4,0.7c-0.2,0.5-0.6,0.8-0.8,1.3c-0.2,0.5-0.5,0.9-0.8,1.3
			c-0.1,0.2-0.2,0.4-0.2,0.6c-0.1,0.5-0.2,0.5-0.5,0.8c-0.2,0.2-0.9,0.9-1.2,0.5c-0.2-0.3-0.6-1.1-0.9-1.1c-1.1,0-2.1,0.2-3.1,0
			c-0.6-0.1-1-0.1-1.5-0.4c-0.5-0.2-0.9-0.3-1.5-0.3c-0.5,0-1.1,0.2-1.6,0.2c-0.4,0-1.1,0-1.4,0.3c-0.2-0.3-0.5,0-0.8-0.3
			c-0.2-0.2-0.4-0.6-0.8-0.6c-0.3,0-0.5,0.3-0.7,0.5c-0.2,0.2,0,0.7-0.1,0.7c-0.7,0,0.1,1.6,0.1,1.7c0,0.1-0.1,0.3-0.3,0.3
			c-0.2,0,0,0.3-0.2,0.4c-0.3,0.3-0.5,0.5-0.8,0.8c0.1-0.5-0.3-0.8-0.3-1.3c0-0.2-0.3-0.4-0.4-0.5c-0.2-0.2-0.3-0.5-0.4-0.8
			c-0.3-0.5-0.5-0.8-0.7-1.5c-0.1-0.4-0.8-0.8-1.1-1.1c-0.3-0.3-1-0.6-1.2-1.1c-0.3-0.5-0.5-1.2-0.8-1.7c-0.2-0.3-0.4-0.5-0.6-0.7
			c-0.2-0.2,0-0.4-0.2-0.6c-0.2-0.5-0.4-1-0.6-1.5c-0.2-0.3-0.3-0.7-0.5-1c-0.1-0.2-0.3-0.2-0.4-0.4c-0.1-0.2-0.1-0.4-0.1-0.7
			c0-0.2-0.5-0.2-0.6-0.4c-0.4-0.5-0.8-0.9-1.4-1.3c-0.5-0.4-0.9-0.2-1.4-0.6c-0.7-0.7-1.4-1.7-1.9-2.6c-0.2-0.3-0.3-0.6-0.5-0.9
			c-0.1-0.2,0.2-0.4,0-0.6c-0.1-0.3-0.6-1.2-0.6-1.5c0-0.3,0-0.7,0-1c0-0.3,0.2-0.5,0.2-0.8c-0.1-0.6-0.2-1.5-0.7-1.8
			c0.1,0,0.1,0,0.2,0c-0.3-0.4-0.5-0.8-0.7-1.3c-0.2-0.6-0.6-1-0.9-1.5c-0.3-0.4-0.5-1-0.9-1.3c-0.3-0.2-0.5-0.4-0.8-0.5
			c-0.1-0.1-0.1-0.2-0.2-0.3c-0.1-0.2-0.2,0-0.4-0.1c-0.3-0.2-0.2-0.3-0.6-0.3c-0.3,0-0.4,0.1-0.5-0.2c-0.3-0.5-0.6-1-0.9-1.5
			c-0.1-0.2-0.3-0.4-0.2-0.6c0.2-0.3,0-0.3,0-0.7c0-0.5-0.5-1-0.8-1.4c-0.1-0.2-0.3-0.5-0.4-0.7c-0.1-0.1-0.5-0.3-0.5-0.4
			c-0.1-0.3-0.2-0.6-0.3-0.9c-0.1-0.2-0.4-0.2-0.6-0.4c-0.3-0.6-0.6-1.2-1-1.8c-0.1-0.2-0.3-0.3-0.4-0.5c-0.2-0.2-0.2-0.5-0.3-0.7
			c-0.4-0.5-0.6-0.8-1-1.3c-0.4-0.6-0.7-0.8-1-1.5c-0.4-1-1.2-1.8-2.3-1.8c-0.2,0-0.4,0-0.6,0.2c-0.1-0.4,0.2-0.7,0.2-1
			c0.1-0.5,0.1-0.9,0.1-1.3c0-0.8,0.2-1.7,0.3-2.5c0.9,0.2,1.9,0.3,2.9,0.5c1,0.2,1.8-0.7,2.2-1.5c0.3-0.5,0.3-0.8,0.9-1
			c0.5-0.1,1-0.2,1.5-0.3c0.5-0.1,0.6-0.7,0.7-1.2c0.1-0.4,0.6-0.5,1-0.8c-1.2-1.2-2.3-2.5-3.6-3.7c1.1-0.3,2.1-0.8,3.2-1
			c0.5-0.1,0.9-0.3,1.3-0.5c0.3-0.1,1.5-0.3,1.6-0.5c0.4-0.6,0.5-0.4,1.2-0.3c0.6,0.1,1.2,0.2,1.8,0.3c0.5,0.1,1,0,1.4,0.2
			c0.5,0.3,0.9,0.6,1.5,0.9c2.1,1,4.1,2.1,5.8,3.7c1.7,1.5,3.6,2.8,5.4,4.1C62.9,39.2,63.5,39.7,64.3,40.2"/>
		<path class="st2" d="M30,135.3c0.2,0,0.3,0,0.5-0.1c0.5-0.2,0.6-0.2,1.1,0.1c0.1,0.1,1.1,0.1,1.2,0c0.2-0.1,0.5-0.5,0.7-0.7
			c0.5-0.5,1.1-1.2,1.6-1.8c1.1-1.3,2.3-2.7,3.5-4c-0.2,0-0.2-0.1-0.3-0.3c-0.2-0.5-0.7-0.7-0.7-1.4c0-0.5-0.3-0.9-0.5-1.5
			c-0.3-1-0.8-2-1.8-2.5c-0.3-0.1-0.9-0.9-0.9-1.1c0-0.5-0.5-0.9-0.9-1.2c-0.5-0.4-2.5-0.3-2.5-1.2c0-0.5,0.5-1.1,0.7-1.5
			c0.2-0.5,0.9-0.5,1.3-0.3c0.5,0.2,1.2-0.1,1.4-0.5c0.3-0.4,0.1-0.9,0.1-1.4c-0.1-1-0.1-2,0.1-3.1c0.1-0.4,0.5-1,0.5-1.5
			c0-0.5-0.2-1-0.2-1.4c0-0.7,0.5-0.9,0.9-1.3c0.2-0.2,0.7,0.7,1.1,0.3c0.3-0.3-0.1-0.4,0-0.8c0.1-0.3,0.2-0.6,0.2-0.9
			c0-0.5,0.3-1,0.3-1.5c0-1,1-1.9,1.3-2.8c0.2-0.5,0.5-1,1.1-1.2c0.5-0.2,0.9,0.3,0.9-0.4c0-0.6,0.2-1.1,0.4-1.7
			c0.1-0.2,0.1-0.6,0.1-0.8c0.1-0.2,0.3-0.3,0.4-0.6c0-0.3,0.2-0.6,0.1-0.9c-0.1-0.3-0.1-0.4,0-0.8c0.2-0.7,0.2-1,0.1-1.7
			c-0.1-0.5-0.1-1-0.2-1.6c0-0.2-0.2-0.6-0.1-0.7c0.2-0.2,0.3-0.5,0.4-0.7c0.3-0.5,0.1-1.2,0.3-1.7c0.2-0.4,0.4-0.8,0.4-1.3
			c0.1-0.7,0.1-1.2,0-1.8c0-0.2,0.2-0.5,0.3-0.7c0.1-0.2,0-0.5,0-0.7c0-0.7,0.7,0,1.2-0.2c0.4-0.2,0.3-1.2,0.8-1.2
			c0.5,0,0.7-0.7,1.2-0.7c0.5,0,0.6,0,0.9-0.3c0.3-0.4,0.4-0.7,0.7-1.2c0.2-0.3,0.5,0,0.2-0.5c-0.1-0.2-0.6-0.4-0.8-0.5
			c-0.2-0.1-0.4-0.2-0.6-0.3c-0.2-0.1-0.2-0.4-0.4-0.5c-0.4-0.4-0.8-0.8-1.3-1c-1-0.5-1.1-2-1.4-3.1c-0.1-0.5-0.1-1.1-0.2-1.6
			c-0.1-0.6-0.2-1.1-0.2-1.7c0-0.6-0.1-1.1-0.3-1.7c-0.1-0.3-0.2-1.3,0.3-0.8c0-0.8-1.1-1.6-1.3-2.5c-0.1-0.5,0.2-1.1-0.4-1.1
			c-0.5,0-0.9,0-1.4,0c-1.8,0-3.6,0-5.5,0c-1.8,0-3.6,0-5.4,0c-0.8,0-1.7,0-2.5,0c-0.5,0-1.1,0-1.6,0c-0.3,0-1,0.2-0.8-0.3
			c0.1-0.6-0.3-0.3-0.5,0c-0.2,0.4-0.4,0.3-0.8,0.3c-1,0-1.9,0-2.9,0c-1.9,0-3.7,0-5.6,0c-3.7,0-7.4,0-11.1,0c0.2,2.5,0.1,5,0.3,7.5
			c-0.8,0-1.6,0-2.4,0c-0.4,0-0.6,0-0.7,0c0,0.2,0,0.4,0,0.6C0.1,99.8,11.8,121.5,30,135.3z"/>
		<path class="st2" d="M67.7,110.2c0.4,0.3,1.2,0.2,1.7,0.2c0.7,0,0.9-0.3,1.5-0.7c0.4-0.3,0.9-0.5,1.4-0.7c0.5-0.2,1.1,0,1.7,0
			c0.4,0,0.9,0.3,1.4,0.1c0.6-0.3,1.2-0.5,1.7-1c0.8-0.8,2-0.2,3-0.4c0.5-0.1,1-0.3,1.5-0.6c0.2-0.1,1.4-0.1,1.4,0.3
			c0,1.1,0.2,2.1,0.2,3.1c0,0.6,0,1.2,0,1.8c0,0.5,0.3,1.1,0.2,1.6c-0.3,1.1-1.3,2-1.7,2.9c-0.2,0.6-0.5,1.1-0.8,1.6
			c-0.4,0.7-0.4,0.9-1.2,0.9c-0.9,0-2.1,0.2-3-0.1c-2.2-0.7-4.3-1.7-6.5-2.4c-0.9-0.3-2.3-0.6-3.1-1.2c-0.4-0.3-0.8-0.8-1.2-1.2
			c-0.3-0.3-0.7-0.5-1-1c-0.3-0.4-0.3-1-0.8-1.2c-0.2-0.1-0.8-1-0.9-1.2c-0.2-0.3-0.5-1.1-0.5-1.4c0-0.4,0.5-1,0.7-1.4
			c0.3-0.7,0.8-1.3,1-2c0.6,0.6,1,1.5,1.6,2.1C66.3,109.1,67,109.6,67.7,110.2"/>
		<path class="st2" d="M89.8,110.4c0.3,0,0.6-0.2,0.5-0.5c0.2,0.1,1.2,0.7,0.4,0.7c-0.3,0-0.3-0.2-0.7-0.1c-0.3,0.1-0.6,0.1-0.6,0.5
			c0,0.5,0.1,1,0,1.4c-0.1,0.5,0,1.2-0.1,1.7c-0.3,1.1-1.1,2-1.5,3c-0.2,0.5-0.4,1-0.6,1.5c-0.2,0.4-0.9,0.7-0.9,1.1
			c-0.2,1.2-0.7,2.1-1.3,3.2c-0.6,0.9-0.8,2.1-1,3.2c-0.2,0.9-0.8,2.1-1.3,2.9c-0.7,1.1-1.4,2.1-1.9,3.3c-0.5,0.9-1.2,1.7-1.8,2.5
			c-0.7,0.9-1.4,1.8-2.2,2.7c-0.9,0.9-1.7,1.9-2.6,2.8c-0.9,0.9-2.1,1.6-3.2,2.3c-1.9,1.2-3.3,2.9-4.9,4.5c-1.6,1.6-3,3.5-4.3,5.2
			c-0.9,1.1-1.4,2.4-2.2,3.6c0.1-1-1-1.8-1.5-2.6c-0.6-0.9-0.4-2.1-0.4-3.1c0-2.4,0-4.8,0-7.2c0-1.2,0-2.3,0-3.5
			c0-0.7,0.1-0.7,0.5-1.2c0.4-0.5,0.7-1,1.1-1.5c0.5-0.8,1-2.3,1.8-2.7c0.7-0.4,2.9-0.1,2.9-1.1c0-0.8,2-1.6,2.5-1.7
			c0.4-0.1,0.9-0.3,1.3-0.2c0.6,0.1,1.2,0.1,1.8,0.1c0.8,0,0.9,0.1,1.4-0.6c0.4-0.5,0.7-1,1-1.4c0.7-0.9,1.5-1.8,2.2-2.7
			c0.7-0.8,1.4-1.6,2.1-2.4c0.7-0.9,1.5-1.8,2.2-2.7c0.8-0.9,1.6-1.6,2.2-2.7c0.5-0.9,1.1-1.9,1.6-2.8c0.5-0.9,1.1-1.6,0.9-2.7
			c-0.2-0.9-0.1-1.9-0.1-2.9c0-1-0.2-1.9-0.2-2.9c0-0.1,2.3-0.7,2.5-0.8c1-0.2,2-0.4,2.5-1.4c0.2-0.3,0.7-0.7,1-0.6
			c0.2,0.1,1.3,0.3,1.4,0.5c0.3,0.4-0.3,0.9-0.3,1.2c-0.1,0.4,0,1.1,0,1.5C90,108.6,90.5,109.9,89.8,110.4"/>
		<path class="st2" d="M52.8,10.8c0,0.5-0.5,0.7-0.7,1.1c-0.3,0.5-0.7,0.8-1.2,1c-0.7,0.2-0.9,0.3-0.9,1c-0.1,0.6,0.2,0.9,0.4,1.4
			c0.1,0.2,0.3,0.5,0.3,0.7c0,0.3-0.2,0.4-0.2,0.7c0,0.7-0.1,1.1,0,1.7c0.2,0.9,0.1,2.1-0.8,2.6c-2.1,1-4,2.5-6,3.7
			c-1,0.7-1.9,1.3-2.9,2c-0.4,0.3-0.8,0.6-1.2,0.9c-0.4,0.3-1.1,0.9-1.5,1c-0.5,0.1-1.2-0.2-1.6-0.5c-0.3-0.2-0.5-0.3-0.9-0.4
			c-0.2-0.1-0.3-0.5-0.5-0.6c-0.2-0.2-0.4,0.1-0.4-0.3c0-0.3,0.5-0.5,0.3-0.8c-0.3-0.3,0-0.9-0.4-1.3c0.1-0.1,0.3-0.6,0.3-0.8
			c0-0.2,0.2,0,0.2-0.2c0-0.1-0.2-0.3-0.3-0.4c0.1-0.3,0.5-0.6,0.9-0.7c0,0,0.5,0.4,0.5,0.1c0-0.2-0.6-0.2-0.3-0.5
			c0.2-0.2,0.9-0.6,0.7-1c-0.2-0.6-0.3-1-1-1c0.1-0.2,0.2-0.4,0.3-0.5c-0.3-0.4-0.7,0-1.1,0c-0.4,0-0.8-0.9-0.8-1.3
			c0-0.4,0.1-1.1,0-1.4c-0.1-0.2-0.4-0.5-0.5-0.7c-0.2-0.3-0.1-0.5,0-0.9c0.2-0.9,0.4-0.1,0.9-0.2c0.4,0,0-0.3,0.2-0.5
			c0.2-0.2,0.5,0,0.5-0.4c0-0.8,0.6-0.4,0.7-0.8c0-0.2-0.3-0.5-0.3-0.7c-0.1-0.2-0.1-0.7,0-0.9c0.1-0.3-0.1-0.3,0.3-0.3
			c0.2,0,0.6-0.1,0.8,0c0.2,0.1,0.2,0.4,0.5,0.5c0.2,0.1,0.7,0,0.9,0c0.5-0.1,0.9-0.3,1.4-0.5c0.3-0.1,0.4,0,0.7-0.3
			c0.4-0.3,0.4-0.2,0.9-0.1c0.4,0.1,0.8,0.3,1.2,0.5c0.5,0.2,1,0.2,1.6,0.2c1.2,0,2.2-0.4,3.3-1c0.5-0.3,0.9-0.6,1.5-0.6
			c0.3,0,0.7,0,0.9,0c0.3,0,0.5,0.2,0.8,0.1c0.6-0.2,1.3-0.2,1.9-0.4c0.3-0.1,0.3-0.4,0.6-0.4C52.7,10,52.7,10.5,52.8,10.8"/>
		<g>
			<path class="st3" d="M84.7,4.6c0-0.1,0-0.1,0-0.2c-0.1-0.4-0.5-0.8-0.2-1.2C84.1,3.3,84.6,4.3,84.7,4.6z"/>
			<path class="st3" d="M85.1,1c0.2,0.3,0.5,0.3,0.6,0.8c-0.5,0-0.9,0-1.2-0.3c-0.1,0.5-0.3,0.9,0,1.4c0.7-0.9,1.6,0.3,2,0.7
				c0.6,0.6,0.9,1.9,0.9,2.6c0,1,0.3,2,0.6,3c0.1,0.3,0.2,0.5,0.2,0.8c0,0.2,0.6,0.1,0.8,0.1c0.3,0,1-0.2,1.3-0.3
				C90.9,9.4,90.9,9,91,8.4c0.1-0.5,0.5-0.6,0.9-0.9C92.3,7.2,92.7,7,93.3,7c0.5,0,1,0.3,1.5,0.2c0.3-0.1,0.2,0,0.3-0.2
				c0.1-0.1-0.1-0.5,0.3-0.5c0.3,0,0.9-0.1,1.2,0c0.5,0.2,1-0.1,1.4,0.1c0.2,0.1,0.3,0.4,0.3,0.6c0,0.3,0,0.1,0.2,0.3
				c0.3,0.3,1.2,0.2,1.6,0.3c0.5,0.1,0.9,0.5,1.2,0.8c0.3,0.3,1-0.2,1.3,0c0.2,0.1,0.4-0.1,0.7,0c0.3,0.1,0.5,0.2,0.8,0.3
				c0.2,0.1,0.6,0.2,0.8,0.3c0.2,0.2,0.1,0.5,0.3,0.6c0.4,0.4,0.8,0.5,1.3,0.7c0.6,0.2,0.9,0.5,1.4,1c0.4,0.3,0.6,0.8,1.1,0.8
				c0.6,0,1.3,0,1.9,0c0.4,0,0.5,1,0.6,1.3c0.1,0.4,0.1,0.9,0.2,1.3c0,0,0.3,0.3,0.4,0.4c0.1,0.2,0.1,0.4,0.1,0.7
				c0-0.1,0.9,0.7,1,0.8c0.2,0.1,0.4,0.2,0.7,0.2c0.2,0,0.6-0.2,0.7-0.2c0.2,0,1,0.6,1.1,0.8c0.2,0.5,0.2,0.1,0.5,0.1
				c0.2,0,0.1-0.2,0.3-0.1c0.1,0.1,0.2,0.1,0.3,0.1c0.3,0,1-0.5,1.2-0.8c0.2-0.2,0.1-0.5,0.1-0.7c0-0.1,0.2-0.2,0.2-0.3
				c0-0.1-0.2-0.1-0.2-0.3c0-0.3-0.3-0.4,0.3-0.4c0.3,0,0.5-0.1,0.8-0.2c0.3-0.1,0.6-0.2,1-0.3c-10-7.5-22-12.4-35-14.1
				C85,0.9,85,0.9,85.1,1z"/>
			<path class="st3" d="M83.6,0.6c0,0-0.1,0-0.1,0c0.1,0.1,0.2,0.2,0.3,0.3C83.8,0.8,83.7,0.7,83.6,0.6z"/>
		</g>
		<path class="st3" d="M34,12.6c-0.3,0.3-1,0.8-0.8,1.2c0.2,0.4,0.8,1,0.4,1.4c0.1,0,0.1,0,0.2,0c0.1,0.1,0.5,0.4,0.7,0.3
			c0,0,0-0.4,0-0.4c0-0.2,0.1,0,0.2-0.1c0.2-0.4,0.3,0,0.3-0.6c0-0.3,0.1-0.4,0.4-0.4c0.6,0,0-0.7-0.1-1c0-0.2,0-0.5,0-0.8
			c0-0.3,0.1-0.3,0.4-0.3c0.4,0,0.6-0.1,0.7,0.3c0.1,0.2,0.4,0.3,0.6,0.3c0.6,0,0.8-0.1,1.4-0.3c0.6-0.2,1-0.3,1.6-0.7
			c0.2-0.1,1,0.2,1.2,0.4c2,1.3,4.3,0,6.1-0.9c0.5-0.3,1.1-0.2,1.6-0.2c0.2,0,0.4,0.2,0.7,0.2c0.2,0,0.4-0.1,0.7-0.2
			c0.4-0.1,1.5-0.1,1.7-0.4c0.3-0.7,0.7,0,0.8,0.4c0.5-0.2,0.8-0.4,1-0.9c0,0,0.9,0,1.1-0.1c0.1,0,0.9,0.2,1.1,0.3
			c0.4,0.2,0.7,0.2,1.1,0.2c0.3,0,0.3-0.3,0.6-0.3c0.2,0,0.2,0.2,0.4,0.2c0.4,0,0.2,0.8,0.4,1c0.3,0.3,0.5-0.1,0.9-0.3
			c0.4-0.3,0.3-0.3,0.8-0.2c-0.2-0.2-0.2-0.4,0-0.5c-0.2-0.2-0.5-0.3-0.7-0.5c-0.1-0.1-0.2-0.1-0.2-0.4c0,0-0.1-0.5-0.2-0.6
			c-0.1-0.2-0.2-0.3-0.5-0.5c-0.1-0.1-0.7-0.2-0.7-0.2c-0.1-0.1,0-0.5,0-0.6c0-0.2,0.3-0.3,0.3-0.5c0-0.2,0-0.4,0.2-0.6
			c-0.8-0.3-0.9-0.9-0.9-1.8c0-0.2-0.3-0.3-0.4-0.4c-0.2-0.1,0-0.2-0.1-0.4c0-0.1,0-0.3,0-0.4C57.3,3,57.1,3.1,57,3
			c-0.1-0.1-0.3-0.3-0.4-0.5C48.5,4.6,40.9,8,34,12.5C34,12.5,34,12.6,34,12.6z"/>
		<path class="st3" d="M99.6,102.1c-0.4,0-0.8,0.2-1.1,0.2c-0.3-0.2-0.6-0.5-0.9-0.3c-0.3,0.2-0.3,0.4-0.6,0.6
			c0.4,0.2,0.7,0.3,1,0.6c0.2,0.2,0.9,0.1,1.1,0.1c0.7,0,1.4-0.3,1.9-0.9C100.5,102.3,100.1,102.1,99.6,102.1z"/>
		<path class="st4" d="M94.6,85.7c-0.3-0.9-0.9-1.9-1.3-2.8c-0.5-0.9-0.8-1.8-1.4-2.6c-0.3-0.4-0.4-1-0.6-1.4
			c-0.1-0.3-0.1-0.5-0.5-0.4c-0.3,0.1-0.6,0.1-0.9,0.1c-1,0-2,0.4-2.9,0.5c-1.1,0.2-2.2,0.5-3.3,0.5c-1.3,0-2.1,0.4-3.2,1.1
			c-0.4,0.3-1.2,0.5-1.5,0.8c-0.2,0.2-0.6,0.9-0.8,1.2c-0.3,0.5-0.6,1-0.9,1.5c-0.3,0.4-0.1,1.1-0.6,1.4c-0.2,0.1-0.7,0.6-1.1,0.6
			c-0.1,0-0.2,0-0.3-0.1c-0.2-0.3-0.6-1.1-0.9-1.1c-1.1,0-2.1,0.2-3.1,0c-0.6-0.1-1.1-0.2-1.7-0.5c-0.4-0.2-0.8-0.2-1.3-0.2
			c-0.6,0-1.1,0.2-1.7,0.2c-0.3,0-1.1,0.1-1.3,0.3c-0.2-0.3-0.4,0-0.7-0.2c-0.2-0.1-0.2-0.5-0.4-0.5c-0.3,0-0.5-0.3-0.7-0.1
			c-0.2,0.2-0.4,0.4-0.5,0.5c-0.2,0.2,0.2,0.3,0.1,0.6c0,0-0.3,0.2-0.3,0.4c0,0.2-0.1,0.5,0,0.7c0.1,0.2,0.3,0.4,0.3,0.6
			c-0.1,0.4-0.3,0.2-0.3,0.6c0,0.2-0.3,0.3-0.4,0.5c-0.6,0.6-0.4,0.7-0.3,1.5c0.1,0.5-0.4,1.1-0.3,1.6c0.1,0.5,0.4,1,0.3,1.5
			c-0.2-0.3-0.3-0.2-0.5,0.1c-0.1,0.2,0.4,0.3,0.6,0.4c0.3,0.1,0.3,0.8,0.4,1c0.1,0.4,0.3,0.8,0.3,1.2c0.1,0.4,0.3,0.9,0.3,1.3
			c0,0.7,0.3,0.8,0.5,1.4c0.2,0.5,0.1,0.9,0.1,1.5c0,0.7,0.5,1.3,0.7,1.9c0.1,0.2,0.2,0.5,0.2,0.8c0.6-0.2,0.9,0,1.4,0.3
			c0.3,0.1,0.9-0.1,1.2-0.1c0.5,0,0.9-0.6,1.4-0.4c0.3,0.1,1.1-0.2,1.2-0.4c0.2-0.5,0.7-0.4,1-0.8c0.2-0.3,0.6-0.9,1-1
			c1-0.2,1.8-0.3,2.8-0.3c0.9,0,2.4-0.6,3.1-1.3c0.3-0.3,0.4-0.3,0.8-0.5c0.3-0.1,0.3-0.4,0.5-0.5c0.4-0.2,1,0.2,1.4,0.1
			c0.6-0.2,0.8,0,1.3-0.5c0.4-0.4,0.5-0.9,0.9-1.2c0.6-0.6,2.1-1.4,2.9-1.4c0.7,0,1-0.3,1.6-0.6c0.5-0.3,1.1-0.3,1.7-0.4
			c1-0.2,2-0.8,2.8-1.3c0.5-0.3,1-0.4,1-1.1c0-0.2-0.2-0.5-0.2-0.7c0.1-0.3,0.1-0.5,0.2-0.8c0.3-1.1,1.6-1.4,2.6-1.7
			C95.1,86.7,94.9,86.2,94.6,85.7z"/>
	</g>
</g>
<ellipse transform="matrix(0.7071 -0.7071 0.7071 0.7071 -31.1967 75.3208)" class="st5" cx="75.3" cy="75.3" rx="70.2" ry="70.2"/>
</svg>
