<svg xmlns="http://www.w3.org/2000/svg" viewBox="0 0 32.83 32.83"><defs><style>.cls-1{fill:#ebedfa;stroke:#1f2e7a;stroke-miterlimit:10;}.cls-2{fill:#1f2e7a;}</style></defs><g id="Layer_2" data-name="Layer 2"><g id="Content"><path class="cls-1" d="M16.41,32.33A15.92,15.92,0,1,0,.5,16.41,15.92,15.92,0,0,0,16.41,32.33"/><path class="cls-2" d="M22.66,20.23a8.16,8.16,0,0,0-2.43-.35,8.38,8.38,0,0,0-3.82,1V13a8.38,8.38,0,0,1,3.82-1,8.16,8.16,0,0,1,2.43.34Zm0-9.37a8.3,8.3,0,0,0-2.43-.34,6.5,6.5,0,0,0-3.82,1,6.45,6.45,0,0,0-3.81-1,6.5,6.5,0,0,0-3.82,1V21.72a.38.38,0,0,0,.35.35c.07,0,.1,0,.17,0a8.5,8.5,0,0,1,3.3-.76,6.45,6.45,0,0,1,3.81,1,8.38,8.38,0,0,1,3.82-1,7.12,7.12,0,0,1,3.3.73.34.34,0,0,0,.17,0,.38.38,0,0,0,.35-.34V11.56a5,5,0,0,0-1.39-.7"/></g></g></svg>