<!-- Generator: Adobe Illustrator 24.2.3, SVG Export Plug-In  -->
<svg version="1.1" xmlns="http://www.w3.org/2000/svg" xmlns:xlink="http://www.w3.org/1999/xlink" x="0px" y="0px" width="156.1px"
	 height="150.7px" viewBox="0 0 156.1 150.7" style="overflow:visible;enable-background:new 0 0 156.1 150.7;"
	 xml:space="preserve">
<style type="text/css">
	.st0{clip-path:url(#SVGID_2_);fill:#FFFFFF;}
	.st1{clip-path:url(#SVGID_2_);}
	.st2{fill:#B3B3B3;stroke:#FFFFFF;stroke-width:0.2777;stroke-linecap:round;stroke-linejoin:round;}
	.st3{fill:#B3B3B3;stroke:#FFFFFF;stroke-width:0.3996;stroke-linejoin:round;stroke-miterlimit:10;}
	.st4{fill:#B3B3B3;}
	.st5{fill:none;stroke:#141F52;stroke-width:0.75;stroke-linecap:round;stroke-linejoin:round;}
	.st6{fill:none;stroke:#FFFFFF;stroke-miterlimit:10;}
	.st7{clip-path:url(#SVGID_4_);fill:#FFFFFF;}
	.st8{clip-path:url(#SVGID_4_);}
</style>
<defs>
</defs>
<g>
	<defs>
		
			<ellipse id="SVGID_1_" transform="matrix(0.7071 -0.7071 0.7071 0.7071 -29.6681 79.1405)" cx="80.7" cy="75.4" rx="70.2" ry="70.2"/>
	</defs>
	<clipPath id="SVGID_2_">
		<use xlink:href="#SVGID_1_"  style="overflow:visible;"/>
	</clipPath>
	
		<ellipse transform="matrix(0.7071 -0.7071 0.7071 0.7071 -29.6681 79.1405)" class="st0" cx="80.7" cy="75.4" rx="70.2" ry="70.2"/>
	<g class="st1">
		<path class="st2" d="M48,64.5c0.4,0,1-0.2,1,0.3c0,0.7,0.2,1.4,0.2,2c0,0.6,1,3,1.9,2.1c0.4-0.4,0.7-0.8,1.4-0.9
			c0.4-0.1,0.7,0,0.7-0.4c0.1-0.3,0.2-0.6,0.5-0.8c0.7-0.4,1.1-0.7,1.9-0.7c0.2,0,1,0.7,0.3,0.7c0.3,0.3,0.7,0.1,1,0
			c0.2-0.1,0.3-0.2,0.6-0.2c0.2,0,0-0.3,0.3-0.3c0.3,0,0.7,0.2,1.1,0.2c0.5,0,0.6,0.2,0.9,0.5c-0.3,0.1-0.4-0.2-0.7-0.2
			c-0.3,0-0.6,0.4-0.9,0.5c0.4,0,0.7,0.4,0.5,0.7c0,0-1.2,0.5-1.2,0.5c-0.1,0-0.4-0.2-0.6-0.2c-0.2,0-0.3,0-0.5,0c-0.5,0-1,0-1.5,0
			c-0.7,0-1.6,0.1-2.3,0.4c-0.4,0.2-0.7,0.2-1,0.5c-0.2,0.2-0.3,0.3-0.5,0.4C51,69.8,51,70,50.9,70.1c-0.1,0.1-0.3,0-0.5,0.2
			c-0.1,0.1-0.2,0.4-0.3,0.5c-0.2,0.2-0.8,0.7-0.3,0.9c0.7,0.2,1.3,1.3,1.6,1.9c0.1,0.3-0.1,0.6,0.1,0.9c0.3,0.3,0.2,0.5,0,0.9
			c-0.1,0.3-0.3,0.2-0.5,0.4c-0.1,0.2-0.1,0.3-0.2,0.5c-0.1,0.2-0.3,0.2-0.3,0.4c0,0.3,0,0.4-0.3,0.4c0.4,0.3,0.6,0.7,0.7,1.2
			c0.1,0.3,0.3,0.4,0,0.7c-0.1,0.2-0.7,0.2-1,0.3c-0.5,0.1-1,0-1.4-0.1c-0.3-0.1-1.4-0.4-1.2,0.3c0.1,0.4,0.9,0.7,1.2,1
			c0.1,0.2,0.7,1.2,0.6,1.2c-0.5,0.3-0.9,0.6-1.4,0.8c-0.8,0.2-0.7,0.2-0.7,1.1c0,0.2-0.2,0.1-0.1,0.3c0.1,0.1,0.1,0.2,0.1,0.3
			c-0.1,0.3-0.3,0.4-0.3,0.7c0,0.6,0.3,1.3,0.5,1.8c0.1,0.4-0.4,1-0.7,1.1c-0.6,0.3-0.7,0.1-1.2-0.4c-0.3-0.3-0.4,0.1-0.6,0.1
			c-0.2,0-0.6-0.2-0.7-0.2c-0.3,0.1-0.3,0.2-0.5,0.4c-0.1,0.3-0.6,0.4-0.8,0.6c-0.1,0.1-0.5-0.1-0.6,0.2c0,0.2,0.5,0.3,0.6,0.3
			c0.3,0-0.1,0.4-0.2,0.4c-0.2,0.2-0.6,0.3-0.9,0.3c-0.6,0-1.2-0.6-1.8-0.2c-0.3,0.2-0.2,0.6-0.3,0.9c-0.1,0.1-0.3,0.2-0.5,0.3
			c-0.5,0.5-0.3,1.1-0.2,1.8c0.1,0.3,0.1,0.6,0.2,1c0,0.2-0.2,0.2-0.1,0.4c0,0.1,0.3,0.4,0.3,0.4c0.1,0.7-0.9,0.6-1.4,0.8
			c-0.7,0.3-1.3,0.5-2,0.7c-0.5,0.1-1.2,0-1.6,0c-0.4,0-1.6,0.1-1.6,0.7C31.8,96.1,31,96,30.3,96c-0.9,0.1-2.3,0.6-3.1,0.2
			c-0.8-0.4-1.9-0.5-2.7-0.8c-0.8-0.3-1.6-0.5-2.5-0.8c0.4-0.6,0.9-1.2,1.2-1.9c0.2-0.3,0.3-0.7,0.5-1c0.2-0.3,0.6-0.6,0.7-1
			c0-0.4-0.4-1.8-0.9-1.9c-0.8-0.1-1.6-0.1-2.3-0.3c-0.4-0.1-0.4-0.2-0.5-0.6c-0.1-0.3-0.2-0.7-0.2-1c0-0.9-0.2-1.4-0.6-2.2
			c-0.2-0.6-0.4-1.4-0.9-1.9c-0.4-0.4,0.5-1.5,0.8-1.8c-0.3-0.3-0.7-0.1-1.1-0.3c-0.5-0.2-0.3-0.6-0.4-1.1c-0.1-0.6-0.4-0.7-0.2-1.3
			c0.2-0.6,0.5-0.4,1-0.4c-0.2-0.2-0.3-0.4-0.5-0.6c0,0-0.2-0.2-0.2-0.1c0-0.3,0.1-0.1,0.2-0.2c0.1-0.3,0.3-0.2,0.3-0.6
			c0-0.2,0.2-0.5,0.3-0.6c-0.3-0.2,0.1-1.2-0.3-1.5c0.9,0-0.4-2.2,1-0.9c0.3,0.3,0.9,0.5,1.3,0.3c0.7-0.4,0.6,0.6,1.2,0.6
			c0.2,0,0.2,0.3,0.4,0.3c0.3,0,0.1-0.4,0.6-0.2c0.4,0.2,0.9-0.4,1.2-0.6c0.2-0.1,0.4-1.1,0.3-1.2c-0.6-0.6,0.2-0.5,0.7-0.7
			c0.5-0.2,1-0.3,1.4-0.4c0.4-0.1,0.2,0,0.4-0.3c0.2-0.2,0.4-0.4,0.7-0.6c0.9-0.6,0.6-2.1,0.6-3c0-0.5,0.7-0.8,1.1-0.8
			c0.6,0,1.3,0.2,1.3-0.6c0-0.6,0.2-0.6,0.7-0.4c0.6,0.2,1.2,0.3,1.7,0.6c0.3,0.2,0.8,0,1.1-0.1c0.4-0.1,0.8,0.1,1.2,0.4
			c0.2,0.1,0.3,0.1,0.4,0.2c0.3,0.1,0.3-0.1,0.6-0.1c0.1-0.1,0.1-0.1,0.2-0.2c0.1,0,0.2,0.2,0.3,0.2c0.2,0,0.2,0.1,0.4,0.2
			c0.5,0.3,0.9,1.3,1.7,0.7c0.2-0.2,0.2-0.5,0.6-0.6c0.3-0.1,0.7-0.5,0.9-0.3c0.1-0.3,0.5-0.5,0.9-0.1c0.3,0.3,1,1.1,1,0.2
			c0-0.6-0.5-1.2,0.3-1.4c0.2-0.1,0.7,0,0.9,0c0.2,0,0.3,0.3,0.6,0.2c0.8-0.3-0.3-1.1,0.1-1.4c0.5-0.5,0.5-0.9,0.8-1.5
			c0.4-0.8,1.2-0.2,1.7,0.1C47.9,63.4,48,63.7,48,64.5"/>
		<path class="st2" d="M2.5,115.7c0,0.3-0.7,0.2-1,0.2C1.8,115.6,2.2,115.5,2.5,115.7 M0.5,115.6c-0.2,0-0.2,0-0.3-0.2
			c0.3-0.1,0.5-0.3,0.7-0.5C0.9,115.2,0.7,115.4,0.5,115.6 M4.1,114.9c-0.4,0.1-0.4-0.1-0.2-0.3C4,114.6,4.1,114.7,4.1,114.9"/>
		<path class="st3" d="M126.3,125.8c-0.3,0-0.6-0.6-0.4-0.8C126.2,124.7,126.4,125.5,126.3,125.8 M125.8,124.6c0,0.1,0,0.2,0,0.3
			C125.5,124.5,125.9,124,125.8,124.6 M123.3,123.2c0,0.1-0.1,0.2-0.2,0.3c-0.1-0.5-0.1-1-0.2-1.5
			C123.2,122.4,123.6,122.8,123.3,123.2 M124.5,122.5c-0.2,0-0.9-0.7-0.5-0.9C124.2,121.6,124.5,122.4,124.5,122.5 M122.3,123.6
			c-0.3,0.1-0.6,0.2-0.9,0.2c0.2-0.6,0.5-1.2,0.2-1.8c-0.1-0.1-0.2-0.1-0.3-0.2c-0.2-0.1,0-0.2-0.1-0.4c-0.2-0.3-0.5-0.4-0.1-0.6
			c0.2-0.1,0.8,1,1,1.2C122.4,122.2,122.3,123.1,122.3,123.6 M121.2,120.3c0.1,0.1,0.1,0.1,0.2,0.2c-0.2-0.2-0.3-0.2-0.5-0.3
			c0.1-0.1,0.1-0.1,0.2-0.2C121.1,120.1,121.2,120.2,121.2,120.3 M113.2,107.9c0.3,0.4,1,0.2,0.3-0.3c0.4-0.6,1,1,1.4,1.2
			c0.3,0.2,0.6,0.3,0.9,0.2c0.3-0.1-0.1-0.7,0.3-0.7c0.5,0,0.8,1.8,1,2.2c0.1,0.3-0.1,0.8,0.1,1c0.2,0.3,0.8,0.3,1.1,0.3
			c0.3,0,0.7,0.3,1.1,0.3c0.3,0,0.6,0,0.9,0c0.4,0,0.8,0,1.1,0c0.6-0.1,0.8,0,1.3,0c0.8,0,1.7-0.2,2.4,0.2c0.6,0.3,1.6,1.3,0.3,0.8
			c0,0.5,0,0.8-0.2,1.3c0,0.2,0,0.3,0,0.5c0,0.2-0.3,0-0.3,0.1c-0.1,0.1-0.2,0-0.2,0.3c0,0.2,0,0.4-0.3,0.4c-0.6,0-0.5,0.1-0.9,0.3
			c-0.1,0.1-0.4-0.1-0.5,0c-0.1,0,0,0.3-0.1,0.4c-0.4,0.4-0.4,0.8-0.3,1.3c0.1,0.4,0.5,2.2,1,2.2c-0.2-0.2-0.3-0.5,0-0.7
			c0.1,0.4,1.2,1.6,1.2,0.6c0-0.2-0.2-0.7-0.1-0.9c0.1-0.3,0.6-0.5,0.4-0.9c-0.1-0.3-0.3-0.6,0.1-0.6c0.2,0,0.6-0.3,0.8,0
			c0.4,0.8,0.4,1.5,0.6,2.3c0.2,0.6,0.6,1,0.8,1.7c0.2,0.7,0.6,1.5,0.6,2.2c0,0.7,0.1,1.6,0.4,2.2c0.5,1-0.6,0.3-0.9-0.1
			c-1.1,0.8,0.5,1.7,0.3,2.6c-0.4-0.3-0.6-0.9-0.9-1.4c-0.3-0.4-0.4-1.1-0.5-1.6c-0.2-1-1.1-2-1-3c0,0.2-0.1,0.2-0.2,0.3
			c-0.3-0.9-0.9-1.4-1.4-2.2c-0.4,1.1-1.5,1.4-2.1,0.4c-0.4-0.6-0.5-0.9-0.7-1.5c-0.1-0.5-0.1-1.2-0.5-1.6c0,0.1,0.1,0.6,0,0.7
			c-0.2,0.1-0.7-0.1-0.9-0.2c0.4,0.5,0.9,0.4,1.1,0.9c0.3,0.5-0.7,0.6,0,1.1c-0.6,0.1-0.3,0.8,0,1c-0.1,0.1-0.1,0.1-0.2,0.2
			c0.3,0.3,0.7,0.7,0.6,1.1c-0.2,0.3-0.5,0.7-0.6,1c-0.1,0.2-0.2,0.5-0.3,0.7c-0.1,0.3-0.3-0.1-0.5-0.1c-0.4,0,0.2-0.9,0.3-1
			c-0.4-0.1-0.6,0.3-0.9,0.5c-0.3-0.7-0.4-1-0.2-1.7c-0.1,0.2-0.3,0.5-0.3,0.7c0,0.2,0.2,0.5,0.2,0.7c0,0.7-0.5,0.7-0.7,1.2
			c-0.2-0.3-0.1-0.5-0.2-0.9c-0.1-0.3-0.3-0.7-0.5-1c0,0.3,0.3,0.5,0.3,0.9c0.1,0.4-0.1,0.7-0.3,1.1c-0.2,0.5-0.5,0.1-0.8-0.1
			c-0.4-0.4-0.2-0.6-0.4-1.1c-0.1-0.2-0.1-0.6-0.2-0.8c-0.2-0.4-0.3-0.8-0.5-1.2c-0.2-0.7-0.6-1.4-0.4-2.1c-0.2-0.1-0.8-0.1-0.9-0.3
			c-0.1-0.2,0.2-0.4,0.1-0.6c-0.1-0.3-0.3-0.2-0.5-0.4c-0.5-0.7,0.2-1.6,0-2.4c-0.1-0.5-0.2-0.5-0.8-0.5c-0.5,0-0.4-0.5-0.8-0.5
			c-0.5,0-0.5-0.3-0.9-0.6c-0.2-0.2,0.2-0.9,0.3-1.1c0.6,0.4,0.7-0.1,0.7-0.6c0-0.5,0-0.4,0.4-0.4c0.3,0,0.4,0,0.6,0.2
			c0.2-0.2,1-0.3,0.3-0.6c-0.2-0.1-0.1-0.4-0.3-0.6c-0.1-0.1-0.6-0.1-0.7-0.2c-0.3-0.1-0.3,0-0.5-0.2c-0.2-0.1-0.2-0.4-0.4-0.5
			c-0.4-0.3-1-0.2-1-0.7c0-0.3-0.1-1,0.3-1.1c0.2-0.1,0.7-1,0.2-1c-0.1,0-0.1-0.3,0-0.3c0.2,0,0.4,0.2,0.6,0.3
			C112.7,107.5,112.9,108,113.2,107.9"/>
		<path class="st2" d="M117,101.3c0.5,0,1,0,1.5,0.1c0.3,0.1,0.4,0.2,0.7,0.2c0.3,0,0.3-0.3,0.6-0.3c0.4-0.1,0.9,0.4,1.3,0.5
			c0.3,0.1,0.2,1,0.2,1.3c0,0.4,0.8,0.8,1.1,0.5c0.1-0.1,0.5,0.1,0.6,0.3c0.2,0.4,0,0.4,0,0.8c0,0.5,0.3,0.6,0.3,1
			c0,0.4-0.8,0.3-1.1,0.4c-0.6,0.3-0.7-0.6-1.1-0.1c-0.3,0.3-1.2,0.2-1.6,0.2c-0.5,0-0.9,0-1.4-0.2c-0.6-0.3-0.9,0.4-1.4,0.5
			c-0.2,0.1-0.5,0-0.7,0c-0.1,0-0.2,0-0.3,0c-0.2,0,0-0.1-0.1-0.2c-0.4-0.1-0.8-0.3-1.3-0.3c-0.8,0-2.2-0.9-1.5-1.7
			c0.2-0.2-0.1-0.6,0.1-0.8c0.2-0.2,0.3-0.5,0.4-0.8c0.3-0.4,0.5-1.4,0.9-1.6c0.6-0.3,0.9-0.7,1.6-0.6c0.2,0,0.7,0,0.8,0.2
			C117,100.8,116.7,101,117,101.3"/>
		<g>
			<path class="st3" d="M148.7,48.8c-1,0.4-2,0.9-2.8,1.7c-0.2,0.2,0.2,0.5-0.4,0.3c-0.2-0.1-0.4-0.1-0.7-0.1c-0.1,0-0.8,0.1-0.8,0
				c-0.1-0.1-0.2-0.7-0.3-0.8c-0.2-0.1-1.3,0.3-1.6,0.4c-0.7,0.2-0.9-0.3-1.5-0.4c-1-0.2-1.9-0.7-3-0.8c-0.6-0.1-1.2-0.1-1.7-0.3
				c-0.5-0.3-0.9-0.5-1.4-0.9c-0.8-0.6-2-0.4-3-0.6c-0.6-0.1-1.1-0.1-1.7-0.1c-0.7-0.1-0.8-0.3-1.5,0.1c-1,0.5-2.2,0-3.2-0.2
				c-1.2-0.1-2.4-0.2-3.6-0.4c-0.7-0.1-1.2-0.1-2,0c-0.3,0-1.3,0.3-1.5,0.2c-0.2-0.1-0.3-0.5-0.5-0.7c-0.2-0.2-0.4-0.3-0.6-0.5
				c-0.4-0.3-0.7-0.5-1.2-0.8c-0.4-0.2-0.2-0.4-0.4-0.7c-0.2-0.2-0.5-0.5-0.7-0.7c-0.4-0.4-0.6-0.8-1-1.2c-0.5-0.4-0.8-0.3-1.1-0.8
				c-0.1-0.1-0.1-0.6-0.2-0.6c-0.3,0-0.6,0-0.9,0c-0.9,0-2.4-0.8-3.1-1.3c-0.4-0.3-1-0.2-1.4-0.5c-0.4-0.3-0.7-0.7-1.3-0.7
				c-0.6,0-1.2,0-1.8-0.2c-0.6-0.1-0.9,0.1-1.5,0c-1-0.1-2.2-0.1-3.1-0.3c-0.5-0.1-1-0.3-1.4-0.3c-0.4,0-0.7-0.5-1-0.8
				c-0.5-0.5-0.6-0.7-0.6-1.4c0-0.5,0.5-0.7,0.2-1.2C96.3,34,96,34,95.9,33.6c-0.1-0.2,0-0.4,0-0.6c0-0.5,0-0.3-0.3-0.5
				c-0.1-0.1-0.1-0.4-0.3-0.6c-0.1-0.2-0.4-0.4-0.6-0.6c-0.2-0.4-0.2-0.1-0.6-0.3c-0.4-0.2-0.8-0.6-1.1-1c-0.8-0.8-1.2-1.5-2.3-2
				c-0.2-0.1-0.1-0.4-0.4-0.4c-0.2,0-0.2,0.4-0.5,0.3c-0.3,0-0.8-0.7-1.1-0.8c-0.4-0.2-0.9,0.3-1.4,0.1c-0.4-0.2-0.9-0.3-1.3-0.6
				c-0.4-0.3-0.7-0.6-1.3-0.9c-0.2-0.1-0.5-0.2-0.8-0.3c0,0-0.7-0.2-0.7-0.2c-0.1-0.1,0.1-0.4-0.1-0.6c-0.3-0.3-0.3-0.1-0.6-0.3
				c-0.7-0.3-0.3-0.4-0.3-0.8c0,0.1-0.4-0.4-0.3-0.4c-0.2-0.1,0-0.2-0.4-0.2c-0.1,0-0.4,0.2-0.4,0.3c0,0.1-0.4,0.1-0.5,0.1
				c-0.3,0-0.5-0.2-0.9-0.2c-0.2,0-0.4,0.2-0.4,0.2c-0.6,0,0.1,0.9,0.2,1.1c0.1,0.3-0.1,0.5-0.3,0.8c0,0.1-0.3,0.1-0.5,0.1
				c-0.2,0.1-0.5,0.3-0.8,0.3c-0.3,0-0.6-0.1-0.8,0.1c-0.2,0.2-0.1,1.1-0.1,1.4c0.2,0.5,0.5,1,0.7,1.4c0.2,0.4,0.8,0.9,0.8,1.3
				c0,0.6,0,0.8-0.6,0.8c-0.4,0-0.7,0.9-1.2,0.9c-0.2,0-0.4-0.3-0.5-0.4c-0.1-0.1-0.3-0.1-0.5-0.1c-0.3-0.1-0.6-0.2-1-0.2
				c-0.2,0-0.3,0.2-0.6,0.2c-0.6-0.1-1-0.3-1.6-0.4c-0.5-0.1-1-0.4-1.5-0.4c-0.1,0,0.1,0.9,0.1,1.2c0,0.6,0,1.2,0,1.8
				c0,0.6,0.2,1.1,0.2,1.7c0,0.5-0.1,1.1,0.2,1.5c0.4,0.4,1,0.2,1.2,0.9c0.2,0.9-0.4,0.5-0.9,0.3c-0.3-0.1-0.2-0.1-0.6,0
				c-0.4,0.2-0.3,0.1-0.6,0c-0.3-0.1-0.5-0.3-0.8-0.5c-0.1,0-0.6,0.2-0.7,0.2c-0.5,0.1-1,0.4-1.5,0.4c-0.2,0-0.5-0.1-0.7,0
				c-0.2,0.1-0.5,0.3-0.7,0.3c-0.5,0-1.1,0.1-1.3,0.7c0.2,0,0.4,0.4,0.6,0.3c0.3-0.1,0.5-0.2,0.8-0.1c0.2,0,0.7,0.3,0.7,0.4
				c0,0-0.4,0.3-0.1,0.3c-0.1,0,0.4,1.1,0.5,1.3c0.1,0.3,0,0.5,0.1,0.8c0,0,0.5,0.5,0.5,0.5c0.3,0.3,0.4,0.3,0.7,0.7
				c0.2,0.3,0.3,0.4,0.5,0.6c0.4,0.4,0.2,1,0.6,1.2c0.1,0.1,0.5,0.4,0.4,0.6c0,0-0.7,0.1-0.8,0.1c-0.7,0.3,0.2,0.5,0.4,0.7
				c-0.2,0.1-0.9,0.3-0.9,0.4c0,0.3,0,0.6,0.1,0.8c0.1,0.3,1,1.2,0.6,1.3c0.2,0.1,0.3,0.3,0.3,0.5c-0.3,0.1-0.7,0.1-1,0.2
				c-0.4,0.1,0,0.3-0.3,0.4c-0.5,0.3-1.1,0.4-1.7,0.7c-0.5,0.2-1.1,0.7-1.5,1c-0.4,0.4-0.3,1-0.7,1.4c-0.2,0.2-0.7,0.2-0.9,0.2
				c-0.2,0-0.4,0.2-0.6,0.2c-0.3,0-0.7,0-1,0c-0.3,0-0.6-0.2-0.8-0.2c-1.1,0.1-0.4,2-1.2,2.6c-0.1-0.1-0.3-0.2-0.3-0.3
				c-0.1,0.2-0.5,0.3-0.7,0.3c-0.3,0.1-0.4,0.2-0.8,0.2c-0.5,0-0.4-1.1-0.8-1.2c-0.4-0.1-0.8,0.7-1.3,0.7c-0.2,0-0.7-0.2-0.8-0.2
				c-0.3,0.1,0,0.4,0.2,0.5c-0.4-0.1-0.8,0.4-1.1,0.7c-0.4,0.4-1,0.1-1.2,0.4c-0.3,0.3-0.2,0.9-0.1,1.1c0.2,0.4,0.6,0.6,0.2,1
				c-0.1,0.1-0.5-0.1-0.5,0.3c0,0.1,0.1,0.5,0.2,0.6c0.1,0.2,0.3,0.4,0.4,0.6c0.1,0.2,0.5,0.2,0.5,0.3c0.2,0.4-0.4,0.4,0,0.9
				c0.3,0.5,0.5,0.7,1,1c0.4,0.2,0.1-0.2,0.3-0.3c0.3-0.1,0.3-0.2,0.6-0.2c0.5,0,1.1,0.3,1.6,0.5c0.6,0.2,0.3,0.8,0.4,1.2
				c0.1,0.4,0.5,0.7,0.7,1.1c0,0.1,0.3,0.5,0.3,0.4c0.1,0.2-0.1,0.5,0,0.7c0.2,0.4,1.1,0.4,1,0.9c0,0.4-0.9,0.7-1.1,0.4
				c-0.3-0.3-0.9,0.3-1.1,0.4c0.3,0,0.5,0.3,0.7,0.5c0.4-0.5,1,0.3,1.6,0c0.2-0.1,0.8,0.2,1,0.3c0.1,0,0.2,0.6,0.4,0.7
				c0.1,0,0.3-0.1,0.4-0.1c0.2-0.1,0.2,0.1,0.3,0.2c0.4,0.1,0.5,0.3,0.8,0.5c0.4,0.4,0.6,1.1,0.6,1.7c0,0.5,0.5,0.4,0.8,0.8
				c0.2,0.3,0.2,0.3,0.6,0.3c0.2,0,0.6-0.2,0.7-0.2c0.3,0.1,0.1,0.3,0.4,0.5c0.2,0.1,0.5,0.1,0.6,0.2c0.3,0.1,0.3,0.3,0.6,0.4
				c0.3,0.1,0.6,0.1,0.9,0.2c0.5,0.1,1,0.4,1.5,0.1c0.3-0.2,0.4,0.1,0.6,0.1c0.2,0,0.4-0.3,0.5-0.2c0,0,0.2,0.7,0.2,0.8
				c0,0.2,0.2,0.4,0.3,0.6c0.3,0.4,0.6,0.9,0.9,1.4c0.4,0.7,0.5,0.7,1.3,0.9c0.5,0.2,1,0.3,1.4,0.7c0.5,0.5-0.4,0.7-0.4,1
				c0,0.3,0.1,0.3,0.3,0.5c0.1,0.1,0.1,0.5,0.1,0.6c0.1,0.3,0.1,0.7,0.3,1c0.1,0.1,0.4,0.3,0.6,0.4c0.2,0.2,0.5,0.3,0.6,0.4
				c0.2,0.2,0.1,0.3,0.2,0.5c0.1,0.1-0.1,0.3,0.1,0.3c0.1,0,0.2,0.1,0.3,0.2c0.1,0.2,0.1,0.5,0.3,0.6c0.3,0.3,0.1,0.9,0.4,1.3
				c-0.5-0.1-0.4,0.5-0.9,0.5c-0.4,0-0.7-0.5-0.9-0.8c-0.3-0.3-1-0.1-0.8,0.3c0.1,0.2,0.3,0.4,0.4,0.6c0,0.1-0.1,0.3,0,0.3
				c0.1,0,0.1,0,0.2,0c0.3,0.4,0.7,0.6,0.9,1c0,0.2,0.2,0.1,0.1,0.3c-0.1,0.2-0.2,0.2,0,0.3c0.2,0.2,0.2,0.4,0.3,0.5
				c0.2,0.2,0.3,1,0.3,1.2c0,0.3,0.6-0.4,0.7,0.1c-0.1-0.2,0-0.4,0.2-0.5c0.5,0.5,1.1,1.4,1.7,1.7c0.4,0.2,0.7-0.2,1.1,0
				c0.3,0.2,0.7,0.6,1,0.6c0.5,0,0.4,0.4,0.4,0.8c0,0,0.9,0.3,1.1,0.4c0.6,0.3,1.5,0.7,2,1.2c0.5,0.6,0.6,0.6,0.9-0.2
				c0.2-0.7,0.6-0.7,1.3-0.6c0.2,0.1,0.7,0,0.9,0.1c0.2,0.1,0.2,0.5,0.3,0.7c0.3,0.4,0.9,0.6,1.4,0.9c0.5,0.3,0.9,0.8,1.4,1
				c0.4,0.2,1,0,1.4,0.4c0.4,0.4,0.7,0.9,1.1,1.2c0.4,0.3,0.9,0.1,1.2-0.2c0.3-0.3,0.9,0.7,1,0.9c0.1,0.2,0.1,0.6,0.3,0.6
				c0.3,0,0.3,0.1,0.6,0.3c0.4,0.3,1,0.5,1.3,0.8c0.3,0.3,1-0.4,1.3-0.1c0.3,0.3-0.4,1.2,0.4,1.2c0.3,0,1.3-0.1,1.5,0.1
				c0.4,0.4,0.7,0.8,1.1,1.2c0.5,0.5,0.4-0.4,0.6-0.6c0,0.3,0.5,0.4,0.8,0.6c0.5,0.2,0.4,0.1,0.5-0.3c0.2-0.4,0.4-0.2,0.6,0
				c0.3,0.3,0.5,0.2,0.8,0.4c0.4,0.2,0.5,0.4,1,0.4c0.3,0,0.6-0.1,0.8,0c0.4,0.2,0.5-0.1,0.9-0.2c0.3,0,0.6,0,0.9,0
				c-0.5-0.2,0.6-0.4,0.9-0.5c0.4-0.2,0.5-0.5,1,0c0.2,0.2,0.3,0.3,0.4,0.6c0.1,0.3,0.1,0.4,0.1,0.8c-0.1,0.7,0.1,0.9,0.6,1.4
				c0-0.6,0.1-0.7,0.3-1.2c0.2-0.3,0.4-0.6,0.5-0.9c0.1-0.3,0.2-0.8,0.6-1c0.3-0.2,0.6-0.5,0.9-0.6c0.3-0.1,1.3-0.1,1.5,0.2
				c0.3,0.4-0.2,0.7,0.6,0.7c0.3,0,0.6,0,0.8,0.1c0.2,0,0.5,0.3,0.7,0.3c0.5,0,0.7-0.4,1.1-0.3c0.2,0,0.5,0.3,0.8,0.4
				c0.4,0.1,0.2,0.3,0.4,0.6c0.1,0.2,0.1,0.2,0.4,0.2c0.2,0,0.5,0,0.7,0c0.4,0,0.7-0.3,1.2-0.3c0.4,0,0.9-0.1,0.9-0.6
				c0-0.2-0.3-0.4-0.2-0.6c0.1-0.1,0.5-0.2,0.6-0.3c0.2-0.2,0.4-0.4,0.6-0.5c0.1-0.2,0-0.5,0.2-0.7c0.4-0.7,2.2-0.2,2.2-1.4
				c0-0.1,0.9-0.8,1.1-0.9c0.2-0.1,0.3-0.4,0.5-0.4c0.3,0,0.3,0.3,0.4,0.3c0.4,0.3,1.1,0.2,1.6,0.4c0.2,0.1,0.4,0.3,0.6,0.3
				c0,0,0.3-0.4,0.3-0.5c-0.1-0.1-0.1-0.1-0.2-0.2c0.4-0.3,0.8-0.6,1.3-0.8c0.7-0.2,0.5,0.3,0.9,0.6c0.1,0.1,1,0,0.3,0.4
				c-0.6,0.3-0.2,0.5-0.1,1c0.1-0.1,0.6-0.8,0.8-0.6c0.2,0.2,0.5,0.5,0.6,0.8c0.2,0.6,0,0.4-0.3,0.9c-0.1,0.2-0.3,0.6-0.1,0.8
				c0.3,0.3,0.6-0.1,0.9-0.2c0.1-0.1,0.6,0.4,0.7,0.5c0.2,0,0.5,0,0.6,0c0.3-0.2,0.1,0,0.4,0c0.3,0.1,0.7,0.2,0.7,0.5
				c0.3-0.3,0.2-0.6,0.3-0.9c0.3-0.6,0.2-0.2,0.6-0.2c0,0,0.5,0.5,0.6,0.5c0.2,0.2,0.5,0.3,0.7,0.5c0.2,0.2,0.4,0.2,0.6,0.6
				c0.2,0.3,0.3,0.7,0.5,1c0.1,0.3,0.2,0.6,0.5,0.8c0.6,0.3,0.1-0.2,0.3-0.3c0.9-0.4,1.7,2.8,1.7,3.3c0,0.4,0.2,0.7,0.2,1
				c0,0.4,0,0.7,0.1,1c0.2,0.4-0.3,0.3-0.3,0.6c0,0.1,0.4,0.6,0.5,0.7c-0.2,0.2-0.3,0.2-0.6,0.3c-0.2,0.1,0,0.3-0.1,0.5
				c-0.1,0.1-0.2,0.5-0.4,0.4c-0.2-0.1-0.4-0.2-0.4,0.1c0,0.3,0.1,1.1-0.4,1.1c-0.4,0-0.5,0.5-0.4,0.9c0,0.2,0.2,0.5,0.1,0.6
				c-0.1,0.1-0.4,0.2-0.4,0.3c0,0.5-0.1,0.9,0.2,1.3c0,0,0.3,0.2,0.3,0.3c0.1,0.2,0.2,0.3,0.2,0.6c0,0.4-0.4,0.8,0,1.1
				c0.1-0.1,0.2-0.1,0.3-0.2c7.8-11.9,12.4-26.1,12.4-41.3c0-9.6-1.8-18.8-5.1-27.2c-0.3,0-0.6,0-0.9,0.1
				C149.4,48.4,149.1,48.7,148.7,48.8z"/>
		</g>
		<path class="st2" d="M138.7,102.4c0.1-0.1,0.1-0.2,0.2-0.3c0.2-0.2,0.4,0.1,0.4-0.3c0-0.3-0.2-0.4-0.3-0.7
			c-0.1-0.2,0.1-0.4-0.2-0.5c-0.1-0.1-0.7-0.4-0.8-0.4c-0.4,0.2-0.6,0.1-0.9,0c-0.3-0.1-0.4-0.4-0.7-0.2c-0.4,0.2-1.1,0.3-0.8-0.4
			c0.2-0.3,0.4-0.5,0.6-0.7c0.1-0.1-0.3-0.6-0.4-0.7c-0.1-0.2-0.4-0.6-0.5-0.4c-0.2,0.2-0.4,0.4-0.6,0.6c-0.1-0.2-0.2-0.4-0.3-0.6
			c-0.1-0.3,0.4-0.3,0.5-0.4c0.4-0.6-0.2-0.1-0.4-0.4c-0.4-0.5-0.4-0.7-1.1-0.5c-0.4,0.1-0.8,0.5-1.1,0.7c0.1,0.1,0.1,0.1,0.2,0.2
			c-0.1,0.1-0.4,0.5-0.4,0.5c-0.1,0-0.5-0.3-0.7-0.3c-0.5-0.2-1-0.1-1.4-0.4c-0.1-0.1-0.2-0.4-0.5-0.3c-0.2,0-0.4,0.4-0.6,0.4
			c-0.2,0.1-0.9,0.8-0.9,0.9c0,1.2-1.8,0.8-2.2,1.4c-0.1,0.2-0.1,0.6-0.3,0.8c-0.2,0.2-0.4,0.4-0.6,0.6c-0.1,0.1-0.5,0.1-0.5,0.3
			c0,0.2,0.2,0.3,0.2,0.5c0,0.6-0.6,0.5-1,0.6c-0.3,0.1-0.8,0.3-1.1,0.3c-0.5,0-1.1-0.2-1.1,0.3c0,0.4,0.3,0.9,0.8,0.9
			c0.4,0,0.3-0.1,0.7,0c0.2,0.1,0.5,0.3,0.4,0.6c-0.1,0.2-0.2,0.4-0.1,0.6c0,0.2,0.3,0.3,0.3,0.5c0.1,0.6-0.4,0.5-0.8,0.5
			c-0.2,0-0.4,0.2-0.7,0.2c-0.4,0-0.3-0.3-0.5-0.3c-0.3,0-0.3,0.3-0.7,0.3c-0.3,0-0.6,0-0.9,0c-0.4,0-1,0.1-1.3,0
			c-0.3-0.2-0.5-0.3-0.8-0.2c-0.2,0.1-0.2,0.3-0.4,0.4c-0.4,0.3-1,0.2-1.4,0.2c0,0-0.3-0.3-0.4-0.3c-0.1-0.1-0.5-0.2-0.6-0.2
			c-0.4,0-1.1-0.1-1.4-0.3c-0.3-0.2-0.7-0.7-0.7-1c0-0.3,0.5-0.2,0.2-0.5c-0.2-0.2-0.3-0.3-0.5-0.6c-0.1-0.2,0.1-0.6,0.1-0.9
			c0-0.2-0.1-0.5-0.2-0.6c-0.1-0.3-0.5-0.8-1-0.8c0.1,0-0.3,0.3-0.4,0.4c-0.2,0.1-0.6,0.1-0.8,0.3c-0.3,0.3,0,0,0,0.2
			c0,0.2,0.2,0.3,0.2,0.5c0,0.5-0.2,0.9-0.1,1.5c0.1,0.6,0,1,0.5,1.4c0.5,0.5,0.4,0.9,0.3,1.5c-0.2,0.9-0.1,0.5-0.9,0.5
			c-0.2,0-0.5,0.2-0.8,0.2c-0.1,0-0.2-0.2-0.3-0.2c-0.1,0-0.2,0.2-0.3,0.2c-0.4,0-1-0.1-1-0.7c-0.5,0.4-0.7,0.6-1.3,0.4
			c-0.3-0.1-0.3-0.3-0.6-0.4c-0.1-0.1-0.4-0.1-0.6-0.1c-0.2-0.1-0.4,0-0.7-0.1c-0.3-0.1-0.3,0.1-0.6,0.1c-0.6-0.1-0.4-0.3-0.7-0.7
			c-0.4-0.5-0.7,0.2-1.2,0.2c-0.5,0-0.3-0.3-0.7-0.5c-0.1-0.1-0.5-0.1-0.6-0.1c-0.2-0.1-0.4-0.2-0.6-0.3c-0.6-0.2-0.3-0.6-0.6-0.9
			c-0.2-0.2-0.1-0.3-0.5-0.4c-0.2-0.1-0.4-0.2-0.6-0.2c-0.3-0.1-0.8-0.4-1.1-0.3c-0.6,0.3-0.6,0.4-1.3,0c-0.5-0.3-0.5,0.3-0.9,0.3
			c-0.5,0-0.9-0.2-1.3-0.4c-0.2,0-0.6-0.1-0.6-0.2c0-0.3-0.1-0.3-0.3-0.5c-0.2-0.2-0.4,0.2-0.6,0.1c-0.2-0.1-0.4-0.2-0.6-0.3
			c-0.4-0.2-0.7-0.5-1-0.7c-0.4,0.5-1.3-0.3-1.7-0.5c-0.3-0.2-0.6-0.3-0.9-0.5c-0.2-0.2-0.2-0.4-0.4-0.5c-0.4-0.1-0.6-0.3-0.9-0.5
			c-0.2-0.1-0.4-0.1-0.5-0.2c-0.1,0,0.1-0.1-0.1-0.2c-0.7-0.3-0.7-0.1-1.4-0.3c-0.7-0.2-0.9-0.7-0.9-1.4c0-0.3,0.4-0.4,0.3-0.7
			c-0.1-0.3-0.1-0.5-0.1-0.8c0-0.8,0.9-2.9,1.9-2.6c-0.1-0.5-1.7-1.2-2.2-1.4c-0.4-0.1-0.9,0-0.9-0.4c0-0.7-0.2-0.4-0.6-0.6
			c-0.3-0.2-0.7-0.6-1.1-0.6c-0.5,0-0.7,0.3-1.1-0.2c-0.4-0.4-1-1-1.5-1.5c-0.2,0.1-0.2,0.3-0.2,0.5c0-0.3-0.2-0.2-0.3,0
			c0.1,0.1,0.1,0.1,0.2,0.2c-0.1-0.1-0.5-0.2-0.5-0.3c0-0.3-0.1-0.5-0.2-0.8c-0.1-0.3-0.1-0.5-0.3-0.8c-0.1-0.2-0.3-0.3,0-0.6
			c-0.2-0.2-0.3-0.4-0.5-0.6c-0.1-0.1-0.6-0.4-0.7-0.5c-0.1-0.2,0-0.5-0.3-0.8c-0.3-0.3-0.3-0.5,0.1-0.6c0.6-0.2,0.8,0.5,1.2,0.7
			c0.8,0.5,0.6-0.5,1.2-0.3c-0.1-0.2-0.2-0.4-0.2-0.6c0-0.3-0.1-0.2-0.2-0.4c-0.1-0.2-0.1-0.6-0.3-0.8c-0.1-0.1-0.2-0.3-0.3-0.3
			c-0.2,0,0-0.2-0.1-0.3c-0.2-0.3,0-0.4-0.4-0.6c-0.6-0.3-1-0.9-1.2-1.5c-0.1-0.3,0-0.7-0.3-1c-0.2-0.2-0.3-0.5,0-0.6
			c1.1-0.8-0.8-1.4-1.4-1.6c-0.8-0.2-0.7-0.5-1.2-1.2c-0.3-0.4-0.5-0.9-0.8-1.4c-0.2-0.2-0.2-1.3-0.5-0.9c-0.2,0.2-0.3,0-0.4,0
			c0,0-0.1,0-0.1,0c-0.3,0.1-0.4,0.3-0.6,0.5c-0.4,0.3-0.9,0.6-1.3,1c-0.1,0.1,0,0.3-0.1,0.4c-0.2,0.1-0.4,0.3-0.6,0.5
			c-0.2,0.2,0.1,0.5-0.4,0.5c-0.3,0-0.4-0.2-0.6-0.1c-0.5,0.3-1,0.1-1.3,0.7c-0.3,0.5-1.1,0.2-1.5,0.1c-0.6-0.1-0.9-0.3-1.5-0.3
			c-0.5-0.1-1.1-0.2-1.6-0.4c-0.7-0.2-0.9,0-1.5,0.3c-0.1,0.1-0.4,1-0.3,1.2c0.2,0.2,1.2,0.3,0.5,0.9c0.3,0.2,1.2,0.2,1.2,0.5
			c0,0.3-0.9,0.7-0.4,1.1c0.4,0.4,0.8,0.6,0.5,1.2c-0.3,0.6,0.1,0.8,0.7,1.1c0.5,0.2,0.5,1.1,0.7,1.1c0.7,0,0.9-0.2,1.1,0.5
			c0.1,0.4,0,0.4,0.4,0.6c0.2,0.1,0.5,0,0.8,0c0.3,0.1,1.2,0.4,1.2,0.8c0,0.4-0.8,0.7-1.2,0.9c-0.4,0.3-0.8,0.4-0.8,1
			c0,0.3,0.3,0.5,0.3,0.8c0.1,0.2,0,0.6,0,0.8c0,0.2-0.1,0.5,0.1,0.7c0.1,0.1,0.4,0.1,0.4,0.3c0,0.3-0.4,0.5-0.6,0.6
			c-0.3,0.1-0.3,0.1-0.4,0.5c-0.2,0.5-0.8,0.9-0.9,1.3c-0.1,0.3,0.1,0.4,0.2,0.6c0.2,0.3,0,0.4-0.2,0.7c-0.2,0.4-1.1,0.1-1.3,0.7
			c-0.1,0.5,0,1.2-0.2,1.6c-0.2,0.5-0.3,1.1-0.6,1.5c-0.2,0.4-0.9,0.7-1.4,1c-0.6,0.4-0.4,0.7-0.7,1.3c-0.2,0.5-0.4,0.9-0.7,1.4
			c-0.2,0.3,0.1,0.3-0.3,0.5c-0.2,0.1-0.5,0.2-0.7,0.2c-0.7,0.1-1.1,0.2-1.7,0.5c-0.5,0.3-0.8-0.1-1-0.4c-0.4-0.4-0.6-0.9-1.2-0.5
			c-0.4,0.3-0.6,0.7-0.8,1.2c-0.4,1.1-1.3,1.8-1.3,3c0,0.4,0.6,0.6,1,0.9c0.4,0.2,1.1,0,1.3,0.3c0.3,0.3,0.3,1.1,0.2,1.5
			c-0.2,0.5,0.2,1,0.6,1.3c0.4,0.5,0.7,0.1,1.2,0.3c0.5,0.2,0.2,0.7,0.4,1.1c0.2,0.5,0.7,0.8,1,1.3c0.2,0.5,0.2,0.9,0.7,1.4
			c-0.3,0.2-0.3,0.8,0,1c-0.6,0.3-0.7,1.1-1.5,0.3c-0.1-0.1,0.1-0.3-0.1-0.3c-0.2,0-0.5,0.1-0.7,0.2c-0.2,0.1-0.8,0.4-0.8,0.6
			c0,0.6-1.7-0.3-1.9-0.3c-0.5,0-1.8,0.2-2.1-0.2c-0.1,0.1-0.1,0.1-0.2,0.2c0.1,0.4,0.1,0.8,0.2,1.2c-0.7,0-2-0.1-1.7,0.9
			c0.2,0.7,0.4,0.4,0.8,0.1c0.3-0.3,0.6-0.5,1-0.7c-0.2,0.3-0.7,0.5-0.9,0.9c-0.3,0.5,0.1,0.6,0.3,1c0.2,0.4,0.3,0.7,0.7,0.9
			c0.3,0.2,0.7,0.5,1,0.7c0.6,0.4,1.7,0.9,2.4,0.6c0.3-0.1,0.7-0.5,1-0.6c0.3-0.1,0.6-0.1,0.8,0.1c0.1-0.2,0.2-0.4,0.2-0.6
			c0-0.2,0.3,0,0.3,0.2c0,0.3-0.6,0.9-0.7,1.3c-0.2,0.7-0.4,0.4-1,0.7c-0.4,0.2-0.9,0.2-1.2,0.4c-0.2,0.1-0.6,0.5-0.8,0.5
			c-0.2,0-0.3-0.5-0.5-0.5c-0.6-0.1-0.3,0.8,0,1c0.8,0.8,1.6,1.6,2.4,2.4c1.5,1.5,2.9,3.6,5.2,2.6c0.7-0.3,2.2-0.9,2.5-1.6
			c0.2-0.4,0.6-1,0.5-1.5c-0.1-0.5-0.6-0.4-0.9-0.7c0.1-0.2,0.1-0.2,0.2-0.4c0.1-0.2,0.3-0.2,0.3-0.3c0.2-0.4,0.2-0.7-0.2-0.9
			c0.4-0.1,0.7,0.2,1.1,0c0.3-0.1,0.7,0,0.9,0.1c-0.2,0.2-0.8,0.1-0.8,0.4c0,0.5-0.1,0.7,0.5,0.6c-0.4,0-0.6,1,0,1
			c0.6,0,1,0,1.6-0.2c-0.3,0.2-0.8,0.2-1,0.3c-0.2,0.1-0.3,0.5-0.5,0.7c0.1,0,0.2,0,0.3,0c-0.5,0.3-0.3,0.5,0,1
			c0.1,0.2,0.5,0.2,0.5,0.5c0,0.7,0.5,1.3,0.3,2c-0.1,0.7-0.3,1.4-0.3,2.2c0,0.4,0.7,1.7,0.3,1.9c0.2,0.4,0.4,0.5,0.9,0.7
			c-0.2-0.1-0.3-0.1-0.5-0.2c0,0.5,0.1,1.8,0.5,0.7c0.4,0.6-0.1,1.1,0,1.7c0.1,0.5,0.3,0.9,0.3,1.4c0,0.6,0.4,1.1,0.6,1.6
			c0.2,0.5,0.2,1.1,0.5,1.6c0.5,1.2,0.4,2.5,0.8,3.7c0.2,0.7,1.1,2.9,1.9,2.9c-0.4,0.4,0.2,0.7,0.5,1c-0.2,0-0.3,0-0.5,0
			c0.4,0.4,0.4,0.8,0.7,1.2c0,0,0,0,0,0c3.3,0.4,6.6,0.7,10,0.7c3.4,0,6.7-0.2,9.9-0.7c-0.1-0.4-0.1-0.8,0.1-1.2
			c0.2-0.6,0.3-1.3,0.8-1.6c0.3-0.2,1-0.5,1.2-0.1c0.2,0.3,0.2,0.3,0.6,0.3c0.1,0,0.2-0.4,0.3-0.5c0.2-0.3,0.3,0,0.4-0.5
			c0-0.2,0-0.7,0.1-0.9c0.3-0.5,0.9-0.3,1.5-0.3c0.3,0,0.1,0.2,0.5,0c0.3-0.2,0.6-0.3,0.9-0.5c0.4-0.2,0.5-0.7,0.5-1.1
			c0-0.7-0.6-0.5,0-1.1c0.7-0.8,1.7-1.4,2.5-2.2c0.4-0.4,0.6-1,1.1-1.4c0.4-0.4,1-0.7,1.4-1c0.4-0.2,0.8-1,1-1.3
			c0.3-0.3,0.5-0.9,0.6-1.2c0.1-0.2,0.1-0.5,0.2-0.7c0.3-0.2,0.5-0.5,0.7-0.7c0.4-0.4,0.8-0.7,1.2-1c-0.4-0.3-0.4,0.2-0.8,0.2
			c-0.5,0,0-0.5,0.1-0.7c0.2-0.2,0.5-0.7,0.8-0.4c0.2,0.2,0.1,0.6-0.1,0.8c0.5,0.1,1.1-0.3,1.6-0.5c0.4-0.2,1.4-0.4,0.8-0.8
			c0.1,0.1,0.2,0,0.3,0.2c0.3-0.6,0.5-0.7,1-1.1c0.4-0.2-0.1-0.2,0-0.4c0.1-0.2,0.2-0.4,0.3-0.5c0.4-0.6,0.2-0.6,0-1.2
			c-0.2-0.4-0.3-0.8-0.3-1.3c0-1.2,1.4-1.4,2.2-1.6c0.3-0.1,0.8-0.4,1-0.7c0.1-0.2,0.1-0.5,0.2-0.7c0.1-0.2,0.3-0.3,0.3-0.5
			c-0.5-0.2-0.7-0.4-0.9-0.9c0.1,0.6,1,0.5,1,1.1c0,0.4-0.1,1.1-0.3,1.5c0.4,0.3,0.8,0.2,0.7-0.3c0.3,0.3,1,1.1,1,0.3
			c0-0.3-0.2-0.4-0.1-0.7c0-0.3,0.1-0.6,0.1-0.9c0,0.2,0.3,0.3,0.3,0.4c0,0.2,0,0.4,0,0.6c0,0.5-0.1,0.9,0.3,1
			c0.2-0.1,0.2-0.3,0.2-0.5c0.1,0.4,0.7,0.5,0.7,0.1c0-0.4-0.3-0.6-0.5-0.9c0.1,0.1,0.2,0.1,0.3,0.2c0-0.4,0.1-0.9-0.1-1.3
			c-0.2-0.4-0.3-0.8-0.5-1.2c-0.2-0.7-0.7-1.6-0.4-2.3c-0.2-0.1-0.9-0.2-0.8-0.4c0.2-0.7,0-0.6-0.5-1c-0.4-0.4,0.1-1.8,0.1-2.4
			c0-0.6-0.5-0.3-0.9-0.4c-0.3-0.1-0.3-0.2-0.5-0.4c-0.1-0.2-0.2,0-0.4-0.1c-0.3-0.2-0.3,0.1-0.5-0.3c-0.1-0.2-0.4-0.3-0.4-0.4
			c-0.1-0.3,0.2-0.7,0.3-1c0.7,0.5,0.7-0.3,0.7-0.8c0-0.4,0.8-0.3,1,0c0.2-0.3,0.5,0,0.5-0.3c0-0.2-0.3-0.4-0.3-0.5
			c-0.3-0.3-0.2-0.3-0.6-0.4c-0.2-0.1-0.5,0-0.7-0.2c-0.2-0.2-0.3-0.5-0.5-0.6c-0.2-0.1-0.7-0.2-0.8-0.3c-0.2-0.2-0.3-1-0.1-1.3
			c0.1-0.3,0.3-0.4,0.5-0.6c0.3-0.4,0.1-0.3,0-0.7c0,0.1-0.4-0.3-0.1-0.3c0.2,0,0.4,0.2,0.6,0.3c0.1,0.1,0.5,0.4,0.5,0.6
			c0,0.1,0.3,0,0.4,0.2c0.4,0.4,0.8,0,0.3-0.4c0.3-0.5,0.6,0.2,0.7,0.4c0.2,0.4,0.3,0.6,0.8,0.9c0.2,0.1,0.7,0.3,0.9,0
			c0.2-0.2-0.2-0.7,0.2-0.7c0.6,0,0.9,2,1,2.3c0.1,0.3-0.1,0.8,0.1,1c0.2,0.2,0.7,0.3,1,0.3c0.4,0,0.8,0.3,1.2,0.3
			c0.3,0,0.6,0,0.9,0c0.4,0,0.8,0,1.2-0.1c0.5-0.1,0.7,0.1,1.1,0.1c0.8,0,1.7-0.1,2.5,0.3c0.6,0.3,1.4,1.2,0.2,0.8
			c0,0.5-0.1,0.9-0.2,1.4c-0.1,0.5,0.1,0.5-0.4,0.5c-0.2,0,0,0.4-0.1,0.5c-0.2,0.2-0.3,0.1-0.5,0.2c-0.1,0-0.2,0-0.3,0
			c0,0.1,0,0.1,0,0.2c-0.2,0.1-0.2,0.2-0.4,0.2c-0.8,0-0.8,1.1-0.8,1.8c0,0.4,0.6,2.1,1,2.1c-0.2-0.2-0.3-0.5,0-0.7
			c0.1,0.2,0.6,1.3,0.9,0.9c0.5-0.5,0-0.9,0.2-1.4c0.1-0.3,0.3-0.3,0.4-0.6c0-0.2-0.3-0.4-0.2-0.7c0,0.1,0.7-0.2,0.7-0.2
			c0.1,0,0.4,0.2,0.4,0.3c0.3,0.5,0.3,1,0.4,1.6c0.2,0.7,0.4,1,0.7,1.5c0.1,0.1,0.2,0.6,0.2,0.8c0.1,0.3,0.2,0.5,0.3,0.8
			c0.2,0.5,0.4,1.2,0.3,1.7c0.2-0.2,0.3-0.4,0.3-0.7c0.4,0.4,0.7,0.8,1,0.1c0.1-0.4,0.4-0.1,0.4-0.7c0-0.4-0.3-1.2-0.5-1.5
			c-0.1-0.1,0.1-1,0.1-1.3c0.6,0.7,0.5-1.4,0.5-1.6c0-0.3-0.9-2-0.7-2.1c0.1-0.1,0.6,0.3,0.8,0.3c0.2,0,0.2-0.2,0.4-0.2
			c0.1,0,0.3,0.2,0.4,0.2c0.4,0,0.7,0.3,1,0.3c0.1,0,0.2-0.7,0.3-0.9c0.2-0.7,0.3-1.4,0.5-2.1c0.1-0.4,0.3-0.8,0.4-1.2
			c0.1-0.4-0.1-0.5-0.3-0.7c-0.2-0.2-0.4-0.3-0.2-0.7c0.1-0.1,0.1-0.4,0.2-0.5c0.2-0.1,0.3-0.1,0.4-0.4c0.2-0.4,0.4-0.4,0.4-0.8
			c0-0.5,0.2-0.5,0.3-0.9c-0.5-0.1-0.8-1.8-0.4-2.1c0.2-0.2,0.7-0.2,1-0.5c0.2-0.2,0.6-0.9,0.9-1c0.3-0.2,0.4-0.6,0.8-0.8
			c0.4-0.2,0.8-0.3,1.3-0.4c0.9-0.1,0.9,0.9,1.9,0.8c-0.3-0.3-0.5-0.6-0.7-0.8c-0.3-0.3-0.2-0.3-0.3-0.7c-0.1-0.4-0.2-0.3,0-0.7
			C138.3,102.5,138.6,102.5,138.7,102.4z"/>
		<g>
			<path class="st3" d="M13.9,109.9c0.1,0,0.2,0.1,0.2,0.1c0.2,0.5,0.4-0.1,0.7,0.1c0.2,0.1,0.5,0.2,0.8,0.3c0.5,0.1,1,0,1.5,0.1
				c0.6,0.1,1.1,0.6,1.6,0.6c0.6,0,0.9-0.1,1.5,0c0.5,0.1,1.1,0.1,1.6,0.2c0.2,0,0.7,0.2,0.9,0.1c0.3-0.1,0.2-0.3,0.6-0.3
				c0.2,0,0,0.4,0.3,0.5c0.3,0.1,0.7,0.2,1,0.2c0.4,0.1,1.1,0.5,1.5,0.4c0.9-0.1,0.4-1.9,0.5-2.6c0-0.2,0.2-0.2,0.2-0.4
				c0-0.1,0-0.3,0-0.4c0-0.3,0.2-0.5,0.2-0.8c0-0.3,1-0.6,1.2-0.4c-0.3-1.4,2.3-1,2.9-1.2c-0.1-0.5-0.1-0.9,0-1.4
				c0.1-0.4,0.3-0.5-0.3-0.8c-0.4-0.2-0.8,0.2-1.2,0c-0.4-0.2-0.2-0.3-0.3-0.7c0-0.9-0.5-1.8-0.5-2.7c0-0.6-0.2-0.3-0.7-0.4
				c-0.4-0.1-0.5-0.6-0.9-0.7c-1.1-0.2-2-0.5-2.5-1.6c-0.3-0.5-0.7-1-1-1.4c-0.1-0.1-0.1-0.4-0.2-0.5c-0.1-0.2-0.4-0.4-0.5-0.5
				c-0.2-0.2-1.1-0.9-1.2-1.2c-0.1-0.4,0.6-0.9,0.8-1.2c0.3-0.5,0.6-1.2,0.9-1.7c0.3-0.5,0.8-0.7,0.6-1.3c-0.1-0.6-0.3-1.2-0.7-1.6
				c-0.3-0.3-1.1-0.2-1.5-0.2c-0.4,0-1.2,0-1.3-0.4c-0.1-0.5-0.3-1-0.3-1.5c0-1.1-0.6-2.1-1-3.1c-0.1-0.3-0.7-0.9-0.5-1.3
				c0.2-0.4,0.5-1,0.8-1.3c-0.3-0.3-0.7-0.1-1.1-0.3c-0.5-0.2-0.3-0.6-0.4-1.1c-0.1-0.6-0.4-0.7-0.2-1.3c0.2-0.6,0.5-0.4,1-0.4
				c-0.2-0.2-0.4-0.4-0.5-0.7c0-0.1-0.2,0.1-0.2-0.1c0-0.2,0.1,0,0.2-0.1c0.1-0.1,0.3-0.2,0.3-0.3c0.1-0.1,0-0.3,0-0.3
				c0.1-0.2,0.2-0.4,0.3-0.5c-0.3-0.2,0.1-1.2-0.3-1.5c0.4,0,0.3-0.4,0.3-0.7c0-0.1,0-0.3,0-0.4c0-0.3-0.2-0.2-0.2-0.3
				c0-0.5-0.2-0.7-0.3-1.1c0-0.1-0.2,0-0.2-0.3c0-0.2,0-0.3,0-0.5c0-0.3-0.3-0.9-0.4-1.2c-0.2-0.6-0.3-0.6-1-0.6c-0.5,0-0.9,0-1.4,0
				c-0.5,0-0.6-0.3-1-0.6c-0.3-0.3-0.7-0.8-1.1-1c-0.5-0.2-1.1-0.3-1.5-0.6c-0.5-0.3-0.4-0.8-0.9-1c-0.3-0.1-1.2-0.8-1.6-0.6
				c-0.4,0.2-0.5-0.1-0.8,0.1c-0.2,0.1-0.3,0-0.5,0c-0.4,0-0.8-0.5-1.2-0.7c-0.3-0.1-0.6-0.2-0.9-0.2c-0.5,3.5-0.8,7.2-0.8,10.8
				C5.5,87.8,8.6,99.6,13.9,109.9z"/>
		</g>
		<path class="st2" d="M69.8,73.7c0.3,0,0.5-0.2,0.9-0.2c-0.3,0.1-0.7,0.5-1,0.7c-0.3,0.3-0.8,0.5-1,0.9c-0.3-0.8-1-1.4-1.4-2.2
			C67.6,73.3,69.2,73.7,69.8,73.7"/>
		<path class="st3" d="M50.9,44.7c1.1,0.8,2.5,1.3,3.9,1.5c0.3,0.1,0.7,0,1,0c0.2,0,0.1-0.3,0.3-0.3c0.1,0,0.2,0,0.3,0
			c0.7-0.2,1.5,0.1,2.2,0c0.8-0.1,1.2-0.2,2,0.1c0.6,0.2,1.2,0,1.8,0.2c0.7,0.1,1.3-0.3,2,0c0.4,0.1,1.6,0.8,2,0.3
			c0,0.4,0.6,0.6,0.9,0.8c0.2,0.1,0.2,0.4,0.3,0.4c0.2,0,0.4,0,0.7,0.1c0.8,0.2,2,0.6,2.3,1.5c-0.3,0-0.6,0.1-0.9,0.1
			c-0.5,0.1-0.1,0.2-0.3,0.4c-0.5,0.4-1.1,0.4-1.6,0.6c-0.5,0.3-1.1,0.7-1.6,1c-0.4,0.3-0.5,0.9-0.7,1.3c-0.1,0.2-1.3,0.3-1.6,0.4
			c-0.6,0.1-1.2,0-1.8-0.2c-0.7-0.2-0.8,0.6-0.8,1.1c0,0.5-0.1,1.1-0.5,1.4c-0.1-0.1-0.3-0.2-0.3-0.3c-0.2,0.3-0.4,0.1-0.6,0.3
			c-0.2,0.2-0.4,0.3-0.7,0.3c-0.5,0-0.7-0.7-0.9-1.1c-0.2-0.3-0.9,0.5-1.2,0.6c-0.3,0.1-0.5-0.1-0.8-0.1c-0.4-0.1-0.1,0.4,0.1,0.5
			c-0.5-0.1-0.9,0.5-1.2,0.8c-0.3,0.3-1.2,0-1.2,0.5c0,0.2-0.2,0.5-0.2,0.6c0,0.3,0.3,0.3,0.4,0.6c0.4,0.8-0.2,0.5-0.6,0.9
			c-0.3-0.5-1.5,0.4-2,0.3c-0.5,0-1.9-0.5-1.9,0.4c0,0.3-0.7-0.2-0.8-0.3c-0.3-0.3-0.8,0.3-1,0c-0.1-0.1-0.1-0.4-0.2-0.4
			c-0.2,0-0.4,0.1-0.5-0.1c-0.2-0.2-0.4-0.8-0.7-0.5c-0.1,0.1-0.8,0.3-0.8,0.3c0,0.5-0.8,0.4-1,0.3c-0.4-0.2-0.4-0.5-0.9-0.5
			c-0.3,0-0.4,0-0.6,0.1c-0.1,0.1-0.2-0.1-0.4-0.1c-0.4,0-0.7,0-1.1,0c-0.4,0-0.7,0.2-1,0.2c-0.8,0-0.9-1-0.9-1.7
			c0.1,0.1,0.4,0.4,0.5,0.3c0.3-0.1-0.1-0.3,0-0.5c0.1-0.4,0.8-0.6,1.3-0.7c0.3-0.1,1.2,0.3,1.4,0.5c0.4,0.3,0.5,0.7,0.9,0.3
			c-0.3-0.3-0.1-0.4,0.3-0.5c0.1,0,0.4-0.1,0.4-0.2c0-0.1-0.1-0.3,0.1-0.3c0.3,0,0.8-0.3,1-0.1c0.1,0.1,0.6,0.2,0.8,0.3
			c0.1,0,0.4,0.2,0.4,0.2c0.3,0,0.4-0.3,0.7-0.3c0,0,0.3-0.5,0.4-0.6c0.2-0.2,0.6,0,0.7,0.1c0-0.2-0.3-0.5-0.2-0.7
			c0.1-0.1,0.8,0.2,0.9,0.2c0.1,0,0-0.4,0.3-0.5c0.2-0.1,0.9-0.2,0.8-0.5c-0.1-0.4-1.4,0-1.6-0.3c-0.4-0.4-0.9-0.9-1.4-0.4
			c-0.2-0.7-0.4-0.7-1.1-0.7c-0.1,0-0.4-0.6-0.5-0.8c-0.2-0.2-0.4-0.3-0.6-0.6c-0.2,0.2,0.3,1.3-0.5,0.7c0.1,0.3,0.1,0.6,0.2,0.9
			c-0.8,0-1.8-0.1-2.3-0.8c-0.4-0.6-0.6-0.1-1.1-0.3c-0.4-0.2-0.8-0.1-0.9-0.6c0.4-0.3,0.6-0.6,0.9-0.9c0.1-0.1,0.3-0.3,0.5-0.3
			c0.2,0,0-0.4,0.1-0.5c0.2-0.2,1.1-0.1,1-0.5c0,0.1-0.4-0.2-0.4-0.2c-0.3-0.1-0.4-0.2-0.6,0c-0.3-0.3,0-1.8,0.4-1.9
			c0.3-0.1,0.4-0.2,0.7,0c0.1,0.1,0.4-0.2,0.5-0.3c0.4-0.2,0.9,0.1,1.3,0.2c0.7,0.2,1.5,0.3,2.2,0.6c0.4,0.2,0.8,0.3,1.3,0.3
			c0.4,0.1,0.7,0.4,1.1,0.3c-0.3-0.5-1-1.8-0.4-2.3c0.1-0.1,0.3-0.1,0.5-0.2c0.4-0.1,0.1-0.4,0.3-0.4C50.3,44.7,50.9,45.1,50.9,44.7
			 M45.1,56.8c-0.1,0.5,0.3,0.3,0.7,0.3c-0.1-0.1-0.1-0.4-0.2-0.5c-0.1-0.1-0.5-0.1-0.6-0.3C44.8,55.8,44.7,56.5,45.1,56.8 M47.1,57
			c0.1,0.1,0.1,0.1,0.2,0.2C47.6,56.9,47.2,56.6,47.1,57 M43.9,57.5c0.2,0,0.2,0,0.3-0.2c-0.2,0-0.5,0-0.7-0.2
			C43.6,57.3,43.7,57.4,43.9,57.5"/>
		<g>
			<path class="st2" d="M143.5,116.7c-0.1,0.1-0.2,0.1-0.3,0.2c-0.4-0.3,0-0.9,0-1.3c0-0.2-0.2-0.3-0.2-0.5c0-0.3-0.3-0.2-0.3-0.3
				c-0.2-0.3-0.3-1.1-0.2-1.4c0.1-0.2,0.4-0.1,0.5-0.3c0,0-0.2-0.4-0.2-0.5c0-0.3,0-0.5,0.1-0.8c0.1-0.2,0.3,0,0.4-0.1
				c0.4-0.3,0.3-0.6,0.3-1.1c0-0.5,0.4,0,0.5-0.1c0.2-0.1,0.2-0.3,0.3-0.5c0.2-0.3-0.1-0.3,0.3-0.5c0.2-0.1,0.3-0.1,0.4-0.2
				c-0.1-0.1-0.5-0.6-0.5-0.7c0-0.3,0.3-0.2,0.3-0.5c0-0.1-0.2-0.7-0.2-0.9c0-0.3,0-0.5-0.1-0.8c-0.3-0.9-0.3-2.3-0.9-3.2
				c-0.2-0.3-0.3-0.5-0.6-0.6c-0.4-0.2-0.2,0.2-0.3,0.4c-0.3,0.3-0.8-1-0.9-1.2c-0.1-0.3-0.4-1.3-0.8-1.3c-0.2,0-0.4-0.4-0.6-0.5
				c-0.2-0.1-0.3,0.1-0.5-0.2c0-0.2-0.5-0.6-0.7-0.5c-0.2,0.1-0.2,0.7-0.3,0.9c-0.2,0.4-0.2,0.3,0,0.8c0.1,0.2,0.3,0.4,0.2,0.7
				c0-0.1-0.5,0.2-0.5,0.2c-0.1,0.1-0.1,0.3-0.3,0.4c-0.3,0.1-0.7,0.4-0.3,0.7c0.2,0.2,0.2,0.5,0.4,0.8c0.2,0.3,0.5,0.6,0.7,0.8
				c-0.5,0.1-0.8-0.1-1.1-0.5c-0.3-0.4-0.5-0.4-0.9-0.3c-0.6,0.1-0.8,0.2-1.3,0.4c-0.2,0.1-0.3,0.3-0.4,0.4c0,0-0.3,0.3-0.3,0.3
				c-0.3,0.4-0.5,0.7-0.9,1c-0.3,0.3-0.8,0.2-1,0.5c-0.3,0.3,0.1,2,0.5,2c-0.1,0.2-0.3,0.3-0.3,0.5c0,0.2,0,0.4,0,0.5
				c-0.1,0.4-0.3,0.5-0.5,0.9c-0.2,0.3-0.5,0.3-0.6,0.8c-0.1,0.5,0.1,0.4,0.3,0.7c0.2,0.2,0.4,0.3,0.2,0.8c-0.1,0.4-0.2,0.7-0.4,1.1
				c-0.2,0.7-0.3,1.4-0.5,2c-0.1,0.3-0.1,0.8-0.3,0.9c0,0-0.9-0.3-1-0.3c-0.2,0-0.3-0.2-0.5-0.2c-0.1,0-0.2,0.2-0.3,0.2
				c-0.2,0-0.7-0.5-0.7-0.3c0,0.7,0.7,1.4,0.7,2.2c0,0.3,0.1,2.2-0.5,1.5c0,0.4-0.2,1.1,0,1.4c0.1,0.2,0,0.4,0.1,0.6
				c0.1,0.3,0.3,0.5,0.3,0.8c0,0.1,0,0.2,0,0.3c0,0.2-0.1,0-0.2,0.1c-0.1,0.1-0.2-0.1-0.2,0.1c0,0.1,0,0.2-0.1,0.3
				c-0.2,0.6-0.7,0-0.9-0.3c-0.1,0.2-0.4,0.6-0.3,0.8c0.1,0.5,0.1,1,0.2,1.5c0,0.1,0.5,0.9,0.2,0.9c-0.2,0-0.8-0.5-0.9-0.7
				c-0.9,0.6,0,1.6,0.3,2.2c0.1,0.2,0,0.3,0.2,0.5c0.2,0.2,0.4,0.4,0.5,0.6c0.3,0.3,0.5,0.7,0.8,1c0-0.4,0.1-0.7-0.2-1
				c0.3,0,0.9,0.9,0.5,1.2c0.1,0.1,0.2,0.3,0.3,0.3c0.1-0.3,0.3-0.7,0.3-1c0,0.4-0.2,1,0.3,0.9c-0.4,0.3-0.3,0.5-0.1,0.8
				c0.1-0.1,0.2-0.2,0.3-0.3c0,0,0-0.1,0,0c0-0.1,0.1-0.1,0.2-0.1C135.9,126.8,140,122,143.5,116.7z"/>
			<path class="st2" d="M130.4,131.8c0,0,0.1-0.1,0.1-0.1c-0.1-0.2-0.3-0.4-0.4-0.6C130.2,131.3,130.3,131.6,130.4,131.8z"/>
		</g>
		<path class="st3" d="M129.2,18.6c-0.2,0.1-0.6,0.1-0.8,0.1c-0.3,0.1-0.6,0-0.8,0.2c-0.2,0.1-0.2,0.3-0.4,0.4
			c-0.3,0.2-0.9,0.4-1.2,0c-0.3,0.5-1,0-1.4,0c-0.3,0-0.5-0.3-0.7-0.3c-0.3,0-0.6-0.1-0.9-0.2c-0.5-0.1-0.9-0.3-1.4-0.6
			c-0.4-0.2-0.9,0-0.9-0.6c0-0.2-0.4-0.5-0.5-0.6c-0.1-0.1-0.3-0.3-0.4-0.4c-0.3-0.3-0.7-0.9-0.9-1.4c-0.3-0.5-2.2-0.6-2.8-0.6
			c-0.1-0.1-0.3-0.1-0.4-0.2c-1.1-0.4-2.1-0.7-3.2-0.7c-0.7,0-1.1-0.3-1.6-0.5c-0.5-0.2-0.9-0.1-1.4-0.3c-0.4-0.2-1-0.5-1.5-0.5
			c-0.3,0,0.1,0.9-0.1,1c-0.3,0.2-0.5,0.2-0.6,0.5c-0.1,0.1,0.1,0.4,0,0.5c-0.1,0.3-0.4,0.3-0.3,0.9c0,0.2,0.1,0.3,0.2,0.5
			c0.1,0.3,0,0.3,0.3,0.6c0.3,0.3,0.6,0.6,0.9,0.9c0.1,0.1,0.1,0.3,0.3,0.3c0.2,0,0.2,0,0.3,0.1c0.2,0.2,0.4,0.1,0.6,0.3
			c0.3,0.2,0.3,0.8,0.3,1.2c0,0.5-0.2,0.9-0.6,0.9c-0.2,0-0.4,0-0.4,0.3c0,0.3-0.3,0.3-0.3,0.5c0,0.3-1.1-0.2-1.3-0.3
			c-0.2-0.2-1-0.4-1.3-0.1c-0.2-0.2-1-0.3-1.3-0.3c-0.3,0-0.4-0.1-0.6-0.2c0,0,0,0.2-0.1,0.2c-0.1,0-0.2-0.2-0.3-0.2
			c-0.2,0-0.3,0.1-0.5,0.2c-0.1,0-0.2,0-0.3,0c-0.1,0,0.1,0.2-0.1,0.2c-0.2,0-1.1-0.5-1.1,0c-0.5-0.2-0.7-0.5-1.2-0.5
			c-0.2,0-0.3,0.2-0.4,0.2c-0.2,0-0.2-0.3-0.3-0.4c-0.4-0.2-0.6-0.3-1-0.7c-0.3-0.2-0.5-0.8-0.8-1c-0.7-0.3-1.7,0.2-2.5-0.1
			c-0.4-0.2-0.8,0-1.2-0.2c-0.4-0.2-0.5-0.6-0.9-0.4c-0.1,0.1,0,0.3-0.3,0.3c0,0-0.5-0.3-0.5-0.3c-0.3-0.2-0.7-0.6-0.7-0.1
			c0,0.7-0.5,0.2-0.9,0.4c-0.3,0.1-0.6,0.1-0.8,0.4c-0.2,0.2,0.2,0.3-0.3,0.3c-0.2,0-0.3,0.2-0.5,0.2c-0.4,0-0.7,0.3-0.9,0.5
			c-0.2,0.1-0.2,0.2-0.5,0.3c-0.2,0.1-0.4,0.2-0.6,0.3c-0.3,0.1-0.9,0.1-0.4,0.6c-0.4,0-1-0.1-0.7,0.4c0.3,0.6,0.1,0.3-0.2,0.7
			c-0.1,0.1-0.3,0.1-0.5,0.1c-0.2,0,0,0.3-0.1,0.3c-0.3,0.2-0.6,0.3-0.9,0c0.2,0.6-0.9,0.2-1.3,0.2c-1,0-0.1,1-0.7,1
			c0,0-0.4,0.2-0.4,0.3c0,0.3,0.3,0.3,0.3,0.5c0.1,0.3-0.5,0.2,0.1,0.5c0.3,0.1,0.6,0.2,0.8,0.4c0.2,0.2,0.2,0.3,0.2,0.6
			c0,0.1,0.4,0.1,0.6,0.2c0.4,0.2,0.9,0.4,1.4,0.6c0.5,0.2,0.8,0.7,1.3,1c0.2,0.1,0.4,0.1,0.6,0.2c0.3,0.1,0.4,0.1,0.7,0.1
			c0.3,0,0.5-0.2,0.8-0.2c0.3,0,0.5,0.3,0.6,0.5c0.3,0.3,0.6,0.5,1,0.1c0.2-0.2,0.8,0.4,1.1,0.6c0.4,0.3,0.8,0.6,1.1,1
			c0.4,0.4,0.6,0.8,1,1.2c0.2,0.2,0.3,0.3,0.5,0.4c0.2,0.1,0.6,0.1,0.6,0.2c0.1,0.3,0.4,0.5,0.6,0.7c0.2,0.2,0.1,0.4,0.2,0.5
			c0.2,0.3,0.3,0,0.3,0.4c0,0.2,0,0.5,0,0.7c0,0.4,1,0.8,0.6,1.2c-0.2,0.2-0.4,0.9-0.3,1.3c0.1,0.5,0.7,0.9,1.1,1.2
			c0.4,0.4,0.6,0.1,1.1,0.3c0.9,0.5,1.9,0.5,2.9,0.5c0.5,0,1.2,0.3,1.7,0.1c0.6-0.2,1.1,0,1.6,0.1c0.5,0.1,1.2,0,1.7,0.2
			c0.4,0.3,0.7,0.7,1.2,0.9c0.3,0.1,0.6,0.1,0.9,0.2c0.3,0.1,0.4,0.4,0.7,0.5c0.4,0.2,1,0.4,1.4,0.5c0.3,0.1,0.6,0.3,0.9,0.3
			c0.2,0,0.6-0.1,0.9,0c0.3,0.2,0.2,0.8,0.5,1c0.2,0.1,0.5,0,0.8,0.3c0.2,0.2,0.3,0.4,0.5,0.6c0.4,0.5,0.8,0.9,1.2,1.3
			c0.2,0.2,0.1,0.5,0.3,0.6c0.3,0.1,0.5,0.3,0.8,0.4c0.3,0.2,0.8,0.6,1.1,0.8c0.2,0.2,0.3,0.5,0.5,0.7c0.2,0.2,0.5-0.1,0.8-0.1
			c0.6-0.1,1.1-0.1,1.7-0.2c1-0.1,2.4,0.2,3.3,0.3c1.3,0.1,2.5,0.4,3.8,0.5c0.6,0.1,1-0.5,1.5-0.5c0.1,0,0.5,0.2,0.6,0.2
			c0.3,0,0.7,0.1,1,0.1c0.6,0.1,1.1,0.1,1.7,0.2c0.4,0.1,1.2-0.2,1.5,0.1c0.2,0.2,0.4,0.1,0.6,0.3c0.3,0.2,0.5,0.4,0.8,0.6
			c0.3,0.2,0.8,0.5,1.2,0.6c1,0.1,2.4,0.1,3.3,0.7c0.4,0.3,1.1,0.3,1.5,0.5c0.6,0.3,0.9,0.1,1.5,0c0.3-0.1,0.6-0.1,1-0.2
			c0.2-0.1,0.3,0.5,0.3,0.7c0.2,0.4,1,0.1,1.3,0.2c0.3,0.1,0.6,0.3,0.6-0.1c0-0.3,0.3-0.3,0.5-0.4c0.4-0.3,0.7-0.6,1.2-0.9
			c0.5-0.3,1.1-0.4,1.5-0.7c0.4-0.2,0.8-0.5,1.3-0.5c0.1,0,0.2,0,0.3,0c-4.5-11.6-11.8-21.8-21.1-29.8
			C129.5,18.4,129.5,18.6,129.2,18.6z"/>
		<path class="st2" d="M89.6,93.8c0.8,0.5,1.5,0.9,2.2,1.5c0.4,0.3,0.8,0.1,1.1,0.2c0.4,0.2,0.7,0.5,0.9,0.8
			c0.1,0.2,0.5,0.8,0.7,0.8c0.3,0.1,0.8-0.5,1-0.5c0.4,0,0.6,0.5,0.8,0.7c0.1,0.2,0.2,0.4,0.3,0.6c0.1,0.4,0.2,0,0.4,0.3
			c0.4,0.4,1.2,1.2,1.8,1.2c0.2,0,0.9-0.3,1.1-0.2c0.1,0.1,0,0.9,0.1,1.1c0.1,0.2,0.9,0.1,1.1,0.1c0.6,0,0.7,0.1,1.1,0.5
			c0.2,0.2,0.5,0.9,0.8,0.9c0.5,0,0.1-0.4,0.4-0.7c0,0.3,0.5,0.4,0.8,0.6c0.6,0.3,0.3-0.1,0.6-0.4c0.3-0.3,0.5,0,0.8,0.3
			c0.2,0.2,0.7,0.2,0.9,0.4c0.4,0.3,0.6,0.2,1.1,0.2c0.1,0,0.3,0,0.4,0c0.1,0,0.2,0.1,0.3,0.1c0.2,0.1,0.1-0.1,0.3-0.1
			c0.7-0.1,1.5-0.5,1.5,0.4c0,0.8-0.3,1.5,0,2.3c0.1,0.3,0.4,0.5,0.5,0.8c0.2,0.6,0.3,0.6,0.1,1.3c-0.1,0.5,0.1,0.8-0.6,0.5
			c-0.4-0.1-0.7,0.1-1,0.1c-0.2,0-0.3-0.2-0.4-0.2c-0.2,0-0.4,0.2-0.6,0.2c-0.3,0-0.8-0.3-0.8-0.7c-0.3,0.3-0.6,0.6-1.1,0.5
			c-0.5-0.2-0.7-0.4-1.2-0.6c-0.2-0.1-1-0.3-1.2-0.2c-0.6,0.3-0.7,0-0.9-0.5c-0.3-0.5-0.6-0.1-1,0c-0.6,0.2-0.5,0-0.9-0.3
			c-0.1-0.1-0.7-0.2-0.9-0.3c-0.2-0.1-0.6-0.1-0.7-0.3c-0.2-0.2-0.1-0.5-0.2-0.7c-0.2-0.4-1.6-1.1-2.2-1c-0.5,0.1-0.5,0.5-1,0.3
			c-0.2-0.1-0.4-0.3-0.6-0.3c-0.4,0-0.3,0.3-0.6,0.3c-0.4,0.1-0.9-0.2-1.3-0.3c-0.2-0.1-0.5-0.1-0.7-0.2c-0.1,0-0.1-0.4-0.2-0.5
			c-0.2-0.2-0.3-0.1-0.6,0c-0.2,0.1-0.5-0.2-0.7-0.3c-0.4-0.2-0.8-0.5-1.1-0.7c-0.4,0.5-1.7-0.5-2.2-0.8c-0.4-0.2-0.4-0.6-0.7-0.8
			c-0.3-0.2-0.9-0.5-1.3-0.6c-0.3-0.1-0.5-0.6-0.9-0.6c-0.3,0-0.2,0.2-0.3,0.2c-0.2,0-0.3-0.1-0.5-0.2c-0.2-0.1-0.9-0.5-0.9-0.7
			c0-0.2,0-0.3,0-0.5c0-0.5,0.1-0.3,0.2-0.5c0.2-0.3,0-0.8,0-1.2c0-0.5,0.1-0.9,0.3-1.3c0.2-0.4,1.1-1.8,1.6-1.3
			c0.2,0.2,0.4,0.7,0.6,0.1c0.2-0.6,0.2-1,1-1c0.1,0,1.3,0.1,1.4,0.2C89.1,93,89,93.6,89.6,93.8"/>
		<path class="st3" d="M59.9,68c0.2,0,0.4,0,0.6-0.1c0.2-0.1,0.5,0.1,0.7,0.2c0.4,0.1,0.3,0.1,0.5,0.3c0.2,0.2,0.2,0.6,0.6,0.4
			c0.4-0.2,1,0.2,1.3,0.6c0.4,0.4,0.5,0.9,0.7,1.5c0.1,0.4-0.1,0.8,0.4,0.8c0.2,0,0.4,0.3,0.5,0.5c0.2,0.3,0.4,0.2,0.7,0.2
			c0.2,0,0.4-0.2,0.6-0.2c0,0,0,0.3,0,0.3c0.1,0.1,0.2,0.1,0.3,0.2c0.1,0.1,0.5,0.1,0.6,0.3c0.1,0.3,0.3,0.5,0.5,0.8
			c0.3,0.4,0.6,0.8,0.8,1.3c0.3,0.6-0.6,0.5-0.6,1c0,0.7-0.7,0.2-1,0.3c-0.3,0.1-0.5,0.3-0.8,0.3c-0.5,0-0.3,0.3-0.6,0.5
			c-0.5,0.3-1,0.1-1.4,0c-0.3-0.1-0.6-0.3-0.8-0.3c-0.2-0.1-0.5,0-0.8,0c-0.9-0.2-2.4-0.9-3.2,0c-0.1,0.1-0.3,1-0.2,1.2
			c0.2,0.2,1.2,0.3,0.5,0.9c0.2,0.2,1.1,0.2,1.2,0.3c0.2,0.3-0.5,0.7-0.5,1.1c0,0.4,0.7,0.6,0.7,1c0,0.2-0.2,0.5-0.3,0.7
			c-0.1,0.2,0.4,0.5,0.5,0.6c0.2,0.1,1.2,0.7,0.9,1c-0.3,0.3,1.1,0.2,1.1,0.3c0.1,0.4,0.1,1.1,0.7,1.1c0.5,0,1.3,0.1,1.6,0.5
			c0.4,0.5-0.1,0.7-0.5,0.9c-0.4,0.2-1.3,0.6-1.4,1c-0.1,0.5,0.3,0.8,0.3,1.3c0,0.2,0,0.5,0,0.8c0,0.1,0,0.3,0,0.3
			c0,0.1,0.3,0.2,0.3,0.2c0.1,0.3,0.3,0.2,0,0.5c-0.2,0.2-0.4,0.3-0.6,0.3c-0.1,0-0.6,1.2-0.8,1.4c-0.6,0.6,0.1,0.5,0.1,1.1
			c0,0.7-1,0.6-1.4,0.9c-0.4,0.3-0.3,1-0.3,1.5c0,0.5-0.4,1.1-0.6,1.6c-0.2,0.6-0.4,0.7-1,1c-0.3,0.2-0.5,0.3-0.8,0.5
			c-0.3,0.2-0.1,0.4-0.2,0.7c-0.1,0.6-0.3,1-0.6,1.5c-0.2,0.2-0.2,0.4-0.2,0.6c0,0.2-0.6,0.3-0.8,0.4c-0.4,0.1-1,0-1.3,0.2
			c-0.5,0.3-1,0.7-1.5,0.3c-0.4-0.3-0.3-1-0.9-1c-0.5,0-0.9,0.7-1.1,1.1c-0.3,1-1.2,1.7-1.4,2.8c-0.1,0.7,0.1,0.7,0.5,1
			c0.2,0.1,0.4,0.3,0.6,0.4c0.3,0.1,0.7,0,0.9,0.1c1,0.4,0.1,1.8,0.6,2.5c0.5,0.6,0.5,0.7,1.3,0.7c0.6,0,0.6,0.4,0.6,1
			c0,0.5,0.7,0.9,0.9,1.3c0.3,0.5,0.3,1.1,0.8,1.5c-0.3,0.2-0.3,0.8,0,1c-0.6,0.3-0.7,1.1-1.5,0.3c0,0,0.1-0.3,0-0.3
			c-0.1-0.1-0.5,0.1-0.6,0.1c-0.3,0.1-0.9,0.3-0.9,0.7c0,0.6-1.7-0.3-1.9-0.3c-0.5,0-1.8,0.2-2.1-0.2c-0.1,0.1-0.1,0.1-0.2,0.2
			c0.1,0.4,0.1,0.8,0.2,1.2c-0.7,0-1.9-0.1-1.9,0.9c-0.1-0.5-0.6-0.3-0.9-0.7c-0.1,0.5-0.8,0.5-0.7,0c-0.6,0.6-0.5-0.5-0.8-0.5
			c-0.4,0-0.6-0.8-0.6-1.1c0-0.4-0.5-1-0.7-1.4c-0.2-0.4-1-0.4-1.4-0.5c-0.3-0.1-0.1-0.8-0.2-1.1c-0.1-0.4-0.5-0.8-0.8-1.1
			c-0.2-0.3-0.8-0.8-1.1-0.4c-0.3,0.3,0.2,0.3,0.4,0.3c0.3,0,0.4,0.1,0.6,0.3c-0.5-0.2-1.3-0.2-1.9,0c-0.4,0.2-0.4,0.4-0.8,0.3
			c-0.5-0.1-0.8-0.1-1.2,0c-0.3,0.1-0.7,0.1-1,0.2c-0.3,0.1-0.5,0.4-0.8,0.4c-0.2,0-0.7-0.3-0.9-0.3c-0.5-0.1-0.7-0.2-1-0.5
			c-0.1,0.7-2-0.3-1.7,0.9c-0.8-0.2-1.6-0.2-2.4-0.2c-0.4,0-0.6,0.1-1,0.2c-0.4,0.1-0.5,0.3-0.9-0.2c0,0.6-1.2,0.4-1.6,0.3
			c-0.5-0.2-0.3-1.2-0.3-1.7c0-0.6,0.1-1.2,0.3-1.7c0.1-0.4,0-0.5,0.4-0.8c0.3-0.2,0.5-0.5,0.9-0.2c-0.3-1.4,2.3-1,2.9-1.2
			c0-0.2-0.1-0.4-0.2-0.6c0-0.1,0.2-0.3,0.2-0.5c0-0.3,0.3-0.7,0.1-0.9c-0.5-0.5-1.5,0.2-1.8-0.4c-0.2-0.6,0-1.4-0.2-2
			c-0.2-0.5-0.3-0.8-0.3-1.3c0-0.4-0.3-0.1-0.7-0.2c-0.3-0.1-0.6-0.7-0.7-0.7c-0.3-0.1-0.7-0.1-1.1-0.2c-0.7-0.2-1.2-0.9-1.6-1.5
			c-0.2-0.3-0.4-0.6-0.7-0.9c-0.3-0.3-0.3-0.6-0.5-0.9c-0.4-0.6-1.2-1.2-1.7-1.7c1.7,0.5,3.4,1.1,5.1,1.5c1,0.3,2,0,3-0.1
			c0.8-0.1,1.6,0,2.4,0.3c0-0.8,2-0.7,2.6-0.7c1.1,0,2-0.6,3.1-0.9c0.3-0.1,1.4-0.2,0.9-0.7c-0.4-0.4-0.1-1-0.2-1.5
			c-0.1-0.5-0.4-1.1-0.2-1.5c0.2-0.4,0.8-0.6,0.8-0.8c0.4-1.7,1.5-0.3,2.6-0.7c0.1,0,0.6-0.2,0.6-0.4c0-0.3-0.3-0.1-0.4-0.3
			c-0.1-0.1-0.4-0.4,0-0.4c0.4,0,0.6-0.2,0.9-0.4c0.2-0.1,0.2-0.3,0.4-0.5c0.2-0.2,0.3,0.1,0.6,0.1c0.6,0,0.7-0.3,1.2,0.2
			c0.3,0.3,0.9,0.4,1.2-0.1c0.5-0.7,0.5-0.9,0.2-1.7c-0.2-0.8-0.3-1.1,0-1.8c0.1-0.1,0-0.2-0.1-0.3c-0.1-0.2,0.1-0.1,0.1-0.3
			c0-0.2-0.1-1,0.3-1c0.7,0,1.2-0.3,1.8-0.7c0.3-0.2-0.3-1.1-0.6-1.4c-0.2-0.2-1.5-1.1-1.1-1.4c0.6-0.3,1.1,0.2,1.7,0.2
			c0.6,0,1.6,0,1.9-0.6c0.2-0.4-0.5-1.4-0.8-1.6c0.4,0,0.4-0.5,0.6-0.8c0.1-0.1,0-0.3,0.1-0.5c0.1-0.1,0.4-0.2,0.5-0.3
			c0.1-0.2,0.1-0.4,0.2-0.5c0.2-0.2,0-0.2-0.1-0.4c0-0.2-0.2-0.2-0.2-0.4c0-0.2,0-0.4,0-0.5c-0.3-0.6-0.9-1.7-1.6-1.9
			c-0.5-0.2,0-0.7,0.3-0.9c0.4-0.4,0.3-0.7,0.9-0.7c-0.1,0,0.6-0.7,0.7-0.8c0.3-0.3,0.6-0.3,1-0.5c0.7-0.3,1.7-0.4,2.5-0.4
			c0.5,0,0.9,0,1.4,0c0.2,0,1,0.2,1.1,0.1c0.3-0.2,1-0.3,1.2-0.6C59.3,67.5,59.4,67.9,59.9,68"/>
		<g>
			<path class="st3" d="M46.7,8.3c0.1,0,0.1,0.1,0.2,0.1c1.8,1.4,3.7,2.9,5.3,4.5c0.8,0.8,1.7,1.4,2.5,2.1c0.4,0.4,1.9,2.4,2.5,2.2
				c0,0-0.3-0.3-0.2-0.3c0.3-0.2,1.2-0.1,0.7-0.7c-0.2-0.2-0.2-0.3-0.2-0.5c0,0,0.4-0.4,0.3-0.3c0.5-0.2,0.9,0.2,1.2,0.3
				c0.2,0.1,0.5-0.1,0.5,0.3c0,0.1-0.1,0.5,0,0.6c0.1,0.1,0.7-0.1,0.9,0c0.3,0.1,0.2,0.1,0.3,0.3c0.3,0.4,0.5,0.7,1.1,0.4
				c0.5-0.3,1.1,0.3,1.5,0.1c0.3-0.2,0.5,0.1,0.8,0c0.2-0.1,0.2-0.4,0.3-0.5c0.2-0.2,0.2-0.2,0.6-0.2c0.4,0,0.1-0.2,0.4-0.3
				c0.4-0.1,1,0.1,1.4,0.2c0.4,0.2,1,0.5,1.4,0.9c0.4,0.4,0.9,0.4,1.1,0.9c0.3,0.6,0.6,0.6,1.1,0.9c0.3,0.1,1.1,0.4,1.4,0.4
				c0.5,0,0.7,0.6,1.1,1c0.3,0.3,0.7,0.6,1.1,0.9c0.2-0.4,1.9,0.3,2.3,0.3c0.4,0,0.6-0.2,0.8-0.6c0.2-0.5,0.5-0.5,0.8-0.1
				c-0.6,0.1,0.4,0.6,0.5,0.7c0.4,0.4,0.7,0.7,1.2,0.8c0.3,0.1,0.3,0.1,0.6,0.2c0.2,0.1,0.3,0.4,0.4,0.5c0.5,0.2,0.5-0.2,0.9-0.3
				c0.1-0.1,0.4,0,0.6,0c0.3,0,0.2-0.2,0.3-0.2c0.6,0-0.1-0.7,0.2-0.9c0.3-0.2,0.8-0.2,1.1-0.1c0.2,0,0.8,0.5,0.7-0.2
				c0.2,0.3,0.6,0.2,0.9,0c0.1-0.1-0.2-0.3,0.1-0.3c0.2,0,0.4,0.1,0.5-0.1c0.4-0.4,0.5-0.1,0.2-0.7c-0.3-0.5,0.3-0.4,0.7-0.4
				c-0.5-0.5,0.3-0.5,0.6-0.6c0.2-0.1,0.3-0.2,0.5-0.2c0.3-0.1,0.3-0.2,0.4-0.3c0.4-0.3,0.6-0.5,1.1-0.5c0.2,0,0.3-0.2,0.5-0.2
				c0.2,0,0-0.2,0.1-0.3c0.2-0.3,0.6-0.3,0.9-0.5c0.4-0.2,0.8,0.4,0.8-0.3c0-0.6,0.5,0,0.8,0.1c0.1,0.1,0.4,0.3,0.5,0.3
				c0.3,0,0.2-0.3,0.3-0.3c0.5-0.2,0.6,0.2,1.1,0.5c0.3,0.2,0.7-0.1,1,0.1c0.7,0.4,1.8-0.2,2.5,0.1c0.3,0.1,0.6,0.8,0.9,1
				c0.3,0.3,0.5,0.4,0.9,0.6c0.2,0.1,0.2,0.3,0.4,0.4c0,0,0.3-0.2,0.4-0.2c0.5,0,0.7,0.4,1.1,0.5c0-0.5,0.9,0,1.2,0
				c-0.1,0,0.4-0.2,0.4-0.3c0.1-0.1,0.4-0.1,0.5,0c0.3,0.3,0.2-0.1,0.3-0.1c0.1,0,0.5,0.1,0.6,0.2c0.3,0.1,1,0.1,1.2,0.3
				c0.4-0.5,1.1,0.2,1.4,0.2c0.3,0,0.5,0.3,0.7,0.3c0.5,0,0.3-0.1,0.5-0.2c0.4-0.2,0.1-0.4,0.4-0.6c0.1-0.1,0.5,0.2,0.5-0.1
				c0,0,0.3-0.3,0.3-0.4c0.1-0.1,0-0.4,0-0.6c0-0.2-0.1-0.6-0.2-0.8c-0.2-0.3-0.4-0.2-0.7-0.3c-0.3-0.1-1-0.5-1-0.9
				c0-0.3-0.4-0.3-0.6-0.5c-0.3-0.3-0.1-0.3-0.3-0.6c-0.1-0.2-0.2-0.3-0.2-0.5c0-0.1,0-0.4,0-0.5c0.1-0.3,0.3,0,0.3-0.4
				c0-0.2,0-0.3,0-0.5c0-0.2,0.5-0.3,0.6-0.4c0.1-0.1,0-0.4,0.1-0.5c0-0.3-0.1-0.4,0.2-0.5c0,0,0.5,0.2,0.6,0.2
				c0.5,0.2,0.9,0.4,1.4,0.5c0.5,0.1,0.9,0.4,1.4,0.5c0.6,0.2,1,0.1,1.6,0.1c1.1,0.1,2,0.7,3.1,0.9c0.5,0.1,1,0,1.4,0.2
				c0.3,0.1,0.6,0.2,0.9,0.3c0.3,0.1,0.2,0.1,0.4,0.4c0.3,0.4,0.7,0.9,0.9,1.3c0.1,0.3,0.6,0.7,0.8,0.9c0.3,0.4,0.6,0.3,1.1,0.5
				c0.4,0.3,0.9,0.4,1.4,0.5c0.2,0.1,0.7,0.1,0.9,0.2c0.2,0.2,0.4,0.3,0.7,0.3c0.4,0,0.9,0.5,1.3,0c0.3,0.4,0.9,0.2,1.2,0
				c0.2-0.1,0.2-0.3,0.4-0.4c0.2-0.1,0.4-0.1,0.7-0.1c0.3-0.1,0.6-0.2,0.9-0.2c0.2,0,0.3-0.3,0.5-0.3C116.5,7,99.4,0.2,80.7,0.2
				C68.5,0.2,56.9,3.1,46.7,8.3z"/>
		</g>
		<g>
			<path class="st3" d="M12.9,42.9c0.1,0.1,0.2,0.2,0.3,0.3c0.3,0.3,0.7,0.8,1.1,0.7c0.5-0.2,1-0.1,1.5-0.3c1-0.3,2.1-0.1,3.1,0
				c0.5,0.1,1.1,0,1.6,0c0.2,0,0.6,0.2,0.7,0.1c0.1-0.1,0.4-0.3,0.6-0.4c0.6-0.3,0.8,0,1.2,0.4c0.4,0.4,0.9,0.4,1.3,0.8
				c0.4,0.4,0.7,0.7,1.1,1.1c0.2,0.2,0.4,0.4,0.6,0.6c0.1,0.1,0.4-0.3,0.6-0.3c0.5,0,0.7,2.4,0.9,2.9c0,0.2-0.1,0.7,0.2,0.7
				c0.3,0,0.6,0,0.9,0c0.2,0,0.6-0.1,0.6,0.1c0,0.4,0,0.5,0.2,0.8c0.3,0.4,0.6,1,0.8,1.5c0.2,0.5,0.4,0.9,0.9,0.9
				c0.5,0.1,1.1-0.2,1.6-0.2c0.5,0,1-0.1,1.5,0c0.4,0.1,0.8,0.4,0.8,0.8c0,0.5,0.3,0.9,0.8,1c0.3,0.1,1.1,0.6,1.1,0
				c0-0.2-0.2-0.3-0.2-0.5c0-0.2,0.2-0.4,0.2-0.7c0-0.4,0.7-0.6,0.7-1.2c0-0.3,0.3-0.3,0.5-0.4c0.2-0.2,0.2-0.2,0.4-0.4
				c0.4-0.4,1-0.3,1.4-0.7c0.3-0.4,0.7-0.8,0.9-1.2c0.1-0.3,0.4,0.1,0.6,0.1c0.1,0,0.2-0.3,0.3-0.4c0.1-0.1,0.6-0.1,0.3-0.3
				C42,48.2,42,48,42,47.8c0-0.2,0.4-1.2,0.6-1.2c0.1,0,0.3-0.1,0.4-0.1c0.1,0,0.2,0.2,0.3,0.2c0.2-0.1,0.3-0.3,0.6-0.3
				c0.5,0,1,0.3,1.5,0.3c0.5,0,1,0.2,1.5,0.3c0.5,0.2,0.9,0.4,1.5,0.5c0.2,0,0.4,0,0.6,0.1c0.2,0.2,0.4,0.3,0.6,0.3
				c-0.3-0.6-1-1.8-0.3-2.4c0.1-0.1,0.5-0.1,0.6-0.1c0.2-0.1,0-0.4,0.2-0.4c0.3,0,0.7,0.1,0.8-0.2c1.1,0.7,2.6,1.4,3.9,1.5
				c0.3,0,0.8,0.1,1,0c0.3-0.1,0.1-0.3,0.6-0.3c0.7,0,1.5,0.1,2.2,0c0.8-0.2,1.3-0.1,2.1,0.2c0.5,0.2,1.2,0,1.8,0.1
				c0.7,0.1,1.3-0.2,2,0c0.4,0.1,1.5,0.7,1.8,0.3c0,0.4,0.4,0.5,0.7,0.7c0.2,0.2,0.3,0.1,0.5,0.4c0.1,0.2,0.2,0,0.4,0.1
				c0.3,0.1,0.8,0.2,1.1,0.2c0.3,0,0.6,0.4,0.8,0.5c1.2,0.8,0.2-0.4-0.1-0.9c-0.2-0.3-0.2-0.6-0.2-0.9c0-0.2,0.7-0.3,0.9-0.4
				c-0.4-0.3-1.1-0.4-0.3-0.8c0.2-0.1,0.6,0.1,0.6-0.2c0-0.2-0.5-0.4-0.6-0.5c-0.2-0.1,0-0.4-0.1-0.6c-0.1-0.2-0.3-0.4-0.5-0.6
				c-0.2-0.2-0.4-0.6-0.6-0.9c-0.1-0.2-0.4-0.2-0.5-0.4c-0.2-0.3-0.5-0.3-0.5-0.7c0-0.2-0.1-0.4-0.2-0.6c-0.1-0.3-0.3-0.4-0.3-0.8
				c0-0.1,0-0.2,0-0.3c0-0.2-0.2,0-0.2-0.1c0-0.2,0.4-0.3,0.1-0.4c-0.2-0.1-0.5-0.3-0.7-0.3c-0.2,0-0.6,0.2-0.8,0.2
				c-0.2,0-0.2-0.3-0.5-0.3c0.2-0.7,0.9-0.5,1.4-0.7c0.5-0.1,0.7-0.3,1.3-0.3c0.6,0,1.1-0.3,1.7-0.5c0.3-0.1,0.3-0.3,0.7-0.1
				c0.2,0.1,0.4,0.3,0.6,0.4c0.4,0.2,0.2,0.1,0.7,0c0.4-0.1,0.2-0.1,0.6,0c0.5,0.2,0.9,0.4,0.8-0.4c-0.2-0.7-0.9-0.5-1.3-0.9
				c-0.2-0.2-0.1-1.1-0.1-1.4c0-0.6-0.2-1.2-0.2-1.8c0-0.6,0-1.2,0-1.7c0-0.4-0.3-1,0-1.2c0.4-0.2,1,0.3,1.4,0.4
				c0.5,0.1,1.1,0.5,1.6,0.5c0.6,0,0.8-0.2,1.5,0c0.3,0.1,0.3,0.1,0.6,0.2c0.2,0.1,0.2,0.4,0.5,0.3c0.4,0,0.7-0.9,1.1-0.9
				c0.7,0,0.6-0.3,0.6-0.9c0-0.2-0.6-0.8-0.8-1.1c-0.2-0.5-0.7-1-0.8-1.5c0-0.2-0.1-1.1,0.1-1.3c0.2-0.2,0.6,0,0.8-0.1
				c0.3-0.1,0.5-0.2,0.8-0.3c0.3-0.1,0.3,0.2,0.4-0.3c0.1-0.3,0.3-0.4,0.2-0.7c-0.2-0.6-0.7-0.7-0.1-1.1c0.1-0.1,0.1-0.2,0.4-0.2
				c0.3,0,0.5,0,0.8,0.2c-0.1-0.3-0.5-0.7-0.8-0.7c-0.1,0-0.7-0.1-0.8-0.2c-0.2-0.2-1.6-1.3-1.2-1.3c-0.4-0.6-0.5-0.2-0.9,0.2
				c-0.3,0.4-0.3,0.5-0.8,0.5c-0.4,0-2.1-0.7-2.3-0.3c-0.1-0.1-0.2-0.2-0.3-0.3c-0.4-0.3-0.9-0.6-1.2-1c-0.1-0.1-0.1-0.4-0.3-0.5
				c-0.1-0.1-0.5-0.1-0.7-0.1c-0.5-0.2-1-0.2-1.5-0.4c-0.5-0.2-0.6-0.8-0.9-1.1c-0.3-0.3-0.9-0.6-1.4-0.9c-0.5-0.3-0.8-0.5-1.4-0.6
				c-0.3-0.1-0.5-0.1-0.8-0.1c-0.3,0-0.2,0.3-0.3,0.3c-0.2,0-0.6-0.1-0.8,0c-0.1,0,0,0.4-0.2,0.5c-0.3,0.3-0.5-0.1-0.8,0
				c-0.2,0.1-0.4,0.2-0.7,0.1c-0.6-0.2-0.9,0-1.5,0c-0.6,0-0.4-0.9-0.9-0.9c-0.2,0-0.6,0.1-0.8,0c-0.3-0.1,0-0.1-0.2-0.3
				c-0.2-0.3,0.1-0.5-0.4-0.5c-0.3,0-0.3-0.1-0.5-0.3c-0.2-0.2-0.8,0-0.9,0.1c-0.4,0.5,0.4,0.8,0.1,1.1c-0.2,0.2-1.1,0.1-0.6,0.6
				c-0.7,0.2-2-1.9-2.6-2.2c-1-0.7-1.8-1.6-2.7-2.4c-0.8-0.7-1.7-1.4-2.5-2.2c-0.8-0.7-1.8-1.4-2.6-2.2C32,15.8,20.1,28,12.9,42.9z"
				/>
		</g>
		<path class="st3" d="M44.2,57.3c-0.2,0.3-0.6,0-0.7-0.2C43.7,57.3,44,57.4,44.2,57.3 M42.9,53.2c-0.2,0-0.3-0.1-0.3-0.3
			C42.7,53,42.8,53.1,42.9,53.2 M43.4,54.2c-0.2,0.2-0.5,0.5-0.7,0.7c-0.2,0.2,0,0.5,0.1,0.5c0.5,0,1.2,1.1,1.8,0.3
			c0.2,0.7-1.3,0.4-0.7,1c-0.3,0.3-0.4,0.1-0.8-0.3c-0.3-0.3-1.1-0.6-1.4-0.6c-0.2,0-1.4,0.3-1.4,0.6c0,0.2,0.2,0.4,0.1,0.5
			c-0.2,0.2-0.5-0.1-0.6-0.3c0,0.2,0,0.4,0,0.6c0,0.4,0.2,0.3,0.3,0.6c0.2,0.3,0.1,0.4,0.3,0.5c0.3,0.1,0.5-0.2,0.8-0.2
			c0.5,0,1-0.1,1.4,0c0.1,0,0.5,0.2,0.5,0.2c0.2,0,0.5-0.2,0.8-0.2c0.5,0,0.6,0.6,1.1,0.7c0.3,0,0.5-0.2,0.7-0.3
			c0.1-0.1-0.1-0.2,0.1-0.2c0.1,0,0.3,0,0.4,0c0.2-0.1,0.2-0.4,0.5-0.3c0.2,0,0.2,0.4,0.3,0.5c0.2,0.2,0.3,0.2,0.6,0.2
			c0.2,0,0.1,0.5,0.3,0.5c0.2,0,0.4-0.2,0.7-0.2c0.2,0,0.3,0.3,0.5,0.4c0.4,0.2,0.2,0,0.4,0c0.1,0,0.1-0.3,0.2-0.3
			c0.1-0.1,0.3,0,0.4-0.1c0.3-0.3,1,0.1,1.4,0.1c0.4,0,0.5-0.1,0.8-0.2c0.2-0.1,0.5-0.3,0.7-0.3c0.6,0,0.5,0.4,0.7,0.9
			c0.1,0.2,0.3,0.4,0.4,0.6c0.2,0.3,0.4,0.1,0.5,0.4c0.1,0.3-0.2,0.1-0.2,0.3c0,0.3,0.2,0.4,0.3,0.6c0.2,0.3,0.2,0.4,0.5,0.5
			c0.1,0.1,0.6,0.4,0.6,0.1c0-0.7,0.9-0.4,1.4-0.3c0.6,0.2,1.2,0.4,1.2,1.1c0,0.7,0.4,0.9,0.7,1.4c0.1,0.1,0.1,0.2,0.2,0.3
			c0,0.1,0.2,0.2,0.2,0.2c0.1,0.3-0.1,0.6,0.1,0.8c0.3,0.3,1.4,0.6,0.6,1.1c-0.5,0.3-0.7-0.3-1.3-0.3c-0.3,0-0.6,0-0.8-0.1
			c-0.4-0.2-0.3,0.2-0.4,0.3c-0.2,0.1-0.6,0.1-0.8,0.2c-0.3,0.1-0.7,0.3-0.9,0c0.2,0,0.4-0.1,0.3-0.3c-0.1-0.3-0.3-0.1-0.5-0.2
			c-0.1,0,0.1-0.2-0.1-0.2c-0.1,0-0.3,0-0.4,0c-0.2,0-0.5,0.1-0.7,0.2c-0.5,0.3-1.1,0.5-1.2,1.1c-0.2,0.7-0.8,0.5-1.4,0.8
			c-0.4,0.1-0.6,0.9-1,0.9c-0.6,0-0.9-0.3-1.1-0.9c-0.3-0.5-0.5-0.8-0.5-1.4c0-0.6-0.2-1.2-0.2-1.8c0-0.6,0-0.6-0.6-0.6
			c-0.9,0-0.1-0.5-0.5-0.9c-0.3-0.3-0.8-0.9-1.2-1c-0.8-0.3-1,0.1-1.3,0.8c-0.1,0.2-0.1,0.5-0.2,0.6c-0.1,0.1-0.5,0.4-0.5,0.5
			c0,0.3,0.7,1.3-0.1,1.3c-0.2,0-0.3-0.2-0.5-0.2c-0.3,0-0.6,0-0.9,0c-0.8,0-0.5,0.8-0.4,1.2c0.1,1-0.4,0.6-0.9,0.1
			c-0.4-0.4-0.9-0.4-1,0c-0.1-0.2-1,0.1-1.2,0.3c-0.3,0.3-0.1,0.7-0.8,0.7c-1,0-1.5-1.3-1.3-2.2c0.2-0.9,1.5-1.7,0.9-2.6
			c-0.3-0.3-0.9-0.5-1.1-0.9c0-0.1-0.3-0.6-0.3-0.6c0-0.2,0.3-0.7,0.1-0.9c-0.2-0.2,0-0.3-0.3-0.3c-0.2,0-0.4,0-0.7,0
			c-0.7,0-0.3-0.6-0.8-0.7c-0.8-0.2-0.8-0.1-0.8-1c0-0.7,0.6-0.8,1.1-0.6c0.4,0.1,1,0.2,1.4,0.2c0.8,0,0.5-0.3,0.7-0.9
			c0.1-0.3-0.1-0.3,0.3-0.3c0.1,0,0.1-0.2,0.3-0.2c0.3,0-0.1-0.2-0.1-0.3c-0.2-0.3,0-0.4,0.4-0.4c-0.2-0.2-1.8-0.2-0.9-0.4
			c0.4-0.1,0.7-0.1,1-0.1c0.2,0,0.2,0.3,0.4,0.1c0.1-0.1,0-0.3-0.1-0.4c0.1,0,0.1,0,0.2,0c-0.2-0.3-0.3-0.7-0.5-1
			c0.3,0,0-1.4,0.7-0.6c0.5,0.5,1,0.2,1.6-0.1c0.3-0.2,0.6-0.3,0.6-0.7c0-0.3,0.2-0.3,0.5-0.1c0.1,0.1,0.7,0.5,0.7,0.6
			C43.1,54,43.4,53.9,43.4,54.2"/>
		<path class="st3" d="M6.9,64.6c0.5,0.1,0.9,0.5,1.2,0.8c0.3,0.3,1-0.2,1.3,0c0.2,0.1,0.4-0.1,0.7,0c0.3,0.1,0.5,0.2,0.8,0.3
			c0.2,0.1,0.6,0.2,0.8,0.3c0.2,0.2,0.1,0.5,0.3,0.6c0.4,0.4,0.8,0.5,1.3,0.7c0.6,0.2,0.9,0.5,1.4,1c0.4,0.3,0.6,0.8,1.1,0.8
			c0.6,0,1.3,0,1.9,0c0.4,0,0.5,1,0.6,1.3c0.1,0.4,0.1,0.9,0.2,1.3c0,0,0.3,0.3,0.4,0.4c0.1,0.2,0.1,0.4,0.1,0.7
			c0-0.1,0.9,0.7,1,0.8c0.2,0.1,0.4,0.2,0.7,0.2c0.2,0,0.6-0.2,0.7-0.2c0.2,0,1,0.6,1.1,0.8c0.2,0.5,0.2,0.1,0.5,0.1
			c0.2,0,0.1-0.2,0.3-0.1c0.1,0.1,0.2,0.1,0.3,0.1c0.3,0,1-0.5,1.2-0.8c0.2-0.2,0.1-0.5,0.1-0.7c0-0.1,0.2-0.2,0.2-0.3
			c0-0.1-0.2-0.1-0.2-0.3c0-0.3-0.3-0.4,0.3-0.4c0.3,0,0.5-0.1,0.8-0.2c0.5-0.2,0.9-0.3,1.4-0.3c0,0,0.9-0.8,1-0.9
			c0.4-0.4,0.5-0.8,0.5-1.4c0-0.5-0.2-1.3,0-1.7c0.3-0.5,0.9-0.6,1.4-0.6c0.2,0,0.7,0.1,0.8-0.1c0.1-0.2,0.1-0.6,0.1-0.8
			c0.3-0.5,0.5-0.2,1,0c0.4,0.2,1.2,0.5,1.6,0.5c0.3,0-0.1-1.3-0.2-1.5c-0.1-0.4,0.3-1-0.1-1.1c-0.6-0.1-0.9-0.3-1.4-0.5
			c-0.3-0.1-0.5-0.3-0.8-0.4c-0.3-0.1-0.3,0.1-0.6,0.1c-0.4,0-0.8-0.2-1.1-0.4c-0.9-0.5-2.3-1-2.9-1.6c-0.2-0.2-0.5-0.4-0.8-0.6
			c-0.2-0.1-0.4,0-0.6-0.1c-0.4-0.2-1.1-0.4-1.4-0.7c-1.5-1.5-4.3-1.8-5.2-3.9c-0.2-0.6-0.5-0.7-0.9-1.1c-0.5-0.5-0.5-0.8-0.8-1.3
			c-0.2-0.4-0.6-0.9-1.1-1c-0.3-0.1-0.6-0.2-0.9-0.3c-0.4-0.1-0.2,0.2-0.4,0.3c-0.3,0.1-0.4-0.1-0.7-0.2c-0.3-0.1-0.5,0-0.8-0.1
			c-0.3-0.1-0.9,0.3-1.3,0.1c-0.4-0.2-1.2-0.6-1.3-0.8c-0.1-0.1,0-0.4,0-0.6c0-0.2-0.3-0.4-0.3-0.6c0.5,0.1,0.3-0.2,0.1-0.4
			c0,0,0,0-0.1-0.1c-1.7,4.8-3,9.7-3.7,14.9C6.5,64.6,6.7,64.6,6.9,64.6z"/>
		<g>
			<path class="st3" d="M45.8,57.1c-0.2-0.3-0.1-0.7-0.6-0.7c-0.1,0-0.5-0.7-0.4-0.2c0,0.3,0.3,0.4,0.3,0.8
				C45.1,57.2,45.6,57.1,45.8,57.1z"/>
			<path class="st3" d="M10.1,49.7c0.2,0.2,0.4,0.5-0.1,0.4c0.1,0.3,0.3,0.4,0.3,0.8c0,0.4,0,0.4,0.2,0.6c0.5,0.5,1.2,0.7,1.8,0.7
				c0.2,0,0.3,0,0.5-0.1c0.2-0.1,0.3,0.1,0.4,0.1c0.2,0,0.6,0.2,0.8,0.2c0.1,0,0.3,0,0.4,0c0.1,0,0.1-0.3,0.3-0.3
				c0.3,0,0.6,0.2,0.9,0.3c1.2,0.4,1.2,1.6,2,2.3c0.4,0.4,0.7,0.5,0.9,1.1c0.2,0.5,0.3,1,0.8,1.3c0.5,0.3,1,0.6,1.5,0.9
				c0.5,0.2,0.9,0.6,1.4,0.8c1.1,0.4,1.9,1.2,2.9,1.7c0.2,0.1,0.6,0,0.7,0.1c0.2,0.2,0.5,0.3,0.7,0.5c0.3,0.3,0.7,0.5,1.1,0.7
				c0.8,0.4,2,1.5,3,1.5c0.3,0,0.4-0.2,0.7-0.1c0.2,0.1,0.5,0.2,0.7,0.3c0.5,0.3,0.8,0.4,1.4,0.6c0.7,0.2,0.1,0.5,0.3,1
				c0.1,0.5,0.4,1.1,0.3,1.6c0.6-0.1,1.1-0.3,1.7,0c0.2,0.1,0.4,0.3,0.6,0.4c0.4,0.1,0.4,0,0.8,0c0.1-0.1,0.1-0.1,0.2-0.2
				c0.1,0.1,0.1,0.1,0.2,0.2c0.1,0,0.2,0,0.3,0c0.1,0,0.4,0.3,0.4,0.1c0-0.4-0.3-1-0.1-1.3c0.3-0.5,1.6-2.1,0.7-2.5
				c-0.4-0.2-0.9-0.6-1-1.1c-0.1-0.2-0.3-0.4-0.2-0.6c0-0.2,0.2-0.6,0-0.8c-0.2-0.2-0.1-0.3-0.5-0.3c-0.2,0-0.4,0-0.6,0
				c-0.4-0.1-0.2,0.1-0.4-0.3c-0.1-0.3-0.2-0.4-0.5-0.5c-0.4-0.1-0.5-0.1-0.6-0.3c-0.1-0.1,0-0.7,0-0.9c0.2-0.6,0.7-0.5,1.3-0.4
				c0.5,0.1,1,0.2,1.5,0.2c0.5,0,0.4-0.5,0.4-0.9c0-0.5,0.1-0.1,0.3-0.3c0.1-0.1-0.1-0.2,0.1-0.2c0,0,0.3,0,0.3,0
				c0.1-0.2-0.7-0.7,0.2-0.7c-0.2-0.2-1.8-0.2-0.9-0.4c0.4-0.1,0.7-0.1,1-0.1c0.2,0,0.2,0.3,0.4,0.1c0.1-0.1,0-0.3-0.1-0.4
				c0.1,0,0.1,0,0.2,0c-0.2-0.3-0.3-0.7-0.5-1c0.4,0,0-0.5,0.3-0.8c0.3-0.3,0.6,0.4,0.9,0.4c0.6,0,1.5-0.3,1.8-0.9
				c0.1-0.1,0-0.9,0.4-0.5c0.1,0.1,0.8,0.6,0.8,0.7c0,0.3,0.5,0.4,0.3,0.6c-0.2,0.2-0.7,0.6-0.8,0.8c0,0.2,0.9,0.9,1.3,0.9
				c0.4,0,0.7-0.1,1.1-0.2c0.2-0.1,0.5-0.2,0.7-0.2c0.1,0,0.2,0.2,0.4,0.2c0.6,0,0.8,0.6,1.4,0.1c0.2-0.2,0.1-0.1,0.3-0.3
				c0.1-0.1,0-0.2,0.2-0.3c0.2-0.2,0.6-0.2,0.9,0c0-0.2-0.3-0.7-0.1-0.7c0.3,0,0.5,0.2,0.8,0.2c0.1,0,0.2-0.5,0.4-0.6
				c0.2-0.1,0.8-0.2,0.7-0.4c-0.1-0.4-1.4,0-1.6-0.3c-0.4-0.4-0.9-0.9-1.4-0.4c-0.1-0.2-0.2-0.7-0.4-0.7c-0.1,0-0.7,0.1-0.8,0
				c-0.1-0.1-0.3-0.7-0.5-0.9c-0.1-0.1-0.3-0.3-0.5-0.5c-0.2,0.2,0.3,1.3-0.5,0.7c0.1,0.3,0.1,0.6,0.2,0.9c-0.8,0-1.8-0.1-2.3-0.8
				c-0.4-0.6-0.6-0.1-1.1-0.3c-0.4-0.2-0.8-0.1-0.9-0.6c0.2-0.2,0.5-0.3,0.7-0.5c0.1-0.2,0.2-0.4,0.3-0.5c0.1-0.1,0.5-0.1,0.5-0.3
				c0-0.1-0.1-0.4,0.1-0.4c0.2,0,1.2-0.5,0.9-0.5c-0.5,0-0.5-0.6-1-0.1c-0.1,0.1-0.7,0.6-0.8,0.6c-0.2,0-0.4-0.4-0.6-0.1
				c-0.1,0.2-0.2,0.3-0.3,0.5c-0.3,0.4-0.5,0.8-1,1c-0.3,0.1-1,0.1-1,0.6c0,0.3-0.8,0.3-0.8,0.8c0,0.5-0.5,0.6-0.7,0.9
				c-0.3,0.5,0.3,2-0.6,1.5c-0.5-0.2-0.8-0.3-1.2-0.7c-0.2-0.2-0.1-0.5-0.1-0.7c0-0.1-0.2-0.1-0.3-0.3c-0.3-0.3-0.4-0.3-0.9-0.3
				c-0.4,0-0.9,0-1.3,0c-0.6,0-1.1,0.3-1.7,0c-0.4-0.2-0.6-0.6-0.7-1.2c-0.1-0.3-0.4-0.4-0.5-0.7c-0.1-0.3-0.2-0.5-0.4-0.7
				c-0.1-0.1,0.1-0.6-0.1-0.6c-0.3,0-0.6,0-0.9,0c-0.8,0-0.6-0.3-0.8-0.9c-0.2-0.5-0.2-1-0.3-1.5c-0.2-0.5,0.1-1.3-0.7-1
				c-0.3,0.2-0.2,0.2-0.5-0.1c-0.1-0.1-0.3-0.3-0.4-0.4c-0.4-0.4-0.7-0.9-1.2-1.2c-0.4-0.3-0.8-0.3-1.2-0.7
				c-0.5-0.5-0.7-0.5-1.3-0.1c-0.5,0.4-0.7,0.2-1.3,0.2c-1.1,0-2.1-0.2-3.2-0.2c-1,0-2.1,0.5-3.1,0.5c-0.4-0.3-0.8-0.6-1.2-1
				C11.8,45.1,10.9,47.4,10.1,49.7C10,49.7,10.1,49.7,10.1,49.7z M42.5,52.9c0.1,0.1,0.2,0.2,0.3,0.3c-0.1-0.1-0.2-0.1-0.3-0.2
				C42.5,53,42.5,52.9,42.5,52.9z"/>
			<path class="st3" d="M47.3,57.1c0.1-0.1,0.1-0.1,0.2-0.2C47.2,56.7,47,56.9,47.3,57.1z"/>
		</g>
		<polygon class="st4" points="70.6,73 70.5,74.7 74.7,87.6 78.1,92.1 85.1,93.2 86,93.2 86,88.7 75.5,74.8 		"/>
		<g>
			<path class="st5" d="M70.7,73.5c0.1,0,0.2,0.2,0.4,0c0.3-0.3,0.4,0.7,0.5,0.9c0.3,0.4,0.5,0.9,0.8,1.4c0.5,0.6,0.4,1,1.2,1.2
				c0.6,0.2,2.6,0.8,1.4,1.6c-0.3,0.2-0.2,0.4,0,0.6c0.2,0.2,0.2,0.6,0.3,1c0.2,0.6,0.6,1.2,1.2,1.5c0.4,0.2,0.3,0.3,0.4,0.6
				c0.1,0.1-0.1,0.3,0.1,0.3c0.1,0,0.2,0.2,0.3,0.3c0.1,0.1,0.2,0.6,0.3,0.8c0.1,0.2,0.2,0.1,0.2,0.4c0,0.2,0,0.4,0.2,0.6
				c-0.6-0.2-0.4,0.8-1.2,0.3c-0.4-0.2-0.6-0.9-1.2-0.7c-0.4,0.1-0.4,0.3-0.1,0.6c0.2,0.2,0.1,0.6,0.3,0.8c0.1,0.1,0.6,0.4,0.7,0.5
				c0.2,0.2,0.3,0.4,0.5,0.6c-0.3,0.3-0.1,0.4,0,0.6c0.2,0.3,0.2,0.5,0.3,0.8c0.1,0.3,0.2,0.4,0.2,0.8c0,0.1,0.3,0.2,0.5,0.3
				c0.1,0,0.2-0.1,0.2-0.2c-0.1-0.2,0-0.4,0.2-0.5c0.5,0.5,1.1,1.1,1.5,1.5c0.4,0.4,0.6,0.2,1.1,0.2c0.4,0,0.8,0.5,1.1,0.6
				c0.4,0.3,0.6,0,0.6,0.6c0,0.4,0.5,0.3,0.9,0.4c0.4,0.2,1.5,0.7,2,1.1"/>
		</g>
	</g>
</g>
<ellipse transform="matrix(0.7071 -0.7071 0.7071 0.7071 -29.6681 79.1405)" class="st6" cx="80.7" cy="75.4" rx="70.2" ry="70.2"/>
</svg>
