<!-- Generator: Adobe Illustrator 24.2.3, SVG Export Plug-In  -->
<svg version="1.1" xmlns="http://www.w3.org/2000/svg" xmlns:xlink="http://www.w3.org/1999/xlink" x="0px" y="0px" width="150.8px"
	 height="145.5px" viewBox="0 0 150.8 145.5" style="overflow:visible;enable-background:new 0 0 150.8 145.5;"
	 xml:space="preserve">
<style type="text/css">
	.st0{clip-path:url(#SVGID_2_);fill:#FFFFFF;}
	.st1{clip-path:url(#SVGID_2_);}
	.st2{fill:#B3B3B3;stroke:#FFFFFF;stroke-width:0.2777;stroke-linecap:round;stroke-linejoin:round;}
	.st3{fill:#B3B3B3;stroke:#FFFFFF;stroke-width:0.3996;stroke-linejoin:round;stroke-miterlimit:10;}
	.st4{fill:#B3B3B3;}
	.st5{fill:#141F52;stroke:#FFFFFF;stroke-width:0.3996;stroke-linejoin:round;stroke-miterlimit:10;}
	.st6{fill:none;stroke:#FFFFFF;stroke-miterlimit:10;}
	.st7{clip-path:url(#SVGID_4_);fill:#FFFFFF;}
	.st8{clip-path:url(#SVGID_4_);}
</style>
<defs>
</defs>
<g>
	<g>
		<defs>
			
				<ellipse id="SVGID_1_" transform="matrix(0.7071 -0.7071 0.7071 0.7071 -28.1363 74.1035)" cx="75.4" cy="71" rx="70.2" ry="70.2"/>
		</defs>
		<clipPath id="SVGID_2_">
			<use xlink:href="#SVGID_1_"  style="overflow:visible;"/>
		</clipPath>
		<rect x="5.2" y="0.8" class="st0" width="140.4" height="140.4"/>
		<g class="st1">
			<path class="st2" d="M40.2,36.1C40.1,36.7,39.1,35.9,40.2,36.1 M37.6,35.6c-0.1,0.2-0.1,0.2-0.2,0.3
				C37.1,35.8,37.2,35.2,37.6,35.6 M38.5,35.1c1.6,0-0.6,1.8-0.8,0.5c-0.1-0.5,0.5,0.3,0.5-0.3c0-0.1-0.2-0.1-0.2-0.3
				C38,34.8,38.4,35.1,38.5,35.1"/>
			<path class="st3" d="M124,105.9c0,0.1,0,0.1,0,0.2C123.7,105.9,123.8,105.6,124,105.9 M122.3,103.8c0.2,0,0.2,0,0.3,0.2
				c-0.1,0-0.2,0.1-0.3,0.2c0.5,0.3,1.2,0.3,1.6,0.8c0.3,0.3-0.3,0.4-0.4,0.6c-0.1,0.3,0.2,0.5,0.4,0.7c0.3,0.5,0.4,0.5,0.9,0.6
				c0.2,0.1,0.9,0.5,0.9,0.7c0,0.1-0.3,0.5-0.3,0.5c-0.4,0.2-0.6,0-0.9,0.2c0.2,0.1,0.4,0.2,0.6,0.3c0.3,0.1,0.3,0.3,0.5,0.5
				c0.2,0.1,1,0.8,1.2,0.8c0.4-0.2,1.3,0.2,0.7,0.5c-0.4,0.2,0.6,0.7,0.8,0.9c-0.3,0-0.7-0.1-0.7,0.2c0-0.1,0.3,0.3,0.3,0.3
				c0.1,0.2,0.2,0.4,0.2,0.7c-0.4-0.1-0.5-0.2-0.9,0c-0.3,0.1-0.4-0.1-0.4-0.4c0-0.3-0.4-0.4-0.5-0.6c0-0.1,0.2-0.3,0.2-0.3
				c-0.1-0.1-0.3-0.2-0.4-0.2c-0.5-0.3-0.3-0.9-0.8-1c-0.3,0-0.4,0.3-0.7,0.3c-0.2,0-0.5-0.4-0.7-0.5c-0.4,0.5-0.2,0-0.3-0.2
				c-0.4-0.4-0.3-0.2-0.9-0.2c-0.6,0-1.1-0.7-1.7-1c-0.6-0.3-1.1-0.1-1.7-0.3c-0.4-0.1-0.5-0.2-0.6-0.5c-0.1-0.2-0.2-0.7-0.4-0.9
				c-0.3-0.3,0.3-1.1,0-1.5c-0.2-0.3-1.5-1.2-0.6-1.2c0.3,0,0.6,0,0.9-0.1c0.2-0.1,0.3,0,0.5,0c0.2,0,0.2-0.2,0.3-0.2
				c0.3,0,0.6,0.2,0.9,0.2c0.1,0,0.2-0.2,0.4-0.2c0.2,0,0.4,0,0.6,0c-0.1-0.1-0.1-0.1-0.2-0.2c0.2,0,0.4,0,0.6,0
				C121.9,103.5,122,103.8,122.3,103.8 M121.9,104.3c0.1,0.1,0.1,0.1,0.2,0.2C122.1,104.2,122,104,121.9,104.3"/>
			<path class="st2" d="M29.6,75.3c0,0.4,0.4-0.1,0.7,0c0.5,0.2,0.7,0.3,1.2,0.3c0.5,0,0.7,0.6,1.3,0.5c0.3,0,0.7-0.3,1.1-0.1
				c0.4,0.2,0.8,0.2,0.9,0.6c0.1,0.5-0.3,0.6,0,1.2c0.1,0.3,0.8,0.8,0.9,1c0,0.3-0.7,0.6-0.2,1c-0.2,0-1,0.2-1.1,0.1
				c-0.3-0.6-0.5-0.1-0.8,0.1c0.2,0.1,0.6,0.1,0.7,0.3c0.1,0.2,0.1,0.6-0.1,0.6c-0.5,0-0.5,0.6-0.4,1c0,0,0.3,0.1,0.2,0.3
				c-0.1,0.3-0.2,0.1-0.4,0.2c-0.5,0.2-1,0.6-0.9,1.1c-0.2-0.1-0.6-0.2-0.8-0.1c-0.3,0.1-0.4,0.3-0.7,0.3c-0.3,0-0.5,0-0.8,0
				c-0.1,0-0.3,0-0.4,0c-0.4,0-0.1,0.1-0.2,0.2c-0.2,0.1-0.3,0.1-0.5,0.2c-0.2,0.1-0.3,0.3-0.5,0.3c-0.5,0.2-0.9,0-1.5,0
				c-0.1,0-0.4-0.1-0.6-0.2c-0.2,0-0.4,0-0.6,0c-0.5,0-1.1-0.2-1.6-0.3c-0.5-0.1-1-0.2-1.5-0.2c-0.6,0-0.9-0.2-1.3-0.7
				c-0.2-0.2-0.3-0.3-0.3-0.5c0-0.2,0.3-0.4,0-0.5C21,82,20.4,83,20,82.6c-0.1-0.1-1.2,0-1.4,0.2c-0.2,0.2-0.4,0.1-0.4,0.5
				c0,0.2-0.4,0.1-0.6,0.1c-0.2,0-1.1-0.4-1.1-0.4c0-0.6-0.9,0.1-1.1,0.1c-0.6,0-0.6-0.7-1-0.7c-0.5,0-0.6-0.3-0.6-0.7
				c0-0.3,0.5-1-0.2-1c0.4,0.1,0.6-0.2,1-0.2c0.3,0.1,0.7,0.7,0.8,0.7c0.5,0,0.1,0.3,0.5,0.3c0.2,0,0.4-0.8,0.4-1
				c0.2,0.3,0.5,0.1,0.9,0.2c0.3,0.1,0.4,0,0.6,0.3c0.3,0.3,0.1,0.2,0.6,0.1c0.4-0.1,0.5-0.1,0.9-0.3c0.6-0.3,1.5-0.1,2.1-0.4
				c0.2-0.1-0.1-0.3,0.4-0.3c0.1,0,0.2,0.2,0.3,0.3c0.2,0.2,0.3-0.1,0.5-0.1c0.5,0,0.2,0.4,0.4,0.5c0.1,0.1,0.3-0.1,0.4,0.1
				c0.2,0.2,0.2,0,0.3-0.1c0.1-0.1,0-0.7-0.1-0.7c-0.5,0,0-0.3-0.2-0.6c-0.1-0.2-0.6-0.5-0.6-0.8c0-0.4,0.5-0.6,0.8-0.7
				c0.7-0.2,1-0.3,1-1.2c0.2,0.1,0.5,0.2,0.7,0.3c0.1-0.3,0.2-0.1,0.3-0.3c0.1-0.2,0-0.5,0-0.7c0.1,0.3,0.1,0,0.3,0.2
				c0.2,0.1,0.3,0.5,0.4,0.5c0.3,0,0.4,0.1,0.7,0.1c0.2,0.1,0.3-0.4,0.5-0.3c0.7,0.3,0.5-0.1,0.8-0.5c0.4-0.4,0.4-0.3,0.4-0.9
				C29.3,75.3,29.4,75.3,29.6,75.3"/>
			<path class="st3" d="M123.5,109.8c0.1-0.1,0.2,0,0.3-0.2c0.4,0.5,0.6,0.6,1.1,0.2c0.4-0.3,0.6,0.3,0.6,0.6c0,0.6,1,0.2,0.7,0.9
				c0,0,0.5,1,0.6,1.1c-0.6-0.2-1.4-0.2-1.9-0.5c-0.5-0.3-1-0.7-1.4-1.1c-0.2-0.2-0.4-0.4-0.6-0.6c0,0-0.7-0.8-0.7-0.7
				C122.3,109.2,123.7,109,123.5,109.8 M122.1,104.3c0,0.1,0,0.1,0,0.2C121.9,104.3,121.9,104,122.1,104.3 M126.2,101.4
				c0,0.1,0,0.1,0,0.2c0.4-0.5,1.2,0.4,1.5,0.7c0.5,0.4,1,1.1,1.6,1.3c0.3,0.1,0.7,0.1,1,0.2c0.3,0.1,0.5-0.7,0.6-0.9
				c0.1-0.2,0.6-0.3,0.8-0.5c0.2-0.2,0.4-0.7,0.4-0.9c1.5,0.6,2.2,2.4,3.2,3.4c0.5,0.5,1.1,1,1.7,1.2c0.5,0.1,0.6,0.1,1,0.3
				c0.4,0.3,0.6,0.4,0.9,0.9c-0.5-0.1-1.5-0.4-2-0.1c-0.4,0.2-0.6,0.2-0.6,0.7c0,0.4,0,0.8,0,1.1c-0.1,0.4-0.1,0.7-0.1,1.1
				c0,0.2,0.2,0.3,0.3,0.4c0.2,0.2-0.1,0.2-0.1,0.2c0,0.2-0.2,0.2-0.2,0.4c0,0.1,0.1,0.5,0,0.6c-0.2,0.3-0.3,0-0.7-0.2
				c0,0.4-0.2,0.7-0.2,1.1c0,0.5,0.2,1,0.3,1.5c-0.2,0-0.6,0.3-0.8,0.1c-0.3-0.3-0.6-0.4-0.9-0.7c-0.2-0.2-1.4-0.8-1.4-1
				c0-0.5,1.3-0.3,0.8-0.9c-0.3-0.3-0.6-0.1-0.6-0.5c0-0.4,0.3-0.3,0.5-0.6c-0.4-0.4-1.1-1.4-1.9-1c-0.3,0.1-0.6,0.6-0.9,0.7
				c-0.4,0.2-0.6,0.5-0.9,0.8c-0.3,0.3-0.4,0.4-0.7,0.7c-0.1,0.1-0.8,0.9-0.8,0.6c0-0.2,0-0.4-0.2-0.6c0,0-0.3-0.5-0.3-0.3
				c0-0.3,0.4-0.2,0.7-0.2c-0.2-0.3-0.9-0.5-0.9-0.9c0-0.2,0.6-0.1,0.3-0.4c-0.1-0.1-0.5-0.3-0.7-0.2c-0.4,0.2-0.8-0.4-1.2-0.6
				c-0.2-0.1-0.3-0.4-0.5-0.5c-0.3-0.1-0.5-0.2-0.8-0.3c0.2-0.2,0.4-0.2,0.8-0.2c0.4,0,0.1-0.2,0.3-0.4c0.2-0.2-0.6-0.6-0.7-0.7
				c-0.4-0.3-0.7-0.1-1-0.5c-0.2-0.2-0.5-0.4-0.5-0.7c0-0.3,0.6-0.3,0.5-0.7c-0.1-0.4-1.4-0.7-1.7-0.9c0.1,0,0.2-0.1,0.3-0.2
				c-0.4-0.3-1-0.2-0.4-0.8c0.5-0.5,0.7-0.4,1.3-0.1c0.5,0.2,0.6,0.4,1.1,0.7c0.4,0.2,0.9,0,1.4,0.3c0.4,0.2,0.9,0.2,0.9-0.4
				c0-0.7-0.6-0.5-1-0.9c-0.2-0.1-0.3-0.5-0.4-0.5c-0.2,0-0.3-0.2-0.3-0.4c0-0.1,0.3-0.2,0.4-0.3C125.7,101.2,126,101.1,126.2,101.4
				 M123.8,105.9c0.1,0.1,0.1,0.1,0.2,0.2C124,105.8,123.9,105.6,123.8,105.9"/>
			<path class="st3" d="M0.2,72.4c0.3,0,0.6,0.2,0.9,0.4c0.2,0.2,0.3,0.3,0.5,0.5c0.2,0.2,0.3-0.1,0.5-0.1c0.1,0,0.5,0.1,0.6,0
				c0.1-0.1-0.1-0.2,0.2-0.3c-0.5-0.4-0.5-0.7-0.3-1.2c0.1-0.3,0.1-0.5,0.4-0.6C3.2,71,3.4,71,3.4,71.2c0-0.6,0.7-0.6,0.7-1
				c0-0.5-0.9-0.2-0.3-0.7c-0.3,0-0.5-0.4-0.7-0.5c-0.2-0.1,0.2-0.2-0.2-0.2c0,0-0.1,0-0.1,0c-0.2-0.4-0.5,0.2-0.7-0.2
				c-0.1-0.2,0.1-0.5,0.3-0.5c-0.3,0-0.2-0.2,0-0.3c0.3-0.3,0.1-0.2,0-0.3c-0.2-0.2-0.4-0.1-0.6-0.3C1.6,67.1,1.6,67,1.3,67
				c-0.3-0.1-0.3,0.2-0.7,0c-0.4-0.2-0.2-0.3-0.3-0.5c-0.1,1.5-0.1,3-0.1,4.5C0.2,71.5,0.2,72,0.2,72.4z"/>
			<path class="st3" d="M54,94.1c1.1,0,2.1,0,3.2,0.2c0.6,0.1,0.9,0.2,1.5,0c0.4-0.1,1,0.1,1.4,0.2c1.1,0.4,2.2,0.5,3-0.3
				c0.9-0.9,1.9-0.9,3.1-1.2c0.4-0.1,1,0.3,1.4,0.5c0.2,0.1,0.5,0.1,0.7,0.2c0.1,0,0.1,0.2,0.3,0.1c0.1,0,0.3-0.2,0.4-0.1
				c0,0,0.4,0.6,0.5,0.6c0.1,0.1,0.5,0.2,0.6,0.2c0.2,0,0.5,0,0.7,0c0.5,0,0.4,0,0.4,0.5c0,0.3,0,0.5-0.1,0.8
				c-0.1,0.2-0.4-0.1-0.6-0.1c-0.4,0.1-0.8,0.5-0.9,0.8c-0.1,0.4,0,1.2,0,1.7c0,0.1-0.9,0.9-1,1.1c0.6,0.2,1.7,1.2,1.9,1.9
				c-0.3-0.1-1-0.2-1.3,0.1c-0.3,0.3-0.9-0.5-1.1-0.6c-0.3-0.1-1,0.3-1.3,0.5c-0.2,0.1-0.4,0-0.6,0c-0.3,0.1,0,0.2-0.3,0.4
				c-0.1,0.1-0.5,0.2-0.6,0.3c-0.1,0,0.1,0.2-0.1,0.2c-0.1,0-0.2,0-0.3,0c-0.6,0,0.1,0.7,0.1,1c0,0.5-0.5,0.5-1,0.5
				c-0.6,0-0.9,0.1-1.4,0.3c-0.3,0.1-0.9-0.4-1.4-0.6c-0.2-0.1-0.1,0.2-0.2,0.1c-0.1,0-0.3-0.1-0.4-0.1c-0.2-0.1-0.3-0.5-0.5-0.5
				c-0.1,0-0.2,0.1-0.3,0.1c-0.2,0.1-0.1-0.1-0.3-0.1c-0.2,0-0.5-0.1-0.7,0c-0.3,0.1,0,0.3-0.4,0.3c-0.3,0-0.5,0.2-0.9,0.2
				c-0.1,0-0.2,0.2-0.2,0.2c-0.1,0-0.2-0.2-0.3-0.2c-0.2,0-0.4,0.1-0.7,0.2c-0.2,0.1-0.3,0.2-0.6,0.2c-0.4,0-0.3-0.2-0.3-0.6
				c0-0.3,0-0.5,0.1-0.9c0.1-0.3-0.3-0.2-0.3-0.3c0-0.6-0.5-0.8-0.9-1c-0.4-0.2-0.6-0.6-0.9-1c0.2,0,0.3-0.3,0.5-0.5
				c-0.5-0.3-0.1-0.8-0.4-1.1c-0.1-0.1,0.2-0.4,0.3-0.4c0.5,0,0.4-0.1,0.7-0.4c0.2-0.2,0.2-0.4,0.3-0.5c0.3-0.3-0.1-0.3-0.3-0.4
				c-0.4-0.4-0.9-0.6-1.2-1c-0.3-0.4-0.5-0.7-0.5-1.2c0-0.4,0-0.4,0.2-0.7c0.1-0.1,0.3-0.1,0.3-0.2c0-0.1-0.1-0.3,0-0.3
				c0.4-0.3,0.8,0.1,1.3,0.3C54.6,93.3,53.9,93.6,54,94.1"/>
			<path class="st2" d="M35.9,88.8c0.4,0.3,0.6,0.5,1.1,0.5c0.2,0,0.6-0.1,0.6,0.1c0,0.3,0.4-0.1,0.5-0.1c0.2,0,0.4,0.3,0.6,0.3
				c0.2,0,0.3-0.4,0.5-0.3c0.3,0.2,0.3,0,0.7,0c0.2,0,0.3,0.2,0.5,0.2c0.2,0,0.5,0.1,0.7,0.2c0.2,0.1,0.3,0.4,0.4,0.5
				c0.5,0.3,0.7,0,1.3,0c0.6,0,0.4,0.5,0.2,0.9c-0.2,0.5-0.3,0.6-0.3,1.2c0,0.3,2.7,1.3,0.9,1.3c-1.3,0,1.3,1.5,0.2,1.5
				c-0.4,0-0.6,0.2-1,0.2c-0.8,0-0.1,0.2-0.1,0.7c0,0.2-0.4-0.1-0.8,0.1c-0.3,0.2-0.5,0.8-0.3,1.1c-1.4-0.3,0.3,1.7-0.4,1.7
				c-0.6,0-1.8-0.9-2.2-1.3c-0.2-0.2-0.2,0.2-0.4-0.1c0,0,0.2-0.2,0.2-0.3c0-0.2-0.1,0-0.2-0.1c-0.2-0.4-0.8-0.6-1-1
				c-0.1-0.2-0.1-0.4-0.2-0.5c-0.2-0.2-0.2-0.2-0.5-0.3c-0.4-0.2-1-0.6-1.3-0.9c-0.7-0.7-1.5-1.1-1.8-2c-0.3-0.8-1.3-1.2-1.4-2
				c-0.1-0.4-0.1-1.1,0.2-1.2c0.4-0.2,0.7,0.2,1,0.5c0.5,0.5,0.5-0.1,0.9-0.3C35,89,35.5,89.3,35.9,88.8"/>
			<path class="st3" d="M63.2,50.1c0.3-0.1,0.5-0.2,0.8-0.2c0.4,0,0.3,0.5,0.7,0.5c0.3,0,0.5-0.3,0.8-0.3c0.3,0,0.8,0.3,1,0.5
				c-0.5,0.3,0.2,0.7,0.6,0.6c0.3-0.2,0.7-0.4,1-0.4c0.4,0,1.1-0.1,1.3,0.2c0.3,0.3,0.6,0.4,1,0.6c0.1,0.1,0.3-0.1,0.3,0.1
				c0,0.2,0.3,0.5,0.1,0.7c-0.4,0.4,0.4,0.6,0.4,0.9c0,0.3-0.4,0.9-0.3,1.1c0.1,0.3,0.9,0.7,1.2,0.7c-0.3,0.4-0.1,0.5,0.3,0.7
				c0.4,0.2,0.4,0.6,0.8,0.8c0.4,0.2,0.8,0.5,1.2,0.5c0.2,0,0.1,0.7-0.1,0.9c0.4,0,0.7,0,1.1,0.1c0.4,0.1,0.7,0.3,0.9,0.6
				c0.1,0.1,0.2,0.3,0.2,0.4c0.2,0.1,0.5,0.2,0.6,0.3c0.1,0.1,0.2,0,0.2,0.3c0,0.2-0.2,0-0.3,0.1c-0.2,0.2-0.3,0-0.3,0.4
				c0,0.2-0.4,0.2-0.5,0.3c-0.3,0.1-0.7,0.3-1.1,0.1c-0.4-0.2-0.3-0.3-0.8-0.3c-0.6,0-0.3,0.3-0.8,0.7c0.4,0,0.6,0.5,0.9,0.6
				c0.6,0.3-0.2,0.4,0.1,0.8c0.4,0.4,0.2,0.8,0.5,1.1c0.1,0.1,1,0.7,0.3,0.7c-0.4,0-0.8,0.2-1.2,0.2c-0.2,0-0.3-0.3-0.5-0.1
				c-0.2,0.2-0.3,0.3-0.5,0.5c-0.7,0.7-0.7,1.4-0.1,2.1c-0.6,0.2-0.6,0.1-1.1-0.2c-0.6-0.3-0.9-0.4-1.5-0.2c-0.2,0.1-0.5,0-0.7,0
				c-0.4,0-0.3,0.2-0.6,0c-0.3-0.2-0.5-1-0.9-0.6c-0.1,0.1-0.4,0.3-0.5,0.3c-0.2,0,0.1,0.4-0.3,0.3c-0.2,0-0.3-0.4-0.5-0.5
				c-0.2-0.1-0.5,0.1-0.8,0c-0.4-0.2-0.7,0-1.2,0c-0.1,0-0.1,0.3-0.3,0.3c-0.1,0-0.1-0.4-0.4-0.5c-0.2-0.1-0.5,0.2-0.7,0.2
				c-0.2,0-0.4-0.4-0.5-0.5c-0.3-0.3-1-0.1-1.4-0.2c-1-0.3-2-0.5-3.1-0.5c-0.5,0-1-0.2-1.5-0.2c-0.1,0-0.4,0.1-0.6,0.2
				c-0.2,0-0.5,0-0.8,0c-0.3,0-0.4,0.2-0.7,0.2c-0.1,0-0.1,0.3-0.3,0.5c-0.2,0.2-0.4,0.3-0.6,0.5c-0.1,0.1-0.5-0.1-0.7-0.1
				c-0.3,0-0.5-0.1-0.4,0.3c-0.2-0.3-0.3-0.8,0-1c-0.3-0.2-0.1-0.7-0.3-1c-0.3-0.4-0.7-0.3-1.1-0.5c-0.3-0.2,0.1-0.7,0.3-0.9
				c0.4-0.4,0.8-0.5,1.3-0.7c0.7-0.2-1.5-4.1-1.7-4.6c0.2,0.2,0.5,0.3,0.8,0.1c0.3-0.2,0.5,0.1,0.7,0c0.5-0.3,0.9,0.2,1.5-0.1
				c0.3-0.2,0.4,0,0.6-0.2c0.2-0.3-0.1-0.5,0.4-0.5c0.6,0,1-0.6,1.4-0.3c0.2,0.1-0.2,0.3,0.3,0.3c0.3,0,0.4,0.1,0.4-0.3
				c0-0.7-1,0.2-0.5-0.9c0.2-0.5,0-1,0.3-1.5c0.2-0.3,0.5-0.1,0.7-0.3c0.2-0.2,0.3-0.5,0.3-0.7c0.2,0,0.7,0.2,0.9,0.2
				c0.3-0.1,0.1-0.5,0.5-0.5c-0.3-0.3-0.6,0-0.9-0.2c-0.2-0.2,0-0.6,0-0.9c0-0.4,0.2-0.4,0.6-0.4c0.4,0,0.4-0.6,0.8-0.5
				c0.3,0.1,0.7,0.2,1,0.1c0.1,0,0.3,0.1,0.3-0.1c0-0.4,0.1-0.3,0.2-0.4C62,49.9,62.7,49.4,63.2,50.1"/>
			<path class="st2" d="M11.4,79.9c0.6,0.3,1.8,0.1,2.4,0.7c0.4,0.4,0,0.8-0.1,1.3c-0.2,0.7,0.5,0.3,0.8,0.4
				c0.5,0.2,0.3,0.7,0.9,0.7c0.3,0,0.8-0.5,1-0.3c0.2,0.2,0.1,0.3,0,0.5c-0.1,0.3,0.1,0.5,0.1,0.6c-0.1,0.3,0.1,0.3-0.2,0.3
				c-0.3,0.1-0.5-0.1-0.5-0.3c-0.8,0.4-0.2,0.8-0.2,1.4c0,0.4-0.6-0.5-0.5-0.4c-0.3-0.2-0.7,0.2-1,0.2c-0.5-0.1-0.3-0.5-0.5-0.7
				c-0.4-0.3-0.4,0.2-0.5,0.3c-0.1,0.1,0.1,0.4,0,0.5c-0.1,0.1-0.3,0.3-0.5,0.5c-0.2,0.2-0.3,0.7-0.1,0.9c-0.1,0.1-0.5,0.3-0.5,0.1
				c0-0.4-0.5-0.3-0.2-0.8c-0.3-0.1-1.2-0.3-1.2-0.8c0-0.1,0.1-0.6-0.1-0.6c-0.3,0-0.5,0.2-0.7,0.4c-0.4,0.4,0,0.3-0.1,0.6
				c0,0.1-0.3,0.5-0.4,0.5c-0.2,0-0.3,0.3-0.5,0.3c-0.3,0-0.5-0.2-0.8-0.2c-0.2,0-0.5,0.3-0.7,0.3c-0.2,0.1-0.5,0-0.8,0
				c-0.2,0-0.5-0.6-0.7-0.8c-0.3-0.3,0-0.8-0.3-1.1c-0.4-0.4-1.3-0.2-1.5,0.3c-0.1,0.3,0.2,0.2-0.2,0.5c-0.1,0.1-0.4,0.3-0.6,0.2
				c-0.4-0.1,0-0.3,0-0.3C3.7,85,4,85,3.8,84.6c-0.1-0.2,0.3-0.8,0.5-1c0.3-0.2,0.3-0.2,0.5-0.5c0.2-0.3-0.2-0.4,0.3-0.6
				c0.1,0,0.2-0.1,0.3-0.1c0.2,0,0-0.1,0.1-0.2C5.6,82.2,5.8,82,6,81.8c0.6-0.4,0-0.9,0.5-1.1c0.4-0.1,0.4,0.3,0.8,0.2
				c0.1,0,0.4-0.3,0.5-0.3c0.3-0.1,0.4-0.2,0.7-0.2c0.2,0,0.5,0,0.7,0c0.2,0,0.4-0.2,0.6-0.2c0.2,0,0.4,0.2,0.5,0.2
				c0.3,0,0.1-0.2,0.3-0.2c0.7,0-0.3-0.2-0.3-0.3C10.4,79.6,11.2,79.8,11.4,79.9"/>
			<path class="st2" d="M92.8,124.7c-0.4,0.3-0.8,0.7-1.2,1c-0.5,0.4-0.2,0.5,0,1c-0.3-0.4-0.8,0-0.9,0.2c-0.2-0.2-0.5-0.3-0.7,0
				c-0.1-0.1-0.1-0.5-0.2-0.5c-0.3-0.3-0.1,0-0.4,0c-0.2,0-0.4-0.2-0.5-0.1c-0.1,0-0.5,0.3-0.6,0.3c-0.2,0-0.9-0.3-0.6-0.3
				c0.6,0,0.4-0.3,0.4-0.9c0.4,0.1,0.9,0.1,1.3,0.2c0.5,0.2,0.8,0,1.3-0.1c0.9-0.2,1.5-0.8,2.4-1.1C93,124.5,92.9,124.6,92.8,124.7"
				/>
			<path class="st2" d="M88.2,126.6c0.1,0,0.3-0.2,0.4-0.2c0.1,0,0.2-0.1,0.3-0.1c0.2-0.1,0.1,0.1,0.3,0.1c0.2,0,0.5-0.1,0.6-0.1
				c0.1,0.1,0.1,0.4,0.3,0.6c0.2-0.3,0.4-0.2,0.7,0c0.2-0.6,1.5-0.1,0.7,0.2c-0.4,0.2-0.6-0.1-0.9,0.3c-0.3,0.3-0.8,0.5-1.2,0.7
				c-0.1,0.1-0.3,0-0.4,0c-0.1,0.1,0.2,0.3-0.1,0.3c-0.2,0-0.2-0.2-0.3-0.2c-0.2,0-0.1-0.2-0.3-0.1c-0.1,0.1-0.2,0.1-0.3,0.1
				c-1,0-1.4-0.9-1.6-1.7c0.4,0.4,0.6-0.3,1-0.3C87.6,126.2,88,126.4,88.2,126.6"/>
			<path class="st3" d="M27.6,68.7c0.2,0.1,0.6-0.1,0.8-0.2c0.4-0.2,0.1-0.5,0.6-0.5c0.4,0.1,0.4,0.5,0.7,0.7
				c0.1,0.1,0.7,0.1,0.9,0.2c0.7,0.2,0.9,0.6,1.6,0.4c0.3-0.1,0.6,0.1,0.6,0.5c0,0.2-0.4,0.2-0.5,0.3c0.4,0.4,0.8,0.6,1.2,1.1
				c0.1,0.2,1.1-0.3,1.2-0.5c-0.2-0.2-0.4-0.4-0.5-0.7c0.7-0.1,1.2,0.7,1.8,0.7c0.3,0,0.4-0.2,0.7-0.2c0.3,0,0,0.5-0.3,0.5
				c0.4,0.4,0.8,1,1.4,0.3c0,0.2,0.6,0.5,0.9,0.5c0.6,0,0.6,0.4,1.1,0.8c0.2,0.2,0.4,0.3,0.3,0.6c-0.1,0.3-0.1,0-0.3,0.2
				c-0.3,0.1-0.3,0-0.6,0.3C39,73.8,38.8,74,38.8,74c-0.6,0.3-0.6,0.3-0.6,0.9c0,0.4-0.3,0.2-0.5,0.3c0,0-0.2,0.2-0.3,0.3
				c-0.5,0.4-0.8,0.3-1.4,0.3c-0.4,0-0.3-0.3-0.6,0.1c-0.2,0.2-0.3,0.5-0.4,0.8C34.8,76.3,34,76,33.6,76c-0.6,0-1,0.4-1.6-0.1
				c-0.5-0.4-1.1-0.3-1.7-0.6c-0.3-0.1-0.4,0.1-0.6,0.1c0,0-0.5-0.3-0.6-0.3c0,0.2,0.1,0.5,0,0.7c-0.1,0.2-0.4,0.1-0.5,0.3
				c-0.1,0.1-0.2,0.5-0.3,0.5c-0.2,0-0.6-0.2-0.7-0.1c-0.3,0.3-1,0.2-1.2-0.2c-0.2-0.3-0.3-0.1-0.6-0.3c0,0,0-0.2-0.1-0.3
				c-0.1-0.1-0.3-0.2-0.4-0.3c-0.3-0.2-0.3-0.3-0.6-0.3c-0.3,0-0.2-0.1-0.3-0.3c-0.3-0.3-0.7-0.5-1-0.8c-0.4-0.4-0.8-0.2-1.1-0.6
				c-0.3-0.3-0.6-1-0.9-1c0.1-0.3,0.5-0.5,0.3-0.8c-0.3-0.3-0.6-0.4-0.8-0.7c-0.1-0.1,0-0.3-0.2-0.3c-0.1,0-0.3-0.1-0.3-0.3
				c0-0.3,0.6,0.1,0.7,0.3c0.2-0.5,0.4-0.5,0.8-0.7c0.3-0.1,0.6-0.3,0.9,0c0.2-0.2,0.7-0.7,0.9-0.7c0.2,0,0.8-0.2,0.8-0.4
				c0,0,2.1-0.7,2.4-0.8c-0.2-0.1-0.4-0.2-0.5-0.3C26.8,67.4,27.6,68.3,27.6,68.7"/>
			<path class="st3" d="M17.2,54.2c0.2,0.1,1.2,0.2,1.2,0.3c0,0.3,0,0.3-0.2,0.4c0,0-0.7,0.2-0.7,0.2c-0.2,0-1.2-0.4-1.2-0.6
				c0-0.3-0.1-0.4,0.2-0.5C16.9,53.9,17.1,53.8,17.2,54.2 M14.8,54.2c-0.2,0.3-0.8-0.2-0.7-0.3c0,0,0.8,0.3,0.9,0.3
				C14.9,54.2,14.9,54.2,14.8,54.2 M20.6,53.9c-0.4,0-0.7-0.1-1,0.3c-0.2-0.1-0.2-0.3-0.1-0.4c0,0,0.4-0.3,0.3-0.3
				C19.9,53.5,20.5,53.7,20.6,53.9 M13.6,54.2c-0.5-0.2-0.7-0.1-0.8-0.7C13.1,53.5,13.6,53.9,13.6,54.2 M15.5,54.5
				c0,0.1,0,0.1,0,0.2c-0.5-0.6,0.3-1,0.5-1.5C16.1,53.6,15.8,54.3,15.5,54.5 M27.6,53.7c-0.3,0-1.7-0.1-1.2-0.9
				c0.2-0.3,0.6,0,0.9,0.2C27.6,53.2,27.6,53.3,27.6,53.7 M15.1,51.6c0.3,0.2,0.8,1.3,0.5,1.7c-0.4,0.5-1.7,0-2.1-0.2
				c-0.5-0.1-0.9-1.2-0.2-1.4C14,51.7,14.6,51.9,15.1,51.6 M20.6,51.6c-0.1,0.1-0.1,0.1-0.2,0.2c-0.2-0.2-0.1-0.3,0-0.5
				C20.6,51.4,20.6,51.5,20.6,51.6 M15,51c-0.2,0-0.3,0-0.3-0.2c0.1-0.1,0.1-0.1,0.2-0.2c-0.1-0.1-0.1-0.1-0.2-0.2
				c0.2-0.2,0.3-0.1,0.4,0.1C15.1,50.6,15,50.8,15,51 M20.2,51c0.5,0.5-0.4,0.5-0.6,0.8c-0.6,0.6,0.2,0.5,0.4,0.8
				c0.1,0.2-0.2,0.2-0.4,0.3c-0.4,0.1-0.4,0.1-0.4,0.6c0,0.6,0.2,0.9-0.4,1.1c-0.3,0.1-0.5-0.8-0.6-1C18,52.9,18,53.1,17.4,53
				c-0.6-0.1-0.5-0.4-0.7-0.9c-0.1-0.2-0.3-0.4-0.3-0.6c0-0.1-0.3-0.2-0.3-0.4c0.7,0,0.8,0,1.4-0.5c-0.1,0-0.1,0-0.2,0
				c0.5-0.7,0.7,0.5,0.9,0.6c0.3,0.2,0.6-0.7,0.3-1c0.5-0.2,0.9-0.7,1.5-0.5C20.5,49.9,20.2,50.4,20.2,51 M15.8,45.9
				c-0.2,0-0.3,0-0.5,0c0.2-0.3,0.6-0.4,0.9-0.2C15.9,45.6,15.9,45.7,15.8,45.9 M14.1,46.2c-0.1,0.4-0.6,0.9-0.3,1.3
				c0.2,0.2,0,0.5,0.2,0.7c0.2,0.2,0.5,0.3,0.7,0.3c0.6,0,1.1,0.1,0.7,0.8c-0.2,0.4-1,0.5-1.2,0.1c-0.3,0.2-0.5,1.2-0.5,1.5
				c-0.3-0.4-1-0.1-0.3,0.3c-0.2,0.1-1.3,0.7-1.1,0.9c0.1,0.1,0.3,0.7,0.3,0.8c0,0.2-0.5,0.5-0.7,0.7c0.4-0.1,0.9,0.2,0.9,0.6
				c0,0.6-0.2,0-0.3,0.1c-0.3,0.1-0.4,0.1-0.7,0.2c-0.5,0-0.8-0.3-1.3-0.3c-0.2,0-0.6,0.1-0.6-0.1c0-0.2-0.2-0.5-0.3-0.6
				c0.6-0.1,0.3-0.8,0-1c-0.3-0.3-0.9-0.4-1.2-0.6c-0.4-0.2,0-0.8,0-1.1c0-0.5-0.2-0.8-0.2-1.3c0-0.2-0.1-1.2,0-1.3
				c0.2-0.1,0.8,0.1,1,0.2c0.2,0,0.2,0.3,0.4,0.1c0.1-0.1,0.1-0.3,0.3-0.4c0.3-0.3,0.7-0.7,1-0.2c0-0.4,0.5-1.3-0.3-1.2
				c-0.6,0.1-0.5,0.9-0.9,1.2c-0.2,0.2-1.2,0.2-1.4-0.2c-0.2-0.4,0.5-0.9,0.8-1.1c0.1-0.1,1.1-0.2,1.3-0.2c0.6,0,0.9,0.1,1.3-0.4
				c0.2-0.2,0.7-1.2,1.1-1.2c0.2,0,0.7,0.1,0.8,0c0.2-0.2,0.5-0.5,0.8-0.5C13.7,44.7,14.6,45.5,14.1,46.2"/>
			<path class="st3" d="M46.3,41.1c0.2,0.2,0.5-0.1,0.9,0c0.4,0.1,0.9,0.4,1.2,0.7c-0.4-0.1-0.9,0.1-1.2,0.3
				c-0.1,0.1-0.4,0.3-0.4,0.3c-0.3,0-0.6,0-0.9,0c-0.5,0-0.1,0.9-0.6,1c-0.6,0.2-0.2-0.7,0.2-0.7c-0.4-0.1-0.6-0.5-1-0.5
				c0.1,0,0.5-0.2,0.3-0.4c-0.5-0.5-0.1-0.7,0.2-0.3c0.2-0.2,0.4-0.1,0.6-0.3C45.7,41.1,46,41,46.3,41.1 M48.4,41.4
				c-0.4,0.1-0.6-0.2-0.9-0.3C47.8,40.8,48.3,41,48.4,41.4 M47,40.4c-0.2,0.2-0.3,0.3-0.3,0c-0.1,0.1-0.3,0.3-0.4,0.4
				c-0.3,0.3-0.3-0.2-0.4-0.3c-0.1-0.1-0.1-0.3-0.2-0.3c-0.1-0.1-0.3,0-0.3,0c-0.3-0.1-0.4-0.2-0.7-0.2c0.3-0.1,0.7-0.1,1-0.2
				c0.3,0,0.3-0.3,0.6-0.3C46.3,39.6,47.7,40.3,47,40.4 M53.5,37.5c0.3,0.3,1.4,0.2,1.8,0.3c0.3,0,0.6,0.1,0.8,0.1
				c0.4,0,0.6,0.3,0.9,0.3c0.6,0.1,1.3,0,1.8,0.1c0.3,0,0.7,0.2,1,0.1c0.4-0.2,0.5-0.1,0.8,0.2c-0.7-0.1-0.7,0.8-1.1,1.4
				c-0.2,0.3-0.5,0.4-0.5,0.9c0,0.4,0.4,0.8,0.5,1.2c0.1,0.5,0.1,0.4,0.3,0.9c0,0,0.7,1.1,0.7,0.9c0,0.3-0.2,0.2-0.4,0.3
				C59.9,44,60,44,59.9,44.2c-0.2,0.4-0.3,0.7-0.7,0.6c-0.3-0.1-0.6-0.2-0.9-0.1c-0.3,0-0.8,0.3-1.1,0.1c-0.8-0.4-1.3-1.1-2.1-1.3
				c-0.3-0.1-0.7-0.3-1-0.3c-0.3-0.1-0.1,0.2-0.3,0.2c-0.2,0-0.3-0.3-0.4-0.3c-0.2,0-0.4,0.3-0.5,0.3c-0.1,0-0.3,0-0.4,0
				c-0.4,0.1-0.7,0.4-1.1,0.3c0.3-0.6,0.3-0.8,0.3-1.4c0-0.2-0.3-0.3-0.5-0.3c-0.3,0,0,0.3-0.4,0.3c-0.3,0-1.2-0.3-1.3-0.6
				c-0.1-0.3-1.2-1-0.3-1.1c-0.4,0.1-0.4,0-0.6-0.3c-0.2-0.3,0.1-0.2,0-0.4c0-0.2-0.2-0.1-0.2-0.3c0-0.1,0-0.2,0-0.3
				c0-0.4,0.1-0.1,0.3-0.3c0.4-0.2,0.7-0.2,1.2-0.2c-0.1-0.1-0.1-0.2-0.2-0.3c0.4,0.1,0.5-0.2,0.9-0.3c0.3-0.1,0.9-0.1,1.2-0.2
				C52.2,38,53.7,38.4,53.5,37.5"/>
			<path class="st2" d="M42.9,36C42.2,36,42.8,35.6,42.9,36 M43.4,35.8c-0.1,0.1-0.2,0.1-0.3,0.2C43.1,35.7,43.4,35.5,43.4,35.8
				 M44.1,35.1c0.3,0,0.5,0,0.7,0.2c-0.3,0.2,0.1,0.5-0.1,0.5c-0.4,0-0.4-0.3-0.8-0.5C44.2,35.4,44,35.2,44.1,35.1 M43.8,35.1
				c-0.4,0.7-0.8-0.9-0.2-0.2c-0.1,0-0.1,0-0.2,0C43.5,35.1,43.6,35.1,43.8,35.1 M42.2,34.6c0,0.1,0,0.1,0,0.2
				c-0.1-0.1-0.1-0.1-0.2-0.2c-0.1,0.1-0.1,0.1-0.2,0.2c-0.2-0.2-0.5-0.5-0.2-0.7C41.7,34.4,42,34.5,42.2,34.6 M40.2,25.4
				c0.1,0,0.5,0,0.5,0.1c0,0.1-0.4,0.1-0.5,0.3c-0.2-0.2-0.3-0.3-0.5-0.5C39.9,25.2,40.2,25.2,40.2,25.4 M48.2,19.6
				c-0.2,0.2-0.8,0.2-0.7-0.2c0.1-0.4,0.8-0.1,1,0C48.3,19.4,48.3,19.6,48.2,19.6 M52.4,3.6c0.9,0.5,1.8,0.8,2.8,1
				c0.6,0.1,0.6,0.7,0.2,1c-0.4,0.4-0.7,0.6-0.2,1c-0.3,0-1,0.2-1.2,0.3c0.2,0,0.7,0.1,0.9,0.2c0.3,0.2,0,0.4-0.2,0.9
				c-0.2,0.4,0.1,0.4,0.3,0.7c0.3,0.5,0.4,0.5,1,0.6c0.7,0.1,1.2,0.6,1.8,0.9c0.9,0.5,1.3,0.7,0.5,1.5c-0.4,0.4-1,1.1-1,1.6
				c0,0.3,0.7,0.6,0.8,0.8c0.1,0.3,0.6,0.4,0.8,0.7c0.2,0.3,0.4,0.6,0.7,0.7c0.3,0.2,0.3,0.4,0.5,0.7c0.3,0.3,0.6,0.6,0.6,1
				c0,0.1-0.7,0.1-0.9,0.3c0.1,0,0.2,0.1,0.3,0.2c-0.2,0.3-0.1,0.7-0.3,1c0.3,0,0.7,0.1,0.7,0.3c0,0.3-0.5,0.1-0.5,0.5
				c0,0.4,0.5,0.5,0.8,0.5c0.5,0.1,0.7,0.1,0.8,0.7c0,0.1-0.2,0.2-0.2,0.3c0,0.1,0.4,0.4,0.5,0.5c0.2,0.2,0.7,0.4,1,0.5
				c0.9,0.4-0.3,1.4-0.8,1.6c1.1,1.2,2.9,1.2,4.1,2.4c0.2,0.2,0.6,0.3,0.5,0.6c-0.2,0.3-0.2,0.7-0.3,1c-0.3,0.7-1.1,1.1-1.7,1.6
				c-0.6,0.5-1.1,1.1-1.7,1.7c-0.3,0.3-0.5,0.6-0.8,0.9c-0.2,0.3-0.6,0.4-0.9,0.6c-0.6,0.4-1.3,0.8-1.8,1.3
				c-0.3,0.3-0.6,0.5-0.9,0.7c-0.1,0.1,0,0.2-0.2,0.2c-0.3,0-0.4-0.1-0.4,0.2c-0.6-0.3-0.6-0.4-1.2-0.2c-0.3,0.1-0.4,0.2-0.8,0.2
				c-0.2,0-0.4,0-0.6,0.2c0-0.2,0-0.5,0.2-0.7c-0.5,0-0.2,0.5-0.5,0.7c-0.3,0.2-0.8-0.2-1.2-0.2c0.1,0.1,0.2,0.2,0.3,0.3
				c-0.3,0-0.5,0.3-0.8,0.3c-0.2,0-0.2-0.2-0.3-0.2c-0.2,0-0.3,0.2-0.5,0.2c-0.7,0-1.5,0.5-2.1,0.7c-0.4,0.1-1.4,0.3-2,0.3
				c-0.4,0-0.6,0-1,0.2c-0.3,0.1-0.6,0.3-1,0.3c0.2-0.2,0.7-0.5,0.5-0.9c0.1,0.1-0.5-0.2-0.5-0.2c-0.2-0.1-0.2-0.3-0.4-0.3
				c0,0-0.1,0.6-0.4,0.7c-0.3,0.1-1-0.2-0.5-0.5c-0.6-0.2,0.6-0.1,0-0.3c0.1-0.1,0.1-0.2,0.2-0.3c-0.5,0-2.1-0.3-2.2-0.9
				c-0.3,0.3-0.7,0.4-1,0C42,34.2,42.1,34,42,33.8c-0.1-0.1-0.1-0.5-0.2-0.7c-0.2-0.5,0.6-1.6,0-2.1c0.7,0.1-0.1-0.8-0.3-1
				c-0.2-0.2-0.5-0.2-0.5-0.6c0-0.3,0.3-0.6,0.1-0.9c-0.2-0.2-0.6-0.3-0.6-0.5c0-0.3-0.2-0.5-0.2-0.8c0-0.2,0.5-0.6,0.6-0.7
				c0.2-0.2-0.1-0.5,0.5-0.4c-0.1-0.1-0.4-0.3-0.3-0.5c0.2-0.4,0.7,0,0.9,0c0.6-0.1,1.4-0.3,0.7-0.9c0.1,0,0.2,0,0.3,0
				c-0.1-0.1-0.1-0.1-0.2-0.2c0.4,0,0.4-0.5,0.6-0.5c0.4-0.1,0.7-0.3,1-0.5c0.6-0.3,1.3-0.7,1.7-1.3c0.1-0.2,0.4-0.5,0.6-0.7
				c0.1-0.1,0.4-0.2,0.5-0.4c0.1-0.2,0.1-0.5,0.3-0.6c0.3-0.2,0.3-0.4,0.7-0.5c0.4-0.1,0.8-0.3,1.1,0c0.2-0.2,0.3-0.3,0-0.3
				c0.1,0,0.3-0.2,0.3-0.3c0-0.4-0.2-0.1-0.3-0.4c-0.1-0.5,0.3-1.1-0.3-1.3c-0.5-0.2-1-0.2-1.5-0.4c-0.2-0.1-0.4-0.1-0.5-0.3
				c-0.1-0.1,0.4-0.3,0-0.3c-0.3,0-0.2,0.4-0.6,0.3c-0.3-0.1-0.4,0-0.5-0.3c-0.1-0.2-0.2-0.5-0.4-0.7c-0.2-0.2-0.5-0.2-0.7-0.3
				c-0.2-0.1-0.6-1-0.3-1c0.4,0,0.2-0.8,0.4-1c-0.2,0-0.9-0.8-1-1c-0.2-0.2-0.4-0.5,0.1-0.5c0.3,0-0.2-0.5-0.3-0.5
				c-0.3,0-0.4,0.1-0.4-0.3c0-0.3-0.2-0.5-0.2-0.8c0-0.5,0.3-0.4-0.1-0.8c-0.2-0.2-0.6-0.4-0.8-0.4c0,0-0.5-0.4-0.6-0.5
				c-0.2-0.2-0.5-0.3-0.8-0.4C40,8.4,39.4,8.3,38.6,8c-0.6-0.2-1-0.4-1.6-0.7c-0.2-0.1-0.9-0.2-0.9-0.4c0-0.4-0.3-0.3-0.7-0.4
				c0.4,0,0.8,0,1.2,0c-0.5-0.4-0.3-0.6,0.2-0.7c0.5-0.1,0.9,0,1.3,0.3c0.6,0.4,1.4,1.2,1.9,1.4c0.5,0.2,1,0.2,1.5,0.2
				c0.2,0,0.3,0.2,0.5,0.2c0.2,0,0.4-0.2,0.7-0.2c0.5-0.1,0.8-0.3,1.4-0.3c0.4,0,1,0.4,1.4,0.5c0.6,0.2,0.8,0.2,1-0.4
				c0.1-0.3,0.7-0.4,1-0.4c0.5,0,0.1-0.9,0.1-1.1c0-0.2,0.2-1.1,0.3-1.3c0.1-0.2,0.3-0.1,0.4-0.2c0.3-0.1,0.4-0.3,0.6-0.6
				c0.1-0.2,1-0.1,1.1-0.1C50.7,3.8,51.9,2.8,52.4,3.6"/>
			<g>
				<path class="st3" d="M12,100.5c0.2,0-0.1,0.4-0.1,0.6c0,0.2,0.3,0,0.3,0.3c0,0.3,0.2,0.5,0.5,0.6c-0.1,0.1-0.2,0.3-0.3,0.3
					c0.3,0.4,0.8,0.6,1.2,0.9c0.2-0.4,0.3-1,0.6-1.3c0.2-0.2,0-0.5,0.1-0.8c0-0.3,0.1-0.4,0.3-0.7c0.4-0.8-0.3-1.9-0.3-2.6
					c0-0.4-0.2-1.4-0.5-0.5c-0.1,0.3,0.2,0.7,0.1,0.8c-0.2,0.2-0.3-0.1-0.5-0.1c-0.2,0-0.3,0.3-0.4,0.3c-0.2,0.1-0.5,0.2-0.8,0.3
					c0,0-0.4,0.7-0.4,0.7c0,0.2,0.1,0.3,0.3,0.3C11.7,99.9,11.6,100.5,12,100.5z"/>
				<path class="st3" d="M5,96.6c0.8,0,0.6-0.5,0.9-0.9c0.2-0.2,0.5-0.2,0.7-0.4c0.2-0.2,0.4-0.5,0.6-0.6c0.2-0.1,0.5-0.1,0.7-0.2
					c0.1,0,0-0.2,0.3-0.2c-0.4-0.3,0.1-0.6,0.3-0.9c0.1-0.2,0.2-0.7-0.2-0.6c-0.7,0.2-1.8-0.1-2.1-0.9c0.1,0,0.1,0,0.2,0
					c-0.7-0.5,0.6-1,0.2-1.5c-0.2-0.2-0.4-0.1-0.7-0.3c-0.2-0.2-0.2-0.5-0.5-0.7c0.3-0.2,2.2-0.5,1.5-1.2c-0.2-0.2-0.9-0.7-1-1
					c-0.1-0.4,0.4-0.5,0.7-0.9c-0.3,0-0.4-0.4-0.5-0.5c-0.1-0.1-0.3-0.2-0.3-0.3c-0.1-0.2,0.3-0.2,0.1-0.4c-0.3-0.3,0.1-0.4-0.5-0.6
					c-0.2-0.1-0.7-0.1-0.9,0.1c-0.3,0.4,0.2,0.5-0.3,0.9c-0.2,0.1-0.7,0.3-0.7-0.1c0,0,0.4-0.4,0.5-0.6c0.1-0.2-0.3-0.2-0.1-0.4
					c0.1-0.1,0.1-0.2,0.1-0.3c0-0.3,0.6-0.6,0.8-0.7c0.2-0.1-0.1-0.6,0.1-0.7c0.1-0.1,0.4-0.1,0.5-0.2c0.2-0.1,0.1-0.1,0.2-0.2
					c0.3-0.2,0.5-0.4,0.8-0.6c0.3-0.2-0.2-0.5,0-0.6c0.1-0.1,0.6-0.5,0.6-0.2c0,0.3,1.2-0.3,1.4-0.4C7.6,80,7.9,79.8,8,79.2
					c0.1-0.4-0.2-0.9,0.2-1.2c0.2-0.2,0.3-1,0.3-1.3c0-0.3,0.6-0.7,0.8-1.1c0.5-0.6-1.5-0.6-1.8-0.9c-0.2-0.2-0.7,0-1.1,0
					c-0.4,0-0.2-0.3-0.7-0.3c-0.1,0-0.1,0.2-0.3,0.2c-0.2,0-0.3-0.3-0.4-0.5c-0.3-0.4-0.4-0.4-0.8-0.6c-0.5-0.2-0.6,0-1,0
					c-0.1,0-0.5-0.3-0.7-0.3c-0.4,0-0.8,0.4-1-0.1c-0.1-0.3-0.5-0.5-0.8-0.6c-0.1-0.1-0.3-0.1-0.4-0.1C0.4,81,1.9,89.1,4.7,96.7
					C4.8,96.6,4.9,96.6,5,96.6z"/>
			</g>
			<path class="st3" d="M106.3,95.3c0.8,0,1.2,0.1,2,0.4c0.7,0.2,1.4,0.2,1.9,0.8c0.3,0.3,1.5,0.1,2,0.1c0.7,0,1.4,0.1,2.1,0.3
				c0.4,0.1,0.3,0.1,0.6,0.4c0.3,0.3,0.6,0.4,1,0.5c0.3,0.1,0.6,0.2,0.9,0.4c0.1,0.1,0.4,0.1,0.5,0.2c0.1,0.1-0.1,0.3,0,0.3
				c0.2,0.3,0.1,0.4,0.7,0.3c0,0,0-0.2,0.3-0.2c0.2,0,0.3-0.1,0.4-0.2c0.9-0.3,1-0.5,1.7,0.2c0.2-0.6,0.2-0.6,0.8-0.4
				c0.3,0.1,0.6,0.4,0.9,0.7c0.2,0.2,0.9,0,1.1,0c0.2,0,0,0.9,0.1,1c0.2,0.5,1.2,0.9,1.8,0.9c0.2,0,0.9,0.3,0.7,0.6
				c-0.2,0.4-0.5,0.4-0.5,0.8c0,0.2,0.3,0.1,0.3,0.2c0.1,0.2,0.2,0.4,0.3,0.5c0.4,0.3,0.9,0.1,1,0.7c0.3,1.2-1.2,0.3-1.6,0.3
				c-0.9,0-1.2-0.5-2-0.8c-0.5-0.2-0.6-0.3-1,0.1c-0.4,0.4-0.5,0.4-1.1,0.4c0.1,0.1,0.1,0.1,0.2,0.2c-0.2,0-0.4,0-0.6,0
				c-0.2,0-0.3,0.2-0.4,0.2c-0.3,0-0.7-0.2-1-0.2c-0.1,0-0.2,0.2-0.4,0.2c-0.3,0-0.4,0.1-0.6,0.2c-0.3,0-0.8-0.1-1,0.2
				c-0.1-0.5-1-0.1-1-0.8c0-0.2-1.5-1.1-1.6-1.1c-0.4,0-0.4,0.5-0.5,0.5c-0.4,0-0.6-0.1-0.9-0.2c-0.1,0-0.3,0-0.4,0
				c-0.3,0-0.4,0.2-0.6,0.2c-0.4,0-0.7-0.2-1-0.2c0.7-0.9,0.7-1.5,0-2.3c-0.5-0.7-0.5-1.8-1.2-2.3c-0.4-0.3-0.8-0.3-1.1-0.6
				c-0.3-0.3-0.6-0.5-1.1-0.6c-1-0.2-1.8-0.7-2.6-1.3C105.7,95.2,105.7,95.1,106.3,95.3"/>
			<path class="st4" d="M59.9,124.9c0.2,0,0.7,0.1,0.7-0.1c0-0.1,0.3-0.2,0.3-0.1c0.1,0.1-0.1,0.4-0.2,0.3c0.3,0.2,0.5,0.1,0.5,0.4
				c0,0.2,0.5,0.1,0.6,0.1c0.3,0,0.5-0.2,0.8-0.2c0.5,0,0.7,0.1,1.1,0.2c0.7,0.2,1.3,0.2,2,0c0,0.3-0.1,1.3,0.4,0.8
				c0.3-0.3,0.5-0.3,0.9-0.3c0.2,0,0.3-0.3,0.6-0.3c-0.3,0.2,0,0.9-0.3,1.1c-0.5,0.3-1-0.1-1.5,0c-0.6,0.1-2.6,0.7-3.1,0.2
				c-0.1-0.1,0-0.4-0.2-0.5c-0.3-0.1-0.5-0.2-0.8-0.3c-0.5-0.1-1.1-0.2-1.6-0.2c-0.3,0-1.1,0.1-1.3-0.2c-0.1-0.2-0.2-1.4,0.3-0.9
				c0.1-0.1,0.2-0.5,0.2-0.5C59.8,124.5,59.7,124.8,59.9,124.9 M70.3,125.2c-0.1,0.1-0.1,0.1-0.2,0.2c0.1-0.6-0.3-1,0.2-1.5
				c0.1,0.5-0.4,0.8,0.2,1.2C70.4,125.1,70.4,125.2,70.3,125.2 M57.2,122.5c0,0.1,0,0.1,0,0.2c-0.5-0.1-0.3-0.5-0.3-0.9
				C57.1,122,57.5,122.3,57.2,122.5 M72.2,123.5c-0.3,0.1-0.2,0-0.3-0.2c0,0-0.2-0.7-0.2-0.7c0.1-0.5,0.6-0.7,1-0.9
				c0.7-0.3,0.6,0.1,0.3,0.6c-0.1,0.1-0.1,0.6-0.2,0.6C72.4,123,72.4,123.2,72.2,123.5 M64.7,121.7c0,0.1-0.1,0.2-0.2,0.3
				c-0.1-0.1-0.1-0.1-0.2-0.2c0.2-0.1,0.1,0,0.2-0.3C64.6,121.5,64.6,121.6,64.7,121.7 M67.8,121c-0.2,0.1-0.4,0.2-0.5,0.3
				C66.9,121,67.5,120.7,67.8,121 M72,121.1C71.7,120.8,72.1,120.6,72,121.1 M61.6,120.3c0.1,0.4-0.2,0.4-0.5,0.5
				C61,120.3,61.4,120.6,61.6,120.3 M64.4,120.6c0,0.1,0,0.1,0,0.2c-0.2-0.2-0.3-0.3-0.5-0.5C64.1,120.3,64.4,120.4,64.4,120.6
				 M69.1,120.5c0-0.3,0.9-0.8,1.2-0.5c-0.1,0-0.3,0.1-0.4,0.1c-0.1,0,0,0.2-0.1,0.2C69.6,120.4,69.4,120.3,69.1,120.5 M65.7,120.3
				c-0.1,0-0.2,0-0.3,0c0.3-0.2,0.8-0.6,1-0.5C66.1,119.9,65.9,120.1,65.7,120.3 M62.1,119.8C61.6,119.3,62.6,119.4,62.1,119.8
				 M69.3,119.6c-0.4,0.1-0.3-0.2-0.5-0.5C69.1,119.2,69.3,119.3,69.3,119.6 M63.8,119.3c-0.2,0.3-0.6,0.2-0.3-0.2
				C63.7,118.8,63.9,119,63.8,119.3 M64.7,119.6c-0.1,0.2-0.4,0.2-0.5,0c-0.1-0.2,0.1-0.5,0.2-0.7C64.8,118.4,65,119.2,64.7,119.6
				 M61.5,118.9c0,0.1,0,0.1,0,0.2c-0.3-0.3-0.1-0.5,0.2-0.2C61.6,118.9,61.5,118.9,61.5,118.9 M61.1,118.2c-0.1,0-0.1,0-0.2,0
				c0.1-0.1,0.1-0.1,0.2-0.2C60.6,117.6,61.6,117.7,61.1,118.2 M62.7,117.6c0,0.2,0,0.3,0,0.5c-0.1-0.1-0.1-0.2-0.2-0.3
				C62.5,117.7,62.6,117.6,62.7,117.6 M64.2,117.9c-0.5,0.1-0.4-0.6,0.2-0.2C64.3,117.8,64.2,117.9,64.2,117.9 M66.1,117.6
				c-0.7-0.1,0.8-0.6,0.9-0.7C66.8,117.3,66.5,117.4,66.1,117.6 M63.7,117.2c-0.2,0.3-0.9,0.1-0.9-0.3
				C62.8,116.8,63.6,117.1,63.7,117.2 M60.8,117.4c-0.1,0.1-0.1,0.1-0.2,0.2C60.5,116.8,61.3,116.7,60.8,117.4 M68.5,116.4
				c0.3,0.2,0.6,0.1,0.7,0.5c-0.2,0-0.4,0.1-0.6,0.1c-0.3,0.1-0.3-0.1-0.5-0.1C67.2,116.9,68,116.3,68.5,116.4 M50.1,116.5
				c0.1,0.1,0.2,0.2,0.3,0.3c-0.1-0.1-0.1-0.1-0.2-0.2c-0.5,0.8-0.6-0.4-1-0.3c0.1-0.1,0.2-0.3,0.3-0.3
				C49.6,116.3,49.9,116.4,50.1,116.5 M62.8,116.7c-0.1,0.1-0.1,0.1-0.2,0.2c-0.1-0.4-0.4-0.4-0.6-0.6c0,0-0.6-0.4-0.2-0.4
				c0,0,0.8,0.2,0.8,0.2C62.8,116.2,62.6,116.5,62.8,116.7 M58.2,116c-0.1,0-0.2,0-0.3,0C58.1,115.8,58.2,115.8,58.2,116 M49,114.3
				c0.2,0.4,0.8,0.7,0.7,1.2c-0.2-0.1-0.7-0.1-0.9-0.2c0,0-0.1-0.5-0.2-0.5c-0.4,0.4-0.4,0-0.2-0.3c0.2-0.2,0.5,0.1,0.3-0.5
				C48.9,114.1,49,114.2,49,114.3 M49.5,114.5c-0.3,0-0.3-0.3-0.5-0.5C49.4,113.9,49.4,114.3,49.5,114.5 M65.9,115
				c-0.2,0.3-0.5-0.1-0.7-0.3c0.3,0.1,0.5-0.2,0.3-0.5c-0.1-0.3-0.9-0.4-0.3-0.6C66.1,113.3,66.4,114.6,65.9,115 M49.2,113.5
				c-0.1,0.1-0.2,0-0.3,0.2c0-0.2-0.1-0.9,0.2-1C49.5,112.4,49.4,113.3,49.2,113.5 M61.5,112.8c-0.2,0-0.3,0-0.5,0
				c0.1-0.1,0.1-0.1,0.2-0.2c-0.3,0-0.4-0.2-0.3-0.5C61,112.3,61.2,112.6,61.5,112.8 M57.5,112.1c0.3,0.8,0.7,0.8,1.5,1
				c0.3,0.1,0.7,0.1,0.9,0.4c0.2,0.3,0,0.6,0.1,0.9c0.1,0.2,0.4,0.7,0.6,0.7c0.2,0,0.8-0.1,0.8,0.3c0,0.8-1.1,0.1-1.4-0.3
				c-0.1-0.2-0.2-0.6-0.4-0.8c-0.2-0.2-0.6,0-0.9-0.1c-0.3-0.1-0.5-0.7-0.6-0.7c-0.2,0-0.6-0.5-0.7-0.6c-0.2-0.2-1.6-0.7-1.6-0.5
				c0-0.1,0.7-0.5,0.8-0.6C56.9,111.8,57.4,112,57.5,112.1 M58.6,111.6c-0.1,0.1-0.1,0.1-0.2,0.2c-0.2-0.2-0.3-0.3-0.5-0.5
				C58.1,111.4,58.3,111.5,58.6,111.6 M58.9,111.4c-0.1,0-0.1,0-0.2,0c0.1-0.1,0.2-0.2,0.3-0.3C59.1,111.3,59,111.3,58.9,111.4
				 M66.6,110.8c-0.4,0.4,0.4,0.7,0.7,1c-0.2,0.2-0.1,0.2-0.3,0c0.1,0.1,0,0.2,0.2,0.3c-0.3,0-1.3,0-1.4-0.3c0-0.1,0.5-0.3,0.3-0.5
				c-0.2-0.2-0.4,0.4-0.6,0.3c-0.1,0-0.6-0.1-0.6-0.2c0-0.5,0.3-0.3,0.5-0.4C65.7,110.7,66.1,110.4,66.6,110.8 M47.2,110.4
				c0,0.1,0,0.1,0,0.2c-0.6-0.3-0.8-0.6-1.2-1.1c-0.4-0.4,0.4-0.6,0.7-0.3c-0.1,0.1-0.2,0.3-0.3,0.3
				C46.8,109.7,46.5,110.4,47.2,110.4 M63.3,108.4c-0.2,0.1-0.2,0.7-0.3,0.7c-0.4,0-0.1-0.3-0.4-0.3c0,0-0.4,0.4-0.5,0
				c-0.2-0.5,0.5-0.4,0.7-0.2C63,108.3,63.3,108,63.3,108.4 M63.8,106.7c-0.3,0.3-0.5,0.1-0.7-0.2C63.4,106.2,63.7,106.4,63.8,106.7
				 M61,106c-0.1,0.1-0.6,0.3-0.7,0c-0.1-0.2,0.2-0.5,0.2-0.7C60.8,105.4,61,105.6,61,106 M66.1,103.3c-0.2,0.2-0.5,0.4-0.5,0.6
				c0,0.3,0.2,0.5,0.2,0.7c0,0.2-0.4,0.5-0.5,0.7c-0.2,0.4-0.3,0.4-0.6,0.2c-0.6-0.4-1.2-0.4-1.9-0.6c-0.7-0.3-1.1,0-1.7,0.3
				c-0.6,0.3-0.7-0.7-1.4,0c-0.2,0.2-0.4,0.5-0.7,0.5c-0.2,0-0.8-0.4-1-0.2c-0.2,0.2,0.2,0.5,0.3,0.7c0.2,0.2-0.1,0.7,0.3,0.7
				c0.5,0,1.3,0.3,1.4,0.9c-0.4-0.2-1-0.7-1.4-0.7c-0.1,0-0.6-0.1-0.6,0.1c0,0.2,0.4,0.5,0.6,0.6c0.5,0.2,0.6,1.1-0.1,0.6
				c-0.2-0.2-0.3-0.5-0.5-0.7c-0.2-0.1-0.6-0.1-0.8-0.2c0,0.6,0.4,0.9,0.8,1.2c-0.2,0-0.8,0-0.9-0.3c-0.1-0.3-0.2-0.7-0.5-0.9
				c-0.5-0.2-1.7-0.6-1-1.3c-0.8-0.1-0.9,0.5-0.9,1.1c0,0.4-0.2,0.5,0,0.9c0.1,0.3,0.6,0.6,0.8,0.8c0.3,0.3,0,0.6,0.5,0.8
				c0.3,0.1,0.5,0.4,0.7,0.6c0.4,0.4,0.9,1.3-0.1,1.1c0.4-0.5-0.3-1.1-0.6-0.8c-0.3,0.3-0.2,0.2-0.1,0.6c0.1,0.2,0.3,0.5,0.5,0.5
				c-0.4,0.5-0.8,0.5-1.4,0.5c0.2,0.2,0.6,0.3,0.9,0.4c0.4,0.1,0.7,0.5,1,0.5c0.5,0,1.2,1.2,1.7,1.2c1.1,0,0.9,0.8,1.2,1.6
				c0.4,1.1-0.4,0.7-0.9,0.1c-0.2-0.2-0.4-0.5-0.7-0.6c-0.2,0-0.2,0.1-0.3,0.2c-0.2,0-0.5,0-0.7,0c-0.6,0.1-0.4,0.2-0.3,0.5
				c0,0.1,0.3,0.9,0.4,0.9c0.4,0,0.5,0.1,0.8,0.4c0.4,0.4-0.5,0.3-0.7,0.5c-0.3,0.3-0.5-0.3-0.7-0.4c-0.3-0.1-0.7-0.2-0.8-0.6
				c-0.5,0.4,0.6,1.7,0.8,2.2c0.1,0.2,0.4,0.8,0.3,1c-0.2,0.6,0.2,0.6,0.4,1.1c-0.2-0.1-0.5-0.1-0.6-0.3c-0.2-0.2-0.5-0.7-0.7-0.8
				c-1-0.4-0.4,1.2-0.9,1.2c-0.3,0-0.3-0.7-0.3-0.9c-0.1-0.3-0.4-0.6-0.7-0.9c-0.1-0.1-0.4-0.5-0.7-0.3c-0.1,0.1,0,0.8-0.2,1
				c-0.3-0.3-0.9-0.9-1-1.4c0-0.3,0.1-0.4,0.2-0.7c0.2-0.2-0.1-0.4-0.2-0.7c-0.3-0.6-0.8-0.6-1-1.1c-0.1-0.2-0.5-0.2-0.5-0.3
				c0-0.3,0.2-0.4,0.5-0.6c0.2-0.1,0.1-0.6,0.2-0.7c0.2-0.1,0.5,0.2,0.8,0.2c0.2,0,0.2-0.6,0.4-0.7c0.3-0.1,0.6,0.1,0.8,0.2
				c0.5,0.3,1,0.5,1.6,0.7c0.3,0.1,0.6,0.4,0.8,0.5c0.4,0.1,0.4-0.1,0.2-0.3c0.3,0,0.9,0.1,0.9-0.3c0-0.4-0.5-0.2-0.8-0.3
				c-0.3-0.2-0.7-0.3-1-0.4c-0.2-0.1-0.4-0.2-0.5-0.3c-0.2-0.1-0.3,0.3-0.4,0.3c-0.4,0.1-0.7-0.3-1-0.3c-0.4,0-0.7,0.3-1.1,0.3
				c-0.1,0-0.4,0.1-0.5-0.1c0,0-0.4-0.5-0.3-0.5c-0.3-0.1-0.1,0.7-0.6,0.5c-0.4-0.2-0.4-0.7-0.6-1.1c-0.1-0.4-0.6-0.5-0.8-0.7
				c-0.3-0.6,0.2-0.4,0.7-0.3c0.5,0.1,0.5-0.3,0.1-0.5c-0.3-0.1-0.7,0.1-1,0c0,0-0.3-0.3-0.3-0.4c-0.2-0.1-0.3-0.3-0.5-0.4
				c-0.4-0.4-0.6-0.4-0.8-0.9c-0.2-0.3-0.4-0.7-0.8-0.9c0.3,0,0.9,0.5,0.9-0.1c0-0.3,0-0.3,0.3-0.3c0.3,0-0.2-0.4-0.3-0.5
				c0-0.3,0.4-0.4,0.7-0.5c0.5-0.3,0.3-0.5,0.5-1c0.1-0.2,0.2-0.4,0.3-0.5c0-0.1,0.3,0.1,0.3,0c0.1-0.1,0-0.3,0-0.3
				c0.2-0.4,0.1-0.1,0-0.5c-0.1-0.3-0.4-0.5,0.1-0.5c0.3,0,0.6,0,0.9,0c0.2,0,0.2-0.3,0.5-0.1c0.5,0.3,0.9-0.5,1.3-0.7
				c0.2-0.1,0.5-0.1,0.6-0.3c0-0.1,0.5,0.1,0.7,0.1c0.6,0,1.1,0.1,1.1-0.6c0-0.1,0.9-0.1,1.1-0.1c0.2,0,0.5-0.3,0.7-0.3
				c0.3-0.1,0.5,0.2,0.7,0.1c0.2-0.2,1-0.1,1.3-0.3c0.4-0.2,0-0.3,0.6-0.3c0.3,0,0.3,0.2,0.7,0c0.3-0.1,0.7,0.6,1.1,0.6
				c0.1,0,0.1-0.2,0.2-0.1c0.1,0,0.3,0.1,0.4,0.1c0.2,0.1,0.5,0.5,0.7,0.5c0.3,0.1,0.6-0.3,0.9-0.3c0.3-0.1,0.6,0,0.8,0
				c0.7,0,1.3-0.1,0.9-0.9c0-0.1-0.4-0.6-0.1-0.6c0.4,0,0.6,0,0.9,0.2C65.8,102.2,66.7,103.2,66.1,103.3"/>
			<path class="st2" d="M38.6,98c0.2,0.1,0.3,0.2,0.5,0.3c-0.4-0.1-0.8-0.2-1.2-0.3C38.2,98,38.4,98,38.6,98 M35.7,97.3
				c0.6,0,1.2-0.1,1.7,0.2C36.8,97.5,36.3,97.7,35.7,97.3 M37.5,97.1c0.5,0.2,1,0.5,1.5,0.7c0-0.1-0.3-0.4,0-0.3
				c0.1,0,0.2,0.3,0.3,0.3c0.3,0.2,0.6,0.3,0.8,0.5c0.2,0.1,0.7,0.2,0.9,0.3c0.2,0.2,0.2,0.5,0.5,0.7c-0.8-0.4-1.4-0.9-2.2-1.3
				c-0.7-0.4-1.6-0.7-2.4-0.9C37.1,97.1,37.3,97.1,37.5,97.1 M37.3,96.8c-0.9,0-1.5-0.1-2.4-0.3c0.2,0,0.4,0,0.6,0
				c0.2,0,0.3,0.2,0.5,0.2C36.4,96.6,36.9,96.5,37.3,96.8 M36.1,96.3c-0.4,0.1-1,0-1-0.4c0-0.3,1.2,0.1,1.4,0.3
				C36.2,96.1,36.2,96.2,36.1,96.3 M31.7,93.5c0.1,0.1,0.1,0.2,0.2,0.3c-0.2,0-0.4-0.2-0.5-0.3C31.4,93.5,31.6,93.5,31.7,93.5
				 M31.1,93.2c0.1,0.1,0.1,0.1,0.2,0.2c-0.4-0.1-0.5-0.2-0.7-0.5C30.8,93,31,93.1,31.1,93.2 M31.1,93.9c-0.4,0-1-0.7-1-1
				C30.6,93,30.9,93.5,31.1,93.9 M31,92.4c-0.5-0.5-0.9-0.9-1.4-1.4c0.5,0.4,1,0.7,1.5,1.2C31.1,92.2,31,92.3,31,92.4 M29.8,90.7
				c0.1,0.1,0.1,0.1,0.2,0.2c-0.2,0.1-0.5-0.1-0.7-0.2c0.1-0.1,0.1-0.2,0.2-0.3C29.6,90.4,29.7,90.5,29.8,90.7 M28.9,91.2
				c-0.3,0-0.8-1.2-0.5-1.2c-0.2-0.2-0.3-0.4-0.3-0.7c0.5-0.1,0.2,0.4,0.6,0.6C29,90.1,28.6,90.9,28.9,91.2 M29.8,90
				c-0.3,0-0.9-0.1-1-0.3c-0.1-0.1-0.2,0.1-0.2-0.2c0-0.1,0.3-0.4,0.3-0.5C29.3,89.3,29.4,89.7,29.8,90 M35.1,84.7
				c0.4,0.1,0.4,0.4,0.7,0.7c0.3,0.3,0.6,0.3,0.9,0.5c0.3,0.2,0.2,0.5,0.8,0.5c0.3,0,0.4,0.3,0.6,0.3c0.7,0.4,1.2,0.3,2,0.3
				c0.3,0,0.5-0.1,0.8-0.3c0.3-0.3,0.6,0,0.9-0.3c0,0.3,0,0.2-0.2,0.3c0.2,0.3,0.2,0.7,0.3,1c0.1,0.1,0.3,0.2,0.3,0.3
				c0.1,0.2,0,0.3,0.2,0.5c0,0,1,0.3,0.9,0.3c0.3,0-0.1,0.3-0.2,0.3c-0.2,0.1-0.4,0-0.6-0.1c-0.1,0.1-0.1,0.1-0.2,0.2
				c0.1,0.3,0.3,1-0.1,1c-0.6,0-0.6-0.4-1.1-0.7c-0.3-0.2-0.9-0.3-1.2-0.3c-0.1,0-0.2,0.2-0.3,0.2c-0.1,0-0.3-0.2-0.3-0.2
				c-0.2,0.1-0.3,0.5-0.6,0.3c-0.3-0.2-0.4-0.3-0.7-0.2c-0.3,0.2-0.2-0.1-0.3-0.1c-0.7,0-0.9,0-1.4-0.4c-0.3-0.3-0.2,0.1-0.5,0.2
				c-0.2,0.1-0.6-0.1-0.9,0c-0.4,0.2-0.5,1-1.1,0.5c-0.4-0.4-0.5-0.5-1.1-0.5c-0.1,0-0.2,1.3-0.1,1.5c0.2,0.3,0.9,0.7,1.1,0.9
				c0.3,0.3,0.3,1,0.7,1.4c0.3,0.3,0.6,0.6,1,1c0.4,0.4,0.8,0.7,1.3,1.1c0.3,0.2,0.4,0.3,0.8,0.4c0.2,0.1,0,0.4,0.1,0.5
				c0.2,0.5,0.9,0.7,1.2,1.2c0.1,0.1,0.3,0.1,0,0.3c-0.6-0.6-1.4-0.9-2.1-1.6c-0.5-0.5-1.8-0.8-2.4-0.5c-0.4,0.2-0.4-0.3-0.6-0.5
				c-0.1-0.2-0.1-0.2-0.4-0.3c-0.2-0.1-0.4-0.2-0.5-0.3c-0.6-0.4-1.5-1-1.8-1.7c0.3,0,0.7,0,1,0c-0.6-0.8-1.7-0.9-1.9-2
				c-0.1-0.6,0-0.9-0.5-1.3c-0.3-0.2-1-0.9-1.4-0.6c0,0-0.9,2.5-1.2,1.8c-0.2-0.5-1.5-2-0.8-2.5c0,0.3,0.5,0.3,0.8,0.3
				c0.4,0.1,0.1-0.3,0.4-0.3c0,0,0.3,0.2,0.4,0.2c0.2,0,0.3,0,0.5,0c0.4,0,0.3-0.7,0.7-0.7c0,0,0.4,0.4,0.6,0.5
				c0.4,0.2,0.5,0,0.8,0.2c0.2,0.1,0.9,0.2,0.9-0.1c0-0.2-0.4-0.3,0-0.6c-0.5-0.4,0.4-0.7,0.8-0.7c0.4,0-0.1-0.9-0.3-1
				c0.2-0.4,0.5-0.3,0.9-0.5c0.3-0.2,0.7-0.7,1-0.3C33.3,83.7,34.6,84.4,35.1,84.7"/>
			<path class="st3" d="M48.2,77c0.2,0,0.6,0.5,0.8,0.6c0.2,0.2,0.9-0.4,1.3-0.3c0.3,0.1,0.1,0.1,0.3,0.3c0.2,0.2,0.2,0.2,0.3,0.3
				c0.2,0.2,0.4,0,0.6,0.3c0.1,0.2,0.4,0.3,0.6,0.1c0,0.4,0.3,0.2,0.3,0.5c0,0.3-0.3,0.5-0.5,0.7c-0.3,0.2-0.4,0.2-0.8,0.2
				c-0.4,0-0.5,0.4-0.7,0.6c-0.2,0.2-0.3,0.8-0.3,0.8c-0.3,0-0.3,0.6-0.4,0.8c-0.1,0.3-0.4,0.3-0.4,0.7c0,0.3-0.3,0.8-0.5,0.9
				c0.1,0.1,0.1,0.1,0.2,0.2c-0.2,0.2-1.1,0.6-0.5,1c-0.5-0.1-0.2,0.2-0.4,0.4c-0.2,0.2-0.7,0.1-1,0.1c-0.1,0-0.2,0.5-0.3,0.5
				c-0.1,0-0.3-0.1-0.4-0.1c-0.2-0.1-0.5,0.1-0.7,0.1c-0.7,0.2-1.3-0.2-1.9-0.2c-0.2,0-0.3-0.1-0.4,0.1c-0.1,0.2-0.2,0.4-0.4,0.4
				c-0.3,0-0.5,0.4-0.8,0c-0.2,0.5-0.6,0.3-1,0.5c-0.4,0.2-0.7,0.5-1.1,0.5c-0.5,0-1,0-1.5-0.1c-0.5-0.2-0.7-0.5-1.2-0.5
				c-0.3,0-0.4-0.2-0.6-0.4c-0.1-0.2-0.4-0.3-0.6-0.4c-0.2-0.1-0.4-0.3-0.5-0.5c-0.2-0.3-0.4-0.4-0.6-0.5c-0.3-0.2-1-0.4-1-0.8
				c0-0.4-0.4-0.9-0.9-0.8c0.1-0.1,0.3-0.3,0.4-0.4c0,0,0.6-0.1,0.6-0.1c0.2-0.2-0.2-0.7-0.2-0.9c-0.1-0.7,0.2-0.3,0.5-0.7
				c0.5-0.5-0.2-0.7-0.7-0.9c0.2-0.1,0.6-0.6,0.7-0.3c0.2,0.4,0.7,0.1,1.1,0.1c-0.5-0.4,0.1-1,0.6-1c0.3,0,0.6,0.3,0.8,0.5
				c0.3,0.3,0.7,0.3,1.1,0.3c0.7,0,1.4,0.1,2.1-0.1c0.6-0.2,0.1-0.3,0.2-0.6c0.2-0.3,0.7-0.4,1-0.4c0.3-0.1,0.7-0.1,1-0.3
				c0.1,0,0-0.3,0.2-0.3c0.2,0,0.3,0.1,0.4,0.1c0.2,0.1,0.5,0.3,0.8,0.2c0.1,0,1-0.4,1-0.5c0.2-0.2,0.1-0.8,0.4-0.9
				c0.4-0.1,0.7-0.2,1.1-0.1c0.3,0.1,0.5,0.2,0.9,0.2C47.5,77,47.9,76.7,48.2,77"/>
			<path class="st3" d="M135,114.3c-0.1,0-0.6-0.5-0.7-0.5c-0.4-0.3-0.8-0.6-1.2-0.9c-0.1-0.1-0.5-0.3-0.5-0.3
				c0-0.2,0.3-0.4,0.4-0.4c0.8,0,0.3-0.5-0.2-0.7c-0.5-0.2,0.3-0.8,0.4-0.9c-0.3-0.3-0.7-0.9-1.2-1c-0.7-0.2-0.8,0.3-1.3,0.6
				c-0.5,0.3-0.8,0.6-1.3,1c-0.1,0.1-0.1,0.3-0.3,0.3c-0.2,0-0.2,0-0.3,0.1c-0.1,0.3-0.3,0.4-0.5,0.7c-0.3,0.3-0.3,0.3-0.7,0.2
				c-0.3-0.1-0.4,0.1-0.8,0.1c-0.5,0-1.2-0.2-1.7-0.3c-0.4-0.1-0.8-0.7-1.2-0.9c-0.4-0.2-0.7-0.5-1-0.9c-0.4-0.5-1.5-1.8-1.7-0.7
				c-0.1,0.6,0,0.9-0.6,0.9c-0.1,0-0.6,0-0.6,0c-0.1,0.1,0.2,0.3,0.2,0.4c0,0.2,0.3,0.4,0.4,0.4c0.2,0,0,0.2,0.1,0.3
				c0,0.1-0.1,0.4,0,0.5c0.1,0.1,0.4,0.2,0.5,0.3c0.1,0.2,0,0.5,0,0.7c0,0.2,0.2,0.3,0.2,0.6c0,0.4,0.3,0.5,0.7,0.6
				c-0.2,0.2-0.1,0.5-0.2,0.7c-0.1,0.3-0.3,0.2-0.3,0.6c0,0.6,0.4,0.4,0.9,0.7c0.4,0.3,0.3,0.6,0.5,1.1c0.2,0.4-0.1,0.2,0.3,0.4
				c0.2,0.1,0.4,0.3,0.6,0.5c-0.3,0.2,0.2,1,0.3,1.4c0.1,0.2,0.1,0.3,0.2,0.5c0,0.1,0.1,0,0.2,0c0.1,0.1,0.3,0.2,0.3,0.4
				c0,0.5,0.2,0.7,0.5,0.9c0.4,0.3,0.5,0.5,0.7,1.1c0.2,0.5,0.6,0.5,1,0.7c0.5,0.3,0.5,0.4,1.1,0.4c0.1,0,0.3,0,0.4,0
				c2.6-2.6,5-5.4,7.2-8.4c0-0.4-0.1-1.1-0.3-1.3C135.5,114,135.2,114.4,135,114.3z"/>
			<path class="st3" d="M127.5,123.7c-0.2-0.2-0.5-0.4-0.7-0.5c-0.2-0.1-0.4,0.1-0.5-0.2c-0.1-0.3-0.4-1.3-0.8-1.3
				c-0.5,0-0.6-0.5-0.6-0.9c0-0.2-0.3-0.4-0.4-0.4c-0.2,0-0.3-0.5-0.3-0.7c-0.1-0.3-0.5-1.1-0.9-0.7c-0.2,0.2-0.8,0.8-0.9,0.8
				c-0.4-0.1-0.1-1.2-0.6-1.2c-0.2,0-0.3-0.3-0.5-0.1c-0.3,0.3-0.3,0.3-0.7,0.3c-0.5,0-0.9-0.3-1.4-0.3c-0.2,0-0.5-0.2-0.6-0.2
				c-0.2,0-0.4,0.2-0.7,0.2c-0.3-0.2-0.5-0.3-0.6,0.1c-0.1,0.3-0.3,0.4-0.5,0.6c-0.4,0.3-0.4,0.6-0.8,1c-0.3,0.3-0.5,0.8-0.9,1.1
				c-0.4,0.3-1.2,0.1-1.4,0.6c-0.1,0.3-0.3,1.1-0.1,1.3c0.2,0.4,0.6,1,0.6,1.4c0,0.5-0.2,1.1-0.3,1.5c-0.1,0.4,0.2,1.1,0.2,1.4
				c0.1,0.6-0.2,0.9-0.4,1.5c-0.1,0.5-0.7,0.6-1.1,0.9c-1,0.6-2,1.3-3,1.9c-0.5,0.3-1,0.6-1.4,0.9c-0.4,0.3-1.1,0.4-0.9,1
				c0.4,1,0.8,1.9,1.2,2.9c-0.1,0-0.1,0-0.2,0c0.1,0.5,0.2,1,0.9,0.5c0.4,0.4-0.1,0.6-0.3,0.9c0.3,0.1,0.6,0.1,0.9,0.2
				c7-3.6,13.4-8.4,19-13.9C128.4,123.9,127.8,124,127.5,123.7z"/>
			<path class="st2" d="M97.6,141.1c0.2-0.3,0.2-0.6,0.2-1c0-0.2-0.4,0.1-0.5,0.1c-0.2,0.1-1.1,0.6-1.4,0.3
				c-0.1-0.1,0.1-0.6,0.2-0.7c0-0.1-0.1-0.3,0-0.3c0.1-0.1,0.3-0.1,0.3-0.2c0.1-0.2,0.5-0.1,0.3-0.4c-0.2-0.2-0.3-0.3-0.6-0.1
				c0-0.7-0.4-1.3,0-2c0.1-0.2,0.1-0.9,0.5-0.7c0.2,0.1,0.5,0.1,0.6,0.1c0.1,0,0.3,0.3,0.3,0.3c0.4,0,0-0.7,0.3-0.9
				c0.3-0.3,0.5-0.2,0.6-0.5c0.2-0.4,0.3-1.3,0-1.8c-0.1-0.1-0.1-0.1-0.2-0.2c0.2-0.1,0.2-0.3,0.2-0.5c-0.2,0.1-0.2,0.4-0.3,0.5
				c-0.1,0.1-0.4,0.2-0.5,0.3c-0.2-0.6-0.1,0.3-0.2,0.3c-0.3,0.3-0.6,0.1-0.9,0.2c-0.4,0.1-0.4,0.1-0.5,0.6
				c-0.1,0.4-0.2,0.7-0.3,1.1c-0.1,0.6-0.3,3.8-1,3.9c0.4,0.3-0.2,0.6-0.2,0.9c0,0.4-0.4,0.2-0.2,0.8c0.3,0.7,0.6,1.3,0.9,2
				c0,0,0,0.1,0,0.1c0.8-0.2,1.6-0.4,2.3-0.7C97.7,142.1,97.9,141.1,97.6,141.1z"/>
			<path class="st2" d="M23.1,120.5C22.4,120.5,23.2,119.7,23.1,120.5 M33.7,115c-0.2,0.6-1,1.1-1,1.8c0,0.7-0.6,1.2,0.2,1.8
				c-0.4,0.3,0.2,0.3,0.2,0.6c0,0.4-0.2,0.5-0.3,0.8c-0.1,0.1-0.1,0.2-0.2,0.3c0,0,0.3,0.2,0.2,0.3c-0.2,0.2-0.7-0.2-0.9-0.1
				c-0.5,0.2-1.2-0.3-1.4-0.7c-0.4-0.8-1-0.5-1.6-0.7c-1.2-0.3-2-1.4-3.2-1.7c-0.5-0.1-1.4-0.2-1.4-0.9c0-0.7,0.7-1,0.9-1.4
				c0.2,0.2,0.3,0.5,0.5,0.7c0.2-0.2,0.5-0.5,0.8-0.6c0.5-0.3,0.5,0.1,0.8,0.3c0.1,0,0.3,0,0.3,0c0.2,0.1,0.3,0.3,0.5,0.3
				c0.4,0.2,0.5,0.2,0.9,0c0.4-0.2,0.8,0.1,1.2-0.1c0.3-0.2,0.7-0.2,1-0.3c0.6-0.3,1.3,0.3,1.8-0.4c0.3,0.3,0.6-0.3,1-0.2
				C33.8,114.8,33.8,114.9,33.7,115 M11.9,111.8c0,0.1-0.1,0.2-0.2,0.3c-0.1,0-0.6-0.3-0.3-0.5C11.5,111.5,11.8,111.7,11.9,111.8
				 M28.1,105.6c-0.1-0.1-0.2,0.1-0.2-0.2c0.1,0,0.3,0.1,0.3,0.2C28.2,105.6,28.1,105.6,28.1,105.6 M11.1,104.5
				c-0.1,0.1-0.2,0.2-0.3,0.2c0.2-0.2,0.2-0.3,0.3-0.5C11.3,104.3,11.2,104.3,11.1,104.5 M15.1,105c0.3,0.6,0.6,1.3,0.3,1.9
				c-0.2,0.5-0.4,0.4-0.1,0.9c0.2,0.4,0,0.5,0,0.9c0,0.8,0.2,1.7-0.2,2.5c-0.1,0.1,0.1,0.3-0.1,0.3c-0.2,0-0.4,0-0.5,0
				c-0.3-0.2-0.7,0-0.9-0.3c-0.1,0.3-0.1,1.2-0.6,1.2c-0.6,0-0.8-0.1-1.1-0.6c-0.1-0.2-0.4-0.3-0.4-0.5c0-0.3,0-0.6,0-0.9
				c0-0.4,0.2-0.7,0.2-1.1c0.1,0.1,0.1,0.1,0.2,0.2c0.1-0.5-0.2-0.7-0.5-1c0.2-0.2,0.3-0.5,0.3-0.7c0-0.5-0.3-0.4-0.3-0.9
				c0-0.5-1.1-1.1-0.7-1.6c0.1-0.1,1.2,0,1.6-0.2c0.4-0.2,0.4-0.6,0.8-0.8c0.1-0.1,0.3,0.1,0.4-0.1c0.1-0.1,0.1-0.3,0.3-0.4
				c0.1,0.4,0.7,0.5,0.9,0.8c0.2,0.2,0.1,0.1,0.3,0.3C15,104.7,14.7,105,15.1,105 M17,97.8c0.2,0,0.2,0.3,0.2,0.5
				c-0.3-0.3-0.8,0-1-0.3C16.5,98,16.7,97.8,17,97.8 M21.4,82.6c0,0.3,0.3,0.5,0.5,0.7c0.1,0.1,0.1,0.3,0.3,0.3c0.2,0,0.3,0,0.5,0.1
				c0.5,0.3,1.4,0.1,2,0.3c0.3,0.1,0.7,0.1,1,0.2c0.5,0.1,0,0.3-0.2,0.5c-0.1,0.1-0.6,0.3-0.4,0.6c0,0.1,0.7,0.1,0.9,0.2
				c-0.1,0.1-0.5,0.4-0.5,0.6c0,0.2,0.3,0,0.3,0.3c0,0.6,0.1,0.2,0.3,0.4c0.2,0.2,0.5,0.5,0.7,0.7c-0.2,0.1-0.3,0.1-0.5,0.2
				c0.1-0.1,0.1-0.1,0.2-0.2c-0.2-0.2-0.4-0.6-0.8-0.5c-0.4,0.2-0.9-0.2-1.2,0c-0.3,0.3-0.6,0.4-1,0.6c-0.4,0.1-0.4,0.4-0.9,0.4
				c0.1-0.1,0.1-0.2,0.2-0.3c-0.6,0.4-0.6,0.5-0.8,1.1c0,0.1,0.9,0.8,1,1.1c0,0.2-0.1,0.5-0.3,0.6c-0.1,0.1-0.4-0.2-0.4,0
				c0,0.5,0,1.2,0.3,1.6c0.3,0.6,0.5,0.9,1.1,1.3c0.4,0.3,1,0.5,1.4,0.9c0.4,0.3,1,0.4,1.4,0.7c0.4,0.4,0.7,1,0.9,1.5
				c0.4,1.2,0.7,2,1.7,2.8c0.7,0.6,1.9,1.8,3,1.8c0.6,0,3.2-0.5,2.7,0.5c-0.1,0.2-1.2,0.8-0.6,1.1c0.6,0.3,1.2,0.6,1.8,0.9
				c0.6,0.3,1.3,0.6,2,0.8c0.8,0.3,1.6,0.9,2.4,1.2c0.6,0.3,1,0.9,1.5,1.3c0.3,0.3,0.6,0.5,0.4,0.9c-0.1,0.4-0.1,0.8-0.3,1.1
				c-0.5-0.2-0.8-0.5-1.1-0.9c-0.5-0.8-0.5-0.8-1.5-0.9c-0.2,0-0.4-0.2-0.6-0.3c-0.3-0.1-0.1-0.3-0.4-0.4c-0.6-0.4-0.8,0.2-1.2,0.6
				c-0.4,0.6-1.3,2.5-0.2,2.7c0.6,0.1,0.9,0.3,1.3,0.7c0.1,0.1,0.4,1.5,0.4,1.6c-0.1,0.3-1.2,0.1-1.4,0.4c-0.2,0.2-0.4,0.4-0.5,0.6
				c0,0.3,0.2,0.6,0.2,0.9c-0.1,0.4-0.8,0.8-1.1,1.1c-0.5,0.5-0.1,0.9-0.9,0.9c-0.4,0-0.5,0.1-0.6-0.3c-0.1-0.2-0.3-0.5-0.2-0.7
				c0.2-0.5,0.9-0.7,0.7-1.4c-0.1-0.2,0-0.5,0.1-0.6c0.1-0.1,0.6-0.1,0.7-0.2c0.1-0.1,0-0.6-0.1-0.7c-0.3-0.3-0.2-0.4-0.3-0.8
				c-0.1-0.8-0.8-1.4-1-2.2c-0.1-0.4-0.2-0.7-0.5-1c-0.3-0.3-0.8,0-1.2-0.2c-0.2-0.1-1-0.5-1-0.7c-0.1-0.4,0.3-0.5-0.1-0.9
				c-0.3-0.3-0.3-0.7-0.8-0.5c-0.3,0.1-0.7,0.1-0.9,0.2c0.1-0.2,0.4-0.4,0.3-0.6c-0.2-0.2-0.4-0.3-0.7-0.3c-0.7,0-0.6-0.2-0.9-0.9
				c-0.2-0.4-0.7-0.9-1.1-0.7c-0.4,0.2-1-0.4-1.5,0c-0.2-0.2-0.4-0.4-0.7-0.6c-0.2-0.2-0.7-0.1-0.9-0.3c-0.5-0.5-1.1-1-1.6-1.7
				c-0.2-0.3-0.6-0.5-0.9-0.7c-0.3-0.2-0.3-0.6-0.6-0.7c-0.3-0.2-0.6-0.5-1-0.5c-0.3,0-0.4,0.4-0.7,0c0.6,0,0-0.5-0.2-0.8
				c-0.3-0.4-0.7-0.6-1-0.9c-0.1-0.1,0-0.3-0.3-0.3c-0.3,0-0.4,0.1-0.4-0.3c0-0.4,0-0.9-0.2-1.3c-0.3-0.5-0.5-0.4-0.6-1
				c-0.1-0.6-0.1-0.9-0.6-1.3c-0.4-0.2-0.9-0.1-1.2-0.3c-0.4-0.3-0.9-0.6-1.3-0.8c-0.9-0.4-1.7-0.5-2.4,0.2c-0.4,0.4-0.7,0.8-1,1.3
				c0,0-1,0.4-1.1,0.4c-0.5,0.1-1.1,0.1-0.5-0.4c0.2-0.2,0.6-0.9,0.2-0.9c-0.6,0-0.7,0.3-1.3,0c-0.4-0.3-0.8-0.2-1-0.8
				c0.1,0,0.1,0,0.2,0c-0.7-0.5,0.6-1,0.2-1.5c-0.2-0.2-0.4-0.1-0.7-0.3c-0.2-0.2-0.2-0.5-0.5-0.7c0.5-0.4,1.8-0.2,1.5-1.2
				C6.9,88,6.2,87.5,6,87.3c-0.4-0.4,0.4-0.7,0.6-0.9c0,0.6,1.3-0.2,1.6-0.2c0.2,0,0.6,0.3,0.8,0.1c0.3-0.3,0.5-0.3,0.7-0.6
				c0.2-0.4-0.2-0.4,0.2-0.8c0.1-0.1,0.5-0.5,0.7-0.4c0.1,0.1,0,0.7,0.2,0.9c0.3,0.3,0.6,0.4,1,0.5c-0.4,0.5,0.2,0.3,0.2,0.6
				c0,0.3,0.3,0.3,0.5,0.1c-0.3-0.2-0.2-0.6,0-0.9c0.3-0.4,0.5-0.4,0.5-0.9c0-0.4,0-0.4,0.4-0.4c0.1,0,0.2,0.6,0.6,0.7
				c0.3,0,0.6-0.2,0.9-0.2c0.1,0,0.3,0.7,0.6,0.5c0.3-0.2-0.3-0.8-0.3-0.9c-0.1-0.3,0.3-0.6,0.5-0.7c0.1,0.3,0.7,0.5,0.7,0.3
				c0-0.4-0.2-0.4-0.1-0.9c0.2-0.7,1.2,0.4,1.8,0.1c0.1,0-0.1-0.3,0.1-0.4c0.1-0.1,0.4-0.3,0.5-0.3c0.3,0,1-0.3,1.2-0.1
				C20.4,82.9,21.9,81.5,21.4,82.6 M22.8,93.7C23.3,94.3,23.3,93.2,22.8,93.7"/>
			<path class="st2" d="M104.6,139.3c0.7-0.3,1.4-0.3,2-0.6c0.5-0.2,1.4-0.6,2-0.6c0.2,0,0.4-0.5,0.6-0.6c0.2-0.2,0.5-0.4,0.2-0.7
				c-0.6,0.5-0.7,0-0.9-0.5c0.1,0,0.1,0,0.2,0c-0.4-1.1-0.9-2.1-1.4-3.2c-1.2,0.9-2.4,1.6-3.6,2.5c-1.1,0.8-2.5,2.1-3.8,0.8
				c-0.3-0.3-0.7-0.1-1-0.6c-0.2-0.3-0.3-0.4-0.7-0.4c-0.9,0-0.6,1.3-0.4,1.8c0.1,0.3,0.2,1.7,0.1,1.9c-0.3,0.6,0.1,1.4-0.3,2
				c0.6,0-0.1,1.3-0.3,1.9c2-0.6,4-1.3,6-2.1c-0.2-0.3-0.5-0.5-0.8-0.8C103.2,139.9,103.9,139.6,104.6,139.3z"/>
			<path class="st2" d="M50.1,97.8c-0.2,0.7,0.8,0.2,1,0.5c0.3,0.4-0.2,1.2-0.5,1.4c0.5,0.5-0.2,0.2-0.4,0.4c-0.1,0.1,0,0.2-0.2,0.3
				c-0.2,0.2-0.2-0.2-0.4-0.3c-0.4-0.1-0.8,0.3-1.1,0.5c-0.3,0.2,0.1,0.6-0.2,0.7c-0.5,0.2-0.3-0.3-0.4-0.6
				c-0.1-0.5-0.2-0.8-0.7-1.1c-0.1-0.1-0.3,0-0.4,0c-0.1-0.1-0.2-0.5-0.3-0.6c-0.1-0.3-0.2-0.7-0.4-0.9c0.1,0,0.3,0,0.3,0
				c0,0,0.3-0.2,0.2-0.2c0.2-0.1,0.7-0.1,0.9-0.3c-0.5-0.4,0.3-0.3,0.3-0.8c0-0.1-0.4-0.4-0.1-0.4c0.2,0,0.4-0.2,0.6-0.2
				c0,0,0,0.2,0,0.3c0,0.2,0.1,0,0.2,0.1c0.2,0.1,0.5,0.1,0.6,0.2C49.3,97.2,49.6,97.6,50.1,97.8"/>
			<path class="st3" d="M99.3,128.1c0.1,0.1,0.1,0.1,0.2,0.2c-0.2,0.1-0.3,0.3-0.3,0.5c0.6,0,0.8,0.3,1,0.9c0.2,0.5-0.4,0.8-0.7,1.1
				c-0.3,0.3,0.3,0.2,0.3,0.4c0,0.2-0.3,0.2-0.4,0.1c-0.3-0.3-0.8,0.4-0.9,0.6c0.8,0.6-0.4,1.2-0.9,1.7c-0.2-0.5-0.1,0.3-0.4,0.5
				c-0.1,0.1-0.9,0.1-0.9,0c0-0.9,0.6-1.6,0.8-2.5c0.2-0.8,0.3-1.7,0.7-2.5c0,0,0.8-0.7,0.6-0.7c0.2,0,0.5,0,0.7,0
				C99,128.3,98.9,128.1,99.3,128.1"/>
			<g>
				<path class="st2" d="M64.2,145.4c0-0.1,0-0.2,0-0.3c0-0.6,0.5-0.9,0.5-1.5c0-0.2,0.2-0.4,0.2-0.7c0-0.3-0.1-0.5-0.2-0.8
					c-0.1-0.5-0.5-1.1-0.3-1.6c0.2-0.4,0.5-0.9,0.8-1.1c-0.4-0.4-0.4-0.9-0.9-1.1c-0.6-0.3-1,0-1.6,0c-0.8,0-0.9-0.1-1.5-0.5
					c-0.8-0.5-2.6,0.1-2.6-1.1c0-0.8-0.4-0.9-1.1-1.1c-0.5-0.2-0.9-0.4-1.4-0.7c-0.3-0.2-1.2,0-1.6,0c-0.8-0.1-0.6,0-1.4,0.3
					c-0.5,0.3-1.1,0.2-1.6,0.5c-0.5,0.3-1.1,0.6-1.6,0.9c-0.8,0.5-1.3,1.8-1.2,2.7c0.1,0.3,0.1,0.6,0.2,1c0.1,0.3,0.3,0.3,0.4,0.6
					c0.2,0.3,0.2,0.6,0.1,0.9C54.2,143.3,59.1,144.6,64.2,145.4z"/>
			</g>
			<path class="st2" d="M13.9,82.3c-0.6,0.2-0.3-0.6-0.2-0.9C13.7,81.9,14,81.9,13.9,82.3"/>
			<path class="st3" d="M43.8,52.5c0,0.1-0.1,0.2-0.2,0.3c-0.3-0.2,0.2-0.8,0.2-1.2C43.9,52,43.9,52.1,43.8,52.5 M54,49.1
				c0.4,0.7,0.9,0.5,1.7,0.7c0.7,0.1,1.1,0.6,1.7,1c0.5,0.3,1.3,0.5,1.4,1.1c0,0.3-0.3,0.6,0,0.9c0.2,0.2,0.6-0.1,0.9,0.2
				c-0.4,0-0.3,0.4-0.5,0.5c-0.2,0.1-0.7-0.1-0.9-0.2c-0.1,0.2-0.2,0.7-0.4,0.7c-0.4,0-0.8,0.2-0.8,0.6c0,0.3,0.1,0.7,0,0.9
				c-0.1,0.2-0.5,0.6-0.3,0.9c0.1,0.2,0.8-0.2,0.7,0.3c0,0.2-0.5,0.3-0.7,0.2c0,0,0-0.3,0-0.3c-0.3-0.2-0.1,0-0.4,0
				c-0.4,0-0.5,0.3-0.8,0.3c-0.5,0-0.6,0.1-0.6,0.6c0,0-0.8,0.3-0.9,0.3c-0.4,0-0.6-0.1-0.9-0.2c-0.2,0-0.2,0.3-0.4,0.1
				c-0.2-0.2-0.3-0.1-0.5,0c-0.4,0.2-0.6,0-0.8-0.3c-0.1-0.1-0.2-0.3-0.2-0.4c0-0.2-0.3-0.2-0.4-0.3c-0.3-0.3-0.6-0.1-0.9-0.3
				c-0.2-0.1-0.3-0.7-0.7-0.2c-0.3-0.3-0.4-0.7-0.3-1.1c0.2-0.7,0.2-0.7-0.4-1.1c-0.5-0.4-0.7-0.3-1.3-0.3c-0.5,0-0.9-0.2-1.4-0.3
				c-0.4-0.1-0.7-0.4-1.2-0.4c-0.7,0-0.2-0.5-0.4-0.9c-0.3-0.4-0.5-0.8-0.6-1.3C43.4,50,43.3,50,44,49.6c0.8-0.4,1.6-1,2.5-0.8
				c0.5,0.1,1,0,1.4,0.1c0.2,0,0.3,0,0.5,0c0.1,0,0.1,0.2,0.3,0.2c0.1,0,0.2-0.2,0.3-0.2c0.9,0,1.8,0.3,2.7,0.3
				c0.4,0,0.9,0.1,1.2-0.2C53.2,48.8,53.9,48.6,54,49.1"/>
			<path class="st3" d="M42.9,53.9c0.4-0.1,0.7,0.2,1.1,0.2c0.6,0,0.4-0.8,0.3-1.2c1.2,0,2.1,0.7,3.3,0.7c0.4,0,1.2,0.4,1.3,0.9
				c0.1,0.6-0.5,1.1,0.2,1.7c-3,0-5.9-0.3-8.9-0.3c0.3-0.3,0.6-0.5,0.8-0.9c0.1-0.4-0.1-0.9,0.5-0.9c0.6,0,0.8-0.1,1.3-0.4
				c0.3-0.2,0.6-1,0.9-0.6c-0.5,0.1-0.6,0.7-0.9,1C42.8,53.9,42.8,53.9,42.9,53.9"/>
			<path class="st2" d="M3,71.1c0.6-0.1,0.4,1.2,1.1,1.2c0.3,0,0.7,0.1,0.3,0.4c-0.3,0.3-0.3,0.5-0.3,0.9c-0.6-0.5-1.2,0.3-1.7-0.3
				c0.3-0.1,0.1-0.2,0.3-0.3C2.3,72.5,2.2,71.3,3,71.1"/>
			<path class="st3" d="M53.6,43.3c0.3-0.3,0.5,0,1,0.2c0.5,0.2,0.9,0.2,1.4,0.5c0.4,0.3,0.7,0.8,1.2,0.9c0.4,0.1,0.9-0.2,1.4-0.2
				c0.3,0,1.1,0.1,1.4,0.2c0.2,0.1,0.4,0.4,0.5,0.5c0.1,0.1,0.6,0.3,0.7,0.3c0.2,0.3-0.2,0.9-0.2,1.2c0.1,0.6,0,0.1,0.3,0.3
				c0.2,0.1,0.3,0.3,0.4,0.4c0.3,0.3,0.5,0.6,0.7,0.9c0.1,0.1,0.7,1.2,0.3,1.2c-0.5,0-0.8,0.3-1.1,0.7c-0.1,0.1-0.2-0.1-0.2,0.1
				c0,0,0,0.4,0,0.4c-0.1,0.1-0.6,0-0.8,0c-0.2,0-0.6-0.2-0.8-0.2c-0.2,0.1-0.3,0.4-0.5,0.5c-0.3,0.2-1,0.1-1.3,0
				c-0.9-0.5-1.6-1.3-2.6-1.5c-0.7-0.1-1.1,0-1.5-0.6c-0.1-0.2-0.2-0.6-0.5-0.3c-0.2,0.2-0.5,0.1-0.7,0.4c-0.4,0.4-2.5-0.1-3.1-0.2
				c-1-0.1-2,0.1-3.2-0.2c-1.1-0.3-2.2,0.6-3.2,1.1c-0.1-0.6-0.6-2-0.3-2.6c0.2-0.3,0.6-0.3,0.7-0.8c0.1-0.3,0.2-0.4,0-0.7
				c-0.1-0.1,0.1-0.3,0.2-0.4c0.3-0.5,0.3-0.9,0.9-0.9c0.4,0,0.9-0.1,1.3-0.3c0.6-0.3,0.4-0.1,0.9,0.3c0.3,0.3,0.9,0.4,1.2,0.7
				c0.3,0.3,0.5,0.7,0.8,1c0.2,0.2,0.9,0.6,1.1,0.5c0.7-0.2,1.8-0.5,1.6-1.4c-0.1-0.4-0.1-0.8-0.3-1.2c-0.2-0.2-0.2-0.3-0.2-0.6
				c0-0.2,0.2,0,0.3-0.1c0.3-0.2,0.7-0.3,1.1-0.3C53.2,43.3,53.2,42.7,53.6,43.3"/>
			<path class="st2" d="M8.2,94.4C8.1,94.5,8,94.5,8,94.6C7.9,94.3,8,94.5,8.2,94.4"/>
			<path class="st3" d="M66.4,77.4c0.4,0.1,0.6,0.4,0.9,0.6c0.3,0.2,0.9,0,0.8,0.5c0.1-0.1,0.1-0.1,0.2-0.2c0,0.2,0.1,0.2,0.2,0.3
				c0.6-0.7,1.2,0.4,1.7,0.5c0.2,0,0.1-0.2,0.3,0c0.2,0.1,0.2,0.4,0.3,0.6c0.1,0.3,0.1,0.8-0.1,0.9c0.2,0.3,0.9,0.9,1.3,0.9
				c0.2,0,0.3,0.3,0.2,0.4c-0.3,0.3,0.1,0.4,0.3,0.6c0.2,0.3-0.2,0.3,0.3,0.4c0.3,0.1,0.6,0.2,0.8,0.4c0.2,0.3,0.2,0.4,0.2,0.8
				c0,0.2,0.5,0.5,0.7,0.6c-0.2,0.2-0.3,0.2-0.6,0.2c-0.3,0-0.2-0.3-0.4-0.3c-0.2,0-0.3,0.2-0.5,0.2c-0.2,0-0.3-0.2-0.5-0.2
				c-0.3,0-0.7,0.4-0.7,0.3c0-0.1,0.1-0.6-0.1-0.6c-0.2,0-0.5,0.2-0.6,0.3c-0.3,0.4,0.3,0.5,0.3,1c0,0-0.3,0.6-0.3,0.6
				c-0.3,0.1-0.4,0.2-0.4,0.5c0,0.3-0.4,0.2-0.5,0.4c-0.2,0.4,0,0.3,0,0.6c0,0.4-0.6,0.2-0.9,0.6c-0.1-0.3-0.3-0.5-0.5-0.7
				c0.6,0,0.1-0.7,0-1c-0.1-0.6-0.1-1.1,0-1.7c0-0.1,0.2-0.2,0.2-0.3c0-0.1-0.2-0.1-0.2-0.2c0-0.4-0.1-0.5-0.3-0.9
				c-0.3-0.6-0.6-0.8-1.1-1.3c-0.3-0.3-0.8-0.8-1.1-1.2c-0.1-0.1-0.3-0.5-0.4-0.5c-0.4-0.1-0.5-0.2-0.6-0.6c-0.4-0.8-1.1-2.1-2.2-2
				c0.3,0,0.5-0.3,0.8-0.3c0.3,0,0.6,0,0.9,0C65.3,77.4,65.8,76.9,66.4,77.4"/>
			<path class="st2" d="M53.1,99.7c0.4,0.5,0.6,0.8,1.1,1.1c0.2,0.1,0.4,0.1,0.5,0.3c0.1,0.1,0.3,0.7,0.3,0.7c0.3,0,0.1,1.2,0.1,1.5
				c0,0.2,0,0.2-0.3,0.2c-0.5,0,0,0.3-0.3,0.5c-0.3,0.3-1.1,0.2-1.4,0.2c-0.1,0-0.2-0.2-0.3-0.2c-0.1,0-0.1,0.2-0.3,0.2
				c-0.3,0-0.4,0.2-0.7,0.4c-0.2,0.2-0.3,0.3-0.6,0.4c-0.3,0.1-0.2,0-0.6,0c-0.1,0-1.4,0.4-1.4,0.1c0-0.2-0.4-0.1-0.6-0.1
				c0,0-0.3-0.4-0.4-0.5c-0.2-0.2-0.6-0.8-0.6-1.2c0-0.3-0.2-0.4-0.2-0.7c0-0.2,0.3-0.3,0.1-0.5c-0.1-0.1,0-0.6,0.1-0.8
				c0.2-0.2,0.3,0.1,0.5-0.2c0.1-0.1-0.1-0.5,0-0.5c0.2-0.1,0.6-0.5,0.8-0.5c0.3,0,0.4,0,0.6,0.3c0.2,0.2,0.3-0.3,0.4-0.4
				c0.3-0.2,0.9,0.1,1.3-0.3c0.1-0.1,0.4-0.1,0.5,0c0.2,0.2,0.6-0.2,0.8-0.3C52.8,99.8,52.9,99.7,53.1,99.7"/>
			<path class="st2" d="M31.1,123.7c-0.3,0.4-0.7,0.2-0.7-0.3C30.5,123.2,31,123.7,31.1,123.7 M30.3,123c-0.2,0.2-0.3,0.1-0.5,0
				C30,122.8,30.2,122.8,30.3,123"/>
			<path class="st2" d="M42.7,95.3c0.6-0.1,0.4,0.3,0.9,0.6c0.5,0.3,0.9,0.7,1.4,0.9c0.5,0.2,1,0.4,1.5,0.7c0.6,0.3-0.2,0.8-0.6,0.7
				c0.4,0.4,0,1-0.5,1c-0.4,0-0.2-0.7-0.5-0.7c-0.2,0-0.6,1.1-0.7,1.3c-0.1,0.1-0.1,0.2-0.2,0.3c-0.2,0.2,0.1,0.1,0.1,0.3
				c0,0.3-0.1,0.5,0.2,0.5c-0.1,0.2-0.2,0.3-0.2,0.5c-0.4-0.4-0.9-0.9-1.3-1.3c-0.2-0.2-0.6-0.4-0.8-0.5c-0.1-0.1,0-0.2,0-0.2
				c-0.1,0-0.3,0.1-0.3,0c-0.7-0.6,0.3-0.4-0.1-1c-0.3-0.4-0.5-1.4,0.3-1.2c-0.4-0.5,0.2-1.2,0.8-1.2c0.1,0,0.4,0.3,0.1-0.3
				C42.5,95.4,42.2,95.2,42.7,95.3"/>
			<g>
				<path class="st3" d="M3.6,59C3.4,59,3.2,59,3,59.1C3.2,59.1,3.4,59.1,3.6,59z"/>
				<path class="st3" d="M1.2,60.1c-0.1,0.2-0.2,0.3-0.3,0.4c-0.3,2-0.5,4.1-0.6,6.2c0,0.2,0.2,0.2,0.4,0.4c0.3,0.2,0.3-0.1,0.6,0
					c0.4,0.1,0.7,0.5,1.1,0.5c0.4,0-0.6,0.6-0.1,0.7c-0.4,0-0.5,0.7-0.1,0.7c0.6,0,0.7,0.1,0.9-0.4c0.1-0.3-0.7-0.3-0.7-0.5
					c0,0,0.7-0.3,0.9-0.4c-0.4-0.3,0.1-0.6,0.2-1c0-0.2-0.3-0.6-0.5-0.9c-0.3-0.4-0.5-0.4,0-0.7c0.3-0.2,0.6-0.2,0.8,0.2
					c0.2-0.3,1.2-0.1,1.2-0.6c0-0.1-0.3-0.4-0.1-0.4c0.1,0,0.4-0.2,0.5-0.3c0.6-0.3,0.2-0.7-0.1-0.9c-0.1-0.1-1-0.2-0.7-0.7
					c0.1-0.1,0.7,0,0.8,0c0.1,0,0.2-0.4,0.2-0.5c0.2-0.5,0.3-0.7,0.3-1.3c0-0.7-0.1-0.5-0.7-0.8c-0.5-0.3-0.7-0.3-1.3-0.3
					C3.4,59.3,1.6,59.3,1.2,60.1z"/>
				<path class="st3" d="M1.7,59.1c0.2,0.3,0.5,0.1,0.9,0C2.3,59.1,2,59.1,1.7,59.1z"/>
				<path class="st3" d="M4.4,58.8c0.1,0,0.2,0,0.3,0c0.1-0.1,0.1-0.1,0.2-0.2C4.7,58.6,4.5,58.6,4.4,58.8z"/>
				<path class="st3" d="M1.5,59.3c-0.2,0-0.3,0-0.4,0c0,0,0,0.1,0,0.1C1.2,59.4,1.4,59.3,1.5,59.3z"/>
			</g>
			<g>
				<path class="st3" d="M37.7,6c0.3,0.2,0.6,0.4,1,0.6c0.5,0.2,0.9,0.8,1.3,1c0.2,0.1,0.6,0.1,0.9,0.2c0.2,0,0.4,0,0.6,0
					c0.1,0,0.1,0.2,0.2,0.2c0.6,0,1-0.4,1.5-0.5c0.5-0.1,1,0.1,1.4,0.3c0.4,0.1,1.1,0.5,1.5,0.3c0.2-0.1,0.2-0.5,0.3-0.6
					C46.7,7.2,47,7.1,47.2,7c0.3-0.1,0.4,0.1,0.5-0.3c0.1-0.2-0.2-0.5-0.2-0.7c0-0.2,0.2-1.2,0.3-1.4c0.2-0.2,0.5-0.2,0.7-0.3
					c0.2-0.1,0.2-0.5,0.4-0.5c0.5,0,0.9,0,1.4,0c0.5,0,0.9-0.5,1.4-0.5c0.5,0,0.9,0.4,1.3,0.7c0.5,0.3,2.7,0.5,2.8,1.2
					c0.1,0.5-0.9,0.7-0.9,1.2c0.1,0.6,0.8,0.1,0.9-0.1c0.3-0.5,0.8-0.8,1.4-0.8c0.4,0,0.9-0.5,0.4-0.9c0.4,0,2.7,0.8,1.6-0.3
					c-0.3-0.3-0.9-0.4-0.9,0c0,0.3-0.6-0.7-0.9-0.3c0.1,0.1,0.1,0.1,0.2,0.2c-0.2,0.3-0.3,0-0.5,0c-0.3,0-0.2,0.2-0.6,0
					c-0.4-0.2,0-0.3-0.3-0.6c-0.5-0.6-1.9,0-2.4-0.7c1.4,0.1,2.7,0.3,4-0.1c0.3-0.1,0.7-0.1,1.1-0.2c0.2,0,0-0.5-0.2-0.5
					c-0.3-0.1-0.6-0.3-0.9-0.3c-0.2,0-0.8,0.1-0.9,0c-0.2-0.1,0.1-0.5-0.4-0.5c-0.3,0-0.5,0.2-0.8,0.2c0.1,0-0.1-0.2-0.2-0.2
					c-0.1,0-0.3-0.1-0.4-0.1c-0.3-0.1-0.4-0.1-0.7-0.3c-0.3-0.3-1.3,0-1.5,0.4c-0.1,0.3-0.1,0.6-0.3,0.8c-0.1,0.2-0.3,0.1-0.2,0.6
					c-0.3-0.2-0.4-1.1-0.2-1.4c-0.3,0-0.6,0-0.9,0c0.1-0.1,0.9-0.3,0.9-0.4c0-0.5-0.2-0.5-0.7-0.6c-0.6-0.2-1.6-0.4-2,0.2
					c0.2,0.3,0.6,0.4,0.9,0.5c-0.9-0.2-0.8,0.7-1.4,1c-1,0.5-0.1-0.5-0.9-0.7c0.5-0.1,0.4-0.4,0.1-0.6c-0.4,0.1-0.7,0.3-1.1,0.4
					c-0.3,0.3-0.5,0.6-0.9,0.9c-0.2,0.2-0.8,1.3-1.2,1.2c-0.3-0.1-0.1-0.8,0.1-1.2C42.7,3.2,40.2,4.5,37.7,6z"/>
				<path class="st3" d="M56.7,4.3c0.2-0.1,0.3-0.1,0.5-0.2c0.1,0,0.1,0,0.2,0C57,3.7,56.6,3.7,56.7,4.3z"/>
				<path class="st3" d="M7.2,42.9c0.2-0.1,0.5-0.1,0.6-0.2c0.2-0.2,0.3-0.3,0.5-0.4c0.5-0.2,0.8-0.6,1.1-0.9
					c0.3-0.3,1.7-0.9,1.2-1.2c0.5-0.1,1.5-0.3,0.7-0.9c0.5,0,0.6,0.5,0.9,0.5c0.2,0,0.3-0.2,0.5-0.2c0.3,0,0.1-0.1,0.3-0.2
					c0.4-0.4,0.5-0.7,0.5-1.3c0-0.1-0.3-0.1-0.2-0.3c0.1-0.1,0.4-0.2,0.5-0.2c-0.1-0.3-0.3-0.5,0-0.7c-0.1,0.3,0.2,0.4,0.2,0.6
					c0,0.2,0,0.5,0,0.7c0,0.1,0.4,0.3,0.4,0.5c0.1,0.4,0.1,0.1,0.4,0.3c0.3,0.1,1,0,1.2,0.2c0.1,0,0,0.3,0.1,0.4
					c0.2,0.2,0.3,0.3,0.5,0.5c0.3-0.3,0.5-0.8,0.5-1.3c0-0.4-0.5-0.9-0.3-1.3c0.1-0.2,0.4-0.3,0.5-0.5c0.1-0.2-0.1-0.3,0.2-0.5
					c0.3-0.3,0.7,0.1,1-0.4c0.4-0.8,0.6-1.5,0.1-2.2c-0.1-0.1-0.9-1.1-0.5-1.1c0.2,0,0.3-0.2,0.5-0.2c0.4,0,0.3,0,0.4-0.2
					c0.3-0.3,0.5-0.7,0.2-1c-0.2-0.2-0.3-0.4-0.5-0.5c-0.2-0.1-0.3,0-0.5-0.1c-0.5-0.4-0.9-0.2-0.7-0.9c0.1-0.4,0.3-0.8,0.2-1.2
					c-0.1-0.5-0.6-0.7-0.7-1.2c-0.1-0.3,0-0.8,0-1.1c0-0.3,0.1-0.2,0-0.6c-0.1-0.2-0.3-0.4-0.5-0.6c-0.2-0.3,0.8-0.6,0.3-1.1
					c0.7-0.2,0.9-1.1,1.5-1.4c0.6-0.3,1.4-0.2,2.1-0.2c0.3,0,0.7,0.3,0.9,0.1c0.2-0.2,0.2-0.5,0.3-0.8c0.1-0.8-0.7-0.9-1.4-1
					c0.4-0.4,0.7-0.7,1-1.2c0.2-0.4,0.7-0.8,0.9-1.2c0.1-0.2,0-0.4,0-0.7C15,25.1,9.3,33.7,5.5,43.2C6.2,43.2,6.9,43.1,7.2,42.9z"/>
				<path class="st3" d="M33.8,8.7c0.4,0.2,0.6-0.2,0.9-0.3c-0.2-0.1-0.4-0.1-0.7-0.2c-0.2,0.1-0.4,0.2-0.6,0.4
					C33.6,8.6,33.7,8.6,33.8,8.7z"/>
			</g>
			<path class="st2" d="M94.3,140.7c-0.1,0.1-0.2,0.2-0.3,0.3c-0.4-0.4,0.3-0.9,0.5-1.4C94.9,140,94.3,140.4,94.3,140.7 M97.7,138.2
				c0.1,0.3,0.2,0.6,0.2,0.9c0,0.2-0.2,0.5-0.2,0.8c0,0.3-0.9,0.8-1.3,0.8c-0.3,0-0.5,0.1-0.6-0.2c0,0,0.2-0.8,0.2-0.9
				c0.1-0.2,0.7-0.2,0.7-0.4c0-0.4-0.4-0.5-0.7-0.3c0-0.9-0.5-1.9,0.3-2.7c0.3-0.3,0.9,0.5,1.2,0.5
				C97.8,136.6,97.7,137.9,97.7,138.2"/>
			<path class="st3" d="M65.2,79.9c0.1,0.3,0.2,0.3,0.4,0.4c0.3,0.1,0.1,0.1,0.3,0.3c0.3,0.3,0.6,0.6,0.9,0.9
				c0.6,0.6,1.1,1.1,1.5,1.9c0.1,0.1,0.3,0.4,0.3,0.5c0,0.2,0.2,0.5,0.2,0.6c0,0.4-0.4,0.8-0.3,1.2c0,0.2,0.1,1,0.3,1.1
				c0.2,0.2,0.3,0.8-0.1,0.8c0.3,0.3,0.5,0.9,0.9,1c0.5,0.2,1,0.3,1.5,0.3c-0.1-0.1-0.1-0.1-0.2-0.2c0.9,0.1,2.1-1.1,2.7,0.1
				c0.1,0.2,0.1,1,0,1.3c-0.2,0.6-1,0.4-1.5,0.5c0.1-0.3-0.3-0.5,0-0.7c-0.2-0.2-0.3-0.2-0.5,0c-0.3,0.3,0,0.3,0,0.6
				c0,0.3-0.2,0.5-0.2,0.9c0.1-0.1,0.1-0.1,0.2-0.2c0.1,0.5-0.5,0.8-0.5,1.2c0.1,0.6,0.1,1.2,0.1,1.8c0,0.1-1.1,0.1-1.3,0.1
				c-0.3-0.1-0.5-0.2-0.7-0.4c-0.3-0.3-0.1-0.4-0.7-0.2c-0.1,0-0.4-0.3-0.6-0.3c-0.2-0.1-0.5,0-0.7-0.1c-0.2-0.1-0.6-0.1-0.8-0.3
				c-0.2-0.2-0.6,0.1-0.8,0.1c-0.6,0.1-1.1,0.2-1.7,0.4c-0.5,0.2-0.8,0.7-1.3,1c-1.2,0.6-2,0.1-3.1-0.1c-0.3,0-0.6-0.1-0.9-0.1
				c-0.2,0-0.5,0.2-0.7,0.2c-0.6-0.1-1.2-0.2-1.8-0.3c-0.5-0.1-0.9,0-1.4,0c-0.6,0-1.2,0-0.5-0.6c0.1-0.1,0.5-0.2,0.2-0.3
				c-0.2-0.1-0.5-0.2-0.8-0.3c-0.2-0.1-1-0.7-1-1c0-0.6,1.2-0.2,0.3-0.7c-0.2-0.1-0.6-0.3-0.8-0.2c-0.3,0.2-0.2,0.6-0.7,0.5
				c-0.2,0-0.2-0.5-0.6-0.5c-0.3,0-0.6,0-0.9-0.3c-0.1-0.1-0.7-0.1-0.8-0.3c-0.1-0.2,0.4-0.2,0.5-0.3C49.5,90,49.3,90,49,89.8
				c0.3,0,0.3-0.2,0.3-0.4c0-0.2-0.5-0.4-0.7-0.4c-0.3-0.1-0.5-0.2-0.8-0.4c-0.1-0.1-0.7-0.4-0.8-0.5c-0.1-0.2,0-0.6,0-0.8
				c0-0.4-0.2-0.1-0.4-0.3c-0.3-0.3-0.3-0.4-0.7-0.6c-0.3-0.1-0.5-0.4-0.6-0.7c0.2-0.1,0.4-0.1,0.6-0.2c0.2,0,0.3,0.2,0.5,0.2
				c0.3,0,0.1-0.4,0.3-0.5c0.3-0.1,0.8,0.2,1,0c0.3-0.2,0-0.7,0.5-0.5c-0.5-0.4,0.3-0.8,0.5-1c-0.1-0.1-0.1-0.1-0.2-0.2
				c0.3-0.2,0.5-0.7,0.5-1.1c0-0.2,0.3-0.3,0.4-0.5c0.1-0.2,0.1-0.6,0.2-0.7c0.2-0.2,0.3,0,0.3-0.5c0-0.2,0.3-0.3,0.4-0.5
				c0.2-0.4,0.6-0.4,1.1-0.4c0.2,0,0.8-0.6,0.9-0.7c0.5-0.3,0.7-0.6,1.2-0.3c0.4,0.2,0.8,0,1.2,0.1c0.4,0.1,1,0.3,1.4,0.3
				c0.3,0,0.9-0.4,1.2-0.1c0.3,0.3,0.6,0.9,1.1,0.8c0.4-0.1,1-0.5,1.4-0.7c0.5-0.2,1.1-0.1,1.6-0.3c0.3-0.1,0.6-0.9,0.7-0.9
				c0.6,0,0.7-0.2,1.2-0.2C64.3,77.9,64.8,79.4,65.2,79.9"/>
			<g>
				<path class="st3" d="M112,7.9c0.4,0,0.8,0.3,1.2,0.5c-0.3,0.4-1.6,0.5-1,0c-0.7-0.2-1.3-0.1-2,0.1c-0.8,0.3-1.4,0.2-2.1,0.6
					c-0.3,0.2-0.7,0.2-1,0.4c-0.3,0.2-0.6,0.3-0.9,0.4c-0.7,0.3-1.2,0.3-2,0.3c0.3,0.1,0.7,0.4,0.7,0.7c-0.8-0.3-1.4,0-2.2,0.3
					c0,0,0.2,1.5,0.1,1.7c-0.2,0.6-1.5,0.6-2.1,0.7c-0.6,0.1-1.1-0.2-1.7-0.2c-0.8,0-0.9-0.9-1.6-1.1c-0.3-0.1-2-0.3-1.9-0.8
					c0.1-0.4,1.3-1,1.7-1.1c0.8-0.1,1.5-0.1,2.3-0.1c-0.3-0.8-1.2-1.1-1.9-1.6C96.7,8.4,96,8,95,8c-0.8,0-1.7,0.3-2.5,0.2
					c-0.7-0.1-1.4-0.6-2.2-0.5c0.7,0.6,2.2,0.7,2.7,1.6c0.3,0.7,0.4,0.8,0.2,1.6c0,0.3-0.4,1.1-0.2,1.4c0.2,0.3,0.6,0.1,0.9,0.2
					c0.2,0.1,0.5,0.2,0.7,0.3c0.5,0.3,0.6,0.7,0.9,1.2c0.3,0.5-0.5,1-0.4,1.5c0,0.2,0.4,0.2,0.3,0.5c0,0.2-0.2,0.3-0.4,0.1
					c-0.2-0.2-0.5-0.4-0.8-0.4c-0.3-0.1-0.1,0.2-0.3,0c0,0,0.2-0.1,0.1-0.3c-0.1-0.1-0.2-0.2-0.3-0.3c-0.2-0.1-0.6-0.1-0.9-0.1
					c-0.2,0-0.5-0.2-0.8-0.2c-0.4,0.1-0.5,0.1-0.9,0c-0.5-0.2-0.9-0.3-1.4-0.1c-0.5,0.2-0.6,0.9-1.2,1.1c-0.5,0.2-1,0.4-1.6,0.5
					c-0.4,0.1-0.6,0.6-1.1,0.8c-0.5,0.2-1.1,0.4-0.8,1c0.3,0.6,0.8,0.7,1.3,1.1c0.4,0.3,0.7,0.7,1,1c-0.6,0-0.9,0-1.4,0.3
					c-0.3,0.2,0,0.3-0.5,0.3c-0.2,0-0.4-0.1-0.6-0.2c-0.5-0.2-2.7-0.4-2.7-0.8c-1,0.3-1.6-0.4-2.6-0.7c-0.5-0.2-0.9-0.3-1.4-0.3
					c-0.6,0,0.1,0.9-0.7,0.9c-0.5,0,0.5,0.8,0.7,0.8c0.4,0.1,0.8,0.6,1.2,0.8c0.8,0.4,1.8-0.3,2.3,0.6c0.1,0.2,0.9,0.8,0.3,0.9
					c-0.3,0.1-0.6,0.1-0.8,0.2c-0.2,0.1-0.3,0.3-0.5,0.3c-0.4,0.1-0.9-0.3-1.3-0.4c-0.5-0.1-1.1-0.2-1.6-0.3
					c-0.3-0.1-0.5-0.6-0.9-0.7c-0.4-0.1-1-0.5-1.5-0.5c-1,0-1.8-0.1-2.1-1.2c0.5-0.2-0.1-0.1-0.2-0.2c-0.1-0.3,0-0.4-0.2-0.7
					c-0.4-0.5-0.9-0.8-1.3-1.3c0.4-0.1,0.5-0.8,0.5-1.2c0-0.6-0.4-0.7-0.9-1c-0.8-0.5-2.1-1-3.1-0.7c0-0.3,0.5-0.1,0.5-0.4
					c0,0-0.5-0.2-0.7-0.3c-0.6-0.2-0.7-0.7-1.4-0.7c0,0-0.5-0.3-0.6-0.4c-0.1-0.1-0.3-0.2-0.5-0.3c-0.1-0.1,0.1-0.3,0-0.3
					c-0.5-0.4-1.2-0.2-1.7-0.5c0.8,0.1,1.5,0.2,2.3,0.3c0.4,0,0.3,0.2,0.6,0.5c0.2,0.2,0.5,0.2,0.7,0.3c0.3,0.1,0.6,0.3,0.9,0.3
					c0.3,0,0.6,0.2,0.8,0.2c0.4,0,0.7,0,1.1,0.1c0.3,0.1,0.5,0.1,0.2,0.2c0.5,0.3,0.8-0.1,1.3,0.1c0.5,0.2,1.1,0.4,1.6,0.6
					c1,0.3,2.2,0.3,3.2,0.3c1.1,0,2.1,0.7,3.1,0.7c1.1,0,2.2,0,3.3-0.2c0.9-0.1,2.2-0.5,2.9-1.1c0.4-0.4,1-0.8,1.2-1.4
					c0.1-0.2,0-0.6-0.1-0.8c-0.1-0.2-0.2-0.2-0.3-0.3c-0.1-0.1-0.3-0.1-0.3-0.2c-0.1-0.1,0.1-0.3,0-0.3c-0.2-0.2-0.4-0.2-0.5-0.5
					c-0.3-0.5-0.7-0.7-1.2-0.7c-0.8,0-1.7-1-2.5-1.2c0.1,0.1,0.1,0.2,0.2,0.3c-0.8-0.3-1.7-0.6-2.5-0.8c-0.4-0.1-0.5,0-1-0.2
					c-0.3-0.1-0.5-0.2-0.8-0.4c-1.5-0.7-3-1.2-4.5-1.7C72.8,6.4,71.9,6,71,5.9c-0.2,0-0.5-0.1-0.7-0.1c-0.2,0-0.2,0.2-0.2,0.2
					c-0.2,0-0.7,0.1-0.9,0c-0.9-0.2-1.5-0.3-2.4-0.3c-0.6,0-0.4,0.1-0.7,0.5c-0.2,0.3-0.5,0.1-0.8,0.4c0-0.3,0.3-0.3,0.5-0.6
					c0,0,0-0.5,0-0.5c-0.3-0.3-0.9,0.1-1.3,0.1c0.1-0.1,0.1-0.2,0.2-0.3c-0.5,0.4-2-0.1-2.4-0.5c0.5,0,1,0.1,1.6,0.2
					c0.2,0,1-0.2,0.6-0.4c-0.8-0.4-1.8-0.5-2.6-0.8c0,0.2,0.1,0.4,0.2,0.5c-0.6-0.1-0.6,0.4-1.2,0.3c-0.5,0-1-0.2-1.5-0.2
					C59.7,4.6,59.7,5,59.2,5c-0.5,0-0.9-0.3-1.4-0.3c1,0.8-1.4,1-1.6,1.2c-0.3,0.5-0.3,0.6-0.8,0.8C55,6.8,54.5,6.8,54.1,7
					c0.3,0,0.6,0.2,0.9,0.2c0.3,0-0.3,0.9-0.4,1c-0.2,0.3,0.3,0.5,0.4,0.7c0.3,0.4,0.4,0.4,0.9,0.4c0.8,0.1,1.4,0.7,2,1
					c0.9,0.4,1,0.7,0.3,1.4c-0.3,0.3-1.2,1.2-1,1.7c0.1,0.2,0.5,0.4,0.6,0.5c0.1,0.1,0.1,0.3,0.2,0.4c0.2,0.2,0.6,0.3,0.7,0.6
					c0.2,0.4,0.5,0.5,0.8,0.8c0.3,0.3,0.3,0.5,0.6,0.8c0.1,0.2,0.7,0.7,0.5,0.9c-0.1,0.1-0.7,0-0.9,0.2c0.1,0,0.2,0.1,0.3,0.2
					c-0.2,0.3-0.1,0.7-0.3,1c0.3,0,0.7,0.1,0.7,0.4c0,0.2-0.8,0.1-0.4,0.5c0.1,0.1,0.2,0.4,0.3,0.4c0.2,0,0.3,0,0.5,0.1
					c0.5,0.1,0.6,0.2,0.6,0.6c0,0.2-0.3,0.2-0.1,0.4c0.1,0.1,0.3,0.3,0.4,0.4c0.3,0.2,0.8,0.3,1,0.5c0.6,0.6-0.3,1.3-0.9,1.5
					c0.6,0.6,1.2,0.7,1.9,1c0.7,0.3,1.4,0.7,2,1.2c0.1,0.1,0.7,0.6,0.7,0.6c0,0.2-0.1,0.7-0.2,0.9c-0.4,0.7-0.9,1.2-1.5,1.7
					c-0.5,0.4-1,1-1.5,1.5c-0.4,0.4-1,1.3-1.4,1.6c-1.3,0.6-2.2,1.5-3.4,2.4c0.6,0,1,0,1.5-0.2c0.4-0.1,0.8-0.2,0.7,0.4
					c-0.1-0.1-0.2-0.1-0.3-0.2c0.2,0.6,1.1,1.1,1.8,1.2c0.5,0.1,0.8,0.2,1.2,0c0.4-0.1,0.6,0,0.9,0.3c0.3,0.3,0.5,0.3,0.8,0.4
					c0.5,0.2,0.2,0.5-0.2,0.4c-0.8-0.2-1.6-0.3-2.4-0.4c-0.2,0.6-0.8,1-1.5,0.5c0,1-0.9,0.1-1.2,0.5c0.3,0.2,0.4,0.6,0.2,0.9
					c0.2,0,0.4,0.2,0.5,0.3c-0.3,0-0.7,0.2-0.7,0.6c0,0.4-0.5,0.8-0.7,1.1c-0.3,0.5-0.1,0.7,0.2,1.2c0.2,0.4,0,0.7,0.2,1
					c0.1,0.2,0.6,0.9,0.8,1.1c0,0,0.5,0.2,0.2,0.3c-0.2,0-0.6,0.1-0.6,0.2c0,0.2-0.3,0.4-0.3,0.6c0,0.3,0.2,0,0.3,0.2
					c0.3,0.3,0.8,0.6,1,0.9c0.1,0.2,0.2,0,0.2,0.3c0,0.2-0.1,0.3-0.2,0.5c0,0.1-0.1,0.6,0,0.7c0.1,0.1,0.4-0.1,0.5,0
					c0.3,0.2,0.3,0.8,0.6,0.9c0.2,0.1,0.7,0.7,0.8,1c0.1,0.4-0.2,0.8,0.3,1c0.2,0.1,0.9-0.5,1.1-0.1c0.4,0.7,0.5,0.2,1,0.1
					c0.3-0.1,1,0.3,1.2,0.5c-0.3,0.2-0.2,0.3,0,0.5c0.3,0.3,0.4,0.1,0.7,0c0.3-0.1,0.6-0.3,1-0.3c0.4-0.1,1,0,1.4,0.3
					c0.2,0.2,0.6,0.5,0.9,0.5c0.3,0,0.2,0,0.3,0.3c0,0.1,0.1,0.3,0.1,0.4c-0.1,0.1-0.1,0.1-0.2,0.2c0.1,0.5,0.4,0.5,0.5,0.9
					c0.1,0.4-0.5,0.8-0.3,1.1c0.3,0.3,0.7,0.6,1.1,0.6c-0.4,0.5,0,0.6,0.4,0.8c0.3,0.1,0.4,0.6,0.8,0.8c0.2,0.1,1.1,0.3,1.2,0.4
					c0.1,0.2,0,0.7-0.2,0.9c0.5,0,0.8,0,1.3,0.2c0.5,0.1,0.6,0.4,0.8,0.6c0.2,0.2,0.4,0.6,0.9,0.6c0.1,0,0.1,0.2,0.1,0.3
					c0,0-0.4,0-0.4,0c-0.3,0.2-0.1,0.3-0.3,0.5c-0.2,0.1-0.4,0.1-0.6,0.3c-0.2,0.2-0.9,0.1-1.2,0c-0.2-0.1,0-0.2-0.3-0.2
					c-0.2,0-0.3,0-0.5,0c-0.4,0-0.3,0.4-0.6,0.7c0.3,0,0.4,0.3,0.7,0.5c0,0,0.8,0.5,0.4,0.5c-0.2,0,0.4,1.2,0.4,1.4
					c0-0.1,0.5,0.6,0.5,0.6c0.1,0.1,0,0.1,0.2,0.2c0,0,0.2,0,0.3,0c0.7,0.4,1.1,0,1.3-0.7c0.1-0.6,1.2,0.3,1.6,0.1
					c0.6-0.4,1.1-0.3,1.8-0.3c0.6,0,1,0.2,1.4,0.7c0.3,0.4,0.8,1.3,1.3,1.3c-0.2,0.3-0.6,0.1-0.9,0.3c0.3,0.3,0.5,1.2,0.9,1.2
					c-0.4,0.3-0.1,0.3,0.3,0.3c0.3,0,0.5,0.2,0.8,0.2c0.3,0,1.1-0.1,1.3,0c0,0,0.1,0.4,0.1,0.4c0.1,0.2,0.1,0,0.2,0.1
					c0,0,0.2,0,0.3,0c0.2,0,0,0.1,0.1,0.2c0.3,0.3,0.4,0.9,0.7,1.2c-0.4,0.2,0.2,0.9,0.5,1c0.5,0.3,0.6-0.2,1.1-0.2
					c0.4,0,0.7,0.5,1,0.5c0.4,0,0.7,0,0.9,0.3c0.5-0.6,1.2-0.4,1.8-0.7c0.7-0.4,1,0.7,1.4,1.1c0.3,0.3,0.7,0.5,1.1,0.6
					c0.4,0.2,0.2-0.2,0.3-0.4c0.3-0.3,0.5,0.3,0.9,0.3c0.4,0,0.6,0,0.9,0.3c0.2,0.2,0.7,0.2,1,0.2c0.2,0,0.2-0.3,0.3-0.1
					c0.1,0.1,0,0.2,0.2,0.3c0.3,0.2,0.6,0.1,0.9,0.3c0.3,0.2,0.6,0.3,0.9,0.3c0.3,0,0.6-0.1,0.8,0.2c-0.2-0.2,0,0.4,0,0.3
					c0,0.2,0.2,0.3,0.2,0.4c0,0.7-0.3,1.1-1,1.1c0.3,0.3,0.8,0.7,1.2,0.7c-0.2,0.3-0.5,0-0.7,0.2c-0.3,0.2-0.1,0.5-0.3,0.7
					c0.2,0.1,0.6,0.1,0.8,0.3c0.2,0.2,0,0.4,0.3,0.6c-0.1,0.1-0.1,0.1-0.2,0.2c0.5,0.2,0.2,0.8,0.2,1.4c0,0.5-1.5,0.3-1.8,0.3
					c-0.2,0-0.8-0.1-0.9,0c-0.1,0.1-0.1,0.4-0.2,0.5c-0.1,0.1-0.3,0.2-0.4,0.2c-0.2,0.1-0.8,0.1-0.8,0.4c0,0.3,0.1,0.6-0.2,0.8
					c0.6,0.3-0.1,0.7,0.3,0.9c0.3,0.1,0.9-0.6,1.4-0.5c-0.2,0.1-0.4,0.2-0.5,0.3c0.5,0,1-0.1,1.3-0.5c0.4-0.4,0.7,0.3,0.9,0.5
					c0.2,0.4-1.8,1-2.2,1.1c0.5,0.7-0.2,0.5-0.7,0.5c-0.4,0-0.8,0.2-1.2,0.2c0.1,0.3,0.3,0.5,0.5,0.8c0.1,0.1,0.4,0,0.5,0.1
					c0.6,0.2,1,0.7,1.4,1.2c-0.3,0-0.5,0-0.8,0c-0.1,0-0.1,0.4-0.3,0.5c0.1-0.3-0.2-0.5-0.4-0.3c-0.2,0.2-0.2,0.7-0.4,0.9
					c-0.1,0.1-0.2,0.3-0.3,0.4c-0.2,0.4,0,0.1,0,0.4c0,0.1,0.3,0.3,0.2,0.5c-0.1,0.2-1,0.3-1.2,0.3c-0.3,0.1-0.6-0.1-0.8-0.3
					c-0.1-0.1-0.7-0.4-0.7,0c0,0.2,0.5,0.3,0.7,0.3c-0.4,0.4-1.4,0.3-0.3,0.7c0.4,0.1,1.1,0.3,1.4,0.6c0.3,0.3,0.5,0.9,1,0.9
					c0.2,0,0.5,0.2,0.7,0.1c0.3-0.2,0.3-0.1,0.6,0.2c0.5,0.4,0.9,0.8,1.5,0.9c0.5,0.1,0.9,0.2,1.3,0.5c1,0.7,1.9,1.4,2.8,2.1
					c0.4,0.3,1,1,1.4,0.5c0.4-0.4,0.8-0.1,1.4-0.1c0.6,0,1.1,0.3,1.7,0.5c0.4,0.1,1,0.1,1.3,0.4c0.7,0.7,2.2,0.1,3.1,0.4
					c0.4,0.1,1.1,0.3,1.5,0.3c0,0,0.3,0.4,0.4,0.5c0.2,0.2,0.5,0.2,0.7,0.3c0.4,0.2,1.2,0.3,1.5,0.6c0.3,0.4-0.2,0.8,0.7,0.7
					c0,0,0-0.2,0.3-0.2c0.1,0,0.2-0.1,0.3-0.1c0.2-0.1,0.4-0.2,0.7-0.3c0.6-0.2,0.7,0,1.1,0.4c0.2-0.6,0.3-0.6,0.9-0.3
					c0.3,0.1,0.5,0.4,0.8,0.6c0.2,0.2,0.8-0.1,1.1,0c0.3,0.1,0.2,0.4,0.2,0.8c0,0.5,0.2,0.5,0.7,0.8c0.3,0.2,0.6,0.3,0.9,0.3
					c0.3,0,0.7,0.2,0.9,0.3c0.1,0.1-0.1,0.2,0.1,0.2c0.1,0,0.2,0,0.3,0c0.1,0.1,0.2,0.2,0.2,0.3c0.4-0.5,1.3,0.4,1.6,0.8
					c0.3,0.3,0.6,0.4,0.8,0.8c0.3,0.4,0.5,0.4,1,0.5c0.4,0.1,0.7,0.2,1,0c0.3-0.3,0.2-0.8,0.6-1c0.4-0.2,0.6-0.3,0.8-0.7
					c0.2-0.5,0.2-0.4-0.2-0.9c-0.9-1.2-2-2.4-3.1-3.4c-0.2-0.2-0.5-0.7-0.8-0.7c-0.2,0,0-0.7-0.1-0.9c-0.2-0.7-0.1-1.5-0.1-2.3
					c-0.3,0.2-0.2,0.8-0.2,1.2c-0.2-0.4-0.4-1.3-0.7-1.6c-0.4-0.4-0.8-0.8-1.3-1.3c-0.5-0.5-1,0.1-1.1-0.7c0-0.6,0.6-0.7,0.5-1.2
					c0.3,0.4,0.4,0,0.5-0.3c0.1-0.3,0.3-0.6,0.3-0.9c0-0.2,0-0.4,0-0.6c0-0.2,0.2-0.3,0.2-0.4c0-0.3,0.1-0.6-0.3-0.7
					c0.1-0.1,0.1-0.1,0.2-0.2c0,0.3,0.2,0.4,0.5,0.5c0-0.2,0-0.3,0-0.5c0.6,0.5,1.6-0.3,2.1-0.7c0.3-0.3,0.4,0,0.7,0
					c0.2,0-0.2-0.6-0.3-0.7c0.4,0.1,0.7-0.1,1-0.3c0.3-0.1,0-0.5,0.5-0.6c-0.6-0.6-1.9-0.5-2.4-1c-0.3-0.3-0.2-0.6,0.2-0.7
					c-0.1,0,0.5,0.2,0.5,0.2c0.2,0,0.2,0.3,0.5,0c-0.4-0.4-0.7-0.8-1.1-1.2c-0.3-0.3-0.4-0.8-0.7-1c-0.5-0.4-1-0.6-1.4-1.1
					c-0.3-0.5-0.8-0.3-1.3-0.4c-0.9-0.1-2.2,0.4-2.2-1c0-1.1-1.9-0.9-1.9-2.2c0-0.6,0.4-1,0.6-1.5c0.3-0.5-0.6-0.6-0.8-0.9
					c-0.2-0.4,0-1.4,0-1.8c0-0.2,0.3-0.4,0.4-0.5c0.3-0.2,0.3-0.2,0.3-0.5c0-0.6-0.1-0.7,0.4-1c0.4-0.2,0.9,0.2,1.2,0.5
					c0.4,0.4,0.8,0.9,1.2,1.2c0.6,0.4,0.8,0.2,1.5,0c0.5-0.2-0.1-0.9-0.3-1.2c-0.3-0.4-0.4-0.9-0.7-1.4c0.6,0,0.6,0,1-0.3
					c0.5-0.4,0.7-0.4,0.7-1.1c0-0.3,0.8-0.3,1.1-0.5c0.2-0.1,0.4-0.2,0.7-0.3c0.3-0.1,0.3-0.2,0.4-0.3c0.3-0.3,0.5-0.7,0.9-1
					c0.2-0.2,0.1-0.3,0.3-0.3c0.2,0,0.4,0.2,0.6,0.2c0.4,0,0.4,0,0.7,0.3c0.1,0.1,0,0.3,0.2,0.4c0.3,0.1,0.8,0,1-0.2
					c0.3-0.3,1-0.9,1.5-0.6c0.3,0.2,0.8,0.8,1.2,0.8c0.9,0,2-0.2,2.8,0.3c0.5,0.4,0.8,0.6,1.4,0.9c0.5,0.2,0.9,0.5,1.3,0.8
					c0.5,0.3,0.5,0.9,0.9,1.2c0.6,0.5,0.3-0.4,0.2-0.7c-0.2-0.4-0.7-0.8,0-0.9c0.5,0,1,0.5,1.4,0.7c1,0.5,1.8,1.2,2.8,0.3
					c0.2-0.2,0.1-0.5,0.4-0.7c0.1-0.1,0.5-0.2,0.6-0.2c0.4,0,0.8-0.2,1.3-0.2c0.4,0,0.5,0,0.8,0.2c0.2,0.1,0.4,0.3,0.6,0.3
					c0.7,0,0.5-0.1,0.8-0.7c0.1,0,0.2,0.1,0.3,0.1c-1-24.4-13.7-45.8-32.6-58.8c-0.1,0-0.1-0.1-0.2-0.1c-0.1,0-0.3,0.2-0.4,0.2
					c-0.3,0-0.5,0-0.8,0c-0.3,0-2.1,0.2-1.5-0.3c0.1,0,0.5-0.1,0.6-0.1c0.1-0.1,0.4,0.2,0.4,0.1c0.3-0.3-0.1-0.6-0.3-0.7
					c-0.2-0.1-0.2-0.3-0.1-0.5c-0.3-0.2-0.6-0.4-0.9-0.6c-0.1,0-0.2,0.1-0.4,0.1C113.5,7.3,112.8,7.5,112,7.9z"/>
				<path class="st3" d="M74.9,18.9c-0.1,0.3,0.3,0.8,0.7,0.7c0.3-0.1,0.1-0.4,0-0.7c-0.2-0.1-0.4,0-0.5,0.2
					C75,19.1,75,19,74.9,18.9z"/>
				<path class="st3" d="M91.1,14c-0.1,0-0.7-0.5-0.7-0.2C90.4,14.1,90.8,14,91.1,14z"/>
				<path class="st3" d="M127.4,88.1c0-0.2,0-0.5-0.2-0.7c-0.1,0.1-0.1,0.1-0.2,0.2C127.2,87.7,127.3,87.9,127.4,88.1z"/>
			</g>
			<g>
				<path class="st3" d="M133.9,89.8c0,0.4,0.4,0.9,0.7,0.5C134.1,90.4,134.1,90,133.9,89.8z"/>
				<polygon class="st3" points="133.9,89.8 133.9,89.8 133.9,89.8 				"/>
				<path class="st3" d="M133.9,89.8c0.1-0.1,0.1-0.2,0.2-0.3C133.9,89.5,133.9,89.7,133.9,89.8z"/>
				<path class="st3" d="M141.3,88.3c0-0.6-1-0.2,0,0.2C141.3,88.4,141.3,88.3,141.3,88.3z"/>
				<path class="st3" d="M134.7,90c0-0.2,0-0.3,0-0.5C134.5,89.6,134.5,89.8,134.7,90z"/>
				<path class="st3" d="M149.6,68.3c-0.5,0-0.8-0.5-1.2-0.5c-0.7,0-1.9,0-2.5,0.5c-0.3,0.3-0.2,0.7-0.8,1c-0.5,0.3-0.8,0.1-1.4-0.1
					c-0.8-0.3-1.5-1.2-2.4-1.2c-0.6,0,0,0.6,0.1,0.9c0.2,0.4,0.1,1.2-0.3,0.5c-0.4-0.9-1.3-1.7-2.2-2c-0.6-0.2-0.8-0.6-1.4-0.9
					c-0.5-0.3-0.9-0.3-1.4-0.3c-0.4,0-1,0.1-1.4,0c-0.4-0.1-0.7-0.8-1.2-0.9c-1-0.2-1.6,1.5-2.6,0.7c-0.1-0.1-0.1-0.5-0.4-0.5
					c-0.3,0-0.5,0-0.9-0.1c-0.2-0.1-0.6,0.4-0.8,0.7c-0.4,0.6-0.5,0.7-1.1,1c-0.2,0.1-0.5,0.2-0.7,0.3c-0.2,0.1-0.6,0-0.8,0.1
					c-0.2,0.2-0.2,0.5-0.2,0.8c0,0.2-0.5,0.4-0.6,0.6c-0.4,0.3-0.5,0.4-1.1,0.4c0.3,0.5,0.3,0.9,0.7,1.4c0.1,0.2,0.3,0.4,0.4,0.6
					c0.2,0.4,0,0.2,0,0.5c0,0.2-0.6,0.3-0.8,0.4c-0.2,0.1-0.5-0.2-0.7-0.3c-0.4-0.2-0.7-0.7-1-1c-0.2-0.2-1-1.1-1.4-0.9
					c-0.5,0.3-0.6,0.3-0.6,0.9c0,0.2,0.1,0.6-0.1,0.6c-0.2,0.1-0.5,0.3-0.6,0.5c-0.2,0.4,0,1.2,0,1.6c0,0.6,0.8,0.5,0.9,1.1
					c0,0.4-0.7,0.8-0.7,1.3c0,0.7,0,1.1,0.7,1.5c0.4,0.2,1,0.3,1.2,0.8c0.2,0.5-0.1,0.9,0.6,1.2c0.5,0.2,0.8-0.1,1.3,0
					c0.4,0.1,1.3,0,1.6,0.4c0.3,0.5,0.7,0.7,1.2,1.1c0.8,0.6,1.3,1.8,2,2.5c-0.3,0.3-0.3,0-0.5,0c0,0-0.6-0.2-0.5-0.2
					c-0.4,0.1-0.4,0.4-0.2,0.7c0.3,0.4,1.7,0.6,2.2,0.9c0-0.2,0.1-0.2,0.2-0.3c0.1,0.1,0.1,0.1,0.2,0.2c0-0.3,0.1-0.2-0.2-0.3
					c0.4-0.3,1.1-0.1,1.6-0.4c0.4-0.2,1-1,1.4-1c0.6,0,0.7-0.4,1.3-0.7c0.7-0.3,1.2-0.1,1.9,0.1c0.2,0.1,0.4,0.4,0.6,0.4
					c0.2,0,0.7-0.1,0.8,0.1c0.5,0.5,0.8,0.1,1.2-0.3c0.2-0.2,1.5,0.2,1.7,0.4c0.3,0.2,0.9,0.9,0.4,1.2c0.7,0.6,0.5,1.9,0.3,2.7
					c0,0.2-0.4,1.1,0,1.2c0.5,0.1,0.8,0.1,1.1,0.5c-0.3,0.3-0.8,0.1-1.2,0c-0.2,0-0.9-0.4-1.1-0.3c-0.5,0.1-0.9,0.2-1.4,0.2
					c-0.5,0-0.9,0.2-1.4,0.2c-0.7,0-0.3,0.4-0.4,0.9c-0.1,0.3-0.7,0.4-0.5,0.9c0.1,0.3,0.8,0.6,1,0.7c0.3,0.2,0.7,0.2,0.9,0.5
					c-0.7,0-1.1,0.3-1.7-0.1c-0.4-0.2-1.7-0.5-2-0.1c-0.1,0.1,0,0.7,0.1,0.8c0.3,0.3,0.4,0.2,0.8,0.3c0.8,0.2,1.1,0.7,1.6,1.3
					c0.4,0.5,1,1,1.4,1.5c0.2,0.3,0.2,1.4,0.6,1.4c0.4,0,0.6,0,0.9,0.2c0.3,0.2,0.5,0.5,0.7,0.7c0.1,0.1,0.2,0.3,0.3,0.3
					c0.2,0.1,0.2-0.2,0.3-0.2c0.3,0,0.5,0,0.7,0.3c0.7-0.9,1.4,0.8,1.4,1.4c-0.1,0.8-0.3,1.5,0.1,2.3c4.2-9.4,6.5-19.7,6.5-30.6
					c0-1.1,0-2.2-0.1-3.3c-0.1,0-0.2-0.1-0.3-0.1C150,68.1,150.2,68.3,149.6,68.3z"/>
			</g>
			<path class="st3" d="M23.1,93.9C22.5,93.9,23.3,93.2,23.1,93.9"/>
			<path class="st2" d="M43.9,85.5c0.1,0.1,0.3,0.2,0.4,0.1c0.2-0.2,0.5,0,0.7,0.1c0.5,0.1,0.4,0.2,0.8,0.5c0.3,0.3,0.6,0.3,0.8,0.6
				c0.2,0.4,0.6,0.1,0.6,0.5c0,0.2-0.1,0.8,0.1,0.8c0.3,0,0.7,0.6,0.9,0.7c0.2,0.1,0.8,0.2,1,0.3c0.2,0.2,0.3,0.7-0.2,0.7
				c0.2,0.2,0.4,0.2,0.7,0.3c-0.1,0.2-0.6,0.1-0.5,0.3c0,0,0.8,0.3,0.9,0.4c0.3,0.2,0.7,0.1,1,0.3c0.3,0.1,0.4,0.7,0.7,0.2
				c0.2-0.3,0.4-0.5,0.8-0.3c0.2,0.1,1,0.5,0.3,0.5c-1.1,0,0.3,1,0.4,1.2c-0.5,0-0.2,0.4-0.4,0.6c-0.5,0.3-0.4,0.5-0.4,1.1
				c0,0.3,0.3,0.7,0.5,0.9c0.3,0.4,0.6,0.4,0.9,0.8c0.4,0.4,0.6,0.3,0.4,0.8c-0.1,0.2-0.4,0.9-0.6,0.9c-0.3,0-0.4-0.1-0.6,0.2
				c-0.2,0.3,0,0.1,0,0.4c0,0.4,0,0.7,0.3,0.9c-0.2,0.1-0.8,1-0.9,0.3c-0.2,0.1-0.5,0.3-0.7,0.3c-0.1,0-0.3-0.2-0.5-0.2
				c-0.5,0-0.7,0.7-1,0c0.3-0.2,0.6-0.6,0.5-1c0-0.4-0.1-0.3-0.5-0.4c-0.7-0.1-0.3-0.3-0.8-0.6c-0.3-0.1-0.5-0.5-0.8-0.7
				c-0.2-0.2-0.6-0.2-0.9-0.3c0,0,0-0.3,0-0.3c-0.2-0.1-0.2,0.2-0.4,0.2c-0.5,0-0.1,0.3-0.1,0.6c0,0.3-0.9,0.1-0.3,0.6
				c-0.3,0.4-1.1-0.4-1.5-0.6c-0.5-0.3-1.1-0.3-1.5-0.7c-0.3-0.3-1.5-0.8-0.9-1.2c0.1-0.1,0.6,0.1,0.7,0c0.3-0.3-0.2-0.7-0.4-0.9
				c-0.1-0.1-0.6-0.4-0.5-0.6c0.1-0.1,0.7,0.1,0.9,0c0.5-0.3-0.7-0.8-1-1c-0.3-0.2-0.3-0.2-0.3-0.6c0-0.4,0.1-0.5,0.3-0.8
				c0.1-0.2,0.4-0.6,0.1-0.9c-0.2-0.2-0.7-0.1-0.9,0.1c0.2-0.3,0.1-0.5,0-1c0.1-0.1,0.1-0.1,0.2-0.2c0.2,0.2,0.9,0.3,0.9-0.2
				c0-0.1-0.7-0.3-1-0.3c-0.4-0.1-0.1-0.6-0.5-0.8c-0.1-0.1-0.3-0.9-0.4-1.1c0.3-0.1,0-0.1,0.2-0.3c0.1-0.2,0.4,0,0.5-0.3
				c0.2,0.3,0.6,0.2,0.9,0c0.1-0.1,0.2-0.4,0.3-0.5C43.4,85.5,43.8,85.5,43.9,85.5"/>
			<path class="st3" d="M42.4,73.8c0.5-0.1,0.3,0.3,0.5,0.5c0.1,0.1,0,0.2,0.3,0.2c0.2,0,0.4,0.1,0.6,0.2c-0.1-0.4,0.4-0.9,0.8-0.9
				c0.4,0,0.8,0.2,1.2,0.2c0.2,0,0.3,0.3,0.5,0.1c0.2-0.2,0.3-0.2,0.5-0.3c0.5-0.3,1,0,1.5,0c0.2,0,0.5,0.1,0.7,0.2
				c0.3,0.1,0.2,0.3,0.4,0.5c0.3,0.2,1.1,0.5,1.4,0.5c0.1,0-0.3,0.9-0.4,1.1c-0.2,0.6-0.6,0.6-0.4,1.3c-0.2,0-0.5,0.1-0.7,0.2
				c-0.4,0.2-0.3,0-0.6,0c-0.3,0-0.5-0.7-0.9-0.7c-0.6,0-0.9,0.3-1.4,0c-0.5-0.2-1.2,0-1.4,0.5c-0.3,0.6-0.6,0.6-1.2,1
				C43.4,78.6,43,78,42.6,78c-0.2,0-0.2,0.3-0.4,0.4c-0.3,0.1-0.5,0.1-0.8,0.2c-0.3,0-0.5,0.1-0.8,0.2c-0.5,0.2,0,0.4-0.1,0.6
				c-0.3,0.6-2.6,0.4-3.2,0.3c-0.4-0.1-0.8-0.8-1.2-0.8c-0.4,0-0.9-0.3-1.1-0.7c-0.3-0.6-0.3-0.7-0.1-1.3c0.1-0.2,0.4-1.3,0.8-1.1
				c0.4,0.2,1,0.2,1.4,0c0.2-0.1,0.4-0.3,0.5-0.3c0.1-0.1-0.1-0.2,0.1-0.2c0.2,0,0.3,0,0.4-0.2c0.1-0.1,0-0.5,0-0.6
				c0-0.3,0.7-0.2,0.7-0.5c0-0.4,0.9-0.4,1.3-0.4c0.4,0,0.2,0.3,0.5,0.3c0.6,0,0.4-0.2,0.8-0.5C41.8,72.9,42.3,73.4,42.4,73.8"/>
			<path class="st2" d="M33.9,83.7c0,0.3,0.3,0.5,0.5,0.7c-0.5-0.4-1-0.1-0.9,0.5c-0.4-0.3-0.7,0.2-1,0.3c-0.4,0.2-0.7,0.1-0.9,0.5
				c0.2,0.1,0.6,1,0.3,1c-0.3,0-1.2,0.3-0.8,0.7c-0.4,0.3,0.1,0.5,0,0.7c-0.3,0.4-0.9,0-1.1-0.1c-0.1-0.1-0.2,0.2-0.4,0.1
				c-0.1,0-0.4-0.3-0.5-0.3c-0.1-0.1-0.2-0.3-0.3-0.3c-0.2,0-0.3,0.3-0.4,0.4c-0.2,0.4-0.6,0.3-1,0.3c-0.2,0-0.2-0.2-0.4-0.2
				c-0.1,0,0.1,0.3-0.1,0.3c-0.2,0-1-0.1-0.9-0.3c0-0.1,0.7-0.3,0.9-0.3c-0.2-0.2-0.4-0.4-0.6-0.6c-0.3-0.3-0.4,0.1-0.4-0.5
				c0-0.3-0.3-0.2-0.3-0.3c0-0.3,0.3-0.5,0.5-0.7c-0.2-0.1-0.9-0.2-0.9-0.3c0-0.2,0.5-0.8,0.8-0.8c0.1,0,0.1-0.1,0.3-0.2
				c0.2,0,0.4,0,0.6,0c0.4,0,1,0.2,1.4,0.3c0.4,0.1,0.7-0.1,0.9-0.3c0.1-0.1,0.2-0.3,0.4-0.3c0.3,0,0.2-0.2,0.3-0.2c0.5,0,1,0,1.5,0
				c0.1,0,0.4-0.2,0.5-0.3c0.2-0.1,0.6,0.1,0.8,0.1c-0.1-0.5,0.1-0.7,0.6-0.7C33.7,83,33.6,83.4,33.9,83.7"/>
			<g>
				<path class="st2" d="M31.7,47.2c0.1-0.3,0.2-1.5,0.5-1.5c-0.4-0.5-0.3,0.1-0.5,0.4c-0.2,0.4-0.3,0.9-0.6,1.1
					c-0.2,0.1-0.6,0.9-0.6,1.2c0,0.4,0.1,0.8,0.3,1.1c0.1-0.1,0.1-0.1,0.2-0.2C31.2,48.6,31.5,47.8,31.7,47.2z"/>
				<path class="st2" d="M22.1,18.6c-0.2,0.4-0.6,0.9-0.9,1.2c-0.3,0.4-0.6,0.8-1,1.1c0.8,0.2,1.4,0.2,1.4,1.1c0,1-0.7,0.6-1.3,0.6
					c-0.7,0-1.4-0.1-2,0.2c-0.6,0.3-0.8,1.1-1.4,1.3c0.5,0.5-0.6,0.7-0.2,1.2c0.2,0.2,0.4,0.5,0.5,0.8c0.1,0.1-0.1,0.3-0.1,0.5
					c0,0.3-0.1,0.8,0.1,1.1c0.2,0.4,0.6,0.7,0.6,1.1c0,0.4-0.2,1-0.3,1.4c0,0.2,0.7,0.5,0.9,0.6c0.2,0.1,0.4,0,0.6,0.2
					c0.2,0.2,0.3,0.3,0.5,0.5c0.3,0.3-0.1,0.7-0.3,0.9c-0.1,0.1,0.1,0.2-0.1,0.2c-0.2,0-0.4,0-0.5,0c0,0-0.4,0.2-0.4,0.2
					c-0.2,0.4,0.4,0.9,0.6,1.2c0.5,0.8,0.1,1.6-0.2,2.3c-0.2,0.4-0.8,0.1-1.1,0.4c0,0-0.1,0.4-0.2,0.5c-0.1,0.2-0.3,0.2-0.3,0.4
					c0,0.9,0.8,1.7-0.2,2.5c-0.4-0.4-1.1-1.2-1-0.2c0,0.1,0.2,0.2,0.2,0.4c0,0.2,0,0.3,0,0.5c0,0.1,0.1,0.8,0.2,1
					c0.3,0.3,0.5,0,0.6,0.6c0.1,0.2,0.2,0.8,0.5,0.8c0.4,0,0.3,0.4,0.4,0.8c0,0.1,0.3,0.1,0.4,0.2c0.1,0.1-0.1,0.3,0.1,0.4
					c0.4,0.4,0.6,0.9,1,1.5c0.4,0.6,1,1,1.4,1.6c0.1,0.1,0.3,0,0.4,0.1c0.1,0.1,0.2,0.3,0.3,0.4c0.2,0.3-0.6,0.2-0.6,0.4
					c-0.1,0.3,0.5,0.4,0.3,0.7c-0.1,0.1-0.7-0.2-0.8-0.2c0.2,0.2,0.3,0.5,0.6,0.7c0.3,0.3,0.6,0.5,0.8,0.9c0.2,0.4,0.4,1,0,1.5
					c0.8,0.1,1.3,0.1,2.1-0.1c0.3-0.1,1.4,0.1,1.5,0c0.3-0.4,0.3-0.4,0.1-0.9c-0.1-0.2-0.2-0.6-0.1-0.8c0.2-0.5,0.9-0.5,1.4-0.5
					c-0.6-0.6,0.6-0.6,0.9-0.5c0.6,0.1,0.9-0.1,1.5,0c0.3,0,0.9,0.3,1-0.2c0.1-0.6,0.1-0.9,0.5-1.3c0.3-0.5,0.4-0.9,0.5-1.4
					c0.2-0.5-0.2-0.6,0-1.1c0.2-0.4,0.1-0.7,0-1.1c-0.1-0.3-0.4-1.1,0.2-0.9c-0.1-0.3-0.1-0.5-0.2-0.8c0-0.1,0.2-0.1,0.2-0.2
					c-0.1-0.1-0.1-0.1-0.2-0.2c-0.1-0.5-0.2-0.7,0.5-0.7c-0.4-0.5-1.3-0.5-1.9-0.5c0.3-0.3,1.1-0.2,1.5-0.2c0.4,0,1-0.1,1.4-0.3
					c0.3-0.2,0.7-0.7,1.1-0.7c0.2,0,1.1-0.4,1.3-0.5c0.1-0.1,0.2-0.5,0.3-0.5c0.2,0,0.5,0,0.4-0.3c-0.2-0.3-0.6-0.2-0.9,0
					c-0.5,0.4-2.3-0.1-2.5,0.3c-0.2-0.4-0.5-0.2-0.7-0.4c-0.4-0.4-0.3-0.1-0.8-0.1c-0.3,0-0.7-0.2-1-0.2c-0.3,0-0.6,0-0.8,0
					c0.4-0.1,1.3,0,1.4-0.5C30,38,31.6,37.9,32,38c0-0.1,0-0.1,0-0.2c0.5,0.5,0.7-0.4,1-0.2c0.3,0.3-0.3,1.1,0.6,0.8
					c0.2-0.1,0.4-0.1,0.7-0.1c0.2,0,0.3-0.3,0.5-0.4c0.2-0.1,0.4-0.3,0.6-0.5c0.2-0.1,0.6-0.1,0.7-0.3c0.2-0.4-0.4-0.9-0.7-1
					c-0.3-0.1-0.5-0.1-0.7-0.3c-0.2-0.2,0-0.3-0.3-0.6c-0.2-0.1-0.4-0.1-0.6-0.2c-0.3-0.1-0.4-0.3-0.6-0.5c-0.4-0.3,0.1-0.3-0.5-0.2
					c-0.2,0-0.3,0-0.5,0.2c0-0.7-0.7-0.3-0.9-0.6c-0.1-0.2,0-0.3-0.1-0.5c-0.2-0.2-0.3-0.4-0.4-0.7c-0.1-0.3-0.1-0.5-0.1-0.8
					c0-0.1,0-0.2,0-0.3c0-0.2-0.2,0-0.2-0.1c-0.1-0.3,0.2-1,0-1.2c0.2,0,0.5,0,0.7,0.2c-0.1-0.3-0.4-1.8,0.2-1.9
					c-0.3-0.4-0.8-0.4-0.7-1c0.7,0.5,1.1-0.3,1.7-0.2c-0.2-0.2-0.3-0.2-0.5-0.3c0.4-0.1,0.1-0.5-0.2-0.7c0.3,0.1,0.8,0.4,0.9,0.3
					c0.1-0.1,0.6-0.1,0.6-0.3c0-0.2,0-0.2,0.2-0.3c-1.1,0.2,0-0.3,0-0.4c0-0.4,1.1-0.2,0.5-0.4c0.5,0,0.7,0,1.1-0.3
					c0.2-0.1,0-0.9,0.6-0.4c0.1-0.4,0.2,0.1,0.3,0c0.2-0.1,0.2-0.2,0.3-0.3c0.4-0.3,0.9-0.3,1.3-0.5c0.3-0.1,1-0.3,1.1-0.6
					c0.2-0.4,0.4-0.9,0.7-1.2c0.1-0.1,1-0.6,0.7-0.8c-0.4-0.2-0.4-0.7-0.8-0.9c-0.5-0.3,0.2-0.6,0.4-0.9c0.4-0.5,0.3-0.4-0.2-0.9
					c0.9,0.6,0.2-0.4,0.2-0.3c0.4-0.4,1.2,0.4,0.8-0.5c0.3,0.1,0.5,0.3,0.7,0c-0.2-0.1-0.1-0.1-0.3-0.2c0.6,0.1,0.4,0,0.5-0.3
					c0-0.1,0.1-0.5,0.2-0.5c0.1,0,0.6,0.1,0.7,0.2c0.1,0,0.1-0.2,0.2-0.1c0.1,0.1,0.3,0.2,0.4,0.3c0.6,0.4,0.9-0.1,1.5-0.1
					c0.6,0,1,0.2,1.6,0c-0.2-0.3-0.4-0.8-0.8-1c-0.2-0.1-0.8-0.3-0.8-0.6c0-0.2,0-0.3,0-0.5c0-0.1,0.3-0.1,0.3-0.3
					c0.1-0.3-0.1-0.6,0.2-0.9c-0.2,0-1.2-1-1.2-1.3c0-0.4,0.5-0.2,0.3-0.5c-0.1-0.2-0.8-0.3-0.8-0.3c0-0.3-0.2-0.6-0.2-0.9
					c0-0.5,0.2-0.5-0.1-0.9c-0.3-0.3-0.7-0.2-0.9-0.4c-0.2-0.1-0.2-0.3-0.4-0.5c-0.1-0.1-0.3-0.1-0.4-0.2c-0.4-0.5-1.4-0.2-2-0.4
					c-0.3-0.1-0.6-0.3-0.9-0.4c-0.3-0.1-0.5,0-0.8-0.3c-0.2-0.2-0.6-0.4-0.8-0.4c-0.2,0-0.5-0.1-0.6-0.2c0,0,0-0.1,0-0.1
					c-0.7,0.4-1.4,0.9-2,1.3c0.2,0.1,0.4,0.1,0.7,0.2c-0.5,0.2-0.6,0.5-1.1,0.2c0,0-0.1,0-0.1,0c-4.1,2.7-7.9,5.9-11.3,9.3
					C22.2,18.1,22.2,18.4,22.1,18.6z"/>
				<path class="st2" d="M35.4,38c-0.3-0.3-0.4,0.1-0.3,0.3c0.1-0.1,0.1-0.1,0.2-0.2C35.3,38.1,35.2,38,35.4,38z"/>
				<path class="st2" d="M37.5,43.5c0.1,0,0.2-0.1,0.3-0.2c-0.3-0.1-0.6,0-0.7,0.3c0,0,0.3,0.2,0.3,0.2
					C37.5,43.7,37.5,43.6,37.5,43.5z"/>
				<path class="st2" d="M35.2,46.1c0.3,0.3,0.1,0.5-0.1,0.9c0.6,0.1,0.6-0.6,0.9-0.9c0.2-0.2,0.8-0.8,0.9-0.8
					c-0.3-0.2-0.5-0.6-0.3-1c0-0.1,0.5-0.5,0.7-0.5c-0.2-0.1-0.4-0.2-0.5-0.3c-0.1,0.1-0.3,0.2-0.3,0.3c-0.3-0.4-0.8,0.1-1,0.3
					c-0.3,0.3-0.5,0.5-0.5,0.9C34.9,45.5,34.8,45.8,35.2,46.1z"/>
				<path class="st2" d="M34.9,39.7c0.1-0.1,0.1-0.2,0.2-0.3C34.8,39.5,34.6,39.6,34.9,39.7z"/>
			</g>
			<path class="st3" d="M116.5,119.1c0,0.5-0.5,0.7-0.7,1.1c-0.3,0.5-0.7,0.8-1.2,1c-0.7,0.2-0.9,0.3-0.9,1
				c-0.1,0.6,0.2,0.9,0.4,1.4c0.1,0.2,0.3,0.5,0.3,0.7c0,0.3-0.2,0.4-0.2,0.7c0,0.7-0.1,1.1,0,1.7c0.2,0.9,0.1,2.1-0.8,2.6
				c-2.1,1-4,2.5-6,3.7c-1,0.7-1.9,1.3-2.9,2c-0.4,0.3-0.8,0.6-1.2,0.9c-0.4,0.3-1.1,0.9-1.5,1c-0.5,0.1-1.2-0.2-1.6-0.5
				c-0.3-0.2-0.5-0.3-0.9-0.4c-0.2-0.1-0.3-0.5-0.5-0.6c-0.2-0.2-0.4,0.1-0.4-0.3c0-0.3,0.5-0.5,0.3-0.8c-0.3-0.3,0-0.9-0.4-1.3
				c0.1-0.1,0.3-0.6,0.3-0.8c0-0.2,0.2,0,0.2-0.2c0-0.1-0.2-0.3-0.3-0.4c0.1-0.3,0.5-0.6,0.9-0.7c0,0,0.5,0.4,0.5,0.1
				c0-0.2-0.6-0.2-0.3-0.5c0.2-0.2,0.9-0.6,0.7-1c-0.2-0.6-0.3-1-1-1c0.1-0.2,0.2-0.4,0.3-0.5c-0.3-0.4-0.7,0-1.1,0
				c-0.4,0-0.8-0.9-0.8-1.3c0-0.4,0.1-1.1,0-1.4c-0.1-0.2-0.4-0.5-0.5-0.7c-0.2-0.3-0.1-0.5,0-0.9c0.2-0.9,0.4-0.1,0.9-0.2
				c0.4,0,0-0.3,0.2-0.5c0.2-0.2,0.5,0,0.5-0.4c0-0.8,0.6-0.4,0.7-0.8c0-0.2-0.3-0.5-0.3-0.7c-0.1-0.2-0.1-0.7,0-0.9
				c0.1-0.3-0.1-0.3,0.3-0.3c0.2,0,0.6-0.1,0.8,0c0.2,0.1,0.2,0.4,0.5,0.5c0.2,0.1,0.7,0,0.9,0c0.5-0.1,0.9-0.3,1.4-0.5
				c0.3-0.1,0.4,0,0.7-0.3c0.4-0.3,0.4-0.2,0.9-0.1c0.4,0.1,0.8,0.3,1.2,0.5c0.5,0.2,1,0.2,1.6,0.2c1.2,0,2.2-0.4,3.3-1
				c0.5-0.3,0.9-0.6,1.5-0.6c0.3,0,0.7,0,0.9,0c0.3,0,0.5,0.2,0.8,0.1c0.6-0.2,1.3-0.2,1.9-0.4c0.3-0.1,0.3-0.4,0.6-0.4
				C116.3,118.4,116.4,118.8,116.5,119.1"/>
			<path class="st2" d="M64.9,107.9c-0.3,0-0.6,0-0.9,0c0.1-0.5,0.4-0.2,0.7-0.5C64.8,107.5,64.9,107.7,64.9,107.9 M91.6,101
				c-0.1,0.5,0.5,0.8,0.9,0.9c0.2,0.1,0.6,0.3,0.7,0.3c0.3-0.1,0.7-0.3,1-0.3c0,0,0.6,0.3,0.5,0.2c0.2,0.3,0.3,0.6,0.5,0.9
				c0.3,0.6,0.8,0.5,1.2,0.4c0.5-0.2,0.8-0.2,1.4,0.2c0.3,0.2,0,0.3,0.5,0.4c0.3,0,0.6,0.1,0.9,0.1c0.6,0.1,0.9,0.3,1.5,0.5
				c0.5,0.2,1.3,0.4,1.8,0.3c1-0.3,2.3-0.7,3.3-0.4c0.3,0.1,0.5,0.1,0.8,0.2c0.3,0.2,0.3-0.1,0.7,0c0.6,0.2,1.1-0.1,1.7-0.4
				c0.4-0.2,0.7-0.5,1.1-0.7c0.3-0.1,0.6-0.3,0.9-0.4c0.3-0.1,0.2-0.4,0.5-0.4c0.1,0,0.5,0.2,0.7,0.2c0.3,0,0.3-0.2,0.6-0.2
				c0.4,0,1.1,0.3,1.4,0.2c0.3-0.1,0-0.3,0.3-0.5c0.3-0.2,0.5,0.1,0.6,0.3c0.3,0.4,1.3,0.5,1.3,1c0,0.5,1,0.1,1,0.5
				c0,0.6,1,0.6,1,1.2c0,0.2,0,0.5,0,0.8c0,0.2-0.2,0.3-0.2,0.4s0.2,0.2,0.2,0.3c0,0.7,0.5,1.1,1.1,1.3c0.6,0.2,1,0,1.6,0.3
				c0.5,0.2,1.1,1,1.4,1.1c-0.5,0.1-0.5-0.4-0.9-0.2c-0.2,0.1-0.1,0.8-0.3,1.1c-0.2,0.3-0.5,0.2-0.9,0.2c-0.3,0,0.2,0.7,0.3,0.8
				c0.1,0.1,0.3,0,0.3,0.2c0,0.1,0,0.3,0,0.4c0.1,0.2-0.1,0.3,0.1,0.4c0.2,0.1,0.4,0.2,0.4,0.4c0,0.9,0.1,1.5,0.9,1.8
				c-0.1,0.2-0.2,0.4-0.2,0.6c0,0.2-0.3,0.3-0.3,0.5c0,0.1-0.1,0.5,0,0.6c0,0,0.6,0.1,0.7,0.2c0.3,0.2,0.3,0.3,0.5,0.5
				c0,0.1,0.2,0.6,0.2,0.6c0,0.3,0,0.3,0.2,0.4c0.2,0.2,0.5,0.3,0.7,0.5c-0.2,0.1-0.2,0.3,0,0.5c-0.5-0.2-0.4-0.2-0.8,0.2
				c-0.3,0.2-0.6,0.7-0.9,0.3c-0.2-0.2,0-1-0.4-1c-0.2,0-0.2-0.2-0.4-0.2c-0.3,0.1-0.2,0.3-0.6,0.3c-0.4,0-0.7,0-1.1-0.2
				c-0.2-0.1-1-0.4-1.1-0.3c-0.2,0.1-1.1,0-1.1,0.1c-0.2,0.5-0.5,0.7-1,0.9c-0.1-0.4-0.5-1.1-0.8-0.4c-0.2,0.4-1.3,0.3-1.7,0.4
				c-0.2,0.1-0.4,0.2-0.7,0.2c-0.2,0-0.4-0.2-0.7-0.2c-0.6,0-1.1-0.1-1.6,0.2c-1.8,0.9-4.2,2.2-6.1,0.9c-0.2-0.1-1.1-0.5-1.2-0.4
				c-0.5,0.4-1,0.5-1.6,0.7c-0.5,0.2-0.8,0.3-1.4,0.3c-0.2,0-0.5,0-0.6-0.3c-0.2-0.3-0.4-0.3-0.7-0.3c-0.3,0-0.4-0.1-0.4,0.3
				c0,0.2,0,0.5,0,0.8c0.1,0.4,0.6,1,0.1,1c-0.3,0-0.4,0.1-0.4,0.4c0,0.6-0.1,0.2-0.3,0.6c-0.1,0.1-0.2-0.1-0.2,0.1c0,0,0,0.4,0,0.4
				c-0.2,0.1-0.6-0.2-0.7-0.3c-0.1,0-0.1,0-0.2,0c0.4-0.4-0.2-1-0.4-1.4c-0.2-0.4,0.5-0.9,0.8-1.2c0.3-0.3,0-1.1-0.4-1.2
				c-0.1,0-1.2,0.7-1.2,0.8c0,1-2.3-0.1-2.8-0.3c-0.8-0.4-1.7,1.6-2.3,1.9c-0.5,0.3-0.9,0.4-1.5,0.5c-0.4,0.1-1.3,0-1.6,0.2
				c-1.1,0.6-1.9-0.8-2.5-1.5c-0.4-0.4-0.8-0.3-1.3-0.5c-0.4-0.2-1.2-0.8-1.6-0.8c-0.6,0-1.1,0-1.7-0.1c-0.5-0.1-0.3,1-0.3,1.3
				c0,0.2-0.2,0.3-0.2,0.6c0,0.2,0,0.5-0.3,0.4c-0.1,0-0.4-0.3-0.5-0.3c-0.2,0.1-0.4,0.3-0.6,0.3c-0.5,0.1-0.9,0.4-1.3,0.1
				c-0.4-0.2-1.1-0.4-1.3-0.8c-0.1-0.3-0.3-1-0.6-1.1c-0.3-0.2-0.1,0-0.4,0c-0.2,0-0.5,0.1-0.6,0c-0.3-0.3-0.9-0.8-1.3-0.3
				c-0.3,0.4-1.1,0.6-0.6,0.2c-0.6,0-1.5,0.4-2,0c0.3-0.3,1-0.2,1.4-0.3c0.4-0.1,0.6-0.4,1-0.7c-0.8,0-1.6,0-2.4,0
				c-0.3,0-0.7,0.4-0.7-0.1c0-0.5,0.4-0.3,0.9-0.4c-0.1-0.2-0.2-0.4-0.3-0.5c-0.2-0.2-0.4-0.1-0.5-0.2c-0.3-0.3-0.2-0.9-0.6-1.1
				c-0.6-0.3,0.3-0.3,0.3-0.7c0-0.6-0.3-0.6-0.7-0.8c-0.4-0.2-0.6-0.4-0.9-0.6c-0.5-0.2-0.6,0.1-1-0.1c-0.1,0-0.4-0.3-0.4-0.4
				c0-0.2,0.3-0.3,0.3-0.3c0.1-0.4-0.4-0.7,0-1c0.3,0.4,0.5,0.2,0.5,0.8c0,0.4,0.4,0.7,0.3,0.1c0.3,0.4,1.1,0.1,1.4-0.2
				c-0.3,0.1-0.7,0.3-0.9-0.1c-0.1-0.2-0.5-0.7-0.4-0.8c0.2-0.2,0.8-0.4,0.6-0.8c0,0-0.9-0.1-0.6-0.4c0.3-0.3-0.2-0.5-0.4-0.7
				c-0.3-0.3,0.2-0.5,0.3-0.7c0.5-0.9-0.9-0.4-1.5-0.2c-1,0.3-0.8-0.6-0.8-1.3c0-0.2,0-0.3,0-0.5c0-0.2,0.3-0.2,0.4-0.3
				c0.3-0.4,0.6-0.7,0.9-1c0.3-0.3,0.6-0.3,1.1-0.3c0.1,0,0.9-0.4,0.9-0.1c0,0.1,0.5,0.4,0.7,0.4c0.3-0.1,0.8-0.1,1-0.3
				c-0.2-0.1-0.3-0.2-0.5-0.3c0.2,0,0.4-0.2,0.6-0.1c0.4,0.2,0,0.4,0.1,0.5c0.4,0.3,0.9,0,1.4,0c0.5,0,1.1,0,1.6,0
				c0.3,0,0.5-0.1,0.2-0.3c-0.2-0.2-0.5,0.1-0.7-0.2c0.8-0.6,2-0.7,3-0.7c0.2,0-0.2-0.2-0.2-0.2c-0.3,0-0.7-0.1-1-0.1
				c-0.2,0-1.2-0.5-1.2-0.7c0,0.1,0.2-0.7,0.2-0.7c0.2-0.2,0.4-0.2,0.7-0.2c0.6,0,1.3,0.2,1.8,0.3c0.4,0.1,0.9-0.2,1.4-0.1
				c0.6,0.1,1.2,0.3,1.9,0.3c0.7,0,0.9-0.1,1.2-0.8c0.1-0.4,1.2-0.7,1.6-0.9c0.4-0.2,0.6-0.6,1-0.8c0.6-0.3,1.1-0.2,1.7-0.4
				c0.4-0.1,0.8-0.5,1.3-0.5c0.8,0.1,1.5,0.1,2.3,0.2c0.5,0,1.1,0,1.6,0c0.6,0,0.8-0.4,1.5-0.2C91.5,100.8,91.7,101,91.6,101
				 M68.3,100.9c0.2,0.1,0.4,0.3,0.5,0.3c0.2,0,0.2-0.2,0.4-0.2c0.5,0,0.6-0.2,1.1,0c-0.5,0.5,0.6,1.5,1,1.8
				c0.7,0.5,1.6,0.6,2.3,0.9c0.2,0.1,0,0.8-0.1,0.9c-0.2,0.2-1-0.1-1.2-0.1c-0.4-0.1-0.8-0.3-1.2-0.2c-0.4,0.1-0.6,0.3-1.1,0.3
				c-0.4,0-0.9-0.2-1,0.3c-0.1,0.2-0.2,0.9-0.5,1c-0.9,0.3-1.5,0.6-2.1,1.3c-0.3,0.2-0.4,0.6-0.6,0.8c-0.4,0.4-0.1-0.4-0.1-0.5
				c0-1,1.2-0.7,1.4-1.4c-0.5,0-1.1,0-1.6,0c-0.9,0-0.4-0.3-0.2-0.8c0.1-0.2,0.4-0.4,0.5-0.6c0-0.2-0.2-0.4-0.2-0.6
				c0-0.6,0.7-0.6,0.7-1c0-0.7-0.4-0.8-0.9-1.1c-0.3-0.2,0.6-0.5,0.6-0.8c0-0.1,1-0.2,1.2-0.3C67.4,100.7,68.2,100.1,68.3,100.9"/>
			<path class="st5" d="M79.9,85.4c0.2,0.1,0.3,0.1,0.5,0.2c-0.7,0-1.8,0-2-0.7c0.2,0.1,0.4,0.3,0.6,0.3
				C79.2,85.3,79.5,85.3,79.9,85.4 M80,63.2c0.3,0,0.6,0,0.9,0c0.4,0,0.6,0.4,0.9,0.6c0.4,0.4,0.8,1.4,1.4,1.4
				c-0.2,0.3-0.6,0.1-0.9,0.3c0.3,0.3,0.5,1.2,0.9,1.2c-0.5,0.4,0.6,0.4,1,0.5c0.4,0.1,0.9,0,1.3,0c0.1,0,0.1,0.4,0.3,0.5
				c0.1,0.1,0.5-0.1,0.5,0.1c0,0.4,0.4,1,0.7,1.3c-0.4,0.3,0.2,0.7,0.4,0.9c0.5,0.5,0.7-0.1,1.2-0.1c0.4,0,0.6,0.4,0.9,0.5
				c0.4,0.2,0.7-0.1,1,0.3c0.4-0.5,1.2-0.5,1.7-0.7c0.5-0.1,0.4-0.3,0.8,0.1c0.3,0.3,0.4,0.6,0.7,0.9c0.2,0.2,0.6,0.4,0.9,0.6
				c0.1,0.1,0.3,0.2,0.4,0.2c0.2,0,0-0.3,0.1-0.3c0.4-0.2,0.4-0.2,0.8,0.1c0.3,0.2,0.6-0.1,0.9,0.2c0.3,0.3,0.6,0.3,0.9,0.3
				c0.2,0,0.2,0,0.3-0.1c0.3-0.2,0.2,0.2,0.3,0.3c0.2,0.1,0.6,0.1,0.7,0.2c0.3,0.2,0.7,0.5,1.1,0.5c0.2,0,0.6-0.1,0.8,0
				c0.3,0.2-0.1,0.2,0,0.3c0.1,0.2,0.3,0.3,0.3,0.5c0.2,0.7-0.4,1.2-1,1.2c0.3,0.3,0.8,0.7,1.2,0.7c-0.2,0.3-0.5,0-0.7,0.2
				c-0.3,0.2-0.1,0.5-0.3,0.7c0.1,0,0.6,0.1,0.7,0.2c0.2,0.2,0.1,0.5,0.3,0.7c-0.1,0.1-0.1,0.1-0.2,0.2c0.5,0.2,0.2,0.8,0.2,1.4
				c0,0.5-1.5,0.3-1.8,0.3c-0.2,0-0.8-0.1-0.9,0c-0.1,0.1-0.1,0.4-0.2,0.5c-0.1,0.1-0.3,0.2-0.4,0.2c-0.2,0.1-0.8,0.1-0.8,0.4
				c0,0.3,0.1,0.6-0.2,0.8c0.7,0.3-0.1,0.5,0.3,0.9c-0.3,0.4-0.8,0-1.2,0c-0.5,0-0.9,0.2-1.2,0.5c-0.3,0.3-0.8,0.1-1.1,0.4
				c-0.5,0.5-0.5,0.3-1.2,0.3c-0.4,0-0.6,0.5-0.9,0.5c-0.4,0-0.8-0.3-1.3,0.1c-0.4,0.4-1.4,1.9-2,1.8c0.5-0.3,1-0.6,0.5-1.2
				c-0.1,0.2-0.2,0.3-0.3,0.5c-0.2,0.3-0.2,0-0.4,0.2c-0.5,0.4-0.2,0.4-0.2,0.9c0,0.7,1.1,1.6,1.5,2.1c0.3,0.4,0.4,0.2,0.8,0.4
				c0.4,0.2,0.6-0.1,0.9-0.2c0.2,0,0.4,0,0.5,0c0.2-0.1,0.3-0.3,0.5-0.3c0.4-0.1,0.8,0.2,1.2,0.3c-0.2,0.2-0.3,1.2-0.4,1.2
				c-0.6,0.2-1.1,0.1-1.6,0c-0.4-0.1-0.9-0.4-1.1,0.1c-0.1,0.4-0.3,0.3-0.7,0.4c-0.3,0.1-0.1,0.4-0.7,0.4c-0.4,0-1,0-1.3,0.4
				c-0.3,0.4-0.7,1.1-1.2,1.1c-0.6,0-0.9-0.2-1.4-0.4c-0.3-0.2,0-1,0-1.4c0-0.4-0.2-1-0.7-1.1c-0.1,0-0.3,0.1-0.4,0.1
				c-0.2,0.1-0.1-0.1-0.2-0.1c-0.3-0.1-0.6-0.4-0.9-0.5c-0.2-0.1-1.3-0.1-1.2-0.2c0.5-0.6,0.8-0.9,1.5-1.3c0.2-0.1,0.4,0.1,0.6-0.1
				c0.2-0.1,0.4-0.3,0.6-0.4c0.3-0.2,0.4-0.2,0.2-0.6c-0.2-0.3-0.4-0.1-0.7-0.2c-0.2,0-0.5-0.3-0.7-0.3c-0.2,0-0.5,0.2-0.8,0.2
				c-0.6,0-1.1,0.2-1.7,0c-0.5-0.2-0.9-0.5-1.4-0.5c-0.9,0,0.1-0.4,0.3-0.5c-0.2-0.3-0.5-0.2-0.8-0.2c-0.3,0-0.4-0.2-0.8-0.3
				c0.6,0,1.1,0.1,1.7,0.2c0.7,0.1,0.9,0,1.4-0.5c-0.7,0.4-1.4,0.4-1.9-0.3c-0.3-0.5-0.3-1.4-1-1.7c0.5,0.4,0.7,0.9,0.8,1.5
				c0.2,0.8-0.7,0.6-1.1,0.4c0.1-0.1,0.1-0.3,0.2-0.3c-0.1,0.1-0.6,0.7-0.8,0.7c-0.5-0.2-0.8,0-1.3,0.1c-0.4,0.1,0,0.6-0.2,0.8
				c-0.2,0.2-0.4,0.7-0.6,0.9c-0.6,0.7-1,1.2-2,1.2c-0.6,0-0.3,0.5-0.1,0.8c0.2,0.3,0.6,0.8,0.2,1.1c-0.5-1.4-1.8-0.1-2.7-0.2
				c0.1,0.1,0.1,0.1,0.2,0.2c-0.6,0-1.5-0.2-1.9-0.7c0.3-0.4,0.7-0.3,0.9-0.5c0.1-0.2-0.2-0.3,0-0.6c0.1-0.2,0.4-0.2,0.6-0.4
				c0-0.1,0.1-0.4,0.2-0.5c0-0.1,0.3-0.1,0.3-0.2c0.1-0.1,0-0.3,0-0.3c0.1-0.3,0.1-0.2-0.1-0.6c-0.1-0.1-0.2-0.4-0.1-0.5
				c0.2-0.2,0.8-0.7,0.8-0.2c0,0.8,0.1,0.1,0.6,0.1c0.2,0,0.3,0.2,0.5,0.2c0.2,0,0.3-0.2,0.5-0.2c0.1,0,0.3,0.3,0.4,0.3
				c0.2,0.1,0.5,0,0.7-0.2c-0.2-0.1-0.6-0.3-0.7-0.5c-0.1-0.2,0.1-0.6-0.1-0.8c-0.3-0.3-1.1-0.4-1.1-0.9c0-0.2-0.3-0.3-0.3-0.5
				c0-0.3,0.3-0.3,0-0.6c-0.1-0.1-0.5-0.2-0.7-0.3c-0.3-0.2-0.5-0.3-0.7-0.5c0.5-0.4-0.2-1.9-0.4-1.6c-0.5,0.5-1-1.3-1.8-0.4
				c-0.1-0.2-0.2-0.1-0.2-0.3c-0.1,0.1-0.1,0.1-0.2,0.2c0.1-0.5-0.3-0.2-0.6-0.4c-0.4-0.2-0.6-0.4-1-0.6c-0.9-0.4-1.4,0.1-2.3,0.1
				c-0.5,0-0.6,0.1-1,0.3c-0.1,0-0.2,0.2-0.2,0.2c-0.1,0-0.7-0.1-0.8,0c0.1,0-0.2,0.5-0.2,0.5c-0.2,0.3-0.1,0.3-0.4,0.4
				c-0.5,0.1-1,0.1-1.6,0.3c-0.4,0.1-0.8,0.3-1.2,0.5c-0.5,0.3-0.6,0.2-1-0.2c-0.4-0.4-0.5-0.4-1-0.4c-0.2,0-0.3,0.2-0.5,0.2
				c-0.2,0-0.4-0.1-0.6-0.2c-0.4-0.1-0.7-0.2-1.1-0.2c-0.2,0-0.5,0-0.7,0c-0.2,0-0.4-0.3-0.6-0.3c-0.4,0-0.5,0.5-0.9,0.5
				c0,0-0.4-0.6-0.4-0.7c-0.3,0.5-0.5-0.2-0.7-0.3c-0.1-0.1-0.7,0-0.7-0.3c0-0.3-0.2-0.4-0.4-0.4c-0.6,0,0-0.8,0.1-0.9
				c0.2-0.2,0.2-0.5,0.3-0.8c0-0.1,0.3-0.7,0.3-0.7c0.2-0.1,0.7,0.4,0.9,0.2c0.1-0.1-0.5-0.5-0.5-0.7c0,0,0.2-0.2,0.2-0.3
				c0,0-0.2-0.4-0.3-0.4c-0.1-0.3-0.1-0.5,0-0.8c0.4-0.6,0.8-1.2,1.4-1.6c0.3-0.2,0.4-0.5,0.7-0.7c0.1-0.1,0.2-0.3,0.3-0.3
				c0.2-0.1,0.5,0.1,0.7,0c0.4-0.2,0.6-1.3-0.2-1.4c0.7-0.3,0-0.5-0.2-0.9c-0.2-0.6-0.5-0.8-1-1.1c0.1-0.1,0.1-0.1,0.2-0.2
				c-0.2-0.1-0.3-0.4-0.3-0.6c0-0.3,0.1-0.3,0.4-0.3c0.2,0,0.5,0.2,0.6,0.2c0.1,0,0.5-0.5,0.7-0.6c0.2-0.1,0.2-0.5,0.3-0.5
				c0.2,0,0.4-0.2,0.7-0.2c0.2,0,0.5,0,0.7,0c0.3,0,0.5-0.2,0.7-0.2c1.1,0,2.2,0.2,3.3,0.3c0.5,0.1,0.9,0.2,1.3,0.3
				c0.4,0.1,1.1-0.1,1.4,0.2c0.1,0.1,0.4,0.5,0.5,0.5c0.2,0,0.4-0.2,0.7-0.2c0.2,0,0.5,0.5,0.3,0.5c0.3,0,0.3-0.3,0.4-0.3
				c0.5,0,0.8-0.2,1.2,0c0.2,0.1,0.5,0,0.7,0c0.3,0,0.4,0.5,0.6,0.5c0.4,0,0-0.3,0.3-0.3c0.1,0,0.4-0.2,0.5-0.3
				c0.4-0.4,0.6,0.4,0.9,0.6c0.3,0.2,0.2,0,0.6,0c0.2,0,0.5,0,0.7,0c0.7-0.2,1-0.1,1.5,0.2c0.5,0.3,0.5,0.4,1.1,0.2
				c-0.6-0.8-0.6-1.5,0.2-2.2c0.1-0.1,0.3-0.3,0.4-0.4c0.1-0.1,0.4,0.1,0.6,0.1c0.2,0,0.5-0.2,0.8-0.2c0.2,0,0.5,0,0.7,0
				c0.4,0,0.7,0.3,1.1,0.2c0.2-0.1,0.3-0.2,0.4-0.4c0.1-0.5,0.1-0.3,0.4-0.5c0.2-0.2,0.9,0.3,1.3,0.3c0.2-0.1,0.4-0.3,0.6-0.3
				C79.5,63.2,79.8,63.2,80,63.2"/>
			<path class="st2" d="M23.3,101.2"/>
			<g>
				<path class="st3" d="M9.7,54.2c-0.4-0.1-1.1-0.2-0.5-0.7c-0.4,0-0.4,0.7-0.3,1C8.9,54.1,9.3,54.2,9.7,54.2z"/>
				<path class="st3" d="M17.2,55.7c-0.1-0.1-0.9-0.6-0.9-0.2C16.4,55.8,17,55.7,17.2,55.7z"/>
				<path class="st3" d="M9.7,54.7c-0.1-0.1-0.2,0-0.3-0.2C9,54.8,9.5,55,9.7,54.7z"/>
				<path class="st3" d="M25.4,75.7c-0.4-0.2-0.4-0.4-0.9-0.4c-0.1,0-0.2-0.5-0.5-0.5c-0.2,0-0.6-0.5-0.8-0.7
					c-0.2-0.2-0.6,0-0.8-0.3c-0.3-0.3-0.8-1.2-1.1-1.3c0.2-0.4,0.5-0.4,0.2-0.9c-0.2-0.3-0.5-0.4-0.8-0.6c-0.8-0.3-1.5-0.7-2.5-1.9
					c-0.5-0.9-0.9-1.8-0.7-2.3c-0.1-1.3,0.2-1.6,0.7-1.7c0.6-0.4,1.1-0.8,1-1.2c-0.2-0.7-0.8-1.5-0.4-2.2c0.2-0.4,0-0.9,0-1.4
					c0.1-0.9-0.1-1.7-0.6-2.3c-0.3-0.3-0.6-0.5-0.8-0.8c-0.2,0-0.5-0.1-0.7-0.1c-0.6-0.1-1.2,0.1-0.5-0.6c0.3-0.3,0.4-1-0.2-0.7
					c-0.7,0.4-0.8-0.1-1.5-0.3c-0.3-0.1-0.2,0.3-0.6-0.1c-0.2-0.2-0.5-0.1-0.8-0.1c0.7-0.5,0.2-1-0.4-1.2c-0.5-0.2-0.9,0-1.4,0
					c-0.4,0-0.7-0.3-1.1-0.3c-0.6,0-0.5,0.4-0.1,0.8c0.1,0.1,0.8,0.6,0.5,0.8c-0.2,0.1-1.1,0.3-0.8,0.6c0.1,0.1,0.6-0.1,0.7,0
					c0,0,0.1,0.5,0.1,0.5c0.1,0.4,0,0.9,0.5,0.9c0.9,0,1.3,0.9,2.1,1.2c-0.5,0.1-0.9-0.4-1.2-0.7c-0.4-0.4-0.8-0.2-1.3-0.1
					c-0.5,0.1-0.8-0.4-1.1,0.2c-0.1,0.2-0.1,0.6,0,1c-0.1-0.3-0.4-0.6-0.7-0.3c-0.2,0.2,0.2,0.9-0.5,0.3C8.6,59.1,8.6,59,8.7,59
					c-0.5-0.5-0.8-0.7-1.5-0.7c-0.6,0-1.2,0.1-1.4,0.6c-0.4,0.7,0.4,0.7,0.4,1.3c0,0.7-0.2,1.1-0.5,1.7c-0.2,0.3-0.2,0.3-0.7,0.3
					c-0.2,0-0.3,0.1-0.2,0.3c0.2,0.6,1,0,1,0.8c0,0.5-1.1,0.7-0.8,1c0.5,0.5-1,0.6-1.1,0.8c-0.4-0.4-0.5-0.2-0.9-0.2
					c-0.6,0,0,0.6,0.1,0.7c0.2,0.2,0.6,0.7,0.5,0.9c-0.2,0.3-0.5,0.7-0.1,0.9c0,0-0.9,0.4-0.9,0.3C2.4,68.1,3,68.1,3,68.2
					c0.3,0.3-0.1,0.5,0,0.9c0,0.1,0.6,0.5,0.7,0.5c-0.5,0.5,1,0.4-0.1,1.2C3,71.1,3.7,71.9,4,72.2c0.3,0.3,0.6-0.2,0.6,0.3
					c0,0.3-0.3,0.4-0.3,0.7c0,0.5,0,0.4,0.4,0.5c0.1,0.1,0.4,0.6,0.5,0.7C5.5,75,5.7,74.2,6,74.6c0.2,0.2,0,0.3,0.3,0.3
					c0.2,0,0.4,0,0.6,0c0.1,0,0.3-0.2,0.4-0.1c0.1,0.1,0.2,0.2,0.3,0.3c0.2,0.1,0.5,0.1,0.7,0.2c0.4,0.1,1.1-0.1,1,0.5
					c0,0.2-0.4,0.6-0.6,0.7c-0.3,0.2-0.2,0.2-0.3,0.5c-0.1,0.3-0.1,0.5-0.1,0.9C8.3,78,8,78.1,8,78.3c0,0.5-0.2,1-0.2,1.5
					c0,0.7,0.6,0.6,1.1,0.6c0.3,0,0.5,0,0.8-0.1c0.3-0.2,0.4,0.1,0.6,0.1c0.3,0,0.1-0.2,0.4-0.2c0.4,0-0.3-0.3-0.3-0.2
					c0-0.1-0.3,0.1-0.2-0.2c0-0.1,0.3-0.1,0.3-0.2c0.2-0.1,0.4,0,0.6,0.1c0.4,0.2,0.8,0.1,1.3,0.2c0.5,0.1,0.8,0.5,1.4,0.5
					c0.3,0,0.4-0.2,0.7-0.2c0.2,0,0.4,0.3,0.6,0.4c0.1,0.1,0,0.3,0.2,0.3c0,0,0.2,0,0.3,0c0.2,0.1-0.2,0.4,0.2,0.3
					c0.3,0,0.5-0.7,0.5-1c0.2,0.3,0.6,0.2,0.9,0.2c0.3,0,0.3,0.2,0.6,0.3c0.1,0.1,0,0.3,0.3,0.1c0.2-0.1,0.3-0.1,0.4-0.1
					c0.3-0.1,0.5-0.2,0.9-0.3c0.3-0.1,2-0.3,2-0.4c0-0.3,0.4-0.4,0.6-0.2c0.4,0.4,0.3,0,0.8,0.1c0.5,0.1,0.1,0.5,0.6,0.5
					c0.3,0,0.4,0.4,0.4-0.1c0-0.3,0.1-0.6-0.3-0.6c-0.1,0,0-0.5-0.1-0.7c-0.2-0.4-0.6-0.4-0.4-0.9c0.1-0.3,0.5-0.4,0.8-0.4
					c0.2,0,0.6-0.2,0.8-0.3c0.1-0.1,0.2-0.7,0.2-0.9c0.2,0.1,0.5,0.2,0.7,0.3c0.1-0.3,0.3-0.2,0.3-0.7C25.9,76,25.8,75.9,25.4,75.7z
					"/>
			</g>
			<g>
				<path class="st3" d="M23,56.4c0.4,0,0.4-0.6,1-0.2c-0.1-0.1-0.1-0.2-0.2-0.3c-0.1-0.1-0.2-0.2-0.3-0.3c0.1,0,0.2-0.1,0.3-0.2
					c-0.5-0.5-1.2-0.7-1.5,0c0.1,0,0.1,0,0.2,0C22.3,55.7,22.3,56.4,23,56.4z"/>
				<g>
					<path class="st3" d="M54.1,68.9c0.7-0.3,0-0.5-0.2-0.9c-0.2-0.6-0.5-0.8-1-1.1c0.1-0.1,0.1-0.1,0.2-0.2
						c-0.4-0.3-0.8-1.2-0.3-1.5c-0.3-0.3,0-0.7-0.3-0.9c-0.2-0.2-0.3-0.4-0.7-0.4c-0.2,0-0.6,0-0.6-0.3c0-0.4,0.3-0.9,0.7-1.1
						c0.5-0.3,1-0.1,1-0.8c0-0.6-0.3-0.9-0.4-1.3c-0.3-1-1-2-1.3-3c-0.2-0.5-0.5-0.8-1-1c-0.1-0.1-0.5,0.1-0.5-0.1
						c0-0.2-0.2-0.3-0.4-0.3c-0.2,0-0.3,0.2-0.6,0.2c-0.4,0-0.7,0-1.1,0c-0.6,0-1.1-0.1-1.7-0.2c-1-0.1-2.1,0.1-3.2-0.1
						c-0.6-0.1-1.2-0.1-1.8-0.1c-0.5,0-0.9,0.1-1.3,0.2c-0.7,0.1-1.1,0.1-1.7-0.1c-0.5-0.2-0.8-0.7-1.1-1.1c0.4,0,0.9,0.1,1.2,0.3
						c-0.2-0.3-0.6-0.4-0.9-0.5c-1.2-0.3-2.2-0.1-3.3,0.1c-0.4,0.1-0.8,0.5-1.1,0.6c-0.6,0.1-0.9,0.1-1.4,0.6
						c-0.8,0.8-1.8,0.7-2.9,1c-0.5,0.1-2.7,1.2-3,0.7c0,0.5,0.9,0.3,1.2,0.7c-0.1,0.1-0.1,0.1-0.2,0.2c0.1,0.2,0.1,0.2,0.2,0.3
						c-0.3-0.2-0.6-0.2-0.9-0.3c0,0.1,0,0.3,0,0.4c0,0,0,0,0,0c-0.2-0.3,0.1-0.2-0.2-0.4c-0.2-0.1-0.6-0.1-0.8-0.3
						c-0.2-0.2-0.4-1.2-0.8-1.2c-0.6,0-1.1-0.1-1.6-0.5c-0.5-0.4-0.8-0.4-1.5-0.7c-0.1,0-0.9,0.7-1.1,0.8c-0.4,0.3,0,0.3-0.6,0.3
						c-0.3,0-0.5,0-0.8,0.2c-0.2,0.1-0.4,0.5-0.7,0.5c0,0-0.1,0-0.1,0c0.2,0.3,0.4,0.5,0.8,0.8c0.6,0.6,0.7,1.4,0.6,2.3
						c0,0.5,0.2,1,0,1.4c-0.4,0.7,0.2,1.5,0.4,2.2c0.1,0.4-0.5,0.8-1,1.2c-0.4,0.1-0.8,0.4-0.7,1.7c-0.2,0.6,0.2,1.4,0.7,2.3
						c0.9,1.2,1.7,1.6,2.5,1.9c-0.1-0.1-0.5-0.5-0.4-0.6c0.2-0.2,0.6,0.2,0.7,0.3c0.2-0.5,0.4-0.5,0.8-0.7c0.3-0.1,0.6-0.3,0.9,0
						c0.3-0.3,0.7-0.5,1-0.7c0.2-0.1,0.2-0.2,0.4-0.2c0.3,0,0.2-0.3,0.3-0.3c0.4-0.2,0.8-0.1,1.3-0.3c0.3-0.2,0.8-0.3,1.1-0.4
						c-0.2-0.1-0.4-0.2-0.5-0.3c0.2-0.3,0.7-0.2,0.9,0.1c0.1,0.1,0.3,0.6,0.3,0.6c0.2,0.1,0.4,0,0.5-0.2c0,0,0,0,0,0
						c0.2,0,0.3,0,0.4-0.1c0.1-0.1,0-0.4,0.1-0.4c0.2-0.1,0.6,0.1,0.7,0.3c0.3,0.5,1,0.6,1.5,0.8c0.2,0.1,0.5,0.3,0.7,0.3
						c0.3,0.1,0.6-0.2,0.8-0.2c0.2,0.1,0.4,0.4,0.3,0.7c0-0.1-0.5,0.2-0.5,0.2c0.4,0.4,0.8,0.6,1.2,1.1c0.1,0.2,1.1-0.3,1.2-0.5
						c-0.2-0.2-0.4-0.4-0.5-0.7c0.7-0.1,1.2,0.7,1.8,0.7c0.2,0,0.6-0.3,0.8-0.2c0.2,0.2-0.2,0.5-0.3,0.5c0.4,0.4,0.8,1,1.4,0.3
						c0,0.2,0.6,0.4,0.8,0.5c0.2,0.1,0.4-0.1,0.6,0.1c0.1,0.1,0.1,0.3,0.3,0.4c0.2,0.2,0.5,0.3,0.7,0.5c0.1,0.1,0,0.3,0,0.5
						c0,0,0.5,0.3,0.3,0.2c0.3,0.1,0.3,0.2,0.6,0.2c0.3,0,0.4-0.7,0.8-0.7c0.1,0,0.5,0.6,0.6,0.7c0.1,0.1,0.3-0.1,0.3,0.1
						c0,0,0.1,0.4,0.2,0.4c0.1,0.1,0,0.2,0.3,0.2c0.2,0,0.4,0.1,0.6,0.2c-0.2-0.8,1-0.9,1.5-0.9c0.3,0,0.7,0.5,0.9,0.3
						c0.3-0.3,0.6-0.4,1-0.4c0.3,0,0.8,0.1,1.1,0.2c0.5,0.1,0.6,0.3,0.9,0.6c0.3,0.3,0.9,0.4,1.3,0.5c0.2,0.1,0.7,0.2,0.8,0.2
						c0.8,0-0.1-0.2-0.2-0.5c-0.1-0.2,0.2-0.3,0.2-0.4c0-0.1-0.2-0.4-0.3-0.5c-0.2-0.7,0.5-1.5,1-2c0.3-0.3,0.7-0.5,0.9-0.8
						c0.2-0.4,0.6-0.6,1-0.6C54.7,70.2,54.9,68.9,54.1,68.9z"/>
				</g>
				<path class="st3" d="M24.5,57.1c0,0.2,0.3,0.1,0.1,0.3c-0.1,0-0.1,0.1,0,0.2c0.2,0.4,0.6,0.3,1,0.3c-0.1-0.1-0.1-0.1-0.2-0.2
					c0-0.3-0.7-0.7-1-0.9C24.3,57,24.5,57.1,24.5,57.1z"/>
			</g>
			<polygon class="st4" points="34.8,76.1 35.2,77.2 39.3,75.7 40,73.8 39.6,73 36.7,73.3 			"/>
			<path class="st3" d="M45.3,99c0.1,0.5,0.7-0.3,0.9-0.1c0.2,0.2,0.3,0.5,0.4,0.7c0.1,0.1,0.5,0.1,0.6,0.2c0.4,0.2,0.6,0.7,0.6,1.2
				c0,0.2,0,0.4-0.1,0.7c-0.1,0.4,0.1,0.4,0.1,0.7c0,0.2-0.2,0.2-0.2,0.4c0,0.1,0.1,0.6,0.2,0.7c0.1,0.3,0.3,0.9,0.6,1.1
				c0,0,0.3,0.5,0.3,0.5c0.2,0.1,0.5-0.1,0.7,0c0.1,0.1-0.1,0.5,0.1,0.6c0.2,0.2,0.4,0.3,0.2,0.5c-0.1,0.1,0,0.4-0.2,0.4
				c-0.4,0-0.3,0.1-0.4,0.3c-0.2,0.3-0.2,0.9-0.4,1.1c-0.3,0.3-0.6,0.1-0.8,0.4c-0.1,0.1-0.2-0.1-0.2,0.1c0,0.1,0.2,0.2,0.2,0.3
				c0,0.1,0.2,0.1,0.2,0.3c0,0.2-0.2,0-0.2,0.1c0,0-0.2,0-0.2,0.3c0,0.3,0,0.3-0.3,0.3c-0.6,0-0.6-0.4-0.8-0.9
				c-0.4-0.9-1.5-1.1-2-1.9c0.7,0.2,0-0.8,0-1.1c0-0.7,0.3-1.3,0.2-2c0-0.3-0.3-0.4-0.1-0.8c0.1-0.3,0.3-0.5,0.3-0.9
				c0-0.3,0-0.8-0.4-0.8c-0.4,0-0.6-0.1-0.3-0.5c-0.4,0,0-0.4-0.3-0.6c-0.1-0.1,0.3-0.7,0.4-0.9c0.1-0.1,0.5-0.8,0.5-0.9
				C45.3,98.4,44.9,99,45.3,99"/>
		</g>
	</g>
	<ellipse transform="matrix(0.7071 -0.7071 0.7071 0.7071 -28.1363 74.1035)" class="st6" cx="75.4" cy="71" rx="70.2" ry="70.2"/>
</g>
</svg>
