<!-- Generator: Adobe Illustrator 24.2.3, SVG Export Plug-In  -->
<svg version="1.1" xmlns="http://www.w3.org/2000/svg" xmlns:xlink="http://www.w3.org/1999/xlink" x="0px" y="0px" width="32.8px"
	 height="32.8px" viewBox="0 0 32.8 32.8" style="overflow:visible;enable-background:new 0 0 32.8 32.8;" xml:space="preserve">
<style type="text/css">
	.st0{fill:none;stroke:#2E45B8;stroke-miterlimit:10;}
	.st1{fill:#2E45B8;}
</style>
<defs>
</defs>
<g>
	<g>
		<path class="st0" d="M16.4,32.3c8.8,0,15.9-7.1,15.9-15.9c0-8.8-7.1-15.9-15.9-15.9C7.6,0.5,0.5,7.6,0.5,16.4
			C0.5,25.2,7.6,32.3,16.4,32.3"/>
		<g>
			<path class="st1" d="M22.7,20.2c-0.8-0.2-1.6-0.3-2.4-0.3c-1.2,0-2.9,0.5-3.8,1v-8c0.9-0.6,2.6-1,3.8-1c0.8,0,1.7,0.1,2.4,0.3
				V20.2z M22.7,10.9c-0.8-0.2-1.6-0.3-2.4-0.3c-1.4,0-2.8,0.3-3.8,1c-1-0.8-2.5-1-3.8-1c-1.4,0-2.8,0.3-3.8,1v10.2
				c0,0.2,0.2,0.3,0.3,0.3c0.1,0,0.1,0,0.2,0c0.9-0.5,2.3-0.8,3.3-0.8c1.4,0,2.8,0.3,3.8,1c0.9-0.6,2.6-1,3.8-1
				c1.1,0,2.3,0.2,3.3,0.7c0.1,0,0.1,0,0.2,0c0.2,0,0.3-0.2,0.3-0.3V11.6C23.6,11.2,23.2,11,22.7,10.9"/>
		</g>
	</g>
</g>
</svg>
