<!-- Generator: Adobe Illustrator 24.2.3, SVG Export Plug-In  -->
<svg version="1.1" xmlns="http://www.w3.org/2000/svg" xmlns:xlink="http://www.w3.org/1999/xlink" x="0px" y="0px" width="22.1px"
	 height="9.5px" viewBox="0 0 22.1 9.5" style="overflow:visible;enable-background:new 0 0 22.1 9.5;" xml:space="preserve">
<style type="text/css">
	.st0{fill:#141F52;stroke:#FFFFFF;stroke-width:0.3996;stroke-linejoin:round;stroke-miterlimit:10;}
</style>
<defs>
</defs>
<path class="st0" d="M1.2,0.3c0.8,0,1.2,0.1,2,0.4c0.7,0.2,1.4,0.2,1.9,0.8c0.3,0.3,1.5,0.1,2,0.1c0.7,0,1.4,0.1,2.1,0.3
	c0.4,0.1,0.3,0.1,0.6,0.4c0.3,0.3,0.6,0.4,1,0.5C11,2.8,11.3,2.9,11.6,3c0.1,0.1,0.4,0.1,0.5,0.2c0.1,0.1-0.1,0.3,0,0.3
	c0.2,0.3,0.1,0.4,0.7,0.3c0,0,0-0.2,0.3-0.2c0.2,0,0.3-0.1,0.4-0.2c0.9-0.3,1-0.5,1.7,0.2c0.2-0.6,0.2-0.6,0.8-0.4
	c0.3,0.1,0.6,0.4,0.9,0.7C17,4.2,17.8,4,18,4c0.2,0,0,0.9,0.1,1c0.2,0.5,1.2,0.9,1.8,0.9c0.2,0,0.9,0.3,0.7,0.6
	c-0.2,0.4-0.5,0.4-0.5,0.8c0,0.2,0.3,0.1,0.3,0.2c0.1,0.2,0.2,0.4,0.3,0.5c0.4,0.3,0.9,0.1,1,0.7C22.1,9.9,20.7,9,20.2,9
	c-0.9,0-1.2-0.5-2-0.8c-0.5-0.2-0.6-0.3-1,0.1c-0.4,0.4-0.5,0.4-1.1,0.4c0.1,0.1,0.1,0.1,0.2,0.2c-0.2,0-0.4,0-0.6,0
	c-0.2,0-0.3,0.2-0.4,0.2c-0.3,0-0.7-0.2-1-0.2c-0.1,0-0.2,0.2-0.4,0.2c-0.3,0-0.4,0.1-0.6,0.2c-0.3,0-0.8-0.1-1,0.2
	c-0.1-0.5-1-0.1-1-0.8c0-0.2-1.5-1.1-1.6-1.1C9.2,7.4,9.3,8,9.1,8C8.8,8,8.6,7.8,8.2,7.8c-0.1,0-0.3,0-0.4,0C7.5,7.8,7.4,7.9,7.2,8
	c-0.4,0-0.7-0.2-1-0.2c0.7-0.9,0.7-1.5,0-2.3C5.7,4.8,5.7,3.7,5,3.2C4.6,2.9,4.2,2.9,3.8,2.6C3.5,2.3,3.2,2,2.8,1.9
	C1.8,1.8,1,1.2,0.2,0.6C0.6,0.2,0.6,0.1,1.2,0.3"/>
</svg>
