<!-- Generator: Adobe Illustrator 24.2.3, SVG Export Plug-In  -->
<svg version="1.1" xmlns="http://www.w3.org/2000/svg" xmlns:xlink="http://www.w3.org/1999/xlink" x="0px" y="0px" width="34.1px"
	 height="24.2px" viewBox="0 0 34.1 24.2" style="overflow:visible;enable-background:new 0 0 34.1 24.2;" xml:space="preserve">
<style type="text/css">
	.st0{fill:#141F52;stroke:#FFFFFF;stroke-width:0.3996;stroke-linejoin:round;stroke-miterlimit:10;}
</style>
<defs>
</defs>
<path class="st0" d="M33.2,7.5c-0.3-0.9-0.9-1.9-1.3-2.8C31.4,3.8,31,2.9,30.5,2c-0.3-0.4-0.4-1-0.6-1.4c-0.1-0.3-0.1-0.5-0.5-0.4
	c-0.3,0.1-0.6,0.1-0.9,0.1c-1,0-2,0.4-2.9,0.5c-1.1,0.2-2.2,0.5-3.3,0.5c-1.3,0-2.1,0.4-3.2,1.1c-0.4,0.3-1.2,0.5-1.5,0.8
	c-0.2,0.2-0.6,0.9-0.8,1.2c-0.3,0.5-0.6,1-0.9,1.5c-0.3,0.4-0.1,1.1-0.6,1.4c-0.2,0.1-0.7,0.6-1.1,0.6c-0.1,0-0.2,0-0.3-0.1
	c-0.2-0.3-0.6-1.1-0.9-1.1c-1.1,0-2.1,0.2-3.1,0C9.3,6.5,8.8,6.4,8.2,6.1C7.8,5.9,7.4,6,6.9,6C6.3,6,5.8,6.1,5.2,6.1
	c-0.3,0-1.1,0.1-1.3,0.3c-0.2-0.3-0.4,0-0.7-0.2C3.1,6.2,3,5.8,2.8,5.8c-0.3,0-0.5-0.3-0.7-0.1C1.9,5.9,1.8,6.1,1.6,6.2
	C1.4,6.4,1.8,6.6,1.7,6.8c0,0-0.3,0.2-0.3,0.4c0,0.2-0.1,0.5,0,0.7c0.1,0.2,0.3,0.4,0.3,0.6C1.6,8.9,1.4,8.7,1.4,9.1
	c0,0.2-0.3,0.3-0.4,0.5c-0.6,0.6-0.4,0.7-0.3,1.5c0.1,0.5-0.4,1.1-0.3,1.6c0.1,0.5,0.4,1,0.3,1.5c-0.2-0.3-0.3-0.2-0.5,0.1
	c-0.1,0.2,0.4,0.3,0.6,0.4c0.3,0.1,0.3,0.8,0.4,1c0.1,0.4,0.3,0.8,0.3,1.2c0.1,0.4,0.3,0.9,0.3,1.3c0,0.7,0.3,0.8,0.5,1.4
	c0.2,0.5,0.1,0.9,0.1,1.5c0,0.7,0.5,1.3,0.7,1.9c0.1,0.2,0.2,0.5,0.2,0.8c0.6-0.2,0.9,0,1.4,0.3c0.3,0.1,0.9-0.1,1.2-0.1
	c0.5,0,0.9-0.6,1.4-0.4c0.3,0.1,1.1-0.2,1.2-0.4c0.2-0.5,0.7-0.4,1-0.8c0.2-0.3,0.6-0.9,1-1c1-0.2,1.8-0.3,2.8-0.3
	c0.9,0,2.4-0.6,3.1-1.3c0.3-0.3,0.4-0.3,0.8-0.5c0.3-0.1,0.3-0.4,0.5-0.5c0.4-0.2,1,0.2,1.4,0.1c0.6-0.2,0.8,0,1.3-0.5
	c0.4-0.4,0.5-0.9,0.9-1.2c0.6-0.6,2.1-1.4,2.9-1.4c0.7,0,1-0.3,1.6-0.6c0.5-0.3,1.1-0.3,1.7-0.4c1-0.2,2-0.8,2.8-1.3
	c0.5-0.3,1-0.4,1-1.1c0-0.2-0.2-0.5-0.2-0.7c0.1-0.3,0.1-0.5,0.2-0.8c0.3-1.1,1.6-1.4,2.6-1.7C33.7,8.5,33.5,8,33.2,7.5z"/>
</svg>
