<!-- Generator: Adobe Illustrator 24.2.3, SVG Export Plug-In  -->
<svg version="1.1" xmlns="http://www.w3.org/2000/svg" xmlns:xlink="http://www.w3.org/1999/xlink" x="0px" y="0px" width="20px"
	 height="19px" viewBox="0 0 20 19" style="overflow:visible;enable-background:new 0 0 20 19;" xml:space="preserve">
<style type="text/css">
	.st0{fill:#141F52;stroke:#FFFFFF;stroke-width:0.3996;stroke-linejoin:round;stroke-miterlimit:10;}
</style>
<defs>
</defs>
<path class="st0" d="M19.8,0.9c0,0.5-0.5,0.7-0.7,1.1c-0.3,0.5-0.7,0.8-1.2,1c-0.7,0.2-0.9,0.3-0.9,1c-0.1,0.6,0.2,0.9,0.4,1.4
	c0.1,0.2,0.3,0.5,0.3,0.7c0,0.3-0.2,0.4-0.2,0.7c0,0.7-0.1,1.1,0,1.7c0.2,0.9,0.1,2.1-0.8,2.6c-2.1,1-4,2.5-6,3.7
	c-1,0.7-1.9,1.3-2.9,2c-0.4,0.3-0.8,0.6-1.2,0.9c-0.4,0.3-1.1,0.9-1.5,1c-0.5,0.1-1.2-0.2-1.6-0.5C3,18.1,2.8,18,2.5,17.9
	c-0.2-0.1-0.3-0.5-0.5-0.6c-0.2-0.2-0.4,0.1-0.4-0.3c0-0.3,0.5-0.5,0.3-0.8c-0.3-0.3,0-0.9-0.4-1.3c0.1-0.1,0.3-0.6,0.3-0.8
	c0-0.2,0.2,0,0.2-0.2c0-0.1-0.2-0.3-0.3-0.4C1.7,13.4,2.1,13,2.4,13c0,0,0.5,0.4,0.5,0.1c0-0.2-0.6-0.2-0.3-0.5
	c0.2-0.2,0.9-0.6,0.7-1c-0.2-0.6-0.3-1-1-1c0.1-0.2,0.2-0.4,0.3-0.5c-0.3-0.4-0.7,0-1.1,0c-0.4,0-0.8-0.9-0.8-1.3
	c0-0.4,0.1-1.1,0-1.4C0.8,7.2,0.4,6.8,0.3,6.7c-0.2-0.3-0.1-0.5,0-0.9c0.2-0.9,0.4-0.1,0.9-0.2c0.4,0,0-0.3,0.2-0.5
	c0.2-0.2,0.5,0,0.5-0.4c0-0.8,0.6-0.4,0.7-0.8c0-0.2-0.3-0.5-0.3-0.7c-0.1-0.2-0.1-0.7,0-0.9c0.1-0.3-0.1-0.3,0.3-0.3
	c0.2,0,0.6-0.1,0.8,0c0.2,0.1,0.2,0.4,0.5,0.5c0.2,0.1,0.7,0,0.9,0C5.1,2.5,5.5,2.2,6,2.1c0.3-0.1,0.4,0,0.7-0.3
	C7,1.5,7,1.6,7.5,1.7c0.4,0.1,0.8,0.3,1.2,0.5c0.5,0.2,1,0.2,1.6,0.2c1.2,0,2.2-0.4,3.3-1c0.5-0.3,0.9-0.6,1.5-0.6
	c0.3,0,0.7,0,0.9,0c0.3,0,0.5,0.2,0.8,0.1c0.6-0.2,1.3-0.2,1.9-0.4C19,0.5,19,0.2,19.3,0.2C19.6,0.2,19.7,0.6,19.8,0.9"/>
</svg>
