<!-- Generator: Adobe Illustrator 24.2.3, SVG Export Plug-In  -->
<svg version="1.1" xmlns="http://www.w3.org/2000/svg" xmlns:xlink="http://www.w3.org/1999/xlink" x="0px" y="0px" width="233px"
	 height="85.4px" viewBox="0 0 233 85.4" style="overflow:visible;enable-background:new 0 0 233 85.4;" xml:space="preserve">
<style type="text/css">
	.st0{fill:#F5F4EF;}
	.st1{fill:#EBE9E0;}
	.st2{clip-path:url(#SVGID_7_);fill:#141F52;}
	.st3{clip-path:url(#SVGID_8_);fill:#1F2E7A;}
	.st4{fill:#141F52;}
	.st5{fill:#FFFFFF;}
	.st6{fill:#B3B3B3;}
	.st7{fill:#D9D9D9;}
	.st8{clip-path:url(#SVGID_10_);}
	.st9{fill:#C91D42;}
	.st10{fill:#1F2E7A;}
	.st11{clip-path:url(#SVGID_12_);}
	.st12{fill:none;stroke:#B3B3B3;stroke-width:1.3091;stroke-miterlimit:10;}
	.st13{fill:#595959;}
	.st14{fill:#FAD051;}
	.st15{fill:#FCDD83;}
	.st16{fill:#F9C21F;}
	.st17{fill:#FA9851;}
	.st18{fill:#FCB583;}
	.st19{clip-path:url(#SVGID_14_);fill:#141F52;}
	.st20{clip-path:url(#SVGID_16_);fill:#1F2E7A;}
	.st21{clip-path:url(#SVGID_20_);}
	.st22{clip-path:url(#SVGID_24_);}
</style>
<defs>
</defs>
<g>
	<path class="st0" d="M206.2,51.2c0-18.7-46-33.9-102.8-33.9S8.9,34.3,0.7,51.2c-7.3,14.9,46,33.9,102.8,33.9
		C217.1,85.1,206.2,69.9,206.2,51.2z"/>
	<path class="st0" d="M216.1,77c0.9-6.1-10.3-13-25.2-15.2c-14.8-2.3-27.6,0.9-28.6,7s10.9,10.6,25.2,15.2
		C199.4,87.8,215.2,83.1,216.1,77z"/>
	<path class="st0" d="M233,66.8c0.6-6-10.3-12-24.5-13.5c-14.1-1.5-26.1,2.2-26.7,8.2c-0.6,6,11.4,9.8,25.4,12.5
		C221.5,76.8,232.4,72.8,233,66.8z"/>
	<path class="st0" d="M230.8,61.4c-0.6-8.2-11.4-8.7-25.5-10.2s-25-1.2-25.6,4.6c-0.6,5.8,10.3,11.8,24.4,13.3
		S231.3,67.2,230.8,61.4z"/>
	<ellipse class="st0" cx="103.4" cy="42.6" rx="84.6" ry="17.9"/>
	<path class="st1" d="M185.3,49.1c-7-15-72.9-14.4-81.4-14.2c0,0-0.9,0-0.9,0c-8.5-0.1-74.4-0.8-81.4,14.2V25h163.5L185.3,49.1z"/>
	<g>
		<g>
			<defs>
				<path id="SVGID_6_" d="M103.9,2.9C103.9,2.9,103.9,2.9,103.9,2.9c-0.2,0-0.3,0-0.5,0c-0.2,0-0.3,0-0.5,0c0,0,0,0,0,0
					C10.2,3.1,5.1,20.6,5.1,20.6l4,16.6c0,0,5.4,3.2,12.5,5.4c7-15,72.9-14.4,81.4-14.2c0,0,0,0,0,0s0.2,0,0.5,0c0.3,0,0.5,0,0.5,0
					s0,0,0,0c8.5-0.1,74.4-0.8,81.4,14.2c7.1-2.2,12.5-5.4,12.5-5.4l4-16.6C201.8,20.6,196.7,3.1,103.9,2.9z"/>
			</defs>
			<use xlink:href="#SVGID_6_"  style="overflow:visible;fill:#0D0D0D;"/>
			<clipPath id="SVGID_7_">
				<use xlink:href="#SVGID_6_"  style="overflow:visible;"/>
			</clipPath>
			<path class="st2" d="M103.9,4.5C103.9,4.5,103.9,4.5,103.9,4.5c-0.2,0-0.3,0-0.5,0c-0.2,0-0.3,0-0.5,0c0,0,0,0,0,0
				C10.2,4.6,5.1,22.1,5.1,22.1l4,16.6c0,0,5.4,3.2,12.5,5.4c7-15,72.9-14.4,81.4-14.2c0,0,0.9,0,0.9,0c8.5-0.1,74.4-0.8,81.4,14.2
				c7.1-2.2,12.5-5.4,12.5-5.4l4-16.6C201.8,22.1,196.7,4.6,103.9,4.5z"/>
		</g>
		<g>
			<defs>
				<path id="SVGID_5_" d="M201.8,20.6c-4.2,22.3-91.3,23.7-98.3,23.8c-7.1-0.1-94.2-1.5-98.3-23.8c0,0-0.8,8.5-0.7,15.4
					s0.1,16.3,2.1,17.9c2,1.7,31.6,22.6,96.5,22.8c0,0,0,0,0,0c0.2,0,0.3,0,0.5,0c0.2,0,0.3,0,0.5,0c0,0,0,0,0,0
					c64.9-0.2,94.5-21.2,96.5-22.8c2-1.7,2-11.1,2.1-17.9C202.6,29.1,201.8,20.6,201.8,20.6z"/>
			</defs>
			<use xlink:href="#SVGID_5_"  style="overflow:visible;fill:#141F52;"/>
			<clipPath id="SVGID_8_">
				<use xlink:href="#SVGID_5_"  style="overflow:visible;"/>
			</clipPath>
			<path class="st3" d="M201.8,22.1c-4.2,22.3-91.3,23.7-98.3,23.8c-7.1-0.1-94.2-1.5-98.3-23.8c0,0-0.8,8.5-0.7,15.4
				s0.1,16.3,2.1,17.9c2,1.7,31.6,22.6,96.5,22.8c0,0,0,0,0,0c0.2,0,0.3,0,0.5,0c0.2,0,0.3,0,0.5,0c0,0,0,0,0,0
				c64.9-0.2,94.5-21.2,96.5-22.8c2-1.7,2-11.1,2.1-17.9C202.6,30.7,201.8,22.1,201.8,22.1z"/>
		</g>
		<circle class="st4" cx="26" cy="23.8" r="3.2"/>
		<circle class="st5" cx="52.5" cy="18.4" r="3.2"/>
		<circle class="st5" cx="77.9" cy="15.7" r="3.2"/>
		<circle class="st4" cx="180.9" cy="23.8" r="3.2"/>
		<circle class="st4" cx="154.3" cy="18.4" r="3.2"/>
		<circle class="st4" cx="129" cy="15.7" r="3.2"/>
		<circle class="st5" cx="103.4" cy="15" r="3.2"/>
		<g>
			<g>
				<g>
					<defs>
						<path id="SVGID_4_" d="M75.9,73.9c0-8.9,0-17.9,0-26.8c0-0.3,0.3-0.6,0.6-0.6c17.4,0.9,34.9,0.9,52.3,0c0.3,0,0.6,0.2,0.6,0.6
							c0,8.9,0,17.9,0,26.8c0,0.3-0.3,0.6-0.6,0.6c-17.4,0.9-34.9,0.9-52.3,0C76.1,74.5,75.9,74.2,75.9,73.9z"/>
					</defs>
					<clipPath id="SVGID_9_">
						<use xlink:href="#SVGID_4_"  style="overflow:visible;"/>
					</clipPath>
				</g>
			</g>
			<g>
				<path class="st6" d="M128.9,77.8c-17.5,0.9-35,0.9-52.5,0c-2.6-0.1-4.7-2.4-4.7-5c0-9,0-18,0-27c0-2.6,2.1-4.6,4.7-4.5
					c17.5,0.9,35,0.9,52.5,0c2.6-0.1,4.7,1.8,4.7,4.5c0,9,0,18,0,27C133.6,75.4,131.5,77.6,128.9,77.8z"/>
				<path class="st7" d="M128.9,78.7c-17.5,0.9-35,0.9-52.5,0c-2.6-0.1-4.7-2.4-4.7-5c0-9,0-18,0-27c0-2.6,2.1-4.6,4.7-4.5
					c17.5,0.9,35,0.9,52.5,0c2.6-0.1,4.7,1.8,4.7,4.5c0,9,0,18,0,27C133.6,76.3,131.5,78.6,128.9,78.7z"/>
				<g>
					<defs>
						<path id="SVGID_3_" d="M75.9,73.9c0-8.9,0-17.9,0-26.8c0-0.3,0.3-0.6,0.6-0.6c17.4,0.9,34.9,0.9,52.3,0c0.3,0,0.6,0.2,0.6,0.6
							c0,8.9,0,17.9,0,26.8c0,0.3-0.3,0.6-0.6,0.6c-17.4,0.9-34.9,0.9-52.3,0C76.1,74.5,75.9,74.2,75.9,73.9z"/>
					</defs>
					<clipPath id="SVGID_10_">
						<use xlink:href="#SVGID_3_"  style="overflow:visible;"/>
					</clipPath>
					<g class="st8">
						<path id="_x35_9_1_" class="st5" d="M75.7,46.2c17.9,1,35.8,1,53.6,0c0,9.4,0,18.8,0,28.2c-17.9,1-35.8,1-53.6,0
							C75.7,65.1,75.7,55.7,75.7,46.2z"/>
						<path id="_x35_8_1_" class="st9" d="M75.7,46.2c17.9,1,35.8,1,53.6,0c0,0.7,0,1.4,0,2.2c-17.9,1-35.8,1-53.6,0
							C75.7,47.7,75.7,47,75.7,46.2z"/>
						<path id="_x35_7_1_" class="st9" d="M75.7,50.6c17.9,1,35.8,1,53.6,0c0,0.7,0,1.4,0,2.2c-17.9,1-35.8,1-53.6,0
							C75.7,52,75.7,51.3,75.7,50.6z"/>
						<path id="_x35_6_1_" class="st9" d="M75.7,54.9c17.9,1,35.8,1,53.6,0c0,0.7,0,1.4,0,2.2c-17.9,1-35.8,1-53.6,0
							C75.7,56.4,75.7,55.7,75.7,54.9z"/>
						<path id="_x35_5_1_" class="st9" d="M75.7,59.3c17.9,1,35.8,1,53.6,0c0,0.7,0,1.4,0,2.2c-17.9,1-35.8,1-53.6,0
							C75.7,60.7,75.7,60,75.7,59.3z"/>
						<path id="_x35_4_1_" class="st9" d="M75.7,63.6c17.9,1,35.8,1,53.6,0c0,0.7,0,1.4,0,2.2c-17.9,1-35.8,1-53.6,0
							C75.7,65.1,75.7,64.3,75.7,63.6z"/>
						<path id="_x35_3_1_" class="st9" d="M75.7,68c17.9,1,35.8,1,53.6,0c0,0.7,0,1.4,0,2.2c-17.9,1-35.8,1-53.6,0
							C75.7,69.4,75.7,68.7,75.7,68z"/>
						<path id="_x35_2_1_" class="st9" d="M75.7,72.3c17.9,1,35.8,1,53.6,0c0,0.7,0,1.4,0,2.2c-17.9,1-35.8,1-53.6,0
							C75.7,73.8,75.7,73,75.7,72.3z"/>
						<path id="_x35_1_1_" class="st10" d="M75.7,46.2c7.1,0.4,14.3,0.6,21.5,0.7c0,5.1,0,10.1,0,15.2c-7.2-0.1-14.3-0.3-21.5-0.7
							C75.7,56.4,75.7,51.3,75.7,46.2z"/>
						<path id="_x35_0_1_" class="st5" d="M76.7,47.5c0.2,0.1,0.3,0.3,0.5,0.4c-0.1,0.2-0.1,0.4-0.2,0.6c0.2-0.1,0.3-0.2,0.5-0.3
							c0.2,0.1,0.3,0.3,0.5,0.4c-0.1-0.2-0.1-0.4-0.2-0.6c0.2-0.1,0.3-0.2,0.5-0.3c-0.2,0-0.4,0-0.6,0c-0.1-0.2-0.1-0.4-0.2-0.6
							c-0.1,0.2-0.1,0.4-0.2,0.6C77.2,47.6,76.9,47.5,76.7,47.5z"/>
						<path id="_x34_9_1_" class="st5" d="M80.3,47.7c0.2,0.1,0.3,0.3,0.5,0.4c-0.1,0.2-0.1,0.4-0.2,0.6c0.2-0.1,0.3-0.2,0.5-0.3
							c0.2,0.1,0.3,0.3,0.5,0.4c-0.1-0.2-0.1-0.4-0.2-0.6c0.2-0.1,0.3-0.2,0.5-0.3c-0.2,0-0.4,0-0.6,0c-0.1-0.2-0.1-0.4-0.2-0.6
							c-0.1,0.2-0.1,0.4-0.2,0.6C80.7,47.7,80.5,47.7,80.3,47.7z"/>
						<path id="_x34_8_1_" class="st5" d="M83.8,47.9c0.2,0.1,0.3,0.3,0.5,0.4c-0.1,0.2-0.1,0.4-0.2,0.6c0.2-0.1,0.3-0.2,0.5-0.4
							c0.2,0.1,0.3,0.3,0.5,0.4c-0.1-0.2-0.1-0.4-0.2-0.6c0.2-0.1,0.3-0.2,0.5-0.4c-0.2,0-0.4,0-0.6,0c-0.1-0.2-0.1-0.4-0.2-0.6
							c-0.1,0.2-0.1,0.4-0.2,0.6C84.3,47.9,84.1,47.9,83.8,47.9z"/>
						<path id="_x34_7_1_" class="st5" d="M87.4,48c0.2,0.1,0.3,0.3,0.5,0.4c-0.1,0.2-0.1,0.4-0.2,0.6c0.2-0.1,0.3-0.2,0.5-0.4
							c0.2,0.1,0.3,0.3,0.5,0.4c-0.1-0.2-0.1-0.4-0.2-0.6c0.2-0.1,0.3-0.2,0.5-0.4c-0.2,0-0.4,0-0.6,0c-0.1-0.2-0.1-0.4-0.2-0.6
							c-0.1,0.2-0.1,0.4-0.2,0.6C87.8,48,87.6,48,87.4,48z"/>
						<path id="_x34_6_1_" class="st5" d="M91,48.1c0.2,0.1,0.3,0.3,0.5,0.4c-0.1,0.2-0.1,0.4-0.2,0.6c0.2-0.1,0.3-0.2,0.5-0.4
							c0.2,0.1,0.3,0.3,0.5,0.4c-0.1-0.2-0.1-0.4-0.2-0.6c0.2-0.1,0.3-0.2,0.5-0.4c-0.2,0-0.4,0-0.6,0c-0.1-0.2-0.1-0.4-0.2-0.6
							c-0.1,0.2-0.1,0.4-0.2,0.6C91.4,48.1,91.2,48.1,91,48.1z"/>
						<path id="_x34_5_1_" class="st5" d="M94.5,48.1c0.2,0.1,0.3,0.3,0.5,0.4c-0.1,0.2-0.1,0.4-0.2,0.6c0.2-0.1,0.3-0.2,0.5-0.4
							c0.2,0.1,0.3,0.3,0.5,0.4c-0.1-0.2-0.1-0.4-0.2-0.6c0.2-0.1,0.3-0.2,0.5-0.4c-0.2,0-0.4,0-0.6,0c-0.1-0.2-0.1-0.4-0.2-0.6
							c-0.1,0.2-0.1,0.4-0.2,0.6C94.9,48.2,94.7,48.2,94.5,48.1z"/>
						<path id="_x34_4_1_" class="st5" d="M78.5,49.1c0.2,0.1,0.3,0.3,0.5,0.4c-0.1,0.2-0.1,0.4-0.2,0.6c0.2-0.1,0.3-0.2,0.5-0.3
							c0.2,0.1,0.3,0.3,0.5,0.4c-0.1-0.2-0.1-0.4-0.2-0.6c0.2-0.1,0.3-0.2,0.5-0.3c-0.2,0-0.4,0-0.6,0c-0.1-0.2-0.1-0.4-0.2-0.6
							c-0.1,0.2-0.1,0.4-0.2,0.6C78.9,49.2,78.7,49.2,78.5,49.1z"/>
						<path id="_x34_3_1_" class="st5" d="M82.1,49.3c0.2,0.1,0.3,0.3,0.5,0.4c-0.1,0.2-0.1,0.4-0.2,0.6c0.2-0.1,0.3-0.2,0.5-0.4
							c0.2,0.1,0.3,0.3,0.5,0.4c-0.1-0.2-0.1-0.4-0.2-0.6c0.2-0.1,0.3-0.2,0.5-0.4c-0.2,0-0.4,0-0.6,0c-0.1-0.2-0.1-0.4-0.2-0.6
							c-0.1,0.2-0.1,0.4-0.2,0.6C82.5,49.3,82.3,49.3,82.1,49.3z"/>
						<path id="_x34_2_1_" class="st5" d="M85.6,49.4c0.2,0.1,0.3,0.3,0.5,0.4c-0.1,0.2-0.1,0.4-0.2,0.6c0.2-0.1,0.3-0.2,0.5-0.4
							c0.2,0.1,0.3,0.3,0.5,0.4c-0.1-0.2-0.1-0.4-0.2-0.6c0.2-0.1,0.3-0.2,0.5-0.4c-0.2,0-0.4,0-0.6,0c-0.1-0.2-0.1-0.4-0.2-0.6
							c-0.1,0.2-0.1,0.4-0.2,0.6C86,49.5,85.8,49.5,85.6,49.4z"/>
						<path id="_x34_1_1_" class="st5" d="M89.2,49.6c0.2,0.1,0.3,0.3,0.5,0.4c-0.1,0.2-0.1,0.4-0.2,0.6c0.2-0.1,0.3-0.2,0.5-0.4
							c0.2,0.1,0.3,0.3,0.5,0.4c-0.1-0.2-0.1-0.4-0.2-0.6c0.2-0.1,0.3-0.2,0.5-0.4c-0.2,0-0.4,0-0.6,0c-0.1-0.2-0.1-0.4-0.2-0.6
							c-0.1,0.2-0.1,0.4-0.2,0.6C89.6,49.6,89.4,49.6,89.2,49.6z"/>
						<path id="_x34_0_1_" class="st5" d="M92.7,49.6c0.2,0.1,0.3,0.3,0.5,0.4c-0.1,0.2-0.1,0.4-0.2,0.6c0.2-0.1,0.3-0.2,0.5-0.4
							c0.2,0.1,0.3,0.3,0.5,0.4C94,50.4,94,50.2,93.9,50c0.2-0.1,0.3-0.2,0.5-0.4c-0.2,0-0.4,0-0.6,0c-0.1-0.2-0.1-0.4-0.2-0.6
							c-0.1,0.2-0.1,0.4-0.2,0.6C93.2,49.6,93,49.6,92.7,49.6z"/>
						<path id="_x33_9_1_" class="st5" d="M76.7,50.6c0.2,0.1,0.3,0.3,0.5,0.4c-0.1,0.2-0.1,0.4-0.2,0.6c0.2-0.1,0.3-0.2,0.5-0.3
							c0.2,0.1,0.3,0.3,0.5,0.4c-0.1-0.2-0.1-0.4-0.2-0.6c0.2-0.1,0.3-0.2,0.5-0.3c-0.2,0-0.4,0-0.6,0c-0.1-0.2-0.1-0.4-0.2-0.6
							c-0.1,0.2-0.1,0.4-0.2,0.6C77.2,50.6,76.9,50.6,76.7,50.6z"/>
						<path id="_x33_8_1_" class="st5" d="M80.3,50.8c0.2,0.1,0.3,0.3,0.5,0.4c-0.1,0.2-0.1,0.4-0.2,0.6c0.2-0.1,0.3-0.2,0.5-0.3
							c0.2,0.1,0.3,0.3,0.5,0.4c-0.1-0.2-0.1-0.4-0.2-0.6c0.2-0.1,0.3-0.2,0.5-0.3c-0.2,0-0.4,0-0.6,0c-0.1-0.2-0.1-0.4-0.2-0.6
							c-0.1,0.2-0.1,0.4-0.2,0.6C80.7,50.8,80.5,50.8,80.3,50.8z"/>
						<path id="_x33_7_1_" class="st5" d="M83.8,50.9c0.2,0.1,0.3,0.3,0.5,0.4c-0.1,0.2-0.1,0.4-0.2,0.6c0.2-0.1,0.3-0.2,0.5-0.4
							c0.2,0.1,0.3,0.3,0.5,0.4c-0.1-0.2-0.1-0.4-0.2-0.6c0.2-0.1,0.3-0.2,0.5-0.4c-0.2,0-0.4,0-0.6,0c-0.1-0.2-0.1-0.4-0.2-0.6
							c-0.1,0.2-0.1,0.4-0.2,0.6C84.3,50.9,84.1,50.9,83.8,50.9z"/>
						<path id="_x33_6_1_" class="st5" d="M87.4,51c0.2,0.1,0.3,0.3,0.5,0.4c-0.1,0.2-0.1,0.4-0.2,0.6c0.2-0.1,0.3-0.2,0.5-0.4
							c0.2,0.1,0.3,0.3,0.5,0.4c-0.1-0.2-0.1-0.4-0.2-0.6c0.2-0.1,0.3-0.2,0.5-0.4c-0.2,0-0.4,0-0.6,0c-0.1-0.2-0.1-0.4-0.2-0.6
							c-0.1,0.2-0.1,0.4-0.2,0.6C87.8,51,87.6,51,87.4,51z"/>
						<path id="_x33_5_1_" class="st5" d="M91,51.1c0.2,0.1,0.3,0.3,0.5,0.4c-0.1,0.2-0.1,0.4-0.2,0.6c0.2-0.1,0.3-0.2,0.5-0.4
							c0.2,0.1,0.3,0.3,0.5,0.4c-0.1-0.2-0.1-0.4-0.2-0.6c0.2-0.1,0.3-0.2,0.5-0.4c-0.2,0-0.4,0-0.6,0c-0.1-0.2-0.1-0.4-0.2-0.6
							c-0.1,0.2-0.1,0.4-0.2,0.6C91.4,51.1,91.2,51.1,91,51.1z"/>
						<path id="_x33_4_1_" class="st5" d="M94.5,51.2c0.2,0.1,0.3,0.3,0.5,0.4c-0.1,0.2-0.1,0.4-0.2,0.6c0.2-0.1,0.3-0.2,0.5-0.4
							c0.2,0.1,0.3,0.3,0.5,0.4c-0.1-0.2-0.1-0.4-0.2-0.6c0.2-0.1,0.3-0.2,0.5-0.4c-0.2,0-0.4,0-0.6,0c-0.1-0.2-0.1-0.4-0.2-0.6
							c-0.1,0.2-0.1,0.4-0.2,0.6C94.9,51.2,94.7,51.2,94.5,51.2z"/>
						<path id="_x33_3_1_" class="st5" d="M78.6,52.2c0.2,0.1,0.3,0.3,0.5,0.4c-0.1,0.2-0.1,0.4-0.2,0.6c0.2-0.1,0.3-0.2,0.5-0.3
							c0.2,0.1,0.3,0.3,0.5,0.4c-0.1-0.2-0.1-0.4-0.2-0.6c0.2-0.1,0.3-0.2,0.5-0.3c-0.2,0-0.4,0-0.6,0c-0.1-0.2-0.1-0.4-0.2-0.6
							c-0.1,0.2-0.1,0.4-0.2,0.6C79,52.2,78.8,52.2,78.6,52.2z"/>
						<path id="_x33_2_1_" class="st5" d="M82.1,52.4c0.2,0.1,0.3,0.3,0.5,0.4c-0.1,0.2-0.1,0.4-0.2,0.6c0.2-0.1,0.3-0.2,0.5-0.4
							c0.2,0.1,0.3,0.3,0.5,0.4c-0.1-0.2-0.1-0.4-0.2-0.6c0.2-0.1,0.3-0.2,0.5-0.4c-0.2,0-0.4,0-0.6,0c-0.1-0.2-0.1-0.4-0.2-0.6
							c-0.1,0.2-0.1,0.4-0.2,0.6C82.5,52.4,82.3,52.4,82.1,52.4z"/>
						<path id="_x33_1_1_" class="st5" d="M85.7,52.5c0.2,0.1,0.3,0.3,0.5,0.4c-0.1,0.2-0.1,0.4-0.2,0.6c0.2-0.1,0.3-0.2,0.5-0.4
							c0.2,0.1,0.3,0.3,0.5,0.4c-0.1-0.2-0.1-0.4-0.2-0.6c0.2-0.1,0.3-0.2,0.5-0.4c-0.2,0-0.4,0-0.6,0c-0.1-0.2-0.1-0.4-0.2-0.6
							c-0.1,0.2-0.1,0.4-0.2,0.6C86.1,52.5,85.9,52.5,85.7,52.5z"/>
						<path id="_x33_0_1_" class="st5" d="M89.2,52.6c0.2,0.1,0.3,0.3,0.5,0.4c-0.1,0.2-0.1,0.4-0.2,0.6c0.2-0.1,0.3-0.2,0.5-0.4
							c0.2,0.1,0.3,0.3,0.5,0.4c-0.1-0.2-0.1-0.4-0.2-0.6c0.2-0.1,0.3-0.2,0.5-0.4c-0.2,0-0.4,0-0.6,0c-0.1-0.2-0.1-0.4-0.2-0.6
							c-0.1,0.2-0.1,0.4-0.2,0.6C89.6,52.6,89.4,52.6,89.2,52.6z"/>
						<path id="_x32_9_1_" class="st5" d="M92.8,52.7c0.2,0.1,0.3,0.3,0.5,0.4c-0.1,0.2-0.1,0.4-0.2,0.6c0.2-0.1,0.3-0.2,0.5-0.4
							c0.2,0.1,0.3,0.3,0.5,0.4c-0.1-0.2-0.1-0.4-0.2-0.6c0.2-0.1,0.3-0.2,0.5-0.4c-0.2,0-0.4,0-0.6,0c-0.1-0.2-0.1-0.4-0.2-0.6
							c-0.1,0.2-0.1,0.4-0.2,0.6C93.2,52.7,93,52.7,92.8,52.7z"/>
						<path id="_x32_8_1_" class="st5" d="M76.8,53.6c0.2,0.1,0.3,0.3,0.5,0.4c-0.1,0.2-0.1,0.4-0.2,0.6c0.2-0.1,0.3-0.2,0.5-0.3
							c0.2,0.1,0.3,0.3,0.5,0.4c-0.1-0.2-0.1-0.4-0.2-0.6c0.2-0.1,0.3-0.2,0.5-0.3c-0.2,0-0.4,0-0.6,0c-0.1-0.2-0.1-0.4-0.2-0.6
							c-0.1,0.2-0.1,0.4-0.2,0.6C77.2,53.6,77,53.6,76.8,53.6z"/>
						<path id="_x32_7_1_" class="st5" d="M80.3,53.8c0.2,0.1,0.3,0.3,0.5,0.4c-0.1,0.2-0.1,0.4-0.2,0.6c0.2-0.1,0.3-0.2,0.5-0.3
							c0.2,0.1,0.3,0.3,0.5,0.4c-0.1-0.2-0.1-0.4-0.2-0.6c0.2-0.1,0.3-0.2,0.5-0.3c-0.2,0-0.4,0-0.6,0c-0.1-0.2-0.1-0.4-0.2-0.6
							c-0.1,0.2-0.1,0.4-0.2,0.6C80.8,53.8,80.6,53.8,80.3,53.8z"/>
						<path id="_x32_6_1_" class="st5" d="M83.9,53.9c0.2,0.1,0.3,0.3,0.5,0.4c-0.1,0.2-0.1,0.4-0.2,0.6c0.2-0.1,0.3-0.2,0.5-0.4
							c0.2,0.1,0.3,0.3,0.5,0.4c-0.1-0.2-0.1-0.4-0.2-0.6c0.2-0.1,0.3-0.2,0.5-0.4c-0.2,0-0.4,0-0.6,0c-0.1-0.2-0.1-0.4-0.2-0.6
							c-0.1,0.2-0.1,0.4-0.2,0.6C84.3,54,84.1,54,83.9,53.9z"/>
						<path id="_x32_5_1_" class="st5" d="M87.5,54.1c0.2,0.1,0.3,0.3,0.5,0.4c-0.1,0.2-0.1,0.4-0.2,0.6c0.2-0.1,0.3-0.2,0.5-0.4
							c0.2,0.1,0.3,0.3,0.5,0.4c-0.1-0.2-0.1-0.4-0.2-0.6c0.2-0.1,0.3-0.2,0.5-0.4c-0.2,0-0.4,0-0.6,0c-0.1-0.2-0.1-0.4-0.2-0.6
							c-0.1,0.2-0.1,0.4-0.2,0.6C87.9,54.1,87.7,54.1,87.5,54.1z"/>
						<path id="_x32_4_1_" class="st5" d="M91,54.2c0.2,0.1,0.3,0.3,0.5,0.4c-0.1,0.2-0.1,0.4-0.2,0.6c0.2-0.1,0.3-0.2,0.5-0.4
							c0.2,0.1,0.3,0.3,0.5,0.4c-0.1-0.2-0.1-0.4-0.2-0.6c0.2-0.1,0.3-0.2,0.5-0.4c-0.2,0-0.4,0-0.6,0c-0.1-0.2-0.1-0.4-0.2-0.6
							c-0.1,0.2-0.1,0.4-0.2,0.6C91.4,54.2,91.2,54.2,91,54.2z"/>
						<path id="_x32_3_1_" class="st5" d="M94.6,54.2c0.2,0.1,0.3,0.3,0.5,0.4C95,54.8,95,55,94.9,55.2c0.2-0.1,0.3-0.2,0.5-0.4
							c0.2,0.1,0.3,0.3,0.5,0.4c-0.1-0.2-0.1-0.4-0.2-0.6c0.2-0.1,0.3-0.2,0.5-0.4c-0.2,0-0.4,0-0.6,0c-0.1-0.2-0.1-0.4-0.2-0.6
							c-0.1,0.2-0.1,0.4-0.2,0.6C95,54.2,94.8,54.2,94.6,54.2z"/>
						<path id="_x32_2_1_" class="st5" d="M76.8,56.6c0.2,0.1,0.3,0.3,0.5,0.4c-0.1,0.2-0.1,0.4-0.2,0.6c0.2-0.1,0.3-0.2,0.5-0.3
							c0.2,0.1,0.3,0.3,0.5,0.4c-0.1-0.2-0.1-0.4-0.2-0.6c0.2-0.1,0.3-0.2,0.5-0.3c-0.2,0-0.4,0-0.6,0c-0.1-0.2-0.1-0.4-0.2-0.6
							c-0.1,0.2-0.1,0.4-0.2,0.6C77.2,56.7,77,56.6,76.8,56.6z"/>
						<path id="_x32_1_1_" class="st5" d="M80.4,56.8c0.2,0.1,0.3,0.3,0.5,0.4c-0.1,0.2-0.1,0.4-0.2,0.6c0.2-0.1,0.3-0.2,0.5-0.3
							c0.2,0.1,0.3,0.3,0.5,0.4c-0.1-0.2-0.1-0.4-0.2-0.6c0.2-0.1,0.3-0.2,0.5-0.4c-0.2,0-0.4,0-0.6,0c-0.1-0.2-0.1-0.4-0.2-0.6
							c-0.1,0.2-0.1,0.4-0.2,0.6C80.8,56.8,80.6,56.8,80.4,56.8z"/>
						<path id="_x32_0_1_" class="st5" d="M83.9,57c0.2,0.1,0.3,0.3,0.5,0.4c-0.1,0.2-0.1,0.4-0.2,0.6c0.2-0.1,0.3-0.2,0.5-0.4
							c0.2,0.1,0.3,0.3,0.5,0.4c-0.1-0.2-0.1-0.4-0.2-0.6c0.2-0.1,0.3-0.2,0.5-0.4c-0.2,0-0.4,0-0.6,0c-0.1-0.2-0.1-0.4-0.2-0.6
							c-0.1,0.2-0.1,0.4-0.2,0.6C84.4,57,84.1,57,83.9,57z"/>
						<path id="_x31_9_1_" class="st5" d="M87.5,57.1c0.2,0.1,0.3,0.3,0.5,0.4c-0.1,0.2-0.1,0.4-0.2,0.6c0.2-0.1,0.3-0.2,0.5-0.4
							c0.2,0.1,0.3,0.3,0.5,0.4c-0.1-0.2-0.1-0.4-0.2-0.6c0.2-0.1,0.3-0.2,0.5-0.4c-0.2,0-0.4,0-0.6,0c-0.1-0.2-0.1-0.4-0.2-0.6
							c-0.1,0.2-0.1,0.4-0.2,0.6C87.9,57.1,87.7,57.1,87.5,57.1z"/>
						<path id="_x31_8_1_" class="st5" d="M91.1,57.2c0.2,0.1,0.3,0.3,0.5,0.4c-0.1,0.2-0.1,0.4-0.2,0.6c0.2-0.1,0.3-0.2,0.5-0.4
							c0.2,0.1,0.3,0.3,0.5,0.4c-0.1-0.2-0.1-0.4-0.2-0.6c0.2-0.1,0.3-0.2,0.5-0.4c-0.2,0-0.4,0-0.6,0c-0.1-0.2-0.1-0.4-0.2-0.6
							c-0.1,0.2-0.1,0.4-0.2,0.6C91.5,57.2,91.3,57.2,91.1,57.2z"/>
						<path id="_x31_7_1_" class="st5" d="M94.6,57.2c0.2,0.1,0.3,0.3,0.5,0.4c-0.1,0.2-0.1,0.4-0.2,0.6c0.2-0.1,0.3-0.2,0.5-0.4
							c0.2,0.1,0.3,0.3,0.5,0.4c-0.1-0.2-0.1-0.4-0.2-0.6c0.2-0.1,0.3-0.2,0.5-0.4c-0.2,0-0.4,0-0.6,0c-0.1-0.2-0.1-0.4-0.2-0.6
							c-0.1,0.2-0.1,0.4-0.2,0.6C95,57.2,94.8,57.2,94.6,57.2z"/>
						<path id="_x31_6_1_" class="st5" d="M76.8,59.7c0.2,0.1,0.3,0.3,0.5,0.4c-0.1,0.2-0.1,0.4-0.2,0.6c0.2-0.1,0.3-0.2,0.5-0.3
							c0.2,0.1,0.3,0.3,0.5,0.4c-0.1-0.2-0.1-0.4-0.2-0.6c0.2-0.1,0.3-0.2,0.5-0.3c-0.2,0-0.4,0-0.6,0c-0.1-0.2-0.1-0.4-0.2-0.6
							c-0.1,0.2-0.1,0.4-0.2,0.6C77.2,59.7,77,59.7,76.8,59.7z"/>
						<path id="_x31_5_1_" class="st5" d="M80.3,59.8c0.2,0.1,0.3,0.3,0.5,0.4c-0.1,0.2-0.1,0.4-0.2,0.6c0.2-0.1,0.3-0.2,0.5-0.3
							c0.2,0.1,0.3,0.3,0.5,0.4c-0.1-0.2-0.1-0.4-0.2-0.6c0.2-0.1,0.3-0.2,0.5-0.3c-0.2,0-0.4,0-0.6,0c-0.1-0.2-0.1-0.4-0.2-0.6
							c-0.1,0.2-0.1,0.4-0.2,0.6C80.8,59.9,80.5,59.8,80.3,59.8z"/>
						<path id="_x31_4_1_" class="st5" d="M83.9,60c0.2,0.1,0.3,0.3,0.5,0.4c-0.1,0.2-0.1,0.4-0.2,0.6c0.2-0.1,0.3-0.2,0.5-0.4
							c0.2,0.1,0.3,0.3,0.5,0.4c-0.1-0.2-0.1-0.4-0.2-0.6c0.2-0.1,0.3-0.2,0.5-0.4c-0.2,0-0.4,0-0.6,0c-0.1-0.2-0.1-0.4-0.2-0.6
							c-0.1,0.2-0.1,0.4-0.2,0.6C84.3,60,84.1,60,83.9,60z"/>
						<path id="_x31_3_1_" class="st5" d="M87.4,60.1c0.2,0.1,0.3,0.3,0.5,0.4c-0.1,0.2-0.1,0.4-0.2,0.6c0.2-0.1,0.3-0.2,0.5-0.4
							c0.2,0.1,0.3,0.3,0.5,0.4c-0.1-0.2-0.1-0.4-0.2-0.6c0.2-0.1,0.3-0.2,0.5-0.4c-0.2,0-0.4,0-0.6,0c-0.1-0.2-0.1-0.4-0.2-0.6
							c-0.1,0.2-0.1,0.4-0.2,0.6C87.9,60.1,87.7,60.1,87.4,60.1z"/>
						<path id="_x31_2_1_" class="st5" d="M91,60.2c0.2,0.1,0.3,0.3,0.5,0.4c-0.1,0.2-0.1,0.4-0.2,0.6c0.2-0.1,0.3-0.2,0.5-0.4
							c0.2,0.1,0.3,0.3,0.5,0.4c-0.1-0.2-0.1-0.4-0.2-0.6c0.2-0.1,0.3-0.2,0.5-0.4c-0.2,0-0.4,0-0.6,0c-0.1-0.2-0.1-0.4-0.2-0.6
							c-0.1,0.2-0.1,0.4-0.2,0.6C91.4,60.2,91.2,60.2,91,60.2z"/>
						<path id="_x31_1_1_" class="st5" d="M94.6,60.3c0.2,0.1,0.3,0.3,0.5,0.4c-0.1,0.2-0.1,0.4-0.2,0.6c0.2-0.1,0.3-0.2,0.5-0.4
							c0.2,0.1,0.3,0.3,0.5,0.4c-0.1-0.2-0.1-0.4-0.2-0.6c0.2-0.1,0.3-0.2,0.5-0.4c-0.2,0-0.4,0-0.6,0c-0.1-0.2-0.1-0.4-0.2-0.6
							c-0.1,0.2-0.1,0.4-0.2,0.6C95,60.3,94.8,60.3,94.6,60.3z"/>
						<path id="_x31_0_1_" class="st5" d="M78.6,55.2c0.2,0.1,0.3,0.3,0.5,0.4c-0.1,0.2-0.1,0.4-0.2,0.6c0.2-0.1,0.3-0.2,0.5-0.3
							c0.2,0.1,0.3,0.3,0.5,0.4c-0.1-0.2-0.1-0.4-0.2-0.6c0.2-0.1,0.3-0.2,0.5-0.3c-0.2,0-0.4,0-0.6,0c-0.1-0.2-0.1-0.4-0.2-0.6
							c-0.1,0.2-0.1,0.4-0.2,0.6C79,55.2,78.8,55.2,78.6,55.2z"/>
						<path id="_x39__1_" class="st5" d="M82.1,55.4c0.2,0.1,0.3,0.3,0.5,0.4c-0.1,0.2-0.1,0.4-0.2,0.6c0.2-0.1,0.3-0.2,0.5-0.4
							c0.2,0.1,0.3,0.3,0.5,0.4c-0.1-0.2-0.1-0.4-0.2-0.6c0.2-0.1,0.3-0.2,0.5-0.4c-0.2,0-0.4,0-0.6,0C83.1,55.2,83,55,83,54.8
							c-0.1,0.2-0.1,0.4-0.2,0.6C82.5,55.4,82.3,55.4,82.1,55.4z"/>
						<path id="_x38__1_" class="st5" d="M85.7,55.5c0.2,0.1,0.3,0.3,0.5,0.4c-0.1,0.2-0.1,0.4-0.2,0.6c0.2-0.1,0.3-0.2,0.5-0.4
							c0.2,0.1,0.3,0.3,0.5,0.4c-0.1-0.2-0.1-0.4-0.2-0.6c0.2-0.1,0.3-0.2,0.5-0.4c-0.2,0-0.4,0-0.6,0c-0.1-0.2-0.1-0.4-0.2-0.6
							c-0.1,0.2-0.1,0.4-0.2,0.6C86.1,55.5,85.9,55.5,85.7,55.5z"/>
						<path id="_x37__1_" class="st5" d="M89.2,55.6c0.2,0.1,0.3,0.3,0.5,0.4c-0.1,0.2-0.1,0.4-0.2,0.6c0.2-0.1,0.3-0.2,0.5-0.4
							c0.2,0.1,0.3,0.3,0.5,0.4c-0.1-0.2-0.1-0.4-0.2-0.6c0.2-0.1,0.3-0.2,0.5-0.4c-0.2,0-0.4,0-0.6,0c-0.1-0.2-0.1-0.4-0.2-0.6
							c-0.1,0.2-0.1,0.4-0.2,0.6C89.7,55.6,89.4,55.6,89.2,55.6z"/>
						<path id="_x36__1_" class="st5" d="M92.8,55.7c0.2,0.1,0.3,0.3,0.5,0.4c-0.1,0.2-0.1,0.4-0.2,0.6c0.2-0.1,0.3-0.2,0.5-0.4
							c0.2,0.1,0.3,0.3,0.5,0.4c-0.1-0.2-0.1-0.4-0.2-0.6c0.2-0.1,0.3-0.2,0.5-0.4c-0.2,0-0.4,0-0.6,0c-0.1-0.2-0.1-0.4-0.2-0.6
							c-0.1,0.2-0.1,0.4-0.2,0.6C93.2,55.7,93,55.7,92.8,55.7z"/>
						<path id="_x35__1_" class="st5" d="M78.6,58.2c0.2,0.1,0.3,0.3,0.5,0.4c-0.1,0.2-0.1,0.4-0.2,0.6c0.2-0.1,0.3-0.2,0.5-0.3
							c0.2,0.1,0.3,0.3,0.5,0.4c-0.1-0.2-0.1-0.4-0.2-0.6c0.2-0.1,0.3-0.2,0.5-0.3c-0.2,0-0.4,0-0.6,0c-0.1-0.2-0.1-0.4-0.2-0.6
							c-0.1,0.2-0.1,0.4-0.2,0.6C79,58.3,78.8,58.2,78.6,58.2z"/>
						<path id="_x34__1_" class="st5" d="M82.1,58.4c0.2,0.1,0.3,0.3,0.5,0.4c-0.1,0.2-0.1,0.4-0.2,0.6c0.2-0.1,0.3-0.2,0.5-0.4
							c0.2,0.1,0.3,0.3,0.5,0.4c-0.1-0.2-0.1-0.4-0.2-0.6c0.2-0.1,0.3-0.2,0.5-0.4c-0.2,0-0.4,0-0.6,0c-0.1-0.2-0.1-0.4-0.2-0.6
							c-0.1,0.2-0.1,0.4-0.2,0.6C82.5,58.4,82.3,58.4,82.1,58.4z"/>
						<path id="_x33__1_" class="st5" d="M85.7,58.5c0.2,0.1,0.3,0.3,0.5,0.4c-0.1,0.2-0.1,0.4-0.2,0.6c0.2-0.1,0.3-0.2,0.5-0.4
							c0.2,0.1,0.3,0.3,0.5,0.4c-0.1-0.2-0.1-0.4-0.2-0.6c0.2-0.1,0.3-0.2,0.5-0.4c-0.2,0-0.4,0-0.6,0c-0.1-0.2-0.1-0.4-0.2-0.6
							c-0.1,0.2-0.1,0.4-0.2,0.6C86.1,58.5,85.9,58.5,85.7,58.5z"/>
						<path id="_x32__1_" class="st5" d="M89.2,58.6c0.2,0.1,0.3,0.3,0.5,0.4c-0.1,0.2-0.1,0.4-0.2,0.6c0.2-0.1,0.3-0.2,0.5-0.4
							c0.2,0.1,0.3,0.3,0.5,0.4c-0.1-0.2-0.1-0.4-0.2-0.6c0.2-0.1,0.3-0.2,0.5-0.4c-0.2,0-0.4,0-0.6,0c-0.1-0.2-0.1-0.4-0.2-0.6
							c-0.1,0.2-0.1,0.4-0.2,0.6C89.6,58.6,89.4,58.6,89.2,58.6z"/>
						<path id="_x31__1_" class="st5" d="M92.8,58.7c0.2,0.1,0.3,0.3,0.5,0.4c-0.1,0.2-0.1,0.4-0.2,0.6c0.2-0.1,0.3-0.2,0.5-0.4
							c0.2,0.1,0.3,0.3,0.5,0.4c-0.1-0.2-0.1-0.4-0.2-0.6c0.2-0.1,0.3-0.2,0.5-0.4c-0.2,0-0.4,0-0.6,0c-0.1-0.2-0.1-0.4-0.2-0.6
							c-0.1,0.2-0.1,0.4-0.2,0.6C93.2,58.7,93,58.7,92.8,58.7z"/>
					</g>
				</g>
			</g>
			<g>
				<g>
					<defs>
						<path id="SVGID_2_" d="M75.9,73.9c0-8.9,0-17.9,0-26.8c0-0.3,0.3-0.6,0.6-0.6c17.4,0.9,34.9,0.9,52.3,0c0.3,0,0.6,0.2,0.6,0.6
							c0,8.9,0,17.9,0,26.8c0,0.3-0.3,0.6-0.6,0.6c-17.4,0.9-34.9,0.9-52.3,0C76.1,74.5,75.9,74.2,75.9,73.9z"/>
					</defs>
					<clipPath id="SVGID_11_">
						<use xlink:href="#SVGID_2_"  style="overflow:visible;"/>
					</clipPath>
				</g>
			</g>
		</g>
		<g>
			<defs>
				<polygon id="SVGID_1_" points="91.9,3.1 94.1,3 94.1,28.3 91.4,28.3 91.4,31.9 112.3,31.9 112.3,0 91.9,0 				"/>
			</defs>
			<clipPath id="SVGID_12_">
				<use xlink:href="#SVGID_1_"  style="overflow:visible;"/>
			</clipPath>
			<g class="st11">
				<path class="st12" d="M108,29.6H94.4c-0.9,0-1.7-0.8-1.7-1.7V3.4c0-0.9,0.8-1.7,1.7-1.7H108c0.9,0,1.7,0.8,1.7,1.7v24.5
					C109.7,28.8,108.9,29.6,108,29.6z"/>
				<rect x="108.2" y="3.2" class="st13" width="3" height="25.2"/>
				<line class="st12" x1="109.7" y1="15" x2="101.5" y2="15"/>
			</g>
		</g>
	</g>
	<g>
		<path class="st14" d="M180,59.1c0,0,8.7-3.4,13.1-3.3c4.3,0.1,9.5,1.2,12.6,3.5c-3.3,2.8-12.8,4.7-12.8,4.7L180,59.1z"/>
		<path class="st15" d="M193.1,79.3c0,0,10.6-1.7,12.6-5.6s1.8-13.2,0-14.3s-5.3,0.4-8.8,2s-5.7,0.3-5.7,0.3l-1.6,5.3L193.1,79.3z"
			/>
		<path class="st16" d="M182.3,58.8c0,0-2.2-0.3-3,0.8c-0.8,1.1-4.9,12.6,0.9,15.3c5.8,2.8,12.9,4.3,12.9,4.3s2.8-2.7,1.3-8.6
			c-0.7-3.1-1-3.7-1.2-6.9C193.1,61.6,185.7,59.3,182.3,58.8z"/>
		<ellipse class="st17" cx="187.1" cy="66.7" rx="1.7" ry="2.7"/>
		<ellipse class="st18" cx="198.3" cy="72.4" rx="1.7" ry="2.1"/>
		<ellipse class="st18" cx="202" cy="64.3" rx="1.2" ry="1.5"/>
		<ellipse class="st18" cx="194.7" cy="58.5" rx="1.6" ry="0.8"/>
		<path class="st17" d="M182.3,58.8c0,0-0.2,2.1,1.5,2.3c1.7,0.2,1.8-1.6,1.8-1.6s1.3-0.5,1.1-0.9S184.4,58.2,182.3,58.8z"/>
	</g>
	<g>
		<path class="st14" d="M228.2,57.1c0,0-4.9-2.5-7.4-2.4s-5.3,0.9-7.1,2.6c1.8,2.1,7.2,3.5,7.2,3.5L228.2,57.1z"/>
		<path class="st16" d="M220.9,70.7c0,0-5.9,0.2-7.1-2.7s-1-9.8,0-10.7s3,0.3,5,1.5c2,1.2,3.2,0.2,3.2,0.2l0.9,4L220.9,70.7z"/>
		<path class="st15" d="M227,56.9c0,0,1.2-0.2,1.7,0.6s2.8,9.4-0.5,11.4c-3.3,2.1-7.2,1.7-7.2,1.7s-1.5-0.5-0.7-4.9
			c0.4-2.3,0.5-2.8,0.7-5.2C220.9,59,225.1,57.3,227,56.9z"/>
		<ellipse class="st17" cx="223.6" cy="66.6" rx="1.3" ry="2"/>
		<ellipse class="st17" cx="227.2" cy="62.4" rx="0.8" ry="1.2"/>
		<ellipse class="st17" cx="215.9" cy="61.2" rx="0.7" ry="0.9"/>
		<ellipse class="st18" cx="219.5" cy="56.7" rx="1.2" ry="0.6"/>
		<path class="st18" d="M226.4,57c0,0,0.4,1.5-0.9,1.8s-1.5-1-1.5-1s-1-0.2-0.9-0.6S224.9,56.8,226.4,57z"/>
	</g>
</g>
</svg>
