<!-- Generator: Adobe Illustrator 24.2.3, SVG Export Plug-In  -->
<svg version="1.1" xmlns="http://www.w3.org/2000/svg" xmlns:xlink="http://www.w3.org/1999/xlink" x="0px" y="0px" width="55.4px"
	 height="84.9px" viewBox="0 0 55.4 84.9" style="overflow:visible;enable-background:new 0 0 55.4 84.9;" xml:space="preserve">
<style type="text/css">
	.st0{fill:none;stroke:#141F52;stroke-width:0.75;stroke-linecap:round;stroke-linejoin:round;}
</style>
<defs>
</defs>
<path class="st0" d="M1.3,37.3c0,0,4,3.6,6.6,7.4c2.6,3.8,4.1,7.4,4.6,9.1c0.5,1.7,0.3,4.5-0.7,6.7s-4.2,8.9-5,11.1
	c-0.7,2.3-1.7,6.5,0.5,9.3s5.9,3.8,8.4,3.6c2.5-0.2,5.3-2.1,7.1-4.4s7.1-9.3,8.3-10.8c1.3-1.7,3.6-4.5,4.3-5.3
	c1-1.2,1.7-3.3,1.7-7.3s0.7-11.6,1.6-14.5s2-7.4,4.8-10.6c2.6-2.9,5.6-5.5,7.7-7.9c2.7-3.1,4.5-7,3.5-11.9c-0.5-2.4-3.1-5.7-5-7.5
	s-4.1-4-10.7-3.8S-5.9,27.5,1.3,37.3z"/>
</svg>
