<!-- Generator: Adobe Illustrator 24.2.3, SVG Export Plug-In  -->
<svg version="1.1" xmlns="http://www.w3.org/2000/svg" xmlns:xlink="http://www.w3.org/1999/xlink" x="0px" y="0px" width="160px"
	 height="160px" viewBox="0 0 160 160" style="overflow:visible;enable-background:new 0 0 160 160;" xml:space="preserve">
<style type="text/css">
	.st0{fill:#EBE9E0;}
	.st1{fill:#FFFFFF;stroke:#141F52;stroke-width:1.4583;stroke-linecap:round;stroke-linejoin:round;}
	.st2{fill:#141F52;}
	.st3{fill:none;stroke:#D6DBF5;stroke-width:1.7137;stroke-linejoin:round;stroke-miterlimit:10;}
	.st4{fill:#E3120B;}
	.st5{fill:#D6DBF5;}
	.st6{fill:none;stroke:#141F52;stroke-width:1.4583;stroke-linecap:round;stroke-linejoin:round;}
</style>
<defs>
</defs>
<g>
	<circle class="st0" cx="80" cy="80" r="80"/>
	<g>
		<polygon class="st1" points="49.2,97 57.1,103.9 48.3,123.6 30.8,111.2 		"/>
		<polygon class="st1" points="110.9,97 103,103.9 111.8,123.6 129.3,111.2 		"/>
		<polygon class="st1" points="103,103.9 57.1,103.9 48.3,123.6 111.8,123.6 		"/>
	</g>
	<g>
		<g>
			<path class="st2" d="M80,34c-15.6,0-28.2,12.6-28.2,28.2C51.8,77.7,80,113,80,113s28.2-35.2,28.2-50.8C108.2,46.6,95.6,34,80,34z
				 M80,72.6c-5.8,0-10.4-4.7-10.4-10.4S74.2,51.7,80,51.7c5.8,0,10.4,4.7,10.4,10.4S85.8,72.6,80,72.6z"/>
		</g>
	</g>
	<g>
		<g>
			<g>
				<line class="st3" x1="97.4" y1="57.6" x2="97.4" y2="52.6"/>
				<line class="st3" x1="97.4" y1="71.9" x2="97.4" y2="66.9"/>
			</g>
			<g>
				<line class="st3" x1="100.7" y1="59" x2="104.3" y2="55.4"/>
				<line class="st3" x1="90.6" y1="69.1" x2="94.1" y2="65.5"/>
			</g>
			<g>
				<line class="st3" x1="102.1" y1="62.3" x2="107.1" y2="62.3"/>
				<line class="st3" x1="87.7" y1="62.3" x2="92.8" y2="62.3"/>
			</g>
			<g>
				<line class="st3" x1="100.7" y1="65.5" x2="104.3" y2="69.1"/>
				<line class="st3" x1="90.6" y1="55.4" x2="94.1" y2="59"/>
			</g>
		</g>
		<polygon class="st4" points="99.4,64.3 106.8,86.9 110.9,78.3 119.5,86.9 121.8,84.4 113.3,75.6 121.8,71.5 		"/>
	</g>
	<polygon class="st5" points="105.2,102 120.6,117.3 111.8,123.6 103,103.9 	"/>
	<polygon class="st5" points="100.2,103.9 103,123.6 111.8,123.6 103,103.9 	"/>
	<polygon class="st5" points="59.9,103.9 57,123.6 48.3,123.6 57,103.9 	"/>
	<polygon class="st5" points="57.1,103.9 54.7,101.9 39.3,117.2 48.3,123.6 	"/>
	<g>
		<polygon class="st6" points="49.2,97 57.1,103.9 48.3,123.6 30.8,111.2 		"/>
		<polygon class="st6" points="110.9,97 103,103.9 111.8,123.6 129.3,111.2 		"/>
		<polygon class="st6" points="103,103.9 57.1,103.9 48.3,123.6 111.8,123.6 		"/>
	</g>
</g>
</svg>
